<?xml version="1.0" encoding="utf-8"?>
<!-- Generator: Adobe Illustrator 26.1.0, SVG Export Plug-In . SVG Version: 6.00 Build 0)  -->
<svg version="1.1" id="Layer_1" xmlns="http://www.w3.org/2000/svg" xmlns:xlink="http://www.w3.org/1999/xlink" x="0px" y="0px"
	 width="225px" height="46px" viewBox="0 0 225 46" enable-background="new 0 0 225 46" xml:space="preserve">
<path fill-rule="evenodd" clip-rule="evenodd" fill="#9CA3AF" d="M215.5,23h8.1c-4.3-2.1-7.8-5.4-10-9.6
	c-3.6-6.8-10.5-10.7-19.4-11.6l0.2,0.6c6.2,2.4,10.5,6.2,13,11.5l0,0C209.2,17.6,212,20.8,215.5,23z M194.3,8.7
	c1.5,5.2,3.5,9.6,5.2,11.7l0,0c0.9,1.1,2.1,2,3.4,2.6h6.4c-3-1.3-5.5-3.6-6.8-6.5l0,0C200.9,13,198,10.2,194.3,8.7z"/>
<path fill-rule="evenodd" clip-rule="evenodd" fill="#9CA3AF" d="M215.5,23h8.1c-4.3,2.1-7.8,5.4-10,9.6v0
	c-3.6,6.8-10.5,10.7-19.4,11.6l0.2-0.6c6.2-2.4,10.5-6.2,13-11.5l0,0C209.2,28.3,212,25.2,215.5,23z M194.3,37.3
	c1.5-5.2,3.5-9.6,5.2-11.7l0,0c0.9-1.1,2.1-2,3.4-2.6h6.4c-3,1.3-5.5,3.6-6.8,6.5l0,0C200.9,33,198,35.8,194.3,37.3z"/>
<path fill-rule="evenodd" clip-rule="evenodd" fill="#9CA3AF" d="M56.3,33l0.7-3.5H39.4V25h14.1c0,0,0,0,0,0v-4.1H39.4v-4.4h15.9
	c0.4,0,0.7-0.3,0.8-0.6l0.6-3.5H35.1c-0.4,0-0.7,0.3-0.7,0.7v20.4h21.2C56,33.6,56.3,33.3,56.3,33z M115.9,33l0.7-3.5H98.9V25H113
	c0,0,0,0,0,0v-4.1H98.9v-4.4h15.9c0.4,0,0.7-0.3,0.8-0.6l0.6-3.5H94.7c-0.4,0-0.7,0.3-0.7,0.7v20.4h21.2
	C115.5,33.6,115.8,33.3,115.9,33z M157.8,18.7L173.4,33c0.4,0.4,0.9,0.6,1.4,0.6h3.6V12.4h-4c-0.4,0-0.8,0.3-0.8,0.7v13.6l-15-13.8
	c-0.4-0.3-0.9-0.5-1.4-0.5h-4.3v21.1h4.9L157.8,18.7z M8.9,29.7c0.2-0.4,0.7-0.7,1.2-0.7H22l2.1,3.9c0.2,0.4,0.7,0.7,1.2,0.7h4.8
	L19.1,13.3c-0.3-0.5-0.9-0.9-1.5-0.9h-4.7L1.4,33.6h5.4L8.9,29.7z M15.7,17.3l4.1,7.6h-8.3L15.7,17.3z M127.2,29.7
	c0.2-0.4,0.7-0.7,1.2-0.7h11.9l2.1,3.9c0.2,0.4,0.7,0.7,1.1,0.7h4.8l-11.1-20.3c-0.3-0.5-0.9-0.9-1.5-0.9h-4.7l-11.6,21.1h5.4
	L127.2,29.7z M134,17.3l4.1,7.6h-8.3L134,17.3z M87.4,31v-9.3H78v3.4c0,0.4,0.3,0.7,0.7,0.7h3.7v2.8c-1.3,0.9-4.3,1.5-7.5,1.5
	c-5.2,0-8.4-2.6-8.4-6.9c0.1-4.2,3.3-6.9,8.4-6.9c3.6,0,6.7,0.8,9.6,2.3l2.2-4c-6-2.9-11.3-2.7-11.8-2.7c-7.9,0-13.4,4.6-13.4,11.2
	c0,6.7,5.3,11.2,13.1,11.2C83.1,34.3,87.4,31,87.4,31z"/>
</svg>
