<?xml version="1.0" encoding="utf-8"?>
<!-- Generator: Adobe Illustrator 26.1.0, SVG Export Plug-In . SVG Version: 6.00 Build 0)  -->
<svg version="1.1" id="Layer_1" xmlns="http://www.w3.org/2000/svg" xmlns:xlink="http://www.w3.org/1999/xlink" x="0px" y="0px"
	 width="520px" height="105px" viewBox="0 0 520 105" enable-background="new 0 0 520 105" xml:space="preserve">
<path fill="#9CA3AF" d="M392.9,95.8l-2,4.3h-2l8.3-17.1h0.4l8.3,17.1h-2.2l-2-4.3H392.9z M393.6,94.3h7.3l-3.6-7.6L393.6,94.3z
	 M415.3,97.5l-0.2,2c-0.2,0.1-0.5,0.2-0.8,0.4c-1,0.4-2.1,0.7-3.3,0.7c-1.7,0-3-0.5-4-1.5c-1-1-1.5-2.3-1.5-4c0-1.6,0.5-3,1.6-4.1
	c1.1-1.1,2.4-1.7,4-1.7c1.4,0,2.5,0.5,3.4,1.4c0.9,0.9,1.4,2,1.4,3.4c0,0.5-0.2,0.8-0.5,1c-0.2,0.1-0.6,0.1-1.2,0.2l-0.7,0l-6.3,0.1
	c0.3,2.5,1.5,3.8,3.8,3.8c0.7,0,1.4-0.1,2-0.3C413.9,98.5,414.6,98.1,415.3,97.5z M414.2,93.8c-0.2-2.1-1.2-3.1-3.1-3.1
	c-0.9,0-1.7,0.3-2.4,0.9c-0.7,0.6-1.1,1.4-1.3,2.4L414.2,93.8z M417.4,100.1V89.8h1.8v1.7c0.4-0.5,0.7-0.9,1-1.1
	c0.3-0.3,0.7-0.4,1-0.6c0.4-0.2,1.1-0.2,2.1-0.3v1.8H423c-2.5,0-3.8,1.2-3.8,3.6v5.1H417.4z M423.5,85.9c0-0.3,0.1-0.6,0.4-0.9
	c0.2-0.2,0.5-0.4,0.9-0.4c0.3,0,0.6,0.1,0.9,0.4c0.2,0.2,0.4,0.5,0.4,0.9s-0.1,0.6-0.4,0.9c-0.2,0.2-0.5,0.4-0.9,0.4
	c-0.3,0-0.6-0.1-0.9-0.4C423.6,86.6,423.5,86.3,423.5,85.9z M423.8,100.1V89.9l1.8-0.4v10.6H423.8z M437.7,90v7.7
	c0,0.7,0.1,1.4,0.2,2.2l-1.6,0.6l-0.3-1.2c-1.2,0.8-2.4,1.2-3.7,1.2c-1.5,0-2.8-0.5-3.8-1.5c-1-1-1.4-2.3-1.4-3.9
	c0-1.7,0.5-3.1,1.5-4.1c1-1,2.4-1.5,4.1-1.5c0.7,0,1.7,0.2,2.9,0.5l0.3,0.1L437.7,90z M435.9,97.9v-6.2c-0.9-0.5-1.9-0.8-2.9-0.8
	c-1.2,0-2.2,0.4-2.9,1.1c-0.7,0.8-1.1,1.8-1.1,3.1c0,1.2,0.3,2.2,1,2.9s1.5,1.1,2.6,1.1c0.5,0,1-0.1,1.5-0.2
	C434.6,98.8,435.2,98.4,435.9,97.9z M439.9,100.1V83.7l1.8-0.4v16.8H439.9z M458.4,84.1v2.2c-0.1-0.1-0.4-0.3-0.6-0.4
	c-1.1-0.7-2.3-1.1-3.6-1.1c-2,0-3.1,0.8-3.1,2.4c0,0.8,0.2,1.4,0.7,1.8c0.5,0.5,1.6,1,3,1.6c1.5,0.6,2.6,1.2,3.2,1.7
	c1.1,0.9,1.6,2.1,1.6,3.6c0,1.4-0.5,2.6-1.5,3.4c-1,0.8-2.4,1.3-4.1,1.3c-1.7,0-3.3-0.4-4.9-1.3l-0.2-2.1c1.7,1.2,3.4,1.7,5.1,1.7
	c1.1,0,2-0.3,2.7-0.8c0.7-0.5,1-1.3,1-2.2c0-0.9-0.3-1.6-1-2.2c-0.6-0.5-1.6-1-3-1.6c-1.4-0.6-2.5-1.2-3.1-1.7
	c-1-0.8-1.4-1.9-1.4-3.3c0-1.3,0.5-2.3,1.4-3.1c0.9-0.8,2.1-1.1,3.7-1.1C455.5,83,456.9,83.4,458.4,84.1z M471.2,89.8v10.5l-1.8,0.3
	v-2.4h-0.1c-0.7,0.9-1.3,1.5-1.9,1.9c-0.7,0.4-1.5,0.5-2.4,0.5c-1.3,0-2.3-0.4-2.9-1.1c-0.6-0.8-0.9-2-0.9-3.6v-6h1.8v6
	c0,1.2,0.2,2,0.5,2.5c0.4,0.5,1,0.7,1.8,0.7c1.2,0,2.1-0.4,2.9-1.2c0.8-0.8,1.2-1.8,1.2-3v-5H471.2z M473.4,100.1V89.8h1.8v1.7
	c0.4-0.5,0.7-0.9,1-1.1c0.3-0.3,0.7-0.4,1-0.6c0.4-0.2,1.1-0.2,2.1-0.3v1.8H479c-2.5,0-3.8,1.2-3.8,3.6v5.1H473.4z M483.5,100.6
	h-0.4l-5-10.8h2.1l3.4,7.5l3.7-7.5h1.7L483.5,100.6z M498.6,97.5l-0.2,2c-0.2,0.1-0.5,0.2-0.8,0.4c-1,0.4-2.1,0.7-3.3,0.7
	c-1.7,0-3-0.5-4-1.5c-1-1-1.5-2.3-1.5-4c0-1.6,0.5-3,1.6-4.1c1.1-1.1,2.4-1.7,4-1.7c1.4,0,2.5,0.5,3.4,1.4c0.9,0.9,1.4,2,1.4,3.4
	c0,0.5-0.2,0.8-0.5,1c-0.2,0.1-0.6,0.1-1.2,0.2l-0.7,0l-6.3,0.1c0.3,2.5,1.5,3.8,3.8,3.8c0.7,0,1.4-0.1,2-0.3
	C497.1,98.5,497.9,98.1,498.6,97.5z M497.4,93.8c-0.2-2.1-1.2-3.1-3.1-3.1c-0.9,0-1.7,0.3-2.4,0.9c-0.7,0.6-1.1,1.4-1.3,2.4
	L497.4,93.8z M499,89.8h1.9l3.5,8.1l3.6-8.1h1.7l-5,11.1c-0.4,0.9-0.8,1.7-1.2,2.4c-0.3,0.6-0.7,1.2-1.1,1.7h-2.2
	c0.4-0.4,0.8-0.8,1.1-1.2c0.1-0.1,0.2-0.3,0.4-0.5c0.4-0.6,1-1.6,1.8-3.2L499,89.8z"/>
<path fill="#9CA3AF" d="M378.7,100h-1.4l5.2-16.5h1.4L378.7,100z"/>
<path fill="#9CA3AF" d="M218.8,83.6h14.5v1.7H227v14.8h-2V85.3h-6.3V83.6z M233.2,100.1V89.8h1.8v1.7c0.4-0.5,0.7-0.9,1-1.1
	c0.3-0.3,0.7-0.4,1-0.6c0.4-0.2,1.1-0.2,2.1-0.3v1.8h-0.4c-2.5,0-3.8,1.2-3.8,3.6v5.1H233.2z M249.3,90v7.7c0,0.7,0.1,1.4,0.2,2.2
	l-1.6,0.6l-0.3-1.2c-1.2,0.8-2.4,1.2-3.7,1.2c-1.5,0-2.8-0.5-3.8-1.5c-1-1-1.4-2.3-1.4-3.9c0-1.7,0.5-3.1,1.5-4.1
	c1-1,2.4-1.5,4.1-1.5c0.7,0,1.7,0.2,2.9,0.5l0.3,0.1L249.3,90z M247.6,97.9v-6.2c-0.9-0.5-1.9-0.8-2.9-0.8c-1.2,0-2.2,0.4-2.9,1.1
	c-0.7,0.8-1.1,1.8-1.1,3.1c0,1.2,0.3,2.2,1,2.9c0.7,0.7,1.5,1.1,2.6,1.1c0.5,0,1-0.1,1.5-0.2C246.3,98.8,246.9,98.4,247.6,97.9z
	 M255.3,100.6h-0.4l-5-10.8h2.1l3.4,7.5l3.7-7.5h1.7L255.3,100.6z M271.1,90v7.7c0,0.7,0.1,1.4,0.2,2.2l-1.6,0.6l-0.3-1.2
	c-1.2,0.8-2.4,1.2-3.7,1.2c-1.5,0-2.8-0.5-3.8-1.5c-1-1-1.4-2.3-1.4-3.9c0-1.7,0.5-3.1,1.5-4.1c1-1,2.4-1.5,4.1-1.5
	c0.7,0,1.7,0.2,2.9,0.5l0.3,0.1L271.1,90z M269.3,97.9v-6.2c-0.9-0.5-1.9-0.8-2.9-0.8c-1.2,0-2.2,0.4-2.9,1.1
	c-0.7,0.8-1.1,1.8-1.1,3.1c0,1.2,0.3,2.2,1,2.9c0.7,0.7,1.5,1.1,2.6,1.1c0.5,0,1-0.1,1.5-0.2C268,98.8,268.7,98.4,269.3,97.9z
	 M283.1,89.8v10.5l-1.8,0.3v-2.4h-0.1c-0.7,0.9-1.3,1.5-1.9,1.9c-0.7,0.4-1.5,0.5-2.4,0.5c-1.3,0-2.3-0.4-2.9-1.1
	c-0.6-0.8-0.9-2-0.9-3.6v-6h1.8v6c0,1.2,0.2,2,0.5,2.5c0.4,0.5,1,0.7,1.8,0.7c1.2,0,2.1-0.4,2.9-1.2c0.8-0.8,1.2-1.8,1.2-3v-5H283.1
	z M285.5,100.1h-1.9l4.4-5.3l-4.1-5h2.3l2.9,3.7l3-3.7h2l-4,4.8l4.5,5.5h-2.3l-3.3-4.1L285.5,100.1z M310.3,90v7.7
	c0,0.7,0.1,1.4,0.2,2.2l-1.6,0.6l-0.3-1.2c-1.2,0.8-2.4,1.2-3.7,1.2c-1.5,0-2.8-0.5-3.8-1.5c-1-1-1.4-2.3-1.4-3.9
	c0-1.7,0.5-3.1,1.5-4.1c1-1,2.4-1.5,4.1-1.5c0.7,0,1.7,0.2,2.9,0.5l0.3,0.1L310.3,90z M308.5,97.9v-6.2c-0.9-0.5-1.9-0.8-2.9-0.8
	c-1.2,0-2.2,0.4-2.9,1.1c-0.7,0.8-1.1,1.8-1.1,3.1c0,1.2,0.3,2.2,1,2.9s1.5,1.1,2.6,1.1c0.5,0,1-0.1,1.5-0.2
	C307.2,98.8,307.9,98.4,308.5,97.9z M321.5,97.5l-0.2,2c-0.2,0.1-0.5,0.2-0.8,0.4c-1,0.4-2.1,0.7-3.3,0.7c-1.7,0-3-0.5-4-1.5
	c-1-1-1.5-2.3-1.5-4c0-1.6,0.5-3,1.6-4.1c1.1-1.1,2.4-1.7,4-1.7c1.4,0,2.5,0.5,3.4,1.4c0.9,0.9,1.4,2,1.4,3.4c0,0.5-0.2,0.8-0.5,1
	c-0.2,0.1-0.6,0.1-1.2,0.2l-0.7,0l-6.3,0.1c0.3,2.5,1.5,3.8,3.7,3.8c0.7,0,1.4-0.1,2-0.3C320.1,98.5,320.8,98.1,321.5,97.5z
	 M320.4,93.8c-0.2-2.1-1.2-3.1-3.1-3.1c-0.9,0-1.7,0.3-2.4,0.9c-0.7,0.6-1.1,1.4-1.3,2.4L320.4,93.8z M317.5,84.9h2.6l-3.1,3.3h-1.6
	L317.5,84.9z M323.6,100.1V89.8h1.8v1.7c0.4-0.5,0.7-0.9,1-1.1c0.3-0.3,0.7-0.4,1-0.6c0.4-0.2,1.1-0.2,2.1-0.3v1.8h-0.4
	c-2.5,0-3.8,1.2-3.8,3.6v5.1H323.6z M329.7,85.9c0-0.3,0.1-0.6,0.4-0.9c0.2-0.2,0.5-0.4,0.9-0.4c0.3,0,0.6,0.1,0.9,0.4
	c0.2,0.2,0.4,0.5,0.4,0.9s-0.1,0.6-0.4,0.9c-0.2,0.2-0.5,0.4-0.9,0.4c-0.3,0-0.6-0.1-0.9-0.4C329.8,86.6,329.7,86.3,329.7,85.9z
	 M330,100.1V89.9l1.8-0.4v10.6H330z M343.1,97.5l-0.2,2c-0.2,0.1-0.5,0.2-0.8,0.4c-1,0.4-2.1,0.7-3.3,0.7c-1.7,0-3-0.5-4-1.5
	c-1-1-1.5-2.3-1.5-4c0-1.6,0.5-3,1.6-4.1s2.4-1.7,4-1.7c1.4,0,2.5,0.5,3.4,1.4c0.9,0.9,1.4,2,1.4,3.4c0,0.5-0.2,0.8-0.5,1
	c-0.2,0.1-0.6,0.1-1.2,0.2l-0.7,0l-6.3,0.1c0.3,2.5,1.5,3.8,3.7,3.8c0.7,0,1.4-0.1,2-0.3C341.7,98.5,342.4,98.1,343.1,97.5z
	 M342,93.8c-0.2-2.1-1.2-3.1-3.1-3.1c-0.9,0-1.7,0.3-2.4,0.9c-0.7,0.6-1.1,1.4-1.3,2.4L342,93.8z M345.2,100.1V89.8h1.8v2.1h0.1
	c0.7-0.9,1.3-1.5,2-1.9c0.7-0.4,1.5-0.5,2.4-0.5c2.5,0,3.8,1.4,3.8,4.2v6.4h-1.8v-6.2c0-1-0.2-1.8-0.5-2.2c-0.3-0.4-0.9-0.6-1.8-0.6
	c-1.2,0-2.2,0.4-3,1.2c-0.8,0.8-1.2,1.8-1.2,3v4.8H345.2z M356.6,99.3l0.2-1.7c0.6,0.4,1.1,0.7,1.6,1c0.8,0.4,1.7,0.6,2.5,0.6
	c1.6,0,2.4-0.5,2.4-1.5c0-0.4-0.2-0.8-0.5-1c-0.3-0.2-1-0.5-2.1-0.8c-1.4-0.4-2.4-0.9-2.9-1.3c-0.6-0.5-0.9-1.2-0.9-2.1
	c0-0.9,0.3-1.6,1-2.1c0.6-0.5,1.5-0.8,2.6-0.8c1.3,0,2.6,0.3,4,1l-0.3,1.6c-1.4-0.8-2.6-1.2-3.7-1.2c-1.2,0-1.9,0.4-1.9,1.3
	c0,0.4,0.2,0.7,0.5,1c0.4,0.3,1.3,0.7,2.5,1.1c1.2,0.4,2,0.8,2.5,1.1c0.7,0.5,1,1.2,1,2.1c0,1-0.4,1.8-1.1,2.4
	c-0.7,0.6-1.7,0.9-2.9,0.9c-0.7,0-1.3-0.1-2-0.3C358.4,100.1,357.6,99.8,356.6,99.3z"/>
<path fill="#9CA3AF" d="M228.8,78.5h-2.9l-1.3-2.8h-7.6l-1.3,2.8H213l7.9-16h0.3L228.8,78.5z M223.8,73.6l-2.8-6.3l-2.9,6.3H223.8z
	 M238.1,68.8L233,79.1h-0.3L228,68.8h2.8l2.4,5.5l2.6-5.5H238.1z M242.7,78.5h-2.5V69l2.5-0.4V78.5z M242.8,64.7
	c0,0.4-0.1,0.7-0.4,0.9c-0.2,0.2-0.5,0.4-0.9,0.4c-0.4,0-0.7-0.1-0.9-0.4c-0.2-0.2-0.4-0.5-0.4-0.9c0-0.4,0.1-0.7,0.4-0.9
	c0.2-0.2,0.5-0.4,0.9-0.4s0.7,0.1,0.9,0.4C242.6,64,242.8,64.3,242.8,64.7z M255.4,78.1c-0.2,0.1-0.5,0.1-0.8,0.3
	c-0.2,0.1-0.7,0.2-1.4,0.5l-0.3-0.7c-0.4,0.2-0.7,0.4-1,0.5c-0.5,0.2-1,0.2-1.5,0.2c-1.4,0-2.6-0.5-3.5-1.4c-0.9-1-1.4-2.1-1.4-3.6
	c0-1.5,0.5-2.8,1.6-3.8c1-1,2.3-1.5,3.9-1.5c0.8,0,1.6,0.2,2.2,0.6l2.1-0.1v5.6c0,0.8,0,1.4,0.1,1.8
	C255.2,76.9,255.3,77.4,255.4,78.1z M252.6,76.3V71c-0.5-0.3-1-0.5-1.6-0.5c-0.9,0-1.6,0.3-2.2,0.9c-0.6,0.6-0.9,1.4-0.9,2.4
	c0,0.9,0.3,1.6,0.8,2.2c0.5,0.6,1.2,0.9,2.1,0.9C251.4,76.9,252,76.7,252.6,76.3z M263.8,70.8h-2.5V75c0,1.1,0.1,1.9,0.2,2.2
	s0.5,0.7,1.1,1v0.2l-2.5,0.2c-0.5-0.2-0.9-0.6-1.1-1c-0.2-0.4-0.3-1-0.3-1.8v-5h-1.3v-2h1.4v-3.1l2.5-0.3v3.4h2.4V70.8z M268.4,78.5
	h-2.5V69l2.5-0.4V78.5z M268.5,64.7c0,0.4-0.1,0.7-0.4,0.9c-0.2,0.2-0.5,0.4-0.9,0.4c-0.4,0-0.7-0.1-0.9-0.4
	c-0.2-0.2-0.4-0.5-0.4-0.9c0-0.4,0.1-0.7,0.4-0.9c0.2-0.2,0.5-0.4,0.9-0.4s0.7,0.1,0.9,0.4C268.4,64,268.5,64.3,268.5,64.7z
	 M281.7,73.6c0,1.6-0.5,2.8-1.5,3.8c-1,1-2.3,1.5-3.8,1.5c-1.6,0-2.8-0.5-3.8-1.5c-1-1-1.5-2.2-1.5-3.8c0-1.6,0.5-2.8,1.5-3.8
	c1-1,2.3-1.5,3.8-1.5c1.6,0,2.8,0.5,3.8,1.5C281.2,70.8,281.7,72.1,281.7,73.6z M279.2,73.6c0-1-0.3-1.8-0.8-2.4
	c-0.5-0.6-1.2-0.9-2.1-0.9c-0.9,0-1.5,0.3-2.1,0.9c-0.5,0.6-0.8,1.4-0.8,2.4c0,1,0.3,1.8,0.8,2.4c0.5,0.6,1.2,0.9,2.1,0.9
	c0.9,0,1.5-0.3,2.1-0.9C278.9,75.5,279.2,74.7,279.2,73.6z M293.4,78.5h-2.5v-5.1c0-1.7-0.6-2.6-1.8-2.6c-1,0-1.7,0.5-2.2,1.4
	c-0.2,0.4-0.3,0.9-0.3,1.6v4.7H284v-9.6h2.4v1.8c0.3-0.4,0.6-0.8,1-1.1c0.7-0.7,1.6-1.1,2.7-1.1c2.2,0,3.3,1.1,3.3,3.4V78.5z
	 M316,77.5c-0.8,0.4-1.6,0.7-2.3,0.9c-1.2,0.4-2.5,0.6-3.7,0.6c-2.4,0-4.3-0.8-5.8-2.3c-1.5-1.6-2.3-3.5-2.3-5.9
	c0-2.4,0.8-4.4,2.3-5.9c1.6-1.5,3.6-2.3,6-2.3c1.2,0,2.4,0.2,3.6,0.7c0.5,0.2,0.9,0.5,1.3,0.7l-0.2,3.1c-1.2-1.4-2.8-2.1-4.7-2.1
	c-1.7,0-3,0.5-4,1.5c-1,1-1.5,2.3-1.5,4c0,1.8,0.5,3.2,1.6,4.3c1,1.1,2.4,1.6,4.1,1.6c0.9,0,1.9-0.2,2.9-0.6v-3.3h-3.5v-2.4h6.3
	V77.5z M328.2,72.9c0,0.4,0,0.7-0.1,1.1l-7.3,0.2c0.2,1.8,1.3,2.7,3.5,2.7c0.7,0,1.3-0.1,1.8-0.3c0.5-0.2,1.1-0.6,1.7-1.2l-0.2,2.6
	c-0.6,0.3-1.2,0.6-1.7,0.7c-0.6,0.2-1.3,0.3-2,0.3c-1.7,0-3-0.5-4-1.4c-1-0.9-1.5-2.1-1.5-3.6c0-1.6,0.5-2.9,1.6-3.9
	c1.1-1,2.4-1.6,4-1.6c1.3,0,2.3,0.4,3.1,1.2C327.8,70.5,328.2,71.6,328.2,72.9z M326,72.8c0-0.3-0.1-0.8-0.2-1.4
	c-0.2-0.7-0.9-1-1.9-1c-0.8,0-1.5,0.2-2.1,0.7c-0.6,0.5-0.9,1.1-1.1,1.8L326,72.8z M326.6,64.2l-3.1,3.1h-1.8l2-3.1H326.6z
	 M339.9,78.5h-2.5v-5.1c0-1.7-0.6-2.6-1.8-2.6c-1,0-1.7,0.5-2.2,1.4c-0.2,0.4-0.3,0.9-0.3,1.6v4.7h-2.5v-9.6h2.4v1.8
	c0.3-0.4,0.6-0.8,1-1.1c0.7-0.7,1.6-1.1,2.7-1.1c2.2,0,3.3,1.1,3.3,3.4V78.5z M351.8,72.9c0,0.4,0,0.7-0.1,1.1l-7.3,0.2
	c0.2,1.8,1.3,2.7,3.5,2.7c0.7,0,1.3-0.1,1.8-0.3c0.5-0.2,1.1-0.6,1.7-1.2l-0.2,2.6c-0.6,0.3-1.2,0.6-1.7,0.7c-0.6,0.2-1.3,0.3-2,0.3
	c-1.7,0-3-0.5-4-1.4c-1-0.9-1.5-2.1-1.5-3.6c0-1.6,0.5-2.9,1.6-3.9c1.1-1,2.4-1.6,4-1.6c1.3,0,2.3,0.4,3.1,1.2
	C351.5,70.5,351.8,71.6,351.8,72.9z M349.7,72.8c0-0.3-0.1-0.8-0.2-1.4c-0.2-0.7-0.9-1-1.9-1c-0.8,0-1.5,0.2-2.1,0.7
	c-0.6,0.5-0.9,1.1-1.1,1.8L349.7,72.8z M350.3,64.2l-3.1,3.1h-1.8l2-3.1H350.3z M359.7,71.3L359.7,71.3c-0.2,0-0.4,0-0.6,0
	c-0.9,0-1.5,0.1-1.9,0.3c-0.4,0.2-0.6,0.6-0.6,1.1v5.7h-2.5v-9.6h2.4v1.6c0.5-0.7,1.1-1.2,1.6-1.5c0.5-0.2,1-0.4,1.6-0.4V71.3z
	 M370.9,78.1c-0.2,0.1-0.5,0.1-0.8,0.3c-0.2,0.1-0.7,0.2-1.4,0.5l-0.3-0.7c-0.4,0.2-0.7,0.4-1,0.5c-0.5,0.2-1,0.2-1.5,0.2
	c-1.4,0-2.6-0.5-3.5-1.4c-0.9-1-1.4-2.1-1.4-3.6c0-1.5,0.5-2.8,1.6-3.8c1-1,2.3-1.5,3.9-1.5c0.8,0,1.6,0.2,2.2,0.6l2.1-0.1v5.6
	c0,0.8,0,1.4,0.1,1.8C370.7,76.9,370.8,77.4,370.9,78.1z M368.1,76.3V71c-0.5-0.3-1-0.5-1.6-0.5c-0.9,0-1.6,0.3-2.2,0.9
	c-0.6,0.6-0.9,1.4-0.9,2.4c0,0.9,0.3,1.6,0.8,2.2c0.5,0.6,1.2,0.9,2.1,0.9C366.9,76.9,367.5,76.7,368.1,76.3z M376.7,78.5h-2.5V63.1
	l2.5-0.4V78.5z M389,72.9c0,0.4,0,0.7-0.1,1.1l-7.3,0.2c0.2,1.8,1.3,2.7,3.5,2.7c0.7,0,1.3-0.1,1.8-0.3c0.5-0.2,1.1-0.6,1.7-1.2
	l-0.2,2.6c-0.6,0.3-1.2,0.6-1.7,0.7c-0.6,0.2-1.3,0.3-2,0.3c-1.7,0-3-0.5-4-1.4c-1-0.9-1.5-2.1-1.5-3.6c0-1.6,0.5-2.9,1.6-3.9
	c1.1-1,2.4-1.6,4-1.6c1.3,0,2.3,0.4,3.1,1.2C388.6,70.5,389,71.6,389,72.9z M386.8,72.8c0-0.3-0.1-0.8-0.2-1.4c-0.2-0.7-0.9-1-1.9-1
	c-0.8,0-1.5,0.2-2.1,0.7c-0.6,0.5-0.9,1.1-1.1,1.8L386.8,72.8z M404.6,78.9V78c-0.6,0.3-1,0.5-1.3,0.6c-0.5,0.2-1,0.2-1.5,0.2
	c-1.4,0-2.6-0.5-3.6-1.4c-0.9-0.9-1.4-2.1-1.4-3.5c0-1.6,0.5-2.9,1.6-3.9c1.1-1.1,2.4-1.6,4-1.6c0.3,0,0.7,0.1,1.3,0.2
	c0.1,0,0.2,0,0.4,0.1v-5.6l2.5-0.5v15.6L404.6,78.9z M404.2,76.6v-6.1c-0.1,0-0.1-0.1-0.2-0.1c-0.3-0.1-0.7-0.2-1.1-0.2
	c-1,0-1.8,0.4-2.5,1.1c-0.7,0.7-1,1.6-1,2.6c0,0.9,0.3,1.7,0.9,2.3c0.6,0.6,1.4,0.9,2.3,0.9c0.3,0,0.6,0,0.9-0.1
	C403.5,76.9,403.7,76.8,404.2,76.6z M418.8,72.9c0,0.4,0,0.7-0.1,1.1l-7.3,0.2c0.2,1.8,1.3,2.7,3.5,2.7c0.7,0,1.3-0.1,1.8-0.3
	c0.5-0.2,1.1-0.6,1.7-1.2l-0.2,2.6c-0.6,0.3-1.2,0.6-1.7,0.7c-0.6,0.2-1.3,0.3-2,0.3c-1.7,0-3-0.5-4-1.4c-1-0.9-1.5-2.1-1.5-3.6
	c0-1.6,0.5-2.9,1.6-3.9c1.1-1,2.4-1.6,4-1.6c1.3,0,2.3,0.4,3.1,1.2C418.5,70.5,418.8,71.6,418.8,72.9z M416.7,72.8
	c0-0.3-0.1-0.8-0.2-1.4c-0.2-0.7-0.9-1-1.9-1c-0.8,0-1.5,0.2-2.1,0.7c-0.6,0.5-0.9,1.1-1.1,1.8L416.7,72.8z M431.1,73.5
	c0,1.6-0.5,2.9-1.6,3.9c-1.1,1-2.5,1.5-4.1,1.5c-0.6,0-1.1-0.1-1.6-0.2v3.8l-2.5,0.6V68.8h2.3l0.4,0l0.9-0.2c0.3,0,0.5-0.1,0.9-0.1
	c1.6,0,2.9,0.5,3.9,1.4S431.1,72,431.1,73.5z M428.4,73.5c0-1-0.3-1.8-0.9-2.3c-0.6-0.6-1.4-0.8-2.4-0.8c-0.5,0-1,0.1-1.4,0.3v6.3
	c0.5,0.2,0.9,0.3,1.3,0.3c1,0,1.8-0.3,2.4-1C428.1,75.5,428.4,74.6,428.4,73.5z M442.6,78.4l-2.4,0.6v-1.5c-0.5,0.4-0.9,0.8-1.3,1
	c-0.7,0.4-1.6,0.5-2.5,0.5c-1.2,0-2-0.3-2.5-1c-0.4-0.6-0.6-1.6-0.6-3.1v-6h2.5v5.8c0,1.4,0.6,2.1,1.9,2.1c0.5,0,0.9-0.1,1.3-0.3
	c0.4-0.2,0.7-0.5,0.8-0.8c0.1-0.3,0.2-0.9,0.2-1.7v-1.6v-3.4h2.5V78.4z M448.5,78.5h-2.5V69l2.5-0.4V78.5z M448.6,64.7
	c0,0.4-0.1,0.7-0.4,0.9c-0.2,0.2-0.5,0.4-0.9,0.4c-0.4,0-0.7-0.1-0.9-0.4c-0.2-0.2-0.4-0.5-0.4-0.9c0-0.4,0.1-0.7,0.4-0.9
	c0.2-0.2,0.5-0.4,0.9-0.4s0.7,0.1,0.9,0.4C448.4,64,448.6,64.3,448.6,64.7z M459.1,75.8c0,1-0.3,1.8-1,2.3c-0.7,0.5-1.6,0.8-2.9,0.8
	c-0.8,0-1.6-0.1-2.2-0.2c-0.4-0.1-0.9-0.3-1.6-0.5l0-2.4c0.6,0.5,1.2,0.8,1.8,1c0.5,0.1,1,0.2,1.7,0.2c1.2,0,1.8-0.3,1.8-0.9
	c0-0.3-0.1-0.6-0.4-0.8c-0.3-0.2-0.9-0.4-1.9-0.7c-2-0.6-3.1-1.7-3.1-3.3c0-0.9,0.4-1.6,1.1-2.1c0.7-0.5,1.7-0.8,2.9-0.8
	c0.7,0,1.3,0.1,1.9,0.2c0.5,0.1,1,0.3,1.5,0.6c0,0.3-0.1,0.9-0.2,2l0,0.2c-0.6-0.4-1.1-0.7-1.3-0.8c-0.6-0.2-1.2-0.4-1.9-0.4
	c-1.1,0-1.6,0.3-1.6,0.9c0,0.6,0.8,1.1,2.5,1.5C458.1,73.2,459.1,74.2,459.1,75.8z M473.9,78.5h-2.7V65.2h-2.2l0.4-2.2h4.5V78.5z
	 M490.2,68.2c0,1.1-0.2,2.1-0.6,3c-0.4,0.9-1.1,2.1-2.1,3.5c-0.9,1.3-2,2.5-3.3,3.7h-3.6l0.6-0.5c0.9-0.9,1.6-1.5,2-2
	c0.5-0.5,1.3-1.4,2.3-2.7c-0.5,0.1-0.9,0.1-1.3,0.1c-1.5,0-2.7-0.5-3.7-1.5c-1-1-1.5-2.3-1.5-3.8c0-1.6,0.5-2.9,1.6-3.9
	c1.1-1,2.4-1.6,4-1.6c1.6,0,2.9,0.5,4,1.6C489.7,65.1,490.2,66.5,490.2,68.2z M487.6,68c0-0.8-0.3-1.5-0.8-2.1
	c-0.6-0.6-1.2-0.9-2-0.9c-0.8,0-1.5,0.3-2.1,0.9c-0.6,0.6-0.9,1.3-0.9,2.1c0,0.8,0.3,1.5,0.9,2.1c0.6,0.6,1.3,0.9,2.1,0.9
	c0.8,0,1.5-0.3,2-0.9C487.3,69.5,487.6,68.8,487.6,68z M502.4,73.5c0,1.6-0.5,2.9-1.6,3.9c-1.1,1-2.4,1.6-4,1.6c-1.6,0-3-0.5-4-1.6
	c-1-1.1-1.5-2.4-1.5-4.2c0-1.4,0.4-2.8,1.1-4.1c0.4-0.8,1-1.6,1.6-2.4c1-1.3,2.1-2.6,3.3-3.8h3.6c-0.8,0.8-1.6,1.6-2.4,2.3
	c-1,1-1.8,2-2.5,2.9c0.5-0.1,0.9-0.1,1.2-0.1c1.5,0,2.7,0.5,3.7,1.5C501.9,70.7,502.4,71.9,502.4,73.5z M499.7,73.4
	c0-0.8-0.3-1.5-0.9-2.1c-0.6-0.6-1.3-0.9-2.1-0.9c-0.8,0-1.5,0.3-2,0.9c-0.6,0.6-0.8,1.3-0.8,2.1c0,0.8,0.3,1.5,0.8,2.1
	c0.6,0.6,1.2,0.9,2.1,0.9c0.8,0,1.5-0.3,2-0.9C499.4,75,499.7,74.3,499.7,73.4z M510.7,78.5H508V65.2h-2.2l0.4-2.2h4.5V78.5z"/>
<path fill="#9CA3AF" d="M458.2,4.1c0-1.1,0.4-2.1,1.2-2.8c0.8-0.8,1.7-1.2,2.8-1.2c1.1,0,2.1,0.4,2.8,1.2c0.8,0.8,1.2,1.7,1.2,2.8
	c0,1.1-0.4,2.1-1.2,2.8c-0.8,0.8-1.7,1.2-2.8,1.2c-1.1,0-2.1-0.4-2.8-1.2C458.5,6.2,458.2,5.2,458.2,4.1z"/>
<path fill="#9CA3AF" d="M209.3,51.6l0.9-6.9c2.3,1.7,4.4,2.9,6.2,3.8c3.3,1.5,6.6,2.3,9.7,2.3c6.3,0,9.5-2,9.5-6.1
	c0-1.7-0.7-3-2.1-4.1c-1.2-0.9-4-2-8.3-3.3c-5.5-1.7-9.3-3.5-11.5-5.2c-2.4-2-3.6-4.7-3.6-8.2c0-3.5,1.3-6.4,3.8-8.5
	c2.6-2.1,6-3.2,10.3-3.2c4.9,0,10.2,1.4,15.7,4.1l-1.2,6.4c-5.6-3.3-10.4-4.9-14.6-4.9c-4.9,0-7.4,1.8-7.4,5.3c0,1.6,0.6,2.9,1.9,4
	c1.7,1.4,5,2.8,9.7,4.3c4.8,1.5,8.1,3,10,4.4c2.6,1.9,3.9,4.7,3.9,8.3c0,4-1.4,7.1-4.2,9.3c-2.8,2.3-6.7,3.4-11.5,3.4
	c-2.7,0-5.3-0.3-7.8-1C216.1,55.1,213,53.7,209.3,51.6z M249.6,34.5c0-6.2,2.2-11.4,6.5-15.8c4.4-4.3,9.6-6.5,15.8-6.5
	c6.2,0,11.5,2.2,15.8,6.5c4.4,4.3,6.5,9.6,6.5,15.8c0,6.2-2.2,11.4-6.5,15.8c-4.4,4.3-9.6,6.5-15.8,6.5c-6.2,0-11.5-2.2-15.8-6.5
	C251.8,46,249.6,40.7,249.6,34.5z M256.7,34.5c0,4.6,1.5,8.4,4.5,11.6c3,3.2,6.6,4.7,10.9,4.7c4.2,0,7.8-1.6,10.8-4.8
	c3-3.2,4.5-7,4.5-11.6c0-4.5-1.5-8.4-4.5-11.6c-3-3.2-6.6-4.8-10.8-4.8c-4.3,0-7.9,1.6-10.9,4.7C258.1,26.1,256.7,30,256.7,34.5z
	 M298.8,19.8v-5.6h8.3V1.8l7-1.8v14.2h11.9v5.6h-11.9v19c0,4.9,0.4,8.3,1.3,10.4c0.9,2,2.6,3.6,5.2,4.7v0.9l-8,0.8
	c-3.8-2.3-5.7-6.1-5.7-11.5V19.8H298.8z M334.5,54.9V14.2h7v6.7c1.5-2,2.9-3.6,4.1-4.5c1.3-1,2.6-1.7,4-2.2c1.8-0.6,4.5-1,8.3-1v7.1
	h-1.4c-10,0-15,4.8-15,14.4v20.3H334.5z M402.5,15v30.6c0,2.7,0.3,5.7,0.8,8.8l-6.4,2.4l-1-4.8c-4.8,3.2-9.6,4.8-14.5,4.8
	c-6.1,0-11.1-2-14.9-5.9c-3.8-4-5.7-9.1-5.7-15.3c0-6.8,2-12.2,6.1-16.3c4.1-4.1,9.6-6.1,16.4-6.1c2.8,0,6.6,0.7,11.3,2l1.3,0.4
	L402.5,15z M395.5,46.2V21.8c-3.6-2.1-7.5-3.2-11.6-3.2c-4.9,0-8.8,1.5-11.6,4.5c-2.9,3-4.3,7.1-4.3,12.2c0,4.8,1.3,8.6,3.9,11.5
	c2.6,2.9,6.1,4.3,10.4,4.3c2.1,0,4-0.3,5.8-0.8C390.4,49.7,392.9,48.3,395.5,46.2z M430.3,57.1h-1.5l-19.9-42.9h8.2l13.4,29.5
	l14.5-29.5h6.9L430.3,57.1z M458.6,54.9V14.8l7-1.7v41.8H458.6z M519.2,15v30.6c0,2.7,0.3,5.7,0.8,8.8l-6.4,2.4l-1-4.8
	c-4.8,3.2-9.6,4.8-14.5,4.8c-6.1,0-11.1-2-14.9-5.9c-3.8-4-5.7-9.1-5.7-15.3c0-6.8,2-12.2,6.1-16.3c4.1-4.1,9.6-6.1,16.4-6.1
	c2.8,0,6.6,0.7,11.3,2l1.3,0.4L519.2,15z M512.1,46.2V21.8c-3.6-2.1-7.5-3.2-11.6-3.2c-4.9,0-8.8,1.5-11.6,4.5
	c-2.9,3-4.3,7.1-4.3,12.2c0,4.8,1.3,8.6,3.9,11.5c2.6,2.9,6.1,4.3,10.4,4.3c2.1,0,4-0.3,5.8-0.8C507,49.7,509.5,48.3,512.1,46.2z"/>
<path fill="#9CA3AF" d="M117,31.3c0,1.4-0.1,3.2-0.4,5.5H88.5c0.8,6.8,4.8,10.2,12.1,10.2c4.2,0,8.4-1.6,12.6-4.7h1.7l-1.4,11.3
	c-5.1,2.5-10.3,3.8-15.4,3.8c-6.9,0-12.3-1.9-16.4-5.7c-4.1-3.8-6.1-8.9-6.1-15.3c0-6.8,2.1-12.4,6.4-16.9c4.3-4.5,9.7-6.7,16.3-6.7
	c5.9,0,10.5,1.6,13.8,4.8C115.4,20.9,117,25.4,117,31.3z M106.2,31.4c-0.4-6.2-3.2-9.3-8.3-9.3c-5.1,0-8.2,3.1-9.3,9.3H106.2z
	 M151,28.5c-2.9-0.3-4.9-0.5-6-0.5c-3.2,0-5.5,0.5-6.7,1.6c-1.3,1.1-1.9,3-1.9,5.7v19.6h-14.1V14.3h13.4v7.2h0.3
	c0.7-1.1,1.4-2.1,2.2-3.2c2.6-3.4,5.8-5.1,9.7-5.1c1.1,0,2.1,0.1,3.1,0.2V28.5z M200.3,34.5c0,6.5-2.1,11.8-6.3,16
	c-4.2,4.2-9.6,6.3-16.1,6.3c-6.6,0-11.9-2.1-16.1-6.3c-4.2-4.2-6.3-9.5-6.3-16c0-6.5,2.1-11.8,6.3-16c4.2-4.2,9.6-6.3,16.1-6.3
	c6.6,0,11.9,2.1,16.1,6.3C198.2,22.7,200.3,28,200.3,34.5z M186.8,34.5c0-3.6-0.8-6.5-2.4-8.7c-1.6-2.1-3.8-3.2-6.5-3.2
	c-2.8,0-5,1.1-6.5,3.2c-1.6,2.2-2.4,5.1-2.4,8.9c0,3.5,0.8,6.3,2.4,8.4c1.6,2.1,3.8,3.2,6.5,3.2c2.7,0,4.9-1.1,6.5-3.2
	C186,41.1,186.8,38.2,186.8,34.5z M95.6,8.4l0.2,0.3h5.9l-0.2-0.4l7.2-8.3H105L95.6,8.4z"/>
<path fill="#9CA3AF" d="M63.8,0h22.3L51.3,41.1L66.8,42H50.5L38.7,56l2.9,1.2H2.1L0,55.9L63.8,0z M86.1,0l1.6,0.3l-8.5,47.9L89,0
	H86.1z"/>
</svg>
