<?xml version="1.0" encoding="utf-8"?>
<!-- Generator: Adobe Illustrator 26.1.0, SVG Export Plug-In . SVG Version: 6.00 Build 0)  -->
<svg version="1.1" id="Layer_1" xmlns="http://www.w3.org/2000/svg" xmlns:xlink="http://www.w3.org/1999/xlink" x="0px" y="0px"
	 width="233px" height="33px" viewBox="0 0 233 33" enable-background="new 0 0 233 33" xml:space="preserve">
<path fill="#9CA3AF" d="M53.1,10.9c-1.3-3.1-6.5-1.4-6.5-1.4L38.2,31h6l1.9-4.9h6.8L55,31h6C61,30.9,54.4,14,53.1,10.9z M47.4,21.5
	l2.3-5.7l1.8,5.7H47.4z"/>
<path fill="#9CA3AF" d="M61.4,9v21.9H67V11.7C67,11.7,67.9,8.7,61.4,9z"/>
<path fill="#9CA3AF" d="M82.8,21.9c4.2-1.9,3.7-6.2,3.7-6.2C86.6,6,70.2,9.6,70.2,9.6v21.3H76v-7.7h0.8c1.3,2.1,2.6,4.2,3.9,6.2
	c2.2,3.6,7.3,1,7.3,1S82.8,21.9,82.8,21.9z M75.8,19v-5.7c0,0,4.9-0.9,4.9,2.9S75.8,19,75.8,19z"/>
<path fill="#9CA3AF" d="M4,25.8c0,0,11.8,1.7,16.2,6.9l2.4-1.7C22.6,30.9,15,22.4,4,25.8z"/>
<path fill="#9CA3AF" d="M20.4,29c0,0,8-6.1,16.2-2.8c0,0-6.8-0.4-14,4.8C22.6,31,20.4,29,20.4,29z"/>
<path fill="#9CA3AF" d="M23.1,23.5l8.2-21.4c0,0,0.8,10.3-1.2,14.2c0,0-0.9,2.3-3.9,4.1C26.3,20.4,24.4,21.5,23.1,23.5z"/>
<path fill="#9CA3AF" d="M25.2,24.8L40.6,7.9c0,0-3,9.9-6.2,12.8c0,0-1.7,1.8-5.1,2.4C29.3,23.1,27.1,23.3,25.2,24.8z"/>
<path fill="#9CA3AF" d="M17.5,23.5L9.3,2.2c0,0-0.8,10.3,1.2,14.2c0,0,0.9,2.3,3.9,4.1C14.3,20.4,16.3,21.5,17.5,23.5z"/>
<path fill="#9CA3AF" d="M15.4,24.8L0,7.9c0,0,3,9.9,6.2,12.8c0,0,1.7,1.8,5.1,2.4C11.3,23.1,13.5,23.3,15.4,24.8z"/>
<path fill="#9CA3AF" d="M20.3,0.4c0,0-4.4,9.3-4,13.7c0,0,0.1,2.5,2.1,5.2c0.1,0,1.5,1.6,1.9,4c0.4-2.4,1.9-4,1.9-4
	c2-2.7,2.1-5.2,2.1-5.2C24.7,9.7,20.3,0.4,20.3,0.4z"/>
<path fill="#9CA3AF" d="M123.3,10.9c-1.3-3.1-6.5-1.4-6.5-1.4L108.4,31h6l1.9-4.9h6.8l2.1,4.9h6.2C131.2,30.9,124.6,14,123.3,10.9z
	 M117.5,21.5l2.3-5.7l1.8,5.7C121.6,21.5,117.5,21.5,117.5,21.5z M172.6,9v21.9h5.6V11.7C178.3,11.7,179.1,8.7,172.6,9z M163.4,10.9
	c-1.3-3.1-6.5-1.4-6.5-1.4l-7.8,19.8l-4.5-7.4c4.2-1.9,3.7-6.2,3.7-6.2C148.4,6,132,9.6,132,9.6v21.3h5.8v-7.7h0.8
	c1.3,2.1,2.6,4.2,3.9,6.2c1.6,2.5,4.5,2,6.1,1.5h5.9l1.9-4.9h6.8l2.1,4.9h6.2C171.4,30.9,164.7,14,163.4,10.9L163.4,10.9z M137.6,19
	v-5.7c0,0,4.9-0.9,4.9,2.9S137.6,19,137.6,19z M157.7,21.5l2.3-5.7l1.8,5.7H157.7z M106.6,24.5c0,0,4.2,3.8,1,5.3
	c-3.1,1.6-11.2,4.6-16.6-4.2c0,0-3.5-10.4,4-15.2c0,0,6.1-4.1,13.8,0.8c0,0,1.3,2.5-2,4.5c0,0-1.9-2.3-5.9-2.2
	c-4,0.2-4.9,5.2-4.8,6.6s0.2,6,5.3,6.6C101.5,26.8,104.1,27.5,106.6,24.5z M195.4,19.2c2.3-1.7,2.1-4.4,2.1-4.4
	c-0.1-8.3-16.1-5.3-16.1-5.3v21.6c0,0,8.9,0.2,11.4,0s5.8-2.8,5.8-6.8C198.6,20.2,195.4,19.2,195.4,19.2z M187.2,13
	c0,0,4.4-0.9,4.5,2.4s-4.5,2.4-4.5,2.4V13z M187.2,26.6v-4.8c0,0,5.3-0.9,5.4,2.4C192.8,27.5,187.2,26.6,187.2,26.6z M172.4,2.2
	c1.3,0,2.3,1,2.3,2.3s-1,2.3-2.3,2.3s-2.3-1-2.3-2.3S171.1,2.2,172.4,2.2z M177.7,2.2c1.3,0,2.3,1,2.3,2.3s-1,2.3-2.3,2.3
	s-2.3-1-2.3-2.3S176.4,2.2,177.7,2.2z M200.2,9v22h15.4c0,0,1.1-4.3-2.6-4.2h-7.1v-4.7h7.1v-4.5h-7.1v-3.9h6.7c0,0,3,0.8,2.8-4.7
	L200.2,9L200.2,9z M218.5,24.8c0,0,6.9,3.9,8.4,0.8c0,0,2.1-2.5-4.1-4c0,0-7.8-0.9-6.1-7.9s12.4-4.5,13-4.2s5.4,1.5,1,5.9
	c0,0-7.6-5.1-8.3-0.4c0,0-0.3,1.5,6.4,3.6c0,0,7.8,3.2,2.1,10.6c0,0-2.8,4.3-12.5,1.2C218.5,30.5,214,29.2,218.5,24.8L218.5,24.8z"
	/>
</svg>
