<?xml version="1.0" encoding="utf-8"?>
<!-- Generator: Adobe Illustrator 26.1.0, SVG Export Plug-In . SVG Version: 6.00 Build 0)  -->
<svg version="1.1"
	 id="svg2" inkscape:output_extension="org.inkscape.output.svg.inkscape" inkscape:version="0.46" sodipodi:docname="Air_Mauritius_Logo.svg" sodipodi:version="0.32" xmlns:cc="http://creativecommons.org/ns#" xmlns:dc="http://purl.org/dc/elements/1.1/" xmlns:inkscape="http://www.inkscape.org/namespaces/inkscape" xmlns:rdf="http://www.w3.org/1999/02/22-rdf-syntax-ns#" xmlns:sodipodi="http://sodipodi.sourceforge.net/DTD/sodipodi-0.dtd" xmlns:svg="http://www.w3.org/2000/svg"
	 xmlns="http://www.w3.org/2000/svg" xmlns:xlink="http://www.w3.org/1999/xlink" x="0px" y="0px" width="300px" height="70px"
	 viewBox="0 0 300 70" enable-background="new 0 0 300 70" xml:space="preserve">
<defs>
	
		<inkscape:perspective  id="perspective39" inkscape:persp3d-origin="314.375 : 48.333333 : 1" inkscape:vp_x="0 : 72.5 : 1" inkscape:vp_y="0 : 1000 : 0" inkscape:vp_z="628.75 : 72.5 : 1" sodipodi:type="inkscape:persp3d">
		</inkscape:perspective>
</defs>
<sodipodi:namedview  bordercolor="#666666" borderopacity="1.0" gridtolerance="10.0" guidetolerance="10.0" id="base" inkscape:current-layer="svg2" inkscape:cx="314.375" inkscape:cy="72.5" inkscape:pageopacity="0.0" inkscape:pageshadow="2" inkscape:window-height="669" inkscape:window-width="640" inkscape:window-x="92" inkscape:window-y="95" inkscape:zoom="0.86520875" objecttolerance="10.0" pagecolor="#ffffff" showgrid="false">
	</sodipodi:namedview>
<g id="_x23_ffffffff">
</g>
<path fill="#9CA3AF" d="M151.4,4.3c11-3.6,23.2-2.7,33.8,1.7c5.5,2.1,10.2,5.7,15.9,7.4c10.2,3.3,21,2.8,31.5,2.5
	c8.6-0.1,17.5,4,22.2,11.4c-3.4-1.7-6.9-3.4-10.8-3.3c-7.3-0.1-13.6,3.9-20.5,5.5c-4.9,1.3-10,1.3-15,1.1c-4.1-0.1-8.1-1.3-12.2-1.5
	c-6.4-0.4-12.7,0.7-19.1,1.2c-20.7,1.7-41.5,2.2-62.1-0.4c24.3-0.2,48.9-0.3,72.7-5.8c3.7-0.9,7.4-2,10.8-3.6
	c-7.7-1.8-14.8-5.7-21.4-10C169.6,5.6,160.4,3.3,151.4,4.3z M245,5.7c9-1.3,18.8-0.3,26.6,4.8c-2.6-0.6-5.2-1.6-7.9-1.8
	c-7.9-0.7-15.8,1.7-22.7,5.4c-1.3,0.9-3,0.2-4.4,0.1c-5.2-0.9-10.4-0.2-15.6-0.2C228.5,10.1,236.6,7.2,245,5.7z"/>
<path fill="#9CA3AF" d="M6.8,47.6c4.9-0.5,9.8-0.1,14.7-0.2c1.7,0.1,3.8-0.3,5.2,0.9c1.3,1.2,0.9,3.1,0.7,4.6c-1,5-2.1,9.9-3.1,14.8
	c-5.3,0.2-10.6,0.1-15.9,0.1c-2.5-0.2-5.6-0.7-6.8-3.2c-1.2-3.6,1.9-7,5.3-7.7c4.8-0.9,9.7-1.2,14.5-1.9c0.3-1.4,0.6-3.4-1.2-3.9
	c-4.7-0.4-9.4,0-14-0.2C6.4,49.8,6.6,48.7,6.8,47.6 M9,60c-1.5,0.1-3.1,1.3-2.7,2.9c0.5,1.2,2,1.4,3.2,1.4c3.2,0.1,6.5,0,9.7,0
	c0.5-1.9,0.9-3.8,1.2-5.7C16.6,59.1,12.8,59.5,9,60z M33.3,49.8c0.3-0.8,0.1-1.9,0.9-2.4c1.7-0.2,3.5-0.1,5.2,0
	c-1.1,6-2.5,12-3.7,18c-0.2,0.8-0.3,1.9-1.2,2.3c-1.6,0.3-3.3,0.1-4.9,0.1C30.7,61.8,32.1,55.8,33.3,49.8z M44.8,47.4
	c5.2-0.1,10.3,0,15.5,0c2.6,0.1,5.8,0.6,7.4,3c1.4,2.2,0.4,5.1-1.3,6.9c-1.5,1.6-3.6,2.2-5.6,2.8c1.6,2.6,3.6,5.1,5.2,7.7
	c-2,0.1-4.1,0.1-6.1,0c-1.7-2.4-3.3-4.8-5-7.2c-2.5,0.2-4.9,0.4-7.4,0.8c-0.4,2.2-0.8,4.3-1.4,6.4c-1.8,0-3.7,0-5.5-0.1
	C41.9,61,43.3,54.2,44.8,47.4 M49.6,51c-0.5,2.2-1,4.3-1.3,6.5c4.2-0.4,8.3-0.8,12.4-1.4c1.8-0.1,3.3-2,2.7-3.8
	c-0.7-1.3-2.4-1.5-3.7-1.5C56.3,51,53,50.8,49.6,51z M87.7,47.4c8.3-0.2,16.7,0,25-0.1c1.5,0,3.3-0.1,4.3,1.3c1,1.1,0.6,2.8,0.4,4.2
	c-1.1,5-2.1,10-3.2,15c-1.9,0.1-3.8,0.1-5.7,0.1c0.9-4.6,2-9.2,2.9-13.8c0.2-0.9,0.2-1.9,0.1-2.9c-2.2-0.2-4.4-0.2-6.5,0
	c-1.1,5.5-2.4,11-3.4,16.6c-1.9,0.2-3.8,0.2-5.7,0.1c0.9-4.6,1.9-9.2,2.9-13.7c0.2-1,0.2-1.9,0.1-2.9c-2.2-0.3-4.3-0.2-6.5-0.1
	c-1.2,5.6-2.4,11.1-3.5,16.7c-1.9,0.2-3.8,0.2-5.6,0.1C84.8,61,86.3,54.2,87.7,47.4z M123.6,47.5c5.7-0.3,11.5-0.1,17.2-0.1
	c2.1-0.2,4,1.6,3.6,3.7c-0.9,5.6-2.4,11-3.4,16.6c-4.3,0.3-8.5,0.1-12.8,0.2c-3.3,0-7.5,0.1-9.7-2.8c-1.7-3.5,1.4-7.4,4.8-8.1
	c4.9-1,9.9-1.2,14.8-2c0.1-1.1,0.5-2.4-0.2-3.4c-1.1-0.7-2.5-0.6-3.7-0.6c-3.8,0-7.6,0-11.3,0C123.1,49.8,123.4,48.6,123.6,47.5
	 M125.8,60c-1.5,0.1-3,1.2-2.8,2.8c0.5,1.4,2.1,1.5,3.4,1.5c3.2,0,6.4,0,9.6,0c0.5-1.9,0.9-3.8,1.2-5.7
	C133.4,59.1,129.6,59.5,125.8,60z M150.5,47.5c1.9-0.2,3.8-0.2,5.7-0.1c-1,4.8-2,9.6-3.1,14.4c-0.1,0.8-0.6,1.8,0.3,2.4
	c3.1,0.3,6.3,0.1,9.4,0.1c1,0.1,2-0.5,2.1-1.6c1.2-5.1,2.1-10.3,3.4-15.4c1.8,0,3.7,0,5.5,0c-1,5.4-2.3,10.8-3.4,16.2
	c-0.3,2-1.7,4.3-4,4.2c-4.8,0.1-9.6,0-14.4,0.1c-1.4-0.1-3.2,0.1-4.3-1.1c-0.9-1-0.8-2.5-0.6-3.7C148.3,57.8,149.5,52.7,150.5,47.5z
	 M179.1,47.5c4.9-0.3,9.8,0,14.7-0.1c2.9,0,6.2,0.4,8.1,2.8c1.4,2.1,0.6,5-1,6.8c-1.5,1.8-3.8,2.4-5.9,3c1.8,2.6,3.6,5.2,5.4,7.8
	c-2.1,0.1-4.2,0.1-6.3-0.1c-1.6-2.4-3.3-4.9-5-7.2c-2.3,0.3-4.6,0.4-6.9,0.8c-1.1,1.8-1,4.3-1.6,6.4c-1.9,0.2-3.8,0.2-5.7,0.1
	C176.2,61,177.7,54.3,179.1,47.5 M182.6,57.5c4.1-0.3,8.2-0.8,12.3-1.3c2-0.1,3.7-2.2,2.7-4.1c-1-1.4-2.9-1.2-4.4-1.2
	c-3,0.1-5.9-0.1-8.9,0.1C183.1,52.8,183.3,55.4,182.6,57.5z M207.7,47.4c1.9-0.1,3.7-0.1,5.6-0.1c-1.2,6.1-2.5,12.1-3.8,18.1
	c-0.3,0.8-0.3,2.2-1.5,2.2c-1.5,0.2-3.1,0.1-4.6,0.1C204.7,61,206.3,54.2,207.7,47.4z M214.7,50.9c0.3-1.4,0.4-3.8,2.4-3.6
	c7,0,13.9-0.1,20.9,0.1c-0.4,1.1-0.2,2.7-1.4,3.3c-2.6,0.4-5.3,0-8,0.2c-1.4,5.5-2,11.2-3.8,16.7c-1.8,0.2-3.5,0.2-5.3,0.1
	c1-5.6,2.5-11.2,3.4-16.8C220.1,50.9,217.4,50.9,214.7,50.9z M240.3,47.4c1.8,0,3.7,0,5.5,0c-1,5.8-2.4,11.6-3.6,17.4
	c-0.3,0.9-0.3,2-1,2.7c-1.7,0.6-3.5,0.2-5.2,0.3C237.4,61,238.8,54.1,240.3,47.4z M251.2,47.4c1.9,0,3.7,0,5.6,0
	c-0.9,5.6-2.7,11.1-3.2,16.8c3.4,0.4,6.7,0.2,10.1,0.2c1,0,1.8-0.7,2-1.7c1.2-5.1,2-10.2,3.4-15.3c1.8,0,3.6,0,5.5,0
	c-0.9,5-2.1,10-3.1,15c-0.4,1.6-0.6,3.4-2,4.6c-1.2,1.1-3,0.8-4.5,0.9c-4.8-0.1-9.5,0.1-14.3-0.1c-2,0-3.2-2.2-2.8-4
	C248.8,58.3,250,52.8,251.2,47.4z M277.7,56.7c-3.1-2.9-0.6-8.5,3.4-9.1c5.1-0.7,10.4-0.2,15.6-0.3c-0.2,1.1-0.4,2.3-0.6,3.4
	c-4.4,0.3-8.9-0.1-13.3,0.2c-2.2,0.1-2.4,3.5-0.3,4c4.2,1.3,8.8,0.8,12.8,2.7c2.1,0.9,3.6,3.4,2.8,5.6c-1,3.1-4.6,4.3-7.5,4.4
	c-5.2,0.1-10.3,0.1-15.5,0c0.2-1.1,0.5-2.2,0.7-3.4c4.7-0.1,9.5,0.1,14.2-0.1c1.2-0.1,2.8-0.5,2.9-2c0.2-1-0.6-1.8-1.4-2.1
	C286.9,58.9,281.5,59.9,277.7,56.7z"/>
</svg>
