<?xml version="1.0" encoding="utf-8"?>
<!-- Generator: Adobe Illustrator 26.1.0, SVG Export Plug-In . SVG Version: 6.00 Build 0)  -->
<svg version="1.1" id="Layer_1" xmlns="http://www.w3.org/2000/svg" xmlns:xlink="http://www.w3.org/1999/xlink" x="0px" y="0px"
	 width="850px" height="140px" viewBox="0 0 850 140" enable-background="new 0 0 850 140" xml:space="preserve">
<path fill="#9CA3AF" d="M800,5l-37.7,54.6c-5,7.2-13,14.1-22.8,14.8v1.7h42c11.1,0,19.3-7.3,24.8-15.2L845,5L800,5L800,5z"/>
<path fill="#9CA3AF" d="M105.1,76.1V11h19v65.1L105.1,76.1z M543.3,76.1l-45.6-38.6v38.6h-16V11h13.6l45,38V11h16v65.1L543.3,76.1z
	 M642.5,32c-8.6-4.2-18.3-7.6-31.1-7.6c-15.3,0-26.7,7.9-26.7,18.9c0,11.3,11.6,19.3,26.6,19.3c12.4,0,22.2-3.2,31.8-8.7v16.1
	c-8.5,4.2-19.9,7.4-32.6,7.4c-26,0-46.5-13.3-46.5-34c0-20.4,20.9-33.5,46.5-33.5c12.1,0,23,2.3,32.1,6V32z M229.9,76.1V11h63.5v14
	h-44.5v16.2h43.5v14h-43.5v21H229.9z M654,76.1V11h65.9v14H673v11.3h46.2v14H673v11.9h46.7v14L654,76.1L654,76.1z M359.3,51.7
	l26.3,24.4h-20.3c-4.5,0-7.4-1.4-9.8-3.7l-17.8-17.3c-0.3-0.3-0.9-0.5-1.5-0.5H324v21.5h-19V11h41.2c21.3,0,30.3,9.6,30.3,20.2
	C376.5,43.5,365.4,49.4,359.3,51.7L359.3,51.7z M344.2,40.9c7.5,0,11.1-3.8,11.1-8.1c0-4.3-3.2-7.9-11.1-7.9H324v16H344.2z
	 M196.3,51.7l26.2,24.4h-20.3c-4.5,0-7.5-1.4-9.8-3.7l-17.9-17.3c-0.3-0.3-0.9-0.5-1.5-0.5h-12.1v21.5h-19V11h41.2
	c21.3,0,30.3,9.6,30.3,20.2C213.4,43.5,202.4,49.4,196.3,51.7z M181.1,40.9c7.5,0,11.1-3.8,11.1-8.1c0-4.3-3.2-7.9-11.1-7.9h-20.2
	v16H181.1z M75.4,76.1l-8.3-14.3H30.7l-7.6,14.3H5l36.2-65h16.5l41.1,65L75.4,76.1z M38,48.2h21.2l-11-19.9L38,48.2z M454.7,76.1
	l-8.1-14.3h-35.4l-7.3,14.3h-17.7l35.3-65h16l39.9,65H454.7z M418.3,48.2h20.7l-10.7-19.9L418.3,48.2z"/>
<path fill="#9CA3AF" d="M580.2,134V87.2h-14.6V106h-31.4V87.2h-14.7V134h14.7v-18.8h31.4V134H580.2z M588.5,110.4
	c0,6.9,3.4,12.6,10.4,17.4c6.9,4.8,15.3,7.2,25,7.2c9.7,0,18-2.3,25-7.2c7-4.8,10.5-10.5,10.5-17.4c0-6.7-3.5-12.5-10.5-17.2
	c-7-4.7-15.4-7-25-7.1c-9.8,0-18.1,2.4-25,7.1C591.9,97.9,588.5,103.7,588.5,110.4z M603.2,110.4c0-4.1,2-7.6,5.9-10.4
	c4-2.8,8.9-4.3,14.8-4.3c5.9,0,10.8,1.4,14.7,4.2c3.8,2.8,5.7,6.2,5.8,10.5c0,4.4-2,8-5.8,10.8c-4,2.8-8.8,4.2-14.7,4.2
	c-5.9,0-10.9-1.4-14.8-4.3C605.2,118.3,603.2,114.7,603.2,110.4L603.2,110.4z M692.5,120.1c7.8,0,14.3-1.5,19.4-4.6
	c5.2-3.1,7.8-7.1,7.8-12c0-5-2.6-8.9-7.7-11.9c-5-3-11.6-4.4-19.5-4.4h-24.7V134h14.6v-13.9H692.5z M692.2,96c3.8,0,7,0.7,9.4,2
	c2.4,1.3,3.6,3.1,3.6,5.5c0,2.5-1.3,4.4-3.7,5.9c-2.4,1.4-5.6,2.1-9.4,2.1h-9.7V96L692.2,96z"/>
</svg>
