<?xml version="1.0" encoding="utf-8"?>
<!-- Generator: Adobe Illustrator 26.1.0, SVG Export Plug-In . SVG Version: 6.00 Build 0)  -->
<svg version="1.1"
	 id="svg37206" inkscape:version="0.92.0 r15299" sodipodi:docname="air austral.svg" xmlns:cc="http://creativecommons.org/ns#" xmlns:dc="http://purl.org/dc/elements/1.1/" xmlns:inkscape="http://www.inkscape.org/namespaces/inkscape" xmlns:rdf="http://www.w3.org/1999/02/22-rdf-syntax-ns#" xmlns:sodipodi="http://sodipodi.sourceforge.net/DTD/sodipodi-0.dtd" xmlns:svg="http://www.w3.org/2000/svg"
	 xmlns="http://www.w3.org/2000/svg" xmlns:xlink="http://www.w3.org/1999/xlink" x="0px" y="0px" width="155.8px" height="72.5px"
	 viewBox="0 0 155.8 72.5" enable-background="new 0 0 155.8 72.5" xml:space="preserve">
<sodipodi:namedview  bordercolor="#666666" borderopacity="1.0" fit-margin-bottom="0" fit-margin-left="0" fit-margin-right="0" fit-margin-top="0" id="base" inkscape:current-layer="layer1" inkscape:cx="77.387322" inkscape:cy="35.729677" inkscape:document-units="mm" inkscape:pageopacity="0.0" inkscape:pageshadow="2" inkscape:window-height="744" inkscape:window-maximized="1" inkscape:window-width="1280" inkscape:window-x="-4" inkscape:window-y="-4" inkscape:zoom="5.7955272" pagecolor="#ffffff" showgrid="false" units="px">
	</sodipodi:namedview>
<g>
	<path id="path36571" inkscape:connector-curvature="0" fill="#9CA3AF" d="M86.9,3.5C83,4.8,77.8,7,72.5,9l0,0
		c2.9,1.4,5.8,2.6,8.1,3.7l0,0c7.5-3.1,13.2-4.8,13.2-4.8l0,0c0,0-0.9,2.4-5,8.5l0,0c1.9,0.9,4.4,1.9,5.9,2.4l0,0
		c5.7-7.8,9.3-15,6.9-17.4l0,0c-0.4-0.4-1-0.9-2.5-0.9l0,0C97.2,0.5,93.7,1.2,86.9,3.5"/>
	<path id="path36591" inkscape:connector-curvature="0" fill="#9CA3AF" d="M78.2,33.6c2,1.5,3.5,0.7,5-0.4l0,0c0,0-0.2,0.2-0.5,0.4
		l0,0c2.1-1.8,4.6-4.5,8.3-9l0,0c-1.9-1.2-3.9-2.3-5.4-3.3l0,0L78.2,33.6z"/>
	<path id="path36615" inkscape:connector-curvature="0" fill="#9CA3AF" d="M51.4,2.2c-0.1,0-0.3,0-0.4,0l0,0c-0.2,0-0.5,0.2-0.5,0.2
		l0,0c-6.8,4,13.4,36.3,22.3,42.3l0,0c1.2,0.8,3.5,1.7,5.5,1.1l0,0c0.2-0.1,0.7-0.5,0.8-0.5l0,0c0,0,5.9-6.9,5.9-6.9l0,0
		c-0.1-0.5-0.6-0.2-0.7-0.2l0,0c-2.3,1.7-4.3,0.7-10.5-5.6l0,0c-6.6-6.7-13-18.5-13-18.5l0,0l29.8,13.4c2,0.9,3.1,0.4,3.7,0l0,0
		c0.2-0.1,5.6-6.6,5.6-6.6l0,0c0-0.5-0.5-0.2-0.5-0.2l0,0c-1.7,1.1-3.1,0.3-5.9-0.9l0,0c-1.9-0.8-21.9-9.6-29-13l0,0
		c-9.1-4.3-11.7-4.8-12.8-4.8l0,0C51.7,2.2,51.5,2.2,51.4,2.2"/>
</g>
<path fill="#9CA3AF" d="M74.3,55.1c0.2,0,0.4,0,0.6,0c0.2,0,0.4,0,0.6,0.1c0.2,0,0.4,0.1,0.5,0.2c0.1,0.1,0.2,0.3,0.2,0.6v8.9
	c0,1-0.2,1.9-0.6,2.8c-0.4,0.8-0.9,1.6-1.5,2.2c-0.6,0.6-1.4,1.1-2.3,1.4c-0.9,0.3-1.8,0.5-2.8,0.5c-1,0-1.9-0.2-2.8-0.5
	c-0.9-0.3-1.6-0.8-2.3-1.4c-0.6-0.6-1.1-1.3-1.5-2.2c-0.4-0.8-0.6-1.8-0.6-2.8c0-1.5,0-3,0-4.4c0-1.5,0-2.9,0-4.4
	c0-0.2,0.1-0.4,0.2-0.5c0.1-0.1,0.3-0.2,0.5-0.2c0.2,0,0.4-0.1,0.6-0.1c0.2,0,0.4,0,0.5,0c0.2,0,0.4,0.1,0.7,0.2
	c0.3,0.1,0.4,0.3,0.4,0.5v8.3c0,0.6,0.1,1.2,0.3,1.8c0.2,0.6,0.4,1.1,0.8,1.5c0.4,0.4,0.8,0.8,1.3,1c0.5,0.3,1.1,0.4,1.8,0.4
	c0.7,0,1.3-0.1,1.8-0.4c0.5-0.3,1-0.6,1.3-1c0.4-0.4,0.6-0.9,0.8-1.5c0.2-0.6,0.3-1.2,0.3-1.8v-8.3c0-0.3,0.1-0.5,0.3-0.6
	C73.8,55.2,74,55.1,74.3,55.1 M85.3,71.8c-1.2,0-2.3-0.2-3.5-0.7c-1.1-0.4-2.1-1.1-3-1.9c-0.1-0.1-0.1-0.2-0.2-0.3
	c-0.1-0.1-0.1-0.2-0.1-0.3c0-0.2,0.1-0.3,0.2-0.5c0.1-0.2,0.3-0.4,0.5-0.5c0.2-0.2,0.4-0.3,0.6-0.4c0.2-0.1,0.4-0.2,0.5-0.2
	c0.2,0,0.5,0.1,0.8,0.3c0.3,0.2,0.6,0.4,1,0.7c0.4,0.2,0.9,0.5,1.4,0.7c0.5,0.2,1.1,0.3,1.9,0.3c0.4,0,0.8,0,1.2-0.1
	c0.5-0.1,0.9-0.2,1.3-0.4c0.4-0.2,0.7-0.4,1-0.7c0.3-0.3,0.4-0.7,0.4-1.2c0-0.4-0.2-0.8-0.4-1c-0.3-0.3-0.7-0.4-1.2-0.6
	c-0.5-0.1-1-0.2-1.7-0.3c-0.6-0.1-1.3-0.2-1.9-0.3c-0.6-0.1-1.3-0.2-1.9-0.4c-0.6-0.2-1.2-0.4-1.7-0.7c-0.5-0.3-0.9-0.8-1.2-1.3
	c-0.3-0.5-0.4-1.2-0.4-2c0-0.9,0.2-1.6,0.6-2.2c0.4-0.6,1-1.1,1.6-1.5c0.6-0.4,1.4-0.7,2.1-0.9c0.8-0.2,1.5-0.3,2.2-0.3
	c0.5,0,1,0,1.6,0.1c0.5,0.1,1.1,0.2,1.6,0.4c0.5,0.2,1,0.4,1.5,0.6c0.5,0.3,0.9,0.6,1.3,0.9c0.1,0,0.1,0.1,0.1,0.2
	c0,0.1,0.1,0.2,0.1,0.3c0,0.2-0.1,0.4-0.2,0.6c-0.1,0.2-0.3,0.4-0.5,0.5c-0.2,0.1-0.4,0.3-0.6,0.4c-0.2,0.1-0.4,0.1-0.6,0.1
	c-0.2,0-0.3,0-0.4-0.1c-0.6-0.5-1.2-0.9-1.8-1.2c-0.6-0.3-1.3-0.4-2.1-0.4c-0.3,0-0.7,0-1.1,0.1c-0.4,0.1-0.8,0.2-1.1,0.4
	c-0.3,0.2-0.6,0.4-0.8,0.7C82.2,59,82,59.3,82,59.7c0,0.6,0.3,1,0.8,1.3c0.5,0.3,1.1,0.4,1.9,0.6c0.8,0.1,1.6,0.2,2.5,0.3
	c0.9,0.1,1.7,0.3,2.5,0.6c0.8,0.3,1.4,0.7,1.9,1.3c0.5,0.6,0.8,1.4,0.8,2.6c0,0.9-0.2,1.7-0.7,2.4c-0.4,0.7-1,1.2-1.7,1.7
	c-0.7,0.4-1.4,0.8-2.3,1C86.9,71.7,86.1,71.8,85.3,71.8 M105.7,55.4c0.3,0,0.5,0.1,0.6,0.4c0.1,0.2,0.2,0.5,0.2,0.7
	c0,0.1,0,0.3,0,0.5c0,0.2,0,0.4-0.1,0.6c-0.1,0.2-0.1,0.3-0.2,0.5c-0.1,0.1-0.3,0.2-0.5,0.2h-3.2c-0.3,0-0.5,0.1-0.7,0.2
	c-0.2,0.1-0.3,0.3-0.3,0.6l0,11.8c0,0.2-0.1,0.4-0.2,0.5c-0.1,0.1-0.3,0.2-0.5,0.2c-0.2,0-0.4,0.1-0.6,0c-0.2,0-0.4,0-0.6,0
	c-0.2,0-0.5-0.1-0.8-0.2c-0.3-0.1-0.4-0.3-0.4-0.6V58.9c0-0.2-0.1-0.4-0.2-0.5c-0.1-0.1-0.4-0.1-0.8-0.2c-0.4,0-0.8,0-1.3,0
	c-0.4,0-0.8,0-1.2,0c-0.4,0-0.6,0-0.6,0c-0.3,0-0.5-0.1-0.7-0.4c-0.1-0.2-0.2-0.5-0.2-0.8v-0.5c0-0.2,0-0.4,0.1-0.6
	c0.1-0.2,0.1-0.3,0.2-0.4c0.1-0.1,0.3-0.2,0.5-0.2L105.7,55.4z M155.3,70.2c0,0.3-0.1,0.6-0.2,0.9c-0.1,0.2-0.4,0.4-0.8,0.4h-11
	c-0.2,0-0.3-0.1-0.5-0.3c-0.2-0.2-0.2-0.3-0.2-0.5V55.9c0-0.2,0.1-0.4,0.2-0.5c0.1-0.1,0.3-0.2,0.5-0.3c0.2,0,0.4-0.1,0.6-0.1h0.5
	c0.3,0,0.5,0.1,0.8,0.2c0.2,0.1,0.4,0.3,0.5,0.6v11.4c0,0.2,0,0.4,0.1,0.5c0,0.1,0.1,0.3,0.3,0.4c0.3,0.3,0.6,0.5,1,0.5h7.4
	c0.2,0,0.4,0.1,0.5,0.2c0.1,0.1,0.2,0.2,0.3,0.4c0.1,0.2,0.1,0.3,0.1,0.5C155.3,69.8,155.3,70,155.3,70.2 M34.5,61.3
	c-0.4,2-2.9,1.9-2.9,1.9h-3.4c-0.6-0.1-0.7-0.7-0.7-0.7v-3.9c0-0.4,0.3-0.4,0.3-0.4h0.6c0.9,0,1.7,0,2.6,0c1,0,2.1-0.1,2.9,0.6
	c0.4,0.4,0.6,1,0.7,1.6C34.5,60.8,34.5,61.1,34.5,61.3 M38.8,71.4l-3.5-6.1c0,0-0.1-0.3,0.1-0.4c3.4-2.2,1.9-6.5,1.9-6.5
	c-1-3.1-5-3-5-3h-6.7c-1.1,0-1.1,0.8-1.1,0.8v14.2v0.4c0,0-0.1,1,0.6,1h0.5v0c0.6,0,1.4,0,1.4,0c0.7-0.1,0.6-1,0.6-1v-4.2
	c0-0.2,0.3-0.2,0.3-0.2c0.1,0,3.6-0.1,4.2,0.1c0.3,0.1,0.5,0.4,0.7,0.6c0,0,2.3,3.9,2.3,3.9c0.2,0.3,0.4,0.5,0.6,0.8
	C36,72,36.3,72,36.6,72c0.5,0,1,0,1.6,0C39,71.9,38.8,71.4,38.8,71.4 M119.3,61.3c-0.4,2-2.9,1.9-2.9,1.9H113
	c-0.6-0.1-0.7-0.7-0.7-0.7v-3.9c0-0.4,0.3-0.4,0.3-0.4h0.6c0.9,0,1.7,0,2.6,0c1,0,2.1-0.1,2.9,0.6c0.4,0.4,0.6,1,0.7,1.6
	C119.4,60.8,119.3,61.1,119.3,61.3 M123.6,71.4l-3.5-6.1c0,0-0.1-0.3,0.1-0.4c3.4-2.2,1.9-6.5,1.9-6.5c-1-3.1-5-3-5-3h-6.7
	c-1.1,0-1.1,0.8-1.1,0.8v14.2v0.4c0,0,0,1,0.6,1h0.5v0c0.6,0,1.4,0,1.4,0c0.7-0.1,0.6-1,0.6-1v-4.2c0-0.2,0.3-0.2,0.3-0.2
	c0.1,0,3.6-0.1,4.2,0.1c0.3,0.1,0.5,0.4,0.7,0.6c0,0,2.3,3.9,2.3,3.9c0.2,0.3,0.4,0.5,0.6,0.8c0.3,0.2,0.5,0.2,0.9,0.2
	c0.5,0,1,0,1.6,0C123.8,71.9,123.6,71.4,123.6,71.4 M10.1,65.6c-0.1,0.1-0.2,0.1-0.3,0.1H8.1h0H6.5c-0.1,0-0.2,0-0.3-0.1
	C6,65.5,6,65.4,6,65.3c0-0.1,0.1-0.3,0.2-0.7c0.2-0.4,0.3-0.9,0.5-1.3c0.2-0.5,0.4-0.9,0.6-1.4c0.2-0.4,0.3-0.7,0.3-0.8
	c0.1-0.1,0.2-0.2,0.4-0.2h0v0h0h0l0,0h0c0.2,0,0.3,0,0.4,0.2c0.1,0.1,0.2,0.4,0.3,0.8c0.2,0.4,0.4,0.9,0.6,1.4
	c0.2,0.5,0.4,0.9,0.5,1.3c0.2,0.4,0.2,0.6,0.2,0.7C10.2,65.4,10.1,65.5,10.1,65.6 M15.7,71L9.3,55.8c-0.1-0.2-0.3-0.3-0.6-0.4
	c-0.3,0-0.5-0.1-0.6-0.1h0h0c-0.2,0-0.4,0-0.6,0.1c-0.3,0-0.5,0.2-0.6,0.4L0.5,71c0,0,0,0.1,0,0.1c0,0.2,0.1,0.3,0.2,0.4
	c0.1,0.1,0.3,0.1,0.5,0.2c0.2,0,0.4,0,0.6,0c0.2,0,0.4,0,0.5,0c0.2,0,0.5,0,0.8-0.1c0.3-0.1,0.5-0.2,0.6-0.5l0.9-2.1
	c0.1-0.1,0.2-0.3,0.3-0.4c0.1-0.1,0.3-0.1,0.4-0.1h2.8h0h2.8c0.2,0,0.3,0.1,0.4,0.1c0.1,0.1,0.2,0.2,0.3,0.4l0.9,2.1
	c0.1,0.3,0.3,0.4,0.6,0.5c0.3,0.1,0.6,0.1,0.8,0.1c0.1,0,0.3,0,0.5,0c0.2,0,0.4,0,0.6,0c0.2,0,0.3-0.1,0.5-0.2
	c0.1-0.1,0.2-0.2,0.2-0.4C15.7,71,15.7,71,15.7,71 M55.3,65.6c-0.1,0.1-0.2,0.1-0.3,0.1h-1.6h0h-1.6c-0.1,0-0.2,0-0.3-0.1
	c-0.1-0.1-0.1-0.2-0.1-0.3c0-0.1,0.1-0.3,0.2-0.7c0.2-0.4,0.3-0.9,0.5-1.3c0.2-0.5,0.4-0.9,0.6-1.4c0.2-0.4,0.3-0.7,0.3-0.8
	c0.1-0.1,0.2-0.2,0.4-0.2h0v0h0h0l0,0h0c0.2,0,0.3,0,0.4,0.2c0.1,0.1,0.2,0.4,0.3,0.8c0.2,0.4,0.4,0.9,0.6,1.4
	c0.2,0.5,0.4,0.9,0.5,1.3c0.2,0.4,0.2,0.6,0.2,0.7C55.5,65.4,55.4,65.5,55.3,65.6 M61,71l-6.3-15.1c-0.1-0.2-0.3-0.3-0.6-0.4
	c-0.3,0-0.5-0.1-0.6-0.1h0h0c-0.2,0-0.4,0-0.6,0.1c-0.3,0-0.5,0.2-0.6,0.4L45.8,71c0,0,0,0.1,0,0.1c0,0.2,0.1,0.3,0.2,0.4
	c0.1,0.1,0.3,0.1,0.5,0.2c0.2,0,0.4,0,0.6,0c0.2,0,0.4,0,0.5,0c0.2,0,0.5,0,0.8-0.1c0.3-0.1,0.5-0.2,0.6-0.5l0.9-2.1
	c0.1-0.1,0.2-0.3,0.3-0.4c0.1-0.1,0.3-0.1,0.4-0.1h2.8h0h2.8c0.2,0,0.3,0.1,0.4,0.1c0.1,0.1,0.2,0.2,0.3,0.4l0.9,2.1
	c0.1,0.3,0.3,0.4,0.6,0.5c0.3,0.1,0.6,0.1,0.8,0.1c0.1,0,0.3,0,0.5,0c0.2,0,0.4,0,0.6,0c0.2,0,0.3-0.1,0.5-0.2
	c0.1-0.1,0.2-0.2,0.2-0.4C61,71,61,71,61,71 M134.9,65.6c-0.1,0.1-0.2,0.1-0.3,0.1H133h0h-1.6c-0.1,0-0.2,0-0.3-0.1
	c-0.1-0.1-0.1-0.2-0.1-0.3c0-0.1,0.1-0.3,0.2-0.7c0.2-0.4,0.3-0.9,0.5-1.3c0.2-0.5,0.4-0.9,0.6-1.4c0.2-0.4,0.3-0.7,0.3-0.8
	c0.1-0.1,0.2-0.2,0.4-0.2h0v0h0h0l0,0h0c0.2,0,0.3,0,0.4,0.2c0.1,0.1,0.2,0.4,0.3,0.8c0.2,0.4,0.4,0.9,0.6,1.4
	c0.2,0.5,0.4,0.9,0.5,1.3c0.2,0.4,0.2,0.6,0.2,0.7C135,65.4,135,65.5,134.9,65.6 M140.5,71l-6.3-15.1c-0.1-0.2-0.3-0.3-0.6-0.4
	c-0.3,0-0.5-0.1-0.6-0.1h0h0c-0.2,0-0.4,0-0.6,0.1c-0.3,0-0.5,0.2-0.6,0.4L125.4,71c0,0,0,0.1,0,0.1c0,0.2,0.1,0.3,0.2,0.4
	c0.1,0.1,0.3,0.1,0.5,0.2c0.2,0,0.4,0,0.6,0c0.2,0,0.4,0,0.5,0c0.2,0,0.5,0,0.8-0.1c0.3-0.1,0.5-0.2,0.6-0.5l0.9-2.1
	c0.1-0.1,0.2-0.3,0.3-0.4c0.1-0.1,0.3-0.1,0.4-0.1h2.8h0h2.8c0.2,0,0.3,0.1,0.4,0.1c0.1,0.1,0.2,0.2,0.3,0.4l0.9,2.1
	c0.1,0.3,0.3,0.4,0.6,0.5c0.3,0.1,0.6,0.1,0.8,0.1c0.1,0,0.3,0,0.5,0c0.2,0,0.4,0,0.6,0c0.2,0,0.3-0.1,0.5-0.2
	c0.1-0.1,0.2-0.2,0.2-0.4C140.5,71,140.5,71,140.5,71 M20.9,71c0,0.5-0.4,0.9-0.8,0.9h-1.3c-0.5,0-0.8-0.4-0.8-0.9V56.2
	c0-0.5,0.4-0.9,0.8-0.9H20c0.5,0,0.8,0.4,0.8,0.9V71z"/>
</svg>
