<?xml version="1.0" encoding="utf-8"?>
<!-- Generator: Adobe Illustrator 26.1.0, SVG Export Plug-In . SVG Version: 6.00 Build 0)  -->
<svg version="1.1" id="Layer_1" xmlns="http://www.w3.org/2000/svg" xmlns:xlink="http://www.w3.org/1999/xlink" x="0px" y="0px"
	 width="189px" height="18px" viewBox="0 0 189 18" enable-background="new 0 0 189 18" xml:space="preserve">
<path fill="#9CA3AF" d="M178.2,0.7l-8.4,12.4c-1.1,1.6-2.9,3.2-5.1,3.4v0.4h9.4c2.5,0,4.3-1.6,5.5-3.5l8.7-12.7H178.2L178.2,0.7z"/>
<path fill="#9CA3AF" d="M22.8,16.8V2H27v14.8L22.8,16.8L22.8,16.8z M120.8,16.8L110.6,8v8.8H107V2h3l10.1,8.6V2h3.6v14.8
	C123.7,16.8,120.8,16.8,120.8,16.8z M143,6.8c-1.9-1-4.1-1.7-6.9-1.7c-3.4,0-6,1.8-6,4.3c0,2.6,2.6,4.4,5.9,4.4c2.8,0,5-0.7,7.1-2
	v3.7c-1.9,1-4.4,1.7-7.3,1.7c-5.8,0-10.4-3-10.4-7.7c0-4.6,4.7-7.6,10.4-7.6c2.7,0,5.1,0.5,7.2,1.4C143,3.1,143,6.8,143,6.8z
	 M50.7,16.8V2h14.2v3.2h-10v3.7h9.7V12h-9.7v4.8L50.7,16.8L50.7,16.8z M145.5,16.8V2h14.7v3.2h-10.5v2.6h10.3v3.2h-10.3v2.7h10.4
	v3.2H145.5z M79.6,11.3l5.9,5.5H81c-1,0-1.7-0.3-2.2-0.8l-4-3.9c-0.1-0.1-0.2-0.1-0.3-0.1h-2.7v4.9h-4.2V2h9.2
	c4.8,0,6.8,2.2,6.8,4.6C83.5,9.4,81,10.8,79.6,11.3L79.6,11.3z M76.2,8.8c1.7,0,2.5-0.9,2.5-1.8S78,5.2,76.2,5.2h-4.5v3.6H76.2z
	 M43.2,11.3l5.9,5.5h-4.5c-1,0-1.7-0.3-2.2-0.8l-4-3.9c-0.1-0.1-0.2-0.1-0.3-0.1h-2.7v4.9H31V2h9.2C45,2,47,4.2,47,6.6
	C47,9.4,44.5,10.8,43.2,11.3z M39.8,8.8c1.7,0,2.5-0.9,2.5-1.8s-0.7-1.8-2.5-1.8h-4.5v3.6H39.8z M16.1,16.8l-1.9-3.2H6.1l-1.7,3.2
	H0.4L8.5,2h3.7l9.2,14.8C21.4,16.8,16.1,16.8,16.1,16.8z M7.8,10.5h4.7L10,6C10,6,7.7,10.5,7.8,10.5z M101,16.8l-1.8-3.2h-7.9
	l-1.6,3.2h-3.9L93.5,2h3.6l8.9,14.8C106.1,16.8,101,16.8,101,16.8z M92.8,10.5h4.6L95,6L92.8,10.5z"/>
</svg>
