<?xml version="1.0" encoding="utf-8"?>
<!-- Generator: Adobe Illustrator 26.1.0, SVG Export Plug-In . SVG Version: 6.00 Build 0)  -->
<svg version="1.1"
	 id="svg36290" inkscape:version="0.92.0 r15299" sodipodi:docname="air corsica.svg" xmlns:cc="http://creativecommons.org/ns#" xmlns:dc="http://purl.org/dc/elements/1.1/" xmlns:inkscape="http://www.inkscape.org/namespaces/inkscape" xmlns:rdf="http://www.w3.org/1999/02/22-rdf-syntax-ns#" xmlns:sodipodi="http://sodipodi.sourceforge.net/DTD/sodipodi-0.dtd" xmlns:svg="http://www.w3.org/2000/svg"
	 xmlns="http://www.w3.org/2000/svg" xmlns:xlink="http://www.w3.org/1999/xlink" x="0px" y="0px" width="373px" height="56px"
	 viewBox="0 0 373 56" enable-background="new 0 0 373 56" xml:space="preserve">
<sodipodi:namedview  bordercolor="#666666" borderopacity="1.0" fit-margin-bottom="0" fit-margin-left="0" fit-margin-right="0" fit-margin-top="0" id="base" inkscape:current-layer="layer1" inkscape:cx="185.51533" inkscape:cy="27.036874" inkscape:document-units="mm" inkscape:pageopacity="0.0" inkscape:pageshadow="2" inkscape:window-height="744" inkscape:window-maximized="1" inkscape:window-width="1280" inkscape:window-x="-4" inkscape:window-y="-4" inkscape:zoom="2.4175896" pagecolor="#ffffff" showgrid="false" units="px">
	</sodipodi:namedview>
<g>
	<path fill="#9CA3AF" d="M32.6,4.3c-0.9-0.8-2.7-0.5-3.5-1.3c-0.5-0.5-0.1-1-0.6-1.2c-1.8-0.6-3.7,0.5-4.8-0.9
		c-0.7,0.6-2.3,0.3-3.5,0.3c-0.8,0-1.5,1.1-2.1,0c-1.5,0.2-2.3,2-3.9,2c-0.3,0-0.7-0.3-1-0.3c-1.2,0-1.6,2.1-2.6,2.5
		c-0.4,0-0.3-0.5-0.6-0.3l0,0c-0.4,0.6-0.7,1.3-1.1,2c1.2,0.2,2.7,0.3,4,0.6C20.5,9.2,23.5,15,30,17.3c0.9-3.1,1.8-7.6,2.7-10.8
		C32.8,5.6,33,5,32.6,4.3z"/>
	<path fill="#9CA3AF" d="M6.1,15.1c0,1.1-0.7,1.4-0.7,2.1c0,0.9,1.5,1.4,2.2,1.9c1,0.7,1.5,1.4,1.6,2.3c-0.7-0.3-0.6-1-1.7-1
		c-0.3,0-0.8,0.3-1.4,0.3c-0.4,0-1.2-0.7-1.4-0.6c-0.7,0.2-1.5,2.4-2,3.1v0c-0.8,1.3-2.7,3.2-1.1,4.1c1.3,0,2.2,0.3,2.2,1.3
		c0,1.1-1.3,1.2-1.4,1.9c-0.2,1,1.2,1.1,1.6,1.8c-0.1,0.6-1.2,0.9-1,1.9c0.4,0.4,0.8,0.3,1.1,0.6c1,0.9-0.5,2.1-0.6,3
		C3.2,39.4,5.8,41,7.8,41c1.9,0,4-0.5,6.1-0.9c0,0,1,1.9,2.5,3.9c0,0,0,0,0,0c0.3,0.6,0.9,1.3,1.2,1.9c1.6,2.6,3,5.9,3.3,9.1
		c2.7-10,5.2-21.3,7.8-31.9c-5.1-2.2-8.8-5.6-14.9-7.4C11.2,15,8.3,14.8,6.1,15.1z M22.2,41.1C22.2,41.1,22.2,41.1,22.2,41.1
		C22.2,41.1,22.2,41.1,22.2,41.1C22.2,41.1,22.2,41.1,22.2,41.1z"/>
</g>
<path fill="#9CA3AF" d="M73.7,38.7l-8.5-18.5c-1.7-3.5-3.5-3.7-5.8-3.7h-2.9c-0.3,0-2.2,0-2.2,0l0.6,1.2l-23,20.9
	c-0.3,0.3-0.5,0.7-0.6,1.1c0,0,0,0,0,0.1c0,0.2,0.1,0.4,0.2,0.6c0.1,0.2,0.4,0.3,0.6,0.3c0,0,0,0,0,0l6.6,0c0.3,0,0.6-0.1,0.7-0.3
	l5.4-4.9h18.1l2.2,4.7c0.1,0.3,0.4,0.5,0.8,0.5l6.7,0h0c0.5,0,0.8-0.3,1.1-0.7c0.1-0.3,0.2-0.5,0.2-0.8C73.8,39,73.8,38.9,73.7,38.7
	L73.7,38.7z M60.2,29.4h-8.7l6.1-5.6L60.2,29.4 M75.5,38.8c0,0.2-0.1,0.3,0,0.5c0,0.3,0.2,0.6,0.3,0.8c0.3,0.4,0.6,0.7,1.2,0.7h0
	l6.7,0c0.3,0,0.6-0.2,0.7-0.5l1.5-4.7l5.5-16.8l0.8-2.3c0,0-2,0-2.3,0h-3c-2.4,0-4.2,0.2-5.4,3.8L75.5,38.8L75.5,38.8z M76,39L76,39
	L76,39 M122.5,22c-0.1-0.7-0.3-1.3-0.7-1.9c-0.7-1.3-2-2.2-3.7-2.8c-1.6-0.6-3.7-0.9-6-0.9H102c0,0,0,0,0,0h0l-1.1,0h-5.2
	c-0.1,0-0.2,0-0.2,0l-0.2,0c-0.3,0-0.6,0.2-0.7,0.5L93,21.7l-5.5,16.8l-0.8,2.3c0,0,2,0,2.3,0h3c2.4,0,4.2-0.2,5.4-3.8l1.7-5.4h7.5
	c0.8,0,1.5,0.1,2,0.2c0.4,0.1,0.6,0.1,0.7,0.2c0.1,0.1,0.3,0.4,0.5,1.1l0,0l0.1,0.2c0,0,0.6,1.7,1.2,3.4c0.3,0.8,0.6,1.7,0.8,2.3
	c0.2,0.7,0.4,1.1,0.4,1.2c0.1,0.3,0.5,0.5,0.8,0.5c0,0,0,0,0,0h6.5c0.3,0,0.6-0.2,0.8-0.4c0.2-0.2,0.4-0.5,0.5-0.7l0-0.2l-2.3-6
	l-1.5-3.8c1-0.4,2.1-1.1,2.7-1.6c0.6-0.5,1.1-1.1,1.6-1.7c0.4-0.5,0.6-1.1,0.8-1.6h0l0.1-0.3h0l0.1-0.4c0.1-0.4,0.2-0.9,0.2-1.3
	C122.5,22.5,122.5,22.2,122.5,22L122.5,22z M113.8,23.9c-0.1,0.2-0.2,0.4-0.4,0.6c-0.2,0.2-0.3,0.3-0.6,0.4
	c-0.2,0.1-0.5,0.3-0.8,0.4c-0.6,0.2-1.5,0.3-2.7,0.3h-8.2l1-3l8.5,0h0l0,0c0.8,0,1.4,0.1,1.8,0.2c0.7,0.2,1,0.4,1.2,0.6
	c0.1,0.1,0.1,0.2,0.2,0.3C113.8,23.6,113.8,23.7,113.8,23.9C113.8,23.8,113.8,23.9,113.8,23.9 M277.9,32.9L277.9,32.9
	c0-1.2-0.3-2.2-0.8-3.2c-0.5-0.9-1.2-1.7-2.2-2.3c-1-0.7-2.3-1.2-3.7-1.5c-1.4-0.3-3-0.5-4.8-0.5H260c-0.8,0-1.4-0.1-1.9-0.2
	c-0.7-0.2-1.1-0.4-1.4-0.6c-0.1-0.1-0.2-0.2-0.3-0.4c0-0.1-0.1-0.2-0.1-0.3c0.1-0.2,0.2-0.3,0.3-0.5c0.1-0.1,0.3-0.3,0.4-0.4
	c0.2-0.1,0.4-0.2,0.7-0.3c0.6-0.2,1.4-0.3,2.6-0.3h17.5c0.3,0,0.6-0.2,0.9-0.4c0.2-0.2,0.3-0.5,0.4-0.8l1.1-3.6c0-0.3,0-0.6-0.1-0.8
	c-0.1-0.2-0.4-0.4-0.7-0.4h-18c-1.8,0-3.4,0.1-4.9,0.5c-1.5,0.3-2.9,0.8-4.1,1.5l0,0c-1.1,0.6-2,1.4-2.8,2.3c-0.8,0.9-1.3,2-1.7,3.1
	l0,0c0,0.1,0,0.1,0,0.2c0,0.1,0,0.1,0,0.2v0c0,1.2,0.2,2.3,0.7,3.3c0.8,1.4,2.1,2.5,3.9,3.1c1.8,0.7,4,0.9,6.7,1h6.5
	c0.8,0,1.4,0.1,1.9,0.2c0.8,0.2,1.2,0.4,1.4,0.6c0.1,0.1,0.2,0.2,0.2,0.4c0,0.1,0.1,0.2,0.1,0.3c-0.1,0.2-0.2,0.3-0.3,0.5
	c-0.1,0.1-0.3,0.3-0.4,0.4c-0.2,0.1-0.4,0.2-0.7,0.3c-0.6,0.2-1.5,0.3-2.7,0.3h-19.6c-0.3,0-0.7,0.2-0.9,0.4
	c-0.2,0.2-0.3,0.5-0.4,0.8l-1.3,3.6c0,0.3,0,0.6,0.1,0.8c0.1,0.2,0.4,0.4,0.7,0.4h20.4c1.8,0,3.4-0.1,4.9-0.4
	c2.2-0.4,4.1-1.2,5.6-2.4c0.7-0.6,1.4-1.3,1.9-2c0.5-0.8,0.9-1.6,1.2-2.5l0,0c0-0.1,0-0.1,0-0.2C277.9,33.1,277.9,33,277.9,32.9
	 M278.7,38.7c-0.1,0.2-0.1,0.3,0,0.5c0.1,0.3,0.2,0.5,0.4,0.8c0.3,0.4,0.6,0.7,1.2,0.7h0l6.7,0c0.3,0,0.6-0.2,0.7-0.5l1.5-4.7
	l5.5-16.7l0.8-2.3c0,0-1.9,0-2.3,0h-3c-2.4,0-4.2,0.2-5.4,3.7L278.7,38.7z M279.2,39L279.2,39 M242.1,22c-0.1-0.7-0.3-1.3-0.7-1.9
	c-0.7-1.3-2-2.2-3.7-2.8c-1.7-0.6-3.7-0.8-6-0.8h-10.1c0,0,0,0,0,0h0l-1.1,0h-5.1c-0.1,0-0.2,0-0.2,0l-0.2,0c-0.3,0-0.6,0.2-0.7,0.5
	l-1.5,4.7l-5.5,16.7l-0.8,2.3c0,0,1.9,0,2.3,0h3c2.4,0,4.2-0.2,5.4-3.7l1.7-5.4h7.5c0.9,0,1.5,0.1,2,0.2c0.4,0.1,0.6,0.1,0.7,0.2
	c0.1,0.1,0.3,0.4,0.5,1.1l0,0l0.1,0.2c0,0,0.6,1.7,1.2,3.4c0.3,0.8,0.6,1.7,0.8,2.3c0.2,0.7,0.4,1,0.4,1.2c0.1,0.3,0.5,0.5,0.8,0.5
	c0,0,0,0,0,0h6.4c0.3,0,0.6-0.2,0.8-0.3c0.2-0.2,0.4-0.5,0.5-0.7l0.1-0.2l-2.3-6l-1.5-3.7c1-0.4,2.1-1.1,2.6-1.6
	c0.6-0.5,1.1-1.1,1.6-1.7c0.4-0.5,0.6-1.1,0.8-1.6h0l0.1-0.3h0l0.1-0.4c0.1-0.4,0.2-0.9,0.2-1.3C242.1,22.5,242.1,22.2,242.1,22
	L242.1,22z M233.5,23.9c-0.1,0.2-0.2,0.4-0.4,0.5c-0.2,0.2-0.3,0.3-0.6,0.4c-0.2,0.1-0.5,0.3-0.8,0.4c-0.6,0.2-1.5,0.3-2.7,0.3h-8.2
	l1-3h8.5c0.7,0,1.4,0.1,1.8,0.2c0.7,0.2,1,0.4,1.2,0.6c0.1,0.1,0.1,0.2,0.1,0.3C233.5,23.6,233.5,23.7,233.5,23.9
	C233.5,23.8,233.5,23.8,233.5,23.9 M371.9,38.7l-8.6-18.5c-1.7-3.5-3.5-3.7-5.9-3.8h-2.9c-0.3,0-2.2,0-2.2,0l0.6,1.2l-23.1,20.9
	c-0.3,0.3-0.5,0.7-0.6,1.1c0,0,0,0,0,0.1c0,0.2,0,0.4,0.2,0.6c0.1,0.2,0.4,0.3,0.6,0.3c0,0,0,0,0,0l6.7,0c0.3,0,0.5-0.1,0.7-0.3
	l5.4-4.9h18.2l2.2,4.7c0.1,0.3,0.4,0.5,0.8,0.5l6.7,0h0c0.5,0,0.8-0.3,1.1-0.7c0.2-0.3,0.2-0.5,0.2-0.8C372,39,372,38.8,371.9,38.7
	L371.9,38.7z M358.3,29.4h-8.7l6.2-5.6L358.3,29.4 M170.6,16.9c-0.1-0.2-0.4-0.4-0.7-0.4h-14.7c-4.1,0-7.7,0.5-10.9,1.4
	c-3.2,1-5.8,2.4-7.9,4.4c-1.8,1.7-3.1,3.8-3.7,6.1l0,0c0,0.1,0,0.1,0,0.2c0,0.1,0,0.1,0,0.2v0c-0.1,2.3,0.5,4.4,1.8,6.1
	c1.5,2,3.7,3.5,6.6,4.4c2.9,1,6.4,1.4,10.5,1.4h14.4c0.3,0,0.7-0.2,0.9-0.4c0.2-0.2,0.3-0.5,0.4-0.8l0.5-3.6c0-0.3,0-0.6-0.1-0.8
	c-0.1-0.2-0.4-0.4-0.7-0.4h-14.4c-2.8,0-5-0.3-6.7-0.9c-1.7-0.6-2.9-1.4-3.7-2.4c-0.6-0.8-0.9-1.7-0.9-2.8c0.4-1.1,0.9-2,1.7-2.8
	c1.1-1.1,2.5-1.9,4.4-2.4c1.9-0.6,4.1-0.9,6.9-0.9h14.7c0.3,0,0.6-0.2,0.9-0.4c0.2-0.2,0.3-0.5,0.4-0.8l0.5-3.6
	C170.7,17.4,170.7,17.1,170.6,16.9 M208.5,28.6L208.5,28.6c0.2-1.3,0.2-2.5-0.1-3.7c-0.3-1.1-0.8-2.2-1.5-3.1
	c-1.5-1.8-3.8-3.1-6.8-4.1l0,0l0,0c-2.6-0.8-5.6-1.2-9.1-1.4l-0.1,0h-0.1l-0.1,0c-3.6,0.1-6.8,0.6-9.6,1.4c-3.3,0.9-6,2.3-8,4.1
	c-1,0.9-1.8,1.9-2.5,3.1c-0.6,1.1-1,2.4-1.3,3.6c0,0,0,0,0,0l0,0c-0.2,1.3-0.2,2.5,0.1,3.6c0.3,1.1,0.8,2.2,1.5,3.1
	c1.4,1.8,3.7,3.1,6.8,4.1c2.6,0.8,5.7,1.3,9.2,1.4l0.1,0h0.1l0.1,0c3.6-0.1,6.8-0.6,9.6-1.4c3.3-0.9,6-2.3,8.1-4.1
	c1-0.9,1.8-1.9,2.5-3.1C207.9,31.1,208.3,29.9,208.5,28.6L208.5,28.6L208.5,28.6z M199.9,28.6c-0.1,0.6-0.3,1.2-0.5,1.6
	c-0.3,0.5-0.6,0.9-1.1,1.4c-0.9,0.9-2.4,1.6-4.4,2.2l0,0c-1.6,0.5-3.5,0.8-5.9,0.9c-1.9-0.1-3.5-0.3-4.8-0.6
	c-1.4-0.3-2.4-0.8-3.3-1.3c-0.8-0.5-1.4-1.2-1.7-1.8c-0.3-0.7-0.4-1.4-0.2-2.3c0.1-0.6,0.3-1.2,0.5-1.6c0.3-0.5,0.6-0.9,1.1-1.4
	c0.9-0.8,2.3-1.6,4.3-2.2l0.1,0c1.6-0.5,3.6-0.8,5.9-0.9c2.2,0.1,4,0.4,5.6,0.9c1.8,0.6,3,1.4,3.7,2.2c0.3,0.4,0.6,0.9,0.7,1.4
	C200,27.5,200,28,199.9,28.6 M331.7,16.9c-0.1-0.2-0.4-0.4-0.7-0.4h-14.7c-4.1,0-7.7,0.5-10.9,1.4c-3.2,1-5.8,2.4-7.9,4.4
	c-1.8,1.7-3.1,3.8-3.7,6.1l0,0c0,0.1,0,0.1,0,0.2c0,0.1,0,0.1,0,0.2l0,0c-0.1,2.3,0.5,4.4,1.8,6.1c1.5,2,3.7,3.5,6.6,4.4
	c2.9,1,6.4,1.4,10.5,1.4h12.7c0.3,0,0.6-0.2,0.9-0.4c0.3-0.2,4.9-4.2,4.9-4.4c0.1-0.2,0-0.6-0.1-0.8c-0.1-0.2-0.4-0.4-0.7-0.4h-16.7
	c-2.8,0-5-0.3-6.7-0.9c-1.7-0.6-2.9-1.4-3.7-2.4c-0.6-0.8-0.9-1.7-0.9-2.8c0.4-1.1,0.9-2,1.7-2.8c1.1-1.1,2.5-1.9,4.4-2.4
	c1.9-0.6,4.1-0.9,6.9-0.9l14.7,0c0.3,0,0.6-0.2,0.9-0.4c0.2-0.2,0.3-0.5,0.4-0.8l0.1-0.5l0.4-3.1C331.9,17.4,331.8,17.1,331.7,16.9"
	/>
</svg>
