<?xml version="1.0" encoding="utf-8"?>
<!-- Generator: Adobe Illustrator 26.1.0, SVG Export Plug-In . SVG Version: 6.00 Build 0)  -->
<svg version="1.1"
	 id="svg3462" inkscape:version="0.92.0 r15299" sodipodi:docname="air macau.svg" xmlns:cc="http://creativecommons.org/ns#" xmlns:dc="http://purl.org/dc/elements/1.1/" xmlns:inkscape="http://www.inkscape.org/namespaces/inkscape" xmlns:rdf="http://www.w3.org/1999/02/22-rdf-syntax-ns#" xmlns:sodipodi="http://sodipodi.sourceforge.net/DTD/sodipodi-0.dtd" xmlns:svg="http://www.w3.org/2000/svg"
	 xmlns="http://www.w3.org/2000/svg" xmlns:xlink="http://www.w3.org/1999/xlink" x="0px" y="0px" width="310.7px" height="83.1px"
	 viewBox="0 0 310.7 83.1" enable-background="new 0 0 310.7 83.1" xml:space="preserve">
<sodipodi:namedview  bordercolor="#666666" borderopacity="1.0" fit-margin-bottom="0" fit-margin-left="0" fit-margin-right="0" fit-margin-top="0" id="base" inkscape:current-layer="layer1" inkscape:cx="154.33352" inkscape:cy="40.540444" inkscape:document-units="mm" inkscape:pageopacity="0.0" inkscape:pageshadow="2" inkscape:window-height="744" inkscape:window-maximized="1" inkscape:window-width="1280" inkscape:window-x="-4" inkscape:window-y="-4" inkscape:zoom="2.9060444" pagecolor="#ffffff" showgrid="false" units="px">
	</sodipodi:namedview>
<path id="path3701" inkscape:connector-curvature="0" fill="#9CA3AF" d="M36,39.1c0.6-4.5-4.4-3.9-4.4-3.9c0.2-2.3,4-7.3,9.3-5.9
	c5.2,1.4,5.6,7,5.6,7C51.1,11.6,71.1,4.9,79.8,3.1V2.5H2.5v78h64.4C30.6,74.3,36,39.1,36,39.1L36,39.1z"/>
<path id="path3703" inkscape:connector-curvature="0" fill="#9CA3AF" d="M62.8,45.5c-7.1-3.6-17-2.1-17-2.1
	c2,28.8,24.5,35.7,31.4,37.2h2.5V6.1C53.8,18.2,62.8,45.5,62.8,45.5z"/>
<path fill="#9CA3AF" d="M136.7,9.1c0.4,0.1,0.7,0.3,0.9,0.6c0.2,0.2,0.3,0.6,0.3,1v23.2c0,0.4-0.1,0.8-0.3,1
	c-0.2,0.2-0.5,0.4-0.9,0.6v0.7h7.6v-0.7c-0.4-0.1-0.7-0.3-0.9-0.5c-0.2-0.2-0.3-0.6-0.3-1V10.7c0-0.4,0.1-0.8,0.2-1
	c0.2-0.2,0.5-0.4,0.9-0.5V8.5h-7.6L136.7,9.1L136.7,9.1z M302.8,8.4V9c0.4,0.1,0.7,0.3,0.9,0.5c0.2,0.2,0.2,0.5,0.2,0.9v13.8
	c0,1.6-0.1,2.8-0.2,3.5c-0.1,0.8-0.4,1.4-0.8,1.9c-1.1,1.4-2.2,2.1-4.8,2.1c-2.6,0-3.7-0.7-4.8-2.1c-0.4-0.5-0.7-1.2-0.8-1.9
	c-0.1-0.8-0.2-1.9-0.2-3.5V10.5c0-0.4,0.1-0.7,0.2-1c0.2-0.2,0.5-0.4,0.8-0.5V8.4H286V9c0.4,0.1,0.7,0.3,0.9,0.5
	c0.2,0.2,0.2,0.5,0.2,0.9V26c0,1.9,0.2,3.6,0.6,5c0.4,1.4,1.2,2.5,2.4,3.4c2,1.4,4,2.1,7.8,2.1c5.1,0,7.7-1.3,9.3-3.9
	c0.9-1.5,1.4-3.7,1.4-6.6V10.5c0-0.4,0.1-0.7,0.2-0.9c0.2-0.2,0.5-0.4,0.9-0.5V8.4L302.8,8.4z M110.1,24.7l0.2-0.5L110.1,24.7z
	 M127.6,21.2l-4.8-11.8c0.1,0.3,0.1,0.6,0.3,0.9L127.6,21.2z M132.4,32.8l-4.8-11.5l-4.5-10.9c-0.1-0.3-0.2-0.6-0.3-0.9l-1-2.5
	l-1.4-3.6c-0.7-0.8-1.4,0-1.4,0L117.5,7l-7.2,17.2l-0.2,0.5l-3.4,8.4c-0.3,0.8-0.6,1.4-0.9,1.7c-0.2,0.3-0.6,0.5-1.1,0.6v0.7h8.1
	v-0.7c-0.8-0.2-1.2-0.7-1.2-1.3c0-0.3,0.1-0.8,0.3-1.4l1.7-4.1h11.1l1.7,4.1c0.2,0.6,0.4,1,0.4,1.3c0,0.7-0.4,1.2-1.2,1.3v0.7h9.1
	v-0.7c-0.5-0.1-0.9-0.3-1.2-0.7C133.1,34.4,132.8,33.7,132.4,32.8L132.4,32.8z M115.3,24.6l4-10.4l4,10.4H115.3z M217.2,25.8
	L217.2,25.8l0.2-0.5L217.2,25.8z M233.2,22.7l-4.4-10.8c0.1,0.2,0.1,0.5,0.2,0.8L233.2,22.7z M237.6,33.2l-4.4-10.5l-4.2-10
	c-0.1-0.3-0.2-0.5-0.2-0.8l-0.9-2.3l-1.3-3.2c-0.6-0.8-1.3,0-1.3,0l-1.4,3.2l-6.5,15.8l-0.2,0.5l-3.1,7.7c-0.3,0.7-0.6,1.2-0.8,1.5
	c-0.2,0.3-0.6,0.4-1,0.5v0.6h7.4v-0.6c-0.7-0.2-1.1-0.6-1.1-1.2c0-0.3,0.1-0.7,0.3-1.2l1.5-3.8h10.1l1.6,3.8c0.2,0.5,0.3,1,0.3,1.2
	c0,0.7-0.4,1.1-1.1,1.2v0.6h8.3v-0.6c-0.4-0.1-0.8-0.3-1.1-0.6C238.2,34.6,237.9,34,237.6,33.2L237.6,33.2z M221.9,25.7l3.6-9.5
	l3.6,9.5H221.9z M265.3,25.8L265.3,25.8l0.2-0.5L265.3,25.8z M281.3,22.7l-4.4-10.8c0,0.2,0.1,0.5,0.2,0.8L281.3,22.7z M285.7,33.2
	l-4.4-10.5l-4.2-10c-0.1-0.3-0.2-0.5-0.2-0.8L276,9.6l-1.3-3.2c-0.7-0.8-1.3,0-1.3,0l-1.4,3.2l-6.6,15.8l-0.2,0.5l-3.1,7.7
	c-0.3,0.7-0.6,1.2-0.8,1.5c-0.2,0.3-0.6,0.4-1,0.5v0.6h7.4v-0.6c-0.7-0.2-1.1-0.6-1.1-1.2c0-0.3,0.1-0.7,0.3-1.2l1.5-3.8h10.1
	l1.5,3.8c0.2,0.5,0.3,1,0.3,1.2c0,0.7-0.4,1.1-1.1,1.2v0.6h8.3v-0.6c-0.5-0.1-0.8-0.3-1.1-0.6C286.4,34.6,286.1,34,285.7,33.2
	L285.7,33.2z M270,25.7l3.6-9.5l3.6,9.5H270z M260,28.5c-0.5,0.4-0.8,0.8-1.5,1.3c-2,1.3-4.1,2-6.4,2c-2.7,0-4.8-0.8-6.3-2.4
	c-1.9-1.9-2.8-4.3-2.8-7.3c0-3,0.9-5.4,2.8-7.3c1.6-1.6,3.7-2.4,6.3-2.4c2.3,0,4.4,0.7,6.4,2c0.1,0.1,0.2,0.1,0.3,0.2l0,0.1h0.1h0.8
	h0.2V8.3h-1c-0.2,1.2-2,0.4-2,0.4l0,0c-0.2-0.1-0.5-0.2-0.7-0.3c-1.3-0.5-2.9-0.7-4.7-0.7c-5,0-8.7,1.9-11.2,5.6
	c-1.6,2.5-2.5,5.4-2.5,8.8c0,2.5,0.4,4.7,1.4,6.8c0.8,1.8,1.9,3.3,3.3,4.5c2.4,2.1,5.4,3.1,9,3.1c1.8,0,3.4-0.2,4.8-0.7
	c0.9-0.3,2.1-0.9,3.4-1.7C259.6,34,260.5,28.1,260,28.5L260,28.5z M210.6,34.9c-0.2-0.2-0.2-0.6-0.2-1l-3.9-21.2l-0.6-3.8L205.5,7
	l-0.6-3.6c0,0-0.3-0.6-0.9-0.1L202.3,7l-0.7,1.6l-1.8,3.9l-5.4,9.5l-6.2-11.2l-0.7-1.6L186.6,7l-1.7-3.7c-0.6-0.5-0.9,0.1-0.9,0.1
	L183.4,7l-0.3,1.9l-0.3,2.1c0,0,0,0,0,0l-4.2,22.8c-0.1,0.5-0.2,0.8-0.4,1c-0.2,0.2-0.4,0.4-0.8,0.5v0.7h8v-0.7
	c-0.4-0.1-0.7-0.3-0.9-0.6c-0.2-0.2-0.2-0.6-0.2-1l2.4-15.8l7.9,15l7.8-14.9l2,15.7c0,0.4-0.1,0.8-0.2,1c-0.2,0.2-0.5,0.4-0.9,0.5
	v0.7h8.4v-0.7C211,35.3,210.7,35.1,210.6,34.9L210.6,34.9z M169.9,35c-0.2-0.2-0.4-0.4-0.6-0.8c-0.1-0.1-0.1-0.2-0.2-0.3
	c0,0-0.1-0.1-0.1-0.1l-4.5-8.3l-1.1-1.9c0.7-0.3,1.3-0.6,1.9-1c1.9-1.4,3.2-3.7,3.2-6.3c0-4-3.1-7.3-7-7.7c-0.3,0-0.5-0.1-0.8-0.1
	h-4c-0.3,0-0.5,0-0.8,0.1H149v0.6c0.4,0.1,0.7,0.3,0.9,0.5c0.2,0.2,0.2,0.5,0.2,1v1.8V14v5.9v0.2v14.1c0,0.4-0.1,0.7-0.2,0.9
	c-0.2,0.2-0.5,0.4-0.9,0.5v0.6h7.2v-0.6c-0.4-0.1-0.7-0.3-0.9-0.5c-0.2-0.2-0.2-0.5-0.2-0.9v-7.8h0v-2.5v-2.7v-1.2h0v-6.8h5.4
	c0.1,0,0.3,0.1,0.5,0.1c1.2,0.7,2,2.1,2,3.6c0,2.4-1.9,4.3-4.3,4.3l-2.6,0l1.6,2.9l5.2,9.1c1.7,3,4.1,3.1,4.1,3.1l4.2,0h1
	C171.8,36.2,170.3,35.4,169.9,35L169.9,35z"/>
<path fill="#9CA3AF" d="M133.1,71.8h12.8l0.8-1.7h-15.8c0,0,1-1.2,1.3-1.6l-6.7-1.4c0,0-0.7,2.2-0.8,3.1h-10.6v1.7h9.7
	c-0.9,1.6-1.4,2.6-2.8,3.9c-1.4,1.3-3,2.2-4.4,3.1c-1.4,0.8-3.7,1.3-4,1.5l0,0.6c1.7-0.1,5.2,0,9.4-1.7c1.8-0.7,5.2-2,7.8-6.4
	c0.5,0.9,1.5,2.5,1.9,3.2c0.4,0.7,3,3.2,5.7,4c0.8,0.2,3.7,1.5,5.2,0.8c0.8-0.3,0.4-1.9,1.4-2.7c0.7-0.5,1.4-1,2.4-1.2l0-0.5
	c-4.6-0.5-6.4-0.9-8.9-1.8C135.6,73.8,133.4,72.5,133.1,71.8L133.1,71.8z M107.5,48.1c0,0-0.4-0.7,0.3-0.7c0.7,0,4.5,0.9,6.2,2.2
	c1.7,1.3,1.8,3,0.9,4.7c-0.9,1.7-1.3,1.7-1.3,1.7s-0.5,0.8-1.4-0.3C111.3,54.7,110.7,51.5,107.5,48.1L107.5,48.1z M104.1,56.9
	c0,0-0.3-0.8,0.6-0.7c0.9,0.1,4,0.6,5.9,2c1.9,1.3,2.2,3.1,1,5c0,0-1.8,3.2-2.6,1.1C108.8,64.3,107.4,60.3,104.1,56.9L104.1,56.9z
	 M104.6,69.1c0,0-0.9-1.2,0.7-1c0,0,1.7,0.3,2.6,0.7c0,0,1.5,0.8,2.5-1.1l6.2-11.7l0.5,1.2l-3.9,13c0,0-0.8,2.5-0.1,4.6
	c0,0,0.8,3.2-1.7,5.4c0,0-1.2,1.6-1.9-0.7C109.6,79.6,108,72.8,104.6,69.1z M136.4,66C136.3,66.1,136.4,66,136.4,66z M144.9,51.1
	l-1.2,0l-13.8,0v0l0.2-1.2c0.3-0.4,1.8-1.6,1.8-1.6l0.2-0.7l-7.4,0c0.1,2.7,0.1,2.7,0,3.5h-2.9l-5.6-1.6v19.7l5.6-1v-1.2
	c1.3-0.2,3.7-1.1,5.7-3.6v3.3l4.5-0.4v-3.8c1.6,1.6,3,3.3,3,3.3c1.3,2.7,2.4,0.2,2.4,0.2c0.1-0.2,0.2-0.4,0.3-0.6v3.6l5.7-1V53.2
	c0.4-0.3,1.2-1,1.4-1.3C145,51.8,144.9,51.1,144.9,51.1L144.9,51.1z M121.8,65.6v-4.5h2.7C124.4,61.8,124,63.9,121.8,65.6z
	 M121.8,59.8v-3.5c1.4,1,2.2,2.4,2.9,3.5H121.8z M127.6,58.4c-1.4-2.8-4.9-2.3-5.7-2.2v-0.5l5.7-0.2V58.4z M121.8,55v-2h8.7
	C128.2,53.7,124.5,54.7,121.8,55z M132.1,59.1v-3.8l2.6-0.1C133.7,57.4,132.7,58.5,132.1,59.1z M137.8,64.3c-0.7-2-4.4-2.8-5.4-3
	v-0.2h5.4V64.3z M137.8,59.9h-4.1c1.2-0.6,3.1-1.8,4.1-2.4V59.9z M137.8,56.8l-2.8-1.7l1.8-0.1c0,0,1,0.1,0.1-0.9
	c-0.3-0.4-0.6-0.8-0.9-1.2h1.8L137.8,56.8z M167.5,49.1l-6-1.3v32.8h6v-18h5.1v2l5.3-1.2V49.1L167.5,49.1z M172.6,59.8v0.9h-5.1
	v-0.9v-3h4.3h0.8V59.8z M172.6,51.4v3v0.4h-5.1v-0.4v-3V51h5.1V51.4z M199.2,49.1L199.2,49.1h-12.1l-6.1-1.3v16.6l5.3-1.2v-0.6h5.6
	v12.1h0c0,0,0.2,1.1-0.5,1.1c-0.7,0-8.3-0.5-8.3-0.5l-0.1,0.5c0,0,3.7,2.2,4.9,3.5c0,0,0.5,2,2.7,2c0,0,2.1,0,4.1-0.8
	c1.7-0.8,3.4-2.2,3.4-5.1V51.7c0.4-1.1,2-2.1,2-2.1l0.1-0.5L199.2,49.1L199.2,49.1z M191.9,59.8v0.9h-5.6v-0.9v-3h5.6V59.8z
	 M191.9,51.4v3v0.4h-5.6v-0.4v-3V51h5.6V51.4z M253.7,75.6c0,0-1.6-1.2-1.7-4.6c0,0-0.3-0.4-0.8,0c0,0-0.4,3.4-1,4.4
	c0,0-0.5,0.6-0.9,0.1c-0.2-0.2-0.3-0.5-0.3-0.9V59.6c0.3-1.2,2.1-2.3,2.1-2.3l0-0.7h-1.1l0,0h-6.5l0,0l-2.9,0l-5.1-1.1v9.9
	c0,1.1,0,2.4,0,3.6c0,0.1,0,0.2,0,0.3c-0.1,1.3-0.9,8.3-4.5,11c0,0-0.6,0.6,0,0.7c0.6,0.1,9.8-1.4,9.5-13.1c0-0.7,0.1-1.3,0.1-2
	v-7.5h3l0,17.2c0,0-0.4,4.1,3.6,4.4h4c0,0,2.1,0,3-2.8C254.3,77.3,254.6,76.1,253.7,75.6L253.7,75.6z M253.8,54.6l0.9-2.1h-9.8
	c0-0.3,0-0.7,0.1-1.4c0.1-1.7,2.1-2.4,2.1-2.4V48h-7.5v4.5h-14.3v-1.1c0-2,2-2.7,2-2.7V48H220v4.6l-3.9-0.8v10.8h-3.3v1.9h3.3v4.2
	c0,0-0.6,6.3-2.2,9.2c0,0-1.1,2.1-1.5,2.5c0,0-0.5,1,0.7,0.6c0,0,5.9-1.8,7.5-8.9c0.2-0.6,0.2-1.1,0.3-1.6c0.1-0.7,0.1-1.6,0.2-2.5
	l0.1-1.3c1.1,1.3,1.8,5,1.8,5c0.1,1.3,1.2,0.7,1.2,0.7c1.3-0.8,1.9-1.6,2.2-2.1v4.6l-0.1,0.9c0,0-0.2,0.7-1,0.7c-0.8,0-4.5,0-4.5,0
	s-0.2,0.2,0,0.4c0,0,2.3,1.5,2.7,3.1c0,0,0.5,1.4,1.7,1.2c0,0,5.8-0.2,5.9-5.9c0,0,0-10.7,0-10.7h2.8l0.4-1.9H231l0-8.1L253.8,54.6
	L253.8,54.6z M226.3,54.7v3.2c-0.9-1.2-3.7-2.6-5-3.2H226.3z M221.1,56.8c1.3,1.7,1.7,4.4,1.7,4.4c0.2,0.4,0.2,1.4,1.1,0.8
	c0.6-0.4,1.8-1.2,2.4-2.2v2.9h-5.2V56.8z M221.1,65v-0.5h5.2v4C225.4,66.7,222.2,65.4,221.1,65z M284,70.9h-10.7v-2.4h29.2v2.4
	h-11.3v7.3h17.3l-0.9,2.1h-40v-2.1H284L284,70.9L284,70.9z M309,52.4h-18.7v-1.7c0.2-1.3,2.1-1.9,2.1-1.9c0.3-0.4,0-0.8,0-0.8h-7.5
	v4.4h-11.4l-5-1.4v9.9l5.7-1v-5.4h27.3v5.2l5.5-0.7v-3.7c0,0,0.6-1.6,2-1.9C308.9,53.2,309.3,52.9,309,52.4L309,52.4z M279.5,55.3
	c0,0-2.1,8.9-10.5,11.1c0,0-0.2,0.8,0.2,0.8c0,0,11.7,0.7,15.2-8.1c0,0,0.5-1.6,1.8-1.3c0,0,0.3-0.6,0.1-0.8L279.5,55.3z
	 M297.2,56.1l-7.8,0v7.2c0,0,0.1,4,3.6,4h9.3c0,0,3-0.1,4.1-4.1c0,0-2.8-0.5-3.2-3.5l-1.1,3c0,0-0.1,0.3-0.6,0.3h-6
	c0,0-0.4-0.1-0.4-0.4v-4.2c0,0,0.7-1.5,2.1-1.7C297.2,56.7,297.5,56.2,297.2,56.1L297.2,56.1z"/>
</svg>
