<?xml version="1.0" encoding="utf-8"?>
<!-- Generator: Adobe Illustrator 26.1.0, SVG Export Plug-In . SVG Version: 6.00 Build 0)  -->
<svg version="1.1" id="Layer_1" xmlns="http://www.w3.org/2000/svg" xmlns:xlink="http://www.w3.org/1999/xlink" x="0px" y="0px"
	 width="220px" height="50px" viewBox="0 0 220 50" enable-background="new 0 0 220 50" xml:space="preserve">
<path fill="#9CA3AF" d="M34.8,49.1h8.8V12.2h-8.8V49.1z M34.8,8.8h8.8V0h-8.8V8.8z M56.3,49.1h-8.8V12.2h8.6v6.9
	c2.8-4,6.7-7.6,12.1-7.6c1,0,1.6,0,2.1,0.2V20c-0.7-0.2-2.1-0.2-2.6-0.2c-4,0-11.2,3.8-11.2,11.2v18.1L56.3,49.1z M72.5,49.1V0h15.8
	c4.1,0,18.3,0,18.3,12.1c0,8.3-6.4,10.5-9.8,11.6c3.8,1,10.9,2.9,10.9,12.1c0,7.4-5.7,13.4-18.3,13.4H72.5z M81.8,20h6.5
	c8.4,0,9.1-5,9.1-6.7c0-6.2-6.4-6.2-8.3-6.2H82V20H81.8z M81.8,41.9h5.9c6.2,0,10.7-2.1,10.7-7.2c0-3.4-1.9-7.4-10-7.4H82v14.7H81.8
	z M132.7,49.1l-1-4c-2.2,1.9-5.7,4.7-11.2,4.7c-6.5,0-11.4-4.3-11.4-10.2c0-3.8,1.4-8.3,9.5-11l10.7-3.6c1.6-0.5,1.6-0.5,1.6-1.6
	v-1.6c0-3.1-2.8-4-6.2-4c-5.9,0-11.2,3.6-13.3,5v-7.6c2.4-1.4,6.9-3.8,14.6-3.8c11.5,0,13.8,5.7,13.8,12.8v25h-7.1V49.1z M123,33.4
	c-3.8,1.4-5,3.1-5,5.7c0,3.6,3.3,4.5,4.8,4.5c1.4,0,4.5-0.5,8.1-4.1v-9.1c-0.5,0.3-0.7,0.5-2.2,1L123,33.4z M23.6,49.1l-1-3.8
	c-2.2,1.9-5.7,4.7-11.2,4.7C4.8,50,0,45.7,0,39.8c0-3.8,1.4-8.3,9.5-11l10.7-3.6c1.6-0.5,1.7-0.5,1.7-1.6v-1.6c0-3.1-2.8-4-6.4-4
	c-5.9,0-11.2,3.6-13.3,5v-7.6c2.4-1.4,6.9-3.8,14.6-3.8c11.5,0,13.8,5.7,13.8,12.8v25h-7.1V49.1z M14,33.4c-3.8,1.4-5,3.1-5,5.7
	c0,3.6,3.3,4.5,4.8,4.5c1.4,0,4.5-0.5,8.1-4.1v-9.1c-0.5,0.3-0.7,0.5-2.2,1L14,33.4z M143.2,0h8.8v49.1h-8.8V0z M159.7,19h-5.5v-6.7
	h5.5V0h8.8v12.2h6.7V19h-6.7v19.1c0,2.8,0.3,5.2,4.5,5.2c1,0,1.9-0.2,2.6-0.3v6.7c-1.2,0.2-2.4,0.3-4.1,0.3c-9.8,0-11.7-5-11.7-11.4
	L159.7,19z M178.7,0h8.8v8.8h-8.8V0z M178.7,12.2h8.8v37.1h-8.8V12.2z M219.3,22.2c-1.7-1.6-4.7-3.8-9.6-3.8
	c-7.6,0-10.7,6.4-10.7,12.4c0,2.6,0.7,12.4,10.3,12.4c5,0,8.3-2.2,10.7-4v7.8c-1.7,0.9-5.7,2.9-12.1,2.9c-12.6,0-17.9-9.5-17.9-19.3
	c0-10.3,5.7-19.3,18.3-19.3c6,0,9.3,1.9,10.9,2.8v8.1L219.3,22.2z"/>
</svg>
