<?xml version="1.0" encoding="utf-8"?>
<!-- Generator: Adobe Illustrator 26.1.0, SVG Export Plug-In . SVG Version: 6.00 Build 0)  -->
<svg version="1.1" id="Layer_1" xmlns="http://www.w3.org/2000/svg" xmlns:xlink="http://www.w3.org/1999/xlink" x="0px" y="0px"
	 width="145px" height="33px" viewBox="0 0 145 33" enable-background="new 0 0 145 33" xml:space="preserve">
<path fill="#9CA3AF" d="M90.8,31.8h-0.4l-1.2-2.4v2.4h-0.3v-2.8h0.5l1.1,2.2v-2.2h0.3V31.8z M94.1,30.7c0-0.3-0.1-0.5-0.1-0.6
	c-0.1-0.1-0.2-0.2-0.4-0.2c-0.2,0-0.3,0.1-0.4,0.2c-0.1,0.1-0.2,0.3-0.2,0.6c0,0.3,0.1,0.5,0.2,0.6c0.1,0.1,0.2,0.2,0.4,0.2
	c0.2,0,0.3-0.1,0.4-0.2C94,31.2,94.1,31,94.1,30.7 M94.4,30.7c0,0.4-0.1,0.6-0.3,0.8c-0.2,0.2-0.4,0.3-0.7,0.3
	c-0.3,0-0.5-0.1-0.7-0.3c-0.2-0.2-0.3-0.5-0.3-0.8c0-0.4,0.1-0.6,0.3-0.8c0.2-0.2,0.4-0.3,0.7-0.3c0.3,0,0.5,0.1,0.7,0.3
	C94.3,30.1,94.4,30.4,94.4,30.7 M97.8,31.8h-0.4v-0.2c-0.1,0.1-0.2,0.2-0.3,0.2c-0.1,0.1-0.2,0.1-0.3,0.1c-0.1,0-0.2,0-0.3,0
	c-0.1,0-0.2-0.1-0.2-0.1c-0.1-0.1-0.1-0.1-0.1-0.2c0-0.1-0.1-0.2-0.1-0.4v-1.4h0.4v1.2c0,0.1,0,0.2,0,0.3c0,0.1,0,0.1,0.1,0.2
	c0,0.1,0.1,0.1,0.1,0.1c0.1,0,0.1,0,0.2,0c0.1,0,0.2,0,0.3-0.1c0.1-0.1,0.2-0.1,0.3-0.2v-1.6h0.4C97.8,29.6,97.8,31.8,97.8,31.8z
	 M101.3,29.6l-0.8,2.1h-0.3l-0.8-2.1h0.4l0.6,1.6l0.6-1.6H101.3z M104.2,30.5c0-0.1,0-0.2,0-0.2c0-0.1,0-0.1-0.1-0.2
	c0-0.1-0.1-0.1-0.2-0.1c-0.1,0-0.1,0-0.2,0c-0.1,0-0.2,0-0.2,0c-0.1,0-0.1,0.1-0.2,0.1c-0.1,0.1-0.1,0.1-0.1,0.2
	c0,0.1,0,0.1-0.1,0.2H104.2z M103.8,31.8c-0.3,0-0.6-0.1-0.8-0.3c-0.2-0.2-0.3-0.5-0.3-0.8c0-0.3,0.1-0.6,0.3-0.8
	c0.2-0.2,0.4-0.3,0.7-0.3c0.1,0,0.2,0,0.3,0.1c0.1,0,0.2,0.1,0.3,0.2s0.1,0.2,0.2,0.3c0,0.1,0.1,0.3,0.1,0.4v0.2h-1.5
	c0,0.2,0.1,0.4,0.2,0.6c0.1,0.1,0.3,0.2,0.5,0.2c0.1,0,0.2,0,0.2,0c0.1,0,0.1,0,0.2-0.1c0.1,0,0.1-0.1,0.2-0.1c0,0,0.1-0.1,0.1-0.1
	h0v0.4c0,0-0.1,0-0.2,0.1c-0.1,0-0.1,0-0.2,0.1c-0.1,0-0.1,0-0.2,0C104,31.8,103.9,31.8,103.8,31.8 M106.3,28.8h0.4v2.9h-0.4V28.8z
	 M108.5,28.8h0.4v2.9h-0.4V28.8z M112.1,30.5c0-0.1,0-0.2,0-0.2c0-0.1-0.1-0.1-0.1-0.2c0-0.1-0.1-0.1-0.2-0.1c-0.1,0-0.1,0-0.2,0
	c-0.1,0-0.2,0-0.2,0c-0.1,0-0.1,0.1-0.2,0.1c-0.1,0.1-0.1,0.1-0.1,0.2c0,0.1,0,0.1-0.1,0.2H112.1z M111.6,31.8
	c-0.3,0-0.6-0.1-0.8-0.3c-0.2-0.2-0.3-0.5-0.3-0.8c0-0.3,0.1-0.6,0.3-0.8c0.2-0.2,0.4-0.3,0.7-0.3c0.1,0,0.2,0,0.3,0.1
	c0.1,0,0.2,0.1,0.3,0.2c0.1,0.1,0.1,0.2,0.2,0.3c0,0.1,0.1,0.3,0.1,0.4v0.2h-1.5c0,0.2,0.1,0.4,0.2,0.6c0.1,0.1,0.3,0.2,0.5,0.2
	c0.1,0,0.2,0,0.2,0c0.1,0,0.1,0,0.2-0.1c0.1,0,0.1-0.1,0.2-0.1s0.1-0.1,0.1-0.1h0v0.4c0,0-0.1,0-0.2,0.1c-0.1,0-0.1,0-0.2,0.1
	c-0.1,0-0.1,0-0.2,0C111.8,31.8,111.7,31.8,111.6,31.8 M114,30.4h1.1v0.3H114V30.4z M118,31.8c-0.2,0-0.4,0-0.5-0.1
	c-0.2-0.1-0.3-0.2-0.4-0.3c-0.1-0.1-0.2-0.3-0.3-0.5c-0.1-0.2-0.1-0.4-0.1-0.6c0-0.2,0-0.4,0.1-0.6c0.1-0.2,0.1-0.3,0.3-0.5
	c0.1-0.1,0.2-0.2,0.4-0.3c0.2-0.1,0.3-0.1,0.5-0.1c0.1,0,0.2,0,0.3,0c0.1,0,0.2,0,0.2,0.1c0.1,0,0.1,0,0.2,0.1
	c0.1,0,0.1,0.1,0.2,0.1v0.5h0c0,0-0.1-0.1-0.1-0.1c-0.1,0-0.1-0.1-0.2-0.1c-0.1,0-0.2-0.1-0.2-0.1c-0.1,0-0.2,0-0.3,0
	c-0.1,0-0.2,0-0.3,0.1c-0.1,0-0.2,0.1-0.3,0.2s-0.1,0.2-0.2,0.4c0,0.1-0.1,0.3-0.1,0.5c0,0.2,0,0.4,0.1,0.5c0,0.1,0.1,0.3,0.2,0.4
	c0.1,0.1,0.2,0.2,0.3,0.2c0.1,0,0.2,0.1,0.3,0.1c0.1,0,0.2,0,0.3,0c0.1,0,0.2-0.1,0.2-0.1c0.1,0,0.1-0.1,0.2-0.1
	c0.1,0,0.1-0.1,0.1-0.1h0v0.4c-0.1,0-0.1,0.1-0.2,0.1c-0.1,0-0.1,0.1-0.2,0.1c-0.1,0-0.2,0-0.2,0.1C118.2,31.8,118.1,31.8,118,31.8
	 M121.7,31.2v-0.6c-0.1,0-0.2,0-0.3,0c-0.1,0-0.2,0-0.3,0.1c-0.1,0-0.2,0.1-0.2,0.1c-0.1,0.1-0.1,0.1-0.1,0.3c0,0.1,0,0.2,0.1,0.3
	s0.2,0.1,0.3,0.1c0.1,0,0.2,0,0.3-0.1C121.5,31.4,121.6,31.3,121.7,31.2 M121.7,31.5c0,0-0.1,0.1-0.1,0.1c0,0-0.1,0.1-0.1,0.1
	c-0.1,0-0.1,0.1-0.2,0.1c-0.1,0-0.1,0-0.2,0c-0.1,0-0.2,0-0.2,0c-0.1,0-0.1-0.1-0.2-0.1c-0.1-0.1-0.1-0.1-0.1-0.2
	c0-0.1-0.1-0.2-0.1-0.3c0-0.1,0-0.3,0.1-0.4c0.1-0.1,0.2-0.2,0.3-0.2c0.1-0.1,0.3-0.1,0.4-0.1c0.2,0,0.3,0,0.5,0v-0.1
	c0-0.1,0-0.1,0-0.2c0,0-0.1-0.1-0.1-0.1c0,0-0.1,0-0.2-0.1c-0.1,0-0.1,0-0.2,0c-0.1,0-0.2,0-0.3,0c-0.1,0-0.2,0.1-0.3,0.1h0v-0.4
	c0.1,0,0.2,0,0.3-0.1c0.1,0,0.2,0,0.4,0c0.1,0,0.3,0,0.4,0c0.1,0,0.2,0.1,0.3,0.1c0.1,0.1,0.1,0.1,0.2,0.2c0,0.1,0.1,0.2,0.1,0.3
	v1.4h-0.4L121.7,31.5L121.7,31.5z M123.9,28.8h0.4v2.9h-0.4V28.8z M127.5,28.6l-0.5,0.7h-0.3l0.3-0.7H127.5z M127.4,30.5
	c0-0.1,0-0.2,0-0.2c0-0.1,0-0.1-0.1-0.2c0-0.1-0.1-0.1-0.2-0.1c-0.1,0-0.1,0-0.2,0c-0.1,0-0.2,0-0.2,0c-0.1,0-0.1,0.1-0.2,0.1
	c-0.1,0.1-0.1,0.1-0.1,0.2c0,0.1,0,0.1-0.1,0.2H127.4z M127,31.8c-0.3,0-0.6-0.1-0.8-0.3c-0.2-0.2-0.3-0.5-0.3-0.8
	c0-0.3,0.1-0.6,0.3-0.8c0.2-0.2,0.4-0.3,0.7-0.3c0.1,0,0.2,0,0.3,0.1c0.1,0,0.2,0.1,0.3,0.2c0.1,0.1,0.1,0.2,0.2,0.3
	c0,0.1,0.1,0.3,0.1,0.4v0.2h-1.5c0,0.2,0.1,0.4,0.2,0.6c0.1,0.1,0.3,0.2,0.5,0.2c0.1,0,0.2,0,0.2,0c0.1,0,0.1,0,0.2-0.1
	c0.1,0,0.1-0.1,0.2-0.1c0,0,0.1-0.1,0.1-0.1h0v0.4c0,0-0.1,0-0.2,0.1c-0.1,0-0.1,0-0.2,0.1c-0.1,0-0.1,0-0.2,0
	C127.2,31.8,127.1,31.8,127,31.8 M130.8,31.3V30c-0.1,0-0.2-0.1-0.2-0.1c-0.1,0-0.1,0-0.2,0c-0.2,0-0.3,0.1-0.4,0.2
	c-0.1,0.1-0.2,0.3-0.2,0.6c0,0.2,0,0.4,0.1,0.6c0.1,0.1,0.2,0.2,0.4,0.2c0.1,0,0.2,0,0.3-0.1S130.7,31.3,130.8,31.3 M131.1,31.8
	h-0.4v-0.2c-0.1,0-0.1,0.1-0.1,0.1c0,0-0.1,0.1-0.1,0.1c-0.1,0-0.1,0-0.2,0.1c-0.1,0-0.1,0-0.2,0c-0.1,0-0.2,0-0.3-0.1
	c-0.1,0-0.2-0.1-0.2-0.2c-0.1-0.1-0.1-0.2-0.2-0.3s-0.1-0.3-0.1-0.5c0-0.2,0-0.3,0.1-0.5c0-0.1,0.1-0.3,0.2-0.4
	c0.1-0.1,0.2-0.2,0.3-0.2c0.1-0.1,0.2-0.1,0.3-0.1c0.1,0,0.2,0,0.3,0c0.1,0,0.2,0.1,0.2,0.1v-0.9h0.4L131.1,31.8L131.1,31.8z
	 M134.3,30.7c0-0.3-0.1-0.5-0.1-0.6c-0.1-0.1-0.2-0.2-0.4-0.2c-0.2,0-0.3,0.1-0.4,0.2c-0.1,0.1-0.1,0.3-0.1,0.6
	c0,0.3,0.1,0.5,0.1,0.6c0.1,0.1,0.2,0.2,0.4,0.2c0.2,0,0.3-0.1,0.4-0.2C134.3,31.2,134.3,31,134.3,30.7 M134.7,30.7
	c0,0.4-0.1,0.6-0.3,0.8c-0.2,0.2-0.4,0.3-0.7,0.3c-0.3,0-0.5-0.1-0.7-0.3c-0.2-0.2-0.3-0.5-0.3-0.8c0-0.4,0.1-0.6,0.3-0.8
	c0.2-0.2,0.4-0.3,0.7-0.3s0.5,0.1,0.7,0.3C134.6,30.1,134.7,30.4,134.7,30.7 M138.1,31.8h-0.4v-1.2c0-0.1,0-0.2,0-0.3
	c0-0.1,0-0.2-0.1-0.2c0-0.1-0.1-0.1-0.1-0.1c-0.1,0-0.1,0-0.2,0c-0.1,0-0.2,0-0.3,0.1c-0.1,0-0.2,0.1-0.3,0.2v1.6h-0.4v-2.1h0.4v0.2
	c0.1-0.1,0.2-0.2,0.3-0.2c0.1,0,0.2-0.1,0.3-0.1c0.2,0,0.4,0.1,0.5,0.2c0.1,0.1,0.2,0.3,0.2,0.6V31.8z M139.9,31.8h0.4v-2.1h-0.4
	V31.8z M139.9,29.3h0.4v-0.4h-0.4V29.3z M143.5,30.5c0-0.1,0-0.2,0-0.2c0-0.1,0-0.1-0.1-0.2c0-0.1-0.1-0.1-0.2-0.1
	c-0.1,0-0.1,0-0.2,0c-0.1,0-0.2,0-0.2,0c-0.1,0-0.1,0.1-0.2,0.1c-0.1,0.1-0.1,0.1-0.1,0.2c0,0.1,0,0.1-0.1,0.2H143.5z M143.1,31.8
	c-0.3,0-0.6-0.1-0.8-0.3c-0.2-0.2-0.3-0.5-0.3-0.8c0-0.3,0.1-0.6,0.3-0.8c0.2-0.2,0.4-0.3,0.7-0.3c0.1,0,0.2,0,0.4,0.1
	c0.1,0,0.2,0.1,0.3,0.2s0.1,0.2,0.2,0.3c0,0.1,0.1,0.3,0.1,0.4v0.2h-1.5c0,0.2,0.1,0.4,0.2,0.6c0.1,0.1,0.3,0.2,0.5,0.2
	c0.1,0,0.2,0,0.2,0s0.1,0,0.2-0.1c0.1,0,0.1-0.1,0.2-0.1s0.1-0.1,0.1-0.1h0v0.4c0,0-0.1,0-0.2,0.1c-0.1,0-0.1,0-0.2,0.1
	c-0.1,0-0.1,0-0.2,0C143.2,31.8,143.1,31.8,143.1,31.8"/>
<path fill="#9CA3AF" d="M42.9,17.7L42.2,13l-3.4,4.7L42.9,17.7z M29.8,23.2L40.6,8.9l5.6,0l2.9,14.3l-5.3,0l-0.5-2.9l-6.4,0
	l-2.1,2.9C34.9,23.2,29.8,23.2,29.8,23.2z M60.1,10.9h-4.8L56,8.3l4.8,0L60.1,10.9z M56.7,23.2h-4.8l3-10.8l4.8,0L56.7,23.2z
	 M73.9,15.6h-0.4c-0.2,0-0.4-0.1-0.8-0.1c-0.3,0-0.7,0-1.1,0c-0.5,0-1,0.1-1.6,0.2s-1.1,0.2-1.7,0.4l-2,7.2h-4.8l3-10.8l4.8,0
	L68.8,14c0.3-0.1,0.6-0.3,1.1-0.5c0.4-0.2,0.8-0.4,1.2-0.5c0.4-0.1,0.8-0.3,1.3-0.4c0.5-0.1,0.9-0.2,1.3-0.2c0.2,0,0.3,0,0.5,0
	c0.2,0,0.4,0,0.5,0L73.9,15.6z M82.2,23.5c-1.3,0-2.4-0.1-3.4-0.3c-1-0.2-1.8-0.6-2.5-1c-0.6-0.5-1.1-1.1-1.3-1.8
	c-0.2-0.7-0.2-1.5,0-2.5c0.3-1,0.8-1.9,1.4-2.6c0.7-0.7,1.5-1.3,2.4-1.8c0.9-0.4,1.9-0.8,3-1c1.1-0.2,2.2-0.3,3.3-0.3
	c0.8,0,1.7,0.1,2.5,0.2c0.8,0.1,1.6,0.4,2.4,0.7l-0.8,2.9h-0.6c-0.2-0.1-0.4-0.3-0.6-0.4c-0.2-0.2-0.5-0.3-0.8-0.4
	c-0.3-0.1-0.7-0.2-1.1-0.3c-0.4-0.1-0.9-0.1-1.4-0.1c-1.2,0-2.3,0.3-3.1,0.9c-0.8,0.6-1.4,1.4-1.7,2.4c-0.3,1.1-0.2,1.9,0.4,2.4
	c0.6,0.5,1.4,0.8,2.6,0.8c0.6,0,1.1,0,1.6-0.1c0.5-0.1,0.9-0.2,1.3-0.3c0.4-0.1,0.7-0.3,0.9-0.4c0.3-0.1,0.5-0.3,0.7-0.4h0.6
	l-0.8,2.9c-0.3,0.1-0.6,0.2-1,0.3c-0.4,0.1-0.8,0.2-1.2,0.3c-0.5,0.1-0.9,0.2-1.4,0.2C83.4,23.5,82.8,23.5,82.2,23.5 M99.8,20.4
	l0.6-2.2c-0.8,0.1-1.5,0.1-2,0.1c-0.5,0-1,0.1-1.5,0.2c-0.4,0.1-0.8,0.3-1.1,0.5c-0.3,0.2-0.5,0.5-0.6,0.8c-0.1,0.5,0,0.9,0.3,1
	c0.3,0.2,0.9,0.3,1.6,0.3c0.4,0,0.9-0.1,1.3-0.2S99.4,20.6,99.8,20.4 M99.3,22.1c-0.4,0.2-0.7,0.4-1,0.5c-0.3,0.2-0.7,0.3-1.2,0.5
	c-0.5,0.1-0.9,0.3-1.3,0.3c-0.4,0.1-1,0.1-1.7,0.1c-1.4,0-2.4-0.3-3.1-1c-0.7-0.6-0.9-1.4-0.7-2.4c0.2-0.8,0.6-1.4,1.2-1.9
	c0.6-0.5,1.4-0.9,2.3-1.2c0.9-0.3,2-0.5,3.3-0.6c1.2-0.1,2.6-0.2,4-0.3l0-0.1c0.2-0.6,0-1-0.6-1.2c-0.6-0.2-1.5-0.3-2.7-0.3
	c-0.6,0-1.2,0.1-2,0.2c-0.8,0.1-1.6,0.3-2.4,0.6h-0.4l0.7-2.6c0.5-0.1,1.3-0.2,2.4-0.3c1.1-0.1,2.2-0.2,3.3-0.2
	c2.6,0,4.5,0.3,5.5,0.9c1,0.6,1.4,1.6,1,2.8l-2,7.3l-4.8,0L99.3,22.1z M113.2,23.2h-4.8l4.1-15l4.8,0L113.2,23.2z M126.1,10.9
	l-4.8,0l0.7-2.6l4.8,0L126.1,10.9z M122.7,23.2l-4.8,0l3-10.8h4.8L122.7,23.2z M141.9,23.2l-4.8,0l1.5-5.4c0.1-0.4,0.2-0.9,0.3-1.3
	c0.1-0.4,0.1-0.8,0-1c-0.1-0.2-0.3-0.4-0.6-0.5c-0.3-0.1-0.7-0.2-1.2-0.2c-0.4,0-0.8,0.1-1.2,0.2c-0.4,0.1-0.9,0.3-1.4,0.5l-2.1,7.6
	l-4.8,0l3-10.8h4.8l-0.3,1.2c0.9-0.5,1.8-0.8,2.6-1.1c0.8-0.3,1.7-0.4,2.6-0.4c1.6,0,2.7,0.3,3.3,1c0.6,0.7,0.8,1.7,0.4,3
	L141.9,23.2z"/>
<path fill="#9CA3AF" d="M29.3,26.1c0,0,57.8-0.9,114.7-0.1C144,26,84.8,27.1,29.3,26.1"/>
<path fill="#9CA3AF" d="M10.3,15.5c0,0-1.4-6,1.9-7c3.3-1,3.8,0.5,3.8,0.5L16,9.8l0.9-0.4l0.2,1.2c0,0,2.5-0.4,2.2,0.7
	c-0.3,1.1-4.6,2.2-5.2,4.7c0,0,6.5-4.4,9.6-3.5c3,0.9,1.8,2.2,1.8,2.2l0.7,0.5l-0.8,0.7l1.4,2.5c0,0,0,2.5-3.8,3.8l-5-2.5
	c0,0,4.7,3.6,3.2,6.3c-1.5,2.7-3.1,1.5-3.1,1.5l-0.8-1.3l-0.6,1.1l-0.6-0.4c0,0-4.1,1.3-4.5,1.1c-0.4-0.2-0.9-3.8,0.4-5.6
	c1.3-1.8-0.1,0.2-0.1,0.2S8.8,24.2,7.5,27c-1.3,2.7-3.7-0.5-3.7-0.5l0.2-1l-0.6,0l-1.8-0.6c0,0-1.6-4.6,0.6-6.9
	c2.3-2.2,1.7-1.2,1.7-1.2l-0.5-1.2l1.1,0.2c0,0,1.1-3.3,1.9-3.4c0.7-0.1,3.2,5.6,5.3,6C13.7,18.8,10.5,16.7,10.3,15.5"/>
<path fill="#9CA3AF" d="M23.9,7.9c-0.2-0.3-0.8-0.2-1.3,0.3c-0.1,0.1-0.2,0.2-0.3,0.4c0-0.2,0-0.3,0-0.4c-0.2-0.3-0.6-0.2-1.1,0.3
	c-0.4,0.4-0.7,1-0.5,1.2c0.2,0.3,0.6,0.2,1.1-0.3c0.1-0.1,0.1-0.2,0.2-0.2c0,0.1-0.1,0.2-0.1,0.3c-3.3,4.9-6.2,7.6-7.4,8.7
	c-0.3-0.6-1.2-2.3-1.8-3.4c0.3,1.5,0.4,4.6,0.4,4.6l-2-0.2c0,0,0.2,0.9-0.3,0.7c-0.5-0.2-2.1-1.4-2.3-1c-0.2,0.4,1.9,1.2,0.7,1
	c-1.2-0.1-3.3,1.2-3.3,1.2c3.4-0.5,4.2-0.5,4.2-0.5l2,0c0.1,0.7,1.2,0.9,1.6,0.9c0.4,0.1,0.3-1.3,0.8-0.8c0.5,0.5,1.3,2.9,1.3,2.9
	c0.1-0.6-0.4-3.3-0.4-3.3s0.5,0.7,0.8,1c0.3,0.3,0.9,0,0.9-0.9c0-0.9-1.9-1-1-1.8c0.9-0.8,3,0.7,3.3,0.3c0.3-0.4-0.6-1.5-0.6-1.5
	c0.3-0.1,3.8-1.4,3.8-1.4c-1.6,0-5,1.2-6.8,1.9c1.3-2,4-5.1,6-7.2c0,0.1,0,0.2,0,0.3c0.2,0.3,0.6,0.2,1.1-0.3c0.4-0.4,0.7-1,0.5-1.2
	c0,0,0,0-0.1-0.1C23.8,8.8,24.1,8.2,23.9,7.9 M25.8,3.1c0.4-0.4,0.7-1,0.5-1.2c-0.2-0.3-0.6-0.2-1.1,0.3c-0.4,0.4-0.7,1-0.5,1.2
	C24.9,3.6,25.4,3.5,25.8,3.1 M22.8,5.9c0.3-0.3,0.5-0.8,0.4-1c-0.1-0.2-0.5-0.1-0.9,0.2s-0.5,0.8-0.4,1C22.1,6.4,22.5,6.3,22.8,5.9
	 M28.3,1.3c-0.1-0.2-0.5-0.1-0.9,0.2c-0.3,0.3-0.5,0.8-0.4,1c0.1,0.2,0.5,0.1,0.9-0.2C28.2,2,28.4,1.5,28.3,1.3 M25.5,7.4
	c-0.4,0.4-0.7,1-0.5,1.2c0.2,0.3,0.6,0.2,1.1-0.3c0.4-0.4,0.7-1,0.5-1.2C26.4,6.8,25.9,6.9,25.5,7.4 M25.9,4.5
	c-0.2-0.3-0.8-0.2-1.3,0.3C24.1,5.3,23.8,6,24,6.3c0.2,0.3,0.8,0.2,1.3-0.3C25.9,5.5,26.1,4.8,25.9,4.5 M12.7,14.8
	c-0.1-0.4-0.2-0.6-0.3-0.7C12.2,13.8,12.4,14.2,12.7,14.8"/>
</svg>
