<?xml version="1.0" encoding="utf-8"?>
<!-- Generator: Adobe Illustrator 26.1.0, SVG Export Plug-In . SVG Version: 6.00 Build 0)  -->
<svg version="1.1" id="Layer_1" xmlns="http://www.w3.org/2000/svg" xmlns:xlink="http://www.w3.org/1999/xlink" x="0px" y="0px"
	 width="481.4px" height="174.3px" viewBox="0 0 481.4 174.3" enable-background="new 0 0 481.4 174.3" xml:space="preserve">
<path fill="#9CA3AF" d="M274.9,109.2c-22.5,10.9-38.8,33.5-37.3,49.9C149,132.8,66.5,142.7,6.7,172.5c-3.5,1.7-6.7,1.4-1.2-1.8
	C66.1,134.9,182.6,103.2,274.9,109.2"/>
<path fill="#9CA3AF" d="M434.8,75.6l-3.2,14.9c0,0-0.9,6.7-5.7,9.2c-4.7,2.5-12.5,2.4-12.5,2.4h-83.7l5-23.4
	c-8.3,18.2-29.9,26.8-68.2,26.8c-18.6,0-37.8-1.6-48.4-9.7l1.3,6.2H178l-1.7-11.3h-40.6l-6.6,11.3H87.8l54.5-85.4
	c0,0,5.4-8.8,9.6-10.9c4.8-2.4,13.6-2.3,13.6-2.3h33.1l14.7,68.9h44.6c-0.6,3.3,0.2,5.5,2.6,7c2.6,1.4,6.7,2.1,12.8,2.1
	c12.2,0,16.2-3.3,17.2-8c0.6-2.9-0.6-5.8-5.6-6.6l-43.1-6.6c-18.4-2.9-24-14-21-27.8C226.2,6.9,252.6,0,284.7,0
	c43.9,0,59.6,11.5,56.5,32.3h-45.3c0.9-4-1-6.5-4.3-7.9c-3.1-1.5-7.4-2.1-11.7-2.1c-11.6,0-16.2,2.9-17.1,7c-0.6,2.8,0.3,4.6,4,5.1
	l45.1,6.9c15.9,2.4,25.6,9.2,26.3,21.2l12.6-59.1h39l-15.3,72.1L434.8,75.6L434.8,75.6z M193.4,52.2c0,0-12.8-6.1-28.4-5.2
	c-23.6,1.4-31.7,16.1-31.7,16.1s10-7,28.3-6.1c12.7,0.6,20,5.3,20,5.3s1.7-5.3,4.7-7.5S193.4,52.2,193.4,52.2"/>
<path fill="#9CA3AF" d="M292.2,111.2h4.4l3.3,20.9h-4.7l-0.7-4.6h-8.8l-3.1,4.6h-4.9L292.2,111.2z M294,123.4l-0.9-6.8l-4.6,6.8H294
	z M308.2,111.4h4.5l-5.5,20.7h-4.6L308.2,111.4z M317.9,111.4h7.6c3.1,0,5.2,0.7,6.6,2.1c1,1,1.6,2.5,1.6,4.2c0,3.7-2.3,6.4-6.7,7.4
	l3.5,7.1h-5.2l-3.2-6.6h-3.4l-1.8,6.6h-4.6L317.9,111.4z M323.9,121.5c2.8,0,5-1.2,5-3.4c0-0.7-0.2-1.2-0.7-1.7
	c-0.6-0.6-1.6-0.9-3-0.9h-3.8l-1.6,6H323.9z M339.5,111.4h4.5l-4.4,16.6h10.3l-1.1,4.1h-14.9L339.5,111.4z M358.2,111.4h4.6
	l-5.6,20.7h-4.6L358.2,111.4z M368,111.4h4.2l6,13.2l3.6-13.2h4.5l-5.6,20.7h-3.9l-6.3-13.6l-3.6,13.6h-4.5L368,111.4z M391.2,111.4
	h15.5l-1.1,4.1h-10.9l-1.2,4.2h9.7l-1.1,4h-9.7l-1.1,4.4h11.1l-1.1,4h-15.6L391.2,111.4z M404.7,128.6l3.4-2.9
	c1.6,1.8,3.4,2.7,5.8,2.7c1.8,0,3.2-0.9,3.2-2.2c0-1-0.7-1.6-3.5-2.7c-2.7-1.1-5.1-2.5-5.1-5.6c0-4.2,3.8-6.8,8.2-6.8
	c3.6,0,6,1.2,7.8,3.1l-3.1,3.1c-1.6-1.4-3-2.2-5-2.2c-1.9,0-3,1.1-3,2.1c0,1.1,0.8,1.6,3.6,2.7c2.8,1.2,5,2.6,5,5.6
	c0,4.4-3.9,6.9-8.2,6.9C409.7,132.4,406.7,131.1,404.7,128.6"/>
<path fill="#9CA3AF" d="M469.8,157.2c2.1-0.2,3.7-0.9,5.1-2.4c1.4-1.5,2.2-3.4,2.2-5.7c0-3.2-1.7-5.1-4.9-5.6c-0.8-0.1-4-0.1-4,0
	c0,0-0.7,3.1-1.6,6.8c-0.9,3.7-1.6,6.8-1.6,6.8C465.1,157.3,468.6,157.3,469.8,157.2L469.8,157.2z M460,160.8c0,0,1.1-4.7,2.4-10.3
	c1.3-5.6,2.4-10.3,2.4-10.5l0.1-0.3l4.3,0c4.3,0,4.3,0,5.3,0.3c3.8,0.9,6.2,3.3,6.8,6.9c0.2,1,0.2,3.2,0,4.2
	c-0.9,4.9-4.4,8.3-9.7,9.4c-0.6,0.1-1.7,0.2-6.1,0.2C462.4,160.9,460,160.8,460,160.8L460,160.8z M437.2,160.8c0,0,1.1-4.6,2.4-10.3
	c1.3-5.6,2.4-10.3,2.4-10.5l0.1-0.3h4.4l3.1,7.1c1.7,3.9,3.1,7.1,3.1,7.1c0,0,0.8-3.2,1.7-7.1l1.6-7.1l2.1,0c1.2,0,2.1,0,2.1,0.1
	c0,0.1-4.7,20.5-4.8,20.8c0,0.2-0.2,0.2-2.2,0.1l-2.2,0l-3-6.9c-1-2.4-2.1-4.8-3.1-7.2c-0.1-0.2-0.2,0.2-1.6,6.1l-1.7,7.2l-0.2,0.8
	h-2.1C438.1,160.9,437.2,160.8,437.2,160.8L437.2,160.8z M429.2,153.2c0-0.1-0.3-2.1-0.6-4.4c-0.4-2.3-0.6-4.2-0.6-4.3s-0.1,0-0.1,0
	c-0.1,0.1-5.2,8.8-5.2,8.8c0,0,1.5,0.1,3.3,0.1h3.3L429.2,153.2z M413.6,160.8c0,0,2.9-4.8,6.3-10.5l6.3-10.4h4.9l1.7,10.4
	c1,5.7,1.7,10.5,1.7,10.5c0,0.1-0.5,0.1-2.1,0.1h-2.1l0-0.2c0-0.1-0.2-0.9-0.3-1.8c-0.1-0.6-0.2-1.3-0.3-1.9l-0.1-0.3l-9.1,0
	l-2.4,4.1h-2.4C414.6,160.9,413.6,160.8,413.6,160.8L413.6,160.8z M396.8,160.8c0,0,1.1-4.6,2.4-10.3c0.8-3.5,1.6-7,2.4-10.5
	l0.1-0.3h4.2l-0.1,0.3c0,0.2-0.9,4-2,8.6c-1.1,4.6-1.9,8.3-1.9,8.4c0,0,2.3,0.1,5.1,0.1c2.8,0,5,0,5,0.1c0,0.1-0.7,3.3-0.8,3.5
	c0,0.2-0.5,0.2-7.3,0.2C400,160.9,396.8,160.8,396.8,160.8L396.8,160.8z M389.5,149.8c1.3-0.3,2.3-1.1,2.8-2
	c0.2-0.4,0.3-0.7,0.3-1.3c0.1-1.6-0.5-2.4-2.1-2.9c-0.4-0.1-1-0.1-3.4-0.1h-2.9l-0.7,3.2c-0.4,1.7-0.7,3.2-0.7,3.3
	c0,0,1.4,0.1,3.1,0C388.2,150,389,149.9,389.5,149.8L389.5,149.8z M375.9,160.8c0-0.1,4.7-20.6,4.8-20.8c0-0.2,0.3-0.2,5.4-0.1
	l5.3,0l0.9,0.2c2.4,0.6,3.9,2,4.4,4c0.2,0.8,0.2,2.6,0,3.4c-0.5,2.2-2.3,4-4.7,4.8c-0.9,0.3-1.9,0.5-3.3,0.5l-1.3,0.1l2.9,3.5
	c1.6,1.9,3.1,3.7,3.3,4l0.4,0.4h-5.1l-3.4-4.2c-1.9-2.3-3.4-4.2-3.5-4.2s-0.5,1.8-1,4c-0.5,2.2-0.9,4.1-1,4.2l0,0.2H378
	C376.8,160.9,375.9,160.8,375.9,160.8L375.9,160.8z M357.2,160.8c0,0,1.1-4.6,2.4-10.3c1.3-5.6,2.4-10.3,2.4-10.5l0.1-0.3h7.5
	c7.1,0,7.5,0,7.5,0.2c0,0.1-0.2,0.8-0.4,1.6c-0.1,0.5-0.2,1.1-0.4,1.6c0,0.2-0.4,0.2-5.4,0.2h-5.4l0,0.2c0,0.1-0.3,1.2-0.6,2.4
	c-0.3,1.2-0.5,2.3-0.6,2.4c0,0.2,0.2,0.2,4.9,0.2c4.3,0,4.9,0,4.9,0.1c0,0.1-0.1,0.8-0.3,1.5l-0.4,1.6l0,0.2h-4.9
	c-2.8,0-4.9,0-5,0.1c-0.1,0.1-1.2,4.9-1.2,5c0,0,2.4,0.1,5.4,0.1h5.4l-0.4,1.8l-0.4,1.8h-7.5C360.6,160.9,357.2,160.8,357.2,160.8
	L357.2,160.8z M337.5,160.6c0-0.2,0.1-0.3,0.1-0.5c0-0.1,3.1-3.9,6.8-8.4l6.8-8.2l-9.7,0l0-0.2c0-0.1,0.2-0.9,0.4-1.8l0.4-1.6h16.2
	l-0.1,0.3c0,0.2-0.1,0.4-0.2,0.5c-0.1,0.1-3.1,3.9-6.8,8.4l-6.7,8.1l10,0l-0.4,1.7c-0.2,1-0.4,1.8-0.4,1.8c0,0-3.7,0.1-8.3,0.1h-8.3
	L337.5,160.6z M325.1,160.6c0.5-1.9,3.9-17.1,3.9-17.2c0-0.1-0.7-0.1-3.1-0.1l-3.1,0l0.3-1.5c0.2-0.8,0.4-1.6,0.4-1.7l0.1-0.3h8.3
	c4.6,0,8.3,0,8.3,0.1c0,0-0.2,0.8-0.4,1.8l-0.4,1.7h-3c-1.7,0-3.1,0-3.1,0.1c0,0-0.9,3.8-2,8.4c-0.7,2.9-1.3,5.8-2,8.7l-0.1,0.4
	h-4.2L325.1,160.6z M311.9,160.8c0,0,1.1-4.6,2.4-10.3c0.8-3.5,1.6-7,2.4-10.5l0.1-0.3h2.1c1.2,0,2.1,0,2.1,0.1
	c0,0-1.1,4.7-2.4,10.5c-1.3,5.7-2.4,10.4-2.4,10.5c0,0-1,0.1-2.1,0.1C312.9,160.9,311.9,160.8,311.9,160.8z M285.5,160.7
	c0-0.2-1.8-20.4-1.8-20.7c0-0.1,0.2-0.2,2.2-0.2c2.2,0,2.2,0,2.2,0.2c0,0.3,0.9,13.9,1,14c0,0,1.8-3.2,3.9-7.1l3.9-7.1h1.8
	c1,0,1.8,0,1.8,0.1c0,0,0.3,3.2,0.7,6.9c0.4,3.8,0.7,6.9,0.7,7c0,0.1,0,0.1,0.1,0c0,0,1.7-3.2,3.7-7.1l3.6-7h4.9l-11.4,21h-3.9
	l-0.1-0.5c0-0.3-0.3-3.5-0.7-7.1c-0.4-4-0.7-6.6-0.7-6.6c0,0-1.8,3.2-4,7.1l-3.9,7l-3.9,0.1L285.5,160.7z M268.7,161
	c-2.3-0.4-4.2-1.4-5.3-2.8c-0.8-1-1.4-2.5-1.4-3.7v-0.6h4.1l0,0.7c0.1,1.5,1.2,2.6,2.9,3c0.8,0.2,2.5,0.1,3.1-0.1
	c0.6-0.2,1.2-0.8,1.5-1.3c0.2-0.5,0.2-1.5,0-2c-0.4-0.8-0.9-1.1-3.8-2.3c-2.8-1.2-3.4-1.5-4.2-2.4c-1.1-1.1-1.6-2.2-1.6-3.8
	c0-1,0.1-1.6,0.6-2.5c0.6-1.2,1.5-2.1,2.8-2.7c1.5-0.7,2.3-0.9,4.4-0.9c1.5,0,1.9,0,2.6,0.2c1.7,0.4,2.9,1.1,3.9,2.2
	c1.1,1.1,1.6,2.5,1.6,4l0,0.7h-4.3l0-0.7c0-0.7-0.2-1.3-0.6-1.8c-0.4-0.4-1.1-0.9-1.6-1c-2-0.6-4.1-0.1-4.8,1.2
	c-0.2,0.4-0.3,1.3-0.1,1.7c0.3,0.9,0.9,1.2,3.9,2.5c1.3,0.5,2.6,1.1,2.9,1.3c0.8,0.4,2.1,1.8,2.4,2.4c0.4,0.8,0.5,1.5,0.5,2.6
	c0,1.7-0.4,2.9-1.5,4c-1,1.1-2.2,1.7-3.8,2.1C272,161.1,269.7,161.2,268.7,161L268.7,161z"/>
</svg>
