<?xml version="1.0" encoding="utf-8"?>
<!-- Generator: Adobe Illustrator 26.1.0, SVG Export Plug-In . SVG Version: 6.00 Build 0)  -->
<svg version="1.1" id="Layer_1" xmlns="http://www.w3.org/2000/svg" xmlns:xlink="http://www.w3.org/1999/xlink" x="0px" y="0px"
	 width="850px" height="150px" viewBox="0 0 850 150" enable-background="new 0 0 850 150" xml:space="preserve">
<path fill="#9CA3AF" d="M719.9,115.6c16.2-8.2,33.1-14.6,50-20.9c16.6-6.2,33.2-12.2,48.2-22c21.4-14,27.1-31.1,26.8-48.5
	c0.3-5.7-2.3-22-3.9-24.3c1.8,9.7,1.9,15.7-1.6,25.5c-3.8,10.8-12.2,18-21.2,24.4c-15.1,10.8-32,18.4-48.6,26.6
	c-18.8,9.2-37.5,18.4-54.2,31.3c-12.1,9.4-26.3,24.3-31.3,39.6C690,135.2,709.1,121.1,719.9,115.6z"/>
<path fill="#9CA3AF" d="M839.4,65.7c-2,8.7-6.1,16.7-11.3,22.8c-11.6,15.1-28,22.4-45.6,27.8c-18.6,5.6-38.7,8.3-56.5,13.5
	c-10.9,3.2-27.9,8.5-38.9,20.2c3.6-7.3,11.2-13.8,16-17.6c16.8-13.3,36.5-20.5,56.5-27.3c18.3-6.2,36.9-11.6,54.2-20.1
	C824.2,79.8,833.4,74.2,839.4,65.7z"/>
<path fill="#9CA3AF" d="M825.4,39.2c-18-19-44.5-27.8-76.2-18.8c-37.3,10.5-60.6,55.2-46.6,93.5c-2.2-7.2-2-17.7-1.5-22
	c3-26.1,16.4-45.2,40.2-55.9c23.6-10.6,50.5-8.9,73.8,11.7L825.4,39.2z"/>
<path fill="#9CA3AF" d="M87.7,122.9l-11.8-19.5H38.5L45.2,92L69,92L51.6,64.2l-35.9,58.7H0l45.4-74.2c1.6-2.7,3.7-4.4,6.7-4.4
	c3,0,5,1.7,6.6,4.4l45.5,74.2H87.7z M112,123.2v-13.9h61.4c7.7,0,11.9-4.1,11.9-10.4c0-6.8-4.3-10.3-11.9-10.3h-37.6
	c-15.4,0-25-9.5-25-22.6c0-12.8,8.9-22.3,25.2-22.3h58.8v13.9H136c-6.5,0-10.3,2.6-10.3,8.6s3.9,8.3,10.2,8.3h37.5
	c16.6,0,25.5,9.9,25.5,25.3c0,13.3-8.3,23.2-25.5,23.2H112z M233.6,123.2V57.8h-30.7V43.9h75.6v13.9h-30.7v65.5H233.6z M323.6,123.2
	c-23.2,0-40.3-17.5-40.3-40.5c0-23.4,17.1-38.9,40.3-38.9h20.2c24,0,40.7,15.8,40.7,38.9s-17,40.5-40.7,40.5H323.6z M343.8,109.4
	c15.3,0,26.2-11,26.2-26s-10.9-25.6-26.2-25.6h-20.2c-14.9,0-25.8,10.6-25.8,25.6c0,15,10.9,26,25.8,26H343.8z M407.1,68.6l0,54.7
	h-13.8v-72c0-5.1,2.6-8.3,6.7-8.3c2,0,3.6,0.8,5.6,2.8l51.9,53.1V43.3H471v72.7c0,5.2-2.7,8.3-6.5,8.3c-2.2,0-4.1-1-6-2.9
	L407.1,68.6z M480.9,123.2V43.9h67.9v13.9h-54v65.5H480.9z M500.4,90.4V76.7h45.1v13.7H500.4z M558.3,123.2V43.9h14.1v65.5h54.2
	v13.9H558.3z M634.7,123.1V96l-39.6-52.1h17.6l29.1,38.7l29.2-38.7h16.6L649,96l0,27.1H634.7z"/>
<path fill="#9CA3AF" d="M709.1,141.5c0,0,8.3-3.9,15-5.6c19.1-4.9,50.8-8.5,71.5-16.1c24.7-9.2,31.4-19.2,31.4-19.2
	s-4.3,17.3-21.1,27.7c-15.2,9.4-45.9,9.4-63.5,8.9C723.6,136.7,709.1,141.5,709.1,141.5z"/>
</svg>
