<?xml version="1.0" encoding="utf-8"?>
<!-- Generator: Adobe Illustrator 26.1.0, SVG Export Plug-In . SVG Version: 6.00 Build 0)  -->
<svg version="1.1" id="Layer_1" xmlns="http://www.w3.org/2000/svg" xmlns:xlink="http://www.w3.org/1999/xlink" x="0px" y="0px"
	 width="1150.3px" height="163.9px" viewBox="0 0 1150.3 163.9" enable-background="new 0 0 1150.3 163.9" xml:space="preserve">
<path fill="#9CA3AF" d="M895.2,136.5c37.9-30.4,65-56.4,73.1-70.5c3.4-5.4,4.5-10.6,2.6-14.9c-3.5-7.9-16-10.3-31.4-7.3
	c67.9-15.2,137.9-24.6,209.6-27.9c0.6,0,1.2,0.4,1.3,1c0.1,0.6-0.2,1.2-0.8,1.4C1060.2,47,978.9,93.5,909.8,153.6
	c-0.1,0.1-0.2,0.1-0.3,0.1l-44.9,7.8c-0.6,0.1-1-0.7-0.5-1.1C875.1,152.3,885.5,144.3,895.2,136.5"/>
<path fill="#9CA3AF" d="M884.1,57.5c-1.1,0.3-2.1,0.6-3.1,0.9c-0.6,0.2-0.6,1.1,0.1,1.2l17.8,2.5l31.2,4.4c0.1,0,0.2,0,0.3-0.1
	c21.9-10.4,36.5-14.5,39.8-9.9c1,1.4,0.8,3.6-0.3,6.4c-0.4,0.9-0.9,2-1.5,3c3.4-5.4,4.5-10.6,2.6-14.9c-3.5-7.9-16-10.3-31.5-7.3
	c-1.8,0.4-3.5,0.8-5.3,1.2C917.3,48.8,900.6,53,884.1,57.5"/>
<path fill="#9CA3AF" d="M537.3,149.6l7.8-1c6.3-0.7,7.2-1.7,7.2-15.3V78.5c0-9.2-2.7-11.1-9.1-12.2l-5.1-0.9V54.2l35.2-4v83.2
	c0,14.1,1.2,14.8,6.1,15.3l8.7,1v12h-50.7V149.6z M559.9,4.5c-8.1,0-13,4.7-13,12.5c0,8,4.9,12.8,13,12.8c8.4,0,13.2-4.7,13.2-12.8
	C573.1,9.2,568.2,4.5,559.9,4.5 M149.6,149.6v12H94.9v-12l16-1.9l-13.5-37.4H43.6l-13.9,37.6l16.3,1.7v12H0v-12l7-0.9
	c6.5-1.1,8-4.6,11-13.2L69.8,0h12.3l49.5,133.4c4.5,12.9,6,14.2,11.8,15.5L149.6,149.6z M92.1,95.6l-21.3-59L49,95.6H92.1z
	 M450.2,161.7h54v-11.6l-13.2-1.6c-4.7-0.5-5.9-1.2-5.9-15.1V79.3l0.1-0.2c3.7-4.8,10.4-8.1,16.2-8.1c7.3,0,14.3,1.6,20.1,4.6V51
	c-3.2-1.1-6.9-1.8-10.4-1.8c-9.7,0-18.5,4.8-26.9,14.6l-0.9,1l-2.2-13.3h-31.9v13.6l5.7,1c6.1,1,9.1,3.2,9.1,12.6v54.7
	c0,14.2-1.1,14.8-7.1,15.5l-6.8,0.8V161.7z M432.2,143c-5.6,2.8-11.2,4.2-16.6,4.2c-6.8,0-11.3-2.8-11.3-16.5V66.3h26.6V51.5h-26.6
	V25.6h-12.9l-6.9,25.9H384h-16.2h-0.2v14.8h15.6v67.3c0,20.4,8.3,30.3,25.4,30.3c13.6,0,24.2-5.7,29.3-9.1l0.9-0.6l-5.4-11.8
	L432.2,143z M263.6,149.7l-6.4-1c-6.3-1-9.1-3.1-9.1-12.6V51.5h-35.8v13.6l5.7,1c6.1,1.1,9.1,3.2,9.1,12.6v57.7l-0.3,0.2
	c-9.2,5.6-18.8,8.8-26.6,8.8c-12.2,0-18.2-7.3-18.2-22.3V51.5h-35.6v13.7l5.5,0.9c6.1,1.1,9.1,3.2,9.1,12.6v46.4
	c0,17.7,5.6,38.8,32.2,38.8c12.4,0,23.3-4.6,35.2-14.8l0.8-0.7l2.4,13.2h32V149.7z M693.3,161.2c-4.3,1.9-8.4,2.7-13.5,2.7
	c-9.5,0-15.7-4.1-18.3-12.3l-0.4-1.1l-0.7,0.9c-3.1,3.8-12.3,12.5-28.9,12.5c-27.1,0-32.8-16.5-32.8-30.3
	c0-27.6,22.8-34.2,59.5-35.8l0.6,0V87.6c0-15.5-3.8-21.3-17.2-21.3c-10.9,0-18.3,1.6-30.4,6.5l-1.3,0.5L605.4,61l0.9-0.6
	c8.2-5.4,22.8-11.2,39.1-11.2c24.5,0,34.3,11.7,34.3,37.8v52c0,8.3,1,9,7.1,9.7l6.6,0.8V161.2z M658.8,111.9l-0.7,0
	c-27.6,0.6-36.9,5.7-36.9,20c0,13,9,15.7,16.5,15.7c12.6,0,21.1-8,21.1-20V111.9z M318.6,95.1c-11.4-3.1-20.6-6.4-20.6-16.4
	c0-9.4,7.1-14.4,20.7-14.4c12.3,0,14.2,3.3,15.1,6.9l3.3,12.9H352V56.5c-7.3-4.5-19.5-7.3-32.1-7.3c-25.2,0-41.5,13.1-41.5,33.4
	c0,20.9,15.4,26.2,30,30.1c1,0.3,5.4,1.4,6.5,1.7c11.5,3.1,20.9,6.5,20.9,17.8c0,13.8-11.9,16.7-21.9,16.7c-15.4,0-17.5-3.6-18.6-8
	l-2.9-15h-15v30c6.9,3.7,18.6,8,35.5,8c20.9,0,43.2-9.5,43.2-36.1c0-21-16.4-27-31-31C323.9,96.5,319.6,95.3,318.6,95.1
	 M774.2,161.7h49.2v-12l-8.4-1.2c-6-0.7-7.1-1.9-7.1-15.3V88c0-25.8-11.1-38.8-33-38.8c-16.4,0-27.6,7.8-35.4,14.7l-0.9,0.8
	l-1.6-13.2h-31.2v13.8l4.7,0.8c6.1,1,9.1,3.2,9.1,12.6v54.4c0,13.6-0.9,14.6-7.1,15.3l-7.8,1v12.3h49v-12l-6.9-1
	c-5.7-0.8-6.1-1.9-6.1-15.5V76.7l0.3-0.2c9.3-5.6,18.9-8.8,27-8.8c13,0,19,7,19,21.9v44.7c0,12.4-0.5,13.6-5.5,14.2l-7.1,1V161.7z"
	/>
</svg>
