<svg xmlns="http://www.w3.org/2000/svg" xml:space="preserve" viewBox="0 0 201 107"><g fill-rule="evenodd" clip-rule="evenodd"><path fill="#1F6EB6" d="M182.4 33.3c5.5 0 9.8 1.3 13 4s4.7 6.3 4.7 10.9c0 7.1-2.6 13.1-7.9 18.1-5.3 5-11.8 7.5-19.5 7.5-5.5 0-9.9-1.3-13.1-4-3.2-2.7-4.8-6.3-4.8-10.9 0-6.9 2.7-12.9 8.1-18 5.5-5.1 11.9-7.6 19.5-7.6zm-39.9.1c2 0 4.1.2 6.3.7.7.2 1.6.4 2.7.7l-3.3 13.9c-1.9-2-4.1-3-6.6-3-2.6 0-5 .9-7.1 2.8-2.1 1.9-3.1 4.1-3.1 6.5 0 1.7.6 3.2 1.8 4.3 1.2 1.1 2.8 1.6 4.7 1.6 2.4 0 5-.8 7.9-2.5l-3.3 13.7c-1.3.3-2.4.5-3.2.7-2.6.5-4.7.7-6.2.7-5.1 0-9.2-1.4-12.3-4.2-3.2-2.8-4.7-6.3-4.7-10.5 0-6.5 2.7-12.3 8-17.6 5.3-5.1 11.5-7.8 18.4-7.8zm-30.3 9.1L104.8 73H90.4l5.3-22 16.5-8.5zm67.2 3.2c-2.5 0-4.7 1-6.6 3-1.9 2-2.9 4.3-2.9 7 0 1.7.5 3 1.5 4s2.4 1.5 4.2 1.5c2.5 0 4.6-1 6.5-2.9 1.8-2 2.8-4.4 2.8-7.2 0-1.7-.5-3-1.4-4-1-.9-2.3-1.4-4.1-1.4z"/><path fill="#114578" d="m40 34 4.7 39H29.3l-.3-5H17.9l-2.6 5H0l23.3-39H40zm25 0 1.4 21.6L78.1 34h15.3L68.7 73H55.9l-6.2-39H65zM28.8 46.2l-6.1 12.6h6.1V46.2zM114.2 34l-1.8 7.4-15.8 5.4L99.7 34h14.5z"/></g><path fill="#D6D6D8" fill-rule="evenodd" d="M146.1 34.8s-2.2-1-2.9-2.2c-.7-1.2 3.1-1.2 3.1-1.2s.6-6.2 1.4-6.8c1.8-1.3 3.8 4 3.8 4l3.4-2.2s-7.4-4.9-7.6-5.7c-.5-1.5 3.2-2.7 4.8-2.6 2.5.2 11.8 2.5 11.8 2.5s6.4-4.1 13-7.2c6.6-3.1 9.7-2.6 11.1-2.4 1.4.3 3.4 1.2 3.4 1.2s4.2-.5 6.3 1.3c1.9 1.6 1.4 5-.3 7.5s-6.2 6.1-6.2 6.1 3.2.6 4.2.8c1 .2-.6 2.2-1.6 2.8-.8.5-2.7 1-5.7 1.9-2.9.8-11 2-11 2s-10.4 3.9-18.7 5.1c-8.5 1.1-12.4-2.4-12.3-4.9" clip-rule="evenodd"/><path fill="#7F8699" fill-rule="evenodd" d="M161.4 30.2s-10.7-6.8-12.5-8.5c-.9-.8-1.2-1.3-.3-1.7.5-.2 1.8-1 6.5-.1l20.7 4.9s-.3 1.3-4 2.7c-3.9 1.5-9.6 2.7-10.4 2.7" clip-rule="evenodd"/><path fill="#7F8699" fill-rule="evenodd" d="M171.6 29.2c-.2 1.7-3 2.7-6.3 2.3-3.3-.4-5.8-2-5.6-3.7.2-1.7 3-2.7 6.3-2.3 3.2.3 5.8 2 5.6 3.7" clip-rule="evenodd"/><g transform="translate(167.04 12.553)"><defs><filter id="a" width="30.6" height="11" x=".4" y=".2" filterUnits="userSpaceOnUse"><feColorMatrix values="1 0 0 0 0 0 1 0 0 0 0 0 1 0 0 0 0 0 1 0"/></filter></defs><mask id="b" width="30.6" height="11" x=".4" y=".2" maskUnits="userSpaceOnUse"><g filter="url(#a)"><path fill="#FFF" fill-rule="evenodd" d="M23.4.5c-2.6.3-6.2 1.1-8.5 1C12.6 1.4 9.3 3.6.4 9l8.3 2.2c2.6-1.2 4.2-2 4.2-2s.2-1.4 1.6-2.2c1.5-.8.5.8.5.8s.5-.4 4.9-2.4c4.5-2 11-3.6 11-3.6C30.1.5 28.4.1 26.6.1c-1 .1-2.2.2-3.2.4" clip-rule="evenodd"/></g></mask><path fill="none" d="M23.4.5c-2.6.3-6.2 1.1-8.5 1C12.6 1.4 9.3 3.6.4 9l8.3 2.2c2.6-1.2 4.2-2 4.2-2s.2-1.4 1.6-2.2c1.5-.8.5.8.5.8s.5-.4 4.9-2.4c4.5-2 11-3.6 11-3.6C30.1.5 28.4.1 26.6.1c-1 .1-2.2.2-3.2.4" mask="url(#b)"/></g><g transform="translate(150.48 26.953)"><defs><filter id="c" width="10.2" height="5.1" x=".1" y=".7" filterUnits="userSpaceOnUse"><feColorMatrix values="1 0 0 0 0 0 1 0 0 0 0 0 1 0 0 0 0 0 1 0"/></filter></defs><mask id="d" width="10.2" height="5.1" x=".1" y=".7" maskUnits="userSpaceOnUse"><g filter="url(#c)"><path fill="#FFF" fill-rule="evenodd" d="M2.9 2.8C1 4 .1 4.8.1 4.8l1.2.3c1.2.3 1.1.7 1.1.7s2.4-.6 8-2.7L6.4.7C5 1.5 3.8 2.2 2.9 2.8" clip-rule="evenodd"/></g></mask><path fill="none" d="M2.9 2.8C1 4 .1 4.8.1 4.8l1.2.3c1.2.3 1.1.7 1.1.7s2.4-.6 8-2.7L6.4.7C5 1.5 3.8 2.2 2.9 2.8" mask="url(#d)"/></g><path fill="#224886" fill-rule="evenodd" d="M168.7 7.9s-1.9.9-2.4 1.9c-.5 1 2.5 1.6 2.5 1.6s.1.9 1.2 1c1.1.1 3.4-1 4.7-2 1.3-1 4.2-3.4 3.3-4.8s-3.6.2-3.6.2l-.4-.5s.4-3.6-1.4-4.5c-1.6-.8-3.5 2.1-3.9 7.1" clip-rule="evenodd"/><path fill="#1E70B6" fill-rule="evenodd" d="M174 5.4s-1.3-.4-2.5.7c0 0-2.6 2.2-2.6 5.2 0 .5.8.9.8.9s-.2-1.5 1.9-3.7c1.5-1.5 3-2.5 3-2.5l-.6-.6z" clip-rule="evenodd"/><path fill="#17A6DF" fill-rule="evenodd" d="m170 7.9 1.1 1.1s.7-.8 1.8-1.8c1.2-1 1.6-1.3 1.6-1.3l-.5-.5s-1.1-.4-2.3.6c-1.2.9-1.7 1.9-1.7 1.9" clip-rule="evenodd"/><path fill="#1D1D1B" fill-rule="evenodd" d="M174.7 6s-1.3.8-2.4 1.8c-.3.2-.5.4-.1-.1.5-.6 1.4-1.4 2.4-2l.1.3" clip-rule="evenodd"/><path fill="#224576" fill-rule="evenodd" d="M176.2 9.1c-1.9 1.5-5.3 3.7-6.6 3.1 0 0-.4-1.2 1.8-3.5s4.4-3.7 6-3.4c1.5.4.7 1.9 0 2.7-.2.2-.6.6-1.2 1.1" clip-rule="evenodd"/><path fill="#1D1D1B" fill-rule="evenodd" d="M170.1 12.5s-.5.1-.5-.3-.1-1.8 2.4-3.8c2.5-2 4.2-1.7 4.5-.8.3 1 .1 1.5.1 1.5s-3.7 3.3-6.5 3.4" clip-rule="evenodd"/><path fill="#2580C3" fill-rule="evenodd" d="M166.8 10.5s-.5-.3-.4-.6c.4-.9 2.4-1.9 2.4-1.9s.2-2.4.7-4.1c.6-1.6 1.7-3.6 3.1-3 .8.4 1 1.1 1 1.1s-.5-.6-1.6-.3c-2.1.7-2.9 6.5-2.9 6.5s-2.2 1.4-2.3 2.3" clip-rule="evenodd"/><path fill="#1D1D1B" fill-rule="evenodd" d="M171 3.7s.5.2 1.3.2h1.3s-.1.3-.3.4c-.2.1-.6.1-.6.1l.2.4s-.7-.2-1.2-.4-.7-.7-.7-.7m-1.9 8s-.2-.2-.1-1.2 1.1-3.1 2.3-4.2c1.1-1 2.2-1 2.2-1s-.3-.1-.8-.1c-.7.1-1.7.8-2.5 1.9-1.1 1.5-1.8 3.2-1.4 4.5.1.4.3.1.3.1" clip-rule="evenodd"/><path fill="#275589" fill-rule="evenodd" d="M151.5 28.6s-2.3 1.8-3.2 2.8c-.1.1-2.1 0-2.1 0s-.1.6.1-1 .4-5.9 1.8-6c.1 0 1.5-.4 3.4 4.2" clip-rule="evenodd"/><path fill="#2580C3" fill-rule="evenodd" d="M146.5 31.2s.7-4.3 1.4-4.9c.7-.6 2.5 3.2 2.5 3.2s-1.1.9-2 1.9c-.1.1-1.9-.2-1.9-.2" clip-rule="evenodd"/><path fill="#EDEEEF" fill-rule="evenodd" d="M143.4 32.7s-.1-.3.9-.5 1.9-.3 4.5 0c2.5.3 3.3.7 3.6.5.3-.2.5-.3.5-.3s-2.7-1-5.8-.9c-3.1.1-3.9.4-3.8.8-.1.3.1.4.1.4m5-1.3s.4-.5 2-1.9c1.6-1.3 4.5-3 4.5-3l1.8 1.2s-1 .5-3.1 1.9-2.9 2.1-2.9 2.1l-2.3-.3z" clip-rule="evenodd"/><path fill="#1D1D1B" fill-rule="evenodd" d="M151.6 28.7s-1 .7-1.2.8c-.2.1.7-.9 1-1.1.3-.2.6-.1.2.3" clip-rule="evenodd"/><path fill="#EDEEEF" fill-rule="evenodd" d="M147.4 20.6s.3-.9 1.5-1.4c1.3-.5 2-.8 4.3-.4s7.7 1.6 11.2 2.5c3.4.9 12.1 3.2 11.3 2.9-.8-.3-6.7-2.5-11.6-3.6-5-1.2-11.2-2.6-12.3-2.5-1.1.1-4.3.9-4.6 2.1-.2 1.2.2.4.2.4" clip-rule="evenodd"/><path fill="#EDEEEF" fill-rule="evenodd" d="m164.1 20.5 4.7 1.2s8-4.9 11.3-6.3c3.4-1.4 5.8-.7 5.8-.7s1-.8 5.2-1.5c4.2-.6 6.4.5 6.4.5s-.5-1-2.1-1.4c-1.6-.4-4.3-.2-4.3-.2s-2.9-1.6-5.7-1.4c-2.8.2-6.6 1.2-14.6 5.5-7.9 4.3-6.7 4.3-6.7 4.3" clip-rule="evenodd"/><path fill="#0F1522" fill-rule="evenodd" d="M187.1 13.3s-1.4-1.4-1.5-1.4c0 0 .1-.1.3-.1.4-.1 1-.2 1.2-.1.4.1 2.2.9 2.2.9s-1.8.4-2.2.7m-1.1.7s-2.1 2-2.7 2.6c-.6.5-1.4 1.1-1.8 1.2-.4.1-1.5-.4-2-1.2-.5-.8-.7-2.3-.4-2.5.1-.1.8-.4 1.6-.7 1.1-.5 2.5-.9 3-.9 1 0 2.3 1.5 2.3 1.5" clip-rule="evenodd"/><g transform="translate(180.72 11.833)"><defs><filter id="e" width="5.3" height="3.3" x="0" y=".6" filterUnits="userSpaceOnUse"><feColorMatrix values="1 0 0 0 0 0 1 0 0 0 0 0 1 0 0 0 0 0 1 0"/></filter></defs><mask id="f" width="5.3" height="3.3" x="0" y=".6" maskUnits="userSpaceOnUse"><g filter="url(#e)"><path fill="#FFF" fill-rule="evenodd" d="m0 1.4 1.8 1.3c.7.5 1.7 1.2 1.7 1.2l1.8-1.7S4.1.7 3.3.6h-.2c-.9 0-3.1.8-3.1.8" clip-rule="evenodd"/></g></mask><path fill="none" d="m0 1.4 1.8 1.3c.7.5 1.7 1.2 1.7 1.2l1.8-1.7S4.1.7 3.3.6h-.2c-.9 0-3.1.8-3.1.8" mask="url(#f)"/></g><g transform="translate(185.76 11.113)"><defs><filter id="g" width="3.5" height="1.5" x=".1" y=".4" filterUnits="userSpaceOnUse"><feColorMatrix values="1 0 0 0 0 0 1 0 0 0 0 0 1 0 0 0 0 0 1 0"/></filter></defs><mask id="h" width="3.5" height="1.5" x=".1" y=".4" maskUnits="userSpaceOnUse"><g filter="url(#g)"><path fill="#FFF" fill-rule="evenodd" d="m.1.6 1 .7c.5.4.8.6.8.6l1.6-.6S1.9.5 1.2.4H1C.5.4.1.6.1.6" clip-rule="evenodd"/></g></mask><path fill="none" d="m.1.6 1 .7c.5.4.8.6.8.6l1.6-.6S1.9.5 1.2.4H1C.5.4.1.6.1.6" mask="url(#h)"/></g><g fill-rule="evenodd" clip-rule="evenodd"><path fill="#1D1D1B" d="M185.9 11.9c.3.3 1 .9 1.2 1.2.4-.2 1.2-.5 1.7-.7-.6-.3-1.5-.6-1.8-.7-.2 0-.8.1-1.1.2zm1.2 1.6c-.6-.6-1.5-1.4-1.6-1.5l-.1-.1v-.1c.1-.3 1.5-.4 1.5-.4h.2c.4.1 2.1.8 2.3.9l.4.2-.4.1s-1.8.6-2.2.8l-.1.1zm-3.5-1c-1.1 0-4.1 1.4-4.4 1.6-.2.2-.1 1.5.4 2.3.5.8 1.5 1.2 1.9 1.2.3 0 .9-.5 1.5-1l.2-.2c.5-.4 2.1-2 2.6-2.4-.4-.4-1.3-1.4-2.2-1.5.1.1 0 0 0 0m-2.2 5.4c-.5 0-1.6-.5-2.1-1.3s-.7-2.4-.3-2.8c.2-.2 3.7-1.8 4.7-1.7 1.1.1 2.3 1.6 2.4 1.7l.1.1-.1.1c-.1.1-2.1 2-2.7 2.6l-.2.2c-.6.6-1.2 1.1-1.8 1.1.1 0 .1 0 0 0"/><path fill="#EDEEEF" d="M190.4 27.7s4.4.3 4.6.6c.2.2-.8 1.8-.8 1.8s1.4-1.2 1.4-1.8c0-.6-4.5-1.2-4.5-1.2l-.7.6z"/><path fill="#7F8699" d="M147.6 35.1s-1.7-.3-3.2-1.5c-1.5-1.1-.6-1.3 1.3-1.4 1.9-.1 6.1.6 6.3.7.2.1.7-.4.7-.4s-2.2 2.3-5.1 2.6"/><path fill="#1D1D1B" d="M180.3 21.2s0-.2.4-.6c.4-.4.6-.5.6-.5s-.2 1 .6 2.5c.9 1.6 2.7 2.9 6 2.9s3.8-.6 4-.6c.2 0-.6.6-1.6.9-1 .3-3.6.8-5.9-.1-2.6-1.1-3.4-4.4-3.4-4.4l-.7-.1z"/><path fill="#7F8699" d="M177.6 34.4s7-1.1 11.3-2.3c4.3-1.1 5.8-3.1 5.4-3.4-.5-.3-4.6-.5-4.6-.5s-10 5.5-12.1 6.2"/></g><g transform="translate(158.4 25.513)"><defs><filter id="i" width="10.7" height="9.6" x=".4" y=".2" filterUnits="userSpaceOnUse"><feColorMatrix values="1 0 0 0 0 0 1 0 0 0 0 0 1 0 0 0 0 0 1 0"/></filter></defs><mask id="j" width="10.7" height="9.6" x=".4" y=".2" maskUnits="userSpaceOnUse"><g filter="url(#i)"><path fill="#FFF" fill-rule="evenodd" d="M7.5.2C4.9.3 1 3.1.5 5.9 0 8.7 2.1 10.1 5.8 9.8 9.5 9.4 10.6 8 11 6.4c.4-1.6.4-6.2-3.3-6.2h-.2" clip-rule="evenodd"/></g></mask><path fill="none" d="M7.5.2C4.9.3 1 3.1.5 5.9 0 8.7 2.1 10.1 5.8 9.8 9.5 9.4 10.6 8 11 6.4c.4-1.6.4-6.2-3.3-6.2h-.2" mask="url(#j)"/></g><g fill-rule="evenodd" clip-rule="evenodd"><path fill="#DCDBDE" d="m162.6 31.3 1-.3s.3-1.2.9-2.4c.6-1.2.3-2.5.3-2.5s-2.4 1.7-2.2 5.2"/><path fill="#275589" d="M167.3 26s-.9-.4-1.8-.2-2.3 1.9-1.9 5.1c.4 3.2 2.5 4.1 2.5 4.1s2.5-.3 3.2-2.5c.6-2.3 0-5.5-2-6.5"/></g><g transform="translate(163.44 29.833)"><defs><filter id="k" width="5.2" height="4.3" x=".1" y=".7" filterUnits="userSpaceOnUse"><feColorMatrix values="1 0 0 0 0 0 1 0 0 0 0 0 1 0 0 0 0 0 1 0"/></filter></defs><mask id="m" width="5.2" height="4.3" x=".1" y=".7" maskUnits="userSpaceOnUse"><g filter="url(#k)"><path fill="#FFF" fill-rule="evenodd" d="M.1 1.2s.1 1.1 1 2.6C1.7 4.8 2.5 5 2.5 5s.9-.2 1.6-.5c.7-.3 1.2-.8 1.2-.8s-.5.3-1.3.1C2.3 3.3 1.9.7 1.9.7l-1.8.5z" clip-rule="evenodd"/></g></mask><linearGradient id="l" x1="-339.698" x2="-339.635" y1="201.217" y2="200.664" gradientTransform="matrix(5.185 0 0 -4.344 1764.088 876.736)" gradientUnits="userSpaceOnUse"><stop offset="0" stop-color="#1f3b60"/><stop offset="1" stop-color="#17a5df"/></linearGradient><path fill="url(#l)" fill-rule="evenodd" d="M.1 1.2s.1 1.1 1 2.6C1.7 4.8 2.5 5 2.5 5s.9-.2 1.6-.5c.7-.3 1.2-.8 1.2-.8s-.5.3-1.3.1C2.3 3.3 1.9.7 1.9.7l-1.8.5z" clip-rule="evenodd" mask="url(#m)"/></g><g fill-rule="evenodd" clip-rule="evenodd"><path fill="#17A6DF" d="M169.3 29.6c.3 1.7 0 3.8-1 3.9-1 .2-2.2-.8-2.4-2.5-.3-1.7.4-4.1 1.4-4.3 1-.1 1.7 1.1 2 2.9"/><path fill="#4A494A" d="M167.2 26.7c.8.1 1.5 1.5 1.6 3.1.1 1.7-.4 3-1.2 2.9-.8-.1-1.5-1.5-1.6-3.1-.1-1.6.5-2.9 1.2-2.9"/></g><g transform="translate(165.6 29.833)"><defs><filter id="n" width="2.7" height="2.5" x=".6" y=".5" filterUnits="userSpaceOnUse"><feColorMatrix values="1 0 0 0 0 0 1 0 0 0 0 0 1 0 0 0 0 0 1 0"/></filter></defs><mask id="o" width="2.7" height="2.5" x=".6" y=".5" maskUnits="userSpaceOnUse"><g filter="url(#n)"><path fill="#FFF" fill-rule="evenodd" d="M2.7 2.8c.6-.4.6-2 .6-2L.6.5c.2 2.9 1.5 2.6 2.1 2.3" clip-rule="evenodd"/></g></mask><path fill="none" d="M2.7 2.8c.6-.4.6-2 .6-2L.6.5c.2 2.9 1.5 2.6 2.1 2.3" mask="url(#o)"/></g><g fill-rule="evenodd" clip-rule="evenodd"><path fill="#1D1D1B" d="M167.2 26.9c-.2 0-.3.1-.4.2-.4.4-.6 1.4-.5 2.5.1 1.7.9 2.9 1.4 3 .1 0 .3-.1.4-.2.4-.4.6-1.4.5-2.5-.1-1.7-.8-2.9-1.4-3zm.5 6.1c-.9-.1-1.7-1.5-1.8-3.3-.1-1.2.2-2.3.6-2.8.2-.2.5-.3.7-.3.9.1 1.6 1.5 1.8 3.3.1 1.2-.1 2.3-.6 2.8-.2.2-.4.3-.7.3z"/><path fill="#1D1D1B" d="M167.1 30.2c.1.7-.2 1.2-.6 1.3h-.2c-.1 0-.6-2.2-.3-2.3.1 0 .1 0 .2-.1.4-.1.8.4.9 1.1"/><path fill="#7F8699" d="M186.4 30c-1.7.9-3.4 1.8-5 2.6.6.1 1.3.2 2.1.2 2.5 0 4.6-.7 4.6-1.5 0-.6-.6-1-1.7-1.3"/></g><g transform="translate(177.84 29.833)"><defs><filter id="p" width="8.6" height="7.1" x=".5" y=".5" filterUnits="userSpaceOnUse"><feColorMatrix values="1 0 0 0 0 0 1 0 0 0 0 0 1 0 0 0 0 0 1 0"/></filter></defs><mask id="q" width="8.6" height="7.1" x=".5" y=".5" maskUnits="userSpaceOnUse"><g filter="url(#p)"><path fill="#FFF" fill-rule="evenodd" d="M.6 4.1c0 .1-.1.2-.1.4-.3 2.2 1.3 3.3 4.3 3.1C7.7 7.4 8.6 6.2 9 5c.2-1 .3-3.3-1-4.4C5.3 2 2.6 3.3.6 4.1" clip-rule="evenodd"/></g></mask><path fill="none" d="M.6 4.1c0 .1-.1.2-.1.4-.3 2.2 1.3 3.3 4.3 3.1C7.7 7.4 8.6 6.2 9 5c.2-1 .3-3.3-1-4.4C5.3 2 2.6 3.3.6 4.1" mask="url(#q)"/></g><g fill-rule="evenodd" clip-rule="evenodd"><path fill="#DCDBDE" d="M181.4 32.6c-.1.5-.2 1-.2 1.7l.9-.3s.2-.9.6-1.9c0-.1.1-.2.1-.3-.4.3-.9.6-1.4.8"/><path fill="#275589" d="M182.1 32.3c-.1.4-.1.9 0 1.5.3 2.5 2 3.3 2 3.3s2-.2 2.5-2c.5-1.5.2-3.6-.9-4.7-1.2.7-2.4 1.4-3.6 1.9"/></g><g transform="translate(181.44 33.433)"><defs><filter id="r" width="4.1" height="3.5" x=".7" y=".2" filterUnits="userSpaceOnUse"><feColorMatrix values="1 0 0 0 0 0 1 0 0 0 0 0 1 0 0 0 0 0 1 0"/></filter></defs><mask id="t" width="4.1" height="3.5" x=".7" y=".2" maskUnits="userSpaceOnUse"><g filter="url(#r)"><path fill="#FFF" fill-rule="evenodd" d="M.7.6s0 .9.8 2.1c.5.8 1.1 1 1.1 1s.7-.2 1.3-.4c.5-.3 1-.7 1-.7s-.4.3-1 .1C2.4 2.3 2.1.2 2.1.2L.7.6z" clip-rule="evenodd"/></g></mask><linearGradient id="s" x1="-346.761" x2="-346.718" y1="185.82" y2="185.429" gradientTransform="matrix(4.119 0 0 -3.468 1431.118 646.358)" gradientUnits="userSpaceOnUse"><stop offset="0" stop-color="#1f3b60"/><stop offset="1" stop-color="#17a5df"/></linearGradient><path fill="url(#s)" fill-rule="evenodd" d="M.7.6s0 .9.8 2.1c.5.8 1.1 1 1.1 1s.7-.2 1.3-.4c.5-.3 1-.7 1-.7s-.4.3-1 .1C2.4 2.3 2.1.2 2.1.2L.7.6z" clip-rule="evenodd" mask="url(#t)"/></g><path fill="#4A494A" fill-rule="evenodd" d="M185.3 30.7c-.3.2-.6.3-1 .5-.2.4-.3 1-.2 1.7.1 1.3.7 2.5 1.3 2.5.6 0 1-1 .9-2.3 0-1.1-.5-2.1-1-2.4" clip-rule="evenodd"/><g transform="translate(183.6 33.433)"><defs><filter id="u" width="2.1" height="2" x=".6" y="0" filterUnits="userSpaceOnUse"><feColorMatrix values="1 0 0 0 0 0 1 0 0 0 0 0 1 0 0 0 0 0 1 0"/></filter></defs><mask id="v" width="2.1" height="2" x=".6" y="0" maskUnits="userSpaceOnUse"><g filter="url(#u)"><path fill="#FFF" fill-rule="evenodd" d="M2.3 1.9c.4-.3.5-1.6.5-1.6L.6 0c.2 2.4 1.2 2.2 1.7 1.9" clip-rule="evenodd"/></g></mask><path fill="none" d="M2.3 1.9c.4-.3.5-1.6.5-1.6L.6 0c.2 2.4 1.2 2.2 1.7 1.9" mask="url(#v)"/></g><g fill="#1D1D1B" fill-rule="evenodd" clip-rule="evenodd"><path d="M184.9 33.4c.1.5-.1 1-.5 1h-.1c-.1 0-.5-1.7-.2-1.9h.1c.4-.1.7.3.7.9"/><path d="m185.3 30.6-.4.2h.1c.5 0 1 1 1.1 2.4.1.9-.1 1.7-.4 2-.1.1-.2.2-.3.2-.5 0-1-1-1.1-2.4-.1-.9.1-1.7.4-2 0 0 .1 0 .1-.1l-.6.3c-.2.5-.3 1.1-.2 1.8.1 1.4.7 2.6 1.4 2.6h.1c.2 0 .4-.1.5-.2.4-.4.6-1.3.5-2.2-.1-1.3-.6-2.4-1.2-2.6"/></g></svg>
