<svg xmlns="http://www.w3.org/2000/svg" xml:space="preserve" viewBox="0 0 201 41"><g fill-rule="evenodd" clip-rule="evenodd"><path fill="#1F6EB6" d="M182.4.3c5.5 0 9.8 1.3 13 4s4.7 6.3 4.7 10.9c0 7.1-2.6 13.1-7.9 18.1-5.3 5-11.8 7.5-19.5 7.5-5.5 0-9.9-1.3-13.1-4-3.2-2.7-4.8-6.3-4.8-10.9 0-6.9 2.7-12.9 8.1-18 5.5-5.1 11.9-7.6 19.5-7.6zm-39.9.1c2 0 4.1.2 6.3.7.7.2 1.6.4 2.7.7l-3.3 13.9c-1.9-2-4.1-3-6.6-3-2.6 0-5 .9-7.1 2.8-2.1 1.9-3.1 4.1-3.1 6.5 0 1.7.6 3.2 1.8 4.3 1.2 1.1 2.8 1.6 4.7 1.6 2.4 0 5-.8 7.9-2.5l-3.3 13.7c-1.3.3-2.4.5-3.2.7-2.6.5-4.7.7-6.2.7-5.1 0-9.2-1.4-12.3-4.2-3.2-2.8-4.7-6.3-4.7-10.5 0-6.5 2.7-12.3 8-17.6 5.3-5.1 11.5-7.8 18.4-7.8zm-30.3 9.1L104.8 40H90.4l5.3-22 16.5-8.5zm67.2 3.2c-2.5 0-4.7 1-6.6 3-1.9 2-2.9 4.3-2.9 7 0 1.7.5 3 1.5 4s2.4 1.5 4.2 1.5c2.5 0 4.6-1 6.5-2.9 1.8-2 2.8-4.4 2.8-7.2 0-1.7-.5-3-1.4-4-1-.9-2.3-1.4-4.1-1.4z"/><path fill="#114578" d="m40 1 4.7 39H29.3l-.3-5H17.9l-2.6 5H0L23.3 1H40zm25 0 1.4 21.6L78.1 1h15.3L68.7 40H55.9L49.7 1H65zM28.8 13.2l-6.1 12.6h6.1V13.2zM114.2 1l-1.8 7.4-15.8 5.4L99.7 1h14.5z"/></g></svg>
