<?xml version="1.0" encoding="utf-8"?>
<!-- Generator: Adobe Illustrator 26.1.0, SVG Export Plug-In . SVG Version: 6.00 Build 0)  -->
<svg version="1.1" id="Layer_1" xmlns="http://www.w3.org/2000/svg" xmlns:xlink="http://www.w3.org/1999/xlink" x="0px" y="0px"
	 width="64.2px" height="83.2px" viewBox="0 0 64.2 83.2" enable-background="new 0 0 64.2 83.2" xml:space="preserve">
<path fill="#9CA3AF" d="M40.9,53.3c0,1.3-0.4,2.8-2,2.8c-1.6,0-2-1.6-2-2.9c0-1.3,0.5-2.8,2-2.8C40.5,50.4,40.9,52,40.9,53.3z
	 M13.9,54.9c0,0.8,0.7,1.1,1.5,1.1c0.4,0,0.8-0.1,1.1-0.3c0.3-0.2,0.3-0.5,0.3-0.9v-1.8l-1.2,0.4C14.9,53.7,13.9,54,13.9,54.9z
	 M64.2,61.2c-0.1-0.3-32.3,38-56.1,11.9c0,0-17.4-15.2-1-71.9C7,1.2,52.6,18.1,64.2,61.2z M11.6,53.2c0-2.2-1.3-4.1-3.6-4.1
	c-0.6,0-1,0.1-1.6,0.3c-0.3,0.1-0.4,0.2-0.7,0.2v-3.4c0-0.1-0.1-0.2-0.2-0.2H4.1c-0.1,0-0.2,0.1-0.2,0.2V57c0,0.1,0.1,0.2,0.2,0.2
	h1.3c0.3,0,0.2-0.2,0.2-0.4c0.3,0,0.5,0.1,0.7,0.3c0.4,0.2,0.9,0.3,1.4,0.3C10.1,57.4,11.6,55.5,11.6,53.2z M18.8,51.3
	c0-1.8-1.5-2.2-3-2.2c-1,0-2,0.1-2.9,0.5c-0.2,0.1-0.3,0.2-0.3,0.4v0.9c0,0.1,0,0.3,0.2,0.3c0.1,0,0.2,0,0.3-0.1
	c0.8-0.4,1.6-0.7,2.5-0.7c0.6,0,1.4,0.2,1.4,0.9c0,0.4-0.3,0.5-0.6,0.6l-1.7,0.5c-1.4,0.5-2.6,1-2.6,2.6c0,1.6,1.1,2.4,2.6,2.4
	c0.6,0,0.9-0.1,1.5-0.3c0.3-0.1,0.5-0.2,0.8-0.2H17c0,0.2,0,0.4,0.2,0.4h1.3c0.1,0,0.2-0.1,0.2-0.2V51.3z M27.3,53.2
	c0-2.2-1.3-4.1-3.6-4.1c-0.6,0-1,0.1-1.6,0.3c-0.3,0.1-0.4,0.2-0.7,0.2v-3.4c0-0.1-0.1-0.2-0.2-0.2h-1.5c-0.1,0-0.2,0.1-0.2,0.2V57
	c0,0.1,0.1,0.2,0.2,0.2h1.3c0.3,0,0.2-0.2,0.2-0.4c0.3,0,0.5,0.1,0.7,0.3c0.4,0.2,0.9,0.3,1.4,0.3C25.8,57.4,27.3,55.5,27.3,53.2z
	 M34.4,55.4c-0.1,0-0.2,0-0.3,0.1c-0.6,0.3-1.3,0.5-1.9,0.5c-1.8,0-2.3-1.2-2.3-2.8c0-1.7,0.6-2.8,2.4-2.8c0.6,0,1.2,0.2,1.8,0.4
	c0.1,0,0.2,0.1,0.3,0.1c0.1,0,0.2-0.1,0.2-0.2v-0.9c0-0.4-0.5-0.5-0.8-0.6C33.2,49.1,32.6,49,32,49c-2.5,0-4,1.8-4,4.2
	c0,2.5,1.4,4.1,4,4.1c0.7,0,1.7-0.2,2.4-0.5c0.2-0.1,0.3-0.1,0.3-0.4C34.6,56.3,34.7,55.4,34.4,55.4z M42.8,53.3
	c0-2.5-1.2-4.2-3.8-4.2c-1.1,0-1.9,0.1-2.8,0.9c-1,0.9-1.3,2.1-1.3,3.4c0,1.3,0.3,2.5,1.3,3.4c0.8,0.7,1.6,0.9,2.7,0.9
	c1,0,1.9-0.2,2.7-0.9C42.6,55.8,42.8,54.6,42.8,53.3z M49.9,55.4c-0.1,0-0.2,0-0.3,0.1c-0.6,0.3-1.3,0.5-1.9,0.5
	c-1.8,0-2.3-1.2-2.3-2.8c0-1.7,0.6-2.8,2.4-2.8c0.6,0,1.2,0.2,1.8,0.4c0.1,0,0.2,0.1,0.3,0.1c0.1,0,0.2-0.1,0.2-0.2v-0.9
	c0-0.4-0.5-0.5-0.8-0.6c-0.6-0.2-1.2-0.2-1.8-0.2c-2.5,0-4,1.8-4,4.2c0,2.5,1.4,4.1,4,4.1c0.7,0,1.7-0.2,2.4-0.5
	c0.2-0.1,0.3-0.1,0.3-0.4C50.1,56.3,50.2,55.4,49.9,55.4z M58,57.1c0-0.1-0.1-0.2-0.2-0.3l-3-4.1l2.8-3c0.1-0.1,0.2-0.2,0.2-0.3
	s-0.1-0.2-0.2-0.2H56c-0.2,0-0.3,0.1-0.4,0.2l-2.4,2.7c-0.1,0.1-0.1,0.1-0.2,0.1h-0.2v-6.1c0-0.1-0.1-0.2-0.2-0.2h-1.5
	c-0.1,0-0.2,0.1-0.2,0.2V57c0,0.1,0.1,0.2,0.2,0.2h1.5c0.1,0,0.2-0.1,0.2-0.2v-3.6c0.2,0,0.3,0,0.4,0.1l2.3,3.4
	c0.1,0.2,0.2,0.3,0.5,0.3h1.7C57.8,57.3,58,57.2,58,57.1z M7.4,50.4c-0.4,0-0.8,0.1-1.1,0.3c-0.4,0.2-0.5,0.5-0.5,0.9v3.3
	c0,0.9,0.8,1.2,1.6,1.2C8,56,8.6,55.8,9,55.4c0.6-0.6,0.6-1.4,0.6-2.2C9.6,51.7,9.1,50.4,7.4,50.4z M23.1,50.4
	c-0.4,0-0.8,0.1-1.1,0.3c-0.4,0.2-0.5,0.5-0.5,0.9v3.3c0,0.9,0.8,1.2,1.6,1.2c0.6,0,1.2-0.2,1.6-0.6c0.6-0.6,0.6-1.4,0.6-2.2
	C25.3,51.7,24.7,50.4,23.1,50.4z"/>
</svg>
