<?xml version="1.0" encoding="utf-8"?>
<!-- Generator: Adobe Illustrator 26.1.0, SVG Export Plug-In . SVG Version: 6.00 Build 0)  -->
<svg version="1.1" id="Layer_1" xmlns="http://www.w3.org/2000/svg" xmlns:xlink="http://www.w3.org/1999/xlink" x="0px" y="0px"
	 width="264px" height="55px" viewBox="0 0 264 55" enable-background="new 0 0 264 55" xml:space="preserve">
<path fill="#9CA3AF" d="M47.5,45.6v0.9h-2.6v7.2h-1.1v-7.2h-2.6v-0.9H47.5z M56.9,53.8h-1.1V50h-4.4v3.7h-1.1v-8.2h1.1v3.6h4.4v-3.6
	h1.1V53.8z M65.5,45.6v0.9h-3.9v2.7h3.2v0.9h-3.2v2.8h3.9v0.9h-5v-8.2H65.5z M70.5,45.6h0.9c0.1,0,0.2,0,0.2,0.1s0.1,0.1,0.1,0.2
	l1.7,5.7c0,0.1,0.1,0.2,0.1,0.3c0,0.1,0.1,0.2,0.1,0.4c0-0.1,0.1-0.2,0.1-0.4s0.1-0.2,0.1-0.3l1.9-5.7c0-0.1,0.1-0.1,0.1-0.2
	c0.1,0,0.2-0.1,0.2-0.1h0.3c0.1,0,0.2,0,0.2,0.1s0.1,0.1,0.1,0.2l1.9,5.7c0.1,0.2,0.1,0.4,0.2,0.7c0-0.1,0-0.2,0.1-0.4
	c0-0.1,0-0.2,0.1-0.3l1.7-5.7c0-0.1,0.1-0.1,0.1-0.2s0.2-0.1,0.2-0.1h0.9l-2.5,8.2h-1l-2.1-6.2c0-0.1-0.1-0.2-0.1-0.4
	c0,0.1,0,0.2-0.1,0.2c0,0.1,0,0.1-0.1,0.2L74,53.8h-1L70.5,45.6z M89.6,45.6v0.9h-3.9v2.7h3.2v0.9h-3.2v2.8h3.9v0.9h-5v-8.2H89.6z
	 M93.9,52.8h3.5v0.9h-4.6v-8.2h1.1V52.8z M105.5,52.1c0.1,0,0.1,0,0.2,0.1l0.4,0.5c-0.3,0.4-0.7,0.7-1.2,0.9
	c-0.5,0.2-1.1,0.3-1.7,0.3c-0.6,0-1.1-0.1-1.6-0.3c-0.5-0.2-0.9-0.5-1.2-0.8c-0.3-0.4-0.6-0.8-0.8-1.3c-0.2-0.5-0.3-1.1-0.3-1.7
	c0-0.6,0.1-1.2,0.3-1.7c0.2-0.5,0.5-1,0.8-1.3c0.4-0.4,0.8-0.7,1.3-0.9c0.5-0.2,1.1-0.3,1.7-0.3c0.6,0,1.1,0.1,1.6,0.3
	s0.8,0.4,1.2,0.8l-0.4,0.5c0,0-0.1,0.1-0.1,0.1s-0.1,0-0.2,0c-0.1,0-0.1,0-0.2,0c-0.1,0-0.1-0.1-0.2-0.1c-0.1,0-0.2-0.1-0.3-0.2
	c-0.1-0.1-0.2-0.1-0.4-0.2s-0.3-0.1-0.5-0.1c-0.2,0-0.4,0-0.6,0c-0.4,0-0.8,0.1-1.2,0.2s-0.7,0.4-0.9,0.6c-0.3,0.3-0.5,0.6-0.6,1
	c-0.2,0.4-0.2,0.8-0.2,1.3c0,0.5,0.1,1,0.2,1.4s0.3,0.7,0.6,1s0.6,0.5,0.9,0.6c0.3,0.1,0.7,0.2,1.1,0.2c0.2,0,0.5,0,0.7,0
	c0.2,0,0.4-0.1,0.5-0.1c0.2-0.1,0.3-0.1,0.5-0.2s0.3-0.2,0.4-0.3C105.4,52.1,105.5,52.1,105.5,52.1z M116.7,49.7
	c0,0.6-0.1,1.2-0.3,1.7c-0.2,0.5-0.5,1-0.8,1.3s-0.8,0.7-1.3,0.9c-0.5,0.2-1,0.3-1.6,0.3s-1.2-0.1-1.6-0.3s-0.9-0.5-1.3-0.9
	s-0.6-0.8-0.8-1.3s-0.3-1.1-0.3-1.7s0.1-1.2,0.3-1.7c0.2-0.5,0.5-1,0.8-1.3s0.8-0.7,1.3-0.9s1-0.3,1.6-0.3s1.2,0.1,1.6,0.3
	c0.5,0.2,0.9,0.5,1.3,0.9s0.6,0.8,0.8,1.3S116.7,49.1,116.7,49.7z M115.6,49.7c0-0.5-0.1-1-0.2-1.3c-0.1-0.4-0.3-0.7-0.6-1
	c-0.2-0.3-0.6-0.5-0.9-0.6c-0.4-0.2-0.8-0.2-1.2-0.2s-0.8,0.1-1.2,0.2s-0.7,0.4-0.9,0.6s-0.4,0.6-0.6,1c-0.1,0.4-0.2,0.8-0.2,1.3
	s0.1,1,0.2,1.3c0.1,0.4,0.3,0.7,0.6,1c0.2,0.3,0.6,0.5,0.9,0.6c0.4,0.2,0.8,0.2,1.2,0.2s0.8-0.1,1.2-0.2c0.4-0.2,0.7-0.4,0.9-0.6
	s0.4-0.6,0.6-1C115.5,50.6,115.6,50.2,115.6,49.7z M124,51.1c0,0.1,0.1,0.2,0.1,0.3c0-0.1,0.1-0.2,0.1-0.3c0-0.1,0.1-0.2,0.1-0.3
	l2.8-5c0.1-0.1,0.1-0.1,0.2-0.2s0.1,0,0.2,0h0.8v8.1h-1v-6c0-0.1,0-0.2,0-0.3c0-0.1,0-0.2,0-0.3l-2.8,5.1c-0.1,0.2-0.2,0.3-0.4,0.3
	H124c-0.2,0-0.3-0.1-0.4-0.3l-2.9-5.1c0,0.1,0,0.2,0,0.3s0,0.2,0,0.3v6h-1v-8.2h0.8c0.1,0,0.2,0,0.2,0c0.1,0,0.1,0.1,0.2,0.2l2.8,5
	C123.9,50.9,123.9,51,124,51.1z M136.9,45.6v0.9H133v2.7h3.2v0.9H133v2.8h3.9v0.9h-5v-8.2H136.9z M149.9,49.7c0,0.6-0.1,1.2-0.3,1.7
	c-0.2,0.5-0.5,0.9-0.8,1.3s-0.8,0.6-1.3,0.8s-1,0.3-1.6,0.3h-3.1v-8.2h3.1c0.6,0,1.1,0.1,1.6,0.3c0.5,0.2,0.9,0.5,1.3,0.8
	s0.6,0.8,0.8,1.3C149.8,48.5,149.9,49.1,149.9,49.7z M148.8,49.7c0-0.5-0.1-1-0.2-1.3c-0.1-0.4-0.3-0.7-0.6-1s-0.6-0.5-0.9-0.6
	c-0.4-0.1-0.8-0.2-1.2-0.2H144v6.4h1.9c0.4,0,0.8-0.1,1.2-0.2c0.4-0.1,0.7-0.3,0.9-0.6s0.4-0.6,0.6-1
	C148.7,50.6,148.8,50.2,148.8,49.7z M154.3,53.8h-1.1v-8.2h1.1V53.8z M163.1,45.6v0.9h-3.9v2.8h3.3v0.9h-3.3v3.5h-1.1v-8.2H163.1z
	 M171.2,45.6v0.9h-3.9v2.8h3.3v0.9h-3.3v3.5h-1.1v-8.2H171.2z M179.2,45.6v0.9h-3.9v2.7h3.2v0.9h-3.2v2.8h3.9v0.9h-5v-8.2H179.2z
	 M183.6,50.3v3.4h-1.1v-8.2h2.3c0.5,0,1,0,1.3,0.2c0.4,0.1,0.7,0.3,0.9,0.5c0.2,0.2,0.4,0.4,0.5,0.7c0.1,0.3,0.2,0.6,0.2,0.9
	c0,0.3-0.1,0.6-0.1,0.8s-0.2,0.5-0.4,0.7c-0.2,0.2-0.4,0.4-0.6,0.5s-0.5,0.2-0.8,0.3c0.1,0.1,0.3,0.2,0.4,0.3l2.4,3.2h-1
	c-0.2,0-0.4-0.1-0.4-0.2l-2.1-2.9c-0.1-0.1-0.1-0.2-0.2-0.2s-0.2-0.1-0.3-0.1L183.6,50.3L183.6,50.3z M183.6,49.5h1.1
	c0.3,0,0.6,0,0.9-0.1c0.2-0.1,0.4-0.2,0.6-0.3c0.2-0.1,0.3-0.3,0.4-0.5c0.1-0.2,0.1-0.4,0.1-0.7c0-0.5-0.2-0.8-0.5-1.1
	c-0.3-0.2-0.8-0.4-1.4-0.4h-1.2L183.6,49.5L183.6,49.5z M196.3,45.6v0.9h-3.9v2.7h3.2v0.9h-3.2v2.8h3.9v0.9h-5v-8.2H196.3z
	 M200.3,45.6c0.1,0,0.1,0.1,0.2,0.2l4.7,6.1c0-0.1,0-0.2,0-0.3c0-0.1,0-0.2,0-0.3v-5.8h1v8.2h-0.6c-0.1,0-0.2,0-0.2,0
	s-0.1-0.1-0.2-0.2l-4.7-6.1c0,0.1,0,0.2,0,0.3s0,0.2,0,0.2v5.8h-1v-8.2h0.6C200.2,45.6,200.2,45.6,200.3,45.6z M215.4,52.1
	c0.1,0,0.1,0,0.2,0.1l0.4,0.5c-0.3,0.4-0.7,0.7-1.2,0.9c-0.5,0.2-1.1,0.3-1.7,0.3c-0.6,0-1.1-0.1-1.6-0.3c-0.5-0.2-0.9-0.5-1.2-0.8
	s-0.6-0.8-0.8-1.3c-0.2-0.5-0.3-1.1-0.3-1.7c0-0.6,0.1-1.2,0.3-1.7s0.5-1,0.8-1.3s0.8-0.7,1.3-0.9c0.5-0.2,1.1-0.3,1.7-0.3
	s1.1,0.1,1.6,0.3c0.4,0.2,0.8,0.4,1.2,0.8l-0.4,0.5c0,0-0.1,0.1-0.1,0.1s-0.1,0-0.1,0c-0.1,0-0.1,0-0.2,0c-0.1,0-0.1-0.1-0.2-0.1
	s-0.2-0.1-0.3-0.2c-0.1-0.1-0.2-0.1-0.4-0.2s-0.3-0.1-0.5-0.1c-0.2,0-0.4,0-0.6,0c-0.4,0-0.8,0.1-1.2,0.2s-0.7,0.4-0.9,0.6
	c-0.3,0.3-0.5,0.6-0.6,1c-0.1,0.4-0.2,0.8-0.2,1.3c0,0.5,0.1,1,0.2,1.4s0.4,0.7,0.6,1s0.6,0.5,0.9,0.6c0.4,0.1,0.7,0.2,1.1,0.2
	c0.2,0,0.5,0,0.6,0c0.2,0,0.4-0.1,0.5-0.1c0.2-0.1,0.3-0.1,0.5-0.2s0.3-0.2,0.4-0.3C215.3,52.1,215.4,52.1,215.4,52.1z M224.1,45.6
	v0.9h-3.9v2.7h3.2v0.9h-3.2v2.8h3.9v0.9h-5v-8.2H224.1z"/>
<path fill="#9CA3AF" d="M6.2,19.8c0,0.1,0,0.2,0,0.3c0,2.1,1.4,3.9,3.3,4.5h14.6v-4.8H6.2z"/>
<path fill="#9CA3AF" d="M133.6,38.5c-2.7,0-5.1-1-6.6-1.8c-1.6-0.9-2.8-1.9-3.8-3.2c-0.8-1-0.6-2.5,0.4-3.4s2.5-0.6,3.3,0.4
	c0.7,0.9,1.4,1.4,2.4,2c1.4,0.8,3,1.2,4.3,1.2c1.6,0,2.9-0.2,3.8-0.7c0.8-0.4,1.3-0.8,1.7-1.3c0.3-0.5,0.5-1,0.5-1.6
	c0-0.6-0.1-0.9-0.3-1.1c-0.1-0.1-0.4-0.5-1.4-1c-0.7-0.4-2-0.9-4.4-1.4c-2-0.4-3.5-0.8-4.6-1.3c-1.7-0.7-2.9-1.6-3.6-2.8
	c-0.7-1.1-1.1-2.4-1.1-3.8c0-2.5,1.4-4.6,3.7-5.7c1.5-0.7,3.3-1.1,5.3-1.1c1.6,0,3.1,0.2,4.4,0.6c1.5,0.5,2.9,1.3,4.1,2.5
	c0.9,0.9,1,2.4,0.1,3.4c-0.9,1-2.4,1-3.4,0.1c-0.7-0.7-1.5-1.1-2.3-1.4c-0.8-0.3-1.8-0.4-2.9-0.4c-1.3,0-2.3,0.2-3.2,0.6
	c-0.9,0.5-1.1,1.1-1.1,1.5c0,0.4,0.1,0.8,0.3,1.1c0.2,0.3,0.7,0.7,1.4,1c0.8,0.3,2.1,0.7,3.7,1c2.4,0.5,4.3,1.1,5.7,1.8
	c1.4,0.8,2.5,1.7,3.2,2.7c0.7,1.1,1,2.3,1,3.6c0,1.6-0.4,3-1.2,4.2c-0.8,1.3-2,2.2-3.6,3C137.9,38.2,135.9,38.5,133.6,38.5z
	 M251.3,38.5c-2.7,0-5.1-1-6.6-1.8c-1.6-0.9-2.8-1.9-3.8-3.2c-0.8-1-0.6-2.5,0.4-3.4c1-0.8,2.5-0.6,3.4,0.4c0.7,0.9,1.4,1.4,2.4,2
	c1.4,0.8,3,1.2,4.3,1.2c1.6,0,2.9-0.2,3.8-0.7c0.8-0.4,1.3-0.8,1.7-1.3c0.3-0.5,0.5-1,0.5-1.6c0-0.6-0.1-0.9-0.3-1.1
	c-0.1-0.1-0.4-0.5-1.4-1c-0.7-0.4-2-0.9-4.4-1.4c-2-0.4-3.5-0.8-4.6-1.3c-1.7-0.7-2.9-1.6-3.6-2.8c-0.7-1.1-1.1-2.4-1.1-3.8
	c0-2.5,1.4-4.6,3.7-5.7c1.5-0.7,3.3-1.1,5.3-1.1c1.6,0,3.1,0.2,4.4,0.6c1.5,0.5,2.9,1.3,4.2,2.5c1,0.9,1,2.4,0.1,3.4s-2.4,1-3.4,0.1
	c-0.7-0.7-1.5-1.1-2.3-1.4c-0.8-0.3-1.8-0.4-2.9-0.4c-1.3,0-2.3,0.2-3.2,0.6c-0.9,0.5-1.1,1.1-1.1,1.5c0,0.4,0.1,0.8,0.3,1.1
	c0.2,0.3,0.7,0.7,1.4,1c0.8,0.3,2.1,0.7,3.7,1c2.4,0.5,4.3,1.1,5.7,1.8c1.5,0.8,2.5,1.7,3.2,2.7c0.7,1.1,1,2.3,1,3.6
	c0,1.6-0.4,3-1.2,4.2c-0.8,1.3-2,2.2-3.6,3C255.6,38.2,253.6,38.5,251.3,38.5z M117.6,38.7c-1.3,0-2.4-1.1-2.4-2.4V14.4
	c0-1.3,1.1-2.4,2.4-2.4c1.3,0,2.4,1.1,2.4,2.4v21.9C120,37.7,118.9,38.7,117.6,38.7z M51.4,38.6c-1.3,0-2.4-1.1-2.4-2.4V3.1
	c0-1.3,1.1-2.4,2.4-2.4c1.3,0,2.4,1.1,2.4,2.4v33.1C53.8,37.5,52.7,38.6,51.4,38.6z M149.4,38.7c-1.3,0-2.4-1.1-2.4-2.4V3.3
	c0-1.3,1.1-2.4,2.4-2.4s2.4,1.1,2.4,2.4v33.1C151.8,37.7,150.7,38.7,149.4,38.7z M238.6,3.3c0-1.3-1.1-2.4-2.4-2.4s-2.4,1.1-2.4,2.4
	v12.1c-2.3-1.9-5.2-3.1-8.4-3.1c-7.3,0-13.2,5.9-13.2,13.2s5.9,13.2,13.2,13.2s13.2-5.9,13.2-13.2c0-0.1,0-0.1,0-0.2
	c0,0,0-0.1,0-0.1L238.6,3.3L238.6,3.3z M225.4,34c-4.6,0-8.4-3.8-8.4-8.4s3.8-8.4,8.4-8.4s8.4,3.8,8.4,8.4S230,34,225.4,34z
	 M167.5,12.3c-7.3,0-13.2,5.9-13.2,13.2s5.9,13.2,13.2,13.2c3.2,0,6.1-1.2,8.4-3v0.7c0,1.3,1.1,2.4,2.4,2.4s2.4-1.1,2.4-2.4V25.5
	C180.7,18.2,174.8,12.3,167.5,12.3z M167.5,34c-4.6,0-8.4-3.8-8.4-8.4s3.8-8.4,8.4-8.4s8.4,3.8,8.4,8.4S172.2,34,167.5,34z
	 M99.4,38.7c-7.3,0-13.2-5.9-13.2-13.2c0-0.5,0-0.9,0.1-1.4c0,0,0,0,0-0.1c0.7-6.6,6.3-11.8,13.1-11.8c6.4,0,11.9,4.6,13,10.9
	c0.1,0.3,0.1,0.6,0.1,1c0.1,0.7-0.2,1.3-0.6,1.8s-1.1,0.8-1.8,0.8l0,0l-19.1,0c0.6,4.1,4.1,7.2,8.3,7.2c2.7,0,5.2-1.2,6.8-3.4
	c0.8-1.1,2.3-1.3,3.3-0.5s1.3,2.3,0.5,3.3C107.5,36.7,103.6,38.7,99.4,38.7z M91.8,22l15.3,0c-1.3-2.9-4.3-4.9-7.7-4.9
	C96,17.1,93.1,19.1,91.8,22z M70.4,38.6c-7.3,0-13.2-5.9-13.2-13.2v-11c0-1.3,1.1-2.4,2.4-2.4s2.4,1.1,2.4,2.4v11
	c0,4.6,3.8,8.4,8.4,8.4c4.7,0,8.4-3.8,8.4-8.4v-11c0-1.3,1.1-2.4,2.4-2.4c1.3,0,2.4,1.1,2.4,2.4v11C83.6,32.6,77.7,38.6,70.4,38.6z
	 M207.6,38.6c-1.3,0-2.4-1.1-2.4-2.4v-11c0-4.6-3.8-8.4-8.4-8.4c-4.6,0-8.4,3.8-8.4,8.4v11c0,1.3-1.1,2.4-2.4,2.4s-2.4-1.1-2.4-2.4
	v-11c0-7.3,5.9-13.2,13.2-13.2S210,17.9,210,25.2v11C210,37.5,208.9,38.6,207.6,38.6z M117.8,2.8c1.5,0,2.8,1.3,2.8,2.8
	s-1.3,2.8-2.8,2.8S115,7.1,115,5.6S116.2,2.8,117.8,2.8z M32.7,12.2h-8.4V3.1c0-1.3-1.1-2.4-2.4-2.4c-1.3,0-2.4,1.1-2.4,2.4v9.1H0.9
	c0,0.1,0,0.2,0,0.3c0,2.1,1.4,3.9,3.2,4.5h28.5c4.7,0,8.4,3.8,8.4,8.4s-3.8,8.4-8.4,8.4c-3.3,0-6.3-2-7.7-5l-0.6-1.4h-13
	c0,0.1,0,0.2,0,0.2c0,2.1,1.4,3.9,3.3,4.5h6.8c2.4,3.9,6.6,6.4,11.3,6.4c7.3,0,13.2-5.9,13.2-13.2S39.9,12.2,32.7,12.2z"/>
</svg>
