<svg xmlns="http://www.w3.org/2000/svg" width="280" height="200" xml:space="preserve"><path fill="#9CA3AF" d="m97.3 114.3-14.8-8.5.3-18.1.2-18.1 12.5-7.2 12.5-7.2.5-15.3.5-15.3 15.6-8.8L140.2 7l15.6 8.7 15.6 8.7v30.4l13.5 7.6 13.5 7.6v34.8l-2.8 1.9c-3.9 2.7-28.1 16.2-29 16.2-.4 0-6.3-3.2-13.1-7s-12.9-7-13.4-7-6.6 3.2-13.3 7-12.8 7-13.5 6.9c-.7.1-7.9-3.8-16-8.5zm11.2-14.6v-9.2l-7.5-4.2c-4-2.4-7.9-4.3-8.4-4.3-.6 0-1 3.5-1 8.9v8.9l8.2 4.5c4.5 2.5 8.4 4.5 8.5 4.6.1.1.2-4.1.2-9.2zm19.1 4.7 8-4.6V81l-5.2 3.1c-2.9 1.7-6.7 3.8-8.5 4.7l-3.2 1.6v9.3c0 5.1 0 9.6.2 9.3.1-.3 4.3-2.1 8.7-4.6zm33.9-4.7v-9.3l-7.4-4.2c-4.1-2.3-7.7-4.2-8-4.2-.3 0-.6 4.2-.6 9.2v9.2l7.7 4.2c4.3 2.3 7.9 4.2 8 4.2.2.2.3-4 .3-9.1zm19.1 4.7 8-4.6V81l-5.2 3.1c-2.9 1.7-6.7 3.8-8.5 4.7l-3.2 1.6v9.3c0 5.1.2 9.3.5 9.3.2 0 4-2.1 8.4-4.6zm-59.1-26.7c4.1-2.3 7.4-4.7 7.2-5.2-.2-.5-3.6-2.8-7.7-5l-7.4-4-6.3 3.4c-11.2 6.1-11 5.3-2.2 10.5 4.3 2.5 8.1 4.6 8.3 4.6.4 0 4-1.9 8.1-4.3zm52.6.2c4-2.2 7.6-4.4 7.9-4.9.6-1-13.5-9-15.6-9-.8 0-4.7 2-8.8 4.4l-7.4 4.3 7.9 4.6c4.3 2.5 8 4.6 8.3 4.6s3.7-1.7 7.7-4zm-38.6-23.2v-9.3l-3.2-1.6c-1.8-.9-5.6-3-8.5-4.7l-5.2-3.1v18.8l7.8 4.5c4.3 2.5 8.1 4.6 8.5 4.6.3.1.6-4.1.6-9.2zm18.8 4.4 7.2-4.2V36.1l-8 4.5-8 4.5v9.5c0 5.2.3 9.3.8 9 .4-.1 4-2.2 8-4.5zm-5.4-27c8.8-4.9 9-4.1-2.3-10.4l-6.5-3.6-8.2 4.7-8.2 4.7 8.2 4.7c4.5 2.6 8.5 4.5 8.7 4.4.3 0 4-2.1 8.3-4.5zM40.7 152.1l-8.5 1.5c-.3-1.7-.9-2.9-2-3.8-1-.8-2.3-1.3-4-1.3-2.2 0-3.9.7-5.2 2.2-1.3 1.5-1.9 3.9-1.9 7.3 0 3.8.7 6.5 2 8.1 1.3 1.6 3.1 2.4 5.3 2.4 1.6 0 3-.5 4-1.4 1-.9 1.8-2.5 2.2-4.7l8.5 1.4c-.9 3.8-2.6 6.7-5.1 8.7-2.5 2-5.9 2.9-10.1 2.9-4.8 0-8.6-1.5-11.4-4.4-2.8-3-4.3-7.1-4.3-12.3 0-5.3 1.4-9.4 4.3-12.4s6.7-4.4 11.6-4.4c4 0 7.2.8 9.5 2.5 2.4 1.7 4.1 4.3 5.1 7.7zm13 .3-7.9-1.4c.9-3.1 2.4-5.4 4.6-6.9 2.2-1.5 5.4-2.2 9.6-2.2 3.9 0 6.7.4 8.6 1.3 1.9.9 3.2 2 4 3.4.8 1.4 1.2 3.9 1.2 7.6l-.1 9.9c0 2.8.1 4.9.4 6.2.3 1.3.8 2.8 1.6 4.3h-8.6c-.2-.6-.5-1.4-.8-2.5-.1-.5-.2-.8-.3-1-1.5 1.4-3.1 2.5-4.7 3.2-1.7.7-3.5 1.1-5.4 1.1-3.4 0-6-.9-8-2.7-1.9-1.7-2.9-4-2.9-6.7 0-1.8.4-3.4 1.3-4.9.9-1.4 2.1-2.5 3.7-3.3 1.6-.8 3.9-1.4 6.9-2 4-.7 6.8-1.4 8.4-2.1v-.8c0-1.6-.4-2.8-1.2-3.5-.8-.7-2.4-1-4.7-1-1.5 0-2.7.3-3.6.9-.8.6-1.5 1.6-2.1 3.1zm11.6 6.9c-1.1.4-2.9.8-5.3 1.3s-4 1-4.7 1.5c-1.1.8-1.7 1.8-1.7 3s.5 2.2 1.4 3.1c.9.9 2.1 1.3 3.4 1.3 1.6 0 3-.5 4.5-1.5 1-.8 1.7-1.7 2.1-2.8.2-.7.3-2.1.3-4.1v-1.8zm25.4 15.5H82v-32.1h8v4.6c1.4-2.2 2.6-3.6 3.7-4.3 1.1-.7 2.3-1 3.7-1 2 0 3.9.5 5.7 1.6l-2.7 7.4c-1.5-.9-2.8-1.4-4.1-1.4-1.2 0-2.2.3-3.1 1-.8.7-1.5 1.8-2 3.6-.5 1.7-.7 5.3-.7 10.8v9.8zm15.4 2.1 9.9 1.2c.2 1.1.5 1.9 1.1 2.3.8.6 2.1.9 3.9.9 2.3 0 4-.3 5.1-1 .8-.4 1.3-1.2 1.7-2.1.3-.7.4-2 .4-3.9v-4.7c-2.6 3.5-5.9 5.2-9.8 5.2-4.4 0-7.9-1.8-10.4-5.5-2-2.9-3-6.5-3-10.8 0-5.4 1.3-9.5 4-12.3 2.6-2.8 5.9-4.3 9.8-4.3 4 0 7.4 1.7 10 5.2v-4.5h8.1v28.8c0 3.8-.3 6.6-1 8.5-.6 1.9-1.5 3.3-2.7 4.4-1.1 1.1-2.7 1.9-4.6 2.5-1.9.6-4.3.9-7.3.9-5.5 0-9.5-.9-11.8-2.8-2.3-1.9-3.5-4.2-3.5-7.1.1-.2.1-.5.1-.9zm7.7-18.9c0 3.4.7 5.9 2 7.5 1.3 1.6 3 2.4 5 2.4 2.1 0 3.9-.8 5.4-2.4 1.5-1.6 2.2-4 2.2-7.2 0-3.3-.7-5.8-2.1-7.4-1.4-1.6-3.2-2.4-5.3-2.4-2.1 0-3.8.8-5.1 2.4-1.4 1.5-2.1 3.9-2.1 7.1zm29.7.2c0-2.8.7-5.6 2.1-8.2 1.4-2.6 3.4-4.7 6-6.1 2.6-1.4 5.5-2.1 8.7-2.1 4.9 0 9 1.6 12.2 4.7 3.2 3.2 4.7 7.1 4.7 12s-1.6 8.9-4.8 12.1c-3.2 3.2-7.2 4.8-12.1 4.8-3 0-5.9-.7-8.6-2-2.7-1.3-4.8-3.3-6.2-5.9-1.3-2.4-2-5.6-2-9.3zm8.8.5c0 3.2.8 5.6 2.3 7.3 1.5 1.7 3.4 2.5 5.7 2.5 2.3 0 4.2-.8 5.7-2.5s2.3-4.2 2.3-7.4c0-3.1-.8-5.6-2.3-7.3-1.5-1.7-3.4-2.5-5.7-2.5-2.3 0-4.2.8-5.7 2.5-1.5 1.8-2.3 4.2-2.3 7.4zm31.7 16.1v-44.4h8.7v44.4H184zm39.1 0V170c-1.2 1.7-2.8 3.1-4.7 4.1-1.9 1-4 1.5-6.1 1.5-2.2 0-4.2-.5-5.9-1.4-1.7-.9-3-2.3-3.8-4-.8-1.7-1.2-4.1-1.2-7.1v-20.3h8.7v14.8c0 4.5.2 7.3.5 8.3.3 1 .9 1.8 1.7 2.4.8.6 1.9.9 3.2.9 1.5 0 2.8-.4 4-1.2 1.2-.8 2-1.8 2.4-3 .4-1.2.6-4.1.6-8.7v-13.6h8.7v32.1h-8.1zm12.8 0 11.8-16.6-11.3-15.6H247l5.8 8.8 6.1-8.8H269l-11.1 15.2 12.1 16.9h-10.6l-6.7-10-6.7 10h-10.1z"/></svg>
