<?xml version="1.0" encoding="utf-8"?>
<!-- Generator: Adobe Illustrator 26.1.0, SVG Export Plug-In . SVG Version: 6.00 Build 0)  -->
<svg version="1.1" id="Layer_1" xmlns="http://www.w3.org/2000/svg" xmlns:xlink="http://www.w3.org/1999/xlink" x="0px" y="0px"
	 width="430px" height="60px" viewBox="0 0 430 60" enable-background="new 0 0 430 60" xml:space="preserve">
<path fill="#9CA3AF" d="M18.4,28.9c-0.2,0-0.4-0.3-0.5-0.4c0,0-0.1-0.3-0.1-0.3c0,0,0.3,0,0.3,0.1C18.2,28.4,18.3,28.5,18.4,28.9
	C18.4,28.8,18.4,28.9,18.4,28.9 M13.6,26.2c-0.1,0-0.5-0.3-0.6-0.5c-0.2-0.3-0.3-0.5-0.5-0.8c-0.2-0.2-0.3-0.4-0.4-0.8
	c0,0,0-0.2,0-0.2c0.2,0,0.4,0.3,0.4,0.5c0.1,0.1,0.1,0.2,0.2,0.3c0.1,0.1,0.1,0.3,0.2,0.4c0.1,0.2,0.3,0.3,0.4,0.5
	c0.1,0.1,0.2,0.2,0.2,0.3C13.6,26,13.7,26.2,13.6,26.2 M12.3,26.2c-0.1,0-0.1-0.1-0.2-0.1c-0.2-0.1-0.3-0.3-0.3-0.6c0,0,0,0,0,0
	c0.2,0,0.4,0.3,0.5,0.4C12.3,25.9,12.3,26,12.3,26.2C12.3,26.2,12.3,26.2,12.3,26.2 M7.8,27.1C7.8,27.1,7.8,27.1,7.8,27.1
	c-0.3,0-0.3-0.3-0.4-0.4c-0.1-0.1-0.1-0.3-0.2-0.4C7.1,26.2,7,26.1,7,26c-0.1-0.1-0.1-0.3-0.2-0.4c0-0.1-0.1-0.1-0.1-0.2
	c-0.1-0.2-0.2-0.3-0.3-0.5c0-0.1,0-0.1-0.1-0.2c0-0.1-0.1-0.3-0.1-0.4c0-0.1,0-0.2,0-0.2c0,0,0,0,0,0c0.2,0,0.3,0.4,0.4,0.6
	c0.1,0.2,0.2,0.3,0.3,0.4C7,25.3,7,25.5,7.1,25.6c0.1,0.1,0.2,0.2,0.2,0.3c0.1,0.1,0.1,0.3,0.2,0.5c0.1,0.2,0.2,0.3,0.3,0.5
	C7.8,26.9,7.8,27,7.8,27.1 M6.9,21c0-0.1-0.1-0.2-0.1-0.2c0-0.1,0-0.2-0.1-0.3c-0.1-0.3-0.3-0.6-0.4-0.9c-0.1-0.1-0.1-0.3-0.1-0.5
	c0,0,0.1,0,0.1,0c0,0,0.1,0.1,0.1,0.1c0,0,0,0.1,0.1,0.1c0.1,0.1,0.1,0.2,0.2,0.3c0.1,0.2,0.1,0.5,0.2,0.7c0.1,0.1,0.2,0.3,0.3,0.4
	c0,0.1,0.1,0.2,0.1,0.3c0,0.1,0,0.2,0,0.2c0,0.1,0,0.1,0,0.1C7.1,21.3,7,21.1,6.9,21 M49.7,39.9c-0.2-0.9-2.9-0.5-5.1-0.7
	c-2-0.2-4.6-0.5-7.7-1.6c-2.9-1-5.7-2.2-8.2-3.5c0,0-1-0.5-1.1-0.6c-0.2-0.1-0.4-0.2-0.6-0.3c-0.1-0.1-0.3-0.2-0.4-0.2
	c-0.2-0.1-0.3-0.2-0.4-0.3c-0.2-0.1-0.4-0.2-0.5-0.3c-0.2-0.1-0.4-0.2-0.6-0.4c-0.1-0.1-0.2-0.1-0.4-0.2c-0.1-0.1-0.3-0.2-0.4-0.2
	c-0.2-0.1-0.3-0.2-0.5-0.4c-0.1-0.1-0.2-0.1-0.4-0.2c-0.1-0.1-0.3-0.2-0.4-0.3c-0.1-0.1-0.2-0.1-0.2-0.2c-0.1-0.1-0.3-0.3-0.4-0.4
	c-0.1-0.1-0.3-0.2-0.4-0.3c-0.1-0.1-0.2-0.2-0.3-0.2c-0.2-0.2-0.4-0.3-0.6-0.4c-0.1-0.1-0.3-0.2-0.4-0.3c-0.2-0.1-0.3-0.3-0.5-0.4
	c-0.1-0.1-0.2-0.2-0.3-0.2c-0.1-0.1-0.2-0.2-0.3-0.3c-0.1-0.1-0.2-0.2-0.3-0.3c-0.1-0.2-0.3-0.4-0.5-0.5c-0.1-0.1-0.1-0.1-0.2-0.2
	c0,0-0.1-0.1-0.2-0.2c-0.1-0.1-0.1-0.1-0.2-0.2c0,0-0.1-0.1-0.2-0.2c0,0-0.1-0.1-0.2-0.2c-0.1-0.1-0.1-0.1-0.1-0.2
	c-0.1-0.1-0.2-0.2-0.3-0.3c-0.1-0.1-0.1-0.1-0.2-0.2c0,0-0.1-0.1-0.1-0.2c0-0.1-0.1-0.1-0.1-0.1C17.1,25,17,25,17,25
	c0,0-0.1,0.1,0,0.2c0.1,0.1,0.1,0.2,0.2,0.3c0,0,0,0,0,0c0,0,0,0.1,0.1,0.1c0,0.1,0.1,0.1,0.1,0.2c0.1,0.1,0.2,0.2,0.3,0.3
	c0,0,0.1,0.1,0.1,0.1c0.1,0.1,0.1,0.1,0.1,0.2c0,0.1,0.1,0.1,0.2,0.2c0,0,0.1,0.1,0.1,0.1c0,0,0.1,0.1,0.1,0.1
	c0.1,0,0.1,0.1,0.1,0.1c0.1,0.1,0.2,0.2,0.2,0.2c0.1,0.1,0.1,0.1,0.2,0.2c0.2,0.2,0.3,0.4,0.5,0.6c0.1,0.1,0.2,0.2,0.3,0.3
	c0.1,0.1,0.2,0.2,0.3,0.3c0.1,0.1,0.2,0.2,0.3,0.3c0.2,0.2,0.3,0.3,0.5,0.5c0.1,0.1,0.2,0.2,0.3,0.3c0.1,0.1,0.2,0.3,0.3,0.3
	c0.2,0.2,0.3,0.4,0.2,0.4c-0.1,0-0.4-0.2-0.6-0.3c-0.1-0.1-0.2-0.1-0.3-0.2c0,0-0.2-0.2-0.3-0.3c-0.1-0.1-0.2-0.2-0.3-0.3
	c-0.2-0.3-0.3-0.3-0.6-0.6c-0.2-0.2-0.5-0.4-0.7-0.6c-0.1-0.1-0.1-0.1-0.2-0.2c-0.1-0.1-0.1-0.1-0.2-0.2c-0.1-0.1-0.2-0.3-0.3-0.4
	c-0.1-0.1-0.2-0.2-0.3-0.3c0,0-0.1-0.1-0.1-0.1c-0.1,0-0.1-0.1-0.2-0.1c-0.1-0.2-0.3-0.4-0.4-0.5c-0.1-0.1-0.2-0.2-0.2-0.2
	c-0.1-0.2-0.2-0.4-0.4-0.6c-0.2-0.2-0.5-0.4-0.6-0.7c-0.2-0.3-0.3-0.6-0.5-0.8c-0.1-0.1-0.2-0.2-0.3-0.3c0-0.1-0.1-0.1-0.1-0.2
	c-0.1-0.1-0.2-0.3-0.3-0.4c-0.1-0.2-0.2-0.4-0.3-0.6c0,0-0.1-0.2-0.1-0.3c-0.1-0.1-0.1-0.2-0.2-0.3c-0.1-0.1-0.1-0.2-0.2-0.3
	c-0.1-0.1-0.1-0.2-0.1-0.3c0-0.1-0.1-0.2-0.2-0.2c-0.1-0.2-0.1-0.3-0.3-0.4c-0.1-0.1-0.2-0.2-0.2-0.2c-0.1,0,0,0.1,0,0.1
	c0.1,0.1,0.1,0.1,0.1,0.2c0.1,0.2,0.1,0.3,0.2,0.4c0,0.1,0.1,0.3,0.2,0.3c0.1,0.1,0.1,0.2,0.2,0.3c0.1,0.1,0.1,0.3,0.2,0.4
	c0.1,0.1,0.1,0.2,0.2,0.3c0.1,0.2,0.2,0.4,0.3,0.5c0.1,0.1,0.1,0.3,0.2,0.4c0.1,0.2,0.3,0.4,0.4,0.6c0.1,0.1,0.2,0.3,0.2,0.4
	c0.1,0.1,0.2,0.2,0.3,0.3c0.1,0.1,0.1,0.3,0.2,0.5c0.1,0.1,0.2,0.2,0.3,0.3c0.1,0.2,0.2,0.4,0.4,0.6c0.1,0.1,0.2,0.2,0.3,0.3
	c0.1,0.1,0.2,0.3,0.3,0.4c0.1,0.1,0.2,0.2,0.3,0.3c0.1,0.2,0.5,0.7,0.5,0.7c-0.2,0-0.6-0.4-0.8-0.6c-0.1-0.1-0.3-0.2-0.4-0.4
	c-0.1-0.2-0.2-0.4-0.4-0.6c-0.1-0.1-0.1-0.1-0.2-0.2c-0.1-0.1-0.2-0.3-0.3-0.4c0,0-0.1-0.1-0.1-0.1c-0.2-0.2-0.3-0.5-0.5-0.7
	c-0.1-0.1-0.2-0.2-0.2-0.3c-0.1-0.1-0.1-0.2-0.1-0.2c-0.1-0.1-0.2-0.2-0.2-0.3c-0.1-0.1-0.1-0.2-0.1-0.2c-0.1-0.1-0.2-0.3-0.3-0.4
	c-0.1-0.1-0.1-0.3-0.2-0.4c-0.2-0.3-0.4-0.6-0.6-0.9c0-0.1-0.1-0.2-0.1-0.2c-0.2-0.2-0.3-0.5-0.4-0.7c-0.1-0.1-0.1-0.2-0.1-0.3
	c-0.1-0.1-0.2-0.2-0.2-0.3c-0.1-0.1-0.1-0.2-0.1-0.3c-0.1-0.1-0.1-0.2-0.2-0.4c0-0.1-0.1-0.1-0.1-0.2c-0.2-0.3-0.3-0.6-0.5-0.9
	c-0.1-0.2-0.2-0.3-0.3-0.5c-0.1-0.2-0.2-0.4-0.2-0.5c0-0.1-0.1-0.2-0.1-0.4c-0.1-0.2-0.2-0.3-0.3-0.5c-0.1-0.1-0.1-0.3-0.1-0.4
	c0-0.1-0.1-0.1-0.1-0.1c0,0-0.1,0.1,0,0.2c0.1,0.2,0.2,0.4,0.2,0.5c0.1,0.2,0.2,0.5,0.3,0.7c0.1,0.1,0.1,0.2,0.2,0.4
	c0.1,0.2,0.2,0.4,0.3,0.6c0.1,0.1,0.1,0.2,0.2,0.3c0,0.1,0.1,0.1,0.1,0.2c0.1,0.1,0.1,0.3,0.1,0.4c0.1,0.1,0.2,0.3,0.2,0.4
	c0.3,0.7,0.7,1.4,1.1,2.1c0.1,0.2,0.2,0.4,0.3,0.6c0.1,0.2,0.3,0.3,0.4,0.5c0.1,0.2,0.1,0.4,0.2,0.5c0.1,0.2,0.3,0.4,0.5,0.7
	c0,0.1,0.1,0.1,0.1,0.2c0.1,0.1,0.1,0.2,0.2,0.3c0.1,0.1,0.1,0.3,0.2,0.4c0.1,0.1,0.2,0.2,0.3,0.3c0.1,0.1,0.2,0.3,0.3,0.5
	c0.1,0.1,0.2,0.2,0.3,0.3c0.1,0.2,0.6,0.7,0.7,0.9c0.2,0.2,0.5,0.6,0.7,0.9c0.1,0.1,0.2,0.3,0.2,0.4c-0.1,0.1-0.5-0.4-0.6-0.5
	c-0.2-0.2-0.3-0.4-0.5-0.6c0,0-0.5-0.4-0.5-0.5c0-0.1-0.1-0.1-0.1-0.2c-0.1-0.2-0.2-0.4-0.3-0.5c-0.1-0.1-0.1-0.1-0.2-0.2
	c-0.1-0.1-0.2-0.3-0.3-0.4c-0.1-0.2-0.3-0.4-0.5-0.6c-0.2-0.2-0.3-0.5-0.4-0.7c-0.1-0.1-0.2-0.2-0.3-0.3c0-0.1,0-0.1-0.1-0.2
	c-0.1-0.1-0.1-0.2-0.2-0.3c0-0.1-0.1-0.2-0.1-0.3c-0.2-0.3-0.3-0.5-0.5-0.8c-0.1-0.1-0.1-0.2-0.2-0.4c-0.1-0.2-0.3-0.4-0.4-0.6
	c-0.1-0.2-0.2-0.5-0.4-0.8c-0.1-0.2-0.2-0.3-0.3-0.5c-0.1-0.2-0.2-0.4-0.3-0.5c-0.1-0.2-0.2-0.3-0.3-0.5c-0.1-0.2-0.1-0.3-0.2-0.5
	c0-0.1-0.1-0.2-0.2-0.3c-0.1-0.1-0.1-0.2-0.1-0.4c-0.1-0.3-0.4-0.6-0.5-1c-0.1-0.2-0.2-0.5-0.3-0.7c0-0.1-0.1-0.3-0.1-0.4
	c-0.1-0.3-0.3-0.6-0.4-0.9c-0.1-0.2-0.1-0.3-0.2-0.5c0,0,0-0.1,0-0.1c-0.1-0.1-0.1-0.3-0.2-0.4c0-0.2-0.1-0.3-0.2-0.5
	c-0.2-0.5-0.4-1.1-0.6-1.7c0-0.1,0-0.2-0.1-0.3c-0.1-0.3-0.2-0.6-0.3-0.8c-0.1-0.1-0.2-0.1-0.2,0.1c0,0.2,0.1,0.2,0.1,0.4
	c0,0.1,0,0.2,0,0.2c0,0.1,0.1,0.2,0.1,0.3c0.1,0.2,0.1,0.3,0.1,0.5c0.1,0.2,0.2,0.4,0.2,0.7c0,0.1,0,0.2,0.1,0.3
	c0,0.1,0.1,0.2,0.1,0.3C8,14.5,8.1,14.7,8.2,15c0,0.2,0.1,0.3,0.1,0.5c0,0.1,0.1,0.2,0.1,0.3c0,0.1,0,0.2,0.1,0.2
	c0.1,0.2,0.1,0.4,0.2,0.5C8.8,16.7,8.9,16.9,9,17c0,0.1,0,0.1,0.1,0.2c0.2,0.5,0.4,1,0.6,1.4c0.1,0.1,0.1,0.2,0.1,0.3
	c0,0.1,0.1,0.2,0.1,0.3c0,0.1,0,0.1,0.1,0.2c0.1,0.1,0.2,0.2,0.2,0.4c0.2,0.4,0.3,0.7,0.6,1c0.2,0.3,0.3,0.7,0.4,1
	c0.1,0.2,0.2,0.3,0.3,0.5c0,0.1,0.1,0.2,0.1,0.2c0.1,0.2,0.2,0.3,0.3,0.5c0.1,0.1,0.1,0.2,0.2,0.3c0,0.1,0.1,0.4,0.1,0.4
	c0,0-0.2-0.1-0.3-0.1c-0.1-0.1-0.2-0.2-0.3-0.4c0-0.1-0.1-0.3-0.2-0.3c-0.1-0.2-0.3-0.4-0.4-0.6c-0.1-0.1-0.1-0.3-0.2-0.4
	c-0.1-0.2-0.2-0.5-0.4-0.7c-0.1-0.1-0.1-0.2-0.2-0.3c-0.1-0.1-0.1-0.2-0.2-0.3c-0.1-0.2-0.3-0.5-0.4-0.7c-0.1-0.2-0.1-0.3-0.2-0.5
	c0-0.1-0.1-0.1-0.1-0.2c-0.1-0.1-0.1-0.2-0.1-0.3c-0.1-0.1-0.2-0.3-0.2-0.4c-0.1-0.3-0.2-0.5-0.3-0.8c-0.1-0.1-0.2-0.2-0.2-0.3
	c-0.1-0.2-0.1-0.4-0.2-0.6c-0.2-0.5-0.5-1-0.7-1.6c0-0.1,0-0.2-0.1-0.3c-0.1-0.2-0.2-0.5-0.3-0.7c0-0.1-0.1-0.2-0.1-0.3
	C7.1,13.8,7,13.6,7,13.5c0-0.1,0-0.1,0-0.2c-0.1-0.1-0.1-0.3-0.2-0.5c0-0.1-0.1-0.2-0.1-0.3c-0.1-0.2,0-0.4-0.1-0.5
	c-0.1-0.2-0.2-0.5-0.3-0.7c0-0.1-0.1-0.2-0.1-0.4c-0.1-0.1-0.1-0.3-0.2-0.5C6,10.4,6,10.3,5.9,10.1c0-0.1-0.1-0.2-0.1-0.4
	C5.7,9.5,5.7,9.3,5.6,9.1c0,0,0-0.1,0-0.1c0-0.1-0.1-0.1-0.1-0.1C5.4,8.9,5.4,9,5.4,9.1c0,0.2,0.1,0.3,0.1,0.4
	c0.1,0.1,0.1,0.3,0.1,0.4c0,0.1,0,0.2,0,0.3c0,0.1,0.1,0.2,0.1,0.4c0,0.1,0,0.2,0,0.3c0.1,0.3,0.2,0.6,0.3,0.8c0,0.1,0,0.3,0.1,0.4
	c0,0.1,0.1,0.3,0.1,0.4c0,0.1,0.1,0.2,0.1,0.3c0.1,0.1,0.1,0.2,0.1,0.4c0.1,0.2,0,0.3,0.1,0.5c0.1,0.3,0.2,0.5,0.3,0.7
	c0,0.1,0,0.2,0.1,0.3c0.1,0.2,0.1,0.4,0.2,0.6c0.1,0.3,0.2,0.6,0.4,0.9c0.1,0.3,0.1,0.6,0.2,0.9c0.1,0.1,0.2,0.2,0.3,0.3
	c0,0.1,0,0.2,0.1,0.3c0,0.1,0.1,0.2,0.1,0.3c0,0.1,0,0.2,0.1,0.3c0,0.1,0.1,0.2,0.2,0.3c0.1,0.2,0.1,0.4,0.2,0.5
	c0.1,0.1,0.2,0.2,0.2,0.4C9,19.7,9.1,19.8,9.1,20c0.1,0.2,0.2,0.4,0.3,0.7c0.1,0.2,0.1,0.4,0.2,0.6c0.1,0.2,0.2,0.3,0.3,0.5
	c0.1,0.1,0.1,0.3,0.2,0.4c0.1,0.1,0.1,0.2,0.2,0.3c0.1,0.1,0.2,0.3,0.2,0.4c0.1,0.1,0.1,0.2,0.1,0.3c0.1,0.1,0.2,0.3,0.2,0.4
	c0.1,0.1,0.2,0.3,0.2,0.4c0,0.1,0.1,0.2,0.2,0.3c0.1,0.1,0.2,0.2,0.2,0.3c0.1,0.1,0.1,0.4,0.1,0.5c-0.1,0-0.3-0.2-0.3-0.2
	c-0.2-0.2-0.2-0.5-0.4-0.7c-0.2-0.2-0.3-0.4-0.4-0.6c-0.1-0.2-0.2-0.4-0.3-0.6c-0.1-0.1-0.2-0.2-0.3-0.4c-0.1-0.1-0.1-0.3-0.1-0.4
	c-0.1-0.2-0.2-0.3-0.3-0.5c-0.1-0.2-0.1-0.4-0.2-0.6c0-0.1-0.1-0.2-0.2-0.3c-0.1-0.1-0.1-0.2-0.1-0.3c-0.1-0.2-0.3-0.4-0.4-0.7
	c-0.1-0.2-0.2-0.5-0.3-0.8c-0.1-0.1-0.2-0.2-0.2-0.4C8,18.6,8,18.4,7.9,18.3c-0.1-0.1-0.1-0.2-0.2-0.3c-0.1-0.2-0.1-0.3-0.2-0.5
	c-0.2-0.4-0.3-0.7-0.5-1.1C7,16.2,7,16.1,6.9,15.9c-0.1-0.1-0.1-0.2-0.2-0.4c-0.1-0.3-0.2-0.7-0.3-1c-0.1-0.2-0.2-0.3-0.2-0.5
	c-0.1-0.3-0.1-0.6-0.2-0.8c-0.2-0.4-0.3-0.9-0.4-1.3c0-0.1-0.1-0.3-0.1-0.4c0-0.1-0.1-0.2-0.1-0.4c0-0.1-0.1-0.2-0.1-0.4
	c-0.1-0.4-0.2-0.7-0.3-1.1c0-0.1,0-0.2-0.1-0.4c0-0.1-0.1-0.1-0.1-0.2c0-0.1,0-0.2-0.1-0.2C4.5,8.7,4.5,8.4,4.4,8.1
	c0-0.1,0-0.2-0.1-0.3C4.2,7.4,4.2,7,4,6.6c0-0.1-0.1-0.1-0.1-0.1c-0.1,0-0.1,0.1,0,0.2c0,0.2,0.1,0.3,0.1,0.5c0,0.1,0,0.2,0,0.2
	c0,0.1,0,0.1,0,0.2C4.1,7.8,4.1,8,4.2,8.3c0,0.1,0,0.3,0,0.4C4.3,9,4.4,9.4,4.5,9.8c0.1,0.3,0.1,0.6,0.2,1c0,0.1,0,0.3,0.1,0.4
	c0,0.1,0.1,0.2,0.1,0.3c0,0.1,0,0.2,0.1,0.2c0.1,0.2,0.1,0.5,0.2,0.7c0.1,0.2,0.1,0.3,0.2,0.5c0,0.1,0,0.1,0,0.2
	c0,0.2,0.1,0.3,0.1,0.5c0.1,0.3,0.2,0.7,0.3,1C6,14.7,6,14.8,6,15c0.2,0.7,0.5,1.3,0.7,2c0,0.1,0.1,0.3,0.1,0.4
	C7,17.6,7,17.7,7.1,17.9c0.1,0.2,0.1,0.4,0.2,0.5c0.1,0.2,0.2,0.4,0.3,0.6c0,0.1,0.1,0.2,0.1,0.3c0,0.1,0.1,0.2,0.1,0.2
	c0.1,0.1,0.1,0.3,0.1,0.4c0.1,0.1,0.2,0.2,0.3,0.4c0.1,0.1,0.1,0.3,0.1,0.4c0.1,0.2,0.2,0.4,0.3,0.6c0,0.1,0.1,0.2,0.1,0.3
	c0,0.1,0.1,0.2,0.2,0.3c0,0,0,0,0,0c0,0,0,0,0,0.1c0,0,0,0.1,0,0.1c0,0.1,0.1,0.2,0.1,0.2c0,0,0.1,0.1,0.1,0.1c0,0,0,0,0.1,0.1
	c0.1,0.1,0.1,0.3,0.2,0.5c0.1,0.1,0.2,0.3,0.3,0.4c0.1,0.1,0.1,0.4,0,0.4c-0.3,0-0.3-0.4-0.4-0.6c-0.1-0.2-0.2-0.3-0.3-0.5
	c0,0,0-0.1-0.1-0.2c0-0.1,0-0.1-0.1-0.2c0-0.1,0-0.1-0.1-0.1c0-0.1-0.1-0.2-0.1-0.2c0,0,0,0,0,0c-0.1-0.2-0.2-0.5-0.3-0.6
	c0-0.1-0.1-0.1-0.2-0.2C8.1,21.1,8.1,21,8,20.9c-0.1-0.1-0.1-0.2-0.2-0.4c-0.1-0.1-0.1-0.3-0.1-0.5c0-0.1-0.1-0.2-0.1-0.2
	c-0.1-0.2-0.1-0.4-0.2-0.5c0-0.1-0.1-0.2-0.2-0.2C7.1,18.9,7,18.7,7,18.6c-0.2-0.3-0.3-0.6-0.5-0.9c-0.1-0.2-0.1-0.4-0.2-0.5
	c-0.1-0.2-0.2-0.3-0.2-0.4c0-0.1-0.1-0.2-0.1-0.3c-0.1-0.2-0.1-0.3-0.2-0.5c0-0.1-0.1-0.4-0.1-0.5c0-0.1-0.1-0.3-0.2-0.4
	c-0.1-0.2-0.1-0.4-0.2-0.6c-0.1-0.1-0.1-0.3-0.2-0.4c0-0.1-0.1-0.2-0.1-0.4c0-0.1-0.1-0.2-0.1-0.3c0-0.1-0.1-0.3-0.1-0.4
	c-0.1-0.2-0.1-0.3-0.2-0.5c0-0.1,0-0.4-0.1-0.5c-0.2-0.5-0.3-1-0.5-1.5C4,10.3,4,10,3.9,9.8c0-0.1,0-0.2,0-0.3
	c0-0.1-0.1-0.3-0.1-0.4c0-0.1,0-0.2-0.1-0.3c0-0.1-0.1-0.2-0.1-0.3C3.5,8.2,3.4,7.9,3.3,7.6c0-0.1,0-0.3-0.1-0.4
	C3.2,6.9,3.1,6.4,3,6.1C3,6,3,5.9,3,5.8C2.8,5.1,2.7,4.3,2.5,3.6c0-0.1,0-0.3,0-0.4c0-0.2-0.1-0.3-0.1-0.4c0-0.1,0-0.1,0-0.2
	c0-0.1-0.1-0.2-0.1-0.2c-0.1,0-0.1,0.1-0.1,0.2c0,0.2,0,0.3,0.1,0.4c0,0.1,0,0.2,0,0.3C2.3,3.5,2.3,3.8,2.3,4c0,0.1,0,0.2,0,0.3
	c0,0.1,0.1,0.2,0.1,0.3c0,0.1,0,0.3,0,0.5c0,0.1,0.1,0.3,0.1,0.4c0,0.1,0,0.2,0,0.3c0,0.1,0.1,0.2,0.1,0.3c0,0.1,0,0.3,0,0.4
	C2.9,7.1,3,7.8,3.2,8.4c0,0.1,0,0.2,0,0.3c0.1,0.5,0.3,1.1,0.4,1.6c0,0.1,0,0.2,0,0.3c0.1,0.2,0.1,0.4,0.1,0.6c0,0.1,0,0.2,0,0.2
	C3.9,11.5,4,11.7,4,11.9c0,0.1,0,0.2,0,0.3c0,0.1,0.1,0.2,0.1,0.2c0,0.1,0,0.2,0.1,0.3c0,0.1,0.1,0.1,0.1,0.2c0,0.1,0,0.2,0.1,0.3
	c0,0.1,0.1,0.3,0.2,0.4c0,0.1,0,0.2,0.1,0.3c0.1,0.2,0.2,0.4,0.2,0.6c0.1,0.2,0.1,0.3,0.1,0.5c0,0.1,0.1,0.2,0.1,0.3
	c0,0.1,0,0.2,0.1,0.2c0,0.1,0.1,0.2,0.2,0.3c0,0.1,0,0.3,0.1,0.4c0,0.1,0.1,0.2,0.1,0.3c0,0.1,0,0.2,0.1,0.4c0,0.1,0.1,0.2,0.1,0.3
	c0,0.1,0.1,0.2,0.1,0.3c0,0.1,0.1,0.1,0.1,0.2C6,17.8,6,17.9,6.1,18c0.1,0.2,0.1,0.4,0.1,0.6c0,0.1,0,0.2,0,0.2
	c-0.1,0-0.2-0.1-0.2-0.2c-0.1-0.1-0.2-0.3-0.2-0.4c0-0.1,0-0.1-0.1-0.2c-0.1-0.1-0.1-0.3-0.1-0.4c0-0.1-0.1-0.2-0.1-0.3
	c0-0.1,0-0.3-0.1-0.4c0-0.1-0.1-0.2-0.2-0.3c0-0.1,0-0.2-0.1-0.3c0-0.1-0.1-0.2-0.2-0.3c0-0.1,0-0.2-0.1-0.3c0-0.1-0.1-0.3-0.1-0.4
	c-0.1-0.1-0.1-0.2-0.2-0.4c0-0.1,0-0.1-0.1-0.2c0-0.1-0.1-0.2-0.1-0.3c0-0.1,0-0.1-0.1-0.2c0-0.1-0.1-0.2-0.1-0.3
	c0-0.1,0-0.2-0.1-0.3C4.1,13.8,4,13.6,4,13.4c0-0.1,0-0.2-0.1-0.4c0-0.1-0.1-0.3-0.2-0.4c0-0.1,0-0.2-0.1-0.3
	c-0.1-0.1-0.1-0.3-0.2-0.4c0-0.1,0-0.3-0.1-0.4c-0.1-0.3-0.2-0.6-0.3-0.9C3,10.3,3,9.9,2.9,9.6C2.9,9.3,2.8,9.1,2.7,8.9
	c0-0.1,0-0.2-0.1-0.4C2.6,8.2,2.5,7.9,2.4,7.6c0-0.1,0-0.3-0.1-0.5c0-0.2,0-0.3-0.1-0.5c0-0.1-0.1-0.2-0.1-0.3c0-0.1,0-0.3,0-0.4
	c0-0.1-0.2-0.7-0.2-0.8c0-0.1,0-0.3,0-0.4c0,0-0.1-0.3-0.1-0.4c0-0.1,0-0.1,0-0.3c0-0.1-0.1-0.4-0.1-0.5c0-0.1,0-0.3,0-0.3
	c0-0.1-0.1-0.3-0.1-0.4c0-0.2,0-0.3-0.1-0.5c0-0.1-0.1-0.2-0.1-0.3c0-0.1-0.1-0.2-0.1-0.3c0-0.1,0-0.3,0-0.3c0-0.1,0-0.3-0.1-0.4
	c0-0.2-0.1-0.4-0.1-0.5c0-0.1,0-0.1,0-0.2C1,0.2,0.9,0,0.8,0C0.8,0,0.7,0.1,0.8,0.2c0,0.1,0,0.3,0.1,0.4c0,0.1,0,0.3,0,0.3
	c0,0.1,0,0.1,0,0.2c0,0,0,0.1,0,0.2c0,0.1,0,0.2,0,0.2c0,0.1,0,0.1,0,0.2c0,0,0,0.1,0,0.1C1,2,1,2,1,2c0,0.1,0,0.1,0,0.2
	c0,0.1,0,0.1,0,0.2c0,0.1,0.1,0.3,0.1,0.5c0,0.2,0,0.4,0.1,0.5c0,0.1,0,0.2,0,0.3c0,0.1,0.1,0.3,0.1,0.4c0,0.1,0,0.2,0,0.3
	c0,0.2,0.2,0.4,0.2,0.5c0,0.1,0,0.3,0,0.4c0,0.1,0.1,0.3,0.1,0.3c0,0.1,0,0.1,0,0.2c0,0.1,0.1,0.3,0.1,0.4c0,0.1,0,0.1,0,0.2
	c0,0.1,0.1,0.4,0.1,0.5c0,0.1,0,0.2,0,0.3C1.9,7.4,2,7.5,2,7.6c0,0.1,0,0.2,0,0.3c0,0.1,0.1,0.3,0.1,0.4c0,0.1,0,0.2,0,0.3
	c0,0.2,0.1,0.4,0.1,0.7c0,0.1,0.1,0.2,0.1,0.4c0,0.1,0,0.2,0.1,0.3c0,0.1,0.1,0.2,0.1,0.3c0,0.1,0,0.2,0,0.3c0,0.1,0.1,0.2,0.1,0.3
	c0,0.1,0,0.2,0,0.2c0,0.1,0.1,0.2,0.1,0.3c0,0.1,0,0.2,0,0.3C3,11.8,3,11.9,3.1,12c0,0.1,0,0.2,0.1,0.4c0.1,0.3,0.2,0.6,0.2,0.8
	c0,0.1,0,0.3,0.1,0.4c0,0.1,0.1,0.2,0.1,0.2c0,0.1,0,0.2,0,0.3c0,0.2,0.1,0.4,0.1,0.5C3.8,14.8,3.9,15,4,15.1
	C4,15.3,4,15.5,4.1,15.7c0.1,0.2,0.1,0.3,0.2,0.5c0.1,0.1,0,0.3,0.1,0.4c0.1,0.1,0.2,0.3,0.2,0.4c0.1,0.2,0.1,0.3,0.2,0.5
	c0,0.1,0,0.1,0,0.2C4.8,18,5,18.1,5,18.4c0,0.1,0,0.2,0.1,0.3c0.1,0.2,0.1,0.3,0.2,0.5c0.1,0.1,0.1,0.3,0.2,0.4
	c0.1,0.1,0.1,0.2,0.1,0.4c0.1,0.1,0.1,0.3,0.2,0.4c0,0.1,0,0.1,0.1,0.2c0.2,0.3,0.3,0.7,0.5,1c0.1,0.2,0.1,0.4,0.2,0.6
	c0.1,0.1,0.1,0.3,0.2,0.4c0,0.1,0.1,0.2,0.1,0.3C7,23,7.1,23.2,7.2,23.3c0,0,0.1,0.2,0.1,0.3c0,0,0,0,0,0c-0.1,0-0.2-0.1-0.2-0.1
	c-0.2-0.2-0.3-0.6-0.4-0.9c0-0.1-0.1-0.2-0.1-0.3c0-0.1,0-0.1-0.1-0.2c-0.1-0.2-0.2-0.3-0.3-0.5C6,21.6,6,21.4,5.9,21.3
	c-0.2-0.5-0.5-1.1-0.8-1.6C5,19.4,5,19.2,4.9,18.9c-0.1-0.2-0.2-0.3-0.2-0.4c-0.1-0.1-0.1-0.2-0.1-0.4c-0.1-0.2-0.2-0.3-0.2-0.5
	c0-0.1-0.1-0.2-0.1-0.3c-0.1-0.1-0.1-0.2-0.2-0.3C4,16.8,4,16.6,4,16.5c0-0.1-0.1-0.2-0.1-0.3c0-0.1,0-0.2-0.1-0.3
	c-0.1-0.2-0.2-0.4-0.3-0.6c-0.1-0.1,0-0.3-0.1-0.5c0-0.1-0.1-0.2-0.2-0.3c-0.1-0.1,0-0.3,0-0.4c0-0.1-0.1-0.3-0.1-0.4
	c0-0.1,0-0.2-0.1-0.2c-0.1-0.2-0.1-0.3-0.2-0.5c0-0.1,0-0.2-0.1-0.2c0-0.1-0.1-0.2-0.2-0.3c0-0.2-0.1-0.3-0.1-0.5
	c-0.1-0.2-0.1-0.4-0.2-0.6c0-0.1,0-0.1,0-0.2c-0.1-0.2-0.1-0.4-0.1-0.6c0-0.1,0-0.2,0-0.3C2,10.2,2,10,1.9,9.8c0-0.1,0-0.2-0.1-0.3
	C1.8,9.2,1.7,8.9,1.6,8.7c0-0.1,0-0.1,0-0.2C1.5,8.2,1.4,8,1.4,7.8c0-0.1,0-0.2-0.1-0.4c0-0.1-0.1-0.3-0.1-0.4c0-0.1,0-0.1,0-0.2
	c0-0.1,0-0.2,0-0.3C1.1,6.2,0.9,5.7,0.9,5.3c0-0.1,0-0.3,0-0.4c0-0.1,0-0.2,0-0.3c0-0.1-0.1-0.2-0.1-0.3c0-0.2,0-0.3,0-0.5
	c0,0,0,0,0,0c0-0.2-0.1-0.6-0.1-0.7c0-0.2,0-0.4-0.1-0.6c0-0.1,0-0.2,0-0.4c0-0.2-0.1-0.4-0.1-0.6c0-0.1,0-0.2,0-0.4
	c0-0.1,0-0.2-0.1-0.2C0.1,1,0.1,1.1,0.1,1.2c0,0.2,0,0.5,0,0.6c0,0.2,0,0.5,0,0.7c0,0.1,0.1,0.3,0.1,0.4c0,0.2,0.1,0.4,0.1,0.7v0
	c0,0.1,0,0.2,0,0.3c0,0,0,0,0,0c0,0,0,0,0,0c0,0,0,0,0,0h0c0,0,0,0.1,0,0.1c0,0.1,0,0.2,0,0.2C0.5,4.5,0.5,4.8,0.5,5
	c0.1,0.4,0.2,0.8,0.3,1.1c0,0.1,0,0.2,0,0.3c0,0.1,0.1,0.2,0.1,0.3c0,0.1,0,0.3,0,0.4C1,7.4,1,7.5,1.1,7.7c0,0.2,0,0.3,0.1,0.5
	c0,0.2,0.1,0.3,0.1,0.5c0,0.2,0.1,0.4,0.1,0.6c0,0.2,0.1,0.4,0.2,0.5c0,0.1,0,0.1,0,0.2c0,0.1,0.1,0.3,0.1,0.4c0,0.1,0,0.1,0,0.2
	c0.1,0.2,0.1,0.5,0.2,0.8c0,0.1,0,0.1,0,0.2C2,11.7,2,11.8,2,11.9c0,0.1,0,0.2,0,0.3c0,0.1,0.1,0.2,0.1,0.4c0,0.1,0,0.2,0.1,0.3
	c0,0.1,0.1,0.2,0.1,0.3c0.1,0.2,0.1,0.4,0.2,0.7c0,0.1,0.1,0.2,0.1,0.4c0,0.1,0,0.3,0.1,0.4C2.8,14.7,2.9,15,3,15.2
	c0.1,0.2,0.1,0.5,0.2,0.8c0,0.1,0,0.2,0.1,0.3c0.1,0.2,0.1,0.5,0.2,0.7c0,0.1,0,0.2,0.1,0.4c0.1,0.2,0.2,0.4,0.3,0.6
	c0.1,0.2,0.1,0.3,0.1,0.5c0.1,0.2,0.2,0.4,0.3,0.7c0.1,0.2,0.1,0.3,0.1,0.5c0.1,0.1,0.1,0.3,0.2,0.4c0,0.1,0.1,0.2,0.1,0.3
	c0,0.1,0.1,0.2,0.2,0.3C5,20.8,5,20.9,5,21.1c0.1,0.3,0.2,0.5,0.3,0.8c0,0.1,0,0.2,0.1,0.3c0.1,0.2,0.2,0.3,0.2,0.5
	c0.1,0.1,0.1,0.3,0.2,0.5C5.9,23.2,6,23.3,6,23.7c0,0,0,0,0,0.1c-0.1,0-0.1-0.1-0.2-0.1c-0.2-0.2-0.2-0.3-0.3-0.5
	c-0.2-0.3-0.3-0.6-0.5-1c-0.1-0.2-0.1-0.4-0.2-0.5c0-0.1-0.1-0.2-0.2-0.3c-0.1-0.2-0.1-0.3-0.2-0.5c-0.1-0.2-0.2-0.4-0.3-0.7
	c0-0.1,0-0.2-0.1-0.3c0-0.1-0.1-0.2-0.1-0.3c-0.1-0.1-0.1-0.3-0.2-0.5c-0.1-0.3-0.3-0.6-0.4-0.8c-0.1-0.3-0.1-0.5-0.2-0.8
	c0-0.1-0.1-0.2-0.1-0.3c0-0.1,0-0.2-0.1-0.3c-0.1-0.2-0.2-0.5-0.3-0.7c0-0.1-0.1-0.2-0.1-0.3c-0.1-0.1-0.1-0.3-0.2-0.5
	c-0.1-0.2-0.1-0.4-0.1-0.6c-0.2-0.4-0.4-0.9-0.5-1.3c0-0.1,0-0.2,0-0.3c-0.1-0.2-0.1-0.5-0.2-0.7c-0.1-0.3-0.1-0.6-0.2-0.8
	c-0.1-0.3-0.2-0.7-0.3-1c0-0.1,0-0.2,0-0.3C0.9,10,0.8,9.7,0.7,9.5c0-0.1,0-0.3-0.1-0.4C0.6,9,0.5,9,0.5,9.2c0,0.1,0.1,0.3,0.1,0.4
	c0,0.1,0,0.2,0,0.3c0,0.2,0.1,0.3,0.2,0.5c0.1,0.2,0.1,0.3,0.1,0.5c0,0.1,0.1,0.2,0.1,0.3C1,11.3,1,11.5,1,11.7
	c0,0.1,0.1,0.3,0.1,0.4c0,0.1,0,0.2,0,0.3c0,0.2,0.1,0.3,0.1,0.5c0,0.1,0,0.2,0,0.3c0,0.1,0.1,0.3,0.1,0.4c0,0.1,0,0.3,0.1,0.4
	c0.1,0.2,0.2,0.5,0.2,0.7C1.9,14.7,1.9,15,2,15.2c0.2,0.4,0.3,0.9,0.4,1.3c0,0.1,0,0.2,0.1,0.3c0.1,0.2,0.1,0.4,0.2,0.5
	c0,0.1,0.1,0.2,0.1,0.2c0.1,0.1,0.1,0.2,0.1,0.3c0,0.1,0.1,0.2,0.1,0.3c0,0.1,0,0.3,0.1,0.4c0,0.1,0.1,0.2,0.1,0.3
	c0,0.1,0,0.2,0.1,0.3c0,0.1,0.1,0.2,0.2,0.3c0,0.1,0.1,0.2,0.1,0.3c0,0.1,0.1,0.2,0.1,0.3c0,0.1,0,0.2,0.1,0.3
	c0,0.1,0.1,0.2,0.1,0.3c0,0.1,0,0.2,0.1,0.3c0.1,0.2,0.2,0.3,0.2,0.5c0.1,0.1,0.1,0.2,0.1,0.4c0.1,0.1,0.1,0.3,0.2,0.4
	c0.1,0.2,0.1,0.4,0.2,0.5c0.1,0.3,0.2,0.6,0.3,0.9c0.1,0.2,0.2,0.4,0.3,0.6c0.1,0.1,0.1,0.3,0.1,0.4c0.1,0.1,0.2,0.2,0.2,0.4
	c0,0.1,0.1,0.3,0.1,0.4C6,25.8,6.1,26,6.2,26.1c0,0.1,0.1,0.2,0.1,0.3c0.1,0.2,0.2,0.3,0.3,0.5c0,0.1,0.1,0.2,0.1,0.4
	c0.1,0.2,0.2,0.4,0.3,0.5c0.1,0.1,0.1,0.3,0.2,0.4c0.1,0.2,0.2,0.3,0.3,0.5c0.1,0.1,0.2,0.3,0.3,0.5s0.2,0.3,0.2,0.4
	c0.1,0.1,0.2,0.3,0.2,0.4c0.1,0.1,0.2,0.3,0.3,0.4C8.7,30.7,8.8,31,9,31.2c0.1,0.2,0.2,0.3,0.3,0.5c0.3,0.4,0.7,1.2,0.9,1.4
	c0.2,0.2,0.3,0.4,0.4,0.7c0.1,0.2,0.2,0.3,0.4,0.5c0.1,0.1,0.2,0.3,0.3,0.4l0.1,0.1c3.9,4.9,7.9,8.2,11.3,10.4l0,0
	c1.8,1.1,2.7,1.4,2.7,1.4c0.2,0.1,0.1,0.3,0,0.3l-20,12.8c-0.1,0-0.2,0.2-0.2,0.3c0,0.1,0.2,0,0.3,0c16.1-5.6,27.8-10.3,34.9-13.7
	C47.6,42.9,50,40.9,49.7,39.9"/>
<path fill="#9CA3AF" d="M269.4,33.8v-1.1h1.4c1.7,0,3.5,0,4.5,0.3c2.8,0.8,4.2,3,4.2,6.3c0,2.7-1.7,6.8-6.6,6.8
	c-1.4,0-2.9-0.6-3.6-0.9V33.8z M275.1,49c6.6,0,10.5-5,10.5-9.8c0-2.7-1-7.4-7.6-9c-1.5-0.4-3.1-0.4-5.3-0.4l-11.7,0l0.2,0.2
	c0,0,2,0.3,2,3.8v21.8c0,3.5-2,3.8-2,3.8l-0.2,0.2h10.6l-0.2-0.2c0,0-2-0.3-2-3.8V48C270.3,48.4,272.2,49,275.1,49 M429.9,50.3
	l-2.3,8c0,0-5.1,1.7-9.4,1.7c-11.5,0-17.1-7.9-17.1-15.1c0-8.9,6.8-15.6,17.6-15.6c6,0,10.2,2.1,10.2,2.1v6.4l-0.2-0.1
	c0,0-2.5-5.4-9.5-5.4c-6.8,0-11,5-11,12.6c0,7.6,4.4,11.8,10.8,11.8c7,0,10.8-6.2,10.8-6.2S429.9,50.3,429.9,50.3z M354.9,33.8v21.8
	c0,3.5,2,3.8,2,3.8l0.2,0.2h-10.6l0.2-0.2c0,0,2-0.3,2-3.8V33.8c0-3.5-2-3.8-2-3.8l-0.2-0.2h10.6l-0.2,0.2
	C356.9,30,354.9,30.3,354.9,33.8 M379.8,29.8c3.5,0,4-0.3,4-0.3v5.3l-0.2-0.2c0,0-1.5-2-5-2h-7.5v9.5h6.3c3.5,0,3.8-1.5,3.8-1.5
	l0.2-0.2v6.4l-0.2-0.2c0,0-0.3-1.5-3.8-1.5h-6.3v10.5v0c0,3.5,2,3.8,2,3.8l0.2,0.2h-10.6l0.2-0.2c0,0,2-0.3,2-3.8V33.8
	c0-3.5-2-3.8-2-3.8l-0.2-0.2L379.8,29.8L379.8,29.8z M342.4,50.5l0.3-0.2l-2.3,8c0,0-5.1,1.7-9.4,1.7c-11.5,0-17.1-7.9-17.1-15.1
	c0-8.9,6.8-15.6,17.6-15.6c6,0,10.2,2.1,10.2,2.1v6.4l-0.2-0.1c0,0-2.5-5.4-9.5-5.4c-6.8,0-11,5-11,12.6c0,7.6,4.4,11.8,10.8,11.8
	C338.6,56.7,342.4,50.5,342.4,50.5 M395.9,33.8v21.8c0,3.5,2,3.8,2,3.8l0.2,0.2h-10.6l0.2-0.2c0,0,2-0.3,2-3.8V33.8
	c0-3.5-2-3.8-2-3.8l-0.2-0.2H398l-0.2,0.2C397.8,30,395.9,30.3,395.9,33.8 M292,48.2l4.6-9.6l4.2,9.6H292L292,48.2z M311,55.5
	l-13.1-27.2l-13,27.2c-1.9,3.7-4.1,3.8-4.1,3.8l-0.2,0.2h8.9l-0.2-0.2c0,0-2.5-0.5-0.9-3.8l2.3-4.8h11.1l2.3,4.8
	c1.6,3.3-0.9,3.8-0.9,3.8l-0.2,0.2h12.2l-0.2-0.2C315.1,59.3,312.8,59.3,311,55.5 M186.7,55.5c0-3.5,0-18.3,0-21.8
	c0-3.5,2-3.8,2-3.8l0.2-0.2h-10.6l0.2,0.2c0,0,2,0.3,2,3.8c0,3.5,0,8.5,0,8.5h-14.6v-8.5c0-3.5,2-3.7,2-3.7l0.2-0.2h-10.6l0.2,0.2
	c0,0,2,0.2,2,3.7v21.8c0,3.5-2,3.8-2,3.8l-0.2,0.2H168l-0.2-0.2c0,0-2-0.3-2-3.8V45.2h14.6v10.3c0,3.5-2,3.8-2,3.8l-0.2,0.2h10.6
	l-0.2-0.2C188.7,59.3,186.7,59,186.7,55.5 M130.9,29.8c-3.5,0-4-0.3-4-0.3l0,5.9l0.2-0.1c0,0,1.6-2.6,5.1-2.6h5v22.9
	c0,3.5-2,3.8-2,3.8l-0.2,0.2h10.6l-0.2-0.2c0,0-2-0.3-2-3.8l0-22.9h4.9c3.5,0,5.2,2.6,5.2,2.6l0.2,0.1l0-5.9c0,0-0.5,0.3-4,0.3
	C149.7,29.8,130.9,29.8,130.9,29.8z M201.2,48.2l4.6-9.6l4.2,9.6H201.2L201.2,48.2z M220.3,55.5l-13.1-27.2l-13,27.2
	c-1.9,3.7-4.1,3.8-4.1,3.8l-0.2,0.2h8.9l-0.2-0.2c0,0-2.5-0.5-0.9-3.8l2.3-4.8h11.1l2.3,4.8c1.6,3.3-0.9,3.8-0.9,3.8l-0.2,0.2h12.2
	l-0.2-0.2C224.3,59.3,222.1,59.3,220.3,55.5 M241.2,29.8l0.2,0.2c0,0,2.6,0.7,0.6,3.8c-1,1.5-3.9,5.7-6.6,9.7
	c-2.7-4-5.6-8.3-6.5-9.8c-2-3.1,0.7-3.8,0.7-3.8l0.2-0.2h-12.2l0.2,0.2c0,0,1.8,0.3,4.1,3.8c1,1.5,5.9,8.4,8.6,12.5v9.2
	c0,3.5-2,3.8-2,3.8l-0.2,0.2H239l-0.2-0.2c0,0-2-0.3-2-3.8c0-1.5,0-5.2,0-9.2c2.7-4.1,7.7-11,8.6-12.5c2.3-3.5,4.9-3.8,4.9-3.8
	l0.2-0.2C250.6,29.8,241.2,29.8,241.2,29.8z M85,56.7c-6.4,0-10.8-4.2-10.8-11.8c0-7.6,4.3-12.6,11-12.6c7,0,9.5,5.4,9.5,5.4
	l0.2,0.1v-6.4c0,0-4.2-2.1-10.2-2.1C74,29.3,67.2,36,67.2,44.9c0,7.2,5.6,15.1,17.1,15.1c4.3,0,9.4-1.7,9.4-1.7l2.3-8l-0.3,0.2
	C95.8,50.5,92,56.7,85,56.7 M107.6,48.2l4.6-9.6l4.2,9.6H107.6z M126.6,55.5l-13.1-27.2l-13,27.2c-1.9,3.7-4.1,3.8-4.1,3.8l-0.2,0.2
	h8.9l-0.2-0.2c0,0-2.5-0.5-0.9-3.8l2.3-4.8h11.1l2.3,4.8c1.6,3.3-0.9,3.8-0.9,3.8l-0.2,0.2h12.2l-0.2-0.2
	C130.7,59.3,128.4,59.3,126.6,55.5"/>
</svg>
