<?xml version="1.0" encoding="utf-8"?>
<!-- Generator: Adobe Illustrator 26.1.0, SVG Export Plug-In . SVG Version: 6.00 Build 0)  -->
<svg version="1.1" id="Layer_1" xmlns="http://www.w3.org/2000/svg" xmlns:xlink="http://www.w3.org/1999/xlink" x="0px" y="0px"
	 width="457px" height="123px" viewBox="0 0 457 123" enable-background="new 0 0 457 123" xml:space="preserve">
<g id="_x23_ffffffff">
</g>
<path fill="#9CA3AF" d="M23.2,19c0.2-2.1,0.7-4.2,1.5-6.2c3.2,4.1,7.1,7.6,11.5,10.4c6.5,4.2,13.9,6.7,21.5,7.8
	c5.3,0.8,10.7,1,16,0.5c1.2-0.1,2.3-0.2,3.5-0.4c-3.9,2-8.1,3.6-12.3,4.7c-7.8,2-16.1,2.2-24.1,0.8c-1.9-0.3-3.9-0.8-5.7-1.4
	c-2.2-0.8-4.4-1.8-6.3-3.2c-1.9-1.4-3.4-3.3-4.4-5.4C23.3,24.3,23,21.6,23.2,19z M6.3,39.1c-0.3-2.2-0.3-4.4,0-6.6
	c3.4,2.2,6.9,4.3,10.6,6c4.7,2.1,9.6,3.5,14.7,4.4c8.8,1.5,17.9,1.3,26.7,0.2c9.5-1.2,18.8-3.4,27.9-6.2c-3.2,2.4-6.5,4.5-9.9,6.5
	c-7.8,4.6-16.1,8.5-24.7,11.1c-6.4,1.9-13,3.1-19.7,3.1c-4.8,0-9.6-0.6-14.1-2.2c-2.4-0.9-4.5-2.3-6.2-4.1c-2-2.2-3.4-4.8-4.2-7.6
	C6.8,42.2,6.6,40.6,6.3,39.1z M69.5,53.7c3.2-1.9,6.2-4,9.2-6.2c-4.5,6.7-9.7,13-15.9,18.2c-3.2,2.7-6.7,5-10.4,6.9
	c-2.3,1.1-4.8,2.1-7.3,2.6c-2.4,0.5-4.9,0.6-7.4,0.3c-2-0.2-3.9-0.8-5.6-1.7c-1.6-0.9-3.1-2.1-4.2-3.6c-1.5-2-2.2-4.5-2.6-6.9
	c3.4,1.2,7,1.8,10.5,1.7c3.5,0,7.1-0.5,10.5-1.3c4.1-1,8.1-2.4,12-4.1C62.2,57.8,65.9,55.9,69.5,53.7z"/>
<path fill="#9CA3AF" d="M105,23.1c4.1-0.4,8.2-0.5,12.3-0.1c2.4,0.3,4.8,0.7,7,1.7c1,0.5,2.1,1.1,2.8,2c0.8,0.8,1.2,1.8,1.3,2.9
	c0.1,1.1-0.1,2.2-0.5,3.2c-1.4-1.3-3.2-2.1-5.1-2.5c-1.4-0.4-2.9-0.5-4.4-0.6c-1.8,2.1-4.5,3.5-7.3,3.2c-1.5-0.1-2.9-0.8-3.9-1.9
	c-0.3-0.3-0.6-0.6-0.9-0.9c2.4,1,5.3,0.7,7.5-0.7c-3.8-0.5-7.6-0.7-11.4-0.8c-5.6,0-11.2,0.3-16.7,1c-1.8,0.2-3.6,0.5-5.4,0.7
	c3.6-2,7.5-3.4,11.5-4.7C96.2,24.5,100.6,23.5,105,23.1z M106.4,39.8c7.5-3,15.7-4.7,23.8-4.1c2.8,0.2,5.7,0.8,8.3,1.9
	c1.3,0.6,2.7,1.4,3.5,2.6c0.7,1,0.9,2.2,0.7,3.4c-0.2,1.8-1.1,3.5-2.2,4.9c-0.2-1-0.6-2.1-1.4-2.8c-1-0.9-2.3-1.3-3.6-1.4
	c-2.2-0.2-4.3,0.2-6.4,0.7c-2.5,0.6-5,1.5-7.4,2.4c-4.1,1.6-8.2,3.5-12.1,5.6c-5.9,3.8-11.7,7.8-17.4,11.9c-4.1,3-8.1,6.2-11.9,9.5
	c-2.6,2.3-5.1,4.6-7.5,7.1c-1.8,1.9-3.5,3.8-4.9,6c1.1-3.8,2.5-7.6,4.2-11.2c1.1-2.2,2.2-4.4,4-6.2c-2.7,2-5.2,4.2-7.6,6.5
	c-1,1-2.1,2-3,3c-4.6,4.7-8.8,9.8-12.8,15.1c-1.3,1.7-2.5,3.4-3.7,5.1c1.2-3.3,2.4-6.6,3.9-9.8c3.3-7.2,7.9-13.8,13.2-19.7
	c1.9-2.1,3.8-4.1,5.8-6.1c2.6-2.5,5.3-5,8-7.3c3.2-2.7,6.4-5.4,9.8-7.8C94.9,45.4,100.5,42.2,106.4,39.8z"/>
<path fill="#9CA3AF" d="M371.9,47.6c2.1-0.3,4.3,0.9,5.2,2.9c0.7,1.6,0.6,3.6-0.5,5.1c-0.6,0.8-1.4,1.4-2.3,1.7
	c-1.8,0.6-3.9,0.3-5.3-1.1c-0.7-0.7-1.3-1.6-1.4-2.7c-0.2-1.3,0-2.7,0.8-3.8C369.1,48.5,370.5,47.7,371.9,47.6z M414.6,47.6
	c1.8-0.2,3.7,0.5,4.7,1.9c0.7,0.9,1,2,1,3.1c0,1.1-0.3,2.3-1.1,3.2c-1.2,1.5-3.3,2.1-5.1,1.7c-1.9-0.4-3.5-2-3.7-3.9
	c-0.2-1.2,0-2.6,0.6-3.7C411.8,48.6,413.1,47.8,414.6,47.6z M388.7,49c2.1-1.4,4.7-2,7.3-2.1c2.4-0.1,4.9,0.1,7.2,0.8
	c1.1,0.3,2.1,0.7,3,1.3c0.7,0.5,1.3,1.3,1.4,2.2c0,0.6-0.1,1.2-0.3,1.7c-0.8,1.1-1.6,2.3-2.4,3.4c-1.5-1.3-3.5-2.1-5.5-2.2
	c-1.3-0.1-2.8,0-4,0.7c-0.6,0.3-1.2,0.8-1.5,1.3c-0.8,1.1-0.9,2.5-1,3.8c0,1.2,0,2.3,0,3.5c3.9,0,7.8,0,11.8,0c0,2.4,0,4.7,0,7.1
	c-3.9,0-7.8,0-11.8,0c0,8.6,0,17.1,0,25.7c-3.1,0-6.2,0-9.4,0c0-11.9,0-23.7,0-35.6c0-2.7,0.4-5.4,1.7-7.7
	C386,51.3,387.2,49.9,388.7,49z M187.7,47.6c1.4-0.2,2.8-0.3,4.2-0.2c0.8,0.1,1.7,0.2,2.5,0.6c1.1,0.5,2,1.5,2.4,2.7
	c0.3,0.8,0.3,1.7,0.3,2.5c0,4.1,0,8.3,0,12.4c0.9-0.8,1.9-1.5,3-2c2-1,4.2-1.1,6.4-1c2.4,0.2,4.9,0.8,6.8,2.3
	c1.5,1.1,2.7,2.6,3.5,4.2c0.9,1.7,1.4,3.5,1.7,5.4c0.4,2.7,0.4,5.5,0.1,8.2c-0.2,1.9-0.5,3.8-1.2,5.6c-0.6,1.6-1.4,3.2-2.6,4.6
	c-1.4,1.6-3.2,2.9-5.2,3.5c-2.5,0.8-5.2,1-7.7,0.4c-2.2-0.6-4.3-1.5-5.7-3.3c0,0.8-0.2,1.6-0.7,2.1c-0.5,0.5-1.2,0.6-1.9,0.6
	c-2,0-3.9,0-5.9,0c0-11.8,0-23.6,0-35.3C187.7,56.4,187.7,52,187.7,47.6 M199.4,69.6c-1,0.3-1.7,1.1-2.1,2c-0.3,0.7-0.2,1.4-0.2,2.1
	c0,4.6,0,9.3,0,13.9c1,0.8,2.1,1.5,3.4,1.9c1,0.2,2,0.3,3.1,0.2c1.1-0.1,2.2-0.6,3-1.4c0.9-0.8,1.4-1.9,1.7-3
	c0.7-2.3,0.8-4.8,0.8-7.2c-0.1-2.1-0.4-4.4-1.6-6.3c-0.9-1.4-2.4-2.4-4.1-2.6C202.1,69.2,200.7,69.2,199.4,69.6z M137.2,63
	c2.7-0.5,5.6-0.4,8.3,0.2c2,0.5,3.9,1.2,5.4,2.6c0.6,0.5,1,1.1,1.1,1.9c0.2,1.1-0.2,2.1-0.6,3.1c-0.4,0.9-0.9,1.8-1.6,2.5
	c-0.7-0.7-1.5-1.3-2.4-1.9c-0.9-0.5-1.8-1-2.8-1.3c-1.5-0.4-3.2-0.5-4.8-0.2c-1.7,0.3-3.3,1-4.4,2.4c-1.3,1.8-1.9,4-2,6.2
	c-0.1,2,0,4,0.5,5.9c0.5,1.8,1.5,3.5,3.1,4.6c1,0.7,2.1,1.1,3.3,1.2c1.2,0.1,2.4,0.1,3.5-0.1c2.1-0.5,4-1.5,5.5-3.1
	c0.7,0.8,1.2,1.6,1.6,2.5c0.4,0.8,0.7,1.7,0.7,2.6c0,0.7-0.2,1.5-0.7,2c-0.8,0.9-1.9,1.4-3,1.9c-1.8,0.8-3.8,1.2-5.7,1.3
	c-2.5,0.2-5.1-0.1-7.6-0.8c-1.9-0.5-3.7-1.5-5.2-2.7c-1.6-1.4-2.9-3.1-3.8-5c-1-2-1.4-4.3-1.6-6.5c-0.2-2.8-0.1-5.6,0.6-8.3
	c0.5-2.1,1.6-3.9,2.9-5.6c1.2-1.5,2.7-2.7,4.4-3.6C133.6,63.8,135.4,63.3,137.2,63z M162.6,64.1c2.3-1,4.9-1.5,7.4-1.4
	c2.3,0,4.7,0.4,6.8,1.6c1.9,1,3.5,2.4,4.6,4.2c1.8,2.8,2.3,6.2,2.2,9.5c0,1.2-0.1,2.3-0.2,3.5c-6.8,0-13.5,0-20.3,0
	c0.2,2.4,1,4.8,2.6,6.6c1.2,1.3,2.9,1.9,4.5,2.1c1.4,0.2,2.8,0.2,4.2-0.1c1.7-0.4,3.2-1.1,4.6-2.1c0.5-0.4,1-0.9,1.6-1.3
	c0.6,0.8,1.2,1.7,1.7,2.6c0.4,0.7,0.8,1.5,0.9,2.3c0.1,0.9-0.3,1.9-1,2.5c-1.3,1.2-2.9,1.9-4.5,2.4c-2.6,0.8-5.4,1-8.1,0.8
	c-2.6-0.2-5.1-0.7-7.4-1.8c-1.7-0.9-3.3-2.1-4.5-3.6c-1.1-1.4-1.9-2.9-2.6-4.6c-0.8-2.3-1.1-4.8-1.2-7.2c-0.1-2.6,0.2-5.3,1.1-7.8
	c0.7-1.8,1.7-3.6,3.1-5C159.3,65.9,160.8,64.8,162.6,64.1 M167,69.3c-1.1,0.4-2.1,1.1-2.7,2.1c-1,1.5-1.3,3.3-1.3,5
	c4,0,8.1,0,12.1,0c0-1.5-0.2-3.1-0.8-4.4c-0.3-0.6-0.6-1.2-1-1.6c-0.7-0.7-1.7-1.1-2.7-1.2C169.4,68.8,168.2,68.9,167,69.3z
	 M284.2,63.1c2.1-0.6,4.4-0.6,6.6-0.2c2.1,0.4,4.1,1.4,5.6,2.8c1.7,1.5,2.7,3.6,3.4,5.8c0.7,2.2,0.9,4.5,1,6.8
	c0,2.7-0.1,5.3-0.7,7.9c-0.5,1.8-1.2,3.6-2.1,5.2c-1.2,1.9-2.8,3.5-4.8,4.5c-2.1,0.9-4.4,1.3-6.6,1.3c-2-0.1-4-0.7-5.7-1.7
	c-0.7-0.4-1.3-1-1.8-1.6c0,5.8,0,11.5,0,17.3c-3.1,0-6.2,0-9.4,0c0-15.8,0-31.7,0-47.5c1.7-0.3,3.4-0.4,5.1-0.1
	c1.1,0.2,2.3,0.6,3.1,1.5c0.4,0.4,0.6,1,0.8,1.6c0.5-0.5,1-1,1.6-1.4C281.5,64.3,282.8,63.5,284.2,63.1 M281.4,70.1
	c-1,0.3-1.7,1.1-2.1,2.1c-0.2,0.6-0.2,1.3-0.2,1.9c0,4.6,0,9.2,0,13.7c1,0.9,2.2,1.6,3.5,1.9c1.7,0.3,3.5,0.2,5-0.7
	c1.1-0.7,1.8-1.8,2.3-3c0.9-2.3,1.1-4.9,1-7.4c-0.1-2.1-0.4-4.3-1.5-6.1c-0.9-1.5-2.5-2.5-4.2-2.6C284.1,69.6,282.7,69.6,281.4,70.1
	z M313.7,63.1c2.9-0.5,5.9-0.6,8.8-0.2c2.3,0.3,4.7,1,6.5,2.6c1.5,1.3,2.4,3.1,2.8,5c0.6,2.7,0.5,5.5,0.5,8.3c0,3.4,0,6.8,0,10.2
	c0.1,2.4,0.3,4.9,1.6,7c-1.1,0.4-2.3,0.7-3.5,0.8c-1.5,0.1-3,0.1-4.3-0.6c-1.1-0.6-1.9-1.8-2.1-3c-2.4,2.3-5.6,3.6-8.9,3.7
	c-2.6,0.2-5.3-0.3-7.5-1.7c-1.4-0.9-2.5-2.2-3.2-3.7c-0.6-1.3-0.9-2.8-0.9-4.2c-0.1-2,0.3-4.1,1.5-5.8c1.1-1.5,2.5-2.7,4.1-3.6
	c2-1.1,4.2-1.7,6.5-2c2.6-0.4,5.2-0.6,7.9-0.6c0-1.1,0.1-2.3-0.3-3.4c-0.3-0.8-0.9-1.6-1.7-2c-1.1-0.6-2.4-0.7-3.6-0.8
	c-1.3,0-2.7,0.1-3.9,0.4c-1.1,0.2-2.1,0.7-3.2,1.2c-1.1,0.5-2.1,1-3.1,1.6c-0.8-1-1.4-2.1-1.8-3.3c-0.2-0.7-0.5-1.5-0.1-2.2
	c0.5-0.9,1.3-1.5,2.2-2C309.7,64,311.7,63.5,313.7,63.1 M320.1,80.4c-1.5,0.2-3.1,0.4-4.6,1.1c-1.4,0.7-2.7,1.8-3.1,3.3
	c-0.4,1.5-0.2,3.1,0.7,4.4c0.5,0.8,1.4,1.3,2.4,1.5c2,0.4,4,0,5.8-0.9c0.7-0.4,1.4-0.9,1.8-1.6c0.2-0.3,0.4-0.7,0.4-1.2
	c0-2.3,0-4.6,0-6.8C322.3,80.2,321.2,80.3,320.1,80.4z M351.2,62.8c2.5-0.3,5-0.2,7.4,0.4c2,0.5,4,1.3,5.5,2.7
	c0.9,0.8,1.1,2,0.9,3.2c-0.4,1.5-1.1,2.9-2.1,4.1c-0.5-0.5-1.1-1-1.7-1.4c-1.1-0.7-2.2-1.4-3.4-1.7c-1.5-0.4-3.2-0.5-4.8-0.2
	c-1.5,0.2-3,0.9-4,2c-1.3,1.5-2,3.5-2.3,5.5c-0.2,1.7-0.2,3.3,0.1,5c0.2,1.7,0.7,3.5,1.8,4.9c1.1,1.5,2.9,2.5,4.8,2.8
	c3.3,0.5,6.9-0.6,9.2-3.2c0.7,0.8,1.2,1.7,1.6,2.6c0.4,0.8,0.7,1.6,0.7,2.5c0,0.8-0.3,1.6-0.9,2.2c-1,0.9-2.2,1.4-3.4,1.9
	c-1.7,0.7-3.6,1-5.4,1.1c-2.8,0.2-5.5-0.2-8.2-1c-1.9-0.7-3.6-1.7-5-3c-1.4-1.3-2.5-3-3.3-4.7c-0.9-2-1.3-4.1-1.5-6.3
	c-0.2-2.8-0.1-5.7,0.6-8.4c0.6-2,1.6-3.9,2.9-5.6c1.2-1.5,2.7-2.6,4.3-3.5C346.9,63.6,349,63.1,351.2,62.8z M437.4,63.1
	c2.5-0.6,5.1-0.6,7.7-0.2c2.2,0.4,4.4,1.1,6.2,2.4c0.6,0.4,1.2,1,1.5,1.7c0.4,0.9,0.3,2-0.1,2.9c-0.4,1.2-1.1,2.3-1.9,3.3
	c-0.9-0.9-2-1.6-3.1-2.3c-2-1.1-4.3-1.4-6.6-1.1c-1.6,0.2-3.2,0.9-4.3,2.1c-1.3,1.5-2,3.5-2.2,5.5c-0.2,1.7-0.2,3.5,0.1,5.3
	c0.2,1.7,0.8,3.4,1.9,4.7c1.1,1.4,2.8,2.4,4.6,2.6c3.3,0.5,7-0.6,9.2-3.2c0.8,0.9,1.3,1.9,1.8,3c0.4,0.9,0.7,2,0.4,3
	c-0.1,0.6-0.6,1.1-1,1.5c-1,0.8-2.2,1.3-3.3,1.8c-2.1,0.8-4.3,1-6.5,1c-1.4,0-2.9-0.2-4.3-0.4c-2.1-0.4-4.2-1.1-6-2.4
	c-1.7-1.1-3-2.7-4-4.4c-1.2-1.9-1.9-4.1-2.1-6.3c-0.3-2.4-0.3-4.9-0.1-7.3c0.3-2.3,1-4.5,2.2-6.4c1.1-1.8,2.5-3.4,4.3-4.5
	C433.3,64.3,435.3,63.5,437.4,63.1z M223.5,63.5c0.9,0,1.7-0.2,2.6-0.2c1.6,0,3.2,0.2,4.6,0.9c0.7,0.3,1.2,0.9,1.6,1.5
	c0.4,0.8,0.6,1.8,0.6,2.8c0,4.9,0,9.7,0,14.6c0.1,1.3,0,2.6,0.5,3.8c0.2,0.6,0.6,1.2,1.2,1.5c0.8,0.5,1.7,0.7,2.6,0.8
	c1.9,0.1,3.8-0.3,5.4-1.3c0.8-0.5,1.4-1.4,1.4-2.4c0-7.3,0-14.7,0-22c2-0.2,4.2-0.4,6.2,0.3c1.2,0.4,2.3,1.4,2.7,2.6
	c0.4,0.9,0.4,1.8,0.4,2.8c0,9,0,17.9,0,26.9c-2,0-4.1,0-6.1,0c-0.6,0-1.3,0-1.9-0.4c-0.4-0.3-0.6-0.7-0.7-1.1
	c-0.2-0.7-0.2-1.4-0.2-2.1c-0.9,1.1-2,2-3.2,2.7c-1.3,0.8-2.7,1.2-4.2,1.4c-1.8,0.2-3.5,0.2-5.3,0c-1.6-0.2-3.1-0.6-4.4-1.6
	c-1.6-1.2-2.7-2.9-3.1-4.9c-0.5-2.2-0.6-4.4-0.6-6.6C223.5,76.9,223.5,70.2,223.5,63.5z M368.1,63.6c1.3-0.2,2.6-0.3,3.9-0.2
	c1.1,0.1,2.3,0.3,3.3,0.9c0.9,0.6,1.6,1.5,1.9,2.6c0.2,0.8,0.2,1.7,0.2,2.5c0,9.1,0,18.2,0,27.3c-1.5,0.3-3,0.3-4.5,0.2
	c-0.9-0.1-1.8-0.2-2.6-0.7c-1.1-0.6-1.8-1.7-2-2.9c-0.2-0.8-0.2-1.7-0.2-2.5C368.1,81.6,368.1,72.6,368.1,63.6z M410.9,63.6
	c1.3-0.2,2.7-0.3,4-0.2c1,0.1,2.1,0.2,3,0.7c1.1,0.6,1.9,1.6,2.2,2.8c0.2,0.9,0.2,1.9,0.2,2.8c0,9,0,17.9,0,26.9c-1,0.3-2,0.2-3,0.3
	c-1.2,0-2.5-0.1-3.6-0.5c-0.9-0.4-1.7-1.1-2.1-2.1c-0.5-1-0.6-2.2-0.6-3.4C410.9,81.8,410.9,72.7,410.9,63.6z"/>
</svg>
