<?xml version="1.0" encoding="utf-8"?>
<!-- Generator: Adobe Illustrator 26.1.0, SVG Export Plug-In . SVG Version: 6.00 Build 0)  -->
<svg version="1.1" id="Layer_1" xmlns="http://www.w3.org/2000/svg" xmlns:xlink="http://www.w3.org/1999/xlink" x="0px" y="0px"
	 width="580px" height="120px" viewBox="0 0 580 120" enable-background="new 0 0 580 120" xml:space="preserve">
<path fill-rule="evenodd" clip-rule="evenodd" fill="#9CA3AF" d="M112.7,5v43.7h45.9l-34.8,9.5l-11.1-9.5v44.1L104.3,64L88.5,75.1
	l10-18.8l-29.9-7.5h44.1l-10.4-9.3L112.7,5L112.7,5z M102,39.4l-4.7,2.9L86.8,23.8L102,39.4L102,39.4z M119.8,62.3l3.8-3.9
	l14.8,15.2L119.8,62.3L119.8,62.3z M120,41.8h8L139,22.7L120,41.8L120,41.8z"/>
<path fill-rule="evenodd" clip-rule="evenodd" fill="#9CA3AF" d="M48.6,113.9l60-25.1l2.4,7L48.6,113.9L48.6,113.9z M40.5,110.6
	L106.1,81l2,6.2L40.5,110.6L40.5,110.6z M53.7,99l49.1-27.8l2.5,7.8L53.7,99L53.7,99z M21.2,99.2L84.9,73L80.8,80L21.2,99.2
	L21.2,99.2z M34.7,84.2l55.5-22l-4.1,6.9L34.7,84.2L34.7,84.2z M21.6,78l56.7-22.7L89.4,58L21.6,78L21.6,78z M5,73.5l57.3-22.8
	L73,53.5L5,73.5L5,73.5z M28.9,56l58.8-23.5l3.7,6.6L28.9,56L28.9,56z M24.7,47.8L83,24.4l3.6,6.6L24.7,47.8L24.7,47.8z M44.4,31.2
	l63.2-24.8l-2.5,8.2L44.4,31.2L44.4,31.2z"/>
<path fill-rule="evenodd" clip-rule="evenodd" fill="#9CA3AF" d="M209.8,35.6h12.5c0-9-4.5-17.2-13.5-17.2h-25.5
	c-9,0-16.4,7.4-16.4,16.5v13.3c0,9,7.4,16.5,16.4,16.5h26.1c9,0,13-8.5,13-17.6h-12.5c-0.9,4.3-3.2,7.8-7.7,7.8h-13.7
	c-5.2,0-9.5-4.3-9.5-9.5v-7.7c0-5.2,4.3-9.5,9.5-9.5h13.7C206.7,28.2,209,31.3,209.8,35.6L209.8,35.6z M233.6,64.6V18.4h12.5v17.2
	h31.8V18.4h12.5v46.2h-12.5l0-17.6l-31.8,0v17.6H233.6L233.6,64.6z M298.5,64.6L323,18.4h17.4l24.4,46.2h-14.6l-5.1-10.1h-27.5
	l-5,10.1H298.5L298.5,64.6z M320.7,47h21l-9-18.8H330L320.7,47L320.7,47z M372.7,64.4V18.5l14.3-0.1l0,34.1h29.7v11.9H372.7
	L372.7,64.4z M421.8,64.6l24.5-46.2h17.4L488,64.6h-14.6l-5.1-10.1h-27.5l-5,10.1H421.8L421.8,64.6z M443.9,47h21l-9-18.8h-2.7
	L443.9,47L443.9,47z M494.7,64.6V18.4h13v46.2H494.7L494.7,64.6z M556.9,30.1h-24.7v12.8h24.7c1.9,0,3.2-0.3,3.9-0.8
	c0.7-0.5,1.1-1.5,1.1-2.8v-5.5c0-1.3-0.4-2.3-1.1-2.8C560.1,30.3,558.8,30.1,556.9,30.1L556.9,30.1z M518.7,64.6V18.4h44.8
	c4,0,6.9,0.8,8.7,2.2c1.8,1.4,2.7,3.7,2.7,6.8v10.8c0,4.7-4.1,7.3-7.9,8.6c4.8,1,8,3.7,8,7.5v10.2h-13.8v-8.7c0-2.4-2.9-5.4-6.7-5.4
	h-21.4v14.1H518.7L518.7,64.6z"/>
<path fill-rule="evenodd" clip-rule="evenodd" fill="#9CA3AF" d="M346.3,94.4l4.5,6.7h-9.2L346.3,94.4z M482.1,104.6h15.2V94.1
	h-15.2V104.6z M193.7,101.1h8.3l-4.1-6.7L193.7,101.1z M575,84.3V115H166.4V84.3H575z M210.9,107.7l-10.8-16.6h-4.2l-10.7,16.6h4.4
	l2.2-3.6h12l2.3,3.6H210.9z M267.5,91.2h-5.2l-8.7,12l-9.1-12h-6l13,16.6h3.6L267.5,91.2z M301.9,91.2h-4.8v16.6h4.8V91.2z
	 M360.8,107.7l-12-16.6h-4.7l-11.8,16.6h4.8l2.4-3.6h13.3l2.5,3.6H360.8z M410,91.2h-22v3h8.7v13.6h4.4V94.1h8.8V91.2z M445,91.2
	h-4.4v16.6h4.4V91.2z M501.9,95.1c0-1.5-0.3-2.5-1-3.1c-0.7-0.6-2-0.8-3.9-0.8h-14.6c-1.9,0-3.2,0.3-3.9,0.8c-0.7,0.6-1,1.6-1,3.1
	v8.7c0,1.5,0.3,2.5,1,3.1c0.7,0.6,2,0.8,3.9,0.8H497c1.9,0,3.2-0.3,3.9-0.8c0.7-0.5,1-1.6,1-3.1V95.1z M557.6,91.2h-4.2v8.7
	c0,0.2,0,0.5,0,0.9c0,0.4,0.1,1,0.2,2c-0.3-0.3-0.6-0.6-1-0.9c-0.4-0.3-0.8-0.6-1.3-0.9l-14.3-9.8h-3.2v16.6h4.2v-8.9
	c0-0.3,0-0.7,0-1.2c0-0.5-0.1-0.9-0.1-1.4c0.2,0.2,0.5,0.4,0.7,0.6c0.3,0.2,0.6,0.4,0.9,0.7l14.9,10.2h3.2V91.2z"/>
</svg>
