<?xml version="1.0" encoding="utf-8"?>
<!-- Generator: Adobe Illustrator 26.1.0, SVG Export Plug-In . SVG Version: 6.00 Build 0)  -->
<svg version="1.1"
	 id="svg5" inkscape:version="1.1 (c68e22c387, 2021-05-23)" sodipodi:docname="Canal_2_logo.svg" xmlns:cc="http://creativecommons.org/ns#" xmlns:dc="http://purl.org/dc/elements/1.1/" xmlns:inkscape="http://www.inkscape.org/namespaces/inkscape" xmlns:rdf="http://www.w3.org/1999/02/22-rdf-syntax-ns#" xmlns:sodipodi="http://sodipodi.sourceforge.net/DTD/sodipodi-0.dtd" xmlns:svg="http://www.w3.org/2000/svg"
	 xmlns="http://www.w3.org/2000/svg" xmlns:xlink="http://www.w3.org/1999/xlink" x="0px" y="0px" width="99px" height="15px"
	 viewBox="0 0 99 15" enable-background="new 0 0 99 15" xml:space="preserve">
<sodipodi:namedview  bordercolor="#111111" borderopacity="1" gridtolerance="1" guidetolerance="1" height="41px" id="namedview7" inkscape:current-layer="layer1" inkscape:cx="44.999998" inkscape:cy="15.249999" inkscape:document-units="px" inkscape:pagecheckerboard="1" inkscape:pageopacity="0" inkscape:pageshadow="0" inkscape:window-height="746" inkscape:window-maximized="1" inkscape:window-width="1366" inkscape:window-x="-8" inkscape:window-y="-8" inkscape:zoom="4.0000002" objecttolerance="1" pagecolor="#ffffff" scale-x="1" showgrid="false" units="px" width="99px">
	</sodipodi:namedview>
<path id="path3556-6" fill="#9CA3AF" d="M12.3,0.3c-1,0-2,0.1-3.1,0.3c-6,0.9-9.4,5-8.8,8.6c0.6,3.5,4,5.7,11.4,4.4
	c0.2,0,0.3-0.1,0.5-0.1l1.2-3.3c-0.7,0.3-1.4,0.5-2.2,0.7c-3.7,0.7-7-0.4-7.4-2.5C3.5,6.4,6.2,4.1,9.8,3.3c2.4-0.5,4.7-0.2,6.1,0.7
	L17,0.9C15.5,0.4,13.9,0.2,12.3,0.3z M40.9,0.8l-16.7,0l-1,2.7h6.4l-3.7,10h3.5l3.7-10H38L42.5,9l-1.7,4.5h3.4l1.5-4.1l13.1-8.7
	h-5.6L45,6.1L40.9,0.8z M19,0.8l-4.6,12.7h3.4l4.6-12.7H19z"/>
<path id="path3560-0" fill="#9CA3AF" d="M70,0.8l-4.6,12.7h14l1-2.7H69.7l0.9-2.5h8.5L79.9,6h-8.5l0.9-2.5h6.2H83h5.2l-3.7,10H88
	l3.7-10H98l1-2.7H84h-4.4H70z M65,7.7l-4,2.5c0,0-0.9,1.2-2.9,1.9c-0.6,0.2-1.7,0.3-2.2,0.3c-1.1,0-2.2-0.3-3.2-0.8L50.4,13l0,0
	c0,0,0,0,0,0l0,0c0,0,0,0,0,0c1,0.7,2.1,1.3,3.4,1.6c0.1,0,0.1,0,0.2,0c0.2,0.1,0.5,0.1,0.7,0.1c0.1,0,0.3,0,0.4,0
	c0.1,0,0.1,0,0.2,0c0.2,0,0.4,0,0.6,0c0.7,0,1.4-0.1,2-0.2c0.8-0.2,1.7-0.5,2.4-0.9c0.6-0.3,1.2-0.7,1.7-1.2c0,0,0,0,0,0
	c0.6-0.5,1.1-1.1,1.5-1.8c0,0,0,0,0,0c0.3-0.5,0.6-1,0.8-1.6C64.8,8.3,65,7.7,65,7.7L65,7.7z"/>
<path id="path3568-1" inkscape:connector-curvature="0" fill="#9CA3AF" d="M68,0.8h-6.6l-3.9,2.7h6.4l0,0l-2.6,5.9l4-2.5L68,0.8
	L68,0.8z"/>
</svg>
