<?xml version="1.0" encoding="utf-8"?>
<!-- Generator: Adobe Illustrator 26.1.0, SVG Export Plug-In . SVG Version: 6.00 Build 0)  -->
<svg version="1.1" id="Layer_1" xmlns="http://www.w3.org/2000/svg" xmlns:xlink="http://www.w3.org/1999/xlink" x="0px" y="0px"
	 width="800px" height="180px" viewBox="0 0 800 180" enable-background="new 0 0 800 180" xml:space="preserve">
<path fill="#9CA3AF" d="M681.3,147.6l6.2-8.2H800v-6.8H692.3l5.9-8.5H800v-7h-96.4l5.6-7.9H800V0H0v109.3h119.3l-5.9,7.9H0v7h108.3
	l-5.9,8.5H0v6.8h97.3l-5.9,8.2H0V180h800v-32.4H681.3z M662.4,32.4L613,100.3h-77.8l49.3-67.9H662.4z M115.3,67.9l25.4-35.5h147.5
	c13.1,0.2,27.2,3.8,35,15.2l1.4,1.7l0.8,2c4.2,7.3,4.7,16.9,0.3,24.2l-0.9,1.4l-16.9,23.4h-57c-1.9,0.1-7.5,0.2-7.6-2.5l-0.3-0.3
	l0.3-0.6v-0.8c5.3-8.2,12.1-16,16.9-24.5v-1.1c-0.1-2.7-2.9-1.9-4.5-2.5H115.3z M230.1,147.6H104.9l0,0v0h0l51.3-71h64.9
	c5.8,0.5,5.6,3.1,2.3,7.3l-13,18.3l-0.6,0.8l-0.8,1.1l-0.3,0.6v2.3l0.3,0.6l0.6,0.6l0.8,0.3l1.1,0.3l1.4,0.3h0.6l0.8,0.3h87.1
	l-1.4,2C283.9,133,257.6,148.4,230.1,147.6z M371.1,147.6h-73.3l27.6-38.3H399L371.1,147.6z M477.1,147.6h-73.3l27.9-38.3H505
	L477.1,147.6z M331.6,100.3L381,32.4h73.3l-28.2,39.2h32.7L487,32.4h73.6l-49.1,67.9H331.6z M550.2,147.6
	c-15.6,1.1-42.7-7.3-29-27.3l7.9-11h166.9L668,147.6H550.2z"/>
</svg>
