<svg xmlns="http://www.w3.org/2000/svg" width="690" height="175" xml:space="preserve"><g fill="#9CA3AF"><path d="M90.8 20.4c-2.6 3.4-4.1 7.6-4.1 11.9v37.3c-.2 2.8-1.3 5.5-3 7.7-1 1-6.7 6.1-7.2 6.7l3.2.1c1.1-1 12.2-10.8 13.2-12.2C96.2 68.4 98 63.8 98 59V23.2c-.1-3.6 1.3-7.2 3.8-9.8 1.4-1.5 5.6-5.1 6.4-5.9l-3.4-.1c-.6.8-12.8 11.8-14 13zM63.5 156 77 167.7h9.1c8.7 0 17-3.4 23.2-9.5 5.5-5.5 7.6-13 7.6-20.1v-19.4c-.1-4.4-1.9-8.6-5.3-11.5-.6-.6-4.6-4.4-4.6-4.4v14.9s4.4 4.5 5.2 5.4c4 4.3 4 12.1-8.8 24.4-2.2 2.1-8.6 8.2-17.3 8.2l-22.6.3z"/><path d="M101.1 76.5c-1.5 1.6-2.9 5.5-2.9 9v7.3h7.4c2.9 0 6.7-2.6 7.5-4v-7.3c1.1 1.6 2.4 3 4 4.2.8-1 7.6-9.1 13.2-9.2 9.4-.1 7.3 11.9 3.5 15.7-1.3 1.3-6.8 6.3-8.6 8-4.5 4.3-12.2 2.2-12.2-8.8 0 0-8.2 7.8-9.4 8.9-1.3 1.1-5.5 5.5-5.5 5.5V125c0 9.2-3 12.4-5.5 15.2-1 1.1-11.4 10.6-12.8 11.7l-3.4.1s6.1-5.5 7.3-6.8c1.4-1.5 3-4.4 3-9.2 0-1.3-.2-30.4-.2-30.4H39c-16.5 0-20.1-18.3-20.1-23.3V63.9c0-3-1.9-8.1-5-9.6h4.7c.6.2 3.5 1.4 3.5 12.7 0 0-.2 13-.2 13.8C21.9 86.5 26.5 93 33 93l53.7-.1c0-1.5 1.5-6.9 4.1-9.8 1.5-1.7 13-12.2 14.3-13.2h3.4c-.5.5-6.1 5.5-7.3 6.8l-.1-.2zm17.7 11c1.4 1.8 2.9 3.7 4.6 5.4 5.8 4.7 8.6-.4 4.7-5.6-1.6-2.3-7.6-1.7-9.3.2z"/><path d="M61.1 122.1c0 2.6-8.3 9.5-8.8 9.9-.6-2.8-2.7-5.8-8.9-12.1l9.1-9.1c6.2 6.2 8.6 7.6 8.6 11.3zM76.9 18.1c1.8 1.8 5.7 6.7 3.4 9.1-2 2-5.3 5.4-5.3 5.4-.2-1.2-3.2-4.1-3.2-4.1v9.8c-.1 4-1.6 5.1-1.6 5.1s7.3 7.2 7.3 16.5v9.5c.1 1.8-.6 3.6-1.8 4.9-.7.8-7.4 7.6-8.5 8.5-1.6 1.4-3.5 2.1-5.5 2H36.5c-4 0-8.1-3.1-8.1-6.2 0-.8.1-9.3.1-9.3 1.3 1.5 2.6 3.2 5.7 3.2 2.5 0 5.1-1.9 5.7-2.7C40.6 69 59 49.9 59 49.9s-8.6-8-14.2-11.8c-2.7-1.8-6.4.5-7 2.9-1.8 7.6 0 19.1 0 19.1L31 53.2c-2.8-2.8-2.7-9.1.7-12.5.5-.6 5.6-6.2 12.1-6.2h10c6.7 0 14.1 6.7 14.1 6.7.6-.7 1-1.5 1.1-2.3 0-3.5-.1-12.8-.1-12.8-5.1-5.1-5.7-10.3-3.3-12.8 4.6-4.6 6.2-6.1 6.2-6.1s-.2 5.6 5.1 10.9zM45.3 68.7c-2.5 2.6-2.9 3.2-5.3 4.7h28.4c7.7 0 6.1-4.8 4.8-7.2-2.8-5-11.8-14.2-11.8-14.2S45.8 68.2 45.3 68.7z"/><path d="M12.9 94.6H8.2s5 2.7 5 9.8v22.7c0 14.7 12.2 28.3 27 28.3h12.4c7.4 0 10-1.8 14.5-5.7 1.7-1.5 3.8-3.9 4.6-4.8 2.5-2.9 5.4-5.3 5.4-12.8v-7.4c0-6.4-3.7-9.1-5.5-10.9-1.2-1.2-4.3-4.2-4.3-4.2v15.2s3.1 3.3 4.5 4.4c6.4 5.1 1.4 13.8-4.7 13.8H39.9c-9.9.2-23.5-8.7-23.5-23.7V107c0-12.4-3.5-12.4-3.5-12.4z"/><path d="M42.7 122.2c0 2.6-8.3 9.5-8.8 9.9-.6-2.8-2.7-5.8-8.9-12.1l9.1-9.1c6 6.1 8.6 7.5 8.6 11.3z"/></g><path fill="#9CA3AF" d="M378.7 60.8c5.4-.2 9.5-4.6 9.5-9.8-.2-5.4-4.6-9.5-9.8-9.5-5.2.2-9.5 4.4-9.5 9.7-.1 5.3 4.4 9.6 9.8 9.6z"/><g fill="#9CA3AF"><path d="M217.5 136.6h-23.8c-7.5 0-6.8-6.2-7.6-11.4V91.3s5.2-.2 11.1-.2c6.5 0 14.8-1 22.7 3.5-4.1-8.7-13-14.1-22.7-13.8h-10.9v-11s0-9.5-2.4-12.2h15.7c13.5 0 24-.2 34.9 7 0 0-2.1-17.9-28.2-17.9h-51.1s8.9 7.6 8.6 23l.3 61.9c0 15.5 6.2 16 6.2 16h50.3c11.4 0 15.4-8.1 15.4-12.5l.2-5.9c-.2 0-3.8 7.4-18.7 7.4zM351.4 131.4V88.1c0-16.8-13.6-21.3-24-21.3-13.5 0-17.6 11.3-19.4 15.2-3-10.5-13.6-15.2-22.2-15.2-16.3 0-20.5 15.5-20.5 15.5s-.3-15.1-13.5-15.1H239s7.5 3 7.5 16v48.1c0 15.9 6.3 16.2 6.3 16.2h21.3c-5.1-3.8-8.1-9.8-8.1-16.3V88.6c.3-1.9 3.5-8.2 12.5-8.2 5.2 0 10.9 5.4 10.8 11.4v39.7c0 16 6.3 16.2 6.3 16.2h21.3c-5.1-4-8.1-9.8-8.1-16.3V88.6c2.1-6.2 8.7-9.7 15.1-7.6 4.8 1.6 8.1 5.9 8.2 10.9v39.5c.2 16.2 6.3 16 6.3 16h21.3c-5.2-3.8-8.2-9.7-8.3-16zM388.5 131.4c0 6.3 3 12.4 8.1 16.2h-21.3s-6.5.2-6.5-16V83.2c0-12.7-7.3-16-7.3-16h12.8c4.6 0 14 0 14 17.9v46l.2.3zM453.8 73.3s-2.1-5.7-10.8-5.7c-13.3 0-16.5 15.9-16.5 15.9-1.1-12.5-4.4-16.2-13.8-16.2h-12.8s7.5 3 7.5 16v48.1c0 15.9 6.3 16.2 6.3 16.2H435c-5.1-3.8-8.1-9.8-8.1-16.2V91.9c.5-3.3 2.4-6.3 5.2-8.1 7.1-4.8 16.5-3.3 22 3.2l-.3-13.7zM552.7 76.2c4.4 0 8.7 1.1 12.5 3.2V67.3h-17.8V48.9c-3.8 6-8.7 11.4-14.3 16-6 4.9-18.7 11.1-18.7 11.1l13.5.2V132c0 15.5 6.5 15.5 6.5 15.5h21.1c-5.1-3.6-8.1-9.5-8.2-15.7V76.2h5.4zM617.1 100.5c-11.9 12.4-21.3 10.5-28.7 19.7 0 0 1.3 12.4 10.6 16.7 3.2 1.4 16.3 6.2 24.7-8.4v13s-5.4 6.3-22.7 6.3c-20.8 0-35.1-16.3-35.1-38.5 0-21.9 11.6-42 33.6-42.2 21.5-.4 33.3 17 17.6 33.4zm-13-5.1c3.5-6.5 6.3-23-5.7-22-14 1.1-11.3 38.1-11.3 38.1 4.6-5.2 11.6-6.3 17-16.1zM475.9 138.4c-4.8 0-8.2-5.1-8.2-10.2 0-20 16.3-22.8 20.8-28.1v33.8c-2.1 1.6-4 4.5-12.6 4.5zm12.5-46c-4.9 8.6-43.3 10.5-37.4 40.1 2.4 11.7 10.2 15.2 20 15.2 9.5 0 15.4-4.9 17.8-9.7 1.4 8.9 6 9.5 6 9.5h21.3c-5.1-3.8-8.2-9.7-8.2-16V86.3c0-10.8-11.9-19.2-24.6-19.2-7.1-.2-14 1.9-19.8 5.9v14s4.4-11.1 15.4-11.1c10.8 0 11.6 5.4 11.6 8.1 0 2.8-.5 5.8-2.1 8.4zM664 125.7c.2 5.7-4.9 13.2-15.7 13.2-11.1 0-15.5-11.3-15.5-11.3v14.3c6 3.8 13 5.7 20.1 5.7 14.4 0 29.2-10.9 28.9-26.3-.2-5.1-1.9-10-4.9-14-4.9-6.5-13.8-11.1-20.8-15.4-4-2.4-6-6.8-6-8.2-.2-2.7 1.3-8.1 11.9-8.1 10.5 0 15.1 11.1 15.1 11.1V73.2c-5.9-4.1-13-6.3-20.3-6.3-12.7 0-24.3 8.4-24 19.2.2 9.5 4.1 15.5 11.9 21.4 3.5 2.5 7.1 4.8 10.9 6.8 6.1 3.3 8.3 7.4 8.4 11.4z"/></g></svg>
