<svg xmlns="http://www.w3.org/2000/svg" width="540" height="380" xml:space="preserve"><g fill="#9CA3AF"><path d="M302.203 30.165a31.582 31.582 0 0 0-6.66 19.363v60.774c-.335 4.59-2.07 8.898-4.924 12.536-1.567 1.567-10.969 10.017-11.752 10.968l5.26.168c1.735-1.567 19.81-17.628 21.602-19.81 5.26-5.708 8.226-13.151 8.226-20.93V34.866c-.168-5.876 2.07-11.752 6.212-16.005 2.238-2.406 9.177-8.226 10.465-9.681l-5.54-.168c-1.176 1.343-20.986 19.25-22.889 21.153zM257.602 251.158l22.048 19.195h14.774c14.103 0 27.757-5.54 37.774-15.557 9.066-9.066 12.368-21.266 12.368-32.682V190.55c-.168-7.163-3.19-13.934-8.562-18.69-.952-.952-7.443-7.164-7.443-7.164v24.288s7.163 7.275 8.394 8.73c6.492 6.995 6.492 19.642-14.27 39.788-3.638 3.47-13.935 13.32-28.26 13.32l-36.823.335z"/><path d="M318.991 121.55c-2.406 2.519-4.756 8.899-4.756 14.607v11.92h12.032c4.756 0 10.968-4.31 12.2-6.492v-11.92c1.734 2.518 3.972 4.925 6.49 6.828 1.288-1.567 12.368-14.886 21.602-15.054 15.39-.168 11.92 19.363 5.708 25.518-2.07 2.07-11.08 10.297-13.934 12.983-7.275 6.996-19.81 3.638-19.81-14.27 0 0-13.32 12.704-15.39 14.438s-8.898 9.01-8.898 9.01v31.563c0 15.053-4.925 20.146-9.066 24.735-1.567 1.734-18.58 17.292-20.93 19.027l-5.54.167s10.017-9.065 11.92-11.08c2.238-2.406 4.925-7.163 4.925-15.054 0-2.07-.336-49.47-.336-49.47h-77.395c-26.974 0-32.682-29.827-32.85-37.886v-29.995c0-4.925-3.19-13.151-8.114-15.726h7.61c.952.336 5.709 2.239 5.709 20.65 0 0-.336 21.266-.336 22.553 0 9.346 7.443 19.978 18.076 19.978l87.58-.168c0-2.406 2.406-11.248 6.659-16.005 2.406-2.686 21.265-19.81 23.336-21.6h5.54c-.783.783-10.017 8.897-11.92 11.08l-.112-.336zm28.709 17.908c2.238 3.022 4.757 6.044 7.443 8.73 9.513 7.611 13.934-.615 7.61-9.177-2.518-3.526-12.143-2.574-15.053.447z"/><path d="M253.796 195.924c0 4.309-13.487 15.557-14.27 16.173-.951-4.59-4.421-9.514-14.438-19.643l14.774-14.774c10.017 10.017 13.934 12.256 13.934 18.244zM279.538 26.36c3.022 3.022 9.346 10.968 5.54 14.886-3.357 3.357-8.561 8.73-8.561 8.73-.336-1.903-5.26-6.66-5.26-6.66v16.005c-.169 6.492-2.52 8.227-2.52 8.227s11.92 11.752 11.92 26.973v15.558c.169 2.854-.95 5.876-3.021 7.946-1.12 1.287-12.032 12.368-13.823 13.823-2.518 2.238-5.708 3.47-9.066 3.357h-41.075c-6.492 0-13.151-5.092-13.151-10.129 0-1.287.167-15.221.167-15.221 2.071 2.406 4.31 5.26 9.346 5.26 4.141 0 8.226-3.19 9.346-4.42 1.119-1.288 31.114-32.347 31.114-32.347s-13.99-13.095-23.168-19.306c-4.42-3.022-10.465.783-11.416 4.756-2.854 12.368 0 31.115 0 31.115l-11.248-11.248c-4.59-4.59-4.421-14.886 1.119-20.314.783-.952 9.178-10.13 19.643-10.13h16.34c10.969 0 23 10.969 23 10.969.952-1.12 1.568-2.406 1.735-3.805 0-5.708-.167-20.762-.167-20.762-8.227-8.227-9.346-16.789-5.373-20.762 7.443-7.555 10.13-10.073 10.13-10.073s-.28 9.01 8.45 17.572zm-51.596 82.487c-4.141 4.31-4.757 5.26-8.562 7.611h46.336c12.535 0 10.017-7.778 7.779-11.752-4.59-8.114-19.195-23-19.195-23s-25.575 26.358-26.358 27.141z"/><path d="M175.114 151.043h-7.61s8.114 4.42 8.114 16.005v36.934c0 23.952 19.81 46.169 43.93 46.169h20.146c12.032 0 16.34-2.854 23.616-9.346 2.686-2.406 6.211-6.324 7.443-7.779 4.14-4.756 8.73-8.562 8.73-20.93v-12.031c0-10.465-6.044-14.774-9.066-17.74-1.903-1.903-6.995-6.827-6.995-6.827v24.735s5.092 5.372 7.275 7.163c10.464 8.226 2.238 22.553-7.611 22.553H218.82c-16.173.335-38.222-14.103-38.222-38.558v-20.034c.224-20.314-5.484-20.314-5.484-20.314z"/><path d="M223.689 196.092c0 4.309-13.487 15.557-14.27 16.173-.952-4.59-4.421-9.514-14.439-19.643l14.774-14.774c9.794 9.85 13.935 12.088 13.935 18.244zM69.01 360.283H45.228c-7.443 0-6.827-6.211-7.61-11.416v-33.969s5.26-.168 11.08-.168c6.491 0 14.773-.95 22.664 3.47-4.141-8.73-12.983-14.102-22.664-13.822H37.784v-10.969s0-9.513-2.406-12.2h15.725c13.487 0 23.951-.167 34.92 6.996 0 0-2.07-17.908-28.26-17.908H6.668s8.898 7.61 8.562 23l.336 61.894c0 15.557 6.212 16.005 6.212 16.005h50.31c11.416 0 15.389-8.115 15.389-12.536l.168-5.876c-.056.056-3.75 7.5-18.635 7.5zM202.871 355.079v-43.314c0-16.789-13.655-21.266-23.952-21.266-13.486 0-17.628 11.248-19.362 15.222-3.022-10.465-13.655-15.222-22.217-15.222-16.341 0-20.482 15.557-20.482 15.557s-.336-15.053-13.487-15.053H90.5s7.443 3.022 7.443 16.005v48.07c0 15.838 6.323 16.174 6.323 16.174h21.266c-5.093-3.806-8.115-9.85-8.115-16.341v-42.699c.336-1.902 3.47-8.226 12.536-8.226 5.26 0 10.968 5.372 10.8 11.416v39.677c0 16.005 6.324 16.173 6.324 16.173h21.266c-5.093-3.973-8.115-9.85-8.115-16.341v-42.699c2.07-6.212 8.73-9.681 15.054-7.61 4.757 1.566 8.114 5.875 8.226 10.968v39.509c.168 16.173 6.324 16.005 6.324 16.005h21.265a20.72 20.72 0 0 1-8.226-16.005zM240.03 355.079c0 6.324 3.021 12.367 8.114 16.173h-21.265s-6.492.168-6.492-16.005V306.84c0-12.703-7.275-16.005-7.275-16.005h12.871c4.589 0 13.935 0 13.935 17.908v46l.112.336zM305.393 296.99s-2.07-5.707-10.8-5.707c-13.32 0-16.51 15.837-16.51 15.837-1.119-12.536-4.42-16.173-13.822-16.173H251.39s7.443 3.022 7.443 16.005v48.07c0 15.838 6.323 16.174 6.323 16.174h21.266c-5.093-3.806-8.115-9.85-8.115-16.173v-39.509c.504-3.358 2.407-6.324 5.26-8.114 7.164-4.757 16.51-3.358 22.05 3.19l-.224-13.6zM404.221 299.845c4.421 0 8.73 1.119 12.536 3.19v-12.032h-17.74V272.59c-3.806 6.044-8.73 11.417-14.27 16.005-6.044 4.925-18.692 11.08-18.692 11.08l13.487.169v55.85c0 15.557 6.492 15.557 6.492 15.557h21.097c-5.092-3.638-8.114-9.514-8.226-15.725v-55.682h5.316zM468.577 324.132c-11.92 12.368-21.265 10.465-28.708 19.643 0 0 1.287 12.367 10.632 16.676 3.19 1.455 16.341 6.212 24.736-8.394v12.983s-5.373 6.324-22.665 6.324c-20.762 0-35.032-16.341-35.032-38.558 0-21.88 11.584-42.027 33.633-42.195 21.377-.28 33.13 17.18 17.404 33.521zm-12.983-5.092c3.47-6.492 6.324-23-5.708-22.05-13.935 1.12-11.248 38.055-11.248 38.055 4.588-5.037 11.584-6.156 16.956-16.005zM230.18 284.455c5.373-.168 9.514-4.589 9.514-9.849-.168-5.372-4.59-9.514-9.85-9.514-5.26.168-9.513 4.421-9.513 9.682 0 5.428 4.477 9.681 9.85 9.681zM327.442 362.018c-4.757 0-8.227-5.092-8.227-10.129 0-19.978 16.341-22.832 20.762-28.093v33.801c-2.07 1.567-3.973 4.421-12.535 4.421zm12.535-46c-4.925 8.562-43.314 10.464-37.438 40.124 2.406 11.752 10.129 15.222 19.978 15.222 9.514 0 15.39-4.925 17.74-9.682 1.455 8.898 6.044 9.514 6.044 9.514h21.265c-5.092-3.806-8.226-9.682-8.226-16.005v-45.217c0-10.8-11.92-19.195-24.567-19.195-7.163-.168-13.935 1.903-19.81 5.876v13.934s4.42-11.08 15.389-11.08c10.8 0 11.584 5.372 11.584 8.114.056 2.854-.392 5.876-1.959 8.395zM515.585 349.37c.168 5.709-4.925 13.152-15.725 13.152-11.08 0-15.558-11.249-15.558-11.249v14.27c6.044 3.806 12.983 5.709 20.147 5.709 14.438 0 29.212-10.969 28.876-26.358-.168-5.093-1.903-10.017-4.925-13.935-4.924-6.491-13.822-11.08-20.762-15.39-3.973-2.405-6.044-6.826-6.044-8.225-.167-2.687 1.288-8.115 11.92-8.115 10.465 0 15.054 11.08 15.054 11.08v-13.486c-5.876-4.141-12.983-6.324-20.314-6.324-12.703 0-24.287 8.394-23.952 19.195.168 9.513 4.141 15.557 11.92 21.433 3.47 2.519 7.163 4.757 10.969 6.828 5.988 3.301 8.226 7.442 8.394 11.416z"/></g></svg>
