<svg xmlns="http://www.w3.org/2000/svg" xml:space="preserve" viewBox="0 0 391 154"><path fill="#009EE3" d="M201 149h185V5H251.1z"/><path fill="#FFF" d="M264.6 110.2c-5.3 10-10 20.2-15.2 30-1.6-4.5-2.6-9.3-3.9-14-.9.8-1.6 2.3-2.1 3.2-1.5-4.6-1.5-8.3-2.4-13.2-.7.4-1.4 1-2.1 1.5-.8-4 .9-7.7 1.2-11.1-4.6 1.4-.1-4.1 1-5.9.6-.8.5-1.8-.9-1.2.3-2.6 3.2-4.7 4.6-6.8-.6-.7-1.1.7-1.6 0 .9-2.3 2.9-4.5 4.3-6.5-.3-.3-.9-.1-1.2-.4 1.2-2 3.3-4 5.1-5.6-.3-.4-1 .1-1-.6 1.8-1.9 3.6-3.9 5.2-5.6-.4-.2-.8-.6-1.3-.3.9-1.7 2.6-3.4 4-4.9-2.8-1.4 4-3.3.2-4.7C251.3 69 244.8 75.5 238 81c-.3-1.3-.4-3.1-.3-4.6-.6-1-1.1.5-1.7.4-.3-1.1.1-2.1.2-3.1.3-.8.1-3-1.3-1.7.3-1.7 1.5-3.4 1.8-4.9-.4 0-.7.1-1.1.1.4-1.8 2.2-3.1 2.6-4.9-.2-.4-1 .1-1.2-.4.9-2.4 8.1-6.2 1-5.9 5.8-1.4 11.5-2.8 17.8-4 10.3-2.8 20.6-5.4 30.6-8.6 10-2.2 20-.9 30-1.4.6 0 2.5.3 3 1.4 1.5 4 7 .9 9.7 4 1.5 1.3 2.1 3.4 2 5.4-4.4-1.9-9.6-.4-14.3.4 20.5 8.8 42 15.8 62.5 24.5-3.9 1.7-8.2 2.8-13 3.2 1.2.9 3.1 1.8 3.4 2.7-4.3 1.8-9.8 1-14.2 1.6 1 1.8 3.1 2.2 3.8 4.1-4 .3-8.2-1.5-11.8-2.2.1.6.6 1.1.8 1.7-2.6.2-4.8-1-7.2-1.6l-1.8-.6c-2.9-1.8-2.1-1.3-2.9-1.8.9 2.1-1.5 1.5-2.5.9-2-1.4-4.1-2.6-6-4.1.3 1.6-1.6 1.4-2.5.7-1.8-1-3.5-3.1-5.3-3.8.1 3.6-3.2-.2-4.7-.7-.8-.3-2.7-3.1-2.5-.4-1.9-1.4-3.3-3-4.9-4.5-.8 2.8-4.1-1.5-5.6-1.7.5 2.8-1.7.3-2.4 0-1.2-.9-2.3-2-3.4-2.7 0 .4-.3.6-.1.9-2 .2-3.9-1.9-6.1-2.1-1 7.7 7.2 6.4 11.2 9 1.3.9 3.4 2.1 3 3.7-1.3-.2-2.4-1.3-3.7-1.6-3-.5-6.9-.8-9.8.7-.6-.8 0-1.8.7-2.5.4 0-.7-.9-1.2-.8-1-.2-2.2 0-3.4.1-.8-1.9-1.7-3.8-2.6-5.5-.1.2-.4.3-.3.7 1.4 4.3.5 10.5 5.2 12.5 3.4.7 7.4 2.1 9.2 5.6-.1.1-.3.3-.3.4-4.1-2.8-9.9-2.3-14.3-.6.3-1.5 1.6-2.2 2.7-3 .4.1.7-.2 1.1-.3-2.1-.8-4.1-2.3-6.7-1.4-1.1-1.3-.2-3.5-1.4-4.8-4.7 9.4-9.4 18.8-14.1 28.3l-1.1 2.4zm28.9-62.7c.6 1.7 2.8 1.9 4 1.9 6.3-.4 11.8-2.4 17.3-4.3 1.1 0 2 1 3.2.8-.3-1.4-1.8-1.8-2.8-1.8-7.9-.2-15.4.7-23.2.2.3 1.3 1 2.1 1.5 3.2zm-14.7.3c2.2-.5 5.9-.8 8.6-1.7.3-.3.3-.7.6-1-2.9 1.3-6.8.6-9.2 2.7zm-9.5 39.1c-.4 2.3-1.1 5.5.7 7.4 7.8-14.9 14.6-30 22.4-44.8-.7-1.4-.9-3.5-2.2-4.1-6.9 13.8-14.1 27.6-20.9 41.5zm5.6-34.9v.5c3.2-.8 7.4-.7 10-1.4.5-.8 1.5-2.1.7-2.5-3.8.8-8.6.4-10.7 3.4zm-16.3.8c-.6 2.7-.7 6 .4 8.7 2.2 1.9 3.7-1.9 5.6-2.8-1.7.3-.7-1.5 0-1.8.4-1.1 4.9-3 .9-2.8.8-1.1 2.4-2.5 2.4-3.3-3 .9-6.3 1-9.3 2zm54-5.1c1 .2 3.1.3 3.1-.5-1.1 1.6-2-1.6-3.1.5zm-67.4 7.8c-.2.9-1.4 1.4-1.2 2.4 4.2-1 8.2-2.2 12-3.8 0-.3 0-.6-.3-.7-3.3 1-7.1 1.2-10.5 2.1zm48.7-3.9c-1.1 1.4-1.8 3-2.2 4.7 11.9-2.4 24.6-6.8 37.3-6.1-3.4-4.3-10.2-2.5-14.9-1.3-1 .3-1.8-.1-2.6-.6-5.7 1.2-11.1 3.7-17.6 3.3zM272.5 57v.4c3.7-.8 10.2 1.4 11.2-3.5-3.3-.1-9.7-.8-11.2 3.1zm-29.6 2.9c-.1.5-.6 1-.5 1.5 4.4-1.4 9.1-2.5 13.5-4.2.4-.2 0-.7.1-1.1-4.5 1.1-8.7 2.4-13.1 3.8zm-1.6 4.6c0 .4.3 1-.1 1.3 5-1.8 10.4-3.6 15.1-6.4.1-.2-.1-.3-.2-.4-5 1.8-10.3 2.7-14.8 5.5zm65.1-9.4c7.2 2.9 14.4 6.9 22.5 7.5 1 0 1.8-.3 2.6-.9v-.5c-6.3-2.7-12.8-4.7-19.1-7.1-2.1.4-3.9.8-6 1zm-4.5 1.7c.8 3.9-1.3 10.2 3.3 11.4.4 0 .7-.1 1.1-.1.4-3.2-.4-7-.6-10.5-1.3-.3-3.3-2.1-3.8-.8zm-6 .6c-.1 2.4.1 5.2.7 7.1 1.3.6 2.5 1.5 4.1 1 .1-2.9-.4-5.9-.7-8.9-1.5 0-2.8.6-4.1.8zM270 61.3c0 .2 0 .5.1.6 3.2-.1 6.5 0 9.6-.5.4-.9 1.2-1.6 1.1-2.6-3.4.9-8.5-.3-10.8 2.5zm-28.7 7.2c-.7.5-.2 1.5-.2 2.3 5.1-2.4 10.2-6.1 15.3-9.1.5-.1-.2-.1-.3-.4-5.1 2.2-9.9 4.8-14.8 7.2zm50-5.4c.7.7 1.7.7 2.7.9.6-1.8.2-4.2-.3-6-4.2-.7-1.8 2.8-2.4 5.1zm-50.1 12.4c5.4-3.7 10.7-7.9 15.4-12.4-5.2 3.4-10.4 6.8-15.7 10.2-.1.6 0 1.6.3 2.2zm70.1-4.7c.3 0 .6-.1.9-.1-.2-3.6-.2-7.2-1.4-11.1-1.1-.1-2.1-1.2-3.2-1.3 1 4.3-1.9 10.7 3.7 12.5zM267.2 66c0 .3.1.6.1.8 3 .8 6.4.1 9.5.2.5-1.1 1.4-2 1.5-3.2-3.2.7-8.7-1.1-11.1 2.2zm47 5.3c1.2.7 2.3 1.7 3.8 1.5-.4-3.6-.5-7.6-1.3-10.7-1.1-.5-2.2-1.2-3.5-1.2.3 3.5.7 7 1 10.4zm4.6-8.3c1.8 4.6-1.7 13.1 5.9 12.9-.2-3.7-1-7.7-1.6-11.4-1.3-.7-2.7-1.3-4.3-1.5zm15.5.1c9.4 4.9 18.7 10.1 28.2 14.8 2.8.1 5.2-.9 7.5-1.8-11.7-4.6-23.8-9.7-35.7-13.4-.1.1 0 .3 0 .4zm-70 8.8c3.4-.4 6.7.3 10.1-.1.1-.9 2.5-2.6-.1-2.6-3.8.5-7.9-1.8-10.1 2.3 0 .1 0 .2.1.4zm63.1 4.9c1.3 1 8.4 6 4.7-.2-1.3-3.8-2.5-7.5-3.8-11.3-.9-.1-1.8-.3-2.7-.4-.1 4 1.4 7.8 1.8 11.9zm23.6 4c2.5.9 5.8.1 8-1.2.4.1.1-.4 0-.5-8.5-4.9-17-10-25.4-14.4 5.5 5.5 11.5 10.8 17.4 16.1zm-7.1.9c1.7.6 3.5.9 5.5.8-5.2-5.8-11.6-11.4-17.2-16.9 3.5 5.4 7.8 10.8 11.7 16.1zm-8.4-1.6c1.9.9 3.8 2.1 6 2-3.6-5.4-7.2-10.9-11.2-16.1 1.4 4.8 3.5 9.4 5.2 14.1zM261.3 76c0 .3.1.6.1.8 3.4.1 6.8.4 10.3.1.5-.8 1-1.6 1.4-2.4-3.7.2-9.1-2.5-11.8 1.5zm-3.9 6.2c0 .5.1.9.1 1.3 4.7-.7 6.8 0 11.3-1.1.9-.6 1.9-2.7.8-3-4.2.6-9.6-1.6-12.2 2.8zm-4.6 8.3c0 .5.6-.1.8.4 4.4-1.2 9.1-2.1 13.3-3.5.1-.9 1.3-2.1.4-2.6-5.1 1.3-13.2-.9-14.5 5.7zm-.8 3c-1.7 1.3-3.3 3.2-3.5 5.3 6-2.3 12-4.9 17.9-7.3-.3-.6.5-1 .1-1.6-4.9 1.1-9.8 2.2-14.5 3.6zm-4.1 8.2c-1.6 2.1-2.8 4.3-2.3 7 6.9-4.7 14.7-9.9 20.9-15.5-6.2 2.8-12.4 5.7-18.6 8.5zm-1.2 9.4c-1 1.6-.5 3.3.3 4.8 0 .1.1.2.2.3 7.3-6.2 13.6-13.9 20.4-20.6 0-.3 0-.6-.3-.7-7.1 5-13.6 11-20.6 16.2zm2.8 6.8c-1 2.6.5 5 2.2 6.8.9.5 2 2.1 2.8.9 5.1-9.5 9.7-19.1 14-28.7-6.6 6.6-12.7 14.1-19 21"/><path fill="#FFF" d="M275.685 91.723c0-.6.3-.9.9-.9h16c.8 0 .9.4.9 1l-.2 2.9c0 .6-.3.9-1 .9h-10.5l-.4 6.7h8c.8 0 .9.4.9.9l-.2 3c0 .6-.3.9-.9.9h-8.1l-.4 8.5h10.5c.8 0 .9.3.9.9l-.1 3c0 .5-.3.9-1 .9h-16c-.8 0-.8-.4-.8-.9m21.265-27.71c0-.6.3-1 1-1h6.1c.4 0 .9.4 1 .8l7.7 16.8c.6 1.5 1.6 3.5 2 5.2h.1l1.1-21.8c0-.7.3-1 1-1h3.5c.9 0 .9.4.9 1l-1.5 27.8c0 .5-.3.9-1 .9h-6.2c-.5 0-.9-.4-1.1-.8l-7.6-17.2c-1.1-2.3-1.7-3.8-2-5.3h-.1l-1.1 22.4c0 .5-.3.9-.9.9h-3.8c-.8 0-.8-.4-.8-.9m39.646-19.658c.6-1.9 1.1-3.2 1.5-4.7h.1c.1 2.1.7 4.9 1.3 8.8l.6 3.9h-6.4l2.9-8zm-12.8 18.6c-.2.4-.5.9-.5 1.3s.4.6.7.6h4.6c.4 0 .7-.3.8-.5l2.7-7.5h8.6l1.5 7.4c0 .3 0 .6.7.6h5.4c.5 0 .9-.2.9-.5s-.2-.9-.3-1.3l-6.4-26.3c-.3-1.3-.6-1.5-1.9-1.5h-4.5c-1 0-1.3.3-1.8 1.5m32.082-1.877c-8.6 0-16.2 5.7-16.2 15.9 0 9.8 5 14.6 14 14.6 4 0 7.8-.7 7.8-2.2l.2-3.8c0-.3-.2-.7-.5-.7-.6 0-2.8 1.5-6.6 1.5-5 0-8-3-8-9.3 0-6.2 3.5-11 9.4-11 .5 0 1 0 1.5.1v-5.1h-1.6"/><path fill="#000091" d="M33.7 27.2c.3-.3.6-.6.8-.9.5-.6 1-1.1 1.6-1.6.2-.2.4-.3.5-.4.1-.1.1-.2.1-.2-.2.1-.4.3-.6.4-.1 0-.1-.1-.1-.1.2-.1.4-.3.5-.4-.1 0-.1-.1-.1-.1-.6-.1-1.1.3-1.5.7-.1.1-.2-.1-.2-.1-.7.2-1.2.9-1.9 1.1v-.1c-.3.1-.6.3-.9.3-.3.2-.7.2-1.1.2-.6.1-1.2.2-1.7.3H29c-.3.1-.6.2-.9.4l-.1.1-.3.3c-.3.2-.5.4-.8.6h-.1c-.3.3-.5.5-.8.7h-.2v-.1c.1-.1.1-.1.1-.2l.2-.2c.1-.1.1-.2.2-.3v-.1h-.1c.2-.2.5-.4.8-.6 0 0-.1 0-.1-.1s.1-.1.1-.1v-.2.4c-.1.1-.2.3-.4.3h-.2v-.4l.1-.1v-.1s0-.1.1-.1v-.1l.3-.3.6-.3.1-.1c-.3.1-.5.2-.8.4 0 0-.1 0-.1.1 0 0-.1 0-.1-.1.1-.1.2-.2.3-.2.1 0 .1 0 .1.1 1.5-1.2 3.6-.9 5.4-1.5.2-.1.3-.2.4-.3.2-.1.4-.3.7-.5.4-.3.7-.6.8-1.1 0-.1-.1-.1-.1-.1-.6.7-1.3 1.2-2.1 1.6-1 .5-2.1.4-3.1.6.1-.1.2-.1.2-.1 0-.2.1-.2.2-.3h.2c.1 0 .1-.1.1-.1.1 0 .3-.1.2-.1-.2-.2-.4.2-.7 0 .1-.1.1-.2.2-.3h.2c0-.1.1-.2.1-.2.7-.4 1.4-.8 2-1.1-.2 0-.2.2-.4.1.1 0 0-.2.1-.2l1.5-.6c-.2 0-.3.2-.5 0 .1-.1.2-.2.3-.2v-.2c0-.1.1-.1.1-.1-.1 0-.1-.1-.1-.1.1-.1.2-.1.3-.2-.1 0-.2 0-.2-.1.2-.2.4-.2.6-.3-.1-.1-.2 0-.2-.1s.1-.1.1-.1h-.1c-.1-.1-.1-.2-.1-.2.3-.3.3-.8.4-1.1-.1 0-.1 0-.1-.1-.5.5-1.2.7-1.9.9h-.3c-.2.1-.6.1-.8-.1-.2-.1-.3-.2-.5-.4l-1.2-.6c-1.2-.4-2.4-.6-3.6-.5.5-.3 1.1-.3 1.7-.5.8-.2 1.6-.5 2.4-.5-.2-.1-.3 0-.5 0-.7-.1-1.3.2-2 .3-.5.1-.9.3-1.4.4-.2.7-.3 1-.7 1v-.2c.5-.6 1.1-1.1 1.8-1.2.9-.2 1.7 0 2.5.1l1.8.3c.2 0 .3.4.5.4.3.1.6 0 .9.2 0-.1-.1-.2 0-.3.2-.2.4.1.6-.1.4-.2-.3-.7-.5-1 0-.1.1-.1.1-.1.4.3.7.7 1.1 1 .2.1.8.2.7-.1-.2-.5-.7-1-1.1-1.4v-.2c-.1 0-.1-.1-.2-.1v-.2c-.2-.1-.2-.3-.2-.4-.2-.2-.1-.6-.2-.9-.1-.3-.2-.5-.2-.8-.2-.8-.3-1.5-.4-2.3-.1-.9.5-1.6 1-2.4.3-.6.7-1.1 1.3-1.5.2-.6.5-1.1.9-1.5.4-.5 1-.8 1.5-1 .6-.1 1.2-.3 1.2-.3H5v25.1h23.3c.9-.7 1.8-1 3.1-1.6.5-.2 1.9-.9 2.3-1.3m-7.2-3.4c-.1 0-.3.1-.2-.1.1-.2.4-.2.6-.3.1-.1.2-.2.3-.1.1.2.2.1.3.2-.3.3-.7.1-1 .3m-7.3-1.1-.1-.1c.6-.8 1.1-1.6 1.5-2.4.6-.3 1.1-.8 1.6-1.3.8-.9 1.7-1.6 2.7-2.1.4-.2.9-.1 1.2.1-.2.2-.4.2-.6.3-.1 0-.1 0-.2-.1.1-.1.1-.1.1-.2-.5.5-1.1.8-1.5 1.4-.3.5-.5 1.1-1.1 1.2-.2.1.1-.2-.1-.1-1.3 1-2.4 2.1-3.5 3.3m3.9-3.1-.2.2c-.1.1-.1.2-.2.2s-.1 0-.1-.1c.1-.1.3-.3.5-.3 0-.1 0 0 0 0m2.2 7.1c0 .1-.1.1-.1.2.1 0 .1.1.1.1-.1.1-.2.2-.4.3h-.1l-.2.2c-.1.1-.3 0-.3-.1.1-.1.2-.2.4-.3.1-.1.2-.1.2-.2s.1-.1.1-.1c.1-.2.4-.2.3-.1m-.8-.4c-.2.1-.4.3-.6.4l-.6.3h-.1c-.2.1-.3.2-.5.4l-.1.1-.1.1-.1.1s0 .1-.1.1h-.1s-.1 0-.1.1-.1 0-.1.1h-.1l-.2.2-.3.3v.1h-.1s0-.1-.1-.1l.2-.2s0-.1.1-.1l.1-.1V28l.2-.2.1-.1s0-.1.1-.1c0-.1 0-.1.1-.1v-.2c.1-.1.1-.2.2-.3l-.2.2c-.1.1-.2 0-.1-.1.1 0 .1-.1.1-.1l.3-.3c.1-.1.1-.1.2-.1 0-.1.1-.1.1-.1.5-.4 1.2-.4 1.8-.7.2-.1.5.1.8 0 .2 0 .3 0 .4.1-.4-.1-.8.2-1.2.4m1-3.3c-.1-.1.2 0 .2-.1h-.4c-.1 0-.1-.1-.1-.1-.2.1-.5.2-.7.2-.3.1-.6.3-1 .4-.5.2-1 .6-1.5.8-.1 0-.1-.1-.1-.1.1-.2.2-.2.3-.3 0-.1 0-.1-.1-.1.4-.5.9-.8 1.4-1.2v-.2c.2-.2.4-.3.5-.5.1-.2.3-.3.5-.4-.1-.1-.2-.1-.2-.2-.2 0-.4.1-.6-.1.1-.1.2-.1.3-.2 0 .1 0 .1 0 0-.1-.1.1-.2.2-.2.2-.1.4-.1.6-.2-.3-.1-.7.1-1.1-.1.2-.6.6-1.1 1.2-1.4.1 0 .2 0 .2.1 0 .2-.2.4-.4.5.4.1.8.1 1.1.3-.1.1-.2.1-.2.1.2.2.5.1.8.2-.2.2-.3 0-.4 0 1.5.4 3 .8 4.3 1.7-1.1.5-2.1.8-3.3 1-.2 0-.2 0-.4-.1 0 .1 0 .2-.1.2-.2 0-.3 0-.5.1-.1 0-.4.1-.5-.1"/><path fill="#E1000F" d="M74.1 5h-27s.1 0 .3.1c.2.1.5.3.7.4.4.2.7.4.9.8.1.2.2.4.2.6-.1.2-.2.6-.4.7-.3.2-.7.2-1 .1-.2 0-.4-.1-.6-.1.7.3 1.4.6 1.9 1.3 0 0 .2.1.4.1.1 0 .1.1.1.2-.1.1-.2.2-.2.3h.2c.2-.1.2-.6.5-.4.2.2.3.5.2.7-.2.2-.4.3-.6.5-.1.1-.1.2 0 .3.2.2.2.4.2.6.2.3.2.7.3 1.1.2.7.4 1.4.3 2.1 0 .4-.2.7-.1 1.1.1.4.3.7.5 1 .2.3.4.5.5.8.3.5.8 1 .6 1.5-.2.3-.7.3-1 .5-.3.2-.1.6.1.9.2.4-.3.7-.6.8.1.2.3.1.3.2.1.2.3.4.2.6-.2.3-.8.4-.5.9.2.3.1.7-.1 1.1-.2.4-.5.6-.9.7-.3.1-.6.1-.9.1-.1-.1-.2-.1-.3-.1-.8-.1-1.6-.3-2.4-.3-.2.1-.5.1-.7.2-.2.2-.4.3-.6.5 0 .1-.1.1-.1.1l-.1.1-.1.1c-.2.2-.3.4-.4.6 0 0 0 .1-.1.1-.2.3-.3.6-.4.9-.3 1.1-.2 2 .1 2.2.1.1 1.6.5 2.6 1 .5.2.8.4 1.1.6h26.5L74.1 5z"/><path fill="gray" d="M48.8 14.2c.2.1.5.1.5.2-.1.4-.7.5-1 .9h-.2c-.2.1-.1.3-.2.3-.2-.1-.3 0-.4.1.2.2.4.3.7.3.1 0 .2.1.2.2 0 0 .1 0 .1-.1.1 0 .1 0 .1.1v.2c-.2.2-.4.1-.6.2.4.1.8.1 1.1 0 .3-.1 0-.6.2-.8-.1 0 0-.2-.1-.2l.3-.3c.1 0 .2-.1.3-.2 0-.1-.2-.2-.2-.2.3-.2.5-.5.4-.8-.1-.2-.4-.2-.7-.3-.2-.1-.5 0-.8.1-.2 0-.5.2-.7.2-.3.1-.6.3-.9.5.3-.2.7-.2 1-.3.4-.1.6-.2.9-.1"/><path d="M5 61.5V42.6h5.7c2.1 0 3.7.5 4.9 1.5 1.2 1 1.8 2.4 1.8 4.1 0 1.1-.3 2.1-.8 2.9-.5.8-1.3 1.5-2.2 2l5.9 8.3h-4.5l-5-7.6h-2v7.6H5zm3.8-10.9h2.1c.8 0 1.4-.2 1.9-.6.5-.4.7-1 .7-1.8 0-.7-.2-1.3-.7-1.7-.5-.4-1.1-.6-1.9-.6H8.8v4.7zm14.1 10.9V42.6h10.9v3.3h-7.1v4.3h6v3.3h-6v4.7h7.1v3.3H22.9zM26.6 41l3-3.6h3.9L30.1 41h-3.5zm11.9 20.5V42.6h6.2c2.1 0 3.7.5 4.8 1.5 1.2 1 1.8 2.4 1.8 4.1 0 1.7-.6 3.1-1.8 4.1-1.2 1-2.8 1.5-4.8 1.5h-2.4v7.6h-3.8zm3.8-10.9h2.5c.8 0 1.5-.2 1.9-.7.5-.4.7-1 .7-1.8 0-.7-.2-1.3-.7-1.7-.5-.4-1.1-.6-1.9-.6h-2.5v4.8zm12.1 3.5V42.6h3.8v11.8c0 1.3.3 2.2 1 3 .7.7 1.6 1.1 2.8 1.1 1.2 0 2.1-.4 2.8-1.1.7-.7 1-1.7 1-3V42.6h3.8v11.5c0 2.5-.7 4.4-2 5.8-1.4 1.4-3.3 2.1-5.6 2.1s-4.2-.7-5.5-2.1c-1.4-1.4-2.1-3.3-2.1-5.8zm20.1 7.4V42.6h5.3c2 0 3.5.5 4.6 1.4 1.1.9 1.7 2.2 1.7 3.8 0 1.6-.7 2.8-2 3.7 1 .5 1.7 1.1 2.3 1.8.5.8.8 1.6.8 2.6 0 1.7-.6 3.1-1.9 4.1-1.2 1-2.9 1.5-5.1 1.5h-5.7zm3.8-3.3h2.2c.9 0 1.6-.2 2.1-.7.5-.5.8-1.1.8-1.8 0-.8-.3-1.4-.8-1.8-.5-.4-1.2-.6-2.1-.6h-2.2v4.9zm0-8.2h1.6c.7 0 1.3-.2 1.7-.6.4-.4.6-.9.6-1.5s-.2-1.1-.6-1.5c-.4-.4-.9-.6-1.7-.6h-1.6V50zm13.1 11.5V42.6h3.8V58h7.1v3.5H91.4zm14.5 0V42.6h3.8v18.8h-3.8zm8.4-5.6c-.5-1.2-.7-2.5-.7-3.8 0-1.3.2-2.6.7-3.8.5-1.2 1.2-2.3 2-3.2.9-.9 1.9-1.6 3.2-2.2 1.3-.5 2.6-.8 4-.8s2.8.3 4 .8c1.3.5 2.3 1.3 3.2 2.2.9.9 1.5 2 2 3.2.5 1.2.7 2.5.7 3.8 0 1.6-.3 3-1 4.4-.7 1.4-1.6 2.5-2.7 3.4l1.1 1.1c1.3 1.2 2.6 1.8 3.9 1.8.5 0 1-.1 1.4-.2v3.2c-.6.2-1.2.3-2 .3-2 0-4-.8-5.8-2.5l-2.2-2c-.8.2-1.7.3-2.6.3-1.4 0-2.8-.3-4-.8-1.2-.5-2.3-1.2-3.2-2.1-.8-.9-1.5-1.9-2-3.1zm4.9-8.4c-1.1 1.2-1.7 2.7-1.7 4.5 0 1.8.6 3.3 1.7 4.5 1.1 1.2 2.6 1.8 4.3 1.8 1.2 0 2.2-.3 3.1-.8.9-.6 1.6-1.3 2.2-2.3.5-1 .8-2 .8-3.2 0-1.8-.6-3.3-1.7-4.5-1.1-1.2-2.6-1.8-4.3-1.8-1.8 0-3.3.6-4.4 1.8zm17.9 6.6V42.6h3.8v11.8c0 1.3.3 2.2 1 3 .7.7 1.6 1.1 2.8 1.1 1.2 0 2.1-.4 2.8-1.1.7-.7 1-1.7 1-3V42.6h3.8v11.5c0 2.5-.7 4.4-2 5.8-1.4 1.4-3.2 2.1-5.6 2.1-2.3 0-4.2-.7-5.5-2.1-1.5-1.4-2.1-3.3-2.1-5.8zm20.1 7.4V42.6h10.9v3.3H161v4.3h6v3.3h-6v4.7h7.1v3.3h-10.9zM5 88.7V69.9h10.9v3.3H8.8v4.3h6v3.3h-6v8H5zm14.5 0V69.9h5.7c2.1 0 3.7.5 4.9 1.5 1.2 1 1.8 2.4 1.8 4.1 0 1.1-.3 2.1-.8 2.9-.5.8-1.3 1.5-2.2 1.9l5.9 8.3h-4.5l-5-7.6h-1.9v7.6h-3.9zm3.8-10.9h2.1c.8 0 1.4-.2 1.9-.6.5-.4.7-1 .7-1.8 0-.7-.2-1.3-.7-1.7-.4-.4-1.1-.6-1.9-.6h-2.1v4.7zm12.6 10.9L43 69.9h5l7.1 18.8h-4l-1.8-4.9h-7.5L40 88.7h-4.1zm7-8.2h5.2l-2.6-7.1-2.6 7.1zm15.3 8.2V69.9h4.9l8.4 13.5V69.9h3.8v18.8h-4.9L62 75.2v13.5h-3.8zm21-9.4c0-1.3.2-2.6.7-3.8.5-1.2 1.2-2.3 2-3.2.9-.9 1.9-1.6 3.2-2.1 1.3-.5 2.6-.8 4.1-.8 1.7 0 3.2.3 4.5 1 1.4.7 2.5 1.6 3.4 2.8l-3 2.3c-.6-.8-1.2-1.4-2.1-1.9-.8-.5-1.8-.7-2.8-.7-1.8 0-3.2.6-4.3 1.8-1.1 1.2-1.7 2.7-1.7 4.5 0 1.8.6 3.3 1.7 4.6 1.1 1.2 2.6 1.8 4.3 1.8 1 0 2-.2 2.8-.7.8-.5 1.5-1.1 2.1-1.9l3 2.3c-.7 1-1.7 1.9-2.8 2.5-1.1.7-2.3 1.1-3.7 1.2l-2.3 4h-3.4l2.4-4c-1.6-.3-3-.9-4.2-1.8-1.2-.9-2.2-2.1-2.9-3.5s-1-2.8-1-4.4zm19 9.4 7.1-18.8h5l7.1 18.8h-4l-1.8-4.9H104l-1.8 4.9h-4zm7-8.2h5.1l-2.6-7.1-2.5 7.1zm15.3 8.2V69.9h3.8v18.8h-3.8zm7.6-2.6 2.8-2.5c.6.7 1.2 1.3 1.9 1.7.7.4 1.5.6 2.2.6.8 0 1.3-.2 1.8-.6.4-.4.7-.9.7-1.6 0-.4-.1-.8-.4-1.1-.3-.3-.6-.6-1-.8-.4-.2-.9-.5-1.4-.7-.5-.3-1-.5-1.6-.7-.5-.2-1.1-.5-1.6-.9-.5-.3-1-.7-1.4-1.1-.4-.4-.7-.9-1-1.5-.3-.6-.4-1.3-.4-2 0-1.5.6-2.8 1.7-3.9s2.6-1.6 4.3-1.6c2.6 0 4.8 1.1 6.5 3.2l-2.8 2.5c-1.2-1.6-2.5-2.4-3.7-2.4-.6 0-1.2.2-1.6.6s-.6.9-.6 1.4c0 .4.1.7.3 1 .2.3.5.5.8.8.3.2.7.4 1.2.7l1.3.6c.5.2 1 .4 1.4.7.5.2.9.5 1.4.9.4.3.8.7 1.2 1.1.3.4.6.9.8 1.4.2.6.3 1.2.3 1.9 0 1.7-.6 3.1-1.8 4.1-1.2 1-2.6 1.5-4.4 1.5-1.5 0-2.9-.3-4-.8-1-.7-2-1.5-2.9-2.5zm17.4 2.6V69.9h10.9v3.3h-7.1v4.3h6v3.3h-6v4.7h7.1v3.3h-10.9zm-78.2 51.6c.6 0 1 .4.8 1.4l-2.5.7c.4-1.3 1.1-2.1 1.7-2.1m1.4 4.1h-.5c-.6.8-1.3 1.4-2 1.4s-1.1-.4-1.1-1.4c0-.4.1-.8.1-1.1l4.1-1.4c.8-1.9-.2-2.7-1.3-2.7-2 0-4.2 3.4-4.2 6.1 0 1.3.6 2 1.6 2 1.2-.1 2.4-1.1 3.3-2.9m-.6-6.1 2.3-2.1v-.3h-1.6l-1.4 2.5.7-.1zm-8.8 2h1.4l-2.2 5.9c-.2.5.1 1 .6 1 1.5 0 3.4-1.3 4.1-3.2h-.4c-.6.8-1.8 1.6-2.7 1.8l2-5.6h2l.3-.9h-2l.8-2.1h-.8l-1.4 2.1-1.7.2v.8zm-1.4-.3c.2-.6-.2-.9-.5-.9-1.2 0-2.6 1.1-3.2 2.6h.4c.4-.6 1-1.2 1.7-1.3l-2.3 5.9c-.2.6.2.9.5.9 1.1 0 2.5-1.1 3-2.6h-.4c-.4.6-1 1.2-1.7 1.3l2.5-5.9zm.3-2.3c.5 0 .9-.4.9-.9s-.4-.9-.9-.9c-.3 0-.5.1-.7.3-.2.2-.3.4-.3.7 0 .4.4.8 1 .8m-11.1 3.1c.4 0 .6.6 0 1.8l-1.6 3.6c-.3.7 0 1.1.7 1.1.4 0 .6-.1.8-.5l1.6-4.2c.7-.9 2.1-1.9 2.7-1.9.4 0 .4.4.1.9l-2.4 4.6c-.2.5.1 1 .6 1 1.2 0 2.6-1.1 3.2-2.6h-.4c-.4.6-1 1.2-1.7 1.3l2.1-4.2c.3-.5.4-1 .4-1.4 0-.7-.4-1.1-1.1-1.1-1 0-1.9 1.2-3.2 2.6v-1.1c0-.8-.3-1.5-1-1.5-.8 0-1.6 1.3-2.2 2.6h.3c.5-.7.8-1 1.1-1m-1.6.2c.3-1 .1-1.8-.6-1.8-.9 0-1.2.6-2.1 2.6v-1.1c0-.8-.3-1.5-1-1.5-.8 0-1.6 1.3-2.2 2.6h.4c.4-.6.8-.9 1.1-.9.4 0 .6.6 0 1.8l-1.6 3.6c-.3.7 0 1.1.7 1.1.4 0 .6-.1.8-.5l1.5-4.2c.5-.6.9-1 1.4-1.6l1.6-.1zm-8.8-.7c.6 0 1 .4.8 1.4l-2.5.7c.4-1.3 1.1-2.1 1.7-2.1m1.5 4.1h-.5c-.6.8-1.3 1.4-2 1.4s-1.1-.4-1.1-1.4c0-.4.1-.8.1-1.1l4.1-1.4c.8-1.9-.2-2.7-1.3-2.7-2 0-4.2 3.4-4.2 6.1 0 1.3.6 2 1.6 2 1.1-.1 2.3-1.1 3.3-2.9m-9.5-4.1h1.4l-2.2 5.9c-.2.5.1 1 .6 1 1.5 0 3.4-1.3 4.1-3.2h-.4c-.6.8-1.8 1.6-2.7 1.8l2-5.6h2l.3-.9h-2l.8-2.1h-.8l-1.4 2.1-1.7.2v.8zm-7.2 4.6c0-1.8 2-4.3 3.2-4.3.3 0 .5 0 .7.1l-1.2 3.2c-.7.8-1.7 1.8-2.2 1.8-.3 0-.5-.2-.5-.8m6.3-6.1-.6-.1-.7.7h-.1c-3 0-6.2 3.7-6.2 6.6 0 .7.4 1.1 1.1 1.1.9 0 1.7-1.3 2.7-2.6l-.1.5c-.1 1.4.3 2.1 1 2.1.8 0 1.6-1.3 2.2-2.6h-.4c-.4.6-.8.9-1.1.9s-.5-.6 0-1.8l2.2-4.8zm-6.4 2.2c.3-1 .1-1.8-.6-1.8-.9 0-1.2.6-2.1 2.6v-1.1c0-.8-.3-1.5-1-1.5-.8 0-1.6 1.3-2.2 2.6h.4c.4-.6.8-.9 1.1-.9.4 0 .6.6 0 1.8l-1.6 3.6c-.3.7 0 1.1.7 1.1.4 0 .6-.1.8-.5l1.6-4.2c.5-.6.9-1 1.4-1.6l1.5-.1zm-10.5 6 .2-.5c-2-.4-2.2-.4-1.4-2.5l.8-2h1.6c1 0 1 .4.9 1.5h.6l1.3-3.6h-.6c-.5.9-.9 1.5-2 1.5h-1.6l1.1-2.9c.4-1.1.6-1.3 1.9-1.3h.4c1.4 0 1.6.4 1.6 1.8h.3l.5-2.4H8.8l-.2.4c1.6.3 1.7.5 1 2.5L8 144c-.8 2-1.1 2.2-2.9 2.5l-.1.5h5.9zm37.9-24c.6 0 1 .4.8 1.4l-2.5.7c.4-1.2 1.1-2.1 1.7-2.1m1.4 4.1h-.5c-.6.8-1.3 1.4-2 1.4s-1.1-.4-1.1-1.4c0-.4.1-.8.1-1.1l4.1-1.4c.8-1.9-.2-2.7-1.3-2.7-2 0-4.2 3.4-4.2 6.1 0 1.3.6 2 1.6 2 1.2 0 2.4-1.1 3.3-2.9m-.6-6.1 2.3-2.1v-.3h-1.6L49 121h.6zm-8.8 2h1.4l-2.2 5.9c-.2.5.1 1 .6 1 1.5 0 3.4-1.3 4.1-3.2h-.4c-.6.8-1.8 1.6-2.7 1.8l2-5.6h2l.3-.9h-2l.8-2.1h-.8l-1.4 2.1-1.7.3v.7zm-1.4-.3c.2-.6-.2-.9-.5-.9-1.2 0-2.6 1.1-3.2 2.6h.4c.4-.6 1-1.2 1.7-1.3l-2.3 5.9c-.2.6.2.9.5.9 1.1 0 2.5-1.1 3-2.6h-.4c-.4.6-1 1.2-1.7 1.3l2.5-5.9zm.3-2.3c.5 0 .9-.4.9-.9s-.4-.9-.9-.9c-.3 0-.6.2-.8.5-.2.3-.2.7 0 1 .1.1.4.3.8.3m-7.3 8.3 3.8-10-.1-.2-2.6.3v.3l.5.4c.5.4.3.7-.1 1.8l-2.9 7.6c-.3.5.1 1 .6 1 1.2 0 2.5-1.1 3-2.6h-.4c-.4.6-1.2 1.2-1.8 1.4m-7.7-1.1c0-1.8 2-4.3 3.2-4.3.3 0 .5 0 .7.1l-1.2 3.2c-.7.8-1.7 1.8-2.2 1.8-.3 0-.5-.2-.5-.8m6.2-6.1-.6-.1-.7.7h-.1c-3 0-6.2 3.7-6.2 6.6 0 .7.4 1.1 1.1 1.1.9 0 1.7-1.3 2.7-2.6l-.1.5c-.1 1.4.3 2.1 1 2.1.8 0 1.6-1.3 2.2-2.6h-.4c-.4.6-.8.9-1.1.9-.3 0-.5-.6 0-1.8l2.2-4.8zm-14.5 9.9c0-.8.8-1.3 1.8-1.7.4.2.9.4 1.6.6 1.1.4 1.6.5 1.6.9 0 .7-1 1.3-2.9 1.3-1.4 0-2.1-.3-2.1-1.1m3.1-4.8c-.5 0-.7-.4-.7-.9 0-1.5.7-3.3 1.8-3.3.5 0 .7.4.7.9 0 1.5-.7 3.3-1.8 3.3m3.2 4.1c0-1-.9-1.3-2.2-1.7-1.2-.4-1.7-.5-1.7-.9 0-.3.3-.7.8-1 2-.1 3.2-1.9 3.2-3.4 0-.3-.1-.5-.1-.8H24l.3-.9H22c-.3-.2-.7-.3-1.1-.3-2.1 0-3.4 1.8-3.4 3.4 0 1 .6 1.7 1.6 1.9-1 .5-1.5.9-1.5 1.5 0 .4.1.6.4.8-2.2.7-3.1 1.5-3.1 2.4 0 1 1.4 1.5 3 1.5 2.5.2 4.8-1.3 4.8-2.5m-10.2-6c1 0 1 .4.9 1.5h.6l1.3-3.6h-.6c-.5.9-.9 1.5-2 1.5h-2.2l1.1-2.9c.4-1.1.6-1.3 1.9-1.3h1c1.4 0 1.6.4 1.6 1.8h.6l.5-2.4H8.8l-.2.5c1.6.3 1.7.5 1 2.5L8 126.7c-.8 2-1.1 2.2-2.9 2.5l-.1.5h9.1l1.6-2.6h-.6c-1.1 1.1-2.1 2-4.2 2-2.4 0-2.2-.1-1.4-2.4l.8-2h2.2zm1.2-6.2 2.3-1.7v-.3h-1.6l-1.4 2h.7zm34.8-12.8c.6 0 1 .4.8 1.4l-2.5.7c.4-1.2 1.1-2.1 1.7-2.1m1.4 4.1h-.5c-.6.8-1.3 1.4-2 1.4s-1.1-.4-1.1-1.4c0-.4.1-.8.1-1.1l4.1-1.4c.8-1.9-.2-2.7-1.3-2.7-2 0-4.2 3.4-4.2 6.1 0 1.3.6 2 1.6 2 1.2 0 2.4-1.1 3.3-2.9m-.6-6.1 2.3-2.1v-.3H50l-1.4 2.5.7-.1zm-8.8 2h1.4l-2.2 5.9c-.2.5.1 1 .6 1 1.5 0 3.4-1.3 4.1-3.2H44c-.6.8-1.8 1.6-2.7 1.8l2-5.6h2l.3-.9h-2l.8-2.1h-.8l-1.4 2.1-1.7.2v.8zm-.7.7c.3-1 .1-1.8-.6-1.8-.9 0-1.2.6-2.1 2.6v-1.1c0-.8-.3-1.5-1-1.5-.8 0-1.6 1.3-2.2 2.6h.4c.4-.6.8-.9 1.1-.9.4 0 .6.6 0 1.8l-1.6 3.6c-.3.7 0 1.1.7 1.1.4 0 .6-.1.8-.5l1.6-4.2c.5-.6.9-1 1.4-1.6l1.5-.1zm-8.7-.7c.6 0 1 .4.8 1.4l-2.5.7c.3-1.2 1.1-2.1 1.7-2.1m1.4 4.1H32c-.6.8-1.3 1.4-2 1.4s-1.1-.4-1.1-1.4c0-.4.1-.8.1-1.1l4.1-1.4c.8-1.9-.2-2.7-1.3-2.7-2 0-4.2 3.4-4.2 6.1 0 1.3.6 2 1.6 2 1.2 0 2.3-1.1 3.3-2.9m-9.6 1.7c-.4 0-1-.4-1-.7 0-.1.2-.6.4-1.2l.7-1.8c.7-.9 1.8-1.8 2.4-1.8.4 0 .7.3.7.8-.1 1.7-1.6 4.7-3.2 4.7m4.6-5.3c0-1.2-.3-1.7-1.2-1.7-1.1 0-2 1.1-3 2.5l2.1-5.7-.1-.2-2.6.3v.3l.5.4c.5.4.3.7-.1 1.8l-2.3 6c-.2.5-.4 1.1-.4 1.3 0 .7 1 1.4 1.8 1.4 1.9.1 5.3-3.5 5.3-6.4m-7.7-.7c.2-.6-.2-.9-.5-.9-1.2 0-2.6 1.1-3.2 2.6h.4c.4-.6 1-1.2 1.7-1.3l-2.3 5.9c-.2.6.2.9.5.9 1.1 0 2.5-1.1 3-2.6H19c-.4.6-1 1.2-1.7 1.3l2.5-5.9zm.2-2.4c.5 0 .9-.4.9-.9s-.4-.9-.9-.9c-.3 0-.6.2-.8.5-.2.3-.2.7 0 1 .2.1.5.3.8.3m-5.8-1.1H8.8l-.2.5c1.6.3 1.7.5 1 2.5L8 109.4c-.8 2-1.1 2.2-2.9 2.5l-.1.5h8.2l1.8-3.2h-.6c-1 1.1-2.2 2.6-4 2.6-1.4 0-1.6-.3-.8-2.4l1.6-4.4c.8-2 1.1-2.2 2.9-2.5l.1-.5z"/></svg>
