<?xml version="1.0" encoding="utf-8"?>
<!-- Generator: Adobe Illustrator 26.1.0, SVG Export Plug-In . SVG Version: 6.00 Build 0)  -->
<svg version="1.1" id="Layer_1" xmlns="http://www.w3.org/2000/svg" xmlns:xlink="http://www.w3.org/1999/xlink" x="0px" y="0px"
	 width="428px" height="166px" viewBox="0 0 428 166" enable-background="new 0 0 428 166" xml:space="preserve">
<path fill="#9CA3AF" d="M48.5,108.3c-8.2,15.4-15.5,31.3-23.6,46.4c-2.4-7-4-14.4-6-21.7c-1.3,1.3-2.4,3.6-3.3,5
	c-2.3-7.2-2.4-12.8-3.7-20.5c-1.1,0.7-2.2,1.5-3.2,2.3c-1.2-6.3,1.5-11.9,1.8-17.3c-7.2,2.1-0.2-6.4,1.6-9.1
	c0.9-1.2,0.7-2.8-1.3-1.9c0.5-4.1,4.9-7.3,7.1-10.5c-1-1.1-1.6,1-2.5-0.1c1.4-3.6,4.5-7,6.7-10.1c-0.5-0.5-1.3-0.2-1.8-0.6
	c1.9-3.1,5.1-6.1,7.8-8.7c-0.5-0.7-1.6,0.2-1.5-0.9c2.8-2.9,5.6-6,8.1-8.7c-0.6-0.2-1.2-0.9-2.1-0.5c1.3-2.6,4-5.3,6.2-7.5
	c-4.3-2.2,6.2-5.1,0.3-7.3C28,44.2,17.9,54.3,7.3,62.9c-0.5-2-0.6-4.9-0.4-7.2c-0.9-1.5-1.7,0.7-2.7,0.6c-0.5-1.7,0.1-3.2,0.3-4.8
	c0.5-1.2,0.1-4.6-2-2.6c0.5-2.7,2.4-5.3,2.7-7.6c-0.6,0.1-1.1,0.1-1.7,0.2c0.6-2.8,3.4-4.8,4-7.6c-0.4-0.7-1.6,0.2-1.8-0.6
	c1.4-3.7,12.5-9.6,1.6-9.1c9.1-2.2,17.8-4.3,27.5-6.1c15.9-4.3,31.9-8.4,47.4-13.3c15.5-3.4,31-1.4,46.4-2.2c1-0.1,3.9,0.4,4.6,2.1
	c2.3,6.2,10.8,1.3,15,6.1c2.4,2.1,3.3,5.3,3.1,8.4c-6.8-3-14.8-0.6-22.1,0.7c31.7,13.6,65,24.4,96.7,38c-6.1,2.6-12.8,4.3-20.1,5
	c1.9,1.4,4.8,2.9,5.3,4.1c-6.7,2.8-15.2,1.6-22.1,2.4c1.6,2.7,4.8,3.4,5.8,6.4c-6.2,0.5-12.7-2.3-18.3-3.4c0.1,1,0.9,1.7,1.3,2.6
	c-4,0.2-7.4-1.6-11.1-2.4l-2.8-1c-4.5-2.8-3.2-2-4.5-2.8c1.3,3.2-2.4,2.3-3.9,1.4c-3.1-2.2-6.3-4-9.3-6.3c0.5,2.4-2.4,2.1-3.8,1.1
	c-2.8-1.6-5.4-4.8-8.2-5.9c0.1,5.6-4.9-0.2-7.3-1c-1.2-0.5-4.2-4.8-3.8-0.6c-3-2.2-5.1-4.6-7.6-6.9c-1.2,4.3-6.3-2.3-8.6-2.6
	c0.7,4.3-2.6,0.4-3.8,0.1c-1.9-1.4-3.5-3.1-5.3-4.1c0.1,0.6-0.5,0.9-0.1,1.5c-3.2,0.3-6.1-2.9-9.4-3.3c-1.6,11.9,11.1,9.9,17.4,14
	c2,1.4,5.2,3.3,4.6,5.8c-2.1-0.2-3.7-2-5.7-2.5c-4.7-0.7-10.7-1.3-15.2,1c-1-1.2,0-2.8,1.1-3.9c0.6-0.1-1.1-1.3-1.9-1.3
	c-1.6-0.3-3.5,0-5.2,0.2c-1.3-2.9-2.6-5.8-4-8.6c-0.1,0.3-0.7,0.5-0.5,1.1c2.2,6.6,0.9,16.3,8.1,19.3c5.3,1.1,11.5,3.2,14.3,8.7
	c-0.1,0.2-0.4,0.5-0.5,0.6c-6.4-4.3-15.4-3.6-22.1-0.9c0.5-2.4,2.4-3.4,4.2-4.6c0.6,0.1,1.1-0.3,1.7-0.5c-3.3-1.3-6.3-3.6-10.3-2.2
	c-1.6-2-0.4-5.5-2.2-7.5C64.7,75.4,57.4,90,50.2,104.6L48.5,108.3L48.5,108.3z M93.2,11.1c1,2.7,4.3,2.9,6.2,2.9
	c9.8-0.7,18.3-3.8,26.9-6.6c1.7,0,3,1.6,4.9,1.3c-0.5-2.1-2.8-2.7-4.3-2.8C114.7,5.6,103,7,91,6.1C91.4,8.1,92.5,9.5,93.2,11.1z
	 M70.4,11.6c3.4-0.8,9.1-1.2,13.4-2.6c0.5-0.5,0.5-1.1,0.9-1.5C80.2,9.4,74.2,8.3,70.4,11.6z M55.7,72.1c-0.7,3.5-1.8,8.6,1.1,11.5
	c12.1-23,22.6-46.5,34.7-69.4c-1.1-2.2-1.4-5.4-3.4-6.3C77.5,29.3,66.4,50.6,55.7,72.1z M64.4,18.1c0,0.3,0,0.4,0.1,0.7
	c4.9-1.2,11.5-1.1,15.4-2.2c0.7-1.2,2.3-3.3,1.1-3.9C75.1,14,67.7,13.5,64.4,18.1z M39.2,19.3c-0.9,4.1-1.1,9.2,0.6,13.4
	c3.5,3,5.8-3,8.7-4.3c-2.6,0.4-1.1-2.4,0-2.8c0.6-1.6,7.5-4.6,1.3-4.3c1.3-1.7,3.7-3.8,3.7-5.1C49,17.6,43.8,17.8,39.2,19.3z
	 M122.8,11.5c1.5,0.3,4.8,0.4,4.8-0.8C125.9,13.1,124.5,8.1,122.8,11.5z M18.4,23.6c-0.3,1.3-2.1,2.2-1.8,3.7
	c6.5-1.5,12.7-3.4,18.5-5.8c0-0.4,0.1-0.9-0.4-1.1C29.6,21.8,23.7,22.1,18.4,23.6z M93.9,17.4c-1.7,2.2-2.7,4.6-3.4,7.3
	c18.5-3.7,38.1-10.5,57.7-9.5c-5.3-6.6-15.9-3.8-23.1-2c-1.5,0.4-2.8-0.2-4-0.9C112.2,14.2,103.9,18.1,93.9,17.4z M60.6,25.9
	c0,0.1,0,0.4,0.1,0.6c5.7-1.3,15.8,2.2,17.3-5.4C72.9,20.9,63.1,19.8,60.6,25.9z M14.9,30.3c-0.2,0.7-0.9,1.5-0.8,2.4
	c6.9-2.1,14.1-3.8,20.9-6.5c0.5-0.3,0-1.2,0.1-1.7C28.2,26.1,21.6,28.2,14.9,30.3z M12.4,37.5c0.1,0.6,0.4,1.5-0.1,2
	c7.7-2.8,16.1-5.6,23.4-9.9c0.1-0.3-0.2-0.4-0.4-0.7C27.6,31.7,19.4,33.2,12.4,37.5z M113.2,22.8c11.2,4.6,22.3,10.7,34.8,11.5
	c1.6,0,2.9-0.4,4.1-1.4c0-0.3,0-0.4-0.1-0.7c-9.8-4.1-19.8-7.3-29.6-11C119.3,21.9,116.5,22.6,113.2,22.8z M106.2,25.5
	c1.2,6.1-1.9,15.8,5.2,17.6c0.6-0.1,1.1-0.1,1.7-0.2c0.7-5-0.6-10.8-1-16.3C110.2,26.3,107,23.6,106.2,25.5z M96.9,26.4
	c-0.2,3.6,0.2,8.1,1.1,11c2,1,3.8,2.4,6.4,1.6c0.1-4.5-0.6-9.2-1-13.8C101,25.2,99,26.1,96.9,26.4z M56.8,32.5c0,0.3,0.1,0.7,0.1,1
	c4.9-0.2,10.1,0,14.8-0.7c0.6-1.4,1.9-2.5,1.8-4.1C68.3,30,60.4,28.2,56.8,32.5z M12.4,43.7C11.3,44.5,12,46,12,47.2
	c7.9-3.7,15.7-9.5,23.7-14.2c0.8-0.2-0.3-0.1-0.5-0.7C27.4,35.9,20,39.9,12.4,43.7z M89.8,35.2c1.1,1,2.7,1,4.2,1.3
	c0.9-2.8,0.2-6.5-0.5-9.4C87,26.4,90.7,31.6,89.8,35.2z M12.3,54.4c8.4-5.7,16.6-12.2,23.9-19.2C28.2,40.4,20.1,45.7,12,51
	C11.6,52,11.8,53.6,12.3,54.4z M120.7,47.1c0.4,0,0.9-0.1,1.4-0.1c-0.3-5.6-0.3-11.1-2.1-17.2c-1.7-0.1-3.2-1.9-5-2
	C116.6,34.5,112.1,44.5,120.7,47.1z M52.6,39.8c0,0.4,0.1,0.9,0.1,1.3c4.6,1.3,9.9,0.2,14.7,0.3c0.7-1.7,2.2-3.1,2.3-5
	C64.8,37.5,56.3,34.7,52.6,39.8z M125.3,48c1.8,1.1,3.6,2.7,5.9,2.3c-0.7-5.6-0.9-11.8-2-16.6c-1.7-0.9-3.4-1.8-5.4-1.8
	C124.3,37.2,124.8,42.7,125.3,48z M132.5,35.1c2.9,7.1-2.7,20.2,9.2,20c-0.3-5.8-1.6-11.9-2.4-17.7
	C137.1,36.4,134.8,35.5,132.5,35.1z M156.4,35.3c14.6,7.6,29,15.6,43.6,22.9c4.4,0.2,8-1.3,11.6-2.9c-18.1-7.1-36.9-15-55.3-20.7
	C156.3,34.9,156.4,35.1,156.4,35.3L156.4,35.3z M48,48.9c5.3-0.7,10.3,0.5,15.6-0.2c0.1-1.5,3.8-4-0.1-4c-5.9,0.7-12.3-2.7-15.6,3.5
	C47.9,48.5,47.9,48.7,48,48.9z M145.7,56.4c2,1.5,13.1,9.3,7.2-0.3c-2-5.9-3.9-11.6-5.9-17.5c-1.3-0.2-2.8-0.5-4.3-0.6
	C142.8,44.3,145.1,50.1,145.7,56.4z M182.3,62.8c3.9,1.4,9,0.1,12.4-1.9c0.6,0.2,0.2-0.6-0.1-0.7c-13.2-7.6-26.4-15.5-39.4-22.3
	C163.8,46.3,173.1,54.5,182.3,62.8z M171.3,64.1c2.7,0.9,5.5,1.4,8.5,1.2c-8.1-9.1-17.9-17.7-26.6-26.2
	C158.6,47.5,165.3,55.9,171.3,64.1z M158.3,61.6c2.9,1.5,5.8,3.2,9.3,3.2c-5.6-8.4-11.2-16.9-17.3-25
	C152.5,47.3,155.6,54.3,158.3,61.6z M43.4,55.3c0,0.4,0.1,0.9,0.1,1.3c5.2,0.2,10.5,0.6,15.9,0.2c0.8-1.2,1.5-2.5,2.1-3.7
	C55.9,53.3,47.5,49,43.4,55.3z M37.3,64.9c0.1,0.7,0.1,1.4,0.2,2c7.3-1.1,10.6,0,17.5-1.7c1.4-1,2.9-4.2,1.3-4.6
	C49.8,61.5,41.3,58,37.3,64.9z M30.2,77.7c-0.1,0.7,1-0.1,1.2,0.6c6.8-1.8,14-3.2,20.6-5.5c0.2-1.3,2-3.2,0.6-4
	C44.7,70.8,32.2,67.6,30.2,77.7z M28.9,82.3c-2.6,2-5.2,5-5.4,8.2C32.8,87,42,83,51.2,79.2c-0.4-1,0.7-1.5,0.2-2.5
	C43.9,78.4,36.2,80.2,28.9,82.3z M22.6,95.1c-2.4,3.3-4.3,6.6-3.6,10.8c10.7-7.3,22.7-15.4,32.4-24C41.9,86.3,32.2,90.7,22.6,95.1z
	 M20.8,109.6c-1.5,2.5-0.8,5.1,0.4,7.5c0,0.1,0.2,0.3,0.3,0.4c11.2-9.6,21.1-21.6,31.7-31.9c0-0.4,0.1-0.9-0.4-1.1
	C41.7,92.3,31.6,101.6,20.8,109.6z M25,120.2c-1.5,4.1,0.7,7.7,3.3,10.5c1.4,0.7,3.1,3.3,4.3,1.3c7.8-14.7,15-29.5,21.8-44.5
	C44.3,97.8,34.8,109.4,25,120.2"/>
<path fill="#9CA3AF" d="M65.7,79.6c0-0.9,0.4-1.3,1.4-1.3h24.7c1.3,0,1.3,0.6,1.3,1.5l-0.3,4.5c-0.1,0.9-0.4,1.4-1.5,1.4H75.1
	l-0.6,10.4h12.4c1.2,0,1.3,0.6,1.3,1.3l-0.3,4.7c0,0.9-0.4,1.3-1.4,1.3H74l-0.6,13.2h16.2c1.2,0,1.3,0.4,1.3,1.3l-0.2,4.7
	c0,0.8-0.5,1.3-1.5,1.3H64.7c-1.2,0-1.3-0.6-1.3-1.3 M96.3,79.8c0-0.9,0.5-1.5,1.5-1.5h9.5c0.6,0,1.3,0.6,1.6,1.2l12,26.1
	c1,2.3,2.5,5.4,3.1,8.1h0.1l1.8-33.8c0-1.1,0.4-1.5,1.6-1.5h5.5c1.3,0,1.4,0.6,1.4,1.5l-2.3,43c0,0.8-0.4,1.3-1.5,1.3H121
	c-0.7,0-1.4-0.6-1.7-1.3l-11.8-26.6c-1.7-3.5-2.6-5.8-3.1-8.2h-0.1l-1.7,34.7c0,0.8-0.5,1.3-1.3,1.3h-5.8c-1.2,0-1.3-0.6-1.3-1.3
	 M155,92.4c1-2.9,1.7-4.9,2.3-7.3h0.1c0.2,3.2,1.1,7.6,2,13.6l1,6.1h-9.9L155,92.4L155,92.4z M135.3,121.2c-0.3,0.6-0.7,1.4-0.7,2
	s0.6,0.9,1.1,0.9h7c0.6,0,1.1-0.4,1.2-0.8l4.2-11.6h13.4l2.4,11.5c0.1,0.5,0.1,0.9,1.1,0.9h8.4c0.8,0,1.3-0.3,1.3-0.8
	s-0.3-1.3-0.4-2l-10.1-40.7c-0.5-2-1-2.3-2.9-2.3h-6.9c-1.5,0-2,0.5-2.7,2.3 M201.2,77.7c-13.4,0-25.1,8.8-25.1,24.6
	c0,15.2,7.7,22.6,21.7,22.6c6.1,0,12.1-1.1,12.1-3.5l0.3-5.9c0-0.5-0.3-1.1-0.8-1.1c-0.9,0-4.4,2.3-10.2,2.3
	c-7.8,0-12.4-4.7-12.4-14.4c0-9.6,5.5-17,14.5-17c0.8,0,1.6,0.1,2.3,0.1v-7.8C202.7,77.7,201.9,77.7,201.2,77.7 M65.3,147.3
	c0-0.3,0.2-0.5,0.5-0.5h8.8c0.5,0,0.5,0.2,0.5,0.5l-0.1,1.6c0,0.3-0.2,0.5-0.5,0.5h-5.8l-0.2,3.7h4.4c0.4,0,0.5,0.2,0.5,0.5
	l-0.1,1.7c0,0.3-0.2,0.5-0.5,0.5h-4.5l-0.2,4.7h5.8c0.4,0,0.5,0.2,0.5,0.5l-0.1,1.7c0,0.3-0.2,0.5-0.5,0.5H65
	c-0.4,0-0.5-0.2-0.5-0.5 M85.6,162.5c0,0.6-1.7,1-3.4,1c-3.9,0-6.1-2.1-6.1-6.3c0-4.4,3.3-6.9,7-6.9c1.3,0,3,0.3,3,0.8l-0.1,1.6
	c0,0.2-0.1,0.4-0.2,0.4c-0.5,0-1.1-0.6-2.7-0.6c-2.5,0-4.1,2.1-4.1,4.7c0,2.7,1.3,4,3.5,4c1.6,0,2.6-0.6,2.9-0.6
	c0.2,0,0.2,0.2,0.2,0.3 M90.1,157.5c0-3.6,1.2-5.3,3-5.3c1.7,0,2.4,1.5,2.4,4c0,3.6-1.3,5.3-3,5.3C90.7,161.5,90.1,159.9,90.1,157.5
	z M92.3,163.4c3.3,0,6.1-2.1,6.1-7.3c0-4.1-2.1-5.9-5.2-5.9c-3.2,0-6.1,2.2-6.1,7.4C87.1,161.7,89.1,163.4,92.3,163.4 M101.1,150.9
	c0-0.3,0.1-0.4,0.4-0.4h2.1c0.3,0,0.3,0.2,0.3,0.4l-0.6,10.4h4.7c0.4,0,0.4,0.2,0.4,0.4l-0.1,1.3c0,0.2-0.1,0.4-0.4,0.4h-7
	c-0.3,0-0.4-0.2-0.4-0.4 M110.7,150.8c0-0.3,0.1-0.4,0.4-0.4h6.9c0.4,0,0.4,0.2,0.4,0.4l-0.1,1.3c0,0.3-0.1,0.4-0.4,0.4h-4.5
	l-0.2,2.9h3.5c0.3,0,0.4,0.2,0.4,0.4l-0.1,1.3c0,0.3-0.1,0.4-0.4,0.4h-3.5l-0.2,3.7h4.5c0.3,0,0.4,0.1,0.4,0.4l-0.1,1.3
	c0,0.2-0.1,0.4-0.4,0.4h-6.9c-0.3,0-0.4-0.2-0.4-0.4 M126.7,147.4c0-0.3,0.2-0.5,0.5-0.5h3.4c0.2,0,0.5,0.2,0.6,0.4l4.3,9.3
	c0.4,0.8,0.9,1.9,1.1,2.9h0.1l0.6-12.1c0-0.4,0.2-0.6,0.6-0.6h2c0.5,0,0.5,0.2,0.5,0.5l-0.8,15.4c0,0.3-0.2,0.5-0.6,0.5h-3.4
	c-0.3,0-0.5-0.2-0.6-0.5l-4.2-9.5c-0.6-1.3-0.9-2.1-1.1-2.9h-0.1l-0.6,12.4c0,0.3-0.2,0.5-0.5,0.5h-2.1c-0.4,0-0.5-0.2-0.5-0.5
	 M147.5,154.4c0.3-0.8,0.5-1.4,0.6-2c0.1,0.9,0.3,2.1,0.6,3.8l0.3,1.7h-2.8L147.5,154.4L147.5,154.4z M142,162.4
	c-0.1,0.2-0.2,0.4-0.2,0.6c0,0.2,0.2,0.3,0.3,0.3h2c0.2,0,0.3-0.1,0.3-0.2l1.2-3.2h3.7l0.7,3.2c0,0.1,0,0.3,0.3,0.3h2.3
	c0.2,0,0.4-0.1,0.4-0.2s-0.1-0.4-0.1-0.6l-2.8-11.5c-0.1-0.6-0.3-0.6-0.8-0.6h-1.9c-0.4,0-0.6,0.1-0.8,0.6 M156.4,152.5h-3.6
	c-0.3,0-0.4-0.2-0.4-0.3l0.1-1.4c0-0.3,0.1-0.4,0.4-0.4H163c0.4,0,0.4,0.2,0.4,0.4l-0.1,1.3c0,0.3-0.1,0.4-0.4,0.4h-3.7l-0.6,10.4
	c0,0.2-0.1,0.4-0.4,0.4h-2c-0.3,0-0.4-0.2-0.4-0.4 M164.7,150.8c0-0.3,0.1-0.4,0.4-0.4h2.1c0.3,0,0.3,0.2,0.3,0.4l-0.6,12
	c0,0.2-0.1,0.4-0.3,0.4h-2.1c-0.3,0-0.3-0.2-0.3-0.4 M172.6,157.5c0-3.6,1.2-5.3,3-5.3c1.7,0,2.4,1.5,2.4,4c0,3.6-1.3,5.3-3,5.3
	C173.2,161.5,172.6,159.9,172.6,157.5z M174.8,163.4c3.3,0,6.1-2.1,6.1-7.3c0-4.1-2.1-5.9-5.2-5.9c-3.2,0-6.1,2.2-6.1,7.4
	C169.6,161.7,171.6,163.4,174.8,163.4 M183.6,150.9c0-0.3,0.1-0.4,0.4-0.4h2.7c0.2,0,0.4,0.2,0.5,0.3l3.3,7.3
	c0.3,0.6,0.7,1.5,0.9,2.3l0.5-9.4c0-0.3,0.1-0.4,0.4-0.4h1.5c0.4,0,0.4,0.2,0.4,0.4l-0.6,12c0,0.2-0.1,0.4-0.4,0.4h-2.7
	c-0.2,0-0.4-0.2-0.5-0.4l-3.3-7.4c-0.5-1-0.7-1.6-0.9-2.3l-0.5,9.7c0,0.2-0.1,0.4-0.4,0.4h-1.6c-0.3,0-0.4-0.2-0.4-0.4 M201.5,154.4
	c0.3-0.8,0.5-1.4,0.6-2c0.1,0.9,0.3,2.1,0.6,3.8l0.3,1.7h-2.8L201.5,154.4L201.5,154.4z M195.9,162.4c-0.1,0.2-0.2,0.4-0.2,0.6
	c0,0.2,0.2,0.3,0.3,0.3h2c0.2,0,0.3-0.1,0.3-0.2l1.2-3.2h3.7l0.7,3.2c0,0.1,0,0.3,0.3,0.3h2.3c0.2,0,0.4-0.1,0.4-0.2
	s-0.1-0.4-0.1-0.6l-2.8-11.4c-0.1-0.6-0.3-0.6-0.8-0.6h-1.9c-0.4,0-0.6,0.1-0.8,0.6 M209.7,150.9c0-0.3,0.1-0.4,0.4-0.4h2.1
	c0.3,0,0.3,0.2,0.3,0.4l-0.6,10.4h4.7c0.4,0,0.4,0.2,0.4,0.4l-0.1,1.3c0,0.2-0.1,0.4-0.4,0.4h-7c-0.3,0-0.4-0.2-0.4-0.4
	 M219.3,150.8c0-0.3,0.1-0.4,0.4-0.4h6.9c0.4,0,0.4,0.2,0.4,0.4l-0.1,1.3c0,0.3-0.1,0.4-0.4,0.4H222l-0.2,2.9h3.5
	c0.3,0,0.4,0.2,0.4,0.4l-0.1,1.3c0,0.3-0.1,0.4-0.4,0.4h-3.5l-0.2,3.7h4.5c0.3,0,0.4,0.1,0.4,0.4l-0.1,1.3c0,0.2-0.1,0.4-0.4,0.4
	H219c-0.3,0-0.4-0.2-0.4-0.4 M237.7,152.4h1.5c2.3,0,3.4,1.5,3.4,4.1c0,3.1-1.7,4.8-4.1,4.8h-1.3L237.7,152.4L237.7,152.4z
	 M234.4,162.9c0,0.2,0,0.4,0.4,0.4h4.5c3.1,0,6.3-2.4,6.3-7c0-3.6-2.1-5.8-6.2-5.8h-4c-0.3,0-0.4,0.1-0.4,0.4 M248.2,150.8
	c0-0.3,0.1-0.4,0.4-0.4h6.9c0.4,0,0.4,0.2,0.4,0.4l-0.1,1.3c0,0.3-0.1,0.4-0.4,0.4h-4.5l-0.2,2.9h3.5c0.3,0,0.4,0.2,0.4,0.4
	l-0.1,1.3c0,0.3-0.1,0.4-0.4,0.4h-3.5l-0.2,3.7h4.5c0.3,0,0.4,0.1,0.4,0.4l-0.1,1.3c0,0.2-0.1,0.4-0.4,0.4h-6.9
	c-0.3,0-0.4-0.2-0.4-0.4 M263.7,150.9c0-0.3,0.1-0.4,0.4-0.4h2.1c0.3,0,0.3,0.2,0.3,0.4l-0.6,10.4h4.7c0.4,0,0.4,0.2,0.4,0.4
	l-0.1,1.3c0,0.2-0.1,0.4-0.4,0.4h-7c-0.3,0-0.4-0.2-0.4-0.4 M271.8,153.4c-0.2,0-0.3,0-0.3-0.3c0-0.2,0.1-0.3,0.5-1.2
	c0.3-0.8,0.5-1.5,0.6-2.5V149c0-0.1,0.1-0.3,0.3-0.3h1.9c0.2,0,0.3,0.1,0.3,0.3v0.4c-0.2,1.7-1.4,4-1.9,4 M283.2,151.9
	c0.4-1,0.6-1.8,0.8-2.6h0.1c0.1,1.2,0.4,2.7,0.7,4.9l0.4,2.2h-3.6L283.2,151.9L283.2,151.9z M276.2,162.2c-0.1,0.2-0.3,0.5-0.3,0.7
	s0.2,0.3,0.4,0.3h2.5c0.2,0,0.4-0.2,0.4-0.3l1.5-4.1h4.8l0.9,4.1c0,0.2,0,0.3,0.4,0.3h3c0.3,0,0.5-0.1,0.5-0.3s-0.1-0.5-0.2-0.7
	l-3.6-14.5c-0.2-0.7-0.4-0.8-1-0.8H283c-0.6,0-0.7,0.2-1,0.8 M291.1,150.9c0-0.3,0.2-0.4,0.3-0.4h2.2c0.2,0,0.3,0.1,0.4,0.3l1.4,6.5
	c0.3,1.3,0.5,2.5,0.5,3.5c0.2-0.6,0.6-2.1,1-3l2.7-7c0.1-0.2,0.2-0.3,0.4-0.3h1.9c0.1,0,0.3,0.1,0.3,0.3l-4.7,11.6
	c-0.3,0.6-0.4,1-1,1h-1.9c-0.6,0-0.6-0.3-0.8-1 M304.2,150.8c0-0.3,0.1-0.4,0.4-0.4h2.1c0.3,0,0.3,0.2,0.3,0.4l-0.6,12
	c0,0.2-0.1,0.4-0.3,0.4H304c-0.3,0-0.3-0.2-0.3-0.4 M313.9,154.4c0.3-0.8,0.5-1.4,0.6-2c0.1,0.9,0.3,2.1,0.6,3.8l0.3,1.7h-2.8
	L313.9,154.4z M308.4,162.4c-0.1,0.2-0.2,0.4-0.2,0.6c0,0.2,0.2,0.3,0.3,0.3h2c0.2,0,0.3-0.1,0.3-0.2l1.2-3.2h3.7l0.7,3.2
	c0,0.1,0,0.3,0.3,0.3h2.3c0.2,0,0.4-0.1,0.4-0.2s-0.1-0.4-0.1-0.6l-2.8-11.4c-0.1-0.6-0.3-0.6-0.8-0.6h-1.9c-0.4,0-0.6,0.1-0.8,0.6
	 M322.8,152.5h-3.6c-0.3,0-0.4-0.2-0.4-0.3l0.1-1.4c0-0.3,0.1-0.4,0.4-0.4h10.1c0.4,0,0.4,0.2,0.4,0.4l-0.1,1.3
	c0,0.3-0.1,0.4-0.4,0.4h-3.7l-0.6,10.4c0,0.2-0.1,0.4-0.4,0.4h-2c-0.3,0-0.4-0.2-0.4-0.4 M331.2,150.8c0-0.3,0.1-0.4,0.4-0.4h2.1
	c0.3,0,0.3,0.2,0.3,0.4l-0.6,12c0,0.2-0.1,0.4-0.3,0.4H331c-0.3,0-0.3-0.2-0.3-0.4 M339,157.5c0-3.6,1.2-5.3,3-5.3
	c1.7,0,2.4,1.5,2.4,4c0,3.6-1.3,5.3-3,5.3C339.6,161.5,339,159.9,339,157.5z M341.2,163.4c3.3,0,6.1-2.1,6.1-7.3
	c0-4.1-2.1-5.9-5.2-5.9c-3.2,0-6.1,2.2-6.1,7.4C336,161.7,338,163.4,341.2,163.4 M350,150.9c0-0.3,0.1-0.4,0.4-0.4h2.7
	c0.2,0,0.4,0.2,0.5,0.3l3.3,7.3c0.3,0.6,0.7,1.5,0.9,2.3l0.5-9.4c0-0.3,0.1-0.4,0.4-0.4h1.5c0.4,0,0.4,0.2,0.4,0.4l-0.6,12
	c0,0.2-0.1,0.4-0.4,0.4h-2.7c-0.2,0-0.4-0.2-0.5-0.4l-3.3-7.4c-0.5-1-0.7-1.6-0.9-2.3l-0.5,9.7c0,0.2-0.1,0.4-0.4,0.4h-1.6
	c-0.3,0-0.4-0.2-0.4-0.4 M380.8,162.3c0,0.8-2.1,1.2-4.3,1.2c-5,0-7.8-2.7-7.8-8.1c0-5.6,4.2-8.8,9-8.8c1.6,0,3.9,0.3,3.9,1.1
	l-0.1,2c0,0.2-0.1,0.5-0.3,0.5c-0.6,0-1.5-0.8-3.5-0.8c-3.2,0-5.2,2.6-5.2,6.1s1.7,5.1,4.4,5.1c2.1,0,3.3-0.8,3.7-0.8
	c0.2,0,0.3,0.2,0.3,0.4 M384.2,150.8c0-0.3,0.1-0.4,0.4-0.4h2.1c0.3,0,0.3,0.2,0.3,0.4l-0.6,12c0,0.2-0.1,0.4-0.3,0.4H384
	c-0.3,0-0.3-0.2-0.3-0.4 M389.3,150.9c0-0.3,0.2-0.4,0.3-0.4h2.2c0.2,0,0.3,0.1,0.4,0.3l1.4,6.5c0.3,1.3,0.5,2.5,0.6,3.5
	c0.2-0.6,0.6-2.1,1-3l2.7-7c0.1-0.2,0.2-0.3,0.4-0.3h1.9c0.1,0,0.3,0.1,0.3,0.3l-4.7,11.6c-0.3,0.6-0.4,1-1,1h-1.9
	c-0.6,0-0.6-0.3-0.8-1 M402.3,150.8c0-0.3,0.1-0.4,0.4-0.4h2.1c0.3,0,0.3,0.2,0.3,0.4l-0.6,12c0,0.2-0.1,0.4-0.3,0.4h-2.1
	c-0.3,0-0.3-0.2-0.3-0.4 M408.2,150.9c0-0.3,0.1-0.4,0.4-0.4h2.1c0.3,0,0.3,0.2,0.3,0.4l-0.6,10.4h4.7c0.4,0,0.4,0.2,0.4,0.4
	l-0.1,1.3c0,0.2-0.1,0.4-0.4,0.4h-7c-0.3,0-0.4-0.2-0.4-0.4 M417.8,150.8c0-0.3,0.1-0.4,0.4-0.4h6.9c0.4,0,0.4,0.2,0.4,0.4l-0.1,1.3
	c0,0.3-0.1,0.4-0.4,0.4h-4.5l-0.2,2.9h3.5c0.3,0,0.4,0.2,0.4,0.4l-0.1,1.3c0,0.3-0.1,0.4-0.4,0.4h-3.5l-0.2,3.7h4.5
	c0.3,0,0.4,0.1,0.4,0.4l-0.1,1.3c0,0.2-0.1,0.4-0.4,0.4h-6.9c-0.3,0-0.4-0.2-0.4-0.4"/>
</svg>
