<svg xmlns="http://www.w3.org/2000/svg" xml:space="preserve" viewBox="0 0 428 166"><path fill="navy" d="M48.5 108.3c-8.2 15.4-15.5 31.3-23.6 46.4-2.4-7-4-14.4-6-21.7-1.3 1.3-2.4 3.6-3.3 5-2.3-7.2-2.4-12.8-3.7-20.5-1.1.7-2.2 1.5-3.2 2.3-1.2-6.3 1.5-11.9 1.8-17.3-7.2 2.1-.2-6.4 1.6-9.1.9-1.2.7-2.8-1.3-1.9.5-4.1 4.9-7.3 7.1-10.5-1-1.1-1.6 1-2.5-.1 1.4-3.6 4.5-7 6.7-10.1-.5-.5-1.3-.2-1.8-.6 1.9-3.1 5.1-6.1 7.8-8.7-.5-.7-1.6.2-1.5-.9 2.8-2.9 5.6-6 8.1-8.7-.6-.2-1.2-.9-2.1-.5 1.3-2.6 4-5.3 6.2-7.5-4.3-2.2 6.2-5.1.3-7.3C28 44.2 17.9 54.3 7.3 62.9c-.5-2-.6-4.9-.4-7.2-.9-1.5-1.7.7-2.7.6-.5-1.7.1-3.2.3-4.8.5-1.2.1-4.6-2-2.6.5-2.7 2.4-5.3 2.7-7.6-.6.1-1.1.1-1.7.2.6-2.8 3.4-4.8 4-7.6-.4-.7-1.6.2-1.8-.6 1.4-3.7 12.5-9.6 1.6-9.1 9.1-2.2 17.8-4.3 27.5-6.1 15.9-4.3 31.9-8.4 47.4-13.3 15.5-3.4 31-1.4 46.4-2.2 1-.1 3.9.4 4.6 2.1 2.3 6.2 10.8 1.3 15 6.1 2.4 2.1 3.3 5.3 3.1 8.4-6.8-3-14.8-.6-22.1.7 31.7 13.6 65 24.4 96.7 38-6.1 2.6-12.8 4.3-20.1 5 1.9 1.4 4.8 2.9 5.3 4.1-6.7 2.8-15.2 1.6-22.1 2.4 1.6 2.7 4.8 3.4 5.8 6.4-6.2.5-12.7-2.3-18.3-3.4.1 1 .9 1.7 1.3 2.6-4 .2-7.4-1.6-11.1-2.4l-2.8-1c-4.5-2.8-3.2-2-4.5-2.8 1.3 3.2-2.4 2.3-3.9 1.4-3.1-2.2-6.3-4-9.3-6.3.5 2.4-2.4 2.1-3.8 1.1-2.8-1.6-5.4-4.8-8.2-5.9.1 5.6-4.9-.2-7.3-1-1.2-.5-4.2-4.8-3.8-.6-3-2.2-5.1-4.6-7.6-6.9-1.2 4.3-6.3-2.3-8.6-2.6.7 4.3-2.6.4-3.8.1-1.9-1.4-3.5-3.1-5.3-4.1.1.6-.5.9-.1 1.5-3.2.3-6.1-2.9-9.4-3.3-1.6 11.9 11.1 9.9 17.4 14 2 1.4 5.2 3.3 4.6 5.8-2.1-.2-3.7-2-5.7-2.5-4.7-.7-10.7-1.3-15.2 1-1-1.2 0-2.8 1.1-3.9.6-.1-1.1-1.3-1.9-1.3-1.6-.3-3.5 0-5.2.2-1.3-2.9-2.6-5.8-4-8.6-.1.3-.7.5-.5 1.1 2.2 6.6.9 16.3 8.1 19.3 5.3 1.1 11.5 3.2 14.3 8.7-.1.2-.4.5-.5.6-6.4-4.3-15.4-3.6-22.1-.9.5-2.4 2.4-3.4 4.2-4.6.6.1 1.1-.3 1.7-.5-3.3-1.3-6.3-3.6-10.3-2.2-1.6-2-.4-5.5-2.2-7.5-7.4 14.5-14.7 29.1-21.9 43.7l-1.7 3.7zm44.7-97.2c1 2.7 4.3 2.9 6.2 2.9 9.8-.7 18.3-3.8 26.9-6.6 1.7 0 3 1.6 4.9 1.3-.5-2.1-2.8-2.7-4.3-2.8C114.7 5.6 103 7 91 6.1c.4 2 1.5 3.4 2.2 5zm-22.8.5c3.4-.8 9.1-1.2 13.4-2.6.5-.5.5-1.1.9-1.5-4.5 1.9-10.5.8-14.3 4.1zM55.7 72.1c-.7 3.5-1.8 8.6 1.1 11.5 12.1-23 22.6-46.5 34.7-69.4-1.1-2.2-1.4-5.4-3.4-6.3-10.6 21.4-21.7 42.7-32.4 64.2zm8.7-54c0 .3 0 .4.1.7 4.9-1.2 11.5-1.1 15.4-2.2.7-1.2 2.3-3.3 1.1-3.9-5.9 1.3-13.3.8-16.6 5.4zm-25.2 1.2c-.9 4.1-1.1 9.2.6 13.4 3.5 3 5.8-3 8.7-4.3-2.6.4-1.1-2.4 0-2.8.6-1.6 7.5-4.6 1.3-4.3 1.3-1.7 3.7-3.8 3.7-5.1-4.5 1.4-9.7 1.6-14.3 3.1zm83.6-7.8c1.5.3 4.8.4 4.8-.8-1.7 2.4-3.1-2.6-4.8.8zM18.4 23.6c-.3 1.3-2.1 2.2-1.8 3.7 6.5-1.5 12.7-3.4 18.5-5.8 0-.4.1-.9-.4-1.1-5.1 1.4-11 1.7-16.3 3.2zm75.5-6.2c-1.7 2.2-2.7 4.6-3.4 7.3 18.5-3.7 38.1-10.5 57.7-9.5-5.3-6.6-15.9-3.8-23.1-2-1.5.4-2.8-.2-4-.9-8.9 1.9-17.2 5.8-27.2 5.1zm-33.3 8.5c0 .1 0 .4.1.6 5.7-1.3 15.8 2.2 17.3-5.4-5.1-.2-14.9-1.3-17.4 4.8zm-45.7 4.4c-.2.7-.9 1.5-.8 2.4 6.9-2.1 14.1-3.8 20.9-6.5.5-.3 0-1.2.1-1.7-6.9 1.6-13.5 3.7-20.2 5.8zm-2.5 7.2c.1.6.4 1.5-.1 2 7.7-2.8 16.1-5.6 23.4-9.9.1-.3-.2-.4-.4-.7-7.7 2.8-15.9 4.3-22.9 8.6zm100.8-14.7c11.2 4.6 22.3 10.7 34.8 11.5 1.6 0 2.9-.4 4.1-1.4 0-.3 0-.4-.1-.7-9.8-4.1-19.8-7.3-29.6-11-3.1.7-5.9 1.4-9.2 1.6zm-7 2.7c1.2 6.1-1.9 15.8 5.2 17.6.6-.1 1.1-.1 1.7-.2.7-5-.6-10.8-1-16.3-1.9-.3-5.1-3-5.9-1.1zm-9.3.9c-.2 3.6.2 8.1 1.1 11 2 1 3.8 2.4 6.4 1.6.1-4.5-.6-9.2-1-13.8-2.4 0-4.4.9-6.5 1.2zm-40.1 6.1c0 .3.1.7.1 1 4.9-.2 10.1 0 14.8-.7.6-1.4 1.9-2.5 1.8-4.1-5.2 1.3-13.1-.5-16.7 3.8zM12.4 43.7c-1.1.8-.4 2.3-.4 3.5 7.9-3.7 15.7-9.5 23.7-14.2.8-.2-.3-.1-.5-.7-7.8 3.6-15.2 7.6-22.8 11.4zm77.4-8.5c1.1 1 2.7 1 4.2 1.3.9-2.8.2-6.5-.5-9.4-6.5-.7-2.8 4.5-3.7 8.1zM12.3 54.4c8.4-5.7 16.6-12.2 23.9-19.2-8 5.2-16.1 10.5-24.2 15.8-.4 1-.2 2.6.3 3.4zm108.4-7.3c.4 0 .9-.1 1.4-.1-.3-5.6-.3-11.1-2.1-17.2-1.7-.1-3.2-1.9-5-2 1.6 6.7-2.9 16.7 5.7 19.3zm-68.1-7.3c0 .4.1.9.1 1.3 4.6 1.3 9.9.2 14.7.3.7-1.7 2.2-3.1 2.3-5-4.9 1.1-13.4-1.7-17.1 3.4zm72.7 8.2c1.8 1.1 3.6 2.7 5.9 2.3-.7-5.6-.9-11.8-2-16.6-1.7-.9-3.4-1.8-5.4-1.8.5 5.3 1 10.8 1.5 16.1zm7.2-12.9c2.9 7.1-2.7 20.2 9.2 20-.3-5.8-1.6-11.9-2.4-17.7-2.2-1-4.5-1.9-6.8-2.3zm23.9.2c14.6 7.6 29 15.6 43.6 22.9 4.4.2 8-1.3 11.6-2.9-18.1-7.1-36.9-15-55.3-20.7 0 .3.1.5.1.7zM48 48.9c5.3-.7 10.3.5 15.6-.2.1-1.5 3.8-4-.1-4-5.9.7-12.3-2.7-15.6 3.5 0 .3 0 .5.1.7zm97.7 7.5c2 1.5 13.1 9.3 7.2-.3-2-5.9-3.9-11.6-5.9-17.5-1.3-.2-2.8-.5-4.3-.6.1 6.3 2.4 12.1 3 18.4zm36.6 6.4c3.9 1.4 9 .1 12.4-1.9.6.2.2-.6-.1-.7-13.2-7.6-26.4-15.5-39.4-22.3 8.6 8.4 17.9 16.6 27.1 24.9zm-11 1.3c2.7.9 5.5 1.4 8.5 1.2-8.1-9.1-17.9-17.7-26.6-26.2 5.4 8.4 12.1 16.8 18.1 25zm-13-2.5c2.9 1.5 5.8 3.2 9.3 3.2-5.6-8.4-11.2-16.9-17.3-25 2.2 7.5 5.3 14.5 8 21.8zM43.4 55.3c0 .4.1.9.1 1.3 5.2.2 10.5.6 15.9.2.8-1.2 1.5-2.5 2.1-3.7-5.6.2-14-4.1-18.1 2.2zm-6.1 9.6c.1.7.1 1.4.2 2 7.3-1.1 10.6 0 17.5-1.7 1.4-1 2.9-4.2 1.3-4.6-6.5.9-15-2.6-19 4.3zm-7.1 12.8c-.1.7 1-.1 1.2.6 6.8-1.8 14-3.2 20.6-5.5.2-1.3 2-3.2.6-4-7.9 2-20.4-1.2-22.4 8.9zm-1.3 4.6c-2.6 2-5.2 5-5.4 8.2C32.8 87 42 83 51.2 79.2c-.4-1 .7-1.5.2-2.5-7.5 1.7-15.2 3.5-22.5 5.6zm-6.3 12.8c-2.4 3.3-4.3 6.6-3.6 10.8 10.7-7.3 22.7-15.4 32.4-24-9.5 4.4-19.2 8.8-28.8 13.2zm-1.8 14.5c-1.5 2.5-.8 5.1.4 7.5 0 .1.2.3.3.4 11.2-9.6 21.1-21.6 31.7-31.9 0-.4.1-.9-.4-1.1-11.1 7.8-21.2 17.1-32 25.1zm4.2 10.6c-1.5 4.1.7 7.7 3.3 10.5 1.4.7 3.1 3.3 4.3 1.3 7.8-14.7 15-29.5 21.8-44.5-10.1 10.3-19.6 21.9-29.4 32.7"/><path fill="navy" d="M65.685 79.623c0-.9.4-1.3 1.4-1.3h24.7c1.3 0 1.3.6 1.3 1.5l-.3 4.5c-.1.9-.4 1.4-1.5 1.4h-16.2l-.6 10.4h12.4c1.2 0 1.3.6 1.3 1.3l-.3 4.7c0 .9-.4 1.3-1.4 1.3h-12.5l-.6 13.2h16.2c1.2 0 1.3.4 1.3 1.3l-.2 4.7c0 .8-.5 1.3-1.5 1.3h-24.5c-1.2 0-1.3-.6-1.3-1.3m32.865-42.81c0-.9.5-1.5 1.5-1.5h9.5c.6 0 1.3.6 1.6 1.2l12 26.1c1 2.3 2.5 5.4 3.1 8.1h.1l1.8-33.8c0-1.1.4-1.5 1.6-1.5h5.5c1.3 0 1.4.6 1.4 1.5l-2.3 43c0 .8-.4 1.3-1.5 1.3h-9.6c-.7 0-1.4-.6-1.7-1.3l-11.8-26.6c-1.7-3.5-2.6-5.8-3.1-8.2h-.1l-1.7 34.7c0 .8-.5 1.3-1.3 1.3h-5.8c-1.2 0-1.3-.6-1.3-1.3m60.846-30.458c1-2.9 1.7-4.9 2.3-7.3h.1c.2 3.2 1.1 7.6 2 13.6l1 6.1h-9.9l4.5-12.4zm-19.7 28.8c-.3.6-.7 1.4-.7 2 0 .6.6.9 1.1.9h7c.6 0 1.1-.4 1.2-.8l4.2-11.6h13.4l2.4 11.5c.1.5.1.9 1.1.9h8.4c.8 0 1.3-.3 1.3-.8s-.3-1.3-.4-2l-10.1-40.7c-.5-2-1-2.3-2.9-2.3h-6.9c-1.5 0-2 .5-2.7 2.3m49.482-2.877c-13.4 0-25.1 8.8-25.1 24.6 0 15.2 7.7 22.6 21.7 22.6 6.1 0 12.1-1.1 12.1-3.5l.3-5.9c0-.5-.3-1.1-.8-1.1-.9 0-4.4 2.3-10.2 2.3-7.8 0-12.4-4.7-12.4-14.4 0-9.6 5.5-17 14.5-17 .8 0 1.6.1 2.3.1v-7.8c-.9.1-1.7.1-2.4.1M65.297 147.34c0-.3.2-.5.5-.5h8.8c.5 0 .5.2.5.5l-.1 1.6c0 .3-.2.5-.5.5h-5.8l-.2 3.7h4.4c.4 0 .5.2.5.5l-.1 1.7c0 .3-.2.5-.5.5h-4.5l-.2 4.7h5.8c.4 0 .5.2.5.5l-.1 1.7c0 .3-.2.5-.5.5h-8.8c-.4 0-.5-.2-.5-.5m21.105-.23c0 .6-1.7 1-3.4 1-3.9 0-6.1-2.1-6.1-6.3 0-4.4 3.3-6.9 7-6.9 1.3 0 3 .3 3 .8l-.1 1.6c0 .2-.1.4-.2.4-.5 0-1.1-.6-2.7-.6-2.5 0-4.1 2.1-4.1 4.7 0 2.7 1.3 4 3.5 4 1.6 0 2.6-.6 2.9-.6.2 0 .2.2.2.3m4.535-3.404c0-3.6 1.2-5.3 3-5.3 1.7 0 2.4 1.5 2.4 4 0 3.6-1.3 5.3-3 5.3-1.8 0-2.4-1.6-2.4-4zm2.2 5.9c3.3 0 6.1-2.1 6.1-7.3 0-4.1-2.1-5.9-5.2-5.9-3.2 0-6.1 2.2-6.1 7.4 0 4.1 2 5.8 5.2 5.8m8.725-12.546c0-.3.1-.4.4-.4h2.1c.3 0 .3.2.3.4l-.6 10.4h4.7c.4 0 .4.2.4.4l-.1 1.3c0 .2-.1.4-.4.4h-7c-.3 0-.4-.2-.4-.4m10.22-12.169c0-.3.1-.4.4-.4h6.9c.4 0 .4.2.4.4l-.1 1.3c0 .3-.1.4-.4.4h-4.5l-.2 2.9h3.5c.3 0 .4.2.4.4l-.1 1.3c0 .3-.1.4-.4.4h-3.5l-.2 3.7h4.5c.3 0 .4.1.4.4l-.1 1.3c0 .2-.1.4-.4.4h-6.9c-.3 0-.4-.2-.4-.4m16.748-15.488c0-.3.2-.5.5-.5h3.4c.2 0 .5.2.6.4l4.3 9.3c.4.8.9 1.9 1.1 2.9h.1l.6-12.1c0-.4.2-.6.6-.6h2c.5 0 .5.2.5.5l-.8 15.4c0 .3-.2.5-.6.5h-3.4c-.3 0-.5-.2-.6-.5l-4.2-9.5c-.6-1.3-.9-2.1-1.1-2.9h-.1l-.6 12.4c0 .3-.2.5-.5.5h-2.1c-.4 0-.5-.2-.5-.5m21.574-8.312c.3-.8.5-1.4.6-2 .1.9.3 2.1.6 3.8l.3 1.7h-2.8l1.3-3.5zm-5.5 8c-.1.2-.2.4-.2.6 0 .2.2.3.3.3h2c.2 0 .3-.1.3-.2l1.2-3.2h3.7l.7 3.2c0 .1 0 .3.3.3h2.3c.2 0 .4-.1.4-.2s-.1-.4-.1-.6l-2.8-11.5c-.1-.6-.3-.6-.8-.6h-1.9c-.4 0-.6.1-.8.6m9.78 1.409h-3.6c-.3 0-.4-.2-.4-.3l.1-1.4c0-.3.1-.4.4-.4h10.1c.4 0 .4.2.4.4l-.1 1.3c0 .3-.1.4-.4.4h-3.7l-.6 10.4c0 .2-.1.4-.4.4h-2c-.3 0-.4-.2-.4-.4m8.96-12.109c0-.3.1-.4.4-.4h2.1c.3 0 .3.2.3.4l-.6 12c0 .2-.1.4-.3.4h-2.1c-.3 0-.3-.2-.3-.4m8.37-5.285c0-3.6 1.2-5.3 3-5.3 1.7 0 2.4 1.5 2.4 4 0 3.6-1.3 5.3-3 5.3-1.8 0-2.4-1.6-2.4-4zm2.2 5.9c3.3 0 6.1-2.1 6.1-7.3 0-4.1-2.1-5.9-5.2-5.9-3.2 0-6.1 2.2-6.1 7.4 0 4.1 2 5.8 5.2 5.8m8.754-12.546c0-.3.1-.4.4-.4h2.7c.2 0 .4.2.5.3l3.3 7.3c.3.6.7 1.5.9 2.3l.5-9.4c0-.3.1-.4.4-.4h1.5c.4 0 .4.2.4.4l-.6 12c0 .2-.1.4-.4.4h-2.7c-.2 0-.4-.2-.5-.4l-3.3-7.4c-.5-1-.7-1.6-.9-2.3l-.5 9.7c0 .2-.1.4-.4.4h-1.6c-.3 0-.4-.2-.4-.4m18.621-8.569c.3-.8.5-1.4.6-2 .1.9.3 2.1.6 3.8l.3 1.7h-2.8l1.3-3.5zm-5.6 8c-.1.2-.2.4-.2.6 0 .2.2.3.3.3h2c.2 0 .3-.1.3-.2l1.2-3.2h3.7l.7 3.2c0 .1 0 .3.3.3h2.3c.2 0 .4-.1.4-.2s-.1-.4-.1-.6l-2.8-11.4c-.1-.6-.3-.6-.8-.6h-1.9c-.4 0-.6.1-.8.6m9.214-.331c0-.3.1-.4.4-.4h2.1c.3 0 .3.2.3.4l-.6 10.4h4.7c.4 0 .4.2.4.4l-.1 1.3c0 .2-.1.4-.4.4h-7c-.3 0-.4-.2-.4-.4m10.221-12.169c0-.3.1-.4.4-.4h6.9c.4 0 .4.2.4.4l-.1 1.3c0 .3-.1.4-.4.4h-4.5l-.2 2.9h3.5c.3 0 .4.2.4.4l-.1 1.3c0 .3-.1.4-.4.4h-3.5l-.2 3.7h4.5c.3 0 .4.1.4.4l-.1 1.3c0 .2-.1.4-.4.4h-6.9c-.3 0-.4-.2-.4-.4m19.064-10.515h1.5c2.3 0 3.4 1.5 3.4 4.1 0 3.1-1.7 4.8-4.1 4.8h-1.3l.5-8.9zm-3.3 10.5c0 .2 0 .4.4.4h4.5c3.1 0 6.3-2.4 6.3-7 0-3.6-2.1-5.8-6.2-5.8h-4c-.3 0-.4.1-.4.4m13.195-.085c0-.3.1-.4.4-.4h6.9c.4 0 .4.2.4.4l-.1 1.3c0 .3-.1.4-.4.4h-4.5l-.2 2.9h3.5c.3 0 .4.2.4.4l-.1 1.3c0 .3-.1.4-.4.4h-3.5l-.2 3.7h4.5c.3 0 .4.1.4.4l-.1 1.3c0 .2-.1.4-.4.4h-6.9c-.3 0-.4-.2-.4-.4m16.265-12.031c0-.3.1-.4.4-.4h2.1c.3 0 .3.2.3.4l-.6 10.4h4.7c.4 0 .4.2.4.4l-.1 1.3c0 .2-.1.4-.4.4h-7c-.3 0-.4-.2-.4-.4m8.651-9.55c-.2 0-.3 0-.3-.3 0-.2.1-.3.5-1.2.3-.8.5-1.5.6-2.5v-.4c0-.1.1-.3.3-.3h1.9c.2 0 .3.1.3.3v.4c-.2 1.7-1.4 4-1.9 4m10.05-1.525c.4-1 .6-1.8.8-2.6h.1c.1 1.2.4 2.7.7 4.9l.4 2.2h-3.6l1.6-4.5zm-7 10.3c-.1.2-.3.5-.3.7 0 .2.2.3.4.3h2.5c.2 0 .4-.2.4-.3l1.5-4.1h4.8l.9 4.1c0 .2 0 .3.4.3h3c.3 0 .5-.1.5-.3 0-.2-.1-.5-.2-.7l-3.6-14.5c-.2-.7-.4-.8-1-.8h-2.5c-.6 0-.7.2-1 .8m9.087 3.175c0-.3.2-.4.3-.4h2.2c.2 0 .3.1.4.3l1.4 6.5c.3 1.3.5 2.5.5 3.5.2-.6.6-2.1 1-3l2.7-7c.1-.2.2-.3.4-.3h1.9c.1 0 .3.1.3.3l-4.7 11.6c-.3.6-.4 1-1 1h-1.9c-.6 0-.6-.3-.8-1m10.344-11.569c0-.3.1-.4.4-.4h2.1c.3 0 .3.2.3.4l-.6 12c0 .2-.1.4-.3.4h-2.1c-.3 0-.3-.2-.3-.4m10.24-8.4c.3-.8.5-1.4.6-2 .1.9.3 2.1.6 3.8l.3 1.7h-2.8l1.3-3.5zm-5.5 8c-.1.2-.2.4-.2.6 0 .2.2.3.3.3h2c.2 0 .3-.1.3-.2l1.2-3.2h3.7l.7 3.2c0 .1 0 .3.3.3h2.3c.2 0 .4-.1.4-.2s-.1-.4-.1-.6l-2.8-11.4c-.1-.6-.3-.6-.8-.6h-1.9c-.4 0-.6.1-.8.6m9.781 1.309h-3.6c-.3 0-.4-.2-.4-.3l.1-1.4c0-.3.1-.4.4-.4h10.1c.4 0 .4.2.4.4l-.1 1.3c0 .3-.1.4-.4.4h-3.7l-.6 10.4c0 .2-.1.4-.4.4h-2c-.3 0-.4-.2-.4-.4m8.96-12.109c0-.3.1-.4.4-.4h2.1c.3 0 .3.2.3.4l-.6 12c0 .2-.1.4-.3.4h-2.1c-.3 0-.3-.2-.3-.4m8.369-5.285c0-3.6 1.2-5.3 3-5.3 1.7 0 2.4 1.5 2.4 4 0 3.6-1.3 5.3-3 5.3-1.8 0-2.4-1.6-2.4-4zm2.2 5.9c3.3 0 6.1-2.1 6.1-7.3 0-4.1-2.1-5.9-5.2-5.9-3.2 0-6.1 2.2-6.1 7.4 0 4.1 2 5.8 5.2 5.8m8.756-12.546c0-.3.1-.4.4-.4h2.7c.2 0 .4.2.5.3l3.3 7.3c.3.6.7 1.5.9 2.3l.5-9.4c0-.3.1-.4.4-.4h1.5c.4 0 .4.2.4.4l-.6 12c0 .2-.1.4-.4.4h-2.7c-.2 0-.4-.2-.5-.4l-3.3-7.4c-.5-1-.7-1.6-.9-2.3l-.5 9.7c0 .2-.1.4-.4.4h-1.6c-.3 0-.4-.2-.4-.4m31.534-.685c0 .8-2.1 1.2-4.3 1.2-5 0-7.8-2.7-7.8-8.1 0-5.6 4.2-8.8 9-8.8 1.6 0 3.9.3 3.9 1.1l-.1 2c0 .2-.1.5-.3.5-.6 0-1.5-.8-3.5-.8-3.2 0-5.2 2.6-5.2 6.1 0 3.5 1.7 5.1 4.4 5.1 2.1 0 3.3-.8 3.7-.8.2 0 .3.2.3.4m3.29-9.384c0-.3.1-.4.4-.4h2.1c.3 0 .3.2.3.4l-.6 12c0 .2-.1.4-.3.4h-2.1c-.3 0-.3-.2-.3-.4m5.57-11.931c0-.3.2-.4.3-.4h2.2c.2 0 .3.1.4.3l1.4 6.5c.3 1.3.5 2.5.6 3.5.2-.6.6-2.1 1-3l2.7-7c.1-.2.2-.3.4-.3h1.9c.1 0 .3.1.3.3l-4.7 11.6c-.3.6-.4 1-1 1h-1.9c-.6 0-.6-.3-.8-1m10.246-11.569c0-.3.1-.4.4-.4h2.1c.3 0 .3.2.3.4l-.6 12c0 .2-.1.4-.3.4h-2.1c-.3 0-.3-.2-.3-.4m6.369-11.931c0-.3.1-.4.4-.4h2.1c.3 0 .3.2.3.4l-.6 10.4h4.7c.4 0 .4.2.4.4l-.1 1.3c0 .2-.1.4-.4.4h-7c-.3 0-.4-.2-.4-.4m10.221-12.169c0-.3.1-.4.4-.4h6.9c.4 0 .4.2.4.4l-.1 1.3c0 .3-.1.4-.4.4h-4.5l-.2 2.9h3.5c.3 0 .4.2.4.4l-.1 1.3c0 .3-.1.4-.4.4h-3.5l-.2 3.7h4.5c.3 0 .4.1.4.4l-.1 1.3c0 .2-.1.4-.4.4h-6.9c-.3 0-.4-.2-.4-.4"/></svg>
