<svg xmlns="http://www.w3.org/2000/svg" xml:space="preserve" viewBox="0 0 220 153" fill="#000080"><path d="M48.2 104.4C40.5 118.9 33.6 133.8 26 148c-2.3-6.6-3.8-13.5-5.6-20.4-1.2 1.2-2.3 3.3-3.1 4.7-2.1-6.7-2.3-12-3.5-19.3-1 .6-2 1.4-3.1 2.2-1.1-5.9 1.4-11.2 1.7-16.2-6.7 2-.2-6 1.5-8.6.8-1.2.7-2.7-1.3-1.8.4-3.8 4.6-6.8 6.7-9.9-.9-1-1.5 1-2.3 0 1.3-3.4 4.3-6.5 6.3-9.4-.5-.5-1.2-.2-1.7-.5 1.8-2.9 4.7-5.8 7.4-8.2-.5-.6-1.5.1-1.4-.8 2.6-2.7 5.3-5.7 7.6-8.2-.6-.2-1.2-.8-2-.5 1.3-2.4 3.7-5 5.8-7.1-4-2.1 5.8-4.8.3-6.8-10.4 7-19.8 16.5-29.8 24.5-.4-1.8-.5-4.5-.3-6.7-.8-1.4-1.6.7-2.5.5-.4-1.6.1-3 .2-4.5.4-1.2.1-4.4-1.9-2.4.4-2.5 2.2-5 2.6-7.2-.6 0-1.1.1-1.6.1.6-2.6 3.2-4.5 3.8-7.2-.3-.6-1.5.1-1.7-.5 1.3-3.5 11.8-9 1.5-8.6 8.5-2 16.7-4.1 25.8-5.8 15-4 30-7.9 44.5-12.5 14.5-3.2 29.1-1.3 43.6-2 .9-.1 3.6.4 4.3 2 2.2 5.9 10.2 1.2 14.1 5.8 2.2 2 3.1 5 2.9 7.9-6.4-2.8-13.9-.6-20.7.6C153.9 34 185.2 44.2 215 57c-5.7 2.5-12 4-18.9 4.7 1.8 1.3 4.5 2.7 5 3.9-6.3 2.6-14.3 1.5-20.7 2.3 1.5 2.6 4.5 3.2 5.5 6-5.8.4-11.9-2.1-17.2-3.2.1.9.8 1.6 1.2 2.5-3.8.2-6.9-1.5-10.4-2.3l-2.7-.9c-4.2-2.6-3-1.9-4.2-2.6 1.2 3-2.2 2.1-3.7 1.3-2.9-2-5.9-3.8-8.7-6 .5 2.3-2.3 2-3.6 1-2.6-1.5-5.1-4.5-7.7-5.5.1 5.3-4.6-.2-6.9-1-1.1-.4-4-4.5-3.6-.6-2.8-2-4.8-4.3-7.2-6.5-1.1 4.1-5.9-2.1-8.1-2.5.7 4-2.4.4-3.5.1-1.8-1.3-3.3-2.9-5-3.9.1.5-.5.9-.1 1.4-3 .3-5.7-2.7-8.9-3.1C84.1 53.3 96 51.4 102 55.2c1.9 1.3 4.9 3.1 4.3 5.4-1.9-.2-3.4-1.8-5.4-2.3-4.4-.7-10-1.2-14.3 1-.9-1.1 0-2.6 1-3.6.5-.1-1.1-1.3-1.7-1.2-1.5-.3-3.3 0-4.9.2-1.2-2.7-2.4-5.5-3.8-8.1-.1.3-.6.5-.4 1 2.1 6.2.8 15.3 7.6 18.2 5 1 10.8 3 13.4 8.2-.1.1-.4.4-.5.6-6-4-14.5-3.4-20.8-.9.5-2.2 2.3-3.2 3.9-4.3.6.1 1.1-.2 1.6-.4-3.1-1.2-5.9-3.4-9.7-2.1-1.5-1.9-.4-5.1-2-7-6.9 13.6-13.7 27.3-20.5 41.1l-1.6 3.4zm42.1-91.3c.9 2.5 4.1 2.7 5.8 2.7 9.2-.6 17.2-3.6 25.2-6.2 1.6 0 2.9 1.5 4.6 1.2-.5-2-2.6-2.6-4.1-2.6-11.4-.3-22.5 1.1-33.7.3.4 1.8 1.5 3.1 2.2 4.6zm-21.5.5c3.2-.7 8.6-1.1 12.5-2.4.5-.5.4-1 .8-1.4-4.1 1.6-9.8.7-13.3 3.8zM55 70.4c-.6 3.3-1.7 8.1 1 10.8C67.4 59.5 77.2 37.5 88.6 16c-1-2.1-1.3-5-3.2-6C75.4 30.2 65 50.2 55 70.4zm8.1-50.7c0 .3 0 .4.1.7 4.7-1.1 10.8-1 14.5-2.1.7-1.2 2.2-3.1 1-3.6-5.5 1.1-12.4.6-15.6 5zm-23.7 1c-.8 3.9-1.1 8.7.5 12.6 3.3 2.8 5.4-2.8 8.2-4.1-2.4.4-1-2.2 0-2.6.5-1.5 7.1-4.4 1.2-4.1 1.2-1.6 3.5-3.6 3.5-4.8-4.1 1.5-9 1.7-13.4 3zm78.6-7.3c1.4.3 4.5.4 4.6-.7-1.7 2.2-3-2.4-4.6.7zM20 24.8c-.3 1.3-2 2.1-1.7 3.4 6.1-1.4 11.9-3.2 17.4-5.5 0-.4.1-.8-.4-1.1-4.9 1.5-10.4 1.8-15.3 3.2zM90.8 19c-1.6 2.1-2.6 4.3-3.1 6.8 17.3-3.4 35.8-9.8 54.2-8.9-5-6.2-14.9-3.6-21.7-1.9-1.5.4-2.6-.2-3.8-.9-8.3 1.9-16.1 5.5-25.6 4.9zm-31.2 8c0 .1 0 .4.1.5 5.3-1.2 14.9 2.1 16.2-5.1-4.7-.1-14-1.1-16.3 4.6zm-43 4.1c-.2.7-.8 1.4-.7 2.2 6.5-2 13.3-3.6 19.7-6.1.5-.3 0-1.1.1-1.6-6.5 1.6-12.7 3.5-19.1 5.5zm-2.3 6.8c.1.5.4 1.5-.1 1.9 7.2-2.6 15.1-5.3 21.9-9.3.1-.3-.2-.4-.3-.6-7.2 2.5-14.9 3.9-21.5 8zM109 24.1c10.5 4.3 21 10.1 32.7 10.8 1.5 0 2.7-.4 3.8-1.3 0-.3 0-.4-.1-.7-9.2-3.9-18.6-6.9-27.8-10.4-2.8.8-5.5 1.4-8.6 1.6zm-6.6 2.5c1.1 5.7-1.8 14.9 4.9 16.5.5-.1 1.1-.1 1.6-.2.6-4.7-.6-10.1-.9-15.3-1.8-.2-4.8-2.8-5.6-1zm-8.7.9c-.2 3.4.2 7.6 1 10.4 1.9.9 3.6 2.2 6 1.5.1-4.2-.6-8.7-1-13-2.2-.1-4 .7-6 1.1zM56 33.2c0 .3.1.7.1.9 4.6-.2 9.5 0 13.9-.7.6-1.3 1.8-2.4 1.7-3.8-4.9 1.3-12.3-.4-15.7 3.6zM14.3 43.7c-1 .8-.3 2.2-.4 3.3 7.4-3.4 14.8-8.9 22.2-13.3.8-.2-.3-.1-.5-.6-7.2 3.3-14.1 7.1-21.3 10.6zm72.7-8c1 1 2.5 1 3.9 1.3.8-2.7.2-6.1-.4-8.8-6.1-.8-2.6 4.2-3.5 7.5zM14.2 53.8c7.9-5.4 15.6-11.4 22.5-18.1-7.5 4.9-15.1 9.9-22.8 14.8-.3 1-.2 2.5.3 3.3zm101.9-6.9c.4 0 .8-.1 1.3-.1-.2-5.3-.3-10.4-2-16.1-1.6-.1-3-1.7-4.7-1.9 1.5 6.3-2.7 15.7 5.4 18.1zm-64-6.8c0 .4.1.8.1 1.2 4.3 1.2 9.3.2 13.8.3.7-1.6 2-2.9 2.1-4.7-4.6 1-12.6-1.7-16 3.2zm68.3 7.6c1.7 1.1 3.4 2.5 5.5 2.2-.6-5.2-.8-11.1-1.9-15.6-1.6-.8-3.2-1.7-5.1-1.7.5 5 1 10.2 1.5 15.1zm6.7-12c2.7 6.7-2.5 19 8.6 18.8-.3-5.4-1.5-11.1-2.3-16.6-1.9-1-4.1-1.9-6.3-2.2zm22.5.1c13.7 7.1 27.3 14.6 41 21.5 4.1.1 7.5-1.3 10.9-2.7-17-6.7-34.7-14.1-51.9-19.5-.1.3 0 .6 0 .7zM47.7 48.6c5-.6 9.7.4 14.7-.2.1-1.4 3.6-3.7-.1-3.8-5.5.7-11.5-2.6-14.6 3.3v.7zm91.8 7.1c1.9 1.4 12.3 8.7 6.8-.2-1.9-5.5-3.6-10.9-5.5-16.5-1.2-.2-2.6-.4-4-.6 0 5.9 2.2 11.4 2.7 17.3zm34.5 5.9c3.7 1.3 8.4.1 11.7-1.8.6.2.2-.6-.1-.7-12.4-7.1-24.8-14.6-37-20.9 8 8 16.7 15.7 25.4 23.4zm-10.4 1.3c2.5.8 5.2 1.3 8 1.1-7.6-8.5-16.8-16.6-25-24.7 5 8 11.4 15.8 17 23.6zm-12.2-2.4c2.7 1.4 5.5 3 8.7 3-5.3-7.9-10.5-15.8-16.3-23.5 2.1 7.1 5.1 13.7 7.6 20.5zm-108-5.9c0 .4.1.8.1 1.2 4.9.2 9.8.5 15 .2.7-1.2 1.4-2.3 2-3.5-5.3.2-13.2-3.8-17.1 2.1zm-5.7 9c.1.7.1 1.3.2 1.9 6.8-1.1 9.9 0 16.4-1.6 1.3-.9 2.7-3.9 1.2-4.3-6.1.9-14-2.5-17.8 4zM31 75.7c-.1.7.9-.1 1.1.6 6.4-1.7 13.2-3 19.4-5.1.2-1.2 1.9-3 .6-3.7-7.4 1.7-19.2-1.4-21.1 8.2zM29.8 80c-2.4 1.9-4.8 4.7-5.1 7.7 8.8-3.3 17.4-7.1 26-10.7-.4-.9.7-1.4.2-2.3-7 1.7-14.2 3.3-21.1 5.3zm-5.9 12c-2.3 3.1-4 6.2-3.4 10.1C30.6 95.3 41.8 87.7 51 79.6c-9 4.1-18.1 8.3-27.1 12.4zm-1.7 13.7c-1.4 2.3-.8 4.8.4 7 0 .1.2.3.3.4 10.6-9 19.8-20.3 29.8-29.9 0-.4.1-.8-.4-1-10.4 7.1-19.9 15.9-30.1 23.5zm4 9.9c-1.4 3.8.7 7.3 3.1 9.9 1.3.7 2.9 3.1 4.1 1.2 7.4-13.8 14-27.7 20.4-41.8-9.5 9.7-18.4 20.6-27.6 30.7"/><path d="M64.285 77.523c0-.9.4-1.3 1.3-1.3h23.2c1.2 0 1.3.6 1.3 1.4l-.3 4.2c-.1.9-.4 1.3-1.4 1.3h-15.2l-.5 9.8h11.7c1.1 0 1.3.5 1.3 1.3l-.3 4.4c0 .9-.4 1.3-1.3 1.3h-11.7l-.6 12.4h15.2c1.1 0 1.3.4 1.3 1.3l-.2 4.4c0 .8-.5 1.3-1.4 1.3h-23.2c-1.1 0-1.2-.6-1.2-1.3m30.865-40.41c0-.9.5-1.4 1.4-1.4h8.9c.6 0 1.3.5 1.5 1.1l11.3 24.5c.9 2.1 2.3 5 2.9 7.6h.1l1.7-31.8c0-1 .4-1.5 1.5-1.5h5.2c1.3 0 1.3.5 1.3 1.4l-2.1 40.4c0 .8-.4 1.3-1.5 1.3h-9c-.7 0-1.3-.6-1.6-1.2l-11.1-25c-1.6-3.3-2.5-5.5-2.9-7.7h-.1l-1.6 32.6c0 .8-.5 1.3-1.3 1.3h-5.5c-1.1 0-1.2-.6-1.2-1.3m57.246-28.458c.9-2.7 1.6-4.6 2.1-6.9h.1c.2 3 1 7.2 1.9 12.8l.9 5.7h-9.3l4.3-11.6zm-18.5 27.1c-.3.6-.7 1.3-.7 1.9 0 .5.5.9 1.1.9h6.6c.6 0 1-.4 1.1-.8l4-10.9h12.6l2.3 10.8c.1.5.1.9 1 .9h7.9c.8 0 1.3-.3 1.3-.8s-.3-1.3-.4-1.9l-9.5-38.2c-.5-1.9-.9-2.2-2.7-2.2h-6.5c-1.5 0-1.9.5-2.6 2.1m46.382-2.777c-12.6 0-23.6 8.3-23.6 23.1 0 14.2 7.3 21.3 20.4 21.3 5.8 0 11.3-1.1 11.3-3.2l.3-5.6c0-.5-.3-1-.8-1-.9 0-4.1 2.2-9.6 2.2-7.3 0-11.7-4.4-11.7-13.5 0-9 5.2-16 13.6-16 .8 0 1.5.1 2.2.1v-7.4h-2.1"/></svg>
