<?xml version="1.0" encoding="utf-8"?>
<!-- Generator: Adobe Illustrator 26.1.0, SVG Export Plug-In . SVG Version: 6.00 Build 0)  -->
<svg version="1.1" id="layer" xmlns="http://www.w3.org/2000/svg" xmlns:xlink="http://www.w3.org/1999/xlink" x="0px" y="0px"
	 width="610px" height="160px" viewBox="0 0 610 160" enable-background="new 0 0 610 160" xml:space="preserve">
<path fill="#9CA3AF" d="M278.8,76.4V9.3l0.3-0.9c0.1-0.1,0.3-0.3,0.7-0.5l2.2-1.3l0.2-0.1V5h-23.9v1.4l2.2,1.5
	c0.4,0.3,0.6,0.5,0.7,0.7l-0.1,66.9l-0.3,1c-0.1,0.2-0.4,0.5-0.6,0.6l-2.1,1.3l-0.2,0.1v1.4l23.8,0.1v-1.5l-2.3-1.5
	C279.2,76.9,278.9,76.6,278.8,76.4 M340.4,71.3l0.8-0.9l17-17.9l-0.1-42.9l0.1-0.9l0.7-0.6l2.2-1.3l0.2-0.1V5.2l-23.9-0.1v1.5
	l2.3,1.5c0.8,0.5,1,0.9,1,1.4l-0.1,22.8L290.1,32l-10.7,13.4L281,46h0.2l3.3-1.9c0.7-0.4,1.3-0.7,1.6-0.8c0.4-0.1,0.9-0.2,1.5-0.2
	l53,0.2L340.4,71.3z M398.3,19.5l-59.2,60.8l25.7,0.1v-1.7h-0.5c-0.5,0-1-0.1-1.3-0.1c-1.1-0.2-1.5-0.5-1.6-0.8l46.8-47.9
	L398.3,19.5z M603.4,35.4c-2.9-9.1-9.4-16.4-19.5-22c-9.2-5.1-22.4-7.7-39.7-7.8h-67V7l2.2,1.5c0.4,0.3,0.6,0.5,0.7,0.6v7.5
	l32.9,0.1l0,0l31.1,0.1c13.2,0,22.7,1.8,28.6,5.2c9.3,5.4,13.9,12.6,13.9,21.6c0,4.6-1.3,8.7-3.7,12.4c-2.4,3.6-6.1,6.7-11,9.2
	c-6.2,3.2-15.8,4.8-28.5,4.8l-34.1-0.1l0.2-49.1h-17.5v55.6l-0.3,1c-0.1,0.2-0.3,0.4-0.6,0.6l-2,1.2l-0.2,0.1v1.6h54.7
	c10.7,0,18.9-0.4,24.7-1.6c7.9-1.6,14.9-4.4,21-8.4c6.1-4,10.4-8.6,12.9-13.8c1.9-3.8,2.8-8,2.8-12.4
	C604.7,41.3,604.3,38.2,603.4,35.4 M401.8,15.9L413.3,28l13,13l-21.6-0.1L394,52.4l1.3,0.7l0.2,0.1l2.5-1.3c0.3-0.1,0.6-0.2,0.8-0.3
	c0.2,0,1.4,0,3.3,0l34.3,0.1l23.9,25.1c0.2,0.1,0.3,0.2,0.4,0.4l0.2,0.8c0,0.3-0.7,0.8-2.9,0.8h-0.5v1.7l26,0.1L411.9,5.5
	L401.8,15.9z M226.8,7.2l2.3,1.5c0.8,0.5,1.1,1,1.1,1.4L230,76.2l-0.3,1.1c-0.2,0.2-0.5,0.4-0.7,0.6l-2.1,1.4l-0.2,0.1v1.5l23.7,0.1
	v-1.6l-2.1-1.4c-0.4-0.3-0.6-0.6-0.7-0.6V10.2l0.3-1l0.6-0.6l1.9-1.2l0.2-0.1V5.8h-23.7L226.8,7.2z M122.9,69
	c-0.7,0.4-1.3,0.7-1.7,0.8H66.2c-12.8,0-22.4-1.7-28.7-5c-9.6-5-14.3-12.1-14.3-21.7c0-4.4,1.3-8.4,3.8-12.2
	c4.8-6.9,12-11.3,22-13.1c2.8-0.4,5-0.8,6.6-0.9c3-0.2,6.4-0.2,10.1-0.2h17.1c1.8,0.2,2.4,0.7,2.3,1V18L85,18.9l-0.1,0.6h1.6
	L97.9,5.9l-32-0.1C58,5.8,52,6,47.8,6.5c-2.3,0.3-4.4,0.6-6.4,1.1c-5.4,1.2-10.7,3.2-16,6.1C17.2,18.3,11.3,24,7.9,30.9
	C6,34.8,5,39.2,5,44c0,12.1,6.5,21.8,19.5,28.7c6,3.3,12.5,5.5,19.7,6.7c5.4,0.9,12.8,1.4,22.1,1.4l51,0.2l11.5-13.7h-2.5L122.9,69z
	 M99.8,46l-0.1,0.5h1.7l11.2-13.8l-79.1-0.3l-7.5,11l71.6,0.2c1.8,0.2,2.3,0.7,2.3,1v0.2L99.8,46z M106.5,5.8l-10.7,13l1.6,0.6h0.1
	l3.3-1.6c1.1-0.7,2.1-1,3.2-1l44.7,0.1v59.4l-0.4,1c-0.2,0.3-0.5,0.5-0.7,0.5l-2.1,1.3l-0.2,0.2v1.5l23.8,0.1v-1.5l-2.4-1.5
	l-0.8-0.7c0,0,0-0.3,0-0.8l0.2-59.4H206c1.7,0.2,2.2,0.7,2.1,1.1v1.6h1.5l11.5-14L106.5,5.8L106.5,5.8z"/>
<path fill="#9CA3AF" d="M597.3,140.4h7V88.1h-7V140.4z M579,131.1c-1.2,2.9-4.4,4.6-8.3,4.6c-6.7,0-9.9-5-9.9-14
	c0-9.1,3.6-15.3,10.4-15.3c3.5,0,6.6,1.2,7.8,3.5V131.1z M569,141.5c5.9,0,9.5-2.5,10.7-5.5c0.9,3.3,3,5.1,6.6,5.1
	c2.7,0,4.3-1,4.9-1.7v-5.3c-0.7,0.6-1.5,1.3-3,1.3c-1.4,0-2.3-1.1-2.3-3.4v-29.9h-5.3l-1,2.8c-1.7-2.4-5.1-4-9.3-4
	c-9.5,0-16.7,6.9-16.7,20.9C553.7,135.7,560.4,141.5,569,141.5 M515.4,140.4h7v-29.6c1-2,4.1-4.4,8.9-4.4c6.1,0,8.5,3.2,8.5,11v23.1
	h6.9v-24.3c0-10.3-4-15.2-13.7-15.2c-5.4,0-9.2,2.3-10.6,4.7l-0.5-3.6h-6.5L515.4,140.4L515.4,140.4z M490.4,135.7
	c-6.9,0-10.6-5.4-10.6-14.5c0-9,3.8-14.5,10.7-14.5c7,0,10.6,5.5,10.6,14.5C501.2,130.2,497.4,135.7,490.4,135.7 M490.1,141.5
	c9.8,0,18.1-6.3,18.1-20.3c0-13.9-7.1-20.3-17.4-20.3c-9.9,0-18.2,6.4-18.2,20.3C472.7,135.2,479.8,141.5,490.1,141.5 M462,96.6
	c2.6,0,4.1-1.3,4.1-3.6c0-2.4-1.5-3.7-4.1-3.7c-2.6,0-3.8,1.3-3.8,3.7C458.1,95.3,459.4,96.6,462,96.6 M458.5,140.4h7v-38.3h-7
	V140.4z M442.3,128.5c-1.2,2.7-4.6,4.5-8.7,4.5c-7.1,0-10-5-10-12.6c0-7.7,3.4-13.9,10.4-13.9c2.8,0,6.5,0.7,8.3,3.5L442.3,128.5
	L442.3,128.5z M430.6,155c11.8,0,18.7-6.2,18.7-18v-34.9h-5.5l-0.9,2.5c-1.9-2.5-6.4-3.7-9.8-3.7c-9.8,0-16.7,6.9-16.7,19.5
	c0,12.5,6.6,18.3,15.5,18.3c4.9,0,8.7-1.8,10.4-4.1v3.2c0,7.8-3.9,11.4-11.4,11.4c-6,0-10.2-2.3-12.4-4.4v7.2
	C420.2,153.3,424.6,155,430.6,155 M384.9,118.6c0.3-7.1,4.3-11.9,10-11.9c6,0,9.4,3.5,9.4,10.9v1H384.9z M396.4,141.5
	c7.2,0,11.2-2.3,13.1-4.2v-6.5c-1.9,2.3-5.8,4.7-12.5,4.7c-8.1,0-11.9-4.8-12.3-12.1H411v-4.9c0-14-7.8-17.8-16.2-17.8
	c-8.6,0-17.4,6.1-17.4,20.3C377.6,135.2,385,141.5,396.4,141.5 M348,118.6V98.2h6.9c7.1,0,9.6,3.5,9.6,9.8c0,6.2-2.4,10.6-9.6,10.6
	H348z M366.6,140.4h8.1L360.6,123c7.4-2,11.1-7.8,11.1-15.7c0-10-5.7-14.8-16.8-14.8h-14v47.9h7.1v-16.8h5.9L366.6,140.4z"/>
<path fill="#9CA3AF" d="M321.1,92.1h-29.1h-4.4h-2.8c-2.2,0-4,1.8-4,4v39.6c0,2.2,1.8,4,4,4h4.4h27.4h4.4c2.2,0,4-1.8,4-4V96.1
	C325.1,93.9,323.3,92.1,321.1,92.1z M313,119.2h-7.1v6.8h-5.9v-6.8H293v-6.6h7.1v-6.7h5.9v6.7h7.1V119.2z"/>
</svg>
