<?xml version="1.0" encoding="utf-8"?>
<!-- Generator: Adobe Illustrator 26.1.0, SVG Export Plug-In . SVG Version: 6.00 Build 0)  -->
<svg version="1.1"
	 id="Layer_1" inkscape:version="0.92.2 (5c3e80d, 2017-08-06)" sodipodi:docname="header-text-image-web.svg" xmlns:cc="http://creativecommons.org/ns#" xmlns:dc="http://purl.org/dc/elements/1.1/" xmlns:inkscape="http://www.inkscape.org/namespaces/inkscape" xmlns:rdf="http://www.w3.org/1999/02/22-rdf-syntax-ns#" xmlns:sodipodi="http://sodipodi.sourceforge.net/DTD/sodipodi-0.dtd" xmlns:svg="http://www.w3.org/2000/svg"
	 xmlns="http://www.w3.org/2000/svg" xmlns:xlink="http://www.w3.org/1999/xlink" x="0px" y="0px" width="155.1px" height="55.1px"
	 viewBox="0 0 155.1 55.1" enable-background="new 0 0 155.1 55.1" xml:space="preserve">
<path fill="#9CA3AF" d="M86.7,6.1L86.7,6.1l-1.9-1.9l-2,2l2,2L86.7,6.1z M90.7,6.1L90.3,6l-1.8-1.8l-2,2l2,2L90.7,6.1z M63.5,5.7
	c0,0.4,0.4,0.6,0.7,0.7c0.4,0.1,0.8,0.4,0.8,1v15.4h17V23c0,0.1,0,0.1,0,0.4c0,1.3,0.4,2.1,1.1,2.4c0,0,0.4,0.3,1,0.3
	c0.4,0,0.8-0.1,1.3-0.4l0.3-0.1l-0.3-0.3c-0.4-0.4-0.7-1.6-0.7-2.3v-0.1H91V8.8c0,0-0.8,1.8-3.9,4.1c0,0,0.1,0.6,0.7,0.9
	c0.8,0.4,0.7,0.9,0.7,0.9v5.7h-3.9V20v-0.3c0-1.4-0.4-4.8-4.2-4.8h-0.1c-1.1,0-2.2,0-3.1,0h-0.3c-2.2,0-3.4-0.3-3.8-0.9L73,13.8
	l-0.1,0.1c-0.4,0.3-0.7,0.8-0.7,1.4c0,0.9,0.6,2,1.4,2c0.6,0,1.4,0,2.2,0c1.4,0,3,0,3,0c3.1,0,3.2,1.4,3.2,2V20H67.5V1.1
	c0,0-1.7,2.3-4.1,4v0.1L63.5,5.7L63.5,5.7z M53.5,25c0,0-0.3,2.3,4.4,2.3c3.8,0,3.9-2.4,3.9-2.4v-8.8c0-0.6-0.1-2.1-1.7-2.1H47v-1
	c0-0.3,0.1-0.3,0.4-0.4c0.7-0.4,0.8-0.9,0.7-1.1c-1.5-0.9-3-2.9-3-2.9v7.7h13.2h0.1c0.4,0,1,0.1,1,1v6.2c0,0,0,1.3-1.3,1.3
	c-2.1,0-2-1.1-2-1.1v-3.4H45V23h8.7v2H53.5z M108.9,7.4c0-0.7,0.4-0.9,0.7-1c0.3-0.1,0.6-0.3,0.7-0.9V5.4c0-0.3-0.1-0.3-0.4-0.4
	c-0.3-0.1-0.7-0.4-1.5-1.1c-1.4-1.1-1.7-1.7-1.7-1.7l-0.4-0.7v21.5h2.7C108.9,22.8,108.9,7.8,108.9,7.4z M99.9,25.6l-1.8,1.8
	l-1.8-1.8l1.8-1.8L99.9,25.6z M93.8,25.6l4.4,4.4l4.4-4.4l-2.7-2.7l3.2-3.4V1.4c0,0-1.3,2.7-3.4,4.1v0.1c0,0.4,0.3,0.6,0.6,0.7
	c0.3,0.1,0.6,0.4,0.6,1s0,10.9,0,10.9L98.2,21l-2.7-2.8c0-0.1,0-10.5,0-10.9c0-0.7,0.3-0.9,0.6-1c0.3-0.1,0.4-0.3,0.6-0.7V5.6
	c-2-1.4-3.4-4.1-3.4-4.1v18.4l3.2,3.3L93.8,25.6z M86.1,35.1l0.7,0.4c0.1,0.1,0.1,0.1,0.1,0.3v5.7H74.7L71.9,45v-9.2v-0.1l0.1-0.1
	l0.6-0.4v-0.6h-6.2v0.6l0.6,0.4l0.1,0.1v16.9v0.3L67,53l-0.6,0.4V54h6.2v-0.6L71.9,53L71.8,53v-7.7l0.7,0.1l0.8-0.4l0.4-0.1
	c0,0,0.1,0,0.3,0h12.8v6l4.6-5V36l0.1-0.1l0.7-0.3V35L86.1,35.1L86.1,35.1z M152.2,42c-0.7-2.3-2.4-4.1-4.9-5.5
	c-2.2-1.3-5.5-1.8-9.8-1.8h-16.7v0.6l0.7,0.4v2h15.9c3.2,0,5.6,0.4,7,1.3c2.2,1.3,3.4,3.1,3.4,5.2c0,1.1-0.3,2.1-0.8,3.1
	c-0.6,0.9-1.5,1.7-2.7,2.3c-1.5,0.9-3.9,1.3-7,1.3h-8.3V39h-4.5v13.5v0.1l-0.1,0.1l-0.6,0.3v0.6h13.6c2.7,0,4.6-0.1,6.2-0.4
	c2-0.4,3.8-1.1,5.2-2.1c1.5-1,2.7-2.3,3.2-3.5c0.4-1,0.7-2,0.7-3.1C152.4,43.6,152.2,42.7,152.2,42L152.2,42z M100.9,38.1L86,53.6
	h6.9v-0.7h-0.3h-0.3h-0.3l11.4-12L100.9,38.1z M115.9,53.1v0.7h6.7l-18-19.1l-2.7,2.8l3,3.1l3.1,3.1h-5.2l-2.8,3l0.6,0.4l0.7-0.4
	h0.1c0,0,0.3,0,0.4,0h8.7l6,6.5c0,0-0.1,0.1-0.6,0.1h-0.1v-0.2L115.9,53.1z M63.8,35.5l0.6-0.4v-0.6h-6v0.6l0.6,0.4l0.3,0.3v16.6
	v0.3l-0.1,0.1l-0.7,0.3v0.6h6v-0.6l-0.6-0.3l-0.1-0.1V35.8v-0.1V35.5z M33.6,50h-0.3h-0.7l-0.8,0.4c-0.1,0.1-0.3,0.1-0.4,0.1H17.8
	c-3.1,0-5.5-0.4-7-1.3c-2.4-1.3-3.5-3-3.5-5.4c0-1,0.3-2.1,1-3c1.1-1.7,2.8-3,5.3-3.4c0.7-0.1,1.3-0.1,1.7-0.1h7
	c0.4,0,0.4,0.1,0.4,0.1L22.5,38H23l3-3.7h-8.4c-2,0-3.5,0-4.5,0.1c-0.6,0-1.1,0.1-1.5,0.3c-1.4,0.3-2.7,0.9-3.9,1.6
	c-2.2,1.2-3.7,2.7-4.5,4.4c-0.4,1-0.7,2.1-0.7,3.4c0,3.1,1.7,5.5,4.9,7.4c1.4,0.9,3.1,1.4,4.9,1.7c1.4,0.3,3.2,0.3,5.5,0.3h12.7
	L33.6,50z M26.8,45.5l3-3.7H9.9l-2,3h17.9c0.3,0,0.4,0.1,0.4,0.1L26,45.5H26.8z M28.2,34.5L25.4,38l0.6,0.1h0.1l0.8-0.4
	c0.3-0.1,0.4-0.3,0.7-0.3h11v14.9v0.1l-0.1,0.1L38,52.9v0.6h6.2V53l-0.6-0.4l-0.1-0.1v-0.1V37.5h9.7c0.4,0,0.4,0.1,0.4,0.1v0.6h0.6
	l3-3.7L28.2,34.5z"/>
</svg>
