<svg xmlns="http://www.w3.org/2000/svg" version="1.0" viewBox="0 0 1024 512"><path fill="#fcfcfc" d="M1407.796 900.018v-256h1024v512h-1024v-256z"/><path fill="#0924a9" d="M399.463 1225.351c-1.35-1.35-.602-2.333 1.774-2.333 3.165 0 4.384-1.972 1.66-2.684-1.371-.359-2.1-1.353-2.1-2.865 0-1.45-1.164-3.144-3.114-4.532-8.298-5.909-7.621-20.375 1.175-25.092 4.101-2.2 5.94-2.271 10.404-.406 3.434 1.435 6.637 6.023 5.814 8.329-.846 2.37-5.985 1.423-8.138-1.5-1.676-2.276-2.337-2.56-3.833-1.641-2.598 1.593-2.646 14.145-.062 15.775 1.42.895 2.224.588 4.29-1.641 2.72-2.932 5.588-3.525 7.226-1.493 1.98 2.456-1.771 7.754-6.513 9.199-2.783.848-2.875 2.146-.25 3.55 2.648 1.418 2.54 4.509-.222 6.444-2.265 1.587-6.906 2.096-8.111.89zm401.047-1.952c-.392-.393-.714-2.938-.714-5.656 0-4.914-.016-4.937-2.75-4.162-6.355 1.802-12.072-.385-14.8-5.662-1.908-3.689-1.845-11.265.127-15.423 1.924-4.053 7.456-6.982 11.278-5.972 1.455.385 5.345.766 8.645.847l6 .147v36l-3.536.297c-1.944.164-3.857-.023-4.25-.416zm-2.936-15.938c1.82-1.275 2.222-2.514 2.222-6.845 0-6.28-2.312-9.238-6.415-8.209-4.456 1.119-5.589 10.496-1.795 14.86 1.873 2.157 3.128 2.197 5.988.194zm-766.896 6.054c-5.438-2.955-7.562-13.153-4.212-20.214 4.515-9.514 17.531-9.69 22.32-.302 4.1 8.034 2.477 10.019-8.19 10.019-6.844 0-7.8.22-7.8 1.8 0 .99.54 2.34 1.2 3 1.676 1.676 6.308 1.498 7.8-.3 1.612-1.942 7-2.005 7-.082 0 2.757-1.275 4.673-4.071 6.119-3.563 1.842-10.62 1.822-14.047-.04zm11.118-17.797c0-1.831-2.085-3.7-4.128-3.7-2.118 0-5.102 2.818-4.322 4.08.908 1.47 8.45 1.13 8.45-.38zm19.097 18.077c-4.503-2.392-6.6-6.422-6.56-12.604.046-6.925 2.471-11.475 7.353-13.791 2.825-1.34 4.068-1.438 6.615-.516 1.726.623 3.42 1.134 3.766 1.134.346 0 .764-2.541.93-5.647.336-6.342 1.853-8.058 6.166-6.976l2.677.672-.272 18.725-.272 18.726-6 .17c-3.3.095-7.35.445-9 .778-1.703.344-4.039.054-5.403-.67zm10.402-6.776c2.75-3.038 2.6-10.346-.27-13.216-2.128-2.129-2.443-2.176-5-.745-2.425 1.356-2.763 2.188-3.035 7.465-.245 4.736.047 6.198 1.44 7.217 2.494 1.823 4.78 1.583 6.865-.721zm22.531 6.777c-9.49-5.022-9.136-21.653.56-26.253 7.79-3.698 16.401.579 17.966 8.923 1.134 6.044.469 6.552-8.59 6.552h-8.099l.317 2.75c.246 2.143.91 2.818 3.009 3.06 1.48.172 3.817-.425 5.192-1.326 2.702-1.77 6.728-1.685 7.334.156.206.627-.695 2.384-2.003 3.904-1.935 2.25-3.385 2.836-7.796 3.152-3.27.234-6.4-.13-7.89-.918zm9.794-18.42c-.178-.904-1.111-2.14-2.074-2.746-2.08-1.31-5.064.16-5.573 2.745-.258 1.312.513 1.643 3.823 1.643s4.082-.331 3.824-1.643zm37.196 18.407c-3.206-1.686-5.194-5.598-4.455-8.765.958-4.104 4.349-6.837 10.07-8.118 3.963-.886 5.365-1.654 5.365-2.934 0-2.72-3.037-3.262-5.47-.976-1.187 1.115-3.381 2.028-4.876 2.028-6.82 0-2.323-7.698 5.077-8.69 5.628-.756 10.975 1.22 12.787 4.724 1.023 1.978 1.482 5.997 1.482 12.963v10.097l-5.25-.182c-2.887-.1-6.825.119-8.75.487-2.187.419-4.43.181-5.98-.634zm9.78-5.965c.66-.66 1.2-2.265 1.2-3.567 0-1.972-.44-2.313-2.649-2.05-3.05.365-4.954 2.804-4.041 5.181.735 1.915 3.77 2.156 5.49.436zm22.516 6.24c-3.38-1.434-4.316-4.234-4.316-12.905 0-7.53-.13-8.015-2.25-8.316-3.313-.47-3.628-4.535-.446-5.745 1.344-.51 2.72-2.032 3.059-3.382.557-2.22 2.997-3.64 6.324-3.678.653-.008 1.328 1.446 1.5 3.232.263 2.729.79 3.327 3.313 3.76 4.975.852 3.94 4.632-1.75 6.39-1.434.443-1.75 1.726-1.75 7.104 0 5.377.316 6.66 1.75 7.103 4.543 1.404 5.834 2.924 4.403 5.182-1.061 1.675-7.047 2.438-9.837 1.254zm35.05-.958c-1.722-1.051-3.86-2.95-4.75-4.219-2.042-2.916-2.138-11.953-.167-15.764 3.112-6.017 10.858-8.4 18.198-5.596 7.502 2.865 10.31 11.592 6.458 20.073-3.143 6.92-12.938 9.652-19.738 5.506zm10.7-5.117c2.587-1.385 2.785-11.368.28-14.136-3.962-4.378-8.886-.33-8.774 7.21.106 7.14 3.27 9.721 8.494 6.926zm114.395 4.755c-6.44-5.54-1.909-14.78 7.976-16.263 4.568-.685 5.613-2.007 3.363-4.257-1.614-1.614-2.112-1.531-4.8.8-2.456 2.13-6.473 2.66-7.505.991-2.092-3.384 3.976-7.991 10.523-7.991 3.717 0 8.569 2.358 9.876 4.801.524.98 1.1 6.487 1.28 12.24l.326 10.459-5.5.187c-3.025.102-7.115.48-9.089.84-2.939.536-4.106.209-6.45-1.807zm11.34-4.92c.66-.66 1.2-2.264 1.2-3.563 0-2.051-.418-2.322-3.15-2.05-3.885.386-5.81 2.953-3.92 5.23 1.56 1.88 4.2 2.053 5.87.383zm79.556 6.248c-2.828-1.194-5.357-4.91-5.357-7.87 0-3.878 5.832-8.88 11.31-9.702 4.862-.729 5.905-2.223 3.148-4.51-1.278-1.062-2.04-.912-4.46.877-4.799 3.548-8.886 2.532-7.491-1.863 2.007-6.324 17.038-6.436 20.401-.152.766 1.432 1.494 15.242 1.156 21.94-.044.872-1.706 1.231-5.314 1.15-2.887-.066-6.6.14-8.25.457-1.65.318-3.964.17-5.143-.327zm9.443-6.248c.66-.66 1.2-2.264 1.2-3.563 0-2.051-.417-2.322-3.149-2.05-3.885.386-5.81 2.953-3.92 5.23 1.56 1.88 4.2 2.053 5.87.383zm34.298 5.935c-3.073-1.58-4.587-4.018-3.788-6.1.786-2.048 5.03-2.135 6.69-.135.685.825 2.571 1.5 4.192 1.5 2.441 0 2.892-.366 2.628-2.132-.24-1.6-1.81-2.66-6.297-4.25-4.7-1.665-6.184-2.706-6.943-4.868-2.224-6.333 3.95-12.34 11.708-11.392 4.818.588 8.712 3.12 8.712 5.665 0 1.586-.68 1.977-3.44 1.977-1.893 0-3.72-.45-4.06-1-.34-.55-1.716-1-3.059-1-3.122 0-3.255 2.728-.19 3.912 9.114 3.521 10.672 4.487 11.856 7.345 1.03 2.488.995 3.476-.199 5.63-2.855 5.15-12.25 7.708-17.81 4.848zm28.999.057c-4.495-2.416-6.565-6.395-6.551-12.593.015-6.928 2.425-11.483 7.3-13.796 7.45-3.536 15.908.646 18.004 8.901 1.503 5.923.467 6.696-8.972 6.696-7.72 0-7.878.05-7.878 2.48 0 3.334 4.155 4.45 8.032 2.16 6.133-3.623 10.351-.568 5.674 4.11-3.058 3.056-11.635 4.179-15.61 2.042zm9.727-18.435c-.51-2.585-3.494-4.055-5.574-2.745-.962.606-1.895 1.842-2.073 2.745-.258 1.312.513 1.643 3.823 1.643s4.082-.331 3.824-1.643zm68.676 18.257c-1.65-.72-3.675-2.573-4.5-4.118-2.149-4.026-1.95-14.398.344-17.899 2.02-3.08 7.14-5.599 11.374-5.593 6.419.008 12.709 6.932 12.09 13.31l-.308 3.186-7.996.296c-4.398.163-8.378.678-8.843 1.143-.465.465-.339 1.794.282 2.954 1.342 2.507 6.178 2.872 8.057.607 1.392-1.677 6.551-2.036 7.487-.52.969 1.566-1.299 4.871-4.467 6.51-3.551 1.836-9.468 1.89-13.52.124zm10.324-18.257c-.178-.903-1.111-2.139-2.074-2.745-2.08-1.31-5.064.16-5.573 2.745-.258 1.312.513 1.643 3.823 1.643s4.082-.331 3.824-1.643zm39.383 18.134c-2.366-1.028-3.874-2.746-5.362-6.108-5.882-13.3 5.45-25.328 18.445-19.579 5.36 2.37 8.03 6.63 8.038 12.818.014 10.784-10.78 17.361-21.12 12.869zm10.627-5.79c1.692-2.04 2.432-8.924 1.281-11.923-1.361-3.549-5.465-4.676-8.155-2.242-2.691 2.436-2.843 12.85-.21 14.384 2.448 1.425 5.805 1.321 7.084-.22zm50.627 5.02c-6.445-5.545-1.909-14.782 7.988-16.266 5.292-.793 6.194-1.67 3.989-3.874-2.077-2.078-3.103-1.995-5.17.419-2.065 2.412-7.073 2.672-7.94.413-1.091-2.845 3.903-6.64 9.333-7.094 9.958-.831 13.525 4.116 13.107 18.18l-.268 9-5.5.17c-3.025.093-7.115.472-9.089.84-2.951.553-4.096.235-6.45-1.789zm12.102-6.177c2.01-3.066 1.168-4.544-2.587-4.544-3.525 0-5.829 3.267-3.923 5.564 1.808 2.178 4.713 1.723 6.51-1.02zm19.714 6.535c-4.004-2.506-4.436-4.213-4.07-16.08l.293-9.5 3.75-.31 3.75-.31.014 8.31c.019 11.581.459 12.81 4.584 12.81 3.995 0 4.281-.769 4.65-12.5l.252-8h8l.291 11c.408 15.425.35 15.575-6.064 15.36-2.875-.097-6.802.142-8.727.53-2.658.537-4.275.222-6.723-1.31zm33.029-.492c-2.592-2.23-2.832-3.054-3.15-10.804-.307-7.459-.584-8.495-2.5-9.337-2.911-1.278-2.847-4.848.094-5.266 1.386-.196 2.25-1.014 2.25-2.127 0-2.409 2.197-4.108 5.627-4.353 2.38-.17 2.884.246 3.34 2.755.383 2.106 1.256 3.125 3.035 3.545 3.731.881 3.536 5.38-.252 5.816-2.72.313-2.75.396-2.75 7.625v7.309l3 .6c5.704 1.14 2.905 6.65-3.378 6.65-1.38 0-3.773-1.086-5.316-2.413zm69.003 1.45c-4.425-1.876-5.404-4.982-5.095-16.167l.286-10.37h7l.286 9.734c.246 8.364.553 9.877 2.185 10.75 1.24.664 2.775.683 4.427.055 2.438-.927 2.54-1.315 2.816-10.75l.286-9.79h8v26l-5.5.165c-3.025.09-7.075.42-9 .734-1.925.312-4.486.15-5.691-.361zm33.08.037c-8.016-3.445-9.708-16.482-3.078-23.716 8.092-8.83 22.633-2.796 21.5 8.922l-.31 3.22-8.25.29c-7.098.25-8.25.537-8.25 2.05 0 3.956 4.736 5.43 8.44 2.628 1.068-.807 3.205-1.468 4.75-1.468 3.622 0 3.767 2.751.317 5.993-2.74 2.574-11.248 3.746-15.12 2.081zm9.611-19.055c0-2.453-4.358-3.797-6.513-2.008-2.793 2.318-1.74 3.989 2.513 3.989 3.32 0 4-.337 4-1.981zm-866.373 17.452c-1.208-3.15-.705-34.992.573-36.271.784-.784 4.906-1.2 11.878-1.2 8.522 0 10.943.32 11.992 1.584.952 1.146 1.025 2.043.267 3.25-.8 1.272-2.87 1.735-8.747 1.959l-7.7.293.305 4.207.305 4.207 6.898.5c7.576.55 10.183 2.39 7.672 5.416-.965 1.163-3.133 1.584-8.15 1.584H4.88l-.292 7.75-.292 7.75-3.623.303c-2.624.219-3.795-.148-4.25-1.332zm122.087.91c-.392-.393-.714-6.49-.714-13.548v-12.833h3.441c1.893 0 3.703.423 4.022.94.359.58 1.728.54 3.572-.102 3.646-1.27 5.965-.52 5.965 1.93 0 2.288-1.873 4.232-4.077 4.232-3.071 0-4.41 3.102-4.923 11.398l-.5 8.102-3.036.297c-1.67.164-3.357-.024-3.75-.416zm69.78-1.573c-.317-1.27-.445-7.258-.285-13.308l.291-11h8v26l-3.716.308c-3.175.264-3.8-.028-4.29-2zm48.22 1.573c-.392-.393-.714-6.507-.714-13.586v-12.871l5.75.118c3.163.065 7.365-.183 9.34-.552 7.15-1.337 10.853 4.969 10.871 18.51.01 8.02-.691 9.242-5.066 8.824l-3.395-.324-.5-10-.5-10-3.085-.301c-1.716-.168-3.583.3-4.208 1.052-.618.744-1.254 5.38-1.415 10.301l-.292 8.948-3.036.297c-1.67.164-3.357-.024-3.75-.416zm47 0c-1.29-1.291-.84-35.856.486-37.181 1.258-1.258 19.237-1.737 22.218-.593.87.334 1.582 1.636 1.582 2.893 0 2.907-1.632 3.5-9.64 3.5h-6.475l.308 4.25.307 4.25 7 .5c6.449.46 7.027.688 7.338 2.887.46 3.252-1.266 4.08-8.546 4.098l-6.208.015-.292 7.75-.292 7.75-3.536.297c-1.944.164-3.857-.023-4.25-.416zm27.721-.69c-.276-.719-.374-6.681-.218-13.25l.283-11.941h8.5c8.441 0 8.502.018 8.806 2.638.269 2.322-.21 2.8-4 4l-4.306 1.362-.254 7c-.391 10.77-.696 11.5-4.796 11.5-1.97 0-3.733-.574-4.015-1.308zm50.232.642c-.367-.366-.667-6.451-.667-13.522v-12.855l6.25-.03c3.438-.017 8.173-.097 10.522-.179 6.773-.235 8.355 2.064 8.981 13.052.703 12.32.14 14.2-4.253 14.2-4.106 0-4.377-.713-4.748-12.5l-.252-8h-7l-.252 8c-.368 11.701-.662 12.5-4.6 12.5-1.823 0-3.614-.3-3.981-.666zm88.793-.577c-.29-.755-.399-6.746-.243-13.314l.283-11.942h7v26l-3.257.314c-2.074.2-3.448-.185-3.783-1.058zm79.346.716c-.854-.853.176-4.156 6.79-21.772 3.138-8.36 6.2-15.53 6.805-15.935 1.476-.986 6.785-.934 8.387.082 1.24.787 13.212 34.177 13.212 36.847 0 .825-1.285 1.306-3.492 1.306-3.055 0-3.712-.47-5.254-3.75l-1.762-3.75-7.218-.293-7.217-.294-1.78 3.794c-1.41 3.007-2.409 3.855-4.814 4.09-1.67.164-3.315.017-3.657-.325zm21.646-15.395c.91-1.472-2.873-10.577-4.394-10.577-1.474 0-3.856 5.533-3.982 9.25-.066 1.966.422 2.25 3.865 2.25 2.168 0 4.198-.415 4.511-.923zm49.22 15.2c-.285-.46-.63-6.448-.767-13.306l-.25-12.471 8.257-.11c6.482-.088 8.381.21 8.832 1.385.792 2.064-1.025 4.662-3.523 5.035-3.49.521-4.638 3.08-5.19 11.558l-.53 8.132-3.157.306c-1.736.169-3.389-.07-3.673-.53zm52.042.104c-.392-.393-.714-6.548-.714-13.678v-12.963l4.75.547c2.613.3 6.55.086 8.75-.477 5.459-1.396 9.175.168 11.049 4.651 1.581 3.786 1.999 19.127.581 21.363-.505.796-2.193 1.195-4.235 1l-3.395-.324-.5-10-.5-10h-7l-.5 10-.5 10-3.536.297c-1.944.164-3.857-.023-4.25-.416zm114.745-.628c-.29-.753-.398-6.743-.242-13.311l.283-11.942h8v26l-3.758.31c-2.49.207-3.935-.15-4.283-1.057zm-732.02-30.853c-1.078-1.743 2.993-6.368 5.91-6.717 3.65-.435 3.455 1.963-.426 5.228-3.384 2.848-4.464 3.14-5.484 1.49zm62 0c-1.078-1.743 2.993-6.368 5.91-6.717 3.65-.435 3.455 1.963-.425 5.228-3.385 2.848-4.465 3.14-5.485 1.49zm482.057.093c-1.096-1.774 3.436-6.993 6.072-6.993 3.35 0 3.078 2.278-.644 5.411-3.337 2.808-4.467 3.137-5.428 1.582zm-391.186-1.629c-.957-2.494 1.085-4.864 4.19-4.864 3.105 0 5.148 2.37 4.19 4.864-.418 1.091-1.814 1.636-4.19 1.636-2.376 0-3.772-.545-4.19-1.636zm262.404 1.017c-.392-.393-.714-1.756-.714-3.029 0-1.67.739-2.5 2.655-2.98 3.41-.856 5.845.7 5.845 3.737 0 2.014-.557 2.438-3.536 2.688-1.944.164-3.857-.023-4.25-.416zm316.62-.956c-1.057-2.752 1.051-4.925 4.775-4.925 3.101 0 3.391.256 3.391 3 0 2.746-.318 3.026-3.758 3.31-2.804.233-3.923-.12-4.409-1.385zM459.796 469.974c0-.574.563-.97 1.25-.881 4.058.527 5.539-2.795 1.694-3.8-1.31-.343-1.85-1.077-1.487-2.023.358-.933-1.11-3.05-3.943-5.689-4.337-4.039-4.514-4.427-4.514-9.933 0-6.783 1.931-11.026 5.968-13.113 4.812-2.489 9.744-1.96 13.11 1.406 1.607 1.608 2.922 3.633 2.922 4.5 0 2.256-5.527 2.076-7.193-.234-2.205-3.057-3.635-3.36-5.77-1.226-2.885 2.885-2.893 12.18-.014 15.06 2.195 2.195 5.183 1.489 6.328-1.495.767-1.998 6.65-2.09 6.65-.105 0 2.22-4.97 7.577-7.03 7.577-2.912 0-3.57 2.19-1.141 3.803 2.4 1.594 2.814 4.153.97 5.997-1.473 1.473-7.8 1.6-7.8.156zm401.527-1.14c-.255-.723-.59-3.341-.745-5.816-.244-3.896-.55-4.447-2.282-4.107-5.876 1.155-10.452.5-12.957-1.853-5.125-4.814-5.657-15.47-1.04-20.838 2.379-2.766 1.985-2.702 13.997-2.282 1.1.038 3.575-.04 5.5-.175l3.5-.245v36l-2.755.317c-1.622.186-2.946-.225-3.218-1zm-2.083-16.039c2.482-3.544 2.02-10.404-.898-13.323-2.985-2.984-3.562-3.016-6.91-.382-2.18 1.715-2.636 2.886-2.636 6.778 0 5.914 2.122 9.15 6 9.15 1.85 0 3.446-.799 4.444-2.223zm-770.543 4.117c-2.614-2.799-2.9-3.78-2.9-9.929 0-6.373.221-7.058 3.367-10.394 2.974-3.153 3.944-3.571 8.278-3.571 2.83 0 5.853.66 7.137 1.56 2.936 2.057 5.217 6.6 5.217 10.39v3.05h-7.877c-8.82 0-11.133 1.243-9.163 4.924 1.535 2.868 5.507 3.655 8.512 1.686 2.76-1.807 7.528-2.165 7.528-.565 0 .575-1.104 2.15-2.454 3.5-2.074 2.074-3.409 2.455-8.6 2.455-5.583 0-6.408-.283-9.045-3.106zm13.194-14.509c1.15-1.384 1.008-1.883-.988-3.5-2.881-2.333-3.329-2.336-6.163-.04-3.192 2.584-1.995 5.155 2.402 5.155 1.918 0 3.995-.706 4.75-1.615zm16.964 14.958c-5.196-4.642-5.51-14.77-.649-20.843 2.215-2.766 2.898-3 8.746-3h6.344l.3-5.75.3-5.75h6.9v37.115l-5.25-.074c-2.887-.04-7.108.201-9.38.536-3.585.53-4.548.235-7.311-2.234zm12.487-3.798c4.908-4.908 2.482-15.545-3.546-15.545-3.878 0-6 3.235-6 9.15 0 3.892.456 5.063 2.635 6.777 3.35 2.635 3.926 2.603 6.91-.382zm21.204 5.375c-2.835-1.651-4.75-6.457-4.75-11.92 0-9.237 4.511-14 13.26-14 6.499 0 10.74 4.432 10.74 11.222v3.778h-8.031c-6.513 0-8.15.31-8.66 1.636-.713 1.859.524 4.229 3.027 5.797 1.28.802 2.462.633 4.764-.683 6.432-3.676 10.702-1.1 5.265 3.177-2.905 2.285-12.363 2.887-15.615.993zm10.668-15.527c2.245-.861 1.96-3.016-.64-4.836-2.871-2.011-3.367-1.968-5.845.51-1.643 1.643-1.823 2.36-.877 3.5 1.237 1.49 4.636 1.872 7.362.826zm35.621 14.418c-4.841-5.196-.76-13.13 7.384-14.352 5.87-.88 7.37-1.93 5.975-4.18-1.45-2.341-4.746-2.77-6.358-.827-1.429 1.721-6.58 2.102-7.535.556-.337-.545.516-2.12 1.896-3.5 2.129-2.128 3.43-2.508 8.6-2.508 5.133 0 6.476.386 8.545 2.454 2.263 2.264 2.454 3.2 2.454 12 0 5.25-.112 9.883-.25 10.296-.137.412-2.13.754-4.426.76-2.298.005-4.51.343-4.917.75-.407.407-2.673.74-5.034.74-3.13 0-4.848-.594-6.334-2.189zm12.387-3.729c4.148-4.584-.993-9.515-5.364-5.144-2.474 2.474-2.559 3.422-.49 5.49 2.08 2.081 3.746 1.983 5.854-.346zm20.763 4.217c-1.847-1.543-2.192-3.01-2.421-10.289-.257-8.163-.373-8.54-3.018-9.804-3.468-1.659-3.471-2.751-.012-4.41 1.506-.72 2.908-2.208 3.116-3.304.84-4.435 5.638-4.783 6.5-.471.473 2.36 1.264 3.153 3.625 3.625 3.879.775 4.336 4.354.556 4.354-3.02 0-4.54 2.584-4.521 7.684.023 6.337.96 8.36 4.168 9.002 2.265.453 2.854 1.06 2.62 2.7-.416 2.917-7.485 3.526-10.613.913zm34.346-1.403c-3.383-2.97-3.535-3.39-3.535-9.777 0-9.746 4.026-14.12 13-14.12 8.306 0 13 5.062 13 14.018 0 8.612-4.44 12.983-13.187 12.983-4.998 0-6.202-.403-9.278-3.104zm13.01-3.35c4.766-4.765 2.495-15.546-3.273-15.546-4.33 0-6.272 2.621-6.272 8.464 0 5.173 1.209 7.844 4 8.842 2.557.914 3.018.767 5.546-1.76zm113.579 4.356c-5.077-5.45-1.218-13.166 7.218-14.43 5.394-.81 7.545-2.7 5.658-4.972-.684-.825-2.034-1.5-3-1.5-.965 0-2.315.675-3 1.5-1.404 1.691-8 2.066-8 .454 0-.575 1.105-2.15 2.455-3.5 3.49-3.49 12.188-3.525 16.21-.066 2.654 2.283 2.794 2.857 3.171 13.058l.395 10.669-4.865-.065c-2.676-.036-6.948.204-9.492.533-3.968.513-4.929.274-6.75-1.68zm11.654-3.459c4.196-2.939 1.727-8.289-3.25-7.04-3.345.84-4.58 5.354-1.984 7.252 2.311 1.69 2.53 1.682 5.234-.212zm77.316 3.65c-2.289-2.288-2.754-6.991-1.013-10.243 1.222-2.285 6.652-4.85 10.265-4.85 3.312 0 5.329-2.483 3.654-4.5-.684-.825-2.329-1.5-3.654-1.5-1.325 0-2.668.675-2.984 1.5-.658 1.713-7.362 2.127-7.362.454 0-.575 1.105-2.15 2.455-3.5 3.42-3.42 12.251-3.534 15.898-.204 2.255 2.06 2.505 3.165 2.95 13.044l.486 10.794-4.644-.052c-2.555-.028-6.74.219-9.301.55-3.885.5-5.005.253-6.75-1.493zm11.906-4.093c2.379-2.379 2.544-4.304.513-5.99-1.993-1.653-6.18-.5-7.564 2.085-.881 1.647-.753 2.464.627 3.988 2.212 2.445 3.918 2.423 6.424-.083zm32.455 3.545c-1.35-1.35-2.455-2.925-2.455-3.5 0-1.547 5.202-1.207 7.441.487 2.434 1.84 4.974 1.878 6.454.095 1.988-2.396.096-4.49-5.728-6.336-6.768-2.145-9.141-5.524-7.19-10.236 1.43-3.45 4.768-5.055 10.515-5.055 4.788 0 10.467 3.639 9.11 5.836-1.036 1.676-4.648 1.432-6.733-.455-1.199-1.085-2.648-1.402-4.395-.964-4.3 1.08-2.607 3.718 4.029 6.279 3.298 1.272 6.56 3.072 7.247 4 2.228 3.005 1.49 6.924-1.827 9.715-4.345 3.656-12.877 3.726-16.468.134zm28.066.067c-4.455-4.456-4.525-16.17-.126-21.284 1.806-2.1 3.39-2.729 7.8-3.094 6.807-.565 9.963 1.203 12.22 6.846 3.03 7.571 2.724 7.92-6.946 7.92-6.976 0-8.646.298-9.16 1.636-.713 1.859.524 4.229 3.027 5.797 1.28.802 2.462.633 4.764-.683 3.185-1.82 8.9-2.39 8.9-.886 0 .475-1.186 2.05-2.636 3.5-2.3 2.3-3.454 2.636-9.046 2.636-5.423 0-6.776-.368-8.797-2.388zm11.897-14.22c2.245-.86 1.96-3.015-.64-4.835-2.871-2.011-3.367-1.968-5.845.51-1.643 1.643-1.823 2.36-.877 3.5 1.237 1.49 4.636 1.872 7.362.826zm66.888 14.194c-2.648-2.278-2.806-2.871-2.806-10.582 0-7.961.083-8.242 3.266-11.086 2.68-2.394 4.158-2.918 8.234-2.918 4.01 0 5.561.53 8.038 2.75 2.89 2.59 5.524 9.532 4.342 11.445-.274.443-4.045.805-8.38.805-8.378 0-9.561.626-8.579 4.542.8 3.188 4.782 4.21 8.051 2.068 3.08-2.018 7.528-2.126 7.528-.183 0 5.479-14.326 7.777-19.694 3.16zm12.79-15.2c1.148-1.385 1.007-1.884-.989-3.5-1.28-1.038-2.679-1.886-3.107-1.886-.428 0-1.826.848-3.107 1.885-1.996 1.617-2.137 2.116-.988 3.5.737.888 2.58 1.615 4.095 1.615 1.516 0 3.358-.727 4.095-1.615zm38.121 16.053c-5.257-3.682-6.763-12.489-3.297-19.282 2.248-4.405 5.513-6.157 11.48-6.157 12.319 0 18.015 14.785 9.121 23.679-3.008 3.008-3.875 3.32-9.198 3.32-3.708 0-6.7-.575-8.106-1.56zm11.783-4.44c1.509-1.508 2-3.332 2-7.427 0-4.672-.366-5.715-2.635-7.5-3.349-2.634-3.926-2.602-6.91.382-1.893 1.894-2.455 3.505-2.455 7.046 0 3.54.562 5.152 2.455 7.045 2.977 2.978 4.906 3.094 7.545.455zm50.143 3.455c-2.887-3.67-2.696-6.803.64-10.537 2.16-2.417 3.857-3.235 7.585-3.655 5.069-.571 6.706-2.263 4.622-4.775-1.586-1.91-4.399-1.904-5.99.013-.684.825-2.54 1.5-4.122 1.5-3.441 0-3.805-2.073-.878-5 2.283-2.283 10.207-2.774 14.343-.89 3.652 1.664 4.657 5.004 4.657 15.468v9.485l-4.75-.068c-2.612-.037-6.823.214-9.357.558-4.186.568-4.803.377-6.75-2.099zm11.692-3.05c3.087-2.163 2.663-6.763-.667-7.234-4.684-.664-8.218 5.536-4.418 7.75 2.316 1.349 2.44 1.336 5.085-.517zm19.8 3.523c-2.56-2.013-2.635-2.386-2.635-13v-10.927h7v9.3c0 9.87.727 11.7 4.644 11.7 3.858 0 5.356-3.557 5.356-12.723v-8.277h7v25.278l-4.972-.588c-2.757-.327-5.234-.166-5.559.36-1.088 1.76-8.091 1.035-10.834-1.123zm33.865.701c-1.66-1.212-2.085-2.965-2.5-10.294-.45-7.96-.723-8.932-2.75-9.821-1.237-.543-2.25-1.674-2.25-2.513 0-.84 1.013-1.97 2.25-2.513 1.238-.543 2.388-1.954 2.556-3.135.169-1.182 1.069-2.368 2-2.637a40.327 40.327 0 0 0 3.444-1.209c1.437-.591 1.75-.186 1.75 2.264 0 3.211 1.325 4.796 4.5 5.386 1.1.204 2 1.034 2 1.844s-.9 1.64-2 1.844c-3.695.686-4.5 2.22-4.5 8.578 0 6.433 1.068 8.578 4.27 8.578 1.367 0 1.783.605 1.55 2.25-.262 1.844-1.042 2.303-4.32 2.544-2.362.174-4.819-.303-6-1.166zm67.25-.594c-2.7-2.14-2.75-2.38-2.75-13.107v-10.927h6v8.928c0 9.724 1.07 12.072 5.5 12.072s5.5-2.348 5.5-12.072v-8.928h7v25h-3.353c-1.844 0-6.007.273-9.25.606-5.095.524-6.27.31-8.647-1.572zm33.36.57c-3.52-1.95-5.035-5.421-5.068-11.604-.048-9.217 4.407-13.9 13.285-13.965 4.028-.03 5.311.449 7.75 2.888 2.38 2.38 2.923 3.775 2.923 7.5v4.577h-7.377c-5.31 0-7.724.417-8.612 1.487-1.632 1.967-.65 4.264 2.42 5.663 1.999.911 2.98.811 4.993-.508 2.784-1.824 8.576-2.227 8.576-.597 0 .575-1.104 2.15-2.454 3.5-2.053 2.053-3.403 2.45-8.25 2.42-3.188-.02-6.871-.632-8.186-1.36zm11.56-16.187c.355-.924-.268-2.46-1.496-3.688-1.883-1.883-2.371-1.961-4.64-.748-2.404 1.288-3.317 3.902-1.867 5.352 1.368 1.368 7.392.678 8.004-.916zm-866.67-1.917v-18.5h24v2.5c0 2.438-.18 2.5-7.3 2.5-8.166 0-9.7.87-9.7 5.5 0 4.566 1.563 5.5 9.2 5.5 6.587 0 6.8.078 6.8 2.5 0 2.421-.213 2.5-6.8 2.5-3.955 0-7.302.502-8 1.2-.698.698-1.2 4.044-1.2 8v6.8h-7v-18.5zm122 5.5v-13h2.441c1.343 0 2.747.495 3.121 1.1.655 1.06 4.025.78 7.688-.637 1.437-.556 1.75-.12 1.75 2.43 0 2.38-.442 3.107-1.889 3.107-1.04 0-2.91.826-4.156 1.835-1.93 1.564-2.336 3.045-2.74 10l-.472 8.165h-5.743v-13zm70.22.25.28-12.75h6l.28 12.75.28 12.75h-7.12l.28-12.75zm47 .012c.254-11.553.455-12.771 2.162-13.098 1.034-.199 2.89.179 4.125.84 1.66.888 2.779.913 4.302.098 2.552-1.365 7.714-1.428 10.152-.123 2.802 1.5 4.04 6.45 4.04 16.17v8.85h-7v-8.928c0-9.73-1.07-12.071-5.515-12.071-3.99 0-5.486 3.467-5.486 12.722v8.278h-7.06l.28-12.738zm47.78-5.762v-18.5h23v2.5c0 2.421-.213 2.5-6.8 2.5-7.637 0-9.2.934-9.2 5.5 0 4.494 1.59 5.5 8.7 5.5 6.054 0 6.3.098 6.3 2.5s-.246 2.5-6.3 2.5c-3.566 0-6.82.52-7.5 1.2-.698.698-1.2 4.044-1.2 8v6.8h-7v-18.5zm28.22 5.762c.254-11.553.455-12.771 2.162-13.098 1.034-.199 2.852.158 4.038.793 1.556.833 2.93.86 4.934.099 4.12-1.567 4.646-1.347 4.646 1.944 0 2.26-.46 3-1.865 3-1.026 0-3.05.933-4.5 2.072-2.45 1.928-2.635 2.627-2.635 10v7.928h-7.06l.28-12.738zm49.78-.262c0-12.229.116-13 1.953-13 1.074 0 3.111.528 4.527 1.173 1.97.897 2.85.897 3.747 0 .645-.645 3.038-1.173 5.318-1.173 6.737 0 7.89 2.098 8.294 15.102l.338 10.898h-7.177v-8.929c0-9.383-1.094-12.071-4.916-12.071-3.779 0-5.084 3.165-5.084 12.329v8.67h-7v-13zm89.22.25.28-12.75h5l.28 12.75.28 12.75h-6.12l.28-12.75zm78.78 11.753c0-.549 2.27-7.186 5.043-14.75 8.508-23.206 7.02-20.753 12.596-20.753h4.861l5.638 16.5c3.101 9.075 5.962 17.287 6.357 18.25.605 1.472.159 1.75-2.805 1.75-3.08 0-3.756-.473-5.357-3.75-1.746-3.573-2.09-3.765-7.28-4.06-7.624-.432-9.412.243-11.337 4.279-1.377 2.889-2.232 3.53-4.7 3.53-1.658 0-3.016-.448-3.016-.996zm21.668-13.58c.333-.867-.23-4.03-1.25-7.031-2.382-7.009-4.269-6.762-6.911.905-1.745 5.063-1.808 5.902-.5 6.728 2.448 1.548 7.984 1.164 8.661-.602zm49.138 5.14c-.107-5.26-.22-11.026-.25-12.813-.053-3.106.1-3.239 3.444-2.99 4.658.346 7.091.35 9.5.017 1.524-.211 2.076.378 2.317 2.473.25 2.17-.096 2.75-1.64 2.75-1.075 0-2.896.787-4.047 1.75-1.75 1.464-2.136 3.055-2.36 9.75l-.27 8-3.25.313-3.25.314-.194-9.564zm52.414-3.313.28-12.75 3 .262c3.98.348 5.11.311 11.022-.357 7.736-.874 8.89.946 9.317 14.697l.338 10.898h-7.177v-8.929c0-9.436-1.091-12.071-5-12.071-3.908 0-5 2.635-5 12.071v8.929h-7.06l.28-12.75zm115 0 .28-12.75h6l.28 12.75.28 12.75h-7.12l.28-12.75zm-732.22-19.316c0-2.84 2.216-4.934 5.222-4.934h3.152l-2.874 3c-2.882 3.008-5.5 3.929-5.5 1.934zm62 .613c0-.25.522-1.6 1.16-3 .872-1.913 1.915-2.547 4.188-2.547h3.026l-2.874 3c-2.474 2.582-5.5 3.984-5.5 2.547zm91.713-.168c-.392-.392-.713-1.762-.713-3.046 0-2.008.497-2.333 3.567-2.333 3.3 0 3.543.205 3.25 2.75-.241 2.095-.92 2.82-2.854 3.046-1.396.163-2.858-.025-3.25-.417zm262 0c-.392-.392-.713-1.762-.713-3.046 0-2.008.497-2.333 3.567-2.333 3.3 0 3.542.205 3.25 2.75-.241 2.095-.92 2.82-2.854 3.046-1.396.163-2.858-.025-3.25-.417zm128.287-.157c0-2.165 3.362-5.222 5.744-5.222h2.63l-2.874 3c-2.705 2.824-5.5 3.953-5.5 2.222zm188.713.157c-.392-.392-.713-1.762-.713-3.046 0-2.008.497-2.333 3.567-2.333 3.3 0 3.543.205 3.25 2.75-.241 2.095-.92 2.82-2.854 3.046-1.396.163-2.858-.025-3.25-.417zM25.944 363.878c-11.775-5.022-14.567-7.524-13.63-12.21.396-1.982 6.541-14.574 13.655-27.982 15.86-29.893 21.764-41.425 21.77-42.52.002-.462-2.702-4.323-6.01-8.582-3.306-4.26-5.852-8.142-5.656-8.628.884-2.196 18.345-16.402 24.593-20.01 9.297-5.367 15.98-13.276 22.73-26.896 5.59-11.283 6.777-15.573 4.307-15.573-.716 0-9.658 3.867-19.871 8.594-32.217 14.91-34.079 15.319-41.482 9.09-5.06-4.259-11.883-13.35-11.883-15.836 0-.96 2.546-2.422 5.657-3.248 3.111-.826 22.128-9.838 42.26-20.026 27.95-14.146 37.098-19.388 38.698-22.175 1.266-2.205 6.08-5.744 12.162-8.938 10.012-5.258 10.098-5.35 15.676-16.638 9.745-19.723 18.616-33.497 21.1-32.761 1.214.36 4.005 1.066 6.201 1.57 5.126 1.179 13.487 5.37 18.837 9.443l4.195 3.193 43.722-16.537c54.949-20.783 74.842-27.584 81.455-27.848 4.514-.18 6.45.803 14.355 7.289 5.026 4.124 11.235 9.68 13.797 12.349 4.467 4.652 4.555 4.928 2.129 6.716-1.391 1.025-15.467 6.098-31.28 11.272-57.802 18.916-93.773 32.475-123.116 46.406-27.22 12.923-31.107 16.47-38.497 35.121-4.123 10.406-4.288 11.633-1.56 11.633 1.104 0 12.837-3.68 26.075-8.176 28.013-9.515 25.814-9.73 42.109 4.093 14.43 12.241 14.477 12.574 2.546 18.012-5.46 2.488-23.311 9.715-39.668 16.06-40.553 15.73-68.547 29.39-74.509 36.355-5.835 6.817-16.713 25.214-37.11 62.765-15.653 28.814-21.685 38.64-23.672 38.564-.512-.02-5.05-1.793-10.085-3.94zm225.446 3.032c-9.007-3.317-21.297-10.368-21.297-12.218 0-2.746 15.668-34.762 26.438-54.023 4.643-8.306 8.169-16.238 8.169-18.382 0-2.366-1.99-6.342-5.344-10.678l-5.344-6.909 5.677-5.152c3.122-2.834 11.366-9.225 18.321-14.202 13.702-9.806 15.442-11.92 24.555-29.81 5.483-10.764 7.126-15.39 5.466-15.39-.327 0-11.653 5.09-25.17 11.313-30.945 14.245-31.757 14.308-42.482 3.28-4.297-4.42-7.573-8.762-7.279-9.65.294-.889 1.984-2.318 3.755-3.176 1.771-.859 14.002-6.732 27.18-13.053 33.292-15.97 53.378-27.044 54.79-30.206.658-1.475 5.667-5.196 11.13-8.268 9.473-5.327 10.253-6.14 16.793-17.512 17.534-30.487 18.457-31.892 21.219-32.286 4.195-.6 17.215 4.721 23.74 9.702l5.793 4.422 43.077-16.54c23.692-9.096 52.481-19.616 63.976-23.377l20.9-6.838 7.051 5.464c3.879 3.005 10.646 8.785 15.039 12.844 7.582 7.007 7.858 7.48 5.467 9.338-1.385 1.077-21.75 8.344-45.254 16.15-58.343 19.374-88.112 30.919-117.144 45.43-19.872 9.934-21.272 11.178-27.92 24.8-8.318 17.048-8.56 18.169-3.912 18.136 2.063-.014 8.841-1.872 15.064-4.129 18.44-6.688 31.047-10.485 34.807-10.486 5.977 0 30.574 20.468 28.544 23.753-1.21 1.958-12.767 7.103-39.393 17.538-51.011 19.99-70.539 29.145-81.071 38.008-5.012 4.217-14.241 19.081-31.343 50.476-31.437 57.715-28.712 53.577-33.998 51.63zm135.764-.013c0-1.368 17.672-30.971 33.082-55.418 9.815-15.57 13.973-23.46 12.921-24.512-.423-.423-10.885 2.33-23.248 6.118-12.364 3.788-23.775 6.887-25.358 6.887-2.806 0-2.775-.19 1.237-7.653 2.262-4.21 6.186-10.485 8.72-13.945l4.606-6.291 30.022-9.681 30.022-9.681 40.75-58.565c52.766-75.832 63.102-88.2 93.982-112.472 20.682-16.256 28.506-21.296 33.058-21.296 3.377 0 4.305.84 6.563 5.944 3.314 7.494 4.435 16.757 9.163 75.746 2.105 26.262 4.322 48.237 4.927 48.833 1.285 1.266 25.9-4.912 100.26-25.166 63.887-17.4 91.634-24.456 93.604-23.799.793.264-7.515 3.525-18.462 7.245-30.857 10.488-101.36 35.687-125.787 44.96-24.937 9.467-46.247 19.71-47.433 22.8-1.1 2.868 1.878 18.966 5.88 31.777 2.593 8.304 4.463 11.734 8.49 15.58l5.164 4.93-12.435 9.225c-18.14 13.456-23.188 16.585-25.392 15.74-5.02-1.927-10.747-20.458-14.702-47.57-1.235-8.472-2.703-16.142-3.26-17.045-.768-1.24-4.723-.445-16.197 3.255-21.206 6.838-102.92 36.047-107.565 38.449-5.122 2.649-7.28 5.55-39.305 52.831-31.275 46.173-26.345 41.875-49.662 43.301-8.958.548-13.645.368-13.645-.527zm173.57-145.413c26.99-8.762 49.399-16.258 49.799-16.658 1.465-1.466-4.29-91.449-6.625-103.56-1.727-8.965-4.647-11.58-8.836-7.916-3.447 3.015-18.269 25.33-32.92 49.562-39.478 65.296-53.706 89.243-54.49 91.711-.679 2.142-.317 2.791 1.558 2.791 1.344 0 24.526-7.169 51.515-15.93z"/><path fill="#ff2239" d="M983.247 154.558c-4.212-8.968-9.62-21.22-12.018-27.228-2.397-6.007-5.148-11.578-6.113-12.379-2.442-2.027-48.572 9.619-48.572 12.262 0 .226 1.479 5.786 3.286 12.355 1.808 6.57 2.856 12.326 2.33 12.791-.527.466-3.828 1.797-7.336 2.959-6.27 2.076-6.398 2.062-7.515-.822-.624-1.613-3.344-7.936-6.045-14.051-6.481-14.678-14.51-39.546-13.564-42.012.413-1.077 3.205-2.693 6.203-3.592 6.69-2.004 7.716-1.166 12.416 10.136 1.827 4.393 4.226 8.17 5.33 8.395 2.08.423 8.594-2.765 30.184-14.773 11.691-6.502 12.633-7.33 12.491-10.975-.084-2.169-4.151-15.278-9.037-29.132-4.886-13.855-8.71-26.078-8.498-27.164.218-1.114 4.313-3.299 9.392-5.012l9.006-3.036 2.092 3.192c1.15 1.757 6.878 13.55 12.727 26.208 5.849 12.658 11.183 23.58 11.855 24.272.764.788 6.801.368 16.154-1.124l14.934-2.38 2.376 2.934c5.079 6.272 1.941 10.869-14.068 20.61-4.812 2.927-8.771 6.173-8.797 7.212-.026 1.038 3.506 12.197 7.85 24.798 4.343 12.6 8.444 25.92 9.113 29.602l1.216 6.693-8.818 2.783c-4.85 1.53-9.29 2.783-9.866 2.783-.576 0-4.495-7.337-8.708-16.305z"/></svg>
