<?xml version="1.0" encoding="utf-8"?>
<!-- Generator: Adobe Illustrator 26.1.0, SVG Export Plug-In . SVG Version: 6.00 Build 0)  -->
<svg version="1.1" id="Layer_1" xmlns="http://www.w3.org/2000/svg" xmlns:xlink="http://www.w3.org/1999/xlink" x="0px" y="0px"
	 width="790px" height="330px" viewBox="0 0 790 330" enable-background="new 0 0 790 330" xml:space="preserve">
<path fill="#9CA3AF" d="M77,5L77,5C47.4,5,36.6,25.2,33.9,35.2c-5.4,18.8-5.3,25-9.3,28.4C14.5,72.3,5,75,5,86.4
	c0,16.8,25.5,10.8,25.5,43.1V221c0,17.5,8.2,23.5,26.4,23.5c17.5,0,24.9-8,24.9-23.5v-94.9c0-9.4,3.4-16.7,8.1-20.1
	c5.4-4,22.3-8.1,22.3-20.2c0-5.4-3.4-11.5-10.8-14.9c-10.1-4.7-12.2-7.3-12.2-12.7c0-4.7,3.4-8.1,14.2-14.2
	c11.5-6.1,10-14.1,10-21.5c0-9.4-10-17.6-23.5-17.6L77,5z M149.8,5.9L149.8,5.9c-12.1,0-20.1,9.5-20.1,21.6V220
	c0,17.5,7.4,25,27.6,25c16.8,0,25-7.5,25-21.6V30.9c0-16.8-7.5-25-21.6-25H149.8z M381.8,14.7c-11.5,0-16.8,8.8-16.8,20.9v182.3
	c0,21.5,5.3,27,22.8,27c15.5,0,14.1-4.7,30.3-4.7c16.2,0,17.6,8.8,42.6,8.8c41.8,0,74.1-31,74.1-94.2c0-54.5-30.4-84.1-72.2-84.1
	c-18.9,0-28.3,7.4-39.1,7.4c-9.4,0-14.1-10.8-14.1-20.2V35.6c0-14.1-7.5-20.9-16.9-20.9L381.8,14.7z M635.1,65
	c-43.8,0-85.6,26.1-85.6,94.8c0,57.2,37.1,87.5,86.2,87.5c50.5,0,74.7-30.3,74.7-41c0-8.1-12.1-17.4-22.8-17.4
	c-17.5,0-22.3,23.5-51.2,23.5c-17.5,0-35-16.1-35-30.9c0-11.4,8-17.6,23.5-17.6h70.1c16.2,0,22.8-4,22.8-19.4
	C718,130.9,708.5,65,635.1,65L635.1,65z M212.7,70.9c-9.4,0-20.2,3.5-12.2,30.4c2,7.4,44.5,132.5,44.5,143.9
	c0,9.4-6.7,18.2-19.5,20.9c-12.1,2.7-19.6,8-19.6,18.8c0,11.4,7.5,18.2,18.2,18.2H241c19.5,0,41.1-6.1,54.6-47.8l53.3-161.5
	c0.7-2.7,1.3-6.1,1.3-10.8c0-6.7-6.8-12.1-14.9-12.1h-11.5c-12.8,0-20.8,6.1-23.5,17.6l-14.2,65.2c-2,10.1-6.1,20.9-12.8,20.9
	c-5.4,0-10-3.4-13.4-20.3l-13.5-61.8c-3.4-14.1-10-21.6-21.5-21.6L212.7,70.9z M635.1,99.9c16.2,0,30.4,12,30.4,22.8
	c0,9.4-11.6,14.2-33.8,14.2c-18.2,0-27.6-5.4-27.6-15.5C604.2,109.3,621.6,99.9,635.1,99.9L635.1,99.9z M450.6,102.2
	c26.9,0,39.1,26.3,39.1,60.6c0,36.3-18.9,53.7-40.4,53.7c-22.9,0-39.1-19.4-39.1-58.5C410.2,119.1,429.7,102.2,450.6,102.2
	L450.6,102.2z M753.1,185.4c-22.9,0-29.6,8.7-29.6,31.6c0,14.8,2.7,30.2,30.3,30.2c19.5,0,29.7-6.7,29.7-31.6
	C783.5,199.5,780.7,185.4,753.1,185.4L753.1,185.4z M390.3,262.9c-22.9,0-29.7,8.8-29.7,31.7c0,14.8,2.7,30.4,30.4,30.4
	c19.6,0,29.6-6.8,29.6-31.7C420.6,277.1,418,262.9,390.3,262.9L390.3,262.9z M463.2,262.9c-23,0-29.7,8.8-29.7,31.7
	c0,14.8,2.7,30.4,30.4,30.4c19.6,0,29.6-6.8,29.6-31.7C493.5,277.1,490.9,262.9,463.2,262.9z M537.1,262.9
	c-22.9,0-29.6,8.8-29.6,31.7c0,14.8,2.6,30.4,30.3,30.4c19.6,0,29.7-6.8,29.7-31.7C567.5,277.1,564.8,262.9,537.1,262.9L537.1,262.9
	z M610,262.9c-23,0-29.7,8.8-29.7,31.7c0,14.8,2.7,30.4,30.4,30.4c19.6,0,29.7-6.8,29.7-31.7C640.4,277.1,637.7,262.9,610,262.9
	L610,262.9z M682.8,262.9c-22.9,0-29.7,8.8-29.7,31.7c0,14.8,2.7,30.4,30.4,30.4c19.6,0,29.7-6.8,29.7-31.7
	C713.2,277.1,710.5,262.9,682.8,262.9z M754.6,262.9c-22.9,0-29.7,8.8-29.7,31.7c0,14.8,2.7,30.4,30.4,30.4
	c19.6,0,29.7-6.8,29.7-31.7C785,277.1,782.3,262.9,754.6,262.9z"/>
</svg>
