<?xml version="1.0" encoding="utf-8"?>
<!-- Generator: Adobe Illustrator 26.1.0, SVG Export Plug-In . SVG Version: 6.00 Build 0)  -->
<svg version="1.1" id="Layer_1" xmlns="http://www.w3.org/2000/svg" xmlns:xlink="http://www.w3.org/1999/xlink" x="0px" y="0px"
	 width="600px" height="130px" viewBox="0 0 600 130" enable-background="new 0 0 600 130" xml:space="preserve">
<path fill-rule="evenodd" clip-rule="evenodd" fill="#9CA3AF" d="M149.3,30.6v53.7c0,4.9-2.1,12.3-21.9,12.3c-19.8,0-22-7.4-22-12.3
	V30.6H94.1V85c0,13.3,10.9,19.1,31.2,19.1c10.4,0,18-1.8,23.8-3.4V125h11.1l-0.1-94.4L149.3,30.6z M47.3,5
	C35.4,5,17.8,7.5,17.8,19.7v11H5v6.3h12.8v65.5h10.8V36.9h16.9l0-6.3h-17V21c0-9.4,10.8-10.9,18.7-10.9c13,0,19.4,1,19.4,15.3
	l0,76.9h10.8V6.7H66.7C60.7,6.7,57.8,5,47.3,5z M583.2,37.5c-6.5,0-11.8,5.3-11.8,11.9c0,6.6,5.3,11.9,11.8,11.9
	c6.6,0,11.8-5.3,11.8-11.9C595,42.8,589.7,37.5,583.2,37.5z"/>
<path fill-rule="evenodd" clip-rule="evenodd" fill="#9CA3AF" d="M497.3,46.9c8.4-1,15.9-1.4,20.6-1.4c-2.6-10.1-14.5-14-34.1-14
	c-16.9,0-32,5.9-32,5.9v14c0,0,10.5-8.5,32.3-8.5C491.2,42.8,495.2,44.1,497.3,46.9L497.3,46.9z M236.2,82.1c-0.6,7.8-8.9,12-17,12
	c-17.5,0-19.9-7.7-19.9-25.2c0-17.5,3.4-25.1,19.1-25.1c10.1,0,17.2,4.2,17.8,11.9c0.5,6.3,0.7,9.5,0.7,13.2
	C236.9,72.6,236.6,76.2,236.2,82.1z M236.9,35.7c-7.2-2.8-12.7-4.3-21.6-4.3c-27.3,0-35.6,10.4-35.6,37.6
	c0,27.1,12.2,37.6,39.5,37.6c16.6,0,28.7-6.3,37.3-6.3V9.2h-19.6L236.9,35.7z M554.3,33l-19.6,0v11.8h19.6V33z M499.5,82
	c0,10.2-9.5,12.8-16,12.8c-11.1,0-16.8-3.4-16.8-10.6c0-12.2,15.6-18.5,32.8-19.6V82z M558.5,51.9l-5.7,0c-79.3,0-105,14.8-105,31.8
	c0,15.8,13.4,22.7,35.2,22.7c14,0,28.3-6.1,35.7-6.1V62c9.3-1.2,16.2-1.4,16.2-1.4v44.2h19.5V71.6C554.4,59.7,558.5,51.9,558.5,51.9
	L558.5,51.9z M398,94.1c-8.1,0-16.4-4.2-17-12c-0.5-5.9-0.7-9.5-0.7-13.2c0-3.7,0.2-6.9,0.7-13.2c0.6-7.8,7.7-11.9,17.9-11.9
	c15.6,0,19.1,7.6,19.1,25.1C418,86.5,415.5,94.1,398,94.1z M401.9,31.4c-8.9,0-14.4,1.5-21.6,4.3V9.2h-19.6v91.1
	c8.6,0,20.7,6.3,37.3,6.3c27.3,0,39.5-10.5,39.5-37.6C437.5,41.7,429.2,31.4,401.9,31.4L401.9,31.4z M325.1,82.6
	c0,4.9-1.6,12.3-16.3,12.3s-16.2-7.4-16.2-12.3V33.1H273v54.3c0,13.3,13.6,19.1,33.9,19.1c18,0,29.6-5.5,35.3-6.2l2.4-0.3v-67h-19.5
	L325.1,82.6z"/>
</svg>
