<?xml version="1.0" encoding="utf-8"?>
<!-- Generator: Adobe Illustrator 26.1.0, SVG Export Plug-In . SVG Version: 6.00 Build 0)  -->
<svg version="1.1"
	 id="svg9594" shape-rendering="geometricPrecision" image-rendering="optimizeQuality" text-rendering="geometricPrecision"
	 xmlns="http://www.w3.org/2000/svg" xmlns:xlink="http://www.w3.org/1999/xlink" x="0px" y="0px" width="770px" height="150px"
	 viewBox="0 0 770 150" enable-background="new 0 0 770 150" xml:space="preserve">
<path id="path6658" fill="#9CA3AF" d="M639.8,63.2c-15.3-8-27.9-8.6-33.8-8.6h-20.6l-1.1-1.9h24.2c1.7,0,21.8-0.3,33.6,2.9
	c14.8,4,25,11.7,27,13c2,1.3,29,20.6,29,20.6s-4.5,4.6-9,4.6c-4.2,0-8.7-3.2-8.7-3.2s-14.4-10.4-16.6-12
	C661.5,77.2,650.1,68.7,639.8,63.2L639.8,63.2z"/>
<path id="path6662" fill="#9CA3AF" d="M638.7,78.5c10.2,6.8,16.2,11.7,18.2,13.1c1.9,1.4,11,7.9,11,7.9s4.2,3.3,9.3,3.3
	c3.9,0,8.6-4.5,8.6-4.5S664.2,83,662.2,81.6c-2-1.4-8.9-6.9-21.9-10.3c-10.8-2.9-26.2-2.8-27.2-2.8h-19.7l1.2,2c0,0,14.9,0,16,0
	C612.9,70.6,628,71.3,638.7,78.5L638.7,78.5z"/>
<path id="path6666" fill="#9CA3AF" d="M642,47.3c13.1,7.1,26.1,16.8,28.5,18.6c2.4,1.8,22.2,15.9,22.2,15.9s4.6,3.1,8.8,3.1
	c4.1,0,8.8-4.6,8.8-4.6S678.9,57.6,676,55.6c-2.8-2-14.2-11.3-32.4-15.6c-14.3-3.6-38.1-3.2-39.7-3.2h-28.8l1.2,2h25.2
	C606.6,38.8,626.7,39.1,642,47.3L642,47.3z"/>
<path id="path6670" fill="#9CA3AF" d="M756.2,47c-3.9-0.7-9-1-9-1l-7,2l-4-3.3c0,0,8.3,0.7,10.6,1c2,0,1.3-1,0.3-3c-1-2-3.3-2-3.3-2
	H723c0,0-3.7,0-8-1c-4.3-1-6-4.2-6-4.2c-1.7,3.9,5,8.3,5,8.3l20.7,14.9c2.7,1.7,5,0.3,5,0.3s5.3-2.7,8.3-3.3c2.7-0.7,11-1,12-0.7
	c2.3,0.3,5,2.7,5,2.7C766.1,48.3,760.1,47.7,756.2,47L756.2,47z"/>
<path id="path6674" fill="#9CA3AF" d="M646.1,16.2c14.4,6.3,35.1,21.8,38.1,24c3,2.2,32.8,23.5,32.8,23.5s4.7,3.3,9,3.3
	c4.3,0,8.6-4.4,8.6-4.4s-42-30.2-45.1-32.4c-3-2.2-17-13.9-42.9-20.8C628.9,4.8,598.4,5,594.8,5h-38.1l1.2,2h34.9
	C601.7,7,627.1,7.8,646.1,16.2L646.1,16.2z"/>
<path id="path6678" fill="#9CA3AF" d="M643.9,31.7c-15.6-7.8-34.8-8.8-46-8.8h-30.8l-1.2-2h33.5c3.6,0,29-0.3,45.7,3.5
	c19.3,4.4,36,17.1,37.7,18.3c1.7,1.2,39.8,28.5,39.8,28.5s-4.4,4.5-9,4.5c-4.3,0-9-3.3-9-3.3s-24.8-17.8-27.3-19.5
	C675.1,51.2,658.5,38.9,643.9,31.7L643.9,31.7z"/>
<path id="path6682" fill="#9CA3AF" d="M85,120.2c0,0-2.3-0.5-5.2-0.5c-6.3,0-11,2.8-12.2,7c-0.3,0.8-0.4,2.5-0.4,3.4
	c0,5.3,3.7,8.3,8.3,8.3c0.9,0,2.3-0.2,3.5-0.7c3.3-1.2,5.9-3.4,5.9-6.8V120.2z M89.3,144c-0.4,0-2.3,0.1-3-0.8
	c-0.7-0.7-0.7-1.7-0.7-2.5V138c-2.8,4.1-7.4,6.8-14.4,6.7c-11-0.3-13.4-8.9-13.4-13.7c0-1.7,0.2-4.9,2.6-8.3
	c3.9-5.5,11.9-7.2,19.1-7.2c3.1,0,5.4,0.4,5.4,0.4v-4.8c0-1.7,0-4.6-1.7-6.7c-1.5-1.7-4.2-3-9-3c-7.5,0-12.4,4.2-12.4,4.2l0.9-5.7
	c0,0,5.1-3.4,13.2-3.4c6.8,0,11.5,1.9,14.2,4.6c3.2,3.3,4,6.3,4,12.4V144H89.3z"/>
<path id="path6686" fill="#9CA3AF" d="M119.5,103c-7.9,1.5-8.7,7.7-8.7,12.1V144h-9.2v-41.4c0-4-2.6-4.8-2.6-4.8h9.1
	c2,0,2.7,1.1,2.7,2.4v2.5c0.3-0.8,3.6-5.2,9.7-5.5c2-0.1,4.3,0.1,5.5,0.8l1.2,5.8C125.8,103.2,123.3,102.2,119.5,103L119.5,103z"/>
<path id="path6690" fill="#9CA3AF" d="M163.8,144c-0.3,0-2.2,0.1-3.1-0.8c-0.7-0.7-0.7-1.9-0.7-2.5V138c-2.5,4.1-7,6.6-13.1,6.6
	c-4.8,0-8.1-1.1-11-4.2c-3-3.4-3.8-7.5-3.8-13.2V102c0-3.3-2.8-4.1-2.8-4.1h8.6c2.1,0,3.4,1.1,3.4,2.7v27.8c0,8.2,2.4,10.6,8.2,10.6
	c4.7,0,9.9-3.2,9.9-8.1V97.9h9.1V144L163.8,144L163.8,144z"/>
<path id="path6694" fill="#9CA3AF" d="M290.1,144c-1.9,0-3.1-0.8-3.1-3.1V86.4c0-3.4-2.6-4.7-2.6-4.7h8.9c2.6,0,3.8,1.3,3.8,3.2V144
	L290.1,144L290.1,144z"/>
<path id="path6698" fill="#9CA3AF" d="M415.8,101.7c-9.3-0.1-10.9,9.5-10.9,19.7c0,12.7,3.2,18.8,10.9,18.8c6.8,0,10-7.9,10-18.8
	C425.8,112.5,425,101.8,415.8,101.7 M415.6,144.7c-15.1-0.1-20.5-9.4-20.5-23.5c0-12.8,5.4-24.4,20.5-24.3
	c15.3,0.1,19.9,11.6,19.9,24.3C435.6,134.1,428.2,144.8,415.6,144.7z"/>
<path id="path6702" fill="#9CA3AF" d="M553.5,140.6c-3.3,2.8-7.6,4.1-12.4,4.2h-0.5c-7.2,0-11.2-1.9-12.9-2.9l-1.3-5.5
	c0,0,6.3,4.1,12.9,4.1c6.3,0,10-3.4,9.5-9c-0.7-9-21.5-6.8-21.5-21.7c0-8.2,6.7-12.5,14.8-12.6h0.5c8.4,0,11.6,3,11.6,3l1.3,5.1
	c0,0-3.6-3.6-10.9-3.6c-7.8,0-8.5,6.2-8.4,8c0.5,4.5,3.9,5.6,10,8.2c6.4,2.7,11.4,6.2,11.4,13C557.7,135.2,556.1,138.5,553.5,140.6
	L553.5,140.6z"/>
<path id="path6706" fill="#9CA3AF" d="M566,144c-1.7,0-2.6-0.9-2.6-2.4V102c0-3-2.9-4.1-2.9-4.1h9.4c1.9,0,2.6,1,2.6,2.8V144H566z"
	/>
<path id="path6710" fill="#9CA3AF" d="M312.8,97.8c1.8,0,2.6,0.8,2.6,2.4v3.6c2.5-4.1,7-6.7,13.1-6.7c4.8,0,8.1,1.1,11,4.2
	c3,3.4,3.8,7.5,3.8,13.2V144h-5.5c-2.4,0-3.7-1.6-3.7-3.8v-26.7c0-8.2-2.5-10.6-8.2-10.6c-4.7,0-9.9,3.2-9.9,8.1v32.9h-9.1v-42.2
	c0-3.3-2.5-4-2.5-4L312.8,97.8L312.8,97.8z"/>
<path id="path6714" fill="#9CA3AF" d="M605.7,120.2c0,0-2.3-0.5-5.2-0.5c-6.3,0-11,2.8-12.2,7c-0.3,0.8-0.3,2.5-0.3,3.4
	c0,5.3,3.7,8.3,8.3,8.3c0.9,0,2.3-0.2,3.5-0.7c3.3-1.2,5.9-3.4,5.9-6.8V120.2z M610,144c-0.4,0-2.2,0.1-3-0.8
	c-0.7-0.7-0.7-1.7-0.7-2.5V138c-2.8,4.1-7.4,6.8-14.4,6.7c-11-0.3-13.3-8.9-13.3-13.7c0-1.7,0.1-4.9,2.7-8.3
	c3.9-5.5,11.9-7.2,19.1-7.2c3.1,0,5.5,0.4,5.5,0.4v-4.8c0-1.7,0.3-4.4-1.7-6.7c-1.4-1.8-4.3-3-9.3-3c-8.5,0.2-12.1,4.2-12.1,4.2
	l0.9-5.7c0,0,5-3.4,13.2-3.4c6.8,0,11.5,1.9,14.2,4.6c3.2,3.3,4,6.3,4,12.4V144H610L610,144z"/>
<path id="path6718" fill="#9CA3AF" d="M204.3,113.4c0-2.6-0.3-6.4-2.4-8.6c-1.5-1.5-3.8-2.6-7.1-2.6c-9,0-10,11.9-10,18.3v0.7
	c0.1,9.1,2.7,18.1,10.2,18.1c4.1,0,6.9-1.6,9.3-4.6V113.4L204.3,113.4z M207.2,144c-1.8,0-2.4-0.6-2.4-2.3v-2.3
	c-3.5,3.1-6.8,5.1-11.9,5.2h-0.2c-13.2,0-17.8-11.1-17.8-23.5c0-9.3,3.6-24.3,18.2-24.3c8.8,0,11.2,5.3,11.2,5.3V86.4
	c0-3.3-2.7-5-2.7-5h7.2c2.8,0,4.8,1.9,4.8,4V144H207.2L207.2,144z"/>
<path id="path6722" fill="#9CA3AF" d="M247.4,120.2c0,0-2.3-0.5-5.2-0.5c-6.3,0-11,2.8-12.2,7c-0.3,0.8-0.4,2.5-0.4,3.4
	c0,5.3,3.7,8.3,8.3,8.3c0.9,0,2.3-0.2,3.5-0.7c3.3-1.2,5.9-3.4,5.9-6.8V120.2z M251.7,144c-0.4,0-2.3,0.1-3-0.8
	c-0.7-0.7-0.7-1.7-0.7-2.5V138c-2.8,4.1-7.4,6.8-14.4,6.7c-10.9-0.3-13.4-8.9-13.4-13.7c0-1.7,0.2-4.9,2.7-8.3
	c3.9-5.5,11.9-7.2,19.1-7.2c3.1,0,5.4,0.4,5.4,0.4v-4.8c0-1.7,0-4.6-1.7-6.7c-1.4-1.7-4.2-3-8.9-3c-7.5,0-12.4,4.2-12.4,4.2l0.9-5.7
	c0,0,5.1-3.4,13.2-3.4c6.8,0,11.5,1.9,14.2,4.6c3.2,3.3,4,6.3,4,12.4V144H251.7z"/>
<path id="path6726" fill="#9CA3AF" d="M379.4,113.4c0-2.6-0.3-6.4-2.4-8.6c-1.4-1.5-3.8-2.6-7.1-2.6c-9,0-10,11.9-10,18.3v0.7
	c0.1,9.1,2.7,18.1,10.2,18.1c4.1,0,6.9-1.6,9.3-4.6V113.4L379.4,113.4z M382.3,144c-1.8,0-2.5-0.6-2.5-2.3v-2.3
	c-3.4,3.1-6.8,5.1-11.9,5.2h-0.2c-13.1,0-17.7-11.1-17.7-23.5c0-9.3,3.5-24.3,18.2-24.3c8.8,0,11.2,5.3,11.2,5.3V86.4
	c0-3.3-2.7-5-2.7-5h7.2c2.8,0,4.8,1.9,4.8,4V144H382.3z"/>
<path id="path6730" fill="#9CA3AF" d="M448,97.8c1.8,0,2.7,0.8,2.7,2.4v3.6c2.5-4.1,7-6.7,13.1-6.7c4.8,0,8.1,1.1,10.9,4.2
	c3,3.4,3.8,7.5,3.8,13.2V144H473c-2.3,0-3.7-1.6-3.7-3.8v-26.7c0-8.2-2.5-10.6-8.2-10.6c-4.7,0-9.9,3.2-9.9,8.1v32.9h-9.2v-42.2
	c0-3.3-2.5-4-2.5-4L448,97.8L448,97.8z"/>
<path id="path6734" fill="#9CA3AF" d="M43.1,144.3c-3.7,0.5-5.9,0.7-9.6,0.7c-9.5,0-15.5-2.9-20.1-7.3C6.7,131,5,119.9,5,113
	c0-5.6,0.9-16.5,9.9-25c4.1-3.9,10.6-7.2,20.3-7.2c8.6,0,12.8,2.5,12.8,2.5l1.6,5.7c-0.3-0.2-4.8-2.7-12.2-2.7
	c-15.2,0-21.6,10.5-21.6,26.7c0,24.6,12,26.6,18.8,26.6c4.8,0,6.8-0.8,6.8-0.8v-24.5h-5.3c-3.6,0-5.1,0.6-5.1,0.6l0.8-5h19.6v32.6
	C48,143.4,46.3,143.9,43.1,144.3L43.1,144.3z"/>
<path id="path6738" fill="#9CA3AF" d="M494.7,120.9c0,0,2.3,0.5,5.2,0.5c10.2,0,12.6-5,13.1-10.9c0.4-5.2-1-10.4-9-9.4
	c-7.3,0.9-9.2,5.7-9.2,11.6C494.7,117.7,494.7,120.9,494.7,120.9 M508.5,96.7c10.9,0.8,13.4,8.9,13.4,13.7c0,1.7-0.2,4.9-2.7,8.3
	c-3.9,5.5-11.9,7.2-19.1,7.2c-3.1,0-5.4-0.4-5.4-0.4v4.3c0,8.1,4.3,10.2,11.4,10.1c7.9-0.1,14.2-5,14.2-5l-0.9,5.7
	c0,0-7.2,4.2-15.3,4.2c-6.8,0-12-1.8-14.7-4.6c-3.4-3.5-4-8.2-4-14.3v-10.1C485.5,107,489,95.3,508.5,96.7z"/>
</svg>
