<?xml version="1.0" encoding="utf-8"?>
<!-- Generator: Adobe Illustrator 26.1.0, SVG Export Plug-In . SVG Version: 6.00 Build 0)  -->
<svg version="1.1" id="mpgclfspsr-Ebene_1" xmlns="http://www.w3.org/2000/svg" xmlns:xlink="http://www.w3.org/1999/xlink" x="0px"
	 y="0px" width="512px" height="79.5px" viewBox="0 0 512 79.5" enable-background="new 0 0 512 79.5" xml:space="preserve">
<path fill="#9CA3AF" d="M173.8,70.3c2.6-0.9,5.2-2,7.8-3.2c10.1-4.5,19.6-10.5,25.5-16.4c-3.2,10.7-10.8,19.9-21.8,24.8
	c-9.3,4.2-19.4,4.4-28.4,1.4c4.9-0.7,10.2-2.1,15.8-4L173.8,70.3z M39.5,79.5C17.7,79.5,0,61.8,0,40S17.7,0.5,39.5,0.5
	c9.4,0,18,3.4,24.9,8.9l-6.7,15.1c-4.4-5.1-10.9-8.4-18.1-8.4c-13.2,0-23.9,10.7-23.9,23.8c0,13.2,10.7,23.8,23.9,23.8
	c6.6,0,12.5-2.7,16.8-6.9v-8h-9.6l6.7-15h18.9v4.5V62C65.2,72.6,53.2,79.5,39.5,79.5 M97.6,77.9H86.7h-6.5V1.8h17.4v61h31.5
	l6.7,15.1H97.6z M172.2,4.2c-3.7,2.9-9,5.9-14.9,8.5c-2.1,0.9-4,1.7-5.9,2.4l-3.1-1.2c-5,1.6-8.8,2.4-11,2.4
	c3.9-5.4,9.3-10,15.9-12.9c7.4-3.3,15.3-4.1,22.7-2.8C175.3,1.5,174.2,2.7,172.2,4.2 M187.6,16.2c-5.2,4.3-12.6,8.7-20.9,12.5
	l-2.9-1.1c-18.7,8.3-31.8,9.3-33.8,7.6c0.5-4.5,1.8-8.8,3.7-12.8c1,0.3,2.1,0.4,3.4,0.4c4.1,0,9.2-1.4,13.6-2.9l1.1-2.7
	c2.3-0.8,4.5-1.7,6.4-2.6c6.1-2.7,11.5-5.8,15.3-8.8c2.3-1.8,3.9-3.4,4.7-4.9c5.8,1.4,11.2,4,15.9,7.8
	C193.4,10.6,191.4,13.1,187.6,16.2 M198.9,32.3c-4.1,3.4-9.4,6.8-15.4,10.1l-2.7-1c-2.8,1.5-5.7,2.9-8.8,4.3
	c-24.1,10.7-37.9,10.2-39.4,8.5c-1.6-4-2.5-8.1-2.8-12.2c1.3,0.3,2.7,0.4,4.3,0.4c9.5,0,23.3-4.8,32.4-8.8l1.1-2.9
	c8.4-3.9,16-8.4,21.3-12.8c3.4-2.8,5.7-5.3,6.8-7.6c3.9,3.6,7.3,7.9,9.6,13.1c0.2,0.5,0.4,1,0.6,1.4C204.7,27,202.4,29.5,198.9,32.3
	 M180.7,65.2c-2.6,1.2-5.3,2.2-7.9,3.2l-3.1-1.2c-5.6,1.9-11,3.1-15.7,3.6c-5.5,0.6-8.7-0.1-10-0.9c-2.8-2.3-5.3-5.1-7.4-8.2
	c0.5,0,0.9,0,1.4,0c9.8,0,23.9-4.3,36.7-10c3-1.3,6-2.8,8.8-4.2l1.2-3.1c6.1-3.3,11.4-6.8,15.6-10.2c2.4-1.9,4.8-4.2,6.5-6.6
	c2,6.3,2.4,12.8,1.3,19C203.8,52,194.3,59.1,180.7,65.2 M259.8,46.3H238h-4.8h-1.5v16.5h1.5h4.8h21.8c4.6,0,8.3-3.7,8.3-8.3
	S264.4,46.3,259.8,46.3 M256.7,16.9L256.7,16.9l-25,0v13.5h1.5h2.8h20.4c0.1,0,0.1,0,0.2,0c3.7,0,6.7-3,6.7-6.7
	S260.4,16.9,256.7,16.9 M283.1,54.6c0,12.9-10.4,23.3-23.3,23.3c-0.1,0-0.3,0-0.4,0v0h-26.1h-17.4v-15V46.3v-16V16.9V1.8h17.4h23.5
	v0c12,0,21.7,9.7,21.7,21.8c0,4.8-1.5,9.1-4.1,12.7C279.7,40.6,283.1,47.2,283.1,54.6 M347,62.9l-6.7,15.1h-32.4h-17.4V62.9V46.3
	v-16V16.9V1.8h17.4h32.4l6.7,15h-39.1v13.4h32.4v16h-32.4v16.5L347,62.9L347,62.9z M433.5,1.8H444v76.1h-10.6V1.8z M375.3,44.7
	l13.8-31l13.7,30.9L375.3,44.7z M417.7,77.9h10.6L394.4,1.8h0h-10.5h0l-33.9,76.1h10.6l10.8-24.2h35.6L417.7,77.9z M498.7,25.2
	c-0.1,10.1-6.6,13.2-15.9,13.2h0h-16.8V11.8h17.2C492,12,498.8,15.1,498.7,25.2 M508.4,25.2c-0.1-16.1-10-23.4-24-23.4h-18.4H460
	h-4.7v76.1h10.6V47.5l22,0l13.5,30.3H512l-14.3-32.2C504.5,40.8,508.5,34.6,508.4,25.2"/>
</svg>
