<?xml version="1.0" encoding="utf-8"?>
<!-- Generator: Adobe Illustrator 26.1.0, SVG Export Plug-In . SVG Version: 6.00 Build 0)  -->
<svg version="1.1" id="Layer_1" xmlns="http://www.w3.org/2000/svg" xmlns:xlink="http://www.w3.org/1999/xlink" x="0px" y="0px"
	 width="323px" height="56px" viewBox="0 0 323 56" enable-background="new 0 0 323 56" xml:space="preserve">
<path fill="#9CA3AF" d="M24.3,28.7c0-3.1-0.2-3.5-1.8-3.9c-0.4-0.1-0.9-0.1-1.3-0.1c-0.2,0-0.3,0-0.3-0.2c0-0.2,0.2-0.3,0.6-0.3
	c1.8,0,4.1,0.1,4.3,0.1c0.2,0,2.6-0.1,3.7-0.1c0.4,0,0.6,0,0.6,0.3c0,0.3-0.2,0.2-0.3,0.2c-0.3,0-0.7,0.1-1,0.1
	c-1,0.2-1.3,0.8-1.4,2.2c-0.1,1.3,0,2.4,0,4v4.2c0,1.8,0,1.8-0.5,2c-2.5,1.2-5.3,1.8-8.1,1.8c-4.6,0.2-9-1.3-12.6-4.1
	c-1.5-1.4-2.6-3.1-3.4-4.9C2.1,28,1.7,26,1.8,24c-0.1-2.4,0.4-4.9,1.6-7.1s2.8-4,4.8-5.4c3.1-1.7,6.6-2.6,10.2-2.4
	c2,0,3.9,0.3,5.8,0.6c1,0.2,2.1,0.3,3.1,0.4c0.4,0,0.5,0.2,0.5,0.3c-0.2,1.8-0.3,3.6-0.3,5.4c0,0.6-0.1,0.8-0.4,0.8
	c-0.3,0-0.2-0.2-0.3-0.6c-0.1-0.9-0.3-1.7-0.8-2.5c-1-1.4-4.1-3.1-9-3.1c-3-0.2-5.9,0.7-8.2,2.6c-1.3,1.2-2.3,2.8-3,4.4
	S4.9,21,5.1,22.8c0,3.9,1.4,7.6,4.1,10.5c1.3,1.3,2.9,2.3,4.6,3c1.7,0.7,3.6,1,5.4,1c1.5,0,3-0.2,4.4-0.8c0.2-0.1,0.4-0.3,0.6-0.6
	c0.1-0.2,0.2-0.5,0.2-0.8V28.7z"/>
<path fill="#9CA3AF" d="M53.8,27.4c0,5.6,0.2,8,0.8,8.7c0.7,0.8,1.6,0.9,4.6,0.9c2,0,3.7,0,4.6-1.1c0.5-0.7,0.9-1.4,1-2.3
	c0-0.3,0.1-0.5,0.4-0.5c0.2,0,0.2,0.2,0.2,0.6c-0.1,1.3-0.3,2.5-0.6,3.8c-0.3,0.9-0.4,1-2.4,1c-5.5,0-8-0.2-10.3-0.2
	c-0.3,0-2.6,0.1-3.7,0.1c-0.4,0-0.6,0-0.6-0.3c0-0.3,0-0.2,0.3-0.2c0.4,0,0.8-0.1,1.1-0.2c0.8-0.1,1-1,1.1-2.1
	c0.2-1.6,0.2-4.6,0.2-8.2v-6.7c0-5.9,0-7,0-8.2s-0.4-1.9-1.6-2.2c-0.4-0.1-0.9-0.1-1.3-0.1c-0.2,0-0.3,0-0.3-0.2
	c0-0.2,0.2-0.3,0.6-0.3c1.8,0,4.1,0.1,4.3,0.1c0.2,0,3-0.1,4.1-0.1c0.4,0,0.6,0,0.6,0.3c0,0.3-0.2,0.2-0.3,0.2c-0.4,0-0.8,0-1.3,0.1
	c-1.1,0.2-1.4,0.8-1.5,2.2c-0.1,1.3,0,2.3,0,8.2L53.8,27.4z"/>
<path fill="#9CA3AF" d="M91.5,9.1c8.6,0,15,5.4,15,14.2c0.1,2-0.2,4.1-1,5.9c-0.7,1.9-1.8,3.6-3.3,5.1c-1.4,1.5-3.1,2.6-5,3.4
	c-1.9,0.8-3.9,1.2-6,1.1c-10.5,0-14.8-8.1-14.8-14.9c0-2,0.4-3.9,1.1-5.7c0.8-1.8,1.9-3.5,3.3-4.8c1.4-1.4,3.1-2.5,4.9-3.2
	C87.6,9.5,89.6,9.1,91.5,9.1z M92.3,37.4c3.5,0,10.6-2,10.6-13c0-9.1-5.6-14-11.6-14c-6.4,0-11.2,4.2-11.2,12.5
	C80.1,31.7,85.5,37.4,92.3,37.4z"/>
<path fill="#9CA3AF" d="M125.3,20.7c0-5.9,0-7,0-8.2s-0.4-1.9-1.6-2.2c-0.4-0.1-0.9-0.1-1.3-0.1c-0.1,0-0.3,0-0.3-0.2
	c0-0.2,0.2-0.3,0.6-0.3c1.8,0,4.1,0.1,4.3,0.1c0.9,0,2.4-0.1,4.2-0.1c6.3,0,7.6,3.8,7.6,5.7c0,3.1-1.8,5-3.5,6.8
	c1.8,0.5,3.4,1.5,4.6,2.9c1.2,1.4,1.9,3.2,2,5.1c0,4-3.2,8.3-9.7,8.3c-0.9,0-4.8-0.2-5.1-0.2s-2.6,0.1-3.7,0.1c-0.4,0-0.6,0-0.6-0.3
	c0-0.3,0-0.2,0.3-0.2c0.4,0,0.8-0.1,1.1-0.2c0.8-0.1,1-1,1.1-2.1c0.2-1.6,0.2-4.6,0.2-8.2L125.3,20.7z M128.4,21.5
	c0,0.3,0,0.3,0.3,0.4c0.8,0.1,1.6,0.2,2.3,0.2c2.1,0,2.7,0,3.5-1c0.9-1.1,1.4-2.4,1.4-3.8c0-3.1-1.4-6.5-5.2-6.5
	c-0.6,0-1.2,0.1-1.8,0.2c-0.4,0-0.5,0.2-0.5,0.4L128.4,21.5z M128.4,25.5c0,2.9,0,7.6,0,8.2c0.1,1.9,0.1,2.4,1.3,3
	c1.1,0.4,2.2,0.6,3.4,0.6c0.7,0,1.4-0.1,2.1-0.3c0.7-0.3,1.3-0.7,1.8-1.2c0.5-0.5,0.9-1.1,1.2-1.8c0.3-0.7,0.4-1.4,0.3-2.1
	c0-1.5-0.3-2.9-0.9-4.2c-0.6-1.3-1.6-2.5-2.8-3.3c-0.9-0.6-2-1-3.2-1.1c-0.5,0-2.4,0-3,0c-0.2,0-0.2,0-0.2,0.3L128.4,25.5z"/>
<path fill="#9CA3AF" d="M168.4,10.6c0.5-1.3,0.6-1.5,0.8-1.5s0.4,0.2,0.8,1.4c0.6,1.5,6.6,17.1,8.9,22.9c1.4,3.4,2.5,4,3.3,4.2
	c0.5,0.2,1,0.2,1.5,0.2c0.2,0,0.4,0,0.4,0.2c0,0.2-0.4,0.3-0.8,0.3c-0.4,0-3.4,0-6,0c-0.7,0-1.1,0-1.1-0.3c0-0.3,0.1-0.2,0.3-0.3
	c0.1,0,0.5-0.4,0.2-1l-3.5-9.3c0-0.1-0.1-0.1-0.1-0.2c-0.1,0-0.1-0.1-0.2-0.1h-8.2c-0.1,0-0.2,0-0.2,0.1c-0.1,0.1-0.1,0.1-0.1,0.2
	l-2.3,6.7c-0.3,0.8-0.5,1.7-0.5,2.5c0,0.8,0.8,1.1,1.4,1.1h0.4c0.3,0,0.4,0,0.4,0.2c0,0.2-0.2,0.3-0.6,0.3c-0.9,0-2.6-0.1-3-0.1
	c-0.4,0-2.5,0.1-4.3,0.1c-0.5,0-0.7,0-0.7-0.3c0-0.3,0.2-0.2,0.3-0.2c0.2,0,0.8,0,1.1,0c1.8-0.2,2.5-1.8,3.2-3.5L168.4,10.6z
	 M172.4,25.8c0.2,0,0.2-0.1,0.2-0.3l-3.6-10.2c-0.2-0.6-0.4-0.6-0.6,0L165,25.5c0,0.2,0,0.3,0.1,0.3H172.4z"/>
<path fill="#9CA3AF" d="M202.5,27.4c0,5.6,0.2,8,0.8,8.7c0.7,0.8,1.6,0.9,4.6,0.9c2,0,3.7,0,4.6-1.1c0.5-0.7,0.9-1.4,1-2.3
	c0-0.3,0.1-0.5,0.3-0.5c0.2,0,0.2,0.2,0.2,0.6c-0.1,1.3-0.3,2.5-0.6,3.8c-0.3,0.9-0.4,1-2.4,1c-5.5,0-8-0.2-10.3-0.2
	c-0.4,0-2.6,0.1-3.7,0.1c-0.4,0-0.6,0-0.6-0.3c0-0.3,0-0.2,0.3-0.2c0.4,0,0.8-0.1,1.1-0.2c0.8-0.1,1-1,1.1-2.1
	c0.2-1.6,0.2-4.6,0.2-8.2v-6.7c0-5.9,0-7,0-8.2s-0.4-1.9-1.7-2.2c-0.4-0.1-0.9-0.1-1.3-0.1c-0.2,0-0.3,0-0.3-0.2
	c0-0.2,0.2-0.3,0.6-0.3c1.8,0,4.1,0.1,4.3,0.1s3-0.1,4.1-0.1c0.4,0,0.6,0,0.6,0.3c0,0.3-0.2,0.2-0.3,0.2c-0.4,0-0.8,0-1.3,0.1
	c-1.1,0.2-1.4,0.8-1.5,2.2c-0.1,1.3,0,2.3,0,8.2L202.5,27.4z"/>
<path fill="#9CA3AF" d="M244.2,29.8c0,6.1,0,8.5-1.1,11.2c-1.3,2.4-3.2,4.4-5.6,5.8c-0.5,0.3-1,0.7-1.5,0.9c-0.1,0-0.2,0-0.3,0
	c0,0-0.1,0-0.1,0c0,0-0.1,0-0.1,0c0,0,0,0-0.1-0.1c0,0,0-0.1,0-0.1c0-0.2,0.2-0.3,0.5-0.6c0.5-0.3,0.9-0.7,1.3-1
	c2.5-2.5,3.7-4.5,3.7-14.3V20.7c0-5.9,0-7-0.1-8.2c-0.1-1.2-0.4-1.9-1.6-2.2c-0.4-0.1-0.9-0.1-1.3-0.1c-0.1,0-0.3,0-0.3-0.2
	c0-0.2,0.2-0.3,0.6-0.3c1.8,0,4.1,0.1,4.3,0.1c0.2,0,2.6-0.1,3.7-0.1c0.4,0,0.6,0,0.6,0.3c0,0.3-0.1,0.2-0.3,0.2
	c-0.3,0-0.6,0.1-1,0.1c-1,0.2-1.3,0.8-1.4,2.2c-0.1,1.3,0,2.3,0,8.2L244.2,29.8z"/>
<path fill="#9CA3AF" d="M268.3,20.7c0-5.9,0-7,0-8.2s-0.4-1.9-1.6-2.2c-0.4-0.1-0.9-0.1-1.3-0.1c-0.2,0-0.3,0-0.3-0.2
	c0-0.2,0.2-0.3,0.6-0.3c1.8,0,4.1,0.1,4.3,0.1s7.9,0,8.8,0c0.6,0,1.1-0.1,1.6-0.2c0.2,0,0.4-0.2,0.5-0.2c0.2,0,0.1,0.2,0.1,0.4
	c0,0.2-0.2,0.7-0.3,1.8c0,0.4-0.1,2-0.2,2.5c-0.1,0.5-0.1,0.4-0.3,0.4s-0.3-0.2-0.3-0.5c0-0.5-0.1-0.9-0.2-1.4
	c-0.3-0.6-0.7-1-2.7-1.3c-0.7,0-4.8-0.1-5.3-0.1c-0.1,0-0.2,0.1-0.2,0.4V22c0,0.3,0,0.4,0.2,0.4c0.5,0,5.2,0,6.1,0
	c0.9,0,1.4-0.2,1.8-0.5c0.3-0.4,0.4-0.5,0.6-0.5s0.2,0,0.2,0.3c0,0.3-0.2,0.9-0.3,2.1c0,0.8-0.1,2.2-0.1,2.4s0,0.7-0.3,0.7
	c-0.3,0-0.3-0.2-0.3-0.3c0-0.4,0-0.8-0.1-1.3c-0.2-0.5-0.5-1.2-2-1.3c-1-0.1-4.8-0.2-5.5-0.2c0,0-0.1,0-0.1,0c0,0-0.1,0-0.1,0.1
	c0,0,0,0.1-0.1,0.1c0,0,0,0.1,0,0.1v3.3c0,1.3,0,5.7,0,6.5c0.1,2.6,0.7,3.1,4.4,3.1c1.2,0.1,2.5-0.1,3.7-0.4c1-0.4,1.5-1.2,1.8-2.7
	c0-0.4,0.2-0.6,0.3-0.6c0.2,0,0.2,0.3,0.2,0.6c-0.1,1.2-0.3,2.5-0.5,3.7c-0.3,1-0.6,1-2.1,1c-5.8,0-8.3-0.2-9.4-0.2
	c-0.2,0-2.6,0.1-3.7,0.1c-0.4,0-0.6,0-0.6-0.3s0.1-0.2,0.3-0.2c0.4,0,0.8-0.1,1.1-0.2c0.8-0.1,1-1,1.1-2.1c0.2-1.6,0.2-4.6,0.2-8.2
	L268.3,20.7z"/>
<path fill="#9CA3AF" d="M311.2,27.3c0,3.6,0,6.6,0.2,8.2c0.1,1.1,0.3,1.9,1.5,2.1c0.6,0.1,1.2,0.1,1.8,0.2c0.2,0,0.3,0.1,0.3,0.2
	s-0.2,0.3-0.6,0.3c-2.1,0-4.5-0.1-4.7-0.1s-2.6,0.1-3.7,0.1c-0.4,0-0.6,0-0.6-0.3s0-0.2,0.3-0.2c0.4,0,0.8-0.1,1.1-0.2
	c0.8-0.1,1-1,1.1-2.1c0.2-1.6,0.2-4.6,0.2-8.2v-16h-5.7c-2.4,0-3.3,0.3-3.9,1.2c-0.3,0.4-0.5,0.8-0.6,1.2c-0.1,0.3-0.2,0.4-0.4,0.4
	c-0.1,0-0.2-0.1-0.2-0.3s0.8-3.6,0.8-3.9c0.1-0.3,0.2-0.7,0.4-0.7c0.6,0.2,1.2,0.4,1.8,0.5c1.1,0.1,2.6,0.2,3,0.2h14.3
	c1.3,0,2.5-0.1,3.8-0.4c0.2,0,0.2,0.2,0.2,0.5c0,1.1-0.1,3.7-0.1,4.2s-0.1,0.5-0.3,0.5c-0.1,0-0.3-0.1-0.3-0.6v-0.4
	c-0.1-1.1-1-2-4.7-2.1h-4.8L311.2,27.3z"/>
</svg>
