<?xml version="1.0" encoding="utf-8"?>
<!-- Generator: Adobe Illustrator 26.1.0, SVG Export Plug-In . SVG Version: 6.00 Build 0)  -->
<svg version="1.1" id="Layer_1" xmlns="http://www.w3.org/2000/svg" xmlns:xlink="http://www.w3.org/1999/xlink" x="0px" y="0px"
	 width="555px" height="120px" viewBox="0 0 555 120" enable-background="new 0 0 555 120" xml:space="preserve">
<g>
	<path fill="#9CA3AF" d="M60.2,21.7c2-5.4,3.3-11,4.3-16.7c1.1,5.9,2.5,11.7,4.5,17.2c1.9,5,4.6,9.6,7.1,14.3c2.2,4.3,4,9.1,3.4,14
		c-0.4,4.5-3.1,8.7-7.1,10.9c-2.5,1.6-5.6,2-8,3.9c-1.1-1-2.5-1.5-3.9-2c-2.6-1-5.3-2.2-7.3-4.3c-3-3-4.3-7.4-4-11.5
		c0.3-4.9,2.6-9.4,4.9-13.6C56.4,29.9,58.6,26,60.2,21.7 M62.8,52.1c-2.1,0.8-3.2,3.4-2.5,5.5c0.7,2.2,3.2,3.5,5.4,2.8
		c2.4-0.6,3.8-3.4,3-5.7C67.9,52.4,65.1,51.1,62.8,52.1z"/>
	<path fill="#9CA3AF" d="M5,44.1c5.2-3.1,11.5-4.7,17.5-3.6c3.8,0.6,7.5,2.2,9.9,5.2c1.7,2,2.9,4.5,3.7,7c0.8,2.4,1.1,4.9,2.1,7.2
		c1.3,3.4,3.6,6.4,6.6,8.6c3.5,2.6,7.6,3.9,11.5,5.5c3.1,1.3,6.3,3.2,8.1,6.3c1.2-2.1,3.1-3.6,5.2-4.8c2.7-1.6,5.8-2.5,8.7-3.7
		c3.7-1.6,7.2-3.8,9.7-7c2-2.6,3.2-5.8,4-9c1-4.2,2.7-8.5,6-11.4c3.6-3.2,8.6-4.2,13.3-4c4.5,0.2,8.8,1.7,12.6,3.9
		c-2,0.2-4,0.9-5.6,2.3c-2,1.7-3.1,4.2-3.8,6.7c-1,3.7-2,7.5-3.7,11c-2,3.9-5.1,7.3-9.1,9.2c-5.9,2.9-12.6,3.4-19.1,3.1
		c-4.7-0.3-9.5,0.3-13.7,2.6c-1.7,0.9-3.3,2.2-4.6,3.7c-3.1-3.7-8-5.6-12.8-6.1c-3.2-0.4-6.4,0-9.6-0.1c-5.6-0.1-11.5-1.1-16.4-4
		c-3-1.8-5.5-4.5-7.2-7.6c-1.6-2.9-2.6-6.2-3.5-9.4c-0.7-2.7-1.3-5.5-3.1-7.7C10.3,45.6,7.7,44.3,5,44.1L5,44.1z"/>
	<path fill="#9CA3AF" d="M44.6,43.5c1.2-1.4,2.6-2.6,4.1-3.7c-2.8,3.2-5.1,7.2-4.8,11.6c0.2,3.6,2,7,4.8,9.4
		c3.2,2.8,7.3,4.3,11.3,5.7c1.6,0.6,3.3,1.1,4.5,2.4c1.8-1.7,4.3-2.2,6.5-3.1c4.5-1.6,9.1-3.8,11.9-7.9c2.1-3.1,2.8-7.2,1.7-10.8
		c-0.8-2.7-2.4-5.2-4.3-7.3c3.6,2.4,6.5,6.1,7.6,10.3c1,3.8,0,7.9-2.4,11c-3.4,4.4-8.6,6.7-13.7,8.6c-2.6,1.1-5.7,2-7.2,4.5
		c-1.4-2.3-4-3.2-6.4-4.2c-4.3-1.6-8.7-3.4-12.2-6.5c-2.6-2.3-4.6-5.4-5-8.9C40.4,50.6,42.1,46.6,44.6,43.5L44.6,43.5z M42.7,79.8
		c7.7-2.7,17.1-0.1,21.8,6.7c5.3-7.5,16.4-9.9,24.4-5.5c3.6,2,6.4,5.4,8.2,9.1c2.1,4,3,8.5,4.7,12.6c1.1,2.5,2.4,5,4.7,6.6
		c2.4,1.6,5.2,2.1,8,2.6c-6.1,2.8-13,3.7-19.7,2.7c-5.3-0.8-10.4-3.1-14.4-6.8c-3.2-3-5.5-6.9-7.2-11c-0.9-2.2-1.5-4.7-2.9-6.7
		c-1-1.5-2.7-2.4-4.5-2.7c0-0.1,0.1-0.4,0.1-0.5c3.7-2.6,8.5-3.8,13-3.2c1.3,0.2,2.6,0.6,3.4,1.7c0.6,0.9,0.4,2.4-0.6,2.9
		c-1.1,0.7-2.9,0.1-3-1.3c-0.1-0.7,0.5-1.3,0.9-1.7c-0.8,0.4-1.6,0.6-2.1,1.4c-1,1.5-0.6,3.6,0.8,4.7c2.2,1.9,5.8,1.5,7.7-0.7
		c1.5-1.6,1.7-4.3,0.5-6.1c-1.1-1.7-3-2.8-5-3.2c-2.9-0.6-5.9-0.3-8.7,0.6c-2.9,1-5.6,2.7-7.5,5.1c-0.4,0.2-0.9,0-1.3,0
		c-2.2,0-4.4,1-5.7,2.8c-1.5,2-2,4.4-3,6.7c-1.6,4.1-3.9,8-7.2,11c-4.1,3.8-9.4,6.2-14.9,6.9c-6.5,0.8-13.2-0.1-19.1-2.8
		c3.1-0.5,6.5-1.1,8.9-3.3c2.6-2.4,3.8-5.8,4.9-9.1c1.4-4,2.6-8.2,4.9-11.8C35.5,84.2,38.7,81.2,42.7,79.8 M45.7,82
		c-1.5,0.6-3,1.6-3.7,3.1c-1,1.9-0.7,4.4,0.8,5.9c1.7,1.8,4.6,2.2,6.8,1.1c1.7-0.8,2.7-3,1.9-4.8c-0.4-1-1.4-1.5-2.3-1.9
		c0.5,0.5,1.1,1.1,0.9,1.9c-0.3,1.3-2.1,1.7-3.1,1c-1-0.7-1-2.3-0.2-3.1c1.2-1.3,3-1.5,4.6-1.6c4.1-0.1,8.3,0.9,11.6,3.5
		c0.1-0.1,0.2-0.1,0.3-0.2c-0.8-0.5-1.3-1.3-2.1-1.9c-2.3-1.9-5.2-3.1-8.1-3.6C50.7,81.1,48.1,81.1,45.7,82L45.7,82z"/>
</g>
<path fill="#9CA3AF" d="M189.8,15.1c5.3-0.7,11.3,1,14.6,5.4c2.1,2.9,2.8,6.6,2.4,10c-0.5,3.6-2.7,6.8-5.7,8.7
	c-4.2,2.8-9.7,3.7-14.6,2.2c-3-0.9-5.7-2.9-7.4-5.5c-2.2-3.1-3-7.1-1.8-10.8C179,19.7,184.2,15.8,189.8,15.1 M190.6,18.6
	c-1,0.4-2.1,0.6-3,1.3c-2.1,1.5-3.4,4-3.9,6.5c-0.5,2.8-0.3,5.9,1.3,8.4c1.6,2.5,4.7,3.8,7.7,3.7c2.5-0.1,4.7-1.9,5.9-4.1
	c1.8-3.2,2.1-7.3,0.8-10.7c-0.8-2.2-2.6-4.2-4.9-4.9C193.2,18.5,191.8,18.3,190.6,18.6z M249.4,15.3c4.6-1,9.5-0.6,13.7,1.4
	c-0.3,1.2-1.2,2.1-1.7,3.2c-3.5-1.6-7.6-1.9-11.3-0.6c-2.4,0.9-4.5,2.6-5.5,5c-1.7,3.9-0.7,9,2.8,11.7c2.9,2.3,7,2.6,10.5,1.8
	c0.5-2.7,0.1-5.5,0.2-8.3c2,0,3.9,0,5.9,0c0,3.6,0,7.2,0,10.8c-5.3,2.5-11.7,2.4-17.1,0.3c-3.7-1.4-7.2-4-8.8-7.7
	c-1.6-3.7-0.9-8,1.1-11.3C241.6,18.3,245.5,16.2,249.4,15.3L249.4,15.3z M302.9,15.1c4-0.5,8.4,0.1,11.8,2.4
	c2.8,1.9,4.6,4.9,5.2,8.2c0.6,3.6,0.1,7.5-2.2,10.5c-4.6,6-13.8,7.9-20.4,4.2c-3.2-1.8-5.7-4.9-6.6-8.5c-1.1-4.7,0.5-9.8,3.8-13.2
	C296.7,16.4,299.8,15.2,302.9,15.1 M303.7,18.8c-2.1,0.4-3.9,1.8-5,3.5c-1.7,2.7-2.3,6-1.7,9.1c0.4,2.3,1.6,4.5,3.6,5.7
	c1.9,1.2,4.3,1.9,6.6,1.3c2-0.5,3.6-2.1,4.6-3.8c1.5-2.7,2-5.9,1.5-8.9c-0.4-2.2-1.4-4.4-3.3-5.7C308.3,18.6,305.9,18.4,303.7,18.8z
	 M356.5,18.3c5.7-4.1,13.7-4.8,20-1.6c-0.3,1.2-1.2,2.1-1.6,3.2c-4.9-2.4-11.5-1.8-15.3,2.3c-3.7,4-2.7,11,1.6,14.1
	c2.9,2.1,6.7,2.3,10.1,1.5c0.5-2.7,0.1-5.5,0.2-8.3c1.9,0,3.9,0,5.8,0c0,3.7,0,7.4,0,11.1c-4.7,1.3-9.7,1.8-14.6,0.9
	c-2.7-0.5-5.3-1.5-7.4-3.3c-3.3-2.6-5.1-6.9-4.6-11.1C351.3,23.6,353.6,20.4,356.5,18.3L356.5,18.3z M537.3,15.3
	c3.9-1,8.2-0.6,11.7,1.4c-0.6,1.2-1.3,2.4-2.5,3c-1.5-1.1-3.5-1.5-5.3-1.4c-1,0.1-2,0.4-2.6,1.3c-0.6,1-0.4,2.3,0.3,3.2
	c1.2,1.5,2.9,2.3,4.4,3.5c1.7,1.3,3.6,2.5,5,4.1c1.2,1.6,1.9,3.7,1.4,5.7c-0.5,1.8-1.8,3.1-3.3,4c-2.2,1.3-4.9,1.9-7.4,1.9
	c-3,0.1-6-0.6-8.4-2.5c0.7-1.1,1.6-2,2.1-3.2c2,1.4,4.5,2,6.9,2c1.3,0,2.8-0.4,3.6-1.6c0.9-1.5,0.4-3.5-0.7-4.7
	c-2.7-2.9-6.8-4.1-9.2-7.2c-1.5-1.8-1.6-4.5-0.4-6.4C533.8,16.8,535.5,15.9,537.3,15.3L537.3,15.3z M149.6,15.3c2,0,3.9,0,5.9,0
	c0,3.4,0,6.7,0,10.1c4.1,0,8.2,0,12.3,0c0.5-3.3,0.1-6.7,0.2-10.1c1.9,0,3.9,0,5.8,0c0,8.8,0,17.6,0,26.4c-1.9,0-3.9,0-5.8,0
	c0-4.2,0-8.4,0-12.6c-4.1-0.5-8.2-0.1-12.2-0.3c-0.6,4.3-0.1,8.6-0.3,12.9c-2,0-3.9,0-5.9,0C149.6,32.9,149.6,24.1,149.6,15.3
	L149.6,15.3z M209.8,15.2c2.1-0.5,4.3,0.2,5.7,1.7c4.8,5.4,9.1,11.2,14.2,16.4c0-6,0-12.1,0-18.1c1.6,0,3.2,0,4.9,0
	c0,8.7,0,17.5,0,26.2c-1.2,0.4-2.5,0.5-3.6,0c-1.9-0.9-3-2.7-4.4-4.2c-4-4.5-7.7-9.4-11.9-13.7c0,6,0,12,0,17.9
	c-1.6,0.3-3.2,0.1-4.8,0.1C209.8,32.8,209.8,24,209.8,15.2z"/>
<path fill="#9CA3AF" d="M268.1,15.3c2,0,4.1,0,6.1,0c0,3.7,0,7.4,0,11.1c3.8-3.4,7.1-7.4,10.7-11.1c2,0,4.1,0,6.1,0
	c-3.5,4.1-7.4,7.8-11.2,11.6c4.1,5.1,8.7,9.7,13,14.6c-2.4,0-5,1-7.3,0.1c-2.3-1.3-3.5-3.9-5.1-5.9c-2-2.4-4.2-4.6-6.2-7
	c0,4.1,0,8.3,0,12.4l0.4,0.3l-0.7,0.2l0.3,0.2c-2,0-4,0-6,0C268.2,32.9,268.2,24.1,268.1,15.3L268.1,15.3z M323.2,15.2
	c2-0.5,4.2,0.1,5.6,1.7c4.9,5.3,9.2,11.3,14.3,16.5c0-6,0-12.1,0-18.1c1.6,0,3.2,0,4.9,0c0,8.7,0,17.5,0,26.2
	c-1.3,0.4-2.8,0.5-4-0.2c-1.9-1.1-3-3-4.5-4.6c-3.8-4.4-7.4-8.9-11.4-13.1c0,6,0,12,0,17.9c-1.6,0.3-3.2,0.1-4.9,0.2
	C323.2,32.8,323.2,24,323.2,15.2L323.2,15.2z M402.4,15.3c1.5,0,3.1,0,4.6,0c3.4,8.8,7.2,17.5,11,26.2c-2.1,0.5-4.3,0.1-6.4,0.2
	c-1-2.4-1.9-4.8-2.8-7.3c-3.5,0-7,0-10.5,0c-1.3,2.3-2.2,4.9-3.3,7.3c-1.6,0-3.2,0-4.8,0C394.3,32.8,398.1,23.9,402.4,15.3
	 M403.7,21.3c-1.4,3.2-2.9,6.4-4.1,9.8c2.6,0,5.3,0,7.9,0C406.3,27.8,405.2,24.5,403.7,21.3z M419.3,15.2c2,0,3.9,0,5.9,0
	c0,8.8,0,17.6,0,26.4c-2,0-3.9,0-5.9,0C419.3,32.9,419.3,24.1,419.3,15.2z M430,15.3c4.2,0,8.4-0.3,12.6,0.2c2.3,0.3,4.9,1,6.4,2.9
	c1.7,2.3,1.5,5.7,0,8c-1,1.5-2.5,2.5-4.2,3.2c2.2,4.1,5.4,7.6,7.4,11.8c-2.2,0-4.4,0-6.6,0c-2.7-3.2-4.3-7.2-6.8-10.6
	c-0.9,0-1.7,0-2.6,0c-0.5,3.5-0.1,7.1-0.2,10.6c-2,0-3.9,0-5.9,0C430,32.7,430,24,430,15.3 M435.9,18.8c0,2.9,0,5.9,0,8.8
	c2.1,0.5,4.6,0.5,6.3-1.1c2-1.7,2.2-5.2,0.1-6.9C440.5,18.1,438,18.2,435.9,18.8z M453.5,15.3h5.8c0,7.6,0,15.1,0,22.6
	c3.9,0.6,7.8,0.1,11.7,0.2c0,1.2,0,2.3,0,3.5c-5.9,0-11.7,0-17.6,0C453.5,32.9,453.5,24.1,453.5,15.3z M472.5,15.3c2,0,3.9,0,5.9,0
	c0,8.8,0,17.6,0,26.4c-1.9,0-3.7-0.1-5.6,0.1c-0.6-0.1-0.3-0.9-0.3-1.3C472.6,32,472.5,23.6,472.5,15.3z M483.2,15.2
	c1.3-0.3,2.6-0.4,3.8,0.3c1.8,1,2.6,2.9,3.9,4.3c4,4.6,8.1,9,12.2,13.6c0-6,0-12.1,0-18.1h4.6c0,8.8,0,17.6,0,26.4
	c-1.5,0.3-3.1,0.2-4.4-0.8c-1.7-1.2-2.8-3.1-4.2-4.6c-3.7-4.3-7.3-8.6-11.1-12.8c-0.6,6-0.1,12.1-0.3,18.1c-1.5,0-3.1,0-4.6,0
	C483.2,32.9,483.2,24,483.2,15.2z M512.6,15.3c5.4,0,10.7,0,16.1,0c0,1.2,0,2.3,0,3.5c-3.4,0-6.8,0-10.2,0c0,2.4,0,4.7,0,7.1
	c3.3,0.6,6.6,0.1,10,0.2c0,1.2,0,2.4,0,3.6c-3.3,0-6.6,0-10,0c0,2.8,0,5.5,0,8.3c3.5,0.6,7.1,0.1,10.7,0.2c0,1.2,0,2.3,0,3.5
	c-5.5,0-11.1,0-16.6,0C512.6,32.9,512.6,24.1,512.6,15.3L512.6,15.3z M252,66.6c5.5-0.4,11-1.1,16.4-2.1c0.7-0.2,1.2,0.4,1.5,0.9
	c0.6,1.1,0.9,2.3,1.3,3.4c-4.8,1.1-9.7,1.3-14.5,2c-0.6,0.8-0.1,1.9-0.2,2.7c6.1,0.6,12.2,0.1,18.3,0.3v4c-4.2,0-8.3,0-12.5,0
	c3.3,3.6,8.3,5.1,13,5.8c-0.6,1.6-1.6,3-2.1,4.6c-1.3-0.4-2.6-0.8-3.8-1.2c0,6,0,12,0,18.1c-1.7,0-3.4,0-5.1,0
	c0-0.6,0.1-1.3-0.2-1.9c-0.4-0.2-0.8-0.1-1.2-0.1c-6,0-12.1,0-18.1,0c-1,0-0.6,1.3-0.7,2c-1.7,0-3.4,0-5.1,0
	c0.6-6,0.1-11.9,0.2-17.9c-1.3,0.2-2.5,0.9-3.8,1.1c-0.7-1.4-1.4-2.8-2.3-4.1c4.6-1.5,9.4-3,13-6.3c-4.2,0-8.3,0-12.5,0
	c0-1.3,0-2.7,0-4c5.8,0,11.6,0,17.5,0c0.2-1,0.1-2,0.1-3c-4.6,0.4-9.1,0.2-13.7,0.3c-0.3-1.4-0.8-2.8-1-4.3
	C241.7,67.1,246.9,66.9,252,66.6 M256.4,85c2.9-0.1,5.8,0.3,8.7-0.2c-3.3-1.4-6.1-3.6-8.4-6.3C256.1,80.6,256.5,82.8,256.4,85
	 M250.3,79.7c-0.3,0.3-0.6,0.7-0.9,1c-1.8,1.6-3.8,2.9-5.7,4.3h7.6c-0.1-1.9,0.3-3.8-0.1-5.7C251.1,78.5,250.6,79.5,250.3,79.7
	 M244.2,89.3c0,0.8,0,1.7,0,2.5h20.1V89C257.6,88.9,250.9,89.5,244.2,89.3 M244.2,98.9h20.1c0-1,0-2,0-3c-6.6,0-13.3,0-19.9,0
	C244,96.8,244.2,97.9,244.2,98.9z M312.7,64.9c1.6,0,3.2,0,4.9,0v4.3c2.3,0.5,4.6,0.1,6.9,0.2c0-1.5,0-3,0-4.5h4.8
	c0,1.4,0,2.9,0,4.3c2.3,0.5,4.7,0.1,7.1,0.2c0,1.3,0,2.5,0,3.8c-2.3,0-4.7,0-7,0c-0.3,1.2-0.1,2.5-0.1,3.8c2.6,0,5.3,0,7.9,0v4
	c-2.6,0-5.1,0-7.7,0c1.7,3.3,5.2,4.9,8.5,6.3c-0.6,1.6-1.7,2.9-2.3,4.5c-2.3-1.2-4.2-2.8-6.3-4.3c0,2.8,0,5.6,0,8.3
	c-4.6,0-9.2,0-13.9,0c-0.4,1.2-0.2,2.4,0.3,3.5c4.8-0.1,9.6,0.3,14.4-0.2c1.3-1.6,1-3.8,1.2-5.8c1.8,0.5,3.6,0.9,5.3,1.7
	c-0.5,2.2-0.5,4.7-1.7,6.6c-1,1.5-2.8,1.9-4.4,2c-4.8,0.4-9.7,0.5-14.5,0.2c-1.7-0.2-3.6-0.3-4.8-1.6c-1.3-1.3-1.3-3.3-1.2-5.1
	c0.2-2.5,0.7-5,0.2-7.5c-1.2,0.6-2.2,1.4-3.3,2.1c-1.4-1.1-2.2-2.6-3.1-4.1c3.4-1.3,6.7-3.3,8.7-6.5c-2,0.3-4-0.5-6-0.1
	c-1.9,0.5-2.2,2.8-3.6,3.8c-2.4-1.3-4.2-3.5-6.7-4.6c0.9-1.3,2-2.4,2.8-3.8c2.6,1.1,4.7,2.9,7.1,4.3c0-1.4,0-2.7,0-4.1
	c2.1,0,4.3,0,6.4,0c0.4-1.1,0.1-2.4,0.2-3.6c-1.9,0-3.8,0-5.7,0c-0.1-0.5-0.2-1-0.3-1.4c-0.8,0.6-1.3,1.6-2.1,2.3
	c-2.4-1.5-4.3-3.8-7-4.9c1-1.4,2-3,3.6-3.8c1.9,1.5,3.8,3.1,6.2,3.6c1.7,0.4,3.4,0.4,5.1,0.2C313,68,312.7,66.4,312.7,64.9
	 M317.6,73.5c0,1.2,0,2.4,0,3.5c2.3,0,4.6,0,6.9,0c0-1.2,0-2.4,0-3.5H317.6 M318,81.8c-0.9,0.6-1.4,1.7-1.8,2.7c3.2,0,6.3,0,9.5,0
	c-0.5-1.3-1.4-2.3-2.1-3.5C321.8,80.8,319.7,80.7,318,81.8 M315.3,88.3c0,1.2,0,2.3,0,3.5h8.9c0-1.2,0-2.3,0-3.5
	C324.2,88.3,315.3,88.3,315.3,88.3z M440.4,65.4c2.1-0.5,4.2-0.1,6.4-0.2c0.6,1.1,1.3,2.1,1.6,3.3c5.4,0,10.8,0,16.3,0
	c0,3.2,0,6.4,0,9.6c-1.9,0-3.7,0-5.6,0c0-1.7,0-3.4,0-5.1c-9.4-0.6-18.9-0.1-28.3-0.2c0,1.8,0,3.5,0,5.3h-5.3c0-3.2,0-6.4,0-9.6
	c5.5,0,10.9,0,16.4,0C441.7,67.2,441,66.3,440.4,65.4z M369.3,65.4c1.6,0,3.2,0,4.9,0c0,1.2-0.3,2.4-0.8,3.5c1.9,0.3,3.9,0.4,5.9,0
	c-0.2,9.9,1,19.9,0.4,29.8c-0.1,1.7-0.3,3.8-2,4.7c-2,1.1-4.4,0.7-6.6,0.6c-0.2-1.5-0.8-2.8-0.9-4.3c1.4,0.2,2.8,0.3,4.2,0.3
	c1.1-4.5,0.2-9.2,0.5-13.9c-2.2,0-4.4,0-6.7,0c-0.8,6.2-0.7,12.7-3.5,18.4c-1.4-0.8-2.9-1.7-4.1-2.8c2.1-4.9,3-10.2,2.8-15.5
	c-0.9-0.1-1.8-0.1-2.7,0c0-1.3,0-2.5,0-3.8c0.9,0,1.9,0,2.8,0c0-4.5,0-8.9,0-13.4c1.5,0,3.1,0.2,4.6-0.1c0.4,0,0.5-0.4,0.6-0.7
	C368.9,67.4,369.1,66.4,369.3,65.4 M368,72.9v9.6c2.3,0,4.6,0,6.9,0c0-3.2,0-6.4,0-9.6C375,72.9,368,72.9,368,72.9z M385.6,65.4
	c1.8,0,3.6,0,5.3,0c0.6,1.6,1.5,3.1,1.8,4.8c2.7,0,5.4,0,8.2,0c0,1.4,0,2.9,0,4.3c-7,0-13.9,0-20.9,0c0-1.4,0-2.9,0-4.3h7.2
	C386.9,68.5,386.2,67,385.6,65.4z"/>
<path fill="#9CA3AF" d="M438.7,73.9c1.8,0.2,3.4,1,5.1,1.8c-1.7,3.4-4.6,6.1-8,7.8c-2.7,1.4-5.7,2.2-8.8,2.8c-0.7-1.4-1.4-2.7-2.3-4
	c4.1-1,8.5-2.1,11.7-5C437.3,76.3,438.1,75.2,438.7,73.9L438.7,73.9z M368.5,74.7c1.3-0.1,2.6-0.6,3.9-0.5c0.7,2.1,1.5,4.2,2.1,6.3
	c-1.4,0.4-2.7,0.7-4.1,0.8C370,79.1,369.2,76.9,368.5,74.7L368.5,74.7z M447.3,74.4c1.8-0.4,3.6-0.2,5.4-0.2
	c0.1,1.8-0.4,3.8,0.3,5.5c4,1.2,8.2,0.2,12.3,0.5c0.3,1.4,0.2,2.8,0.2,4.3c-4.1-0.1-8.2,0.4-12.2-0.1c-2.1-0.3-4.4-1-5.5-2.9
	C446.5,79.4,446.9,76.8,447.3,74.4L447.3,74.4z M383.4,77.7c4.3-0.5,8.7-0.1,13-0.3c0,6.1,0,12.1,0,18.2c0,1.6-0.5,3.5,1,4.6
	c1.1-1.6,1.1-3.5,1.1-5.4c0-1.7-0.2-3.3-0.3-5c1.5,0.3,2.8,1,4.3,1.3c-0.4,2.7,0.2,5.4,0.3,8.1c0,1.5-0.4,3.3-1.8,4.2
	c-2.1,1.4-5.1,1.8-7.4,0.7c-1.7-0.8-2.4-2.8-2.6-4.6c-0.5-5.4,1.1-10.8,0.6-16.2c-0.2-0.5,0-1.3-0.6-1.5c-0.9-0.1-1.8,0-2.7,0
	c0.1,5.2,0,10.4-1.2,15.5c-0.6,2.6-1.6,5-3.1,7.2c-1.4-0.9-2.8-2-4.1-3c2.5-3.7,3.1-8.2,3.5-12.6C383.5,85.1,383.4,81.4,383.4,77.7
	L383.4,77.7z M428.8,88c10.8-0.5,21.7-0.1,32.6-0.3c0,1.4,0,2.9,0,4.3c-4.4,0-8.8,0-13.3,0c-0.5,2.3-0.1,4.7-0.2,7
	c6,0.5,12.1,0.1,18.1,0.2c0,1.4,0,2.9,0,4.3h-41.8v-4.3c5.9,0,11.8,0,17.6,0c0.5-2.3,0.1-4.7,0.2-7c-4.3,0-8.7,0-13,0
	C428.9,90.9,429.2,89.4,428.8,88z M368.5,89.3c1-0.4,2.1-0.6,3.2-0.9c1.9,1.9,2,4.7,2.7,7.2c-1.4,0.2-2.7,0.8-4.1,0.9
	C369.9,94,369.1,91.6,368.5,89.3L368.5,89.3z M301.8,89c1.5,0.8,2.8,2,4.3,2.8c-1.4,4.5-2.8,9.2-6.3,12.6c-0.9-1.5-2.6-2.4-3.3-4
	C299.1,97.1,300.6,93.1,301.8,89L301.8,89z"/>
</svg>
