<?xml version="1.0" encoding="utf-8"?>
<!-- Generator: Adobe Illustrator 26.1.0, SVG Export Plug-In . SVG Version: 6.00 Build 0)  -->
<svg version="1.1"
	 id="svg8" xmlns:cc="http://creativecommons.org/ns#" xmlns:dc="http://purl.org/dc/elements/1.1/" xmlns:rdf="http://www.w3.org/1999/02/22-rdf-syntax-ns#" xmlns:svg="http://www.w3.org/2000/svg"
	 xmlns="http://www.w3.org/2000/svg" xmlns:xlink="http://www.w3.org/1999/xlink" x="0px" y="0px" width="500px" height="130px"
	 viewBox="0 0 500 130" enable-background="new 0 0 500 130" xml:space="preserve">
<path id="path855" fill="#9CA3AF" d="M10.8,68.4c-3.8,0-6.7,3-6.7,6.4c0,3.5,2.9,6.4,6.7,6.4c3.7,0,6.7-2.8,6.7-6.4
	C17.5,71.2,14.5,68.4,10.8,68.4z M68,76.8v9.3h-5.6v8.8h5.7v15c0,7.6,3.1,12.6,12.6,12.6c2.5,0,5.2-0.5,6.8-1.1l-0.1-8.6
	c-0.9,0.4-2.3,0.6-3.4,0.6c-3.3,0-4.4-1.7-4.4-5V94.9h8.3v-8.8h-8.3v-9.3H68z M108.9,85c-10.8,0-19.2,7.4-19.2,19
	c0,12,8.8,18.7,19.5,18.7c7.2,0,12.8-2.7,16.1-7.6l-8.1-5.1c-1.6,2.1-4.1,3.7-7.8,3.7c-4.2,0-8.1-2.8-8.5-6.7h25.7
	c0.1-0.9,0.1-1.9,0.1-2.8C126.7,92.2,119.3,85,108.9,85L108.9,85z M46.4,85.1c-4.7,0-8.6,2.6-10.4,5.5v-4.5h-0.4H24.3v24
	c0,4.4,3,11.5,11.7,11.5v-19.1c0-0.1,0-0.1,0.1-0.2c0-4.1,2.1-7.6,6.3-7.6c4.2,0,5.3,3.6,5.3,7.5v19.4h11.8V99.7
	C59.3,92.5,55.9,85.1,46.4,85.1L46.4,85.1z M153.9,85.1c-4.1,0-7.5,2.3-9.3,5.6v-4.6h-0.4h-11.3v24c0,4.4,3,11.5,11.7,11.5v-18.2
	c0-2.9,2.1-8.1,8.3-8.1c0.9,0,1.9,0.1,3,0.4l0.5-10.3C155.9,85.2,154.9,85.1,153.9,85.1z M4.9,86.1v24c0,4.4,3,11.5,11.7,11.5V86.1
	H4.9z M108.9,93c4.6,0,7,3.1,7,6.8h-15C101.2,96.2,104.5,93,108.9,93z"/>
<path id="path865" fill="#9CA3AF" d="M293.3,67.7v27.6v26.3h10.8V117h0.1c2.3,3.6,6.9,5.6,11.6,5.6c10.7,0,16.9-9,16.9-18.9
	s-6.4-18.6-16.7-18.6c-5.2,0-8.8,2.4-10.8,4.8H305V79.2C305,74.8,302,67.7,293.3,67.7z M337,67.7v27.6v26.3h10.8V117h0.1
	c2.3,3.6,6.9,5.6,11.6,5.6c10.7,0,16.9-9,16.9-18.9s-6.4-18.6-16.7-18.6c-5.2,0-8.8,2.4-10.8,4.8h-0.1V79.2
	C348.7,74.8,345.7,67.7,337,67.7z M279.6,68.4c-3.8,0-6.7,3-6.7,6.4c0,3.5,2.9,6.4,6.7,6.4c3.7,0,6.7-2.8,6.7-6.4
	C286.3,71.2,283.3,68.4,279.6,68.4z M186.8,69.8c-15.4,0-27.4,10.3-27.4,26.5c0,15.8,11.6,26.7,27.2,26.7c8.5,0,15.2-3.2,19.6-8.3
	l-8.5-8c-2.1,3-5.9,5.1-10.7,5.1c-8.4,0-14.3-6.3-14.3-15.5c0-8.9,6.1-15.5,14.5-15.5c3.8,0,7.9,1.5,10.2,4.6l8.3-8.3
	C201.5,72.4,193.9,69.8,186.8,69.8L186.8,69.8z M225.2,85c-5.8,0-11.7,2.1-15.8,6l5.9,6.3c2.1-2,5.4-3.6,8.8-3.6
	c3.6,0,6.4,1.6,6.4,5.1v0.6c-10.3,0-22.8,1.7-22.8,12c0,8.3,7.3,11.1,12.9,11.1c4.2,0,8.3-1.7,10-4.6h0.2v3.8h10.7v-17.9
	C241.6,90.8,237.1,85,225.2,85L225.2,85z M399.9,85c-10.8,0-19.2,7.4-19.2,19c0,12,8.8,18.7,19.5,18.7c7.2,0,12.8-2.7,16.1-7.6
	l-8.1-5.1c-1.6,2.1-4.1,3.7-7.8,3.7c-4.2,0-8.1-2.8-8.5-6.7h25.7c0.1-0.9,0.1-1.9,0.1-2.8C417.7,92.2,410.3,85,399.9,85L399.9,85z
	 M438,85c-5.8,0-11.7,2.1-15.8,6l5.9,6.3c2.1-2,5.4-3.6,8.8-3.6c3.6,0,6.4,1.6,6.4,5.1v0.6c-10.3,0-22.8,1.7-22.8,12
	c0,8.3,7.3,11.1,12.9,11.1c4.2,0,8.3-1.7,10-4.6h0.2v3.8h10.7v-17.9C454.3,90.8,449.9,85,438,85L438,85z M268.3,85.1
	c-4.1,0-7.5,2.3-9.3,5.6v-4.6h-0.4h-11.3v24c0,4.4,3,11.5,11.7,11.5v-18.2c0-2.9,2.1-8.1,8.3-8.1c0.9,0,1.9,0.1,3,0.4l0.5-10.3
	C270.2,85.2,269.2,85.1,268.3,85.1L268.3,85.1z M483.8,85.1c-4.7,0-8.6,2.6-10.4,5.5v-4.5H473h-11.3v24c0,4.4,3,11.5,11.7,11.5
	v-19.1c0-0.1,0-0.1,0.1-0.2c0-4.1,2.1-7.6,6.3-7.6c4.2,0,5.3,3.6,5.3,7.5v19.4h11.8V99.7C496.7,92.5,493.3,85.1,483.8,85.1
	L483.8,85.1z M273.8,86.1v24c0,4.4,3,11.5,11.7,11.5V86.1L273.8,86.1z M399.9,93c4.6,0,7,3.1,7,6.8h-15
	C392.2,96.2,395.5,93,399.9,93z M313,94.7c5.6,0,8.4,4.5,8.4,9.1c0,4.6-2.9,9.2-8.4,9.2c-5.3,0-8.6-4.5-8.6-9.1
	C304.5,99.3,307.8,94.7,313,94.7z M356.7,94.7c5.6,0,8.4,4.5,8.4,9.1c0,4.6-2.9,9.2-8.4,9.2c-5.3,0-8.6-4.5-8.6-9.1
	C348.2,99.3,351.5,94.7,356.7,94.7z M229.4,106.1h1.5v1.2c0,4.4-2.6,7.3-7.3,7.3c-2.4,0-5.1-0.9-5.1-3.6
	C218.5,106.8,224.2,106.1,229.4,106.1z M442.2,106.1h1.5v1.2c0,4.4-2.6,7.3-7.3,7.3c-2.4,0-5.1-0.9-5.1-3.6
	C431.2,106.8,437,106.1,442.2,106.1L442.2,106.1z"/>
<path id="path1143" fill="#9CA3AF" d="M157,61.2c8.2-8.2,18.2-14.8,34.4-14.4c20.6,0.6,37,7.5,55.1,11.8c-3.5,0.7-6.2,1.7-12.2,1.7
	c-15.2,0.1-32-9.4-47.9-9.1C174.2,51.1,165.8,56.4,157,61.2L157,61.2z"/>
<path id="path1143-9" fill="#9CA3AF" d="M153,51.7c10.2-9.8,22.7-17.7,42.9-17.1c25.7,0.7,46.1,9,68.7,14.1c-4.4,0.9-7.7,2-15.2,2
	c-19,0.2-40-11.3-59.8-10.8C174.5,39.6,164,46,153,51.7z"/>
<path id="path1143-9-8" fill="#9CA3AF" d="M148,43.5c13-12.8,28.8-23.1,54.2-22.4c32.5,0.9,58.3,11.8,86.9,18.5
	c-5.5,1.1-9.7,2.6-19.2,2.7c-24,0.2-50.6-14.7-75.6-14.2C175.2,27.7,161.9,36,148,43.5z"/>
<path id="path1143-9-8-4" fill="#9CA3AF" d="M143.4,34.8c16.4-16.2,36.3-29.1,68.5-28.3c41,1.1,73.6,14.8,109.6,23.3
	c-7,1.4-12.3,3.3-24.2,3.4c-30.3,0.3-63.8-18.6-95.4-17.9C177.7,14.9,160.9,25.4,143.4,34.8z"/>
</svg>
