<?xml version="1.0" encoding="utf-8"?>
<!-- Generator: Adobe Illustrator 26.1.0, SVG Export Plug-In . SVG Version: 6.00 Build 0)  -->
<svg version="1.1" id="Layer_1" xmlns="http://www.w3.org/2000/svg" xmlns:xlink="http://www.w3.org/1999/xlink" x="0px" y="0px"
	 width="810px" height="230px" viewBox="0 0 810 230" enable-background="new 0 0 810 230" xml:space="preserve">
<path fill="#9CA3AF" d="M264.5,112.9h-19.7v42.6c0,7.7,4.5,9.4,11.5,9.4c2.6,0,5.5-0.4,8.3-0.4V188c-5.8,0.2-11.7,0.9-17.5,0.9
	c-27.3,0-34.2-7.9-34.2-34.5v-41.6h-16.2V91.4h16.2V60.7h32v30.7h19.7L264.5,112.9z M425.5,112.9h-19.8v42.6c0,7.7,4.5,9.4,11.5,9.4
	c2.6,0,5.5-0.4,8.3-0.4V188c-5.8,0.2-11.7,0.9-17.5,0.9c-27.3,0-34.2-7.9-34.2-34.5v-41.6h-16.2V91.4h16.2V60.7h32v30.7h19.8
	L425.5,112.9z M94.2,147.3c0,28.6-14.6,43-44.6,43C15.9,190.4,5,170.9,5,142.5V137h31.2v11.8c0,8.4,4.6,13,12.8,13
	c7.7,0,12-4.3,12-16.6v-85h33.2V147.3z M168.7,129.1c-0.6-10.8-8.2-19.8-18.8-19.8c-11.2,0-18.7,8-20.5,19.8H168.7z M129.4,146.9
	c0.6,13.3,8.2,22,21.6,22c7.6,0,15.1-3.5,18.1-10.6h29.6c-5.8,22.4-26.5,32.1-48.1,32.1c-31.5,0-53-19-53-51.5
	c0-29.7,23.7-51,52.2-51c34.7,0,52,26.2,50.5,59H129.4z M295.7,155.7c0,4.8,2,8.4,5.2,10.8c3,2.2,7.3,3.3,11.7,3.3
	c6.1,0,14.9-2.6,14.9-10.2c0-7.5-9.9-8.9-15.4-10.2c-19.9-5-44.8-5.6-44.8-31.7c0-23.3,25.1-29.6,44.1-29.6
	c21.2,0,43.3,6.1,44.5,31.3h-29.2c0-4.1-1.5-6.7-4.1-8.4c-2.6-1.7-6.1-2.4-10-2.4c-5.2,0-13.6,0.6-13.6,7.3c0,9.1,21.2,10.8,35.7,14
	c19.5,3.9,24.5,18.1,24.5,26.1c0,25.9-24.5,34.5-46.3,34.5c-22.9,0-46.3-7.6-47.2-34.6L295.7,155.7z M472.1,170.9
	c15,0,20-8.5,19.3-28.4c-4.5,2.8-12.6,3.3-19.5,5.2c-7.1,1.7-13,4.6-13,12.3C459,167.7,465.1,170.9,472.1,170.9 M431.3,120.9
	c0.6-12.6,6.5-20.8,15-25.8c8.5-4.8,19.7-6.7,30.6-6.7c22.8,0,44.9,5,44.9,32.3v42.2c0,8.2,0,17.1,3.7,24.7h-31.7
	c-1.1-3-1.5-6-1.9-9.1c-8.2,8.5-20.2,11.9-31.7,11.9c-18.4,0-32.8-9.3-32.8-29.1c0-31.4,34.1-29,56-33.4c5.4-1.1,8.3-3,8.3-8.9
	c0-7.3-8.7-10-15.2-10c-8.7,0-14.3,3.9-15.8,12.1L431.3,120.9z M570.4,94.2c-4.8,3.2-8.6,7.8-10.9,13.8h-0.4V91h-30.7v96.7h31.6
	v-47.9c0-12.1,8.2-22.9,23.8-22.9c3.6,0,6.9,0.6,10.3,1.4L570.4,94.2z"/>
<path fill-rule="evenodd" clip-rule="evenodd" fill="#9CA3AF" d="M709.4,5l4.1,66.3H805l-87.6,58l19.3,95.7l-74.4-64.7l-100.2,52.1
	l59.8-82l-56.7-59.1h91.7L709.4,5z"/>
</svg>
