<?xml version="1.0" encoding="utf-8"?>
<!-- Generator: Adobe Illustrator 26.1.0, SVG Export Plug-In . SVG Version: 6.00 Build 0)  -->
<svg version="1.1" id="Layer_1" xmlns="http://www.w3.org/2000/svg" xmlns:xlink="http://www.w3.org/1999/xlink" x="0px" y="0px"
	 width="930px" height="188px" viewBox="0 0 930 188" enable-background="new 0 0 930 188" xml:space="preserve">
<path fill-rule="evenodd" clip-rule="evenodd" fill="#9CA3AF" d="M442.1,39.3c0.5-0.4,1.4-1,1.9-1.5c2.4-2.2,4.6-4.6,6.8-7.2
	c0.7-1,1.4-1.9,1.9-3c0.7-1.2,1.5-1.2,2.4-0.5c1.4,1,1.9,2,1.2,3.7c-0.4,1-0.8,2-1.2,3c-0.7,1.8-7.8,19-1,14.4
	c3.8-2.6,7.3-11.3,9.9-15.2c0.1-0.3,0.3-0.4,0.4-0.5c1.8,1,2.6,2.9,2,4.9c-0.5,1.9-1.2,3.7-1.9,5.6c-0.5,1.6-0.8,3.3-0.8,5.2
	c1.4,0,2.3-0.7,3-1.2c2.4-2.2,4.2-4.1,6-6.9c1.9-3.4,3.9-6.7,5.9-10.2c1.2-2.3,2.3-4.8,3.5-7.5c-0.8,0.1-1.4,0.1-1.9,0.1
	c-3.8,0.5-7.6,1.1-11.4,1.8c-0.5,0.1-1.1,0.1-1.6-0.3c-0.5-0.5-1.4-0.7-2-1l-1.6-0.4c-0.5-0.3-1.1-1-1-1.5c0-0.7,0.4-1,1-1.1
	c0.8-0.3,1.6-0.5,2.6-0.5c4.5-0.4,9-0.8,13.5-1.1c1.2-0.1,2.3-0.1,3.5-0.1c0.5,0,0.8-0.3,1.1-0.8c0.7-1.6,1.4-3.4,2.2-5
	c0.5-1.2,1-2.4,1.5-3.5c0.7-1.4,1.5-1.4,2.2,0c0.4,0.7,0.7,1.5,1,2.3c0.5,1.8,0.1,3.4-0.5,5c-0.3,0.5-0.4,1.1-0.8,1.8h1.4
	c4.8,0.1,9.5,0.1,14.3,0.3c1.9,0,3.7,0.3,5.6,0.5c0.1,0,0.4,0.1,0.5,0.1c0.8,0.3,1,0.7,0.5,1.5c-0.4,0.8-0.8,1.2-1.6,1.2h-3.9
	c-5-0.4-10.2-0.3-15.2,0c-0.7,0-1.5,0.1-2.3,0.1c-0.5,0-0.8,0.3-1.1,0.8c-2.2,3.8-8.3,19.7-9.1,22c-0.4,1.2-0.5,2.6-0.8,3.9v1
	c0.3,2.2,1,2.7,2.9,1.9c0.8-0.4,1.6-0.8,2.4-1.4c3.3-3,6.5-6.3,9.1-10.1c1-1.4,1.8-2.9,2.3-4.6c0.3-0.7,0.3-1.5,0.3-2.3
	c0-0.7,0-1.1,0.5-1.4s1,0.1,1.4,0.5l0.4,0.8c0.5,1.2,1.2,2.4,1.8,3.7c0.7,1.4,0.7,2.6,0,3.8c-1.5,2.7-1.4,5.6-1,8.8
	c0.7-0.3,2.6-1.1,4.4-1.9c2.9-1.4,6-3.1,7.6-4.2c0.5-0.4,1.1-0.7,1.5-1.4c2.9-4.4,6.7-7.3,11.2-9.5c1.1-0.5,2.3-0.8,3.5-1.1
	c2-0.4,3.7,0.7,4.6,2.9c0.4,0.8,0,1.8-0.8,1.9c-2.7,0.4-4.8,1.5-6.9,2.7c-3.4,2-6.9,5.8-8.4,8.8c2.4,0.1,5,0.3,7.1-1.2
	c2.9-2,4.4-4.5,5.7-6.7c0.3-0.5,0.7-1.1,1.1-1.5c0.7-0.8,1.1-0.8,1.9,0c0.4,0.5,1.1,1.5,1.2,2.6l0.8-0.8c2.4-2.9,4.5-4.8,6.9-7.9
	c0.4-0.5,1.5-1.9,2-2.4c0.5-0.7,1-0.5,1.6-0.1c1,0.5,1.5,1.6,1.9,2.6c0.3,0.7,0.1,1.4-0.1,2c-0.7,1.5-1.4,2.9-2,4.4
	c-1.6,3-3.4,6.9-3.8,9.1c-0.4,2,0.3,2.9,2,1.5c1-0.7,2-1.6,3.4-3.1c2.7-3.1,4.5-5.3,6.3-9c0.3-0.5,0.5-1,0.8-1.5
	c0.4-0.8,1.2-1,1.8-0.1s1.1,1.8,1.5,2.7c0.5,1.1,0.5,2.3,0.1,3.5c-0.4,1.5-1.2,4.1-1.2,5.3c1.1-0.1,2-0.4,3.1-0.8
	c1.4-0.4,2.2-1.1,2.4-2.9c0.7-3.9,3.4-9,5.7-11.4c1-1,1.9-1.9,3-2.7c2-1.5,4.4-2.2,6.8-2.3c1.6,0,2.2,0.4,2.7,2.2
	c2.9,8.8-5.7,13.5-11.3,17.5c1.1,0.1,2,0,3-0.1c3.9-0.7,7.8-1.8,11.6-3.3c2.3-0.8,4.5-1.6,6.8-2.4c1.4-0.5,2.2,0.1,2.2,1.8
	c0,1.1-0.3,1.9-1,2.6c-0.5,0.5-1.2,1.1-2,1.5c-2.9,1.4-5.7,2.4-8.7,3.4c-2.7,0.8-5.4,1.8-8.2,2.6c-1.5,0.4-3,0.5-4.5,0.7
	c-2,0.1-3.8-0.4-5.2-2.4c-1.5,0.7-3.1,1.4-4.6,2c-0.7,0.3-1.4,0.5-2,0.7c-1.1,0.3-1.6-0.1-2-1.2c-0.4-1.4-0.8-3.3-1.1-4.5
	c-0.7,0.7-1.5,1.2-2.2,1.9c-0.7,0.5-1.4,1.1-2,1.8c-1.4,1.2-2.9,2.4-4.6,3.3c-1.8,1-3.1,0.7-4.4-1.5c-1.1-2-1.8-3.9-1.9-5
	c-0.1-0.7-0.3-1.5-0.4-2.2c-2.3,1.6-4.6,3.3-6.8,5c-1,0.8-1.9,1.4-3,3.4c-3.1,5.4-4.9,11.2-6.7,17.4c0,0.1-0.1,0.3-0.3,0.5
	c-0.3-0.3-0.5-0.4-0.5-0.7c-0.5-1.1-1-2.3-1.4-3.4c-0.4-0.8-0.4-1.6,0-2.7c1.5-4.9,4.1-10.6,5.7-13.2c-4.9,1.2-9.5,1-12.4-3.3
	c-0.4,0.3-0.8,0.5-1.1,0.8c-2.6,1.9-5.4,3.5-8.3,4.9c-1.5,0.8-3.9-0.3-4.5-1.5c-1.2-3.1-1-5.7-1-9.5c-0.4,0.4-0.7,0.8-1,1.1
	c-2.3,3.1-5,6-7.9,8.7c-1.1,1-2.2,1.8-3.5,2c-3.5,1-7.2-1.4-7.8-5.6c-0.1-1.4-0.3-2.7-0.4-4.4c-0.4,0.5-0.7,1-1,1.4
	c-1.4,2.2-3,4.2-4.9,6c-1.4,1.2-2.6,2.3-4.5,2.7c-1.5,0.4-2.9-0.4-3-2.2c0-1.4,0.1-2.9,0.4-4.2c0.1-1.1,0.4-2.2,0.7-3.3
	c-1.5,1.8-2.7,3.4-4.2,5c-1,1.1-3.7,4.4-6.1,3.8c-1.4-0.3-2.7-1-3.5-2.3c-0.4-0.7-0.5-1.4-0.5-2c0-3,0.4-5.8,1.5-8.6l0.4-1.2
	c0,0,0-0.1-0.1-0.3l-1.8,1.8c-1.2,1.4-2.6,2.3-4.1,3.3c-3,1.9-6,4.1-8.7,6.4c-2.3,2-6.8,4.4-9.5,1.9c-2.7-2.3-3.3-6.9-2.6-10.3
	c0.7-3.4,2.3-6.4,4.5-8.8c9-10.3,14.2-1,14.8,2C442.1,37.8,442.1,38.9,442.1,39.3L442.1,39.3z M426.9,48.7c1.2-0.1,2.6-0.7,3.5-1.1
	c1.8-0.7,3.4-2,4.6-3c1.1-1,1.9-1.6,2.6-2.7c1.5-2.3,1.8-5.4,1.1-6.9c-0.4-1.1-3.4-2.4-7.6,2.7c-1.6,1.9-2.9,3.9-3.7,6.4
	C426.9,45.5,426.5,47,426.9,48.7L426.9,48.7z M562.4,42.1c3.3-1.6,5.2-2.7,7.8-4.9c1.2-1.1,2-1.9,3.4-3.8c0.3-0.4,1.1-1.4,0.7-2
	C568.7,32.8,565,36.6,562.4,42.1z M403.5,31c2-1.4,5.2-3.1,9-3.1c2.2,0,3.9,1,4.9,3.4c0.5,1.5,1.1,3.1,1.1,4.8
	c0.8,17.3-20.1,24.8-32.7,24.8c-1.1,0-2-0.3-3.1-0.5c-1-0.3-1.4-0.8-1.4-1.9c0-1.6,0.1-3.1,0.7-4.6c0.4-1.2,1-2.6,2.2-3.1
	c0.4-0.3,0.5-0.7,0.3-1.1c-0.4-0.7-0.7-1.5-1.2-2c-1.4-1.6-2.7-1.5-3.9,0.3c-0.3,0.4-0.4,0.7-0.5,1.1c-2.6,5.3-0.5,12.7,4.2,15.5
	c3.4,2,7.6,1.5,11.3,0.7c11.7-2.6,30.5-13.1,27.8-28.8c-1-5.8-2.7-10.5-9.4-12.9c1.6-2.4,3.4-5.2,2.2-8.4c-2.6-7.2-9.7-5.8-16.1-3.4
	c-1.6,0.5-2.6,1.1-3.7,1.8c-3.9,2.3-7.2,5-10.2,8.6c-0.5,0.5-0.8,1.2-0.5,2c0.5,1.6,1.6,2.6,3,3.3c0.3,0.1,1.2-1.2,1.9-2
	c3.5-4.1,6.3-5.8,11-8.2c1.2-0.5,2.2-0.8,2.6-1c-0.1,1-0.4,2.6-0.7,3.3c-0.8,3-1.4,5-2.3,8c-1.9,6-4.8,11.6-8,16.9l-1.6,2.4
	c-0.4,0.5-0.5,1.2-0.1,1.9c0.5,1.1,1.4,1.9,2.6,2c1.1,0.1,1.6-0.7,2-1.5c3.5-5.4,6.4-11.3,8.7-17.5C403.3,31.3,403.3,31.2,403.5,31
	 M410.6,17.4c-1.4,2.2-2.2,3.1-4.2,4.6h-0.3c0.1-3.1-1-4.8-3-6.5c2.7-1.1,5.9-1.5,8.2-1.2C411.5,15.1,410.8,16.8,410.6,17.4
	L410.6,17.4z M648.5,49.8c1.2,0.1,2.2,0.1,3.1-0.5c4.1-2.7,7.8-6.1,11.2-9.9c0.3-0.3,0.4-0.7,0.5-1c1.8-5.6,2.9-11.4,5.3-16.7
	c1.2-2.7,5.4-9.8,9.9-14.7c1.2-1.4,2-2.2,2.4-1.9c0.8,0.7,3,5.3,3.4,8.4c0.4,2.4-1.1,4.8-2.2,6.9c-1.2,2.4-2.6,4.9-4.1,7.3
	c-3.3,5.3-7.1,10.1-11,14.7c-1,1.1-1.4,3.9-0.8,5.2c0.7,1.6,1.2,1.4,1.8,1.1c6.8-4.2,11.4-11.3,14.2-15.5c0.1-0.3,0.3-0.4,0.4-0.7
	c0.4-0.5,0.8-0.5,1.2-0.1c0.8,1.1,1.5,2.2,2,3.4c0.1,0.3,0,1-0.3,1.4c-1.8,3.1-4.6,8.6-5.6,11.3c5-1.2,11.6-6.1,17.4-15
	c0.8-1.4,2.9-4.9,4.4-3c0.5,0.8,1.2,1.5,1.6,2.4c0.3,0.7,0.5,1.4,0.5,2.2c0,1.5-0.1,2.9-0.1,4.4c0,0.3,0,0.7-0.1,1.2l0.5-0.5
	c1.8-1.9,3.4-3.7,5.2-5.4c0.7-0.7,1.5-1.2,2.3-1.9c0.4-0.3,1-0.5,1.5-0.5c1,0,1.6,0.3,2,1.2c0.4,0.8,1,1.8,1.1,4.1
	c0.1,1.2-0.1,2.4-0.8,4.1c-0.7,1.6-1.2,3.4-1.8,5.2c-0.3,0.7-0.4,1.4-0.7,2.4c2-0.7,4.4-2.6,6.3-3.8c0.5-0.4,1-1,1.1-1.8
	c2-6.7,5.9-12,11.3-15.6c0.7-0.4,1.4-0.8,2.2-1.1c3.1-1.6,4.1,2.2,4.4,3.1c0.3,1-0.3,3.7-1,5.4c-1.4,3.3-3.4,5.7-6,7.8
	c-2.4,1.9-7.1,5.2-8.6,6.5c1,1.4,5.3,0.8,7.1,0.7c4.5-0.5,8.8-1.9,13.2-3.1c1.5-0.4,5.6-1.8,6.7-2.2c1.2-0.4,1.2-0.3,1.6,1.1
	c0.3,0.8,0.5,1.6,0.7,2.6c0.1,1,0,1.2-0.7,1.5c-0.8,0.3-1.6,0.7-2.3,0.8c-4.2,1.2-8.4,2.4-12.8,3.5c-3.1,0.8-8.4,1.6-12.2,0.5
	c-1.4-0.4-2.3-1.2-2.9-2.7c-0.1-0.4-0.3-0.7-0.5-1.1c-0.3,0.1-2.4,1.6-4.1,2.3c-0.7,0.3-1.4,0.7-2,0.8c-2.2,0.5-2.9-0.1-3.7-2.3
	c-1.1-2.9-0.7-5.6,0.1-8.3c0.4-1.4,0.8-2.9,1.4-4.5c-0.3,0.3-0.5,0.4-0.7,0.5c-5.9,5.3-9.7,14-11.4,15.6c-1.1,1.1-1.6,1.1-2.4-0.3
	c-0.3-0.4-0.4-1-0.7-1.4c-0.7-1.1-0.8-2.2-0.5-3.4c0.4-1.5,2.3-7.9,3-10.6c-1,1.2-3.4,4.2-4.9,6c-2.6,3.1-7.3,7.6-12,9.7
	c-1.4,0.5-2.6,0.3-3.5-1c-1.2-1.5-2-3.1-2.4-5.2c0-0.4-0.1-0.8-0.3-1.4c-0.4,0.4-0.8,0.7-1.1,1c-2.3,2.2-4.8,4.4-7.5,6.1
	c-1.5,1-2,0.7-3.1-0.7c-1.5-1.9-3.1-4.2-3.1-5.8c-1.5,1.9-3.1,3.3-4.8,4.5c-2,1.4-4.1,1.9-6.5,2c-2.3,0.1-5.3-3-5.2-6.9
	c0-1.2,0.3-2.3,0.7-3.5c0.3-1,0.8-1.9,1.4-2.7c1.2-2,2.6-4.1,3.8-6c0.3-0.4,0.4-0.7,0.7-1.1c-0.7-0.4-1.1,0-1.5,0.5
	c-1.5,1.9-3,3.8-4.5,5.8c-1.5,1.9-9.5,9.1-12.2,10.5c-2.4,1.2-4.8,2.7-7.3,3.3c-1.4,0.3-1.6,0.1-2.3-1.2c-1.1-2.3-2-4.6-1.6-7.3
	c0-0.1,0-0.1-0.1-0.3l-5.3,2c-0.5,0.1-0.5,0.7-0.7,1.1c-0.7,4.1-1.4,8.3-1.9,12.4c-0.3,1.5-0.4,3-0.7,4.5c0,0.5-0.1,1-0.7,1.1
	c-0.5,0.1-0.8-0.3-1.1-0.7c-1.1-1.8-1.5-3.8-1.1-5.8c0.5-3.1,1-6.4,1.5-9.5c0.1-0.5,0.1-1,0.1-1.6c-1.2,0.3-4.8,1.2-7.5,1.4
	c-1,0-2.2-0.3-3.1-1.2c-0.8,0.8-1.5,1.6-2.3,2.3c-0.7,0.7-1.4,1.5-2.2,2c-1.2,1-2.2,0.8-3.1-0.4c-0.1-0.1-0.3-0.3-0.4-0.5
	c-1-1.5-1-2,0.4-3.3c10.5-9.7,18-24.5,20.6-28.4c1.2,1.2,2.2,2.6,3,4.1c0.1,0.3,0.1,0.5,0.1,1c0.1,1.9,0,11.6-0.8,15.9
	c0.3,0,0.5-0.1,0.8-0.1c1.5-0.5,2.6-1.2,3.9-2.6c1.2-1.1,2.4-2.4,4.8-5.3c0.5-0.7,1.1-0.8,1.5-0.1c0.7,1,1.2,2,1.8,3.1
	c0.3,0.7,0,1.2-0.3,1.8c-1.2,3-2.3,6-3.4,9c-0.3,0.5-0.3,1.1-0.4,1.9c0.4-0.1,0.5-0.1,0.7-0.1c8.2-2.9,17.4-13.7,18.9-16.9
	c0.3-0.5,0.4-1,0.1-1.6c-0.1-0.3-0.1-0.5-0.1-0.8c0-0.4,0.1-0.8,0.3-1.1c0.1-0.1,0.7,0,0.8,0.1c0.5,0.4,1.1,0.4,1.6,0.4
	c1.9-0.1,3.8-0.3,5.7-1.2c1.1-0.5,1.5-0.4,2.2,0.8c0.4,0.8,0.7,1.5,1.1,2.3c0.3,0.5,0.3,1.2,0,1.8C656.2,35.3,649.7,45.9,648.5,49.8
	L648.5,49.8z M614.8,31.3h-0.1c-3,4.6-6,9.1-9.1,14c2.4-0.7,4.6-1.2,6.9-1.8c0.7-0.1,1-0.5,1-1.2c0.1-0.8,0.3-1.8,0.4-2.6
	C614.2,36.8,614.6,34,614.8,31.3z M669.7,31c0,0,0.1,0,0.1,0.1c4.8-6,8.8-14.6,9.9-16.7c0.3-0.5,0.3-1-0.3-1.5
	C678.1,14.7,671.7,22.6,669.7,31L669.7,31z M726.2,40.7c2.6-1.2,7.8-6.8,8.3-8.7C731.1,33.2,727.8,36.6,726.2,40.7z M631.9,27
	c-1.8,1.9-1.8,2-0.7,4.4c0,0.1,0.1,0.3,0.1,0.4c0.7,1.4,1.2,1.6,2.3,0.5c1.5-1.5,3-3,4.4-4.5c0.1-0.1,0.3-0.7,0.3-1
	c-0.5-1.5-1.2-2.9-2.3-4.1C634.6,24.2,633.2,25.6,631.9,27L631.9,27z M689.1,21.4c-0.8,1.1-1.8,2.2-2.6,3.3c-0.7,0.7-1,1.2-0.5,2
	c0.4,0.8,0.8,1.8,1.4,2.4c0.4,0.5,0.8,0.8,1.5,0.4c1.4-1,2.4-2.2,3.1-3.4c0.4-0.8,0.3-1,0.1-1.4c-0.4-1.5-1.1-2.9-2-4.2
	C689.4,21,689.3,21.2,689.1,21.4z M500.8,26.1c-0.7,0.7-1.5,1.4-2.3,2.2c-0.8,0.5-1.1,1-0.7,1.8c0.4,0.8,1,1.6,1.5,2.6
	c0.4,0.7,1.1,0.8,1.6,0.4c0.4-0.1,0.8-0.5,1.1-1c0.3-0.4,1-1.4,1.5-2c0.3-0.3,0.1-0.7-0.1-1.1c-0.5-1.1-1.2-2.2-2.2-3.1
	C501.1,25.9,500.9,26,500.8,26.1z M327,69.4c-22,0-40,18-40,40s18,40,40,40s40-18,40-40S349,69.4,327,69.4L327,69.4z M327,127.9
	c-10.2,0-18.6-8.3-18.6-18.6c0-10.2,8.3-18.6,18.6-18.6c10.2,0,18.6,8.3,18.6,18.6S337.3,127.9,327,127.9z M309.3,158.5
	c-13.5,15-33.1,24.5-54.8,24.5c-40.7,0-73.8-33.1-73.8-73.7s33.1-73.7,73.8-73.7c21.8,0,41.2,9.4,54.8,24.5
	c-9.3,3.4-17.3,9.3-23.3,16.7c-8.2-7.9-19.3-12.8-31.6-12.8c-25,0-45.3,20.3-45.3,45.3c0,24.9,20.3,45.3,45.3,45.3
	c12.2,0,23.4-4.9,31.6-12.8C292,149.4,300.1,155.2,309.3,158.5L309.3,158.5z M458.9,69.9h-36.2l5.3,3.8l-8.3,33.7l-9.4-37.5h-36.5
	l6.7,4.8v69.1l-6.7,4.8h32l-4.9-3.5V98.7l17.7,50.1h1.9l17.8-49.9v46.4l-5,3.7h32.3l-6.7-4.9V69.9z M550.6,97.2
	c0,19.5-16.5,26.4-32,26.4h-14.4v20.3l6.7,4.9h-34.7l6.7-4.9v-69l-6.7-4.9h45.7C540.9,69.9,550.6,79.2,550.6,97.2L550.6,97.2z
	 M529.4,96.3c0-9.4-6.7-10.1-14-10.1h-11.2v21.1h11.6C524.2,107.4,529.4,105.5,529.4,96.3z M629,143.8l6.7,4.8h-32.5l4.1-3l-2.9-9.4
	h-26.7l-2.9,9.3l4.1,3h-32.7l6.7-4.9l25.6-69l-6.7-4.8h29.8L629,143.8z M599.2,120.6l-8.6-27.6l-8,27.6H599.2z M147.9,143.8l6.7,4.8
	H122l4.1-3l-2.9-9.4H96.5l-2.9,9.3l4.1,3H65l6.7-4.9l25.6-69l-6.5-4.6h29.9L147.9,143.8z M118.1,120.6l-8.6-27.6l-7.9,27.6H118.1z
	 M32.9,131.6V69.9H5l6.7,4.9v69L5,148.7h49.4v-23.8l-4.8,6.7H32.9z M796.9,69.9h-27.1l6.7,4.9v38.9l-25.6-43.8h-27.1l6.7,4.9v69
	l-6.7,4.9h32.3l-5-3.7v-39.3l23.4,39.6l-4.6,3.4h33.9l-6.8-4.9V69.9z M921.3,87l3.7,5v-22h-65.5l6.7,4.9v69l-6.7,4.9h65.3v-23.9
	l-4.9,6.7h-32.7v-16.1h22.3l3.7,5V93.8l-3.7,5h-22.3V87L921.3,87z M842.1,69.9h-27.9l6.7,4.9v69l-6.7,4.9h34.6l-6.7-4.9L842.1,69.9z
	 M710.5,104.8h-35.9V121h12.8c-3.9,9.4-11.3,9.4-14.3,9.4c-12.8,0-17.3-11.2-17.3-21.5c0-11.7,7.6-21,17.8-21.5
	c6.9-0.4,12.7,1.9,17.4,6.8l-2,6.7l4.8-3.5l16.6-12.1c-9.3-12.7-22.7-19.2-37.7-18.4c-21.2,1.2-37.3,19.2-37.3,42
	c0,24.8,15.5,42,37.8,42c5,0,14.2-1.1,21.2-9.7v7.5h21.2l-5-3.7L710.5,104.8z"/>
</svg>
