<?xml version="1.0" encoding="utf-8"?>
<!-- Generator: Adobe Illustrator 26.1.0, SVG Export Plug-In . SVG Version: 6.00 Build 0)  -->
<svg version="1.1"
	 id="svg2" inkscape:output_extension="org.inkscape.output.svg.inkscape" inkscape:version="0.46" sodipodi:docname="Logo LOT_Polish_Airlines.svg" sodipodi:version="0.32" xmlns:cc="http://creativecommons.org/ns#" xmlns:dc="http://purl.org/dc/elements/1.1/" xmlns:inkscape="http://www.inkscape.org/namespaces/inkscape" xmlns:rdf="http://www.w3.org/1999/02/22-rdf-syntax-ns#" xmlns:sodipodi="http://sodipodi.sourceforge.net/DTD/sodipodi-0.dtd" xmlns:svg="http://www.w3.org/2000/svg"
	 xmlns="http://www.w3.org/2000/svg" xmlns:xlink="http://www.w3.org/1999/xlink" x="0px" y="0px" width="500px" height="240.1px"
	 viewBox="0 0 500 240.1" enable-background="new 0 0 500 240.1" xml:space="preserve">
<defs>
	
		<inkscape:perspective  id="perspective10" inkscape:persp3d-origin="372.04724 : 350.78739 : 1" inkscape:vp_x="0 : 526.18109 : 1" inkscape:vp_y="0 : 1000 : 0" inkscape:vp_z="744.09448 : 526.18109 : 1" sodipodi:type="inkscape:persp3d">
		</inkscape:perspective>
	
		<inkscape:perspective  id="perspective2441" inkscape:persp3d-origin="93.5 : 28.666667 : 1" inkscape:vp_x="0 : 43 : 1" inkscape:vp_y="0 : 1000 : 0" inkscape:vp_z="187 : 43 : 1" sodipodi:type="inkscape:persp3d">
		</inkscape:perspective>
</defs>
<sodipodi:namedview  bordercolor="#666666" borderopacity="1.0" id="base" inkscape:current-layer="layer1" inkscape:cx="8.5714286" inkscape:cy="520" inkscape:document-units="px" inkscape:pageopacity="0.0" inkscape:pageshadow="2" inkscape:window-height="750" inkscape:window-width="1280" inkscape:window-x="-8" inkscape:window-y="-8" inkscape:zoom="0.35" pagecolor="#ffffff" showgrid="false">
	</sodipodi:namedview>
<path id="path14" fill-rule="evenodd" clip-rule="evenodd" fill="#9CA3AF" d="M112.3,10l-1,3.7l-10.9,0.1l0,0
	c-2.1,0-3.4,5.9-1.8,5.9l8.9,0.6c5.6,0.2,1.1,13.5-4.6,13.5l0,0L90.2,34l1-3.8l11.7-0.2l0,0c2.7-0.1,4.7-6.2,2.4-6.2
	c-3.3,0-5.4-0.2-6.9-0.2c-4,0-4.7-2.3-4.7-6.5c0-3.4,3.6-7.2,7.3-7.2l0,0H112.3L112.3,10z M16.3,26.3l-1.8,7.6H10l5.1-23.9h10.3l0,0
	c1.7,0,6.4,1,7,3.4c1.1,3.9-1.3,9.8-3.1,11c-1.1,0.7-3,1.8-6.3,1.8l0,0H16.3L16.3,26.3z M17.1,22.5h5.5l0,0c3,0,4.5-0.2,5.5-3.9
	c0.5-1.9,0.7-4.6-3.6-4.6l0,0h-5.8L17.1,22.5L17.1,22.5z M47.9,13.7c-3.7,0-6.2,2.3-6.6,5l0,0L40,24.9l0,0c-0.6,3.1-0.3,5.2,4.2,5.2
	c4,0,5.9-0.9,6.9-4.6l0,0l1.6-6.2l0,0C53.4,14.7,52.3,13.7,47.9,13.7L47.9,13.7L47.9,13.7z M48.5,10.1L48.5,10.1L48.5,10.1
	c-6.1,0-10.5,2.6-11.6,9c-1.4,7.5-5.9,14.9,5.9,14.9c2.9,0,8.3-0.4,9.6-2.3c2.3-3.4,4.8-11,4.8-13.5C57.2,12.1,55.6,10.1,48.5,10.1
	L48.5,10.1L48.5,10.1z M64.2,10.1h4.6l-4.1,20.1h10.9l-0.8,3.8H59.1L64.2,10.1L64.2,10.1z M84.5,10.1H89l-5.1,23.9h-4.5L84.5,10.1
	L84.5,10.1z M119.4,10.1h4.6l-2.1,9.8h11.1l2-9.8h4.5l-5,23.9H130l2-10.2h-10.8L119,33.9h-4.5L119.4,10.1L119.4,10.1z M156.7,26.1h8
	l-1.4-12.6L156.7,26.1L156.7,26.1z M160.5,10.1h6.6l3,23.9h-4.6l-0.5-4.3h-10.2l-2.4,4.3h-4.8L160.5,10.1L160.5,10.1z M179.4,10.1
	h4.4l-5,23.9h-4.5L179.4,10.1L179.4,10.1z M200.7,14h-6.4l-1.7,8.4h6.6l0,0c2.9,0,4.7-1.4,5-4.1C204.4,15.5,204.1,14,200.7,14
	L200.7,14L200.7,14z M202.2,10.1c9.5,0,7.8,14,0.3,14.2c5.2-0.1,2.6,6.9,2,9.7l0,0H200l0.7-3.5l0,0c0.5-2.7,0.7-4.3-3-4.3l0,0h-5.9
	l-1.7,7.8h-4.5l5.1-23.9H202.2L202.2,10.1z M215.8,10.1l-5,23.9h15.6l0.8-3.8h-10.9l4.2-20.1H215.8L215.8,10.1z M236,10.1h4.5
	l-4.9,23.9h-4.5L236,10.1L236,10.1z M247.3,10.1h7.4l5.9,20.1h0.2l3.7-20.1h4.5l-5,23.9h-7.5L250.9,14h-0.2l-3.9,19.9h-4.4
	L247.3,10.1L247.3,10.1z M314.8,10l-1,3.7l-10.9,0.1l0,0c-2.1,0-3.4,5.9-1.8,5.9l8.9,0.6c5.6,0.2,1.1,13.5-4.6,13.5l0,0L292.7,34
	l0.9-3.8l11.7-0.2l0,0c2.7-0.1,4.7-6.2,2.4-6.2c-3.3,0-5.4-0.2-6.9-0.2c-4,0-4.7-2.3-4.7-6.5c0-3.4,3.6-7.2,7.3-7.2l0,0H314.8
	L314.8,10z M270.7,33.9l4.9-23.9h16.1l-0.6,3.9h-11.8l-1.2,6.1h11l-0.7,3.8h-11l-1.4,6.3h11.7l-0.8,3.8H270.7z"/>
<path id="path18" fill-rule="evenodd" clip-rule="evenodd" fill="#9CA3AF" d="M257.2,156.6c1.1-3.8,1.7-7.5,2-11.2
	c1-14.1-8.7-30.1-28.6-32.5l0,0h-10l0,0c-19.7,2.4-28.7,18.3-28.7,32.5c0,3.9,0.8,8.7,2.1,12.6c3.6,9.8,11.6,18.3,26.3,19.9
	C237.8,178.5,250.6,174.6,257.2,156.6L257.2,156.6L257.2,156.6z M229.7,60.7H490l-13.6,52.1h-53L392,230.1h-58.4L365,112.8h-55l0,0
	c6.1,10.6,9.3,21.7,8.5,32.5c-2.6,38.7-24.2,83.1-90.4,84.6l0,0l0,0h-159v0.1H10.7L56.1,60.8h58.4l-31.4,117h53.6l0,0
	c-4-10.6-5.9-21.7-5.9-32.5c0-39.4,30.1-84.6,93.8-84.6c1.7,0,3.3,0,4.9,0.1l0,0L229.7,60.7z"/>
<path id="path22" fill-rule="evenodd" clip-rule="evenodd" fill="#9CA3AF" d="M257.5,155.7l-0.7,1.7h-33.1l10,7.2l0,0
	c3.8,2.7,4,9.4,2.1,12.1l0,0l-18.9-19.2l-22.9,0.1l-0.4-0.9l0,0c7.8-2.1,15.4-4.5,22.3-6.8l0,0l17.3-36.5l0,0
	c1.8,3.7,6.8,7.4,3.2,13l0,0l-13.4,21.2l0,0c8-2.1,9.9,5.7,12.1,7.2c1.7,1.1,6.2,0.9,8.7,0.4c2.7-0.6,0.2-3.3,2.4-3.3
	c11,0,6.8,4.9,9.7,4.3C256.4,156.1,257,155.6,257.5,155.7L257.5,155.7z"/>
</svg>
