<?xml version="1.0" encoding="utf-8"?>
<!-- Generator: Adobe Illustrator 26.1.0, SVG Export Plug-In . SVG Version: 6.00 Build 0)  -->
<svg version="1.1" id="Layer_1" xmlns="http://www.w3.org/2000/svg" xmlns:xlink="http://www.w3.org/1999/xlink" x="0px" y="0px"
	 width="920px" height="105px" viewBox="0 0 920 105" enable-background="new 0 0 920 105" xml:space="preserve">
<path fill="#9CA3AF" d="M538.4,37.2c-13.5,0-20,5.2-20.5,14.8h13.3c0.2-2.5,1.6-4.4,7.2-4.4c5,0,7.3,1.6,7.3,4.1
	c0,2.2-1.4,3-4.7,3.3l-8.7,0.9c-11.8,1.3-17.1,6.1-17.1,15c0,8.2,5.1,14.6,15.8,14.6c7.3,0,11.7-2.3,15.5-7.1v5.7H559V54.2
	C559,41.6,551.7,37.2,538.4,37.2 M546,66.4c0,5-4.7,8.7-11.9,8.7c-3.5,0-5.6-1.6-5.6-4.7c0-2.4,1.4-4.3,6.1-5l7.9-1.1
	c1.4-0.2,2.8-0.5,3.6-0.7L546,66.4z M494.4,55.5c11.6,1.5,17.4,5.2,17.4,14.6c0,9.6-6.8,15.3-21.2,15.3c-15.6,0-21.2-6.2-21.4-15.4
	h13.5c0.4,3.3,2.7,5,8,5c5.3,0,7.5-1.3,7.5-3.8c0-2.4-1.8-3.4-6.5-4.1l-4.8-0.6c-10-1.4-15.8-5.2-15.8-14.3
	c0-8.7,6.4-15.1,19.9-15.1c12.5,0,19.2,5,19.8,14.8h-13.3c-0.5-2.6-1.9-4.2-6.5-4.2c-4.5,0-6.2,1.5-6.2,3.5c0,2,1.1,3.1,5,3.6
	L494.4,55.5 M447.7,37.2c11.8,0,17.9,5.2,17.9,20.2v26.7H452v-26c0-6.1-2.6-8.8-8.3-8.8c-5.2,0-8.2,2.7-8.2,8.8v26h-13.7V38.5h12.8
	v5.2C436.5,40.3,440.4,37.2,447.7,37.2 M395.5,37.2c-13.5,0-20,5.2-20.5,14.8h13.3c0.2-2.5,1.6-4.4,7.2-4.4c5,0,7.3,1.6,7.3,4.1
	c0,2.2-1.4,3-4.7,3.3l-8.7,0.9c-11.8,1.3-17.1,6.1-17.1,15c0,8.2,5.1,14.6,15.8,14.6c7.3,0,11.7-2.3,15.5-7.1v5.7h12.5V54.2
	C416.1,41.6,408.8,37.2,395.5,37.2 M403.1,66.4c0,5-4.7,8.7-11.9,8.7c-3.5,0-5.6-1.6-5.6-4.7c0-2.4,1.4-4.3,6.1-5l7.9-1.1
	c1.4-0.2,2.8-0.5,3.6-0.7V66.4z M350.6,37.2c11.6,0,17.6,5.2,17.6,20.2v26.7h-13.7v-26c0-6.1-2.6-8.8-8.3-8.8
	c-5.2,0-8.2,2.7-8.2,8.8v26h-13.7V20.9h13.7V43C340.5,39.6,344.2,37.2,350.6,37.2 M310,38.5h10.4v11.1H310v17.7
	c0,4.9,2.5,6.1,6.5,6.1c1.6,0,3.9-0.3,3.9-0.3v10.9c0,0-3.2,0.7-6.5,0.7c-10.9,0-17.5-5-17.5-16V49.7h-6.9V38.5h6.9V25.2H310V38.5z
	 M262.2,36.8c0-11,7-16.9,17.9-16.9c3.5,0,5.8,0.5,5.8,0.5v11c0,0-1.9-0.2-3.5-0.2c-4.3,0-6.5,1.4-6.5,5.4v1.8h10v11.1h-10v34.4
	h-13.7V49.7h-6.9V38.5h6.9L262.2,36.8 M238.1,38.5h13.7v45.6h-12.8v-5.2c-1.9,3.5-5.8,6.6-12.9,6.6c-11.7,0-17.7-5.2-17.7-20.2V38.5
	h13.7v26c0,6.1,2.6,8.8,8.1,8.8c5,0,8.1-2.7,8.1-8.8L238.1,38.5L238.1,38.5z M177.9,71.3h27.2v12.7h-41.9V20.8h14.7L177.9,71.3
	L177.9,71.3z M52.5,99.9c26.3,0,47.5-21.3,47.5-47.5C100,26.2,78.8,5,52.5,5C26.3,5,5,26.2,5,52.5C5,78.6,26.3,99.9,52.5,99.9
	 M73.9,73l4-3.8h-0.9c-10.1,0-19.1-3.3-24.3-8.9c4.4-2.7,9.8-3.9,17.3-3.9c2,0,4.8,0.2,7.5,0.5l2.3-2.2c-3.9-0.5-7.6-0.7-10.7-0.7
	c-2.6,0-4.8,0.1-7.2,0.3l1.7-2.1c1.3-0.1,4.2-0.2,6.1-0.2c5,0,8.4,0.2,12.2,0.8l2.2-2.1c-4-0.7-9.5-1-14.5-1c-1,0-2.4,0-4.1,0.1
	l1.2-2.1h2c7.1,0,12.4,0.4,17.3,1.2l2.2-2.1c-5.4-0.9-12-1.5-18.6-1.5h-1.6l1-2h1.8c6.9,0,13.2,0.6,19.3,1.7l2.3-2.2
	c-6.8-1.3-14.2-2-22-2c-3.4,0-6.8,0.2-10.1,0.5c-3.8,8.2-9.9,12.9-16.7,12.8c-2.7-0.1-6-1.2-10.3-3.5l-4-2.3l1.2-1.1l9.2,4l2-1.5
	l-18.6-8.4L20,43.3l-6.6-2.8l0.1,2.8c8.9,4.1,12.6,6.4,22,13.1C47.7,65.2,58.7,69.9,73.9,73 M52.5,96.5c-24.2,0-44.1-19.8-44.1-44
	c0-24.3,19.8-44,44.1-44c24.3,0,44.1,19.7,44.1,44C96.6,76.7,76.8,96.5,52.5,96.5 M616.1,19.5c19.6,0,28.6,9.4,30.7,22.9h-15.2
	c-1.8-6.4-6.2-9.9-15.5-9.9c-11.6,0-16.6,7.4-16.6,20s5,20,16.6,20c9.3,0,13.7-3.4,15.5-9.9h15.2c-2.1,13.5-11,22.9-30.7,22.9
	c-22.9,0-31.7-14-31.7-33S593.2,19.5,616.1,19.5 M664.8,32.5h-13.7V20.8h13.7V32.5z M664.8,84.1h-13.7V38.5h13.7V84.1z M689.4,49.7
	v17.7c0,4.9,2.5,6.1,6.5,6.1c1.6,0,3.9-0.3,3.9-0.3v10.9c0,0-3.2,0.7-6.5,0.7c-10.9,0-17.5-5-17.5-16V49.7h-6.9V38.5h6.9V25.2h13.7
	v13.3h10.4v11.1L689.4,49.7z M752,38.5L725.9,100h-14.5l8.1-17.9l-18.3-43.6h15.1l9.9,27.4l10.6-27.4L752,38.5L752,38.5z
	 M796.4,71.3v12.7h-41.9V20.8h14.7v50.5H796.4z M815.1,32.5h-13.7V20.8h13.7V32.5z M815.1,84.1h-13.7V38.5h13.7V84.1z M846.4,37.2
	c11.8,0,17.9,5.2,17.9,20.2v26.7h-13.7v-26c0-6.1-2.6-8.8-8.3-8.8c-5.2,0-8.2,2.7-8.2,8.8v26h-13.7V38.5h12.8v5.2
	C835.2,40.3,839.1,37.2,846.4,37.2 M914.8,65h-32.6c0.6,6.9,3.5,9.5,10.3,9.5c5.2,0,7.2-1.4,8.1-4.4h13.5c-0.8,8.9-8,15.4-21.5,15.4
	c-17.2,0-23.9-9.7-23.9-24.1c0-12.2,5.5-24.1,23.2-24.1c16.6,0,23.2,9.6,23.2,24C915,62.3,915,63.8,914.8,65 M901.1,55.6
	c-0.5-4.7-2.5-7.9-9.2-7.9c-5.9,0-8.5,2.4-9.4,7.9H901.1z"/>
</svg>
