<?xml version="1.0" encoding="utf-8"?>
<!-- Generator: Adobe Illustrator 26.1.0, SVG Export Plug-In . SVG Version: 6.00 Build 0)  -->
<svg version="1.1"
	 id="svg8" xmlns:cc="http://creativecommons.org/ns#" xmlns:dc="http://purl.org/dc/elements/1.1/" xmlns:rdf="http://www.w3.org/1999/02/22-rdf-syntax-ns#" xmlns:svg="http://www.w3.org/2000/svg"
	 xmlns="http://www.w3.org/2000/svg" xmlns:xlink="http://www.w3.org/1999/xlink" x="0px" y="0px" width="500px" height="100px"
	 viewBox="0 0 500 100" enable-background="new 0 0 500 100" xml:space="preserve">
<path id="path2358" fill="#9CA3AF" d="M6.4,73.1h7V16.8h-7V73.1z"/>
<path id="path2360" fill="#9CA3AF" d="M52.1,73.1v-7.3C44.4,72.1,40.3,74,36.3,74c-9.5,0-11-5.2-11-12.4V32.3h7v31.3
	c0,3.8,1.9,5.6,5.2,5.6c2.2,0,4.4-0.8,14.4-8.8v-28h7v29.4v11.4"/>
<path id="path2362" fill="#9CA3AF" d="M96.5,73.1L85.2,56.3L73.9,73.1h-7.7l15-20.9L66.8,32.3h7.7l10.6,15.8l10.6-15.8h7.7
	L89.2,52.2l15,20.9"/>
<path id="path2364" fill="#9CA3AF" d="M136.1,53.3h-12.8c-8.2,0-8,4.5-8,8.9c0,4.3,0.6,7.5,4.6,7.5c2.8,0,9.1-1.6,16.2-6.6V53.3z
	 M136.5,73.1v-5.4c-7.7,5.3-14,6.1-17.1,6.1c-8.4,0-10.1-4.3-10.1-11.5c0-9,2.3-13.3,12.2-13.3h14.6V44c0-5.7-2.8-7.7-9.1-7.7
	c-5.3,0-8.1,0.7-14.8,3.4v-5.6c3.5-1,9.2-2.6,14.8-2.6c10.7,0,16.1,3.5,16.1,13.1v28.6"/>
<path id="path2366" fill="#9CA3AF" d="M173.5,73.1h-9.8l-13.9-40.8h7.1c10.1,31,11.7,37.8,11.7,37.8s1.7-6.8,11.7-37.8h7.1"/>
<path id="path2368" fill="#9CA3AF" d="M195.9,32.3h7v40.8h-7V32.3z M195.9,24l0.1-6.3l6.9-0.1V24"/>
<path id="path2370" fill="#9CA3AF" d="M237.8,53.3h-12.8c-8.2,0-8,4.5-8,8.9c0,4.3,0.6,7.5,4.6,7.5c2.8,0,9.1-1.6,16.2-6.6
	L237.8,53.3z M238.1,73.1v-5.4c-7.7,5.3-14,6.1-17.1,6.1c-8.4,0-10.1-4.3-10.1-11.5c0-9,2.3-13.3,12.2-13.3h14.6V44
	c0-5.7-2.8-7.7-9.1-7.7c-5.3,0-8.1,0.7-14.8,3.4v-5.6c3.5-1,9.2-2.6,14.8-2.6c10.7,0,16.1,3.5,16.1,13.1v28.6"/>
<path id="path2372" fill="#9CA3AF" d="M270.5,73.5c-9.5,0-11.1-2.1-11.1-11.2V37H252v-4.6h7.4V23h7v9.3h10.8V37h-10.8v25.3
	c0,5.8,0.9,6.4,5.8,6.4c1.3,0,4-0.3,5-0.7v4.6C275.7,73.1,272.2,73.5,270.5,73.5"/>
<path id="path2374" fill="#9CA3AF" d="M286.1,32.3h7v40.8h-7V32.3z M286.1,24l0.1-6.3l6.9-0.1V24"/>
<path id="path2376" fill="#9CA3AF" d="M320.3,36c-9.1,0-11.3,4.3-11.3,16.7c0,12.3,2.2,16.6,11.3,16.6c9.1,0,11.3-4.3,11.3-16.6
	C331.6,40.3,329.4,36,320.3,36 M320.3,74c-13,0-18.3-5.4-18.3-21.2c0-15.9,5.3-21.3,18.3-21.3c13.1,0,18.3,5.4,18.3,21.3
	C338.6,68.5,333.4,74,320.3,74"/>
<path id="path2378" fill="#9CA3AF" d="M375.4,73.1V41.9c0-3.8-1.9-5.6-5.2-5.6c-2.2,0-4.4,0.9-15.6,9.6v27.2h-7V32.3h6.8v8.2
	c9.1-7.2,13-9,17.1-9c9.5,0,11,5.2,11,12.4v29.2"/>
<path id="path2380" fill="#9CA3AF" d="M473.1,39.6L492.7,20c3.2-3.2,3.2-8.3,0-11.4c-3.2-3.2-8.3-3.2-11.4,0l-19.6,19.6L442,8.6
	c-3.1-3.2-8.3-3.2-11.4,0c-3.1,3.2-3.1,8.3,0,11.4l19.7,19.6l-19.7,19.7c-3.2,3.1-3.2,8.3,0,11.4c3.2,3.2,8.3,3.2,11.4,0L461.7,51
	l19.7,19.7c3.2,3.2,8.3,3.2,11.4,0c3.2-3.2,3.2-8.3,0-11.4"/>
<path id="path2382" fill="#9CA3AF" d="M422.2,16l-14,14c-0.3,0.3-0.3,0.7,0,1c0.1,0.1,0.3,0.2,0.5,0.2c0.2,0,0.4-0.1,0.5-0.2l14-14
	c0.3-0.3,0.3-0.7,0-1C422.9,15.7,422.4,15.7,422.2,16"/>
<path id="path2384" fill="#9CA3AF" d="M484.4,78.1l-14,14c-0.3,0.3-0.3,0.7,0,1c0.1,0.1,0.3,0.2,0.5,0.2c0.2,0,0.4-0.1,0.5-0.2
	l14-14c0.3-0.3,0.3-0.7,0-1C485.1,77.8,484.7,77.8,484.4,78.1"/>
</svg>
