<?xml version="1.0" encoding="utf-8"?>
<!-- Generator: Adobe Illustrator 26.1.0, SVG Export Plug-In . SVG Version: 6.00 Build 0)  -->
<svg version="1.1" id="Layer_1" xmlns="http://www.w3.org/2000/svg" xmlns:xlink="http://www.w3.org/1999/xlink" x="0px" y="0px"
	 width="870px" height="274px" viewBox="0 0 870 274" enable-background="new 0 0 870 274" xml:space="preserve">
<path fill="#9CA3AF" d="M264,241.7c-5.7,0.4-18.4,1.1-26.5,1.1c-8.2,0-15.8-0.3-18.9-0.6c-14-1.5-18.7-7.1-18.7-21.3v-82.1
	c0-7.5-1.4-10-10.1-10h-28.8v99.6c0,28.8,7.3,40.6,57.9,40.6c39.1,0,54-2,54-2s0.1-13.5,0.1-18.7C272.9,241.5,272.2,241.1,264,241.7
	 M545.6,155.8h-35.7c-3.1,0-5.5,1.1-7.2,3.8l-18.1,26.9h-0.7l-17.5-26.9c-1.7-2.7-3.9-3.8-7.1-3.8h-39.4l39.2,54.5l-43.7,56.2h35.9
	c3.4,0,5.8-1.5,7.2-3.8l21.7-32.5h0.9l20.4,31.2c2.1,3.7,4.6,5,8.1,5h40.5L505.5,208L545.6,155.8z M392.3,155.8h-29.6v88.8
	c-5.5,2-14.9,2.6-21.2,2.6c-14.4,0-20.8-5.4-20.8-14.5v-71c0-3.3-2.6-5.9-5.8-5.9h-29.6v74.6c0,26.8,19,38.5,56.8,38.5
	c22.9,0,44.9-3.7,55.9-8.7v-98.6C398.1,158.4,395.5,155.8,392.3,155.8 M731.9,120.3h-27.4v24h35.4v-15.7
	C739.9,121.2,738.7,120.3,731.9,120.3 M862.5,155.2c-8.5-1.1-20.1-1.9-33.5-1.9c-19.5,0.1-40.7,1.8-53.8,6.6v106.6h35.4v-75.2
	c0-7.3,4.2-12.6,11.3-13.7c5-0.8,12.3-1.1,17.2-1c9.9,0.1,19.3,1,24.2,2.4c0,0,0.9,0.2,1.3-0.2l0.4-1.1V158
	C865,156.2,864.5,155.5,862.5,155.2 M731.9,155.8h-27.4v110.6h35.4V164.7C739.9,157.6,738.1,155.8,731.9,155.8 M616.8,153.3
	c-14.7,0-33,2.4-46.2,6.7c-0.5,0.2-0.7,0.5-0.7,1.1v18.4c0,2.7,1,4,2.7,4c1.1,0,2.4-0.6,4.1-1.4c10.8-4.7,22.7-6.9,37.2-6.9
	c17.7,0,19.9,2.9,19.9,8.8c0,5-0.3,5.1-7.5,7.1c-16.2,4.6-35.3,8.9-50.6,17.4c-10.7,5.9-14.6,16.5-14.6,27.8
	c0,24.4,14.9,32.6,48.1,32.6c27.9,0,48-3.6,60-8.4v-73.9C669.2,158.8,641.8,153.3,616.8,153.3 M633.8,232.9
	c0,9.2-1.9,16.3-18.3,16.3c-13.4,0-18.3-5.3-18.3-16.4c0-7.3,4.2-11.5,15.3-15.9c7.1-2.9,14.1-5.3,21.3-7.9V232.9z M93.1,21.3
	l-68.4,82.2c-0.7,0.8-1,1.7-0.7,2.4c0.3,0.8,1,1.2,2,1.2l105.7,0c1,0,1.6-0.8,1.6-1.7c0-0.9-0.4-1.5-1.4-1.7
	c-3.8-0.9-24.5-5.4-39.4-9.9c-9.2-2.8-12.8-10.7-10.4-21.3C84.8,60.9,96,23.1,96.1,23c0.3-0.8,0.1-1.8-0.7-2.1
	C94.5,20.4,93.7,20.6,93.1,21.3 M79.5,5c40.9,0,74.2,33.3,74.2,74.5c0,40.9-33.3,74.2-74.2,74.2C38.3,153.7,5,120.4,5,79.5
	C5,38.3,38.3,5,79.5,5 M79.5,14.1c-36.1,0-65.4,29.3-65.4,65.5c0,36.1,29.3,65.4,65.4,65.4c36.1,0,65.4-29.3,65.4-65.4
	C144.9,43.1,115.6,14.1,79.5,14.1"/>
</svg>
