<?xml version="1.0" encoding="utf-8"?>
<!-- Generator: Adobe Illustrator 26.1.0, SVG Export Plug-In . SVG Version: 6.00 Build 0)  -->
<svg version="1.1" id="layer" xmlns="http://www.w3.org/2000/svg" xmlns:xlink="http://www.w3.org/1999/xlink" x="0px" y="0px"
	 width="570px" height="140px" viewBox="0 0 570 140" enable-background="new 0 0 570 140" xml:space="preserve">
<path fill="#9CA3AF" d="M503,97.5c-49.7,25.8-98.6,41.5-122.1,36.6c-20.7-4.3-10.5-32.9,19-56.4h6.3c-23.2,19.8-25,44.4-10.3,46.4
	c16.7,2,59.9-7.2,103.9-27.8L503,97.5z"/>
<path fill="#9CA3AF" d="M554.8,62c1.4,0,2.8,0.3,4,0.6c0.8,0.3,1.1,0.3,2,0.8c0.3,0,0.6,0.3,0.8,0.6c0.6,0.3,0.3,0.6,0.6,0.8
	c0.3,1.1-0.3,2-0.8,2.8c-1.7,2.8-4.6,4.9-7.1,6.9c-2.8,2.3-5.7,4-8.5,6c-0.6,0.3-1.1,0.8-1.7,1.1c0.6,0.3,0.8,0.3,1.4,0.6l0,0
	c0,0,0.3,0.3,0.6,0.3c0.8-0.3,1.4-0.8,2.2-1.1c0.8-0.6,1.4-0.6,2.2-0.3c0.6,0.3,1.4,1.1,1.7,1.7c0.3,1.1,0.3,2-0.3,3.1
	c3.7,1.7,7.1,3.5,10.5,5.2c0.8,0.6,1.7,0.8,2.5,1.4c0.3,0.6-0.3,1.1-0.8,1.4c-1.4,0.6-2.5,1.7-4,1.7c-1.4-0.3-2.8-0.6-4.6-1.1
	c-2.2-0.6-4.6-1.1-6.8-1.4c-1.7-0.3-3.7-0.6-5.4-1.1c-1.4-0.3-2.5-0.6-4-0.6c-1.7-0.3-3.5-0.3-5.4-0.3c-2.2,0-4.3,0-6.5-0.3
	c-3.5,1.4-6.5,3.1-10.5,4.6c-2.5,0.8-4.9,1.7-7.4,2.5c0.8,1.1,2,1.4,2.5,2.8c0,0.3-0.3,0.3-0.3,0.3c-0.6,0.3-0.8,0.3-1.4,0.6
	c-2.5-0.6-4.9-1.1-7.4-2h-0.6c-1.1,0.3-2.8,1.4-4,0c0-0.3-0.3-0.6-0.3-1.1c0-0.3-0.3-0.3-0.6-0.6c-0.6-0.3-0.8-0.3-1.1-0.6
	c-0.8-0.3-1.4-0.6-2.2-0.8c-1.7-0.6-3.1-0.8-4.6-1.7c-0.3-0.3-0.6-0.6,0-1.1c0.8-0.6,2.2-1.1,3.5-0.6c1.1,0,2.5,0.3,3.5,0.3l0,0
	c-1.4-1.4-2.5-2.8-4-4.3c-0.3-0.3-0.6-0.6-0.6-1.1c0-0.3,0.3-0.6,0.6-0.8c0.3-0.3,0.6-0.3,0.8-0.3c1.1-0.6,1.4-0.8,2.2-0.6
	c2.5,1.1,4.6,2,7.4,3.1c0.6,0.3,1.1,0.6,1.7,0.6c0.8-0.3,1.1-0.6,1.7-0.8c0.3,0,1.1-0.6,1.4-0.8c0.8-0.6,1.7-1.1,2.2-1.4
	c1.7-1.1,2.5-1.7,4-2.5c-2-0.8-4.3-2-6.3-2.8c-2.2-0.6-2.8-0.8-4.9-1.4c-1.4-0.3-3.1-0.8-3.1-0.8c-2.8-0.6-3.5-0.8-6-1.4
	c-1.1-0.6-2.5-0.6-4-1.1c0-0.3,0-0.3,0-0.6c0.3-0.6,1.1-1.1,1.7-1.7c0.8-0.6,1.4-1.1,2.5-1.4c2,0,3.5,0.3,5.7,0.6
	c2.5,0.3,5.1,0.6,7.4,0.8c3.1,0.3,6.8,0.6,9.9,1.1c0.3,0,0.6,0.3,0.8,0c0.3,0.3,0.6,0,0.8,0.3c0.3,0,0.6,0,0.8,0
	c1.4-1.1,3.1-2.5,5.1-3.1c1.1,0,2.2,0.6,2.8,1.4c3.7-2.5,7.1-5.2,11.1-7.2c3.7-2,7.1-3.5,9.9-4.3c2-0.6,4.3-0.8,6.3-1.1
	C553.9,62,554.2,62,554.8,62"/>
<path fill="#9CA3AF" d="M5,20.5h15.6v4c7.7-6.9,17.6-6.9,23.9-2.8c6.8,4.3,6.8,10.9,6.8,18.4v22H35.7V44.6c0-4,0.3-9.1-3.7-11.8
	c-1.7-1.4-5.4-1.4-7.7,0.3c-4,2.8-3.5,6.3-3.5,12.3V62H5L5,20.5L5,20.5z"/>
<path fill="#9CA3AF" d="M69.8,22.5c-6.5,3.8-9.9,9.1-10.8,16c-0.6,5.5,0.6,12,5.1,16.8c8.2,8.6,22.7,8.8,31,6
	c6.8-2.3,12.5-6.3,14.7-15.2c1.4-5.7,0.8-11.8-2.8-17.5c-6.8-10-20.7-10.9-26.4-10C77.1,19.6,73.1,20.5,69.8,22.5 M82.3,30.2
	c2.5-0.6,6.5,0,8.8,2.8c2.2,2.5,3.1,6.6,2.8,9.4s-2,6-5.1,7.7c-2.8,1.4-6.8,1.4-9.6-0.6c-2.5-1.7-4-4.9-4.3-8c0-2.8,0.6-6.3,3.5-9.1
	C79.9,31.1,81.1,30.8,82.3,30.2"/>
<path fill="#9CA3AF" d="M191.3,39.6c0,0.8-0.3,1.4-1.4,4l-6,18.4h-16.1l-15.3-41.5h17.4l5.4,17.5c0.8,3.1,1.1,3.8,1.1,4.9
	c0-0.8,0.3-1.7,1.1-4.9l5.4-17.5H200l5.4,17.5c0.8,3.1,1.1,3.8,1.1,4.9c0-0.8,0.3-1.7,1.1-4.9l5.4-17.5h17.4L214.8,62h-16.1L193,44
	C191.6,41.1,191.6,40.6,191.3,39.6"/>
<path fill="#9CA3AF" d="M278.8,26.8c-7.4-8.6-22.7-8.8-29.8-6.9c-6.8,2-12.5,6-15,14.9c-1.7,6.6-1.1,12.9,2.8,18.6
	c7.4,10.6,21.6,10,28.4,9.1c5.1-0.8,14.5-3.8,17.9-12.9l0.3-0.3l-15.7-1.7c-0.6,0.6-0.8,1.1-2.5,2.5c-2.5,2-8.2,1.7-10.5,0.8
	c-2.5-1.1-4.9-4.3-5.1-6.3h35V44C284.4,38.5,282.7,31.6,278.8,26.8 M267.9,36h-18.8c1.4-4.6,4-6,7.1-6.6
	C259.7,28.8,265.4,29.7,267.9,36"/>
<path fill="#9CA3AF" d="M293.2,64.3c0.3,3.1,1.1,5.2,1.4,6c4,7.2,11.1,8.6,19.9,8.6c8.8,0,15.6-0.6,20.7-6.6c4.6-5.5,4-12,4-18.4V21
	h-15.6v3.8c-3.5-3.5-7.1-4.6-9.9-4.9c-5.7-0.8-13.6,1.1-18.5,7.4c-4,5.2-4.6,12.6-4,17.8c0.8,6.3,4.3,10.9,9.9,14
	c6.3,3.5,16.4,2.5,22.1-2.3c0,1.7,0,5.5-0.6,7.2c-1.1,2.5-3.5,3.5-5.1,3.8c-1.7,0.3-6.3,1.1-7.9-2c-0.3-0.6-0.6-0.8-0.6-1.4
	C309.1,64.3,293.2,64.3,293.2,64.3z M313.1,33c2-0.6,6.5-0.3,8.8,2.3c1.4,1.4,2.2,3.5,2,5.5c-0.3,1.7-1.1,4-2.8,5.2
	c-2.5,1.7-7.1,1.7-9.6,0.3c-2-1.1-3.5-2.5-3.7-4.9c-0.3-1.4,0-4,1.4-5.7C310.2,34.3,311.4,33.7,313.1,33"/>
<path fill="#9CA3AF" d="M348,20.5h15.6V62H348V20.5z M348,5h15.6v10.6H348V5z"/>
<path fill="#9CA3AF" d="M388.9,32.2c0.3-1.1,0.8-1.7,1.7-2.5c2-1.7,9.6-1.1,11.7-0.3c2.2,1.1,2.8,2.8,3.1,5.7c0,0-4.9-0.3-8.2-0.3
	c-4,0.3-5.7,0.3-9.1,0.8c-6.8,0.8-13.6,2-15.3,10.4c-1.1,5.7,0.6,10.9,6,14.3l0.6,0.3c7.9,3.5,17.9,2.3,26.7-2.8c0,0,0,2.5,0.6,3.8
	h18.2c-2-1.7-2.8-4.6-2.8-8.6V35.2c0-3.5,0.3-8-2-10.6c-3.7-4.9-10.5-6-22.4-6c-9.6,0-16.1,0.6-19.9,5.5c-1.7,2.5-2.2,4.6-2.2,7.7
	h13.6L388.9,32.2L388.9,32.2z M404.9,43.7c-1.4,5.5-4.6,7.2-8.5,7.7c-2.2,0.3-6,0.6-7.7-2.5c-0.3-0.6-0.6-2.3-0.3-2.8
	c1.1-2.3,3.1-2,8.2-2.3L404.9,43.7L404.9,43.7z"/>
<path fill="#9CA3AF" d="M432.4,20.5H448v4c7.7-6.9,17.6-6.9,23.9-2.8c6.8,4.3,6.8,10.9,6.8,18.4v22h-15.6V44.6c0-4,0.3-9.1-3.7-11.8
	c-2-1.1-6-1.1-7.9,0.6c-4,2.8-3.5,6.3-3.5,12.3v16.6h-15.6L432.4,20.5L432.4,20.5z"/>
<path fill="#9CA3AF" d="M144.7,20v16c-4.9,0-7.9,0.6-11.1,2.8v23.1H118V20.4h15.6v4.9c0.8-1.4,2.8-3.1,5.4-4.3
	C139.9,20.5,142.8,20,144.7,20"/>
</svg>
