<?xml version="1.0" encoding="utf-8"?>
<!-- Generator: Adobe Illustrator 26.1.0, SVG Export Plug-In . SVG Version: 6.00 Build 0)  -->
<svg version="1.1" id="Layer_1" xmlns="http://www.w3.org/2000/svg" xmlns:xlink="http://www.w3.org/1999/xlink" x="0px" y="0px"
	 width="316px" height="158px" viewBox="0 0 316 158" enable-background="new 0 0 316 158" xml:space="preserve">
<g>
	<path fill="#9CA3AF" d="M104.2,90.6c1.5-2,3.1-3.8,5.1-5.3c1.9-1.5,4-2.7,6.2-3.6c2.3-0.9,4.6-1.3,6.9-1.3c1.9,0,3.5,0.2,4.9,0.8
		c1.4,0.5,2.4,1.2,3.1,2.2s1.1,2.2,1.1,3.7c0,1.5-0.3,3.2-1,5.1c-0.8,2.3-2,4.4-3.5,6.5c-1.5,2.1-3.1,3.9-5,5.4
		c-1.9,1.6-4,2.8-6.2,3.7c-2.3,0.9-4.6,1.4-7.1,1.4c-4,0-6.7-1-8.1-3.1c-1.4-2.1-1.4-5.1,0.1-9C101.6,94.7,102.7,92.6,104.2,90.6z
		 M106.3,99.6c-0.1,0.8,0,1.6,0.3,2.3c0.3,0.7,0.7,1.2,1.4,1.6c0.7,0.4,1.6,0.6,2.7,0.6c1.5,0,3-0.4,4.4-1.1
		c1.4-0.7,2.7-1.6,3.9-2.7c1.2-1.1,2.2-2.4,3.1-3.7c0.9-1.4,1.6-2.7,2.1-4c0.4-1,0.6-1.9,0.7-2.8c0.1-0.9,0-1.6-0.2-2.2
		c-0.3-0.6-0.7-1.2-1.4-1.5c-0.6-0.4-1.6-0.6-2.7-0.6c-1.6,0-3.1,0.4-4.5,1.1c-1.4,0.7-2.7,1.6-3.9,2.7c-1.2,1.1-2.2,2.4-3.1,3.7
		c-0.9,1.4-1.6,2.7-2.1,4C106.6,97.9,106.4,98.8,106.3,99.6z"/>
	<path fill="#9CA3AF" d="M138.5,81h6.4l-0.1,11.7L157.9,81h7.3L145,98.1l-6.1,10.4h-6.3l6.3-10.7L138.5,81z"/>
	<path fill="#9CA3AF" d="M160.7,90.6c1.5-2,3.1-3.8,5.1-5.3c1.9-1.5,4-2.7,6.2-3.6c2.3-0.9,4.6-1.3,6.9-1.3c1.9,0,3.5,0.2,4.9,0.8
		c1.4,0.5,2.4,1.2,3.1,2.2s1.1,2.2,1.1,3.7c0,1.5-0.3,3.2-1,5.1c-0.8,2.3-2,4.4-3.5,6.5c-1.5,2.1-3.1,3.9-5,5.4
		c-1.9,1.6-4,2.8-6.2,3.7c-2.3,0.9-4.6,1.4-7.1,1.4c-4,0-6.7-1-8.1-3.1c-1.4-2.1-1.4-5.1,0.1-9C158.1,94.7,159.2,92.6,160.7,90.6z
		 M162.8,99.6c-0.1,0.8,0,1.6,0.3,2.3c0.3,0.7,0.7,1.2,1.4,1.6c0.7,0.4,1.6,0.6,2.7,0.6c1.5,0,3-0.4,4.4-1.1
		c1.4-0.7,2.7-1.6,3.9-2.7c1.2-1.1,2.2-2.4,3.1-3.7c0.9-1.4,1.6-2.7,2.1-4c0.4-1,0.6-1.9,0.7-2.8s0-1.6-0.2-2.2s-0.7-1.2-1.4-1.5
		c-0.6-0.4-1.6-0.6-2.7-0.6c-1.6,0-3.1,0.4-4.5,1.1c-1.4,0.7-2.7,1.6-3.9,2.7c-1.2,1.1-2.2,2.4-3.1,3.7c-0.9,1.4-1.6,2.7-2.1,4
		C163.1,97.9,162.9,98.8,162.8,99.6z"/>
	<path fill="#9CA3AF" d="M204.8,81l0.4,19.5h0.1L216.6,81h5.7L206,108.5h-6.2l-0.5-19.3h-0.1l-11.3,19.3h-5.8L198.4,81H204.8z"/>
	<path fill="#9CA3AF" d="M234.2,81l0.4,19.5h0.1L246,81h5.7l-16.3,27.5h-6.2l-0.5-19.3h-0.1l-11.3,19.3h-5.8L227.7,81H234.2z"/>
	<path fill="#9CA3AF" d="M271.3,81l-5.6,27.5h-6.2l1.4-6.1h-10.6l-5.9,6.1H238l27-27.5H271.3z M262.1,97.8l2.7-10.9h-0.1l-10.2,10.9
		H262.1z"/>
	<path fill="#9CA3AF" d="M290.5,81l-16.3,27.5H268L284.2,81H290.5z"/>
	<path fill="#9CA3AF" d="M298.7,97.9c-0.5-0.1-1-0.1-1.6-0.1h-4.9l-6.4,10.7h-6.2L295.9,81h13.5c1.3,0,2.4,0.1,3.3,0.3
		c1,0.2,1.7,0.7,2.2,1.2s0.9,1.8,1,2.7c0.1,1.3,0.1,1.7-0.1,3.1c-0.1,1.2-0.7,2-1.3,2.8c-0.6,0.8-1.6,2-2.5,2.6
		c-0.8,0.7-2.2,1.3-3.1,1.7c-1,0.4-3.5,0.8-4.5,1c0,0,0.3,0.8,0.4,1c2.3,3.1,3.5,11,3.5,11h-6c0,0-1-6.7-2.5-9.8
		C299.7,98.2,298.7,97.9,298.7,97.9z M300.6,93.4c0.8,0,3.7-0.1,4.5-0.2c0.8-0.2,1.6-0.4,2.3-0.8c0.7-0.3,1.4-0.8,1.9-1.3
		c0.6-0.6,1-1.2,1.3-2c0.3-0.7,0.4-1.3,0.3-1.8c-0.1-0.4-0.3-0.8-0.6-1c-0.3-0.2-2.8-0.4-3.3-0.5c-0.5-0.1-1.1-0.1-1.7-0.1h-5.9
		l-4.6,7.7H300.6z"/>
</g>
<polygon fill="#9CA3AF" points="0,0 65.6,113 5.5,146.5 37.3,108.5 "/>
<polygon fill="#9CA3AF" points="19.1,28.6 107.4,119.6 46,158 72.4,111.6 "/>
</svg>
