<svg xmlns="http://www.w3.org/2000/svg" xmlns:xlink="http://www.w3.org/1999/xlink" viewBox="0 0 137.8 92">
    <clipPath id="shadowClipPath">
        <path d="M94.6 35.2C105.8 56.9 61.4 86.9 52.4 89c7.5-.3 46.9-3.1 69.7-25.1 4.5-6.6 10.9-1.4 10.9-1.4s-3.3-5.4-3.8-6.5c-.6-1.1-.8-9.9-11.1-7.7C128.1 18.6 66.4 7 61.2 7c-.4 0-.5.1-.1.2 11.7 1.6 27.2 15.8 33.5 28z"/>
    </clipPath>
    <linearGradient id="shadowGradient" x1="49.569" x2="135.766" y1="47.963" y2="47.963" gradientUnits="userSpaceOnUse">
        <stop offset="0" stop-color="#9ca0a1"/>
        <stop offset=".203" stop-color="#727679"/>
        <stop offset=".297" stop-color="#5d6164"/>
        <stop offset=".327" stop-color="#56585b"/>
        <stop offset=".408" stop-color="#454548"/>
        <stop offset=".488" stop-color="#363537"/>
        <stop offset=".57" stop-color="#2e2d2f"/>
        <stop offset=".642" stop-color="#141314"/>
        <stop offset=".701" stop-color="#212022"/>
        <stop offset=".768" stop-color="#3d3c3f"/>
        <stop offset=".806" stop-color="#48484b"/>
    </linearGradient>
    <path fill="url(#shadowGradient)" d="M52.5 91.7L49.6 7.1l83.3-2.9 2.9 84.7z" clip-path="url(#shadowClipPath)"/>
    <clipPath id="markClipPath">
        <path d="M94.6 31.6c11.2 21.7-33.2 51.7-42.2 53.8 7.5-.3 46.9-3.1 69.7-25.1 4.5-6.6 10.9-1.4 10.9-1.4s-3.3-5.4-3.8-6.5c-.6-1.1-.8-9.9-11.1-7.7C128.1 15 66.4 3.3 61.2 3.3c-.4 0-.5.1-.1.2 11.7 1.7 27.2 15.9 33.5 28.1z"/>
    </clipPath>
    <radialGradient id="markGradient" cx="63.935" cy="85.097" r=".922" gradientTransform="scale(-146.0163 146.0163) rotate(-88.036 -12.006 76.125)" gradientUnits="userSpaceOnUse">
        <stop offset="0" stop-color="#fff000"/>
        <stop offset=".19" stop-color="#f8c747"/>
        <stop offset=".211" stop-color="#f7c34c"/>
        <stop offset=".247" stop-color="#f29e3e"/>
        <stop offset=".284" stop-color="#ef7f34"/>
        <stop offset=".321" stop-color="#ec642d"/>
        <stop offset=".358" stop-color="#eb4b29"/>
        <stop offset=".396" stop-color="#ea3526"/>
        <stop offset=".433" stop-color="#e92325"/>
        <stop offset=".47" stop-color="#e91c25"/>
        <stop offset=".499" stop-color="#e92425"/>
        <stop offset=".532" stop-color="#e93827"/>
        <stop offset=".568" stop-color="#ea5129"/>
        <stop offset=".605" stop-color="#eb6c2f"/>
        <stop offset=".642" stop-color="#ed8a37"/>
        <stop offset=".679" stop-color="#f0ab42"/>
        <stop offset=".764" stop-color="#f5ee68"/>
        <stop offset="1" stop-color="#f5ee68"/>
    </radialGradient>
    <path fill="url(#markGradient)" d="M52.5 88.1L49.6 3.4 132.9.6l2.9 84.6z" clip-path="url(#markClipPath)"/>
    <path fill="#808285" d="M15.1 54.6c-1.1.9-2.6 1.3-4.3 1.3-2.6 0-4.6-.7-6-2.2l2.1-2.1c.9.9 2.2 1.4 4 1.4 1.9 0 2.9-.7 2.9-2 0-.6-.2-1.1-.5-1.4-.3-.3-.8-.5-1.5-.6l-2-.3c-1.4-.2-2.5-.7-3.2-1.4-.8-.8-1.2-1.9-1.2-3.2 0-1.5.5-2.7 1.5-3.6 1-.9 2.4-1.4 4.2-1.4 2.2 0 4 .6 5.3 1.9l-2 2c-.8-.8-1.9-1.1-3.4-1.1-.8 0-1.5.2-1.9.6-.3.5-.6.9-.6 1.5 0 .5.2.9.5 1.2.4.3.9.6 1.5.6l1.9.3c1.4.2 2.4.6 3.1 1.3.8.8 1.3 2 1.3 3.5.1 1.5-.5 2.8-1.7 3.7zM26.6 55.7v-1.1c-.8.8-1.8 1.2-3 1.2s-2.1-.4-2.8-1.1c-.8-.8-1.2-2-1.2-3.4v-7.7h3V51c0 .8.2 1.3.6 1.7.4.3.8.5 1.3.5.6 0 1-.2 1.4-.5.4-.4.6-1 .6-1.7v-7.3h3v12h-2.9zM39.4 47c-.5-.5-1-.7-1.6-.7-.5 0-.9.2-1.3.5-.4.4-.6 1-.6 1.7v7.2h-3v-12h2.9v1.2c.7-.9 1.7-1.3 3-1.3 1.1 0 2.1.4 2.8 1.1L39.4 47zM48.5 55.7h-2.4l-4.4-12h3.2l2.4 7.4 2.4-7.4H53l-4.5 12zM63.9 53.9c-1.3 1.2-2.8 1.9-4.5 1.9-3.7 0-5.5-2-5.5-6.1 0-1.9.5-3.4 1.4-4.5.9-1.1 2.2-1.6 3.8-1.6 1.6 0 2.9.5 3.8 1.6.9 1 1.4 2.4 1.4 4.1v1.3h-5.6v-2.1h2.6c0-.5-.1-.9-.3-1.3-.4-.8-1-1.2-2-1.2s-1.6.4-2 1.2c-.2.4-.3.8-.3 1.3V50.8c0 .7.3 1.3.7 1.7.5.5 1.1.7 1.8.7 1.1 0 2-.4 2.7-1.1l2 1.8zM54.8 52v.1-.1zM71.4 57.7c-.3.7-.6 1.2-.9 1.5-.6.6-1.5.9-2.6.9h-1.2v-2.7h.7c.8 0 1.3-.4 1.5-1.1l.5-1.5-4.1-11.2h3.2L71 51l2.4-7.4h3.2l-5.2 14.1z"/>
    <path fill="#E91C25" d="M23 40.2h-3.2V23.8h6.4c1.6 0 3 .5 4 1.5s1.5 2.2 1.5 3.6-.5 2.6-1.5 3.6-2.3 1.5-4 1.5H26v-2.9c.7 0 1.3-.2 1.7-.6.4-.4.6-1 .6-1.6 0-.7-.2-1.2-.6-1.6-.4-.4-1-.6-1.7-.6h-3v13.5zM34.1 26.2v-2.4h3.1v2.4h-3.1zm0 14v-12h3v12h-3zM47 40.2l-2.2-3.6-2.2 3.6H39l4.1-6.1-4-5.9h3.6l2 3.4 2.1-3.4h3.6l-4 5.9 4.1 6.1H47zM59.6 23.8l6 16.4h-3.3l-1-2.9-2.9-8.7-2.1 6h2l.9 2.7h-3.8l-1 2.9h-3.3l6-16.4h2.5zM67.3 26.2v-2.4h3.1v2.4h-3.1zm0 14v-12h3v12h-3zM80.2 31.5c-.5-.5-1-.7-1.6-.7-.5 0-.9.2-1.3.5-.4.4-.6 1-.6 1.7v7.2h-3v-12h2.9v1.2c.7-.9 1.7-1.3 3-1.3 1.1 0 2.1.4 2.8 1.1l-2.2 2.3z"/>
</svg>