<?xml version="1.0" encoding="utf-8"?>
<!-- Generator: Adobe Illustrator 26.1.0, SVG Export Plug-In . SVG Version: 6.00 Build 0)  -->
<svg version="1.1" id="Layer_1" xmlns="http://www.w3.org/2000/svg" xmlns:xlink="http://www.w3.org/1999/xlink" x="0px" y="0px"
	 width="820px" height="470px" viewBox="0 0 820 470" enable-background="new 0 0 820 470" xml:space="preserve">
<path fill="#9CA3AF" d="M295.3,5h82.6v81h-82.6V5 M442.4,5H525v81h-82.6V5 M442.4,150.5H525v80.7h-82.6V150.5 M295.3,150.5h82.6
	v80.7h-82.6V150.5 M5,315.3v5.5h18.1v135.4H5v5.2h69.7v-5.2H54.9v-63.2h28.8c24,0,36.3-8.7,36.3-8.7c14.9-10.4,14.9-29.2,14.9-29.2
	c0-19.8-14.9-30.8-14.9-30.8c-7.8-5.5-18.5-7.5-18.5-7.5l-18.8-1.6H5z M54.9,320.8h18.8c15.9,0,22.4,8.4,22.4,8.4
	c5.2,6.8,5.2,24.9,5.2,24.9c0,21.1-8.4,27.5-8.4,27.5c-7.5,5.5-18.5,5.5-18.5,5.5H54.9V320.8z M215.9,398.9c0,0-3.9,4.9-11.3,4.9
	c0,0-6.2,0-10-3.9c0,0-3.6-3.6-3.6-8.4c0,0,0-3.9,2.9-7.5l1-2.3c0,0,0-1.9-2.9-1.9c0,0-1.9,0-5.8,4.2l-3.9,4.2
	c0,0-8.4,11.3-8.4,28.5v39.5h17.5v5.2h-59v-5.2h14.6v-75.8h-14.6v-5.5l41.8-1.9l-0.3,17.8l6.8-9.1c0,0,7.5-9.1,19.8-9.1
	c0,0,9.1,0,14.3,5.5c0,0,4.2,4.9,4.2,11.7C218.8,389.8,218.8,395.4,215.9,398.9 M256.1,347.4c0,0-4.5,4.5-11,4.5c0,0-6.2,0-10.7-4.5
	c0,0-4.5-4.2-4.5-10.4c0,0,0-6.2,4.5-10.7c0,0,4.2-4.2,10.7-4.2c0,0,6.5,0,11,4.2c0,0,4.5,4.5,4.5,10.7
	C260.6,337,260.6,343.2,256.1,347.4 M220.1,374.9l41.1-1.9v83.3h13.6v5.2h-54.8v-5.2h14.6v-75.8h-14.6V374.9 M351,383.7
	c0,0,0-3.2-5.8-3.2h-10v-5.5h38.2v5.5h-5.8c0,0-5.5,0-7.5,1.9c0,0-1.9,1.9-6.8,12.6l-29.2,70h-5.8l-40.2-84.5h-10v-5.5h51.8v5.5H306
	l24.6,53.5l17.8-43.4L351,383.7 M413.9,372.7c-15.9,0-26.2,6.2-26.2,6.2c-11,6.5-11,16.2-11,16.2c0,5.2,3.2,8.1,3.2,8.1
	c3.2,3.2,8.4,3.2,8.4,3.2c5.5,0,9.1-3.2,9.1-3.2c3.2-3.2,3.2-8.1,3.2-8.1l-1-4.2l-2.6-4.5l-0.6-2.3c0-1.9,2.9-3.9,2.9-3.9
	c3.6-2.3,9.7-2.3,9.7-2.3c9.7,0,13,4.5,13,4.5c1.9,3.2,1.9,11.3,1.9,11.3v16.2c-30.8,2.9-42.4,11.3-42.4,11.3
	c-12.3,8.4-12.3,21.7-12.3,21.7c0,7.5,4.2,13,4.2,13c6.5,7.8,20.7,7.8,20.7,7.8c17.5,0,29.8-14.3,29.8-14.3l6.5,9.1
	c5.2,5.2,13.3,5.2,13.3,5.2c11,0,20.7-10.4,20.7-10.4l-3.6-4.5l-6.2,3.2c-5.5,0-5.5-10.7-5.5-10.7v-41.8l-1.6-12
	c-2.9-7.5-12.6-11.3-12.6-11.3C426.5,372.7,413.9,372.7,413.9,372.7z M423.9,415.8v15.9l-0.6,8.7c-1,4.9-5.2,8.1-5.2,8.1
	c-4.2,3.2-9.4,3.2-9.4,3.2c-5.8,0-10-3.9-10-3.9c-4.5-4.5-4.5-12-4.5-12c0-12,10.7-16.8,10.7-16.8L423.9,415.8z M501.4,340.3v34.7
	h18.5v5.5h-18.5v59.9c0,0,0,12.6,7.5,12.6c0,0,7.5,0,12.3-14.9l5.8,1c0,0-3.2,11-7.8,16.2c0,0-7.8,8.7-22.4,8.7c0,0-14.3,0-19.1-8.7
	c0,0-2.6-4.9-2.6-15.5l0.3-59.3h-15.2v-3.2l16.5-10.4c0,0,10.4-9.4,18.5-26.6H501.4 M598.9,315.3l-47.3,126.3l-5.8,11.7
	c-2.3,2.3-9.1,2.9-9.1,2.9h-9.1v5.2h46.7v-5.2h-10.4l-6.2-0.3c-2.3-1-2.3-3.6-2.3-3.6l1.9-7.5l8.4-23h47.3l12.6,34.3h-20.1v5.2h68.4
	v-5.2h-16.2l-52.2-140.9H598.9z M589.2,358.7l22,58h-43.4L589.2,358.7z M707.8,347.4c0,0-4.5,4.5-10.7,4.5c0,0-6.2,0-11-4.5
	c0,0-4.5-4.2-4.5-10.4c0,0,0-6.2,4.5-10.7c0,0,4.5-4.2,11-4.2c0,0,6.5,0,10.7,4.2c0,0,4.5,4.5,4.5,10.7
	C712.3,337,712.3,343.2,707.8,347.4 M672.1,374.9l41.1-1.9v83.3h13.6v5.2h-54.8v-5.2h14.6v-75.8h-14.6V374.9 M728.5,374.9l41.8-1.9
	l-0.3,17.8l6.8-9.1c0,0,7.5-9.1,19.8-9.1c0,0,9.1,0,14.3,5.5c0,0,4.2,4.9,4.2,11.7c0,0,0,5.5-2.9,9.1c0,0-3.9,4.9-11.3,4.9
	c0,0-6.2,0-10-3.9c0,0-3.6-3.6-3.6-8.4c0,0,0-3.9,2.9-7.5l1-2.3c0,0,0-1.9-2.9-1.9l-5.8,4.2l-3.9,4.2c0,0-8.4,11.3-8.4,28.5v39.5
	h17.5v5.2h-59v-5.2h14.6v-75.8h-14.6V374.9"/>
</svg>
