<?xml version="1.0" encoding="utf-8"?>
<!-- Generator: Adobe Illustrator 26.1.0, SVG Export Plug-In . SVG Version: 6.00 Build 0)  -->
<svg version="1.1"
	 id="svg2226" inkscape:version="0.48.4 r9939" sodipodi:docname="Qantas_Airways_Limited_logo.svg" xmlns:cc="http://creativecommons.org/ns#" xmlns:dc="http://purl.org/dc/elements/1.1/" xmlns:inkscape="http://www.inkscape.org/namespaces/inkscape" xmlns:rdf="http://www.w3.org/1999/02/22-rdf-syntax-ns#" xmlns:sodipodi="http://sodipodi.sourceforge.net/DTD/sodipodi-0.dtd" xmlns:svg="http://www.w3.org/2000/svg"
	 xmlns="http://www.w3.org/2000/svg" xmlns:xlink="http://www.w3.org/1999/xlink" x="0px" y="0px" width="254.7px" height="56.7px"
	 viewBox="0 0 254.7 56.7" enable-background="new 0 0 254.7 56.7" xml:space="preserve">
<sodipodi:namedview  bordercolor="#666666" borderopacity="1" fit-margin-bottom="0" fit-margin-left="0" fit-margin-right="0" fit-margin-top="0" gridtolerance="10" guidetolerance="10" id="namedview11" inkscape:current-layer="svg2226" inkscape:cx="216.35968" inkscape:cy="309.18169" inkscape:pageopacity="0" inkscape:pageshadow="2" inkscape:window-height="838" inkscape:window-maximized="1" inkscape:window-width="1600" inkscape:window-x="-8" inkscape:window-y="-8" inkscape:zoom="0.31848853" objecttolerance="10" pagecolor="#ffffff" showgrid="false">
	</sodipodi:namedview>
<defs>
	
		<inkscape:perspective  id="perspective15" inkscape:persp3d-origin="334.5 : 247 : 1" inkscape:vp_x="0 : 370.5 : 1" inkscape:vp_y="0 : 1000 : 0" inkscape:vp_z="669 : 370.5 : 1" sodipodi:type="inkscape:persp3d">
		</inkscape:perspective>
</defs>
<path id="path2235" inkscape:connector-curvature="0" fill="#9CA3AF" d="M0,37.9l0-18.8l0.5,1c0.7,1.4,1.3,2.2,2.7,3.6
	c1.5,1.4,1.8,1.7,4.2,3.2c1,0.6,2.2,1.4,2.7,1.8c4,2.6,5.9,4.9,6.9,8.5c0.2,0.9,0.3,1.3,0.3,2.7c0,1.5,0,2.4-0.3,3.8
	c-0.1,0.2,0,0.3,0.2,0.3c0.5,0,2.9,0.4,3.9,0.6c3.8,0.9,7,2.3,10.6,4.7c1.8,1.2,3.5,2.6,5.6,4.7c0.9,0.9,1.1,1,1.1,0.8
	c0.2-0.6-0.9-2.5-2.3-3.9c-2.6-2.6-6.1-5-10.3-7c-2.8-1.4-3.7-1.9-4.6-2.8c-0.7-0.8-1-1.4-1-2.1c0-0.7,0.2-1.2,0.8-1.6
	c0.9-0.7,2.1-0.6,2.8,0.1l0.3,0.3l-0.4,0.2C23.4,38,23.2,38,22.3,38l-1-0.1l0,0.2c0.1,0.6,1.9,0.9,3.1,0.5c1.2-0.4,2.6-1.3,4.4-3
	c0.4-0.4,0.9-0.7,1-0.8c0.1-0.1,0.9-0.2,1.7-0.3c1.1-0.1,1.6-0.2,1.9-0.4c0.4-0.2,0.7-0.5,0.6-0.7c-0.1-0.1-1.6-1.1-2.2-1.4
	c-1-0.5-2.6-1.1-4.2-1.5c-0.9-0.2-1.6-0.4-1.6-0.4c-0.1,0.1,0.2,0.8,0.4,1.1c0.3,0.4,1.1,0.8,1.7,0.9c0.2,0,0.4,0.1,0.4,0.1
	c0,0.1-0.4,0.6-0.7,0.9c-0.3,0.3-1.2,0.8-1.7,0.9l-0.4,0.1l-0.6-0.8c-2.3-3-4.4-4.9-7.4-6.7c-1.9-1.2-3.4-1.8-7.3-3.3
	c-4.6-1.7-4.9-1.8-5.9-2.4c-2.1-1.1-3.2-2.1-4-3.6C0,15.9,0,15.9,0,7.4L0,0l4.3,3.9c2.4,2.2,4.4,4,4.4,4c0.1,0,2.2,2,4.8,4.3
	s7.9,7.2,11.8,10.9c4,3.6,7.5,6.9,7.9,7.3c0.4,0.4,6.9,6.4,14.4,13.3c7.6,6.9,13.8,12.7,13.9,12.8c0.1,0.1-4.7,0.1-30.7,0.1H0
	L0,37.9L0,37.9z"/>
<path id="path4204" inkscape:connector-curvature="0" fill="#9CA3AF" d="M70.6,52c-2.3-0.6-3.2-1.1-4.4-2.1
	c-0.6-0.6-1.3-0.7-3.6-0.9c-4.3-0.3-6.7-1.1-8.8-2.9c-2.4-2.1-3-5.8-1.3-9.2c2.1-4.2,6-7.8,11-10.3c4-2,7.3-2.8,12.4-3
	c6.5-0.3,10.1,0.5,12.3,2.8c2.5,2.6,2.1,6.7-1.1,11.3c-2.4,3.4-5.2,5.7-9.9,8L74.8,47l0.7,0.7c0.5,0.5,1.1,0.7,3.4,0.8l2.7,0.2
	l-1.9,1.4C76.6,52.6,74.4,53,70.6,52z M69.3,42.4c2.3-1.2,5.8-5.2,7.8-9.1c1.2-2.4,1.2-3.2-0.2-3.7c-3.3-1.4-7.2,0.6-11.3,5.8
	c-3.3,4.1-3.7,6.7-1.3,7.7C65.2,43.3,68.2,43,69.3,42.4z M228.6,48.3c-2.1-0.3-4.5-0.8-6.1-1.4c-2.5-0.9-3.9-1.7-3.6-1.9
	c0.1-0.1,1.4-1.2,3-2.5l2.9-2.4l1.3,0.6c2.1,0.9,8.8,1.9,10.8,1.6c3.9-0.5,3.2-1.4-2.8-3.5c-5.2-1.8-7.1-3.1-7.8-5.5
	c-0.7-2.6,0.4-5,3.2-6.9c2.3-1.6,5.6-2.5,10.5-2.9c3.9-0.3,4.5-0.3,7.9,0.3c2.1,0.4,4.5,0.9,5.4,1.1c1.9,0.6,1.9,0.8-0.2,2.7
	c-1.9,1.7-3.1,2-8.9,1.9c-4.3-0.1-5.1,0-5.4,0.4c-0.6,0.8,0,1.2,3.7,2.3c8,2.5,10.3,4.6,9.1,8.5c-0.8,2.9-3.6,5.2-7.6,6.5
	C239.3,48.8,234.8,49.1,228.6,48.3L228.6,48.3z M86.2,44.2c2.2-2.2,6.3-6.3,9-9.1c6.6-6.8,9.4-8.9,14.2-10.3c3.6-1.1,6.5-1.4,10.3-1
	c1.9,0.2,3.5,0.4,3.6,0.5c0.1,0.1-1,4.7-2.2,10.2s-2.5,10.9-2.8,11.8l-0.4,1.7l-5.6,0.1l-5.6,0.1l0.4-1.6c0.2-0.9,0.4-1.8,0.4-2
	c0-0.3-1.3-0.4-5.4-0.4h-5.4l-2,2l-2,2h-5.3h-5.3L86.2,44.2L86.2,44.2z M110.1,34.4c0.5-1.9,0.8-3.6,0.7-3.6c-0.4-0.4-7.9,6-7.9,6.9
	c0,0.1,1.4,0.3,3.2,0.3h3.2C109.3,37.9,110.1,34.4,110.1,34.4z M125.3,39.2c5.5-9.5,7.2-11.7,10-13.4c1.9-1.2,4.7-2,6.8-2h1.4
	l2.6,5.9c1.4,3.3,2.7,5.9,2.8,5.9c0.1,0,1.1-1.7,2.3-3.8c1.2-2.1,2.5-4.3,3-4.8c1.1-1.3,3.5-2.5,5.7-2.9c2.2-0.4,6.2-0.4,6-0.1
	c-0.1,0.2-3.2,5.6-6.9,12.2l-6.8,11.9l-4.8,0l-4.8,0l-2.6-5.8c-1.4-3.2-2.6-5.8-2.7-5.8c-0.1,0-1.6,2.6-3.4,5.8l-3.3,5.8h-5.2H120
	C120,48.2,125.3,39.2,125.3,39.2z M164.8,48c0-0.1,2.1-3.8,4.7-8.3c2.6-4.5,4.8-8.3,4.9-8.6c0.1-0.4-0.6-0.5-4.8-0.5
	c-3.3,0-5-0.1-5-0.3c0-0.2,0.5-1.1,1-2c1.3-2.1,3.6-3.6,6.2-4.2c2.1-0.5,27.9-0.6,27.9-0.2c0,0.4-1.7,3-2.5,3.7
	c-1.6,1.4-4.2,2.3-7.6,2.6c-1.8,0.1-3.3,0.3-3.4,0.4c-0.1,0.1-2.3,4-5,8.7l-4.9,8.6l-5.6,0.1C167.3,48.2,164.8,48.1,164.8,48
	L164.8,48z M191.2,38.6c5.4-5.3,10.6-10.2,11.6-10.9c2.5-1.7,6-3.1,9.6-3.7c2.4-0.4,3.5-0.4,6.6-0.2c2.1,0.2,3.8,0.4,3.8,0.4
	c0,0-1.2,5.5-2.8,12l-2.8,12h-5.6c-5.1,0-5.5,0-5.4-0.5c0.1-0.3,0.3-1,0.4-1.5s0.3-1.2,0.3-1.5c0.1-0.5-0.3-0.5-5.4-0.5H196l-2,2
	l-2,2h-5.3h-5.3L191.2,38.6L191.2,38.6z M208.9,36.7c1-3.8,1.5-6.2,1.5-6.2c-0.3-0.3-3.2,2.1-5.6,4.6l-2.8,2.8h3.3h3.3L208.9,36.7
	L208.9,36.7z"/>
</svg>
