<?xml version="1.0" encoding="utf-8"?>
<!-- Generator: Adobe Illustrator 26.1.0, SVG Export Plug-In . SVG Version: 6.00 Build 0)  -->
<svg version="1.1" id="Layer_1" xmlns="http://www.w3.org/2000/svg" xmlns:xlink="http://www.w3.org/1999/xlink" x="0px" y="0px"
	 width="291px" height="85px" viewBox="0 0 291 85" enable-background="new 0 0 291 85" xml:space="preserve">
<path fill="#9CA3AF" d="M54.7,73.9C54,74,53.5,74,52.8,74c-0.7,0-1.4-0.1-2.1-0.1l2-4.9L54.7,73.9z M56.9,79.5
	c0.4,0,0.9-0.1,1.5-0.1c0.6,0,1.2,0.1,1.5,0.1c-0.9-1.9-2.2-4.9-3-6.6c-0.7-1.7-1.9-4.4-2.9-7.2c-0.2,0.1-0.4,0.1-0.6,0.1
	c-0.2,0-0.4,0-0.7-0.1c-0.5,1.6-1.6,4.2-3.6,8.7l-2.3,5.1c0.3,0,0.6-0.1,0.9-0.1c0.3,0,0.7,0.1,1,0.1c0.3-1.1,1-2.8,1.6-4.3
	c0.8,0,1.6-0.1,2.4-0.1c0.9,0,1.7,0,2.5,0.1l0.8,2.1L56.9,79.5z M61.7,70.4c0,3.4,0,6.7-0.2,9c0.4,0,1-0.1,1.4-0.1
	c0.5,0,0.9,0.1,1.4,0.1c-0.2-1.6-0.2-3.7-0.2-6.7c0-2,0-5.4,0.2-6.9c-0.5,0.1-1,0.1-1.4,0.1c-0.3,0-1-0.1-1.4-0.1
	C61.7,67.8,61.7,69.2,61.7,70.4 M73.4,72.7c1.8-0.3,3.5-1.5,3.5-3.7c0-0.8-0.3-1.6-0.9-2.2c-0.9-0.8-1.8-1-3.1-1
	c-0.5,0-2.8,0.1-3.3,0.1c-1,0-1.5-0.1-2-0.1c0.1,2.6,0.1,2.8,0.1,5.4c0,3.8,0,4.3-0.2,8.2c0.4-0.1,0.9-0.1,1.4-0.1
	c0.5,0,0.9,0.1,1.3,0.1c0-0.5-0.1-3.1-0.1-3.6V73h0.5c1.1,1.5,2.3,3.3,3.3,4.8c0.3,0.5,0.7,1.2,1,1.6c0.6-0.1,0.8-0.1,1.6-0.1
	c0.7,0,1.2,0.1,1.8,0.1c-1.2-1.6-1.8-2.3-3.3-4.5c-0.3-0.4-0.7-1.1-1-1.5L73.4,72.7z M70.2,66.9c0.3,0,1-0.1,1.4-0.1
	c0.7,0,1.3,0.1,1.8,0.5c0.7,0.5,0.8,1.2,0.8,2.1c0,1.3-0.7,2.7-2.7,2.7c-0.5,0-1,0-1.4-0.1V66.9z M83.8,74.8c-0.9-2.8-2.2-6.6-2.8-9
	C80.5,65.9,80,66,79.5,66c-0.5,0-1.2-0.1-1.5-0.1c0.7,1.8,1.4,3.7,2,5.6c0.9,2.6,1.5,4.4,2.2,6.5l0.5,1.5c0.3-0.1,0.6-0.1,0.8-0.1
	c0.2,0,0.4,0,0.8,0.1c0.3-1,0.7-2.3,1-3.1c0.8-2.3,0.9-2.6,1.9-5.4l0.6-1.6c0.2,0.6,0.6,1.6,0.8,2.3c0.2,0.6,1.2,3.6,1.5,4.3
	c0.3,0.9,0.4,1.1,1.1,3.5c0.2,0,0.6-0.1,0.9-0.1c0.3,0,0.5,0.1,0.8,0.1c0.8-2.4,0.8-2.6,1.9-5.8c1.1-3.1,1.8-4.9,3-7.8
	c-0.6,0.2-1.2,0.2-1.8,0c-0.7,2.6-1.1,3.8-1.6,5.5c-0.9,2.8-1.1,3.1-1.6,4.6c-0.6-1.7-1.2-3.4-1.8-5.2c-0.3-1-1.5-4.9-1.5-5
	C89,65.9,88.8,66,88.4,66c-0.4,0-0.6-0.1-0.9-0.1c-0.6,2.4-2.7,8.2-2.9,8.8l-0.5,1.3L83.8,74.8z M103.8,73.9c-0.6,0-1.2,0.1-1.8,0.1
	c-0.7,0-1.4-0.1-2.1-0.1l2-4.9L103.8,73.9z M106,79.5c0.4,0,0.9-0.1,1.5-0.1c0.6,0,1.2,0.1,1.5,0.1c-0.9-1.9-2.2-4.9-3-6.6
	c-0.7-1.7-1.9-4.4-2.9-7.2c-0.2,0.1-0.4,0.1-0.6,0.1c-0.2,0-0.4,0-0.7-0.1c-0.5,1.6-1.6,4.2-3.6,8.7L96,79.5c0.3,0,0.6-0.1,0.9-0.1
	c0.3,0,0.7,0.1,1,0.1c0.3-1.1,1-2.8,1.6-4.3c0.8,0,1.6-0.1,2.4-0.1c0.9,0,1.7,0,2.5,0.1l0.8,2.1L106,79.5z M114.3,74.2
	c0-0.2,0.1-0.4,0.3-0.6c0.8-1.4,1.6-2.9,2.5-4.3c0.3-0.5,1.7-2.8,2-3.3c-0.2,0.1-0.4,0.1-0.8,0.1c-0.4,0-0.8,0-1.2-0.1
	c-1.4,3.1-1.7,3.8-3.4,6.7c-1.7-3-2.4-4.5-3.5-6.7c-0.5,0.1-1.1,0.1-1.6,0.1c-0.4,0-0.9,0-1.6-0.1c1,1.7,2.7,4.5,3.7,6.2l1.2,2
	c0,1.2-0.1,3.8-0.1,5.4c0.4,0,0.9-0.1,1.3-0.1c0.5,0,0.9,0.1,1.4,0.1c-0.1-1.8-0.1-2.9-0.1-4.6L114.3,74.2z M120.3,76.5
	c-0.1,1-0.1,1.2-0.5,2.2c0.7,0.4,2,1,3.7,1c3.6,0,5-2.3,5-4.3c0-0.6-0.1-1.7-1-2.6c-0.6-0.6-1.2-0.9-2.7-1.4
	c-1.7-0.7-2.8-1.1-2.8-2.5c0-1.2,0.8-2.1,2.3-2.1c1.2,0,2.3,0.6,2.6,1.7h0.3c0.2-0.8,0.2-0.9,0.6-1.9c-1-0.4-1.8-0.8-3.3-0.8
	c-3.6,0-4.6,2.2-4.6,4c0,1.6,0.6,2.7,2.5,3.5c0.6,0.2,1.5,0.6,2,0.8c0.4,0.2,1.6,0.7,1.6,2.3c0,1.4-1,2.5-2.6,2.5
	c-1.2,0-2.2-0.3-3.1-2.3H120.3z"/>
<path fill="#9CA3AF" d="M10.1,39.9c0-15,8-19,14.1-19c9.8,0,14,8.1,14,16.7c0,4.9-0.6,9.6-3,13.3c-2.4,3.7-6.5,6-10.9,6
	C13.3,56.9,10.1,46.4,10.1,39.9 M39.8,70.5c1.8-1.2,4.6-2.8,6.6-3.7l-13.4-8.3c8.3-2.9,13.4-10.3,13.4-20.3
	c0-14.3-10.9-20.3-22-20.3C12.3,17.8,2,24.5,2,39.6c0,3.2,0.7,9.3,5.7,14.3c5.2,5.2,11.3,6,16.5,6c0.7,0,1.3,0,2-0.1L39.8,70.5z
	 M74.1,42.5c-1.8,0.1-3.6,0.2-5.5,0.2c-2.1,0-4.1-0.2-6.2-0.2l6.1-14.6L74.1,42.5z M80.8,59.1c1.1-0.1,2.7-0.4,4.4-0.4
	c1.7,0,3.7,0.3,4.6,0.4c-2.7-5.8-6.6-14.7-8.9-19.9c-2.1-5-5.7-13.3-8.6-21.5c-0.7,0.2-1.3,0.3-1.9,0.3c-0.7,0-1.3-0.1-2-0.3
	c-1.4,4.9-4.9,12.6-10.9,26.1l-6.9,15.3c0.8-0.1,1.7-0.4,2.7-0.4c1,0,2.1,0.2,2.9,0.4c1-3.4,2.9-8.3,4.8-12.9
	c2.4-0.1,4.8-0.2,7.1-0.2c2.6,0,5.1,0.1,7.6,0.2l2.5,6.3L80.8,59.1z M107.2,28.9c0-2.3,0.1-4.5,0.1-6.7c4.1,0,8.3,0.1,11.8,0.4
	c-0.2-1-0.3-1.5-0.3-2.1c0-0.5,0.1-1.3,0.3-2.3c-5.7,0.3-10.9,0.4-15.9,0.4c-4.6,0-11.2-0.1-15.9-0.4c0.2,0.7,0.3,1.5,0.3,2.2
	s-0.1,1.5-0.3,2.2c3-0.3,8.7-0.4,9.3-0.4h3c0.1,2.3,0.1,4.4,0.1,6.6l0.1,16.6c0,4.5-0.4,9.1-0.6,13.6c2.1-0.2,3-0.4,4-0.4
	c0.7,0,2.6,0.2,4.3,0.4c-0.2-1.7-0.4-3.6-0.4-8.1L107.2,28.9z M140.3,42.5c-1.8,0.1-3.6,0.2-5.5,0.2c-2.1,0-4.1-0.2-6.2-0.2
	l6.1-14.6L140.3,42.5z M147,59.1c1.1-0.1,2.7-0.4,4.4-0.4c1.7,0,3.7,0.3,4.6,0.4c-2.7-5.8-6.6-14.7-8.9-19.9
	c-2.1-5-5.7-13.3-8.6-21.5c-0.7,0.2-1.2,0.3-1.9,0.3c-0.7,0-1.3-0.1-2-0.3c-1.4,4.9-4.9,12.6-10.9,26.1L117,59.1
	c0.8-0.1,1.7-0.4,2.7-0.4c1,0,2.1,0.2,2.9,0.4c1-3.4,2.9-8.3,4.8-12.9c2.4-0.1,4.8-0.2,7.1-0.2c2.6,0,5.1,0.1,7.6,0.2l2.5,6.3
	L147,59.1z M180,38.8c5.4-1,10.3-4.4,10.3-11c0-2.5-1-4.9-2.7-6.7c-2.6-2.4-5.5-2.9-9.3-2.9c-1.4,0-8.3,0.3-9.8,0.3
	c-3,0-4.6-0.2-5.9-0.3c0.4,7.7,0.4,8.5,0.4,16.3c0,11.5-0.1,12.8-0.5,24.5c1.3-0.2,2.7-0.4,4.1-0.4c1.5,0,2.8,0.2,4,0.4
	c0-1.5-0.2-9.2-0.2-10.9v-8.4h1.4c3.2,4.5,6.9,9.8,9.9,14.5c0.9,1.4,2.2,3.6,3.1,4.9c1.8-0.2,2.5-0.4,4.8-0.4c2.1,0,3.6,0.2,5.3,0.4
	c-3.7-4.7-5.3-6.8-10-13.4c-0.9-1.2-2.2-3.2-3.1-4.5L180,38.8z M170.3,21.5c0.9-0.1,3.1-0.3,4.2-0.3c2,0,3.9,0.3,5.5,1.5
	c2.1,1.5,2.5,3.7,2.5,6.2c0,3.9-2.2,8.2-8.1,8.2c-1.5,0-3-0.1-4.1-0.2L170.3,21.5z"/>
<path fill="#9CA3AF" d="M268.9,39c0,0.4-5.4,0.7-13.1,1c-1.4-0.8-2.4-1.5-3.1-2.2C262,38.1,268.9,38.5,268.9,39 M263.4,26
	c0,0.3-4.5,0.6-11,0.9c0.9-0.5,1.9-1.1,2.9-1.6C260.2,25.5,263.4,25.7,263.4,26 M215.3,53.9c-3,0-5.6,0-7.7,0c-2.9,0-5.3-0.9-5.3-2
	c0-1.1,2.4-2,5.3-2c2.6,0,6.1,0,10.2,0.1c-1.6,2.3-2.3,3.6-2.4,3.7C215.4,53.7,215.4,53.8,215.3,53.9 M216.9,56.6
	c1,1.2,2,2.3,3.2,3.3c0,0,0.5,0.7,1.9,0.1c1.5-0.6,2.7-1.4,4.1-3.3c4.1,0.1,8.5,0.2,12.8,0.3c0.4,0.5,1.1,1.6,2,2.9
	c-12,0.3-24.9,0.5-31.6,0.5c-2.8,0-5-0.9-5-1.9c0-1.1,2.2-1.9,5-1.9C211.3,56.5,213.9,56.5,216.9,56.6
	C216.9,56.6,216.9,56.6,216.9,56.6 M212.3,66.6c-2.5,0-4.4-0.8-4.4-1.7c0-0.9,2-1.7,4.4-1.7c6.5,0,19.8,0.2,31.2,0.5
	c0.5,0.8,1.1,1.6,1.6,2.3C233.4,66.4,219.1,66.6,212.3,66.6 M250.2,72c-9.6,0.4-26.1,0.7-32.9,0.7c-1.9,0-3.5-0.6-3.5-1.3
	c0-0.7,1.6-1.3,3.5-1.3c6.5,0,21.9,0.3,31.6,0.6C249.4,71.2,249.8,71.6,250.2,72 M225.2,75.6c5.7,0,22.9,0.4,22.9,0.9
	c0,0.5-17.2,0.9-22.9,0.9c-1.1,0-2-0.4-2-0.9C223.2,76,224.1,75.6,225.2,75.6 M225.3,40.8c-7.1,0.1-13.5,0.2-17.6,0.2
	c-2.9,0-5.3-0.9-5.3-2c0-1.1,2.4-2,5.3-2c4.8,0,12.6,0.1,21.1,0.3C227.6,38.4,226.4,39.6,225.3,40.8 M260.2,31.7
	c4.2,0.2,6.8,0.5,6.8,0.7c0,0.3-3.2,0.6-8.1,0.8C259.9,32.5,260.2,31.8,260.2,31.7 M209.3,34.4c-2.8,0-5-0.9-5-1.9
	c0-1.1,2.2-1.9,5-1.9c5.7,0,16,0.1,26.3,0.4c-1.2,1-2.4,2.1-3.6,3.2C223,34.3,214.3,34.4,209.3,34.4 M240.2,27.2
	c-10.6,0.3-22,0.4-27.9,0.4c-2.5,0-4.4-0.8-4.4-1.7c0-0.9,2-1.7,4.4-1.7c6.5,0,19.8,0.2,31.2,0.5c-0.6,0.4-1.1,0.8-1.7,1.3
	C241.2,26.5,240.7,26.8,240.2,27.2 M217.3,20.8c-1.9,0-3.5-0.6-3.5-1.3c0-0.7,1.6-1.3,3.5-1.3c7.3,0,25.4,0.3,34.6,0.8
	c-0.6,0.4-1.2,0.8-1.8,1.2C240.5,20.5,224.1,20.8,217.3,20.8 M207.1,47.5c-3,0-5.4-0.9-5.4-2.1c0-1.1,2.4-2.1,5.4-2.1
	c3.8,0,9.4,0.1,15.7,0.2c-1.1,1.3-2.1,2.6-3.1,3.9C214.7,47.5,210.3,47.5,207.1,47.5 M223.2,14.3c0-0.5,0.9-0.9,2-0.9
	c5.7,0,22.9,0.4,22.9,0.9c0,0.5-17.2,0.9-22.9,0.9C224.1,15.3,223.2,14.9,223.2,14.3"/>
<path fill="#9CA3AF" d="M269.5,43.9c0,1,0,2,0,3.1c-10,0.4-19.5,1-19.5,1.7c0,0.7,9.3,1.3,19.2,1.7c-0.2,1.1-0.4,2.3-0.7,3.4
	c-9.8,0.4-18.8,1-18.8,1.6c0,0.6,8.5,1.2,17.8,1.6c-0.4,1.2-0.9,2.3-1.5,3.5c-8,0.4-14.7,0.9-14.7,1.5c0,0.5,5.8,1,13.1,1.4
	c-0.4,0.7-0.8,1.3-1.3,1.9c-0.5,0.7-1,1.4-1.5,2c-4.6,0.3-7.7,0.7-7.7,1.2c0,0.4,2.2,0.7,5.7,1c-2,2-4.3,3.7-6.8,5.1
	c0,0-3.1-2.7-5.7-5.8c-2.3-2.8-7.1-10.1-8.3-11.8c-1.1-1.6-1.9-2.1-3.2-1.6c-1.8,0.6-3.9,1-4.5,1s-1-0.2,0.1-0.7
	c1.1-0.4,5.3-2.4,7.4-6.5c2.3-4.6,0.3-11,0.3-11c-0.8,3.4-2.6,4.7-2.6,4.7c0.6-3.2-0.1-6.1-1.6-8.1l-0.9,4c0,0-0.5,0-1.9,1.1
	c-1.4,1.1-1.7,2.8-1.7,2.8c1.1,0.4,2.3-0.6,2.3-0.6c-1.6,6.1-4,11.1-5.7,13.8c-1.7,2.6-3.1,3.6-4.8,4.3c-1.4,0.6-1.9-0.1-1.9-0.1
	c-1.2-1-2.2-2.1-3.2-3.3c0,0-0.1-0.1,0.2-0.1c0.7,0,2-1.2,2.2-1.7c0.3-0.6,0.3-1,0.1-1c-0.2,0-0.4,0.4-1.8,1.3
	c-1.4,0.9-2,0.3-2.4-0.2c-0.3-0.4,0-0.8,0.2-1.1c0.2-0.3,7.4-13.6,26.3-27.6c24.8-18.4,40.6-23.3,41.5-23.7c0.6-0.2,1.6-0.5,1.8-0.3
	c0.2,0.3,0.4,0.5,0.3,0.8c0,0.3-0.2,0.5-1.3,1C274.6,8,263.5,15,257.1,19.1c-7.8,3.8-15.2,9.2-15.4,9.3c-0.6,0.4-0.2,0.9,0.2,0.7
	c13.1-8.7,28.5-14.7,45.5-19.5c0.8-0.2,1.3-0.2,1.4-0.1c0.2,0.2,0.2,0.4,0.2,0.7c0,0.3-0.2,0.5-0.9,0.7
	c-18.2,6.8-31.7,13.1-40.3,18.9c0,0-0.9,0.5-0.9,1.2c0,0.2,0.5,0.3,0.5,0.3c4.3,0.1,10.1,0.3,12.9,0.5c0,0-0.4,1.4-3,2.5
	c-2,0.9-3.9,0.7-5.8,0.7c-0.4,0-0.8,0.4-0.4,0.9C251.1,36.1,255.1,42.4,269.5,43.9 M137.3,77.3h-2.4c0,0-0.3-1.5,0.6-2.1
	c0.9-0.6,1.9-1,1.9-1L137.3,77.3z M148.9,71.7c0,0-1.5,0.9-2.4,1.7c-0.9,0.8,0.2,1.1,0.2,1.1v2.8h-7.1v-9.8c0,0-2.6,2.4-2.8,2.7
	c-0.3,0.3,0.6,0.6,0.6,0.6l-0.1,0.9c0,0-1,0.5-2.3,1.4c-1.2,0.8-2.2,1.9-2.2,2.6c0,0.7-0.3,3.6-0.3,3.6h16.4V71.7z M134.2,68.1
	c0.8,0,1.4-0.3,1.4-1c0-0.6-0.4-1.1-1.4-1.1c-0.9,0-1.1,0.4-1.1,1.1C133.1,67.9,133.4,68.1,134.2,68.1 M137.2,68.1
	c0.8,0,1.4-0.3,1.4-1c0-0.6-0.4-1.1-1.4-1.1c-0.9,0-1.1,0.4-1.1,1.1C136.1,67.9,136.4,68.1,137.2,68.1 M141.8,80.3
	c-0.9,0-1.1,0.4-1.1,1.1c0,0.7,0.3,1,1.1,1c0.8,0,1.4-0.3,1.4-1C143.2,80.7,142.8,80.3,141.8,80.3 M144.9,80.3
	c-0.9,0-1.1,0.4-1.1,1.1c0,0.7,0.3,1,1.1,1c0.8,0,1.4-0.3,1.4-1C146.3,80.7,146,80.3,144.9,80.3 M180.4,67.9c0.8,0,1.4-0.3,1.4-1
	c0-0.6-0.4-1.1-1.4-1.1c-0.9,0-1.1,0.4-1.1,1.1C179.2,67.7,179.6,67.9,180.4,67.9 M183.5,67.9c0.8,0,1.4-0.3,1.4-1
	c0-0.6-0.4-1.1-1.4-1.1c-0.9,0-1.1,0.4-1.1,1.1C182.4,67.7,182.7,67.9,183.5,67.9 M192.2,68.2c-0.4,0.4-0.3,0.8,0.2,0.8v10.5h2.3
	V66.4C194.8,66.4,192.6,67.8,192.2,68.2 M182.8,74.1h-1.5c0-0.8,1.5-1.3,1.5-1.3L182.8,74.1z M172.9,75.8c0,0.4,0,1,0,1.5h-13.2V75
	c0.3-0.9,0.9-1,1.8-1h9.6C173.2,74,172.9,75.1,172.9,75.8 M188.3,69v8.4h-3.1v-7.6c0,0-0.6,0.2-1.5,0.6c-0.9,0.4-4,1.7-4,3.4v2h3.2
	v1.6h-7.6c0-0.4,0-0.9,0-1.7c0-2.5-2.1-3.9-4-3.9h-8.8c-1.5,0-2.3,0.4-2.7,0.8v-6.4c0,0-1.4,1-2.4,1.7c-1,0.8,0,1.3,0,1.3v8.2h-2.9
	l-0.1-7c0,0-2,1.5-2.6,1.9c-0.6,0.4-0.3,0.8,0.4,0.8c0,0-0.1,5.2-0.1,6.4c0,1.2-1,2.6-3.2,2c0,0-0.7,0.1-0.1,0.6
	c0.6,0.5,1.2,0.9,2,0.9c0.8,0,3.5-0.5,3.5-3.5h36.3V66.4c0,0-2.1,1.4-2.6,1.8C187.6,68.6,187.7,69,188.3,69"/>
</svg>
