<?xml version="1.0" encoding="utf-8"?>
<!-- Generator: Adobe Illustrator 26.1.0, SVG Export Plug-In . SVG Version: 6.00 Build 0)  -->
<svg version="1.1" id="Layer_1" xmlns="http://www.w3.org/2000/svg" xmlns:xlink="http://www.w3.org/1999/xlink" x="0px" y="0px"
	 width="925.8px" height="108px" viewBox="0 0 925.8 108" enable-background="new 0 0 925.8 108" xml:space="preserve">
<path fill="#9CA3AF" d="M199.6,107.2l-29-37.1h-10.9v37.1h-33.2V9.4H176c36.1,0,59.2,10.2,59.2,30.4c0,13.7-13.3,22.2-31.3,26.7
	l31.9,40.6L199.6,107.2L199.6,107.2L199.6,107.2z M174.4,26.4h-14.6v27.2h16.5c17,0,25.8-4.6,25.8-13.6
	C202,31.3,194.3,26.4,174.4,26.4L174.4,26.4z M318.4,70.3v36.9h-33.2V70.6L237.4,9.4H274l14.3,19.8c6.1,8.5,12.2,18.2,13.8,22.8
	c1.9-4.6,8-14.7,13.8-22.8l14.3-19.8h36.1L318.4,70.3L318.4,70.3z M443.9,107.2l-8.8-20.4h-41.7l-8.8,20.4h-34l47.5-97.8h32.4
	l47.5,97.8H443.9z M422.9,58.9c-3.2-7.5-7.4-18.9-8.8-23.7c-1.3,5-5,15.5-8.5,23.5l-5,11.9H428L422.9,58.9L422.9,58.9z M568.5,107.2
	l-34.3-43.6c-4.8-6.1-10.6-14.1-14.1-19.8c0.3,6,0.5,16.1,0.5,22.2v41.2h-30.3V9.4h33.5l32.7,42.9c4.5,5.9,11.2,14.9,14.6,20.4
	c-0.3-6-1.1-16.6-1.1-22.8V9.4h30.3v97.8L568.5,107.2L568.5,107.2z M707.6,107.2l-8.8-20.4h-41.7l-8.8,20.4h-34l47.5-97.8h32.4
	l47.5,97.8H707.6z M686.6,58.9c-3.2-7.5-7.4-18.9-8.8-23.7c-1.3,5-5,15.5-8.5,23.5l-5,11.9h27.4L686.6,58.9L686.6,58.9z M754.9,9.4
	h33.2v97.8h-33.2V9.4z M889.7,107.2l-29-37.1h-10.9v37.1h-33.2V9.4h49.4c36.1,0,59.2,10.2,59.2,30.4c0,13.7-13.3,22.2-31.3,26.7
	l31.9,40.6L889.7,107.2L889.7,107.2L889.7,107.2z M864.5,26.4h-14.6v27.2h16.5c17,0,25.8-4.6,25.8-13.6
	C892.1,31.3,884.4,26.4,864.5,26.4L864.5,26.4z"/>
<path fill="#9CA3AF" d="M72.2,5.9c6.9,2.3,14.2,4.1,21.6,4.9l5.2,0.1l0.2-0.1c3.1,0.1,5.4-1.3,8.4-1.9c0.3-0.1,1.1-0.3,1.4,0.2
	c0.2,0.6-0.1,1.2-0.7,1.6c-3.7,2.8-8.1,4.9-12.2,6.4v-0.1c-1.4,0.3-2.8,0.8-4.2,1.3c-5.1,1.5-10.9,2.5-16.4,2.1
	c-10.5-0.5-19.5-4.3-28.7-3.9c-9.1-0.5-17.8,3-22.6,9.8c-2.5,3.6-4.5,7.4-5.1,11.6c0.3,3.8,5.6,5.2,7.6,8.4c1.1,1.9,1.7,4,2.6,5.9
	c2.2,4,4.4,7.9,7.1,11.6l-0.1,0.1c1.6,2.5,4.1,4.6,7.1,6.1c3.9,2.8,7.3,6.2,9.3,10L52.4,80c2.3,3.6,3.6,7.4,5.3,11.2
	c0.8,2.3,1.7,4.4,2.3,6.7c0.2,0.2,0.2,0.6,0.4,0.9c0.6,1.8,1.2,3.7,1.9,5.4c-0.3,0.3,0.3,0.3,0.2,0.6c0,1,1,2.5-0.3,3.2
	c-1.9-1.7-2.9-4.2-3.9-6c-2.3-3.9-4.8-7.7-7.6-11.5l0.1-0.1c-1.7-2.1-3.6-4.6-5.6-6.8C37,74.5,24.9,69,16,60.3l-0.1,0.1
	c-0.8-0.7-1.2-1.6-1.8-2.3l0.1-0.1c-1.1-1.5-1.7-3.2-2.8-4.8l0.1-0.1C8.7,49,6.1,44.7,4.3,40.4c-0.4-1.9-1-3.5-1.2-5.7L2.9,34
	c0.1-2-4.8-3.1-2.1-7c1.7-1.8,8.3-4.1,10.6-7.6c0.1-0.5,0.2-1.1-0.3-1.6c0-0.4-0.4-0.8-0.7-1.1c-1.2-1.6-4.6-0.3-4.6-2.6
	c0.3,0,0-0.3,0.2-0.5c-0.2-1.1-0.3-1.9,0.1-2.8c0.7-1.9,1.3-4,1.2-5.9c0.1-0.7,0.9-1.1,1.6-1.4c1.4-0.4,2.6-0.5,4-0.7l0.2,0.1
	c3.2-0.3,7,0,9.1,2.5c0.9,1.9,0.2,4.2-0.3,6.1c-0.2,1.1-1.4,2-1.1,3.2c0.4,0.4,1.3,0.4,1.9,0.2c4.8-2.9,9-7,12.5-11
	c3.2-3,8-4.1,12.4-3.4C56.5,0.9,63.9,3.9,72.2,5.9L72.2,5.9z M49.4,21.9c1.2,1.7-0.4,3.1-0.9,4.6c-5.2,7.8-7,16.7-10.5,25
	c-0.3,0.3-0.8,0.4-1.1,0.3c-0.9-0.7-0.9-1.7-0.8-2.7c0.7-9.1,3.1-17.6,6.9-25.7c0.9-1.3,2.4-2.8,4.4-2.5
	C48.2,21.1,48.8,21.4,49.4,21.9L49.4,21.9z M63.1,24.3c0.7,3-1.5,5.4-2.4,8.1c-5.1,10.1-11.1,20-14.1,30.8c-0.1,0.3-0.3,0.8-0.7,1
	c-0.4,0.1-0.8-0.1-0.9-0.4c-1-4.3,0.2-8.8,1.3-12.8c2.9-9.1,6.4-18.3,11.2-26.8c0.6-0.4,0.7-0.8,1.4-1
	C60.5,22.9,62.2,23.1,63.1,24.3L63.1,24.3z M77.7,24.8c1.4,1,0.7,3,0.1,4.2c-5.9,13.1-15.5,24.5-19.5,38.2c-1.1,2.9-1.8,5.9-2.7,8.9
	c-0.2,0.5-0.9,0.5-1.5,0.4c-0.5-1.2-0.4-2.8-0.4-4.2c1.3-11.1,3.9-21.8,9.3-31.4c2.5-4.8,4.8-9.1,7.4-13.8c0.7-1.3,1.9-2.5,3.7-3
	C75.5,24,76.8,24.3,77.7,24.8L77.7,24.8z M94,25.5c1,1.6,0,3.3-0.4,4.9c-3.8,10.6-10.8,19.3-16.5,28.9c-4.9,7.9-8,16.7-11.3,25.2
	c-1.1,2.6-1.5,5.4-2.9,7.9c-0.1,0.3-0.5,0.1-0.7,0.2c-0.8-0.7-0.7-1.7-0.9-2.6C62,79.2,66.1,69.5,70,59.8
	C74.9,49,81.4,38.7,85.8,27.5c0.6-1.4,1.8-3.1,3.7-3.7C91.4,23.6,92.8,24.3,94,25.5L94,25.5z"/>
</svg>
