<?xml version="1.0" encoding="utf-8"?>
<!-- Generator: Adobe Illustrator 26.1.0, SVG Export Plug-In . SVG Version: 6.00 Build 0)  -->
<svg version="1.1" id="Layer_1" xmlns="http://www.w3.org/2000/svg" xmlns:xlink="http://www.w3.org/1999/xlink" x="0px" y="0px"
	 width="333.6px" height="51.1px" viewBox="0 0 333.6 51.1" enable-background="new 0 0 333.6 51.1" xml:space="preserve">
<path fill="#9CA3AF" d="M52.9,48.8L52.9,48.8l-1.2-0.1l0,0l-0.2-0.3l-0.7-0.1l0,0l0,0l0.1-0.3l-0.3-0.3l-0.4,0.1l0,0L50,47.3l0,0
	l-0.1-1.6l-1-0.7l-0.2,0.1l0,0l0,0l-0.1-0.2l-0.2-0.1l0,0l-0.1-0.2l0,0l0.1-0.3l-0.3-0.2l0,0v-0.2h-0.4l0,0l0,0l0.2-0.2l-0.4-0.2
	l0,0l0.1-0.4l-0.2-0.3l-0.8-0.3l0,0L45.8,42l-0.6-0.5l0,0l-0.3-0.7l-0.3-0.3l-0.4-0.1l0,0L44.1,40l-0.5-0.3l0,0l0.1-0.2l-0.4-0.7
	l0,0l0.3-0.6l-0.2-0.5l-1.2-0.6h-0.1L42,37.4l0,0h-0.6l0,0L41,36.8l-0.7-0.5l-1.4-1.1l0,0L38,33.7l0,0V33l0,0l0.2-0.3l0,0l0.4-0.2
	l0,0l0.4-0.1l0,0l1,0.3l0,0l0.3,0.2l0.2,0.2l0,0v0.2l0,0l-0.3,0.4l0.7,0.5c0,0,0,0,0,0.1l0.1,0.1l0.6,0.8l0.9-0.6v-0.3l-0.7-0.8
	h-0.2l0,0l-0.3-0.4l0,0l-0.1-0.3l-0.8-1.2l-0.6-0.4L39,30.6l0,0l-0.3-0.7h-0.2l0,0l-0.2-0.6l0,0l0,0h0.2l0,0l0.1,0.2l0.2-0.1V29l0,0
	l0.3-0.2L39,28.3l-0.5-0.6l-0.4-0.3h-0.5l0,0L37.3,27l-0.6-0.2l0,0l-0.3-0.2l0,0l-0.2-0.5l0,0l0.1-0.6L36,25l-0.5-0.4H35l-0.6,0.1
	L33.9,25l0,0h-0.5H33h-0.2l-0.1,0.2l0,0h-0.3l0,0l-0.2-0.3l-0.5-0.4l0,0v-0.4L31.2,24l0,0l0,0l0.1-0.2l-0.9-0.4l0,0V23h-0.2l0,0
	v-0.1l-0.5-0.1l0,0L29,22.1l0,0v-0.4l-0.3-0.4l-0.4,0.1l0,0l-0.4-0.1l0,0L27.5,21l0,0v-0.2l0,0l0.2-0.2l-0.2-0.3l-0.8-0.5h-0.8l0,0
	l-0.6-0.2l0,0L24.7,19l0,0l-0.1-1.6L24.3,17l0,0v-0.7L24,15.9l-0.6-0.3L23,15.8l0,0l-0.5-0.4H22l-0.2,0.2l0,0l-0.4-0.1
	c0,0,0,0,0-0.1l0.1-0.2l-0.4-0.4l0,0l0.1-0.2l0,0l1.2-0.1l0.2-0.1l0.1-0.2l0,0l0.6-0.2l0,0l1.4,0.2l0.6-0.5l0.4-1.2v-1.3l-0.3-0.3
	l-0.4,0l0,0l-0.3-0.6L23.3,10l0,0l-0.2-0.2l-0.8,0.3l0,0L22,9.5l0,0l0,0l0.5-0.2l0.6-0.6V8.5l0,0l0.7-0.2l1.5-0.5l0,0l0.4,0.3
	L26,7.9l0,0l0,0l0.1,0.2l0,0l-0.2,0.3l0.3,0.1l0,0l0.2,0.2l0,0L26.5,9l0.1,0.4l0.3,0.4l0,0L26.6,11l0,0l-0.4,0.1v0.1l0.6,0.4l1,0.2
	l0,0l0.3,0.5l0,0v0.8l0.2,0.8l1.4,1.4l1.3-0.7l-0.2-0.3l0,0l0.1-0.6l0,0l0.2-0.2c0,0,0,0,0.1,0l0.8,0.6l0,0l0.5,0.7l0,0v0.4l0.1,0.1
	l0.2,0.1l1.9,0.2l2.1-0.6l0.3-0.3v-0.9l0,0l1.3-0.4l0.5-0.2l0.9-0.5l0,0l0.4,0.1l0,0l0.9,1.1l0,0l0.5,2.6l0.2,0.3L42,17l0.9,0.4
	l1.7-0.7l0,0l0.8,0.4l0,0l0.5,1.7l0,0L45.6,19l0,0L45,18.9l-0.3,0.5l0.3,1.5l1.4,1.7h0.4l0.3-0.4l0,0l0.6-0.1l0,0h0.5l0,0l0.3,0.3
	l0,0l0.1,1l0.3,0.5l0,0l0.1,0.3l0,0l-0.4,0.3L48.1,25v0.5l0.2,0.4l0.5,0.7l0.5,0.4l0.8,0.6l0.8,0.4h0.5l0.4-0.1v-0.2l0,0l0.3-0.1
	l0,0l0.3,0.3l0,0l-0.1,0.2l0.3,0.1l0.4-0.1l0.7-0.4l0.4-0.2l0.4-0.6l-0.9-1l0,0l0.3-0.6l0,0l1.1-0.7l0.2-0.4l0.3-0.4l0.3-0.4l0,0
	l0.2-0.1l0,0l0.3,0.1l0.2-0.4l0.3-0.3l0,0l0.6-0.4l0,0l0.8-0.1l0,0l0.4,0.1l0,0l0.2,0.2l0,0l0.1,0.3l0,0l-0.5,0.5v0.3l0.5,0.5
	l0.6,0.3l2.4-0.1l1.5-0.9l0.4-0.4l0.2-0.6l0.3-1.2l0,0l2.1-2.9v-1.1l-0.3-1L66,15.8l0,0l0.2-0.6l0,0l1.1-0.7l0.7-1l0,0l0.2-0.1l0,0
	L69,14l0,0l0.1,1.6l0.4,0.3h0.4l0,0L70,16l0,0v0.2v0.2v0.1l0.1,0.1l0.4-0.2l0,0l0.5,0.3h0.2l0.7-0.9l0,0l1-0.1l0.2-0.5l-0.2-0.4l0,0
	l0.1-0.3l0,0h0.3l0,0l0.2,0.3l0,0v1.4l1,0.6l0,0V17l0,0l-0.4,0.3l0.2,0.7l0,0l-0.7,0.6l-0.1,0.6l0,0l-0.7,0.4l0.1,0.4l0.6,0.6
	l1.2,0.1l0.3-0.1l0.2-1.3l0,0l0.1-0.2l0,0l0.7-0.5l0.2-0.4c0,0,0,0,0.1,0l0.4,0.1l0,0l0.1,0.2l0.8-0.4l0.2-0.2l0.2-0.4l0,0h0.5l0,0
	l0.5,0.3l0,0v0.4l0,0l-0.4,0.1l0,0l-0.6,0l-0.1,0.2l0.1,1.1l0,0l-0.4,0.6v0.3L78,21l0.7,0.7l1,0.3l0.7-0.4l0.4-0.3l0.4-0.5l0.1-0.4
	l-0.2-1l0,0l0.3-0.3l0,0l0.5-0.2l0.5-0.2l0,0l0.6,0.2l0,0l0.6,1.4l0,0l0.2,0.9l0,0v0.6l0,0L83,23.2l0.5,0.6l0.7,0.4l0.9-0.1l0.4-0.3
	l-0.2-1.2l0,0l0,0l0.7-0.1l0.9-0.5l1.2-1.3l0.5-1.2c0,0,0,0,0.1,0l0.3,0.1l0,0l0.2,0.5l0,0v0.2l0.3,0.4l0,0l0.1,1l0,0L89.2,22
	L89,22.3l0,0l-0.2,0.2v1.2l0.4,0.4l0,0l0.1,0.3l0,0l-0.1,0.3l-0.7,2l0,0L88,26.8l-0.2,0.3l-0.2,0.3l0,0l-0.5,0.3l0.8,4.6l0,0
	l-0.1,0.3l0,0l-0.5,0.9l0,0l-0.8-0.1l0,0L86,33.1l0,0l-0.1-1l-1-1.1l-0.4-0.2h-0.3L83.6,31l-0.3,0.3l0,0l-0.9,0.1l-1,0.6v0.3l0,0
	L81,32.4l-0.6,1l0,0l-0.6,0.2L79,34.2l0,0l-1,0.3l-1.1,0.4l-0.5,0.2l-2.2,1.4l-0.3,0.3l-0.4,0.7l0.4,0.6l0,0l-0.1,0.3l0.2,0.1l0,0
	v0.3l0,0L73.5,39l0.2,2.7l0.3,0.5l0,0l0,0l-0.5,0.2L73.3,43l0.2,0.4c0,0,0,0,0,0.1l-1,0.7l0,0h-0.4l-0.4,0.4l0,0h-0.1l-0.2,0.3l0,0
	l0,0l-0.2-0.2l0,0l-0.1-0.3L70.4,44l0,0l-0.6-0.8h-0.3l0,0l-0.3-0.8l0,0v-1.1L69,41.2h-0.2L68,41.7l0,0h-0.4l0,0l-0.2-0.2l0,0
	l-0.2-1.1L66.8,40l-0.5-0.1l-0.5-0.1L65,40.1l-2.2,1.2L62.6,42l-0.2,0.6l0.1,2l0,0l0,0l-1-0.1l0,0v-0.3L61,43.8L60.6,44v1.8l0,0
	l-0.1,0.4l0,0l-0.2,0.1L60,46.8l0,0l-0.3,0.1l0,0l-0.4-0.4l0,0l-0.4-1.1h-0.4l0,0l-0.3-0.3l0,0L57.7,44l-0.6-0.4l0,0l-0.5-0.7
	L56.3,43l-1.8,0.8l0.2,0.9l0,0l0,0l-0.4-0.2L54,45.4v1.1l0,0h-0.3l-0.1,0.2l0,0l-0.3,0.4v1.2l0,0L53,48.6L52.9,48.8
	C53,48.7,52.9,48.7,52.9,48.8"/>
<path fill="#9CA3AF" d="M63.4,34.8c-9.5,1.4-22.6,2.2-30.5,1.1C13.7,33.2,6.6,25.4,6.6,25.4s5,10.4,24.9,13
	C49.9,40.7,63.4,34.8,63.4,34.8"/>
<path fill="#9CA3AF" d="M4,3.6c0.3,2.9,2.8,6.9,5.7,9.6C20.3,23.1,30.5,24.9,35.6,27C25.2,25.5,15,22.4,7.4,15C2.3,10.4,3.8,4,4,3.6
	"/>
<path fill="#9CA3AF" d="M3.6,15.7c5.2,6.5,21.6,16.7,48.8,14.4c29.2-2.4,31.5-4,40.3-0.8c-9.8-2.1-33.3,4.5-46.1,4.5
	C23,34.8,4.7,24.7,3.6,15.7"/>
<path fill="#9CA3AF" d="M110.9,29.8v-3h17.5c0.3,0,0.7-0.1,1-0.2s0.6-0.3,0.8-0.5s0.4-0.5,0.5-0.8s0.2-0.6,0.2-1
	c0-0.7-0.2-1.3-0.7-1.8s-1.1-0.7-1.7-0.7h-13.1c-0.7,0-1.4-0.1-2.1-0.4s-1.2-0.7-1.7-1.2s-0.9-1.1-1.2-1.7c-0.3-0.7-0.4-1.4-0.4-2.1
	c0-0.8,0.1-1.5,0.4-2.1c0.3-0.7,0.7-1.2,1.2-1.7s1.1-0.9,1.7-1.2c0.7-0.3,1.4-0.4,2.1-0.4h17.5v3h-17.5c-0.7,0-1.3,0.2-1.7,0.7
	c-0.4,0.5-0.7,1.1-0.7,1.7c0.1,0.7,0.3,1.3,0.8,1.8s1,0.7,1.7,0.7h13.1c0.7,0,1.4,0.1,2.1,0.4c0.7,0.3,1.2,0.7,1.7,1.2
	s0.9,1.1,1.2,1.7c0.3,0.7,0.4,1.4,0.4,2.1c0,0.8-0.1,1.5-0.4,2.2c-0.3,0.7-0.7,1.3-1.2,1.7c-0.5,0.5-1.1,0.9-1.7,1.2
	c-0.7,0.3-1.4,0.4-2.1,0.4C128.6,29.8,110.9,29.8,110.9,29.8z"/>
<polygon fill="#9CA3AF" points="161,13.9 150.8,13.9 150.8,29.8 147.9,29.8 147.9,13.9 137.7,13.9 137.7,10.9 161,10.9 "/>
<path fill="#9CA3AF" d="M203.1,20.1c0.6,0.5,1,1.1,1.4,1.8c0.3,0.7,0.5,1.4,0.5,2.2c0,0.8-0.2,1.5-0.5,2.2s-0.7,1.3-1.3,1.8
	c-0.5,0.5-1.2,0.9-1.9,1.2c-0.7,0.3-1.5,0.4-2.2,0.4h-18.5V10.9H199c0.6,0,1.1,0.1,1.7,0.2c0.6,0.1,1.1,0.3,1.6,0.6s0.9,0.6,1.3,1
	c0.4,0.4,0.7,0.8,0.9,1.3c0.3,0.7,0.5,1.4,0.5,2.2c0,0.7-0.2,1.4-0.5,2.1C204.1,19,203.7,19.6,203.1,20.1 M183.5,18.5H199
	c0.3,0,0.7-0.1,1-0.2s0.7-0.3,0.9-0.5c0.3-0.2,0.5-0.4,0.7-0.7c0.2-0.3,0.3-0.6,0.3-1s-0.1-0.7-0.3-1s-0.4-0.5-0.7-0.7
	s-0.6-0.4-1-0.5s-0.7-0.2-1.1-0.2h-15.5v4.8H183.5z M201.7,25.2c0.1-0.3,0.2-0.6,0.2-1c0-0.3-0.1-0.7-0.2-1
	c-0.2-0.3-0.4-0.6-0.6-0.9c-0.3-0.2-0.6-0.4-0.9-0.6c-0.3-0.1-0.7-0.2-1.1-0.2h-15.6v5.3h15.6c0.6,0,1.1-0.2,1.6-0.5
	S201.5,25.6,201.7,25.2"/>
<path fill="#9CA3AF" d="M233.7,13.2c0.7,0.7,1.3,1.6,1.7,2.5c0.4,0.9,0.6,2,0.6,3v11h-3v-8.2h-18.4v8.2h-3v-11c0-1.1,0.2-2.1,0.6-3
	c0.4-0.9,1-1.8,1.7-2.5s1.5-1.3,2.5-1.7c0.9-0.4,1.9-0.6,3-0.6h8.7c1.1,0,2.1,0.2,3,0.6C232.1,12,233,12.5,233.7,13.2 M219.4,13.9
	c-0.6,0-1.2,0.1-1.8,0.4c-0.6,0.3-1.1,0.6-1.5,1s-0.8,0.9-1,1.5c-0.3,0.6-0.4,1.2-0.4,1.8H233c0-0.6-0.2-1.2-0.4-1.8
	c-0.3-0.6-0.6-1.1-1-1.5s-0.9-0.8-1.5-1c-0.6-0.3-1.2-0.4-1.8-0.4H219.4z"/>
<path fill="#9CA3AF" d="M266.2,21.1c-0.3,0.4-0.7,0.7-1.2,0.9c-0.5,0.2-0.9,0.4-1.4,0.6c0.4,0.6,0.9,1.2,1.3,1.8
	c0.5,0.6,0.9,1.2,1.4,1.9c0.5,0.6,0.9,1.2,1.4,1.9c0.5,0.6,0.9,1.2,1.3,1.7h-3.8L260,23h-14.3v6.9h-3v-19h19.1c1.3,0,2.4,0.3,3.4,1
	c0.9,0.5,1.5,1.2,2,2.1c0.5,0.9,0.8,1.8,0.8,2.9c0,0.8-0.2,1.6-0.5,2.3C267.2,19.9,266.8,20.6,266.2,21.1L266.2,21.1z M245.7,19.9
	h16.2c0.4,0,0.8-0.1,1.2-0.2c0.4-0.2,0.7-0.4,1-0.6c0.3-0.3,0.5-0.6,0.7-1s0.3-0.8,0.3-1.2c0-0.4-0.1-0.8-0.3-1.2
	c-0.2-0.4-0.4-0.7-0.7-1c-0.3-0.3-0.6-0.5-1-0.6c-0.4-0.2-0.8-0.2-1.2-0.2h-16.1L245.7,19.9L245.7,19.9z"/>
<polygon fill="#9CA3AF" points="295.9,13.9 285.8,13.9 285.8,29.8 282.8,29.8 282.8,13.9 272.6,13.9 272.6,10.9 295.9,10.9 "/>
<polygon fill="#9CA3AF" points="325.2,10.9 325.2,29.8 322.2,29.8 322.2,21.2 305.3,21.2 305.3,29.8 302.3,29.8 302.3,10.9 
	305.3,10.9 305.3,18.2 322.2,18.2 322.2,10.9 "/>
<polygon fill="#9CA3AF" points="110.7,37.3 116.1,37.3 116.1,38.9 112.4,38.9 112.4,40.4 115.9,40.4 115.9,42 112.4,42 112.4,43.7 
	116.3,43.7 116.3,45.3 110.7,45.3 "/>
<polygon fill="#9CA3AF" points="138.8,41.1 136.2,37.3 138.4,37.3 140.1,40.1 141.8,37.3 143.9,37.3 141.3,41.1 144.2,45.3 
	142,45.3 140,42.1 138.1,45.3 136,45.3 "/>
<polygon fill="#9CA3AF" points="164.2,37.3 169.6,37.3 169.6,38.9 165.9,38.9 165.9,40.4 169.4,40.4 169.4,42 165.9,42 165.9,43.7 
	169.8,43.7 169.8,45.3 164.2,45.3 "/>
<path fill="#9CA3AF" d="M195.6,39.3c-0.2-0.2-0.4-0.4-0.6-0.5c-0.3-0.1-0.5-0.2-0.9-0.2c-0.3,0-0.6,0.1-0.9,0.2
	c-0.3,0.1-0.5,0.3-0.7,0.5s-0.4,0.5-0.5,0.8s-0.2,0.7-0.2,1c0,0.4,0.1,0.7,0.2,1c0.1,0.3,0.3,0.6,0.5,0.8s0.4,0.4,0.7,0.5
	s0.6,0.2,0.9,0.2c0.4,0,0.7-0.1,1-0.2c0.3-0.2,0.5-0.4,0.7-0.6l1.5,1.1c-0.3,0.5-0.8,0.8-1.3,1.1c-0.5,0.2-1.1,0.3-1.6,0.3
	c-0.6,0-1.2-0.1-1.7-0.3s-1-0.5-1.4-0.8c-0.4-0.4-0.7-0.8-0.9-1.3s-0.3-1.1-0.3-1.7c0-0.6,0.1-1.2,0.3-1.7s0.5-1,0.9-1.3
	c0.4-0.4,0.8-0.7,1.4-0.8c0.5-0.2,1.1-0.3,1.7-0.3c0.2,0,0.5,0,0.7,0.1c0.2,0,0.5,0.1,0.7,0.2s0.5,0.2,0.7,0.4s0.4,0.3,0.6,0.6
	L195.6,39.3z"/>
<path fill="#9CA3AF" d="M224,42.2c0,0.5-0.1,0.9-0.2,1.3c-0.1,0.4-0.4,0.8-0.6,1c-0.3,0.3-0.6,0.5-1.1,0.7c-0.4,0.2-0.9,0.3-1.5,0.3
	s-1.1-0.1-1.5-0.3s-0.8-0.4-1.1-0.7s-0.5-0.6-0.6-1s-0.2-0.8-0.2-1.3v-4.9h1.8v4.9c0,0.3,0,0.5,0.1,0.7s0.2,0.4,0.3,0.6
	c0.1,0.2,0.3,0.3,0.5,0.4c0.2,0.1,0.4,0.1,0.7,0.1c0.2,0,0.4,0,0.6-0.1c0.2-0.1,0.4-0.2,0.5-0.4s0.3-0.3,0.3-0.6
	c0.1-0.2,0.1-0.4,0.1-0.7v-4.9h1.8L224,42.2L224,42.2z"/>
<polygon fill="#9CA3AF" points="246.2,38.8 243.9,38.8 243.9,37.3 250.3,37.3 250.3,38.8 248,38.8 248,45.3 246.2,45.3 "/>
<rect x="270.2" y="37.3" fill="#9CA3AF" width="1.8" height="8"/>
<polygon fill="#9CA3AF" points="291.9,37.3 293.9,37.3 295.9,42.5 295.9,42.5 298,37.3 299.9,37.3 296.5,45.3 295.1,45.3 "/>
<polygon fill="#9CA3AF" points="319.8,37.3 325.3,37.3 325.3,38.9 321.6,38.9 321.6,40.4 325.1,40.4 325.1,42 321.6,42 321.6,43.7 
	325.5,43.7 325.5,45.3 319.8,45.3 "/>
</svg>
