<?xml version="1.0" encoding="utf-8"?>
<!-- Generator: Adobe Illustrator 26.1.0, SVG Export Plug-In . SVG Version: 6.00 Build 0)  -->
<svg version="1.1" id="Layer_1" xmlns="http://www.w3.org/2000/svg" xmlns:xlink="http://www.w3.org/1999/xlink" x="0px" y="0px"
	 width="318px" height="48px" viewBox="0 0 318 48" enable-background="new 0 0 318 48" xml:space="preserve">
<path fill-rule="evenodd" clip-rule="evenodd" fill="#9CA3AF" d="M0,36.3C32.5,27,65.3,18.5,97.6,8.4c11.9-3.7,28,0.3,39.4,3.7
	c-20.9,10.3-48,17.8-63.3,19.4C58.4,33.2,28,37.5,0,36.3L0,36.3z"/>
<path fill-rule="evenodd" clip-rule="evenodd" fill="#9CA3AF" d="M35.4,36.5c0,0,42.2,1,86.6-16.5c4-0.3,12.1,0.2,16.1,1.7
	c-11.5,7.5-33.7,13.8-48.8,16.6c-15.6,2.8-45,9.7-89,7.2L35.4,36.5z"/>
<path fill-rule="evenodd" clip-rule="evenodd" fill="#9CA3AF" d="M162.5,42.6V46c-1.3,0.6-2.5,1.1-3.9,1.5c-1.3,0.3-2.6,0.5-3.9,0.5
	c-1.2,0-2.4-0.2-3.5-0.5s-2.2-0.8-3.2-1.4c-1.6-1-2.8-2.4-3.7-4s-1.3-3.3-1.3-5.2c0-1.4,0.3-2.8,0.9-4.1c0.6-1.3,1.4-2.5,2.5-3.5
	c1.1-1.1,2.4-1.9,3.9-2.4c1.4-0.5,3-0.8,4.7-0.8c1.2,0,2.4,0.1,3.6,0.4c1.2,0.3,2.4,0.7,3.7,1.3v3.3c-1.4-0.7-2.6-1.3-3.8-1.6
	c-1.2-0.3-2.4-0.5-3.5-0.5c-2.5,0-4.6,0.8-6.2,2.3c-1.6,1.5-2.5,3.5-2.5,5.8c0,2.3,0.8,4.2,2.4,5.8c1.6,1.5,3.6,2.3,6.1,2.3
	c1.2,0,2.5-0.2,3.8-0.6C159.9,44.1,161.2,43.4,162.5,42.6L162.5,42.6z"/>
<path fill-rule="evenodd" clip-rule="evenodd" fill="#9CA3AF" d="M187,32.8c-0.6-1.3-1.4-2.5-2.5-3.6c-1.1-1-2.3-1.8-3.7-2.4
	s-2.9-0.8-4.4-0.8s-3,0.3-4.4,0.8s-2.6,1.3-3.7,2.4c-1.1,1-1.9,2.2-2.5,3.5c-0.6,1.3-0.9,2.7-0.9,4.1c0,1.5,0.3,2.9,0.9,4.3
	c0.6,1.3,1.4,2.5,2.5,3.6c1.1,1,2.3,1.8,3.7,2.4c1.4,0.6,2.9,0.8,4.4,0.8c1.6,0,3-0.3,4.4-0.8s2.6-1.3,3.7-2.4
	c1.1-1,1.9-2.2,2.5-3.5s0.9-2.7,0.9-4.2C187.8,35.6,187.6,34.2,187,32.8z M183.9,40.1c-0.4,1-1,1.9-1.8,2.6
	c-0.8,0.8-1.7,1.4-2.7,1.8c-1,0.4-2.1,0.6-3.2,0.6c-1.1,0-2.2-0.2-3.2-0.6c-1-0.4-1.9-1-2.6-1.8c-0.8-0.8-1.4-1.6-1.8-2.6
	c-0.4-1-0.6-2-0.6-3.1s0.2-2.1,0.6-3.1c0.4-1,1-1.9,1.8-2.6c0.8-0.8,1.7-1.4,2.7-1.8s2-0.6,3.1-0.6s2.2,0.2,3.1,0.6
	c1,0.4,1.9,1,2.6,1.8c0.8,0.8,1.4,1.7,1.8,2.6c0.4,1,0.6,2,0.6,3.1C184.6,38.1,184.4,39.1,183.9,40.1z"/>
<polygon fill-rule="evenodd" clip-rule="evenodd" fill="#9CA3AF" points="191.3,47.6 191.3,26.4 193.9,26.4 201.7,35.3 209.4,26.4 
	212.1,26.4 212.1,47.6 209.1,47.6 209.1,31.1 201.7,39.6 194.3,31.1 194.3,47.6 "/>
<polygon fill-rule="evenodd" clip-rule="evenodd" fill="#9CA3AF" points="216.7,47.6 216.7,26.4 219.4,26.4 227.1,35.3 234.9,26.4 
	237.6,26.4 237.6,47.6 234.6,47.6 234.6,31.1 227.1,39.6 219.7,31.1 219.7,47.6 "/>
<path fill-rule="evenodd" clip-rule="evenodd" fill="#9CA3AF" d="M242,26.4h3.1v12.2c0,1.4,0.1,2.3,0.2,2.9c0.2,0.6,0.4,1.1,0.8,1.5
	c0.6,0.7,1.4,1.3,2.3,1.7c0.9,0.4,1.9,0.5,3,0.5c1.9,0,3.4-0.5,4.5-1.4c1.1-1,1.7-2.2,1.7-3.8V26.4h3.1V40c0,2.4-0.9,4.3-2.6,5.8
	s-3.9,2.2-6.7,2.2c-1.6,0-3.1-0.3-4.4-0.9c-1.3-0.6-2.4-1.4-3.3-2.5c-0.6-0.7-0.9-1.4-1.2-2.2c-0.2-0.8-0.3-2.1-0.3-3.7V26.4H242z"
	/>
<polygon fill-rule="evenodd" clip-rule="evenodd" fill="#9CA3AF" points="270.9,47.6 270.9,29.2 263,29.2 263,26.4 281.8,26.4 
	281.8,29.2 273.9,29.2 273.9,47.6 "/>
<polygon fill-rule="evenodd" clip-rule="evenodd" fill="#9CA3AF" points="284.4,47.6 284.4,26.4 297.3,26.4 297.3,29.1 287.4,29.1 
	287.4,35.5 297,35.5 297,38.3 287.4,38.3 287.4,44.9 297.6,44.9 297.6,47.6 "/>
<path fill-rule="evenodd" clip-rule="evenodd" fill="#9CA3AF" d="M312.8,39.9c-0.5-0.7-0.9-1.3-1.2-1.6c-0.3-0.3-0.7-0.6-1-0.8
	c1.4-0.4,2.4-1.1,3.1-1.9c0.6-0.8,1-2,1-3.4c0-1.8-0.6-3.3-1.8-4.3c-1.2-1-2.9-1.5-5-1.5h-6.3v21.2h3.1v-9.5h0.9
	c0.9,0,1.8,0.2,2.4,0.7c0.7,0.5,1.6,1.5,2.7,3.2l3.7,5.6h3.7L312.8,39.9z M307.1,35.6h-2.6V29h2.6c1.5,0,2.6,0.3,3.3,0.8
	c0.7,0.5,1,1.4,1,2.5c0,1.1-0.4,2-1.1,2.5C309.6,35.3,308.5,35.6,307.1,35.6z"/>
<path fill-rule="evenodd" clip-rule="evenodd" fill="#9CA3AF" d="M192.9,0.4h12.6c2.1,0,3.7,0.5,4.8,1.5s1.7,2.2,1.7,3.7
	c0,1.2-0.4,2.3-1.2,3.2c-0.5,0.6-1.3,1.1-2.4,1.4c1.6,0.4,2.7,1,3.5,1.9c0.7,0.9,1.1,2,1.1,3.3c0,1.1-0.3,2.1-0.8,2.9
	c-0.5,0.9-1.2,1.6-2.2,2.1c-0.6,0.3-1.4,0.5-2.6,0.7c-1.5,0.2-2.5,0.3-3,0.3h-11.6L192.9,0.4L192.9,0.4z M199.7,8.6h2.9
	c1.1,0,1.8-0.2,2.2-0.5c0.4-0.4,0.6-0.9,0.6-1.5s-0.2-1.1-0.6-1.4c-0.4-0.3-1.1-0.5-2.2-0.5h-3v3.9H199.7z M199.7,16.8h3.4
	c1.2,0,2-0.2,2.5-0.6s0.7-0.9,0.7-1.6c0-0.6-0.2-1.1-0.7-1.5s-1.3-0.6-2.5-0.6h-3.4V16.8L199.7,16.8z M229.4,17.9h-7.7l-1.1,3.5
	h-6.9l8.2-21h7.3l8.2,21h-7.1L229.4,17.9L229.4,17.9z M228,13.3l-2.4-7.5l-2.4,7.5H228L228,13.3z M239.8,21.3v-21H251
	c2.1,0,3.7,0.2,4.8,0.5c1.1,0.3,2,1,2.7,1.9s1,2.1,1,3.4c0,1.2-0.3,2.2-0.8,3s-1.2,1.5-2.1,2.1c-0.6,0.3-1.4,0.6-2.4,0.8
	c0.8,0.3,1.4,0.5,1.8,0.8c0.2,0.2,0.6,0.5,1.1,1.1s0.8,1,0.9,1.3l3.3,6.1h-7.6l-3.6-6.4c-0.5-0.8-0.9-1.4-1.2-1.6
	c-0.5-0.3-1-0.5-1.7-0.5h-0.6v8.5H239.8L239.8,21.3z M246.6,8.9h2.8c0.3,0,0.9-0.1,1.8-0.3c0.4-0.1,0.8-0.3,1.1-0.7
	c0.3-0.4,0.4-0.8,0.4-1.2c0-0.7-0.2-1.2-0.7-1.6c-0.4-0.4-1.3-0.5-2.5-0.5h-3L246.6,8.9L246.6,8.9z M261.6,0.4h20.5v5.2h-6.9v15.8
	h-6.7V5.5h-6.9V0.4L261.6,0.4z M285.2,0.4h6.7v7.3h7.4V0.4h6.8v21h-6.8v-8.5h-7.4v8.5h-6.7V0.4L285.2,0.4z M143,14.4l6.5-0.4
	c0.1,1,0.4,1.8,0.9,2.3c0.7,0.8,1.7,1.3,3,1.3c1,0,1.7-0.2,2.2-0.6s0.8-0.9,0.8-1.5c0-0.5-0.2-1-0.7-1.5c-0.5-0.4-1.7-0.8-3.5-1.2
	c-3-0.6-5.1-1.5-6.4-2.5c-1.3-1.1-1.9-2.4-1.9-4c0-1.1,0.3-2.1,1-3.1s1.6-1.7,3-2.3c1.3-0.5,3.1-0.8,5.4-0.8c2.8,0,4.9,0.5,6.4,1.5
	s2.3,2.6,2.6,4.8l-6.4,0.4c-0.2-0.9-0.5-1.6-1.1-2.1c-0.5-0.4-1.3-0.6-2.2-0.6c-0.8,0-1.4,0.2-1.8,0.5c-0.4,0.3-0.6,0.7-0.6,1.2
	c0,0.3,0.2,0.6,0.5,0.9s1.1,0.5,2.3,0.8c3,0.6,5.1,1.2,6.4,1.9c1.3,0.6,2.2,1.4,2.8,2.3c0.6,0.9,0.9,2,0.9,3.1
	c0,1.3-0.4,2.6-1.2,3.7s-1.9,2-3.3,2.6c-1.4,0.6-3.2,0.9-5.3,0.9c-3.7,0-6.3-0.7-7.8-2.1C144,18.3,143.2,16.5,143,14.4L143,14.4z
	 M164.8,0.4h20.6v5.2h-6.9v15.8h-6.8V5.5h-6.9L164.8,0.4L164.8,0.4z"/>
</svg>
