<?xml version="1.0" encoding="utf-8"?>
<!-- Generator: Adobe Illustrator 26.1.0, SVG Export Plug-In . SVG Version: 6.00 Build 0)  -->
<svg version="1.1" id="layer" xmlns="http://www.w3.org/2000/svg" xmlns:xlink="http://www.w3.org/1999/xlink" x="0px" y="0px"
	 width="610px" height="161px" viewBox="0 0 610 161" enable-background="new 0 0 610 161" xml:space="preserve">
<path fill-rule="evenodd" clip-rule="evenodd" fill="#9CA3AF" d="M8.4,61.1v3.8c0,8.5,5.1,17.8,10,21.4c7.1,5.3,11.8,7.3,21.2,10.2
	c3.7,1.2,8.3,2.5,12.1,3.5c3.4,0.8,9,2.5,12.1,3.7c6.8,2.7,16.1,6.3,16.1,15.5v0.8c0,12.6-11.7,17.7-24.6,17.7h-0.4
	c-12,0-20.8-5.5-26.8-11.5c-3.4-3.4-6-6.4-8.8-10.4c-1.4-2.1-6.3-10.1-6.8-12.4H5.1L5,105.3l1.1,36.2v1.3h7.2c1.1,0,5.3-5.3,6.5-5.3
	c0,0,7,2.9,8.1,3.3c2.6,0.9,6.2,2,8.8,2.6c6.5,1.4,12.7,2.4,20.6,2.4h3.2c23.3,0,48.4-12.5,48.4-35v-0.6c0-9.3-5.1-17.2-10.3-21.3
	c-3.3-2.5-5.9-4.1-9.7-6.1c-3.9-2-7.7-2.6-11.8-4.2c-1.4-0.5-4.5-1.4-6.1-1.7c-1.7-0.4-4.2-1.4-6.1-1.9c-4.2-1.1-8.3-2.7-12.3-3.7
	c-3.4-0.9-8-3.4-10.5-5.3c-3-2.2-5.5-5.3-5.5-10.5v-2c0-4.5,4.1-8.8,7-10.7c3.6-2.4,8.1-3.8,14.1-3.8h2.1c9.9,0,17.4,5.9,22.3,11
	c2.2,2.3,12,18,12.3,21.2h7.6l-0.6-30.8v-6.5h-7.6c-0.6,0-5,4.4-5.3,4.4c-1,0-5.6-2.1-6.9-2.6c-2.4-0.8-5-1.4-7.4-2.3
	c-3.8-1.3-11.8-2.5-16.9-2.5H51c-9.4,0-22.4,4.5-28,8.2C17.3,43,8.4,52,8.4,61.1"/>
<path fill-rule="evenodd" clip-rule="evenodd" fill="#9CA3AF" d="M119.6,67.6h-2.7v6.1c4.3,0,8.1,1.1,10.7,3
	c3.5,2.6,3.7,4.4,3.7,10.2c0,9.3,0,18.5,0,27.8c0,10.4,1,16.3,5.6,22.2c3.6,4.5,11.4,8.4,19.4,8.4h2.9c8.1,0,13.1-1.3,18.7-3.8
	c2.7-1.2,4.9-2.6,7.2-4.2c1.2-0.8,5.4-4.8,6.5-4.8v9.7c0,0.6,0.7,1,1.1,1.3l41.7-1.9v-5.9c-6.9,0-14.3-1.9-14.3-8.4V66.8
	c-1-0.3-0.7-0.8-1.5-0.8h-0.4l-41.7,1.7v6.1h0.8c3.3,0,7.1,0.4,9.4,1.5c1.8,0.8,4.5,4.3,4.5,6.7v42.9c0,1.5-5.8,5.5-7.2,6.3
	c-3,1.6-6.4,2.6-10.9,2.6c-14.6,0-13.1-12.4-13.1-26.8c0-13.3,0-26.5,0-39.9c-0.2-0.4-0.7-1.1-1.3-1.1H157L119.6,67.6z"/>
<path fill-rule="evenodd" clip-rule="evenodd" fill="#9CA3AF" d="M244.9,87.2V91c0,11.9,12.9,18.8,22.4,21.7
	c5.6,1.7,11.8,2.9,17.2,4.7c4.9,1.7,11.8,3.8,11.8,10.3c0,9.1-7.1,11.2-16.2,11.2h-1.5c-7.4,0-14.3-4.8-18.7-8.1
	c-3.5-2.6-10.4-10.9-11.5-15.5h-6.3l1.2,28.6h6.7l2.4-5c0.8,0.1,4.6,1.9,6,2.4c1.9,0.6,4.7,1.7,6.6,2c4.9,1,8.8,2.1,15,2.1h2.7
	c10.9,0,18.9-2.1,26.1-5.7c6-3,13.3-9.9,13.3-18.7v-3.8c0-6.1-4.1-11.1-7.5-14c-4.2-3.5-8.7-5.3-14.5-7.2
	c-8.1-2.7-29.2-4.8-29.2-14.2v-2.9c0-4.1,7.1-7.6,11.6-7.6h4.6c6.2,0,11.4,4.1,15.1,6.8c2.6,1.9,8.8,9.2,9.1,12.8h6.4l-1.5-26.1
	h-6.7l-1.7,4.4c-0.5,0-4.8-1.4-5.7-1.7c-1.8-0.6-4.4-0.8-6.1-1.5c-2.6-0.9-10.1-1.3-13.9-1.3h-2.5C264.3,64.6,244.9,72.7,244.9,87.2
	"/>
<path fill-rule="evenodd" clip-rule="evenodd" fill="#9CA3AF" d="M330.8,68.2v5.5c6.8,0,15.8,3.5,15.8,10.1v45.6
	c0,2.8-1.7,5.1-3.6,6c-1.4,0.7-6.2,1.5-8.1,1.5h-1.3v5.9h55v-5.9c-1.7,0-7.3-1.4-8.5-2c-2.2-1.1-4.6-3.1-4.6-6.2v-62
	c-0.8-0.2-1.2-0.8-1.7-0.8c-3.9,0-6.9,0.4-10.7,0.4c-2.7,0-8.2,0.1-10.9,0.4c-3.4,0.4-7.5,0.1-10.8,0.6c-1.2,0.2-4.2,0.2-5.4,0.3
	C334.7,67.7,330.8,67.1,330.8,68.2"/>
<path fill-rule="evenodd" clip-rule="evenodd" fill="#9CA3AF" d="M605,85.9v-2.3c-0.7-0.9-0.6-1.5-1.9-2.3c-0.9-0.5-1.9-0.8-3.4-0.8
	h-1c-4.5,0-12,6.4-14.7,8.9c-2.1,1.9-10.8,10.1-11.4,12.4h-0.4c0-0.6,1.8-6.7,2.2-7.7c0.3-1,2.2-7,2.2-7.7v-1.3
	c0-0.9-1.7-1.5-2.7-1.5h-1.1c-5,0-12,3.3-15.5,5.2c-2,1.1-11.8,7-11.8,8.7l2.2,2c2.8-1.5,9.8-8.2,13.3-8.2c0.7,0,1.7,0.6,1.7,1.1
	c0,3.5-2,9.1-2.8,12.6c-0.4,1.7-1.4,4.2-1.8,6c-0.4,1.9-1.1,4.4-1.7,6.1c-1.2,3.8-2.3,8.1-3.7,11.7c-0.5,1.3-3.7,11-3.7,11.9h12.2
	c0-1.7,2.1-7.5,2.6-9.6c0.7-3.2,1.7-6.4,2.7-9.5c2.2-6.9,3.5-11.8,7.9-16.7c3.9-4.3,7.9-8.6,13.6-11.1c2.6-1.1,6-2.5,9-3.2
	c1.3-0.3,3.4-1,4.6-1.5C604.2,87.8,603.6,87.9,605,85.9"/>
<path fill-rule="evenodd" clip-rule="evenodd" fill="#9CA3AF" d="M356.7,21.2c-0.7-0.3-1.5-5-1.5-6.1h-0.6c0.1-0.7,0.3-0.7,0.2-1.3
	l-0.2-2.1c-0.3-0.3-0.3-0.4-0.8-0.4c-0.3,0-0.4,0.3-0.4,0.6c0,0.4,0.1,0.3,0.2,0.8h-0.9c0,2.2-2.5,10.5-3.3,12.5
	c-1.4,3.7-3.4,7.4-6.4,9.4c-1.7-2.5-2.3-3.6-3.7-6.6c-1.1-2.4-1.9-4.9-3.2-7.2c-1.8-3.3-6.9-9.3-10.6-10.2h-0.6l0.4,1.3
	c2.5,4.7,4.7,8.1,5.7,14.5c1.1,6.5,1.2,11.2,1.2,19l2.3-2.3v-0.7c0.5-0.3,0.9-1.1,1.5-1.1c1,0,1.8,1.3,2.4,2.1
	c0.4,0.5,1.8,1.8,2.2,2.1l0.2-0.8h1.1l3-3l4.4,4.3l-0.2,0.4h0.8l-0.3-0.5l4.1-4l4.2,4.3l-1.7,1.9l0.5-0.2l1.9-1v0.2l0.7,1h0.6
	l-1.9-2.1l4.2-4.2v0.3l3.7,3.7h0.9l0.2-0.6h0.6l3.1-2.9l3.8,3.8c0-7.4,0-12.9,1.2-19c0.5-2.4,1.5-5.7,2.3-7.8c0.7-1.7,2.9-5.8,3.2-7
	c0.7,0.1,0.7,0.2,1.5,0.2h0.2c1.3,0,2.5-1.7,2.5-2.9c0-1.2-1.1-3.2-2.1-3.2H382c-0.9,0-1.9,1.6-1.9,2.7v0.8c0,0.8,0.2,0.7,0.4,1.5
	c-4.6,2.4-7.5,5.3-10.1,9.7c-1.2,2.1-2,4.4-3,6.9c-1.1,2.8-2.3,4-3.7,6.2c-2.1-1.4-3.3-3.2-4.7-5.4
	C358.1,26.6,357.4,22.3,356.7,21.2"/>
<path fill-rule="evenodd" clip-rule="evenodd" fill="#9CA3AF" d="M504.3,96.9l3.6,2.1c2.5-1.3,9.2-7.8,12-7.8h1.7
	c0.5,0,0.8,0.3,0.8,0.8v1.5c0,1.2-6.3,17.8-7.2,20.4c-1.7,4.5-5.6,16.7-5.6,22.2v1.3c0,3.2,2.9,4.8,6.1,4.8h0.8c3.6,0,11-4,13.4-5.6
	c2-1.3,3.7-2.6,5.6-3.9c1.7-1.2,3.8-3.1,5.5-4c-0.3-0.5-2.8-2.5-3.2-2.5c-1.1,0-10.3,8.2-13.7,8.2c-0.8,0-1.7-0.6-1.7-1.3v-1.7
	c0-4.4,5.1-18.3,6.6-22.3c1.2-3.1,7.1-19.3,7.1-21.9v-1.5c0-1.6-3-2.5-4.8-2.5h-0.8c-5.4,0-11.4,2.9-14.8,5
	C513.2,89.7,505.6,94.9,504.3,96.9"/>
<path fill-rule="evenodd" clip-rule="evenodd" fill="#9CA3AF" d="M485.7,138.1c-3,0.3-8.4-0.7-10.7-1.3c0-3.3,1.2-7.4,1.3-10.5
	c0.1-2.5,0.9-8,1.4-10.7c1.2-6.7,1.5-14.6,3.1-20.7c0.8-3.1,0.9-7,1.7-10.1c0.8-3.1,1-7,1.7-10.3c0.7-3.4,1-6.7,2-10
	c0.9-3.1,1.8-6.6,2.4-9.6c-3.2,1.7-3.5,2.1-7.5,3.5c-1.5,0.5-8,1.2-10,1.2c-6.1,0-15,1-20.2,2.2c-6.5,1.4-10.9,3.3-15.8,6.5
	c-3.5,2.3-8.5,8.4-8.5,13.9v1.3c0,3.6,2.2,6.5,5.7,6.5h0.8c2,0,4.4-1.3,4.4-3.2v-0.4c0-2.6-2.1-4.4-2.1-7.2v-0.8
	c0-3.1,3.3-6.6,5.2-8.1c2.6-1.9,5.8-3.3,9.4-4.1c3.8-0.8,8-0.9,11.8-1.7c1.6-0.3,4.8,0,6.3-0.4c1-0.3,4.9-0.5,6.3-0.5
	c-1.5,2.3-7.9,8-10.3,10.6c-3.4,3.7-6.6,7.1-9.9,11c-6.5,7.7-12.6,15.2-19,22.9c-6.2,7.4-12.5,16-19.2,22.7
	c-5.3,5.3-14.9,17.2-24.7,17.2h-0.8c-2.6,0-6.4-1.5-8.8-1.5h-0.6c-1.8,0-4.2,1.7-4.2,3.4v1.9c0,1.1,2.1,2.8,3.1,3.2
	c1.7,0.7,3.2,1,5.5,1h2.5c0.4,0,3.9-0.8,4.5-0.9c1.6-0.4,2.7-0.9,4-1.4c2.7-1.1,5-2.3,7.2-3.8c3.6-2.4,8.9-6.9,11.7-10.2
	c3.2-3.9,7.3-7.4,10.5-11.4c1.2-1.5,9.3-11.5,10.1-12.1l24.4-0.4h4.8c0,3.3-1.5,10.9-2.3,13.7c-0.6,2.2-1.2,3.9-2,6
	c-0.6,1.4-2.1,4.7-2.4,5.8l7.8-0.8l1.3-0.1l22.3,1.1h1.7c0.7,0,1.2-3.2,1.3-4L485.7,138.1z M471.6,80.8c-0.9,3.1-1.4,6.7-2.1,9.9
	c-0.6,2.6-1.5,7.8-1.8,10.2c-0.4,3.1-1.5,7.6-1.5,10.3h-25.9c0.2-0.8,14.6-18.1,16.5-20.4c2.6-3.3,5.5-7.2,8.4-10.1
	c2.1-2,6.9-8.2,8.8-9.5C473.9,72.9,472.2,78.8,471.6,80.8z"/>
<path fill-rule="evenodd" clip-rule="evenodd" fill="#9CA3AF" d="M334.6,43.2l1.4-1.3l4.3,4.2l-4,4.1l-4.1-3.8L332,56.7h43v-4.8
	l-0.3-4.4l-3.5,3.4l-4.5-4.4l1.1-1.1h-0.6L367,46h-0.9l0.5,0.6l-4,4.1l-2.6-2.4h-0.6l-0.7-1v-0.2l-1.9,1l-0.5,0.2
	c-0.8,0.5-1.5,2.1-2.3,2.1c-0.2,0-3.4-3.4-4-3.8h-0.8l-4,3.8l-4.3-4.2l1.1-1.3h-1.1l-0.2,0.8c-0.4-0.3-1.8-1.7-2.2-2.1
	c-0.6-0.7-1.3-2.1-2.4-2.1c-0.5,0-1,0.7-1.5,1.1L334.6,43.2L334.6,43.2z"/>
<path fill-rule="evenodd" clip-rule="evenodd" fill="#9CA3AF" d="M532.6,60.6v1.3c0,2.8,2.6,4.6,5.5,4.6h0.2c3.9,0,8.2-3.1,8.2-6.7
	v-0.4c0-3.2-1.5-3.6-3.4-4.8l-2.5-0.2H540C536.4,54.3,532.6,57.6,532.6,60.6"/>
<path fill-rule="evenodd" clip-rule="evenodd" fill="#9CA3AF" d="M352.7,12.7h0.8c-0.1-0.6-0.2-0.4-0.2-0.8c0-0.3,0.1-0.6,0.4-0.6
	c0.5,0,0.5,0.2,0.8,0.4l0.2,2.1c0.1,0.5-0.2,0.5-0.2,1.3h0.6c0,1.1,0.8,5.8,1.5,6.1l-1.9-10.3c0.7-0.2,1.7-1.3,1.7-1.9V7.5
	c0-1.1-1.1-2.5-2.3-2.5h-0.4c-1.3,0-2.5,1.6-2.5,2.9c0,1.6,0.9,2.5,1.9,3.2L352.7,12.7z"/>
<path fill-rule="evenodd" clip-rule="evenodd" fill="#9CA3AF" d="M325.3,11.9l-0.4-1.3h0.6l-0.6-0.4c0.2-0.5,0.6-1,0.6-1.7V7.9
	c0-1.8-1-2.9-2.7-2.9c-1.4,0-2.5,1.6-2.5,2.9c0,1.4,0.9,3.2,2.3,3.2h0.4c0.6,0,0.8-0.1,1.3-0.3L325.3,11.9z"/>
</svg>
