<?xml version="1.0" encoding="utf-8"?>
<!-- Generator: Adobe Illustrator 26.1.0, SVG Export Plug-In . SVG Version: 6.00 Build 0)  -->
<svg version="1.1" id="Layer_1" xmlns="http://www.w3.org/2000/svg" xmlns:xlink="http://www.w3.org/1999/xlink" x="0px" y="0px"
	 width="790px" height="190px" viewBox="0 0 790 190" enable-background="new 0 0 790 190" xml:space="preserve">
<path fill="#9CA3AF" d="M149.9,5h97.6c-15.1,59.9-29.6,120.1-44.7,180H5v-1.9l0,1.8C53.2,124.9,101.5,64.9,149.9,5 M139,39.7
	c0,12.9,0,25.8,0,38.7c-12.9,0-25.8,0-38.7,0c0.1,11.1,0.1,22.1,0,33.2c12.9,0.1,25.8,0,38.7,0c-0.1,12.9,0,25.8,0,38.7
	c11.2,0.1,22.4,0,33.6,0c-0.1-12.9,0-25.8,0-38.7c13,0,25.9,0,38.9,0c0-11.1,0-22.1,0-33.2c-13,0-25.9,0-38.9,0
	c0-12.9,0-25.8,0-38.7C161.4,39.6,150.2,39.6,139,39.7z M279.4,45.2c10.2-8.8,24.5-11.2,37.6-10.7c12.1,0.5,25.3,3.6,33.6,13.2
	c5.1,5.6,6.9,13.1,7.4,20.5c-9.5,0.1-19.1,0-28.6,0c-0.5-5.2-3.2-10.7-8.6-12.3c-7-2-16.5-1.7-21,5c-3.3,5.4,0.2,12.3,5.6,14.8
	c15.2,7.7,34.1,9.1,46.6,21.7c12,13.9,9.5,38-5.2,49.2c-10.5,8.3-24.6,10.2-37.6,9.4c-12.2-0.8-25.3-4-34-13.2
	c-5.9-6.2-8.3-14.8-8.2-23.2c9.5,0,19,0,28.6,0c0.7,3.8,1.6,8,4.6,10.8c4.7,4.8,12.1,5.5,18.4,4.6c6.4-1,12-6.9,11.5-13.6
	c-0.2-4.6-3.9-7.9-7.7-9.9c-13.1-6.9-28.9-7.7-40.9-16.7C265.8,83.5,264.7,57.6,279.4,45.2L279.4,45.2z M600.7,45.3
	c9.8-8.6,23.4-11,36.1-10.9c12.3,0.4,25.6,3,34.4,12.3c5.6,5.6,7.8,13.6,8.3,21.4c-9.6,0.1-19.1,0.1-28.7,0
	c-0.5-4.9-2.8-10.2-7.8-11.9c-6.3-2.2-14.3-2.1-19.7,2.3c-4.3,3.5-4.2,10.6-0.5,14.5c4,4.1,9.8,5.6,15.1,7.3
	c10.9,3.3,22.2,6.3,31.5,13.1c16.2,11.7,16.1,38.4,1.4,51.3c-10.4,9.4-25.2,11.9-38.7,11.4c-12.7-0.7-26.4-3.7-35.4-13.4
	c-5.9-6.1-8.2-14.7-8.2-23c9.5,0,19.1,0,28.7,0c0.8,3.8,1.5,7.9,4.5,10.7c5.5,5.6,14.5,6.1,21.6,3.8c7.7-2.6,11.6-13.7,5.1-19.6
	c-6.3-5.4-14.8-7.3-22.6-9.8c-10.7-3.1-22.3-7-29.2-16.3C587.4,75.5,588.7,55.8,600.7,45.3L600.7,45.3z M704.7,44.7
	c11.6-9.4,27.6-11.3,42.1-9.9c11.1,1,22.8,5,29.8,14.1c4.4,5.4,5.8,12.4,6.3,19.1c-9.5,0.1-19,0-28.5,0.1c-1-3.4-1.5-7.4-4.5-9.7
	c-5.3-4.4-13.2-4.4-19.5-2.3c-5.1,1.7-8.3,7.4-6.6,12.6c1.7,5.5,7.4,8.1,12.4,9.8c12.4,4.2,25.7,6.8,36.4,14.6
	c16.3,11.7,16.2,38.6,1.4,51.5c-10,9.1-24.3,11.7-37.5,11.3c-12.5-0.5-25.9-3.1-35.2-12c-6.7-6.2-9.7-15.5-9.6-24.5
	c9.5,0,19.1,0,28.6,0c0.8,6.1,4,12.2,10,14.3c7.3,2.4,17.1,2.3,22.1-4.5c4.1-5,2.9-13.1-2.7-16.5c-13.7-8.8-31.8-8.6-44.6-19.2
	C690.3,82.1,690,56.7,704.7,44.7L704.7,44.7z M361.7,37.2c9.8,0,19.7,0,29.5,0c6.5,25.6,13,51.3,19.3,77c7.6-25.6,15-51.3,22.6-77
	c9.7,0,19.4,0,29.1,0c7.7,25.6,14.7,51.3,22.8,76.8c6-25.7,12.7-51.1,19-76.7c9.9-0.1,19.8-0.1,29.6,0
	c-10.7,38.5-21.3,77-32.1,115.4c-10.3,0-20.6,0-30.9,0c-7.7-26.2-15.4-52.5-22.8-78.9c-7.9,26.2-15.2,52.6-23,78.9
	c-10.3,0-20.6-0.1-30.9,0C382.9,114.3,372.7,75.6,361.7,37.2L361.7,37.2z M545.3,152.6c-0.1-38.5,0-77,0-115.4h30.1
	c0,38.5,0.1,77-0.1,115.4C565.3,152.6,555.3,152.6,545.3,152.6L545.3,152.6z"/>
</svg>
