<?xml version="1.0" encoding="utf-8"?>
<!-- Generator: Adobe Illustrator 26.1.0, SVG Export Plug-In . SVG Version: 6.00 Build 0)  -->
<svg version="1.1" id="Layer_1" xmlns="http://www.w3.org/2000/svg" xmlns:xlink="http://www.w3.org/1999/xlink" x="0px" y="0px"
	 width="179px" height="35px" viewBox="0 0 179 35" enable-background="new 0 0 179 35" xml:space="preserve">
<path fill="#9CA3AF" d="M32.4,17.5c0-8.9-7-16-15.9-16c-8.9,0-15.9,7.1-15.9,16c0,8.9,7,16,15.9,16C25.3,33.5,32.4,26.4,32.4,17.5
	L32.4,17.5L32.4,17.5z M24.8,21.2c-0.5,3.7-3,6.2-6.9,6.2c-4.2,0-6.8-2.9-6.8-7v-3.3H8.4c-0.9,0-1.4-0.5-1.4-1.4v-0.4
	c0-0.9,0.5-1.4,1.4-1.4h4.7c0.3,0,0.5,0,0.7,0.1c-0.1-0.2-0.1-0.3-0.1-0.5V8.7c0-0.9,0.5-1.4,1.4-1.4h0.6c0.9,0,1.4,0.5,1.4,1.4v2.9
	h2.7c0.9,0,1.4,0.5,1.4,1.4v0.4c0,0.9-0.5,1.4-1.4,1.4h-4.7c-0.3,0-0.5,0-0.7-0.1c0,0.2,0.1,0.3,0.1,0.5v5.1c0,2.2,1.3,3.7,3.4,3.7
	c1.8,0,3.1-1.1,3.3-2.8c0.1-0.9,0.5-1.4,1.4-1.4h0.9l0,0C24.3,19.8,24.9,20.3,24.8,21.2z"/>
<path fill="#9CA3AF" d="M54.2,26H58v-8.1c0-2.9,1.6-4,3.5-4c1.1,0,1.9,0.3,2.7,1l1.7-3c-1-0.9-2.4-1.4-3.7-1.4
	c-1.8,0-3.5,0.8-4.4,2.4l-0.2-2.1h-3.3L54.2,26L54.2,26L54.2,26z M159.7,7.2c0-1.4-1.1-2.2-2.2-2.2c-1.1,0-2.2,0.7-2.2,2.2
	c0,1.5,1.1,2.2,2.2,2.2C158.6,9.3,159.7,8.6,159.7,7.2L159.7,7.2z M47.4,6.4l-3.7,0.4v4h-2.8V14h2.8v6.8c0,3.7,2.1,5.3,5.2,5.3
	c1.3,0,2.5-0.3,3.3-0.8l-1-3c-0.5,0.2-1.2,0.4-1.8,0.4c-1.2,0-1.9-0.7-1.9-2.2V14h4.2v-3.2h-4.2L47.4,6.4L47.4,6.4z M82.2,10.8h-3.4
	l-0.2,2.1c-0.8-1.4-2.5-2.4-5.1-2.4c-4.2,0-7.8,2.6-7.8,7.9s3.6,7.9,7.8,7.9c2.6,0,4.3-1,5.1-2.4l0.2,2.1h3.4L82.2,10.8L82.2,10.8
	L82.2,10.8z M155.6,10.8V26h3.7V10.8L155.6,10.8L155.6,10.8z M74,23c-2.6,0-4.5-1.7-4.5-4.7c0-2.9,1.9-4.7,4.5-4.7
	c2.6,0,4.5,1.7,4.5,4.7C78.4,21.3,76.5,23,74,23L74,23z M135.1,10.8h-3.4l-0.2,2.1c-0.8-1.4-2.5-2.4-5.1-2.4c-4.2,0-7.8,2.6-7.8,7.9
	s3.6,7.9,7.8,7.9c2.6,0,4.3-1,5.1-2.4l0.2,2.1h3.4C135.1,26,135.1,10.8,135.1,10.8z M126.9,23c-2.6,0-4.5-1.7-4.5-4.7
	c0-2.9,1.9-4.7,4.5-4.7c2.6,0,4.5,1.7,4.5,4.7C131.3,21.3,129.4,23,126.9,23L126.9,23z M178.5,10.8h-3.4l-0.2,2.1
	c-0.8-1.4-2.5-2.4-5.1-2.4c-4.2,0-7.8,2.6-7.8,7.9s3.6,7.9,7.8,7.9c2.6,0,4.3-1,5.1-2.4l0.2,2.1h3.4L178.5,10.8L178.5,10.8z
	 M170.3,23c-2.6,0-4.5-1.7-4.5-4.7c0-2.9,1.9-4.7,4.5-4.7c2.6,0,4.5,1.7,4.5,4.7C174.8,21.3,172.8,23,170.3,23L170.3,23z M147.3,26
	l6.5-15.2h-3.9L145.5,22L141,10.8h-4.1l6.5,15.2H147.3L147.3,26z M85.7,26h3.7v-8.1c0-2.6,1.6-4,3.8-4c2.2,0,3.7,1.4,3.7,4V26h3.7
	v-8.7c0-4.5-2.8-6.8-6.4-6.8c-2.4,0-4.1,1-5,2.4l-0.2-2.1h-3.4L85.7,26L85.7,26L85.7,26z M110.2,26.3c4.7,0,6.7-2.1,6.7-4.8
	c0-3.4-3.2-4.3-5.8-4.6c-1.5-0.2-3.8-0.3-3.8-1.8c0-1.1,1.3-1.6,2.9-1.6c1.4,0,2.9,0.4,4.1,1.4l1.9-2.5c-1.7-1.4-3.6-1.9-5.8-1.9
	c-3.2,0-6.9,1.1-6.9,4.8c0,3.4,3,4.3,5.8,4.6c1.6,0.2,3.8,0.4,3.8,1.8c0,1.1-1.2,1.6-2.8,1.6c-1.8,0-4.1-0.6-5.5-2.1l-1.9,2.5
	C104.9,25.7,107.7,26.3,110.2,26.3L110.2,26.3L110.2,26.3z"/>
</svg>
