<?xml version="1.0" encoding="utf-8"?>
<!-- Generator: Adobe Illustrator 26.1.0, SVG Export Plug-In . SVG Version: 6.00 Build 0)  -->
<svg version="1.1" id="Layer_1" xmlns="http://www.w3.org/2000/svg" xmlns:xlink="http://www.w3.org/1999/xlink" x="0px" y="0px"
	 width="651px" height="222px" viewBox="0 0 651 222" enable-background="new 0 0 651 222" xml:space="preserve">
<path fill="#9CA3AF" d="M17.6,64.1h63c6.2,0,10.8,2,12.7,10.7c2,9.8,1.2,16.5-9.8,17.3l-19.8,1.4c14.6,92,99.7,122,146,22.9
	c7.7-16.4,10.2-19.4,18.6-17.3c11.4,2.8,12.9,8.7,7.5,25.2C195.7,246.4,61.1,258.7,34.7,95.6l-16.1,1.2C5.5,97.7,5,86.7,5,80.5
	C5,68.4,9.5,64.1,17.6,64.1 M246.6,5C259.5,5,270,15.5,270,28.4c0,12.9-10.5,23.4-23.4,23.4c-12.9,0-23.4-10.5-23.4-23.4
	C223.2,15.5,233.7,5,246.6,5 M370.7,114.7c-0.1,0.8-0.2,1.6-0.3,2.4c-0.1,0.8-0.3,1.6-0.5,2.3c-0.2,0.7-0.5,1.3-0.7,1.9
	c-0.5,0.9-1.1,1.4-1.9,1.7c-0.8,0.3-1.9,0.4-3.2,0.4h-18v61.5c0,1-0.1,1.7-0.3,2.2c-0.2,0.5-0.5,0.9-1,1.3c-1.2,0.9-3.7,1.3-7.6,1.3
	c-4,0-6.6-0.4-7.7-1.3c-0.5-0.4-0.9-0.8-1.1-1.3c-0.2-0.5-0.3-1.2-0.3-2.2v-61.5h-20c-1,0-1.8,0-2.3-0.1c-0.5-0.1-1-0.2-1.3-0.4
	c-0.5-0.3-0.8-0.7-1-1.2c-0.2-0.5-0.2-1.2-0.2-2.2c0-0.7,0-1.5,0.1-2.3c0.1-0.8,0.2-1.7,0.3-2.5c0.1-0.8,0.3-1.6,0.5-2.3
	c0.2-0.7,0.5-1.3,0.7-1.8c0.5-0.9,1.1-1.4,1.9-1.7c0.8-0.3,1.9-0.4,3.2-0.4h56c1,0,1.8,0,2.4,0.1c0.6,0.1,1,0.2,1.3,0.4
	c0.5,0.3,0.8,0.7,0.9,1.2c0.2,0.5,0.2,1.2,0.2,2.2C370.8,113.1,370.8,113.9,370.7,114.7L370.7,114.7z M447.2,174
	c-1.2,3.4-3.2,6.5-5.8,8.9c-2.7,2.5-6,4.5-10.2,5.9c-4.1,1.4-9.1,2.1-14.8,2.1s-10.7-0.7-14.8-2.1c-4.1-1.4-7.5-3.4-10.2-5.9
	c-2.6-2.5-4.6-5.5-5.8-8.9c-1.2-3.4-1.9-7.2-1.9-11.2v-50c0-1,0.1-1.7,0.3-2.2c0.2-0.5,0.6-0.9,1.1-1.3c1.1-0.9,3.7-1.3,7.7-1.3
	c3.9,0,6.4,0.4,7.6,1.3c0.5,0.4,0.8,0.8,1,1.3c0.2,0.5,0.3,1.3,0.3,2.2v49.8c0,2,0.3,3.8,0.8,5.4c0.6,1.6,1.4,3,2.6,4.2
	c1.2,1.2,2.7,2.1,4.6,2.7c1.9,0.6,4.1,0.9,6.7,0.9c2.6,0,4.9-0.3,6.7-0.9c1.9-0.6,3.4-1.5,4.6-2.7c1.2-1.2,2-2.6,2.6-4.2
	c0.6-1.6,0.8-3.4,0.8-5.4v-49.8c0-1,0.1-1.7,0.3-2.2c0.2-0.5,0.6-0.9,1.1-1.3c1.1-0.9,3.7-1.3,7.7-1.3c3.9,0,6.4,0.4,7.6,1.3
	c0.5,0.4,0.8,0.8,1,1.3c0.2,0.5,0.3,1.3,0.3,2.2v50C449.1,166.8,448.4,170.5,447.2,174L447.2,174z M486,187c-0.2,0.5-0.6,0.9-1,1.3
	c-1.1,0.9-3.6,1.3-7.6,1.3c-4,0-6.6-0.4-7.7-1.3c-0.5-0.4-0.8-0.8-1-1.3c-0.2-0.5-0.3-1.2-0.3-2.2v-72.1c0-1,0.1-1.7,0.3-2.2
	c0.2-0.5,0.6-1,1-1.3c1.1-0.9,3.7-1.3,7.7-1.3c4,0,6.5,0.4,7.6,1.3c0.5,0.4,0.8,0.8,1,1.3c0.2,0.5,0.3,1.3,0.3,2.2v72.1
	C486.3,185.8,486.2,186.6,486,187z"/>
<path fill="#9CA3AF" d="M570,113.3c-0.1,0.5-0.3,1.1-0.6,1.8c-0.3,0.7-0.7,1.3-1.1,2c-0.4,0.7-1,1-1.7,1c-0.6,0-1.2-0.1-1.7-0.4
	c-0.6-0.3-1.3-0.6-1.9-0.8c-0.9-0.4-1.9-0.7-2.8-0.9c-1-0.2-2.1-0.3-3.3-0.3c-2,0-3.6,0.3-4.8,1c-1.2,0.6-2.2,1.5-2.9,2.6
	c-0.7,1.1-1.1,2.4-1.4,3.9c-0.2,1.6-0.4,3.1-0.4,4.7v7.8h13.4c0.6,0,1.1,0,1.4,0c0.3,0,0.6,0.1,0.8,0.3c0.2,0.2,0.3,0.4,0.4,0.7
	c0.1,0.3,0.1,0.7,0.1,1.4c0,1-0.1,1.9-0.3,2.7c-0.2,0.8-0.4,1.4-0.6,1.9c-0.4,0.6-0.8,1-1.2,1.1c-0.5,0.2-1.1,0.3-2,0.3h-11.8v41.3
	c0,0.7,0,1.2-0.1,1.5c-0.1,0.3-0.3,0.6-0.6,0.9c-0.2,0.2-0.7,0.5-1.4,0.6c-0.7,0.2-1.8,0.3-3.2,0.3c-1.2,0-2.2-0.1-2.9-0.2
	c-0.7-0.2-1.1-0.4-1.4-0.6c-0.3-0.2-0.5-0.5-0.6-0.9c-0.1-0.4-0.1-0.9-0.1-1.5v-41.4h-6.8c-0.6,0-1.1,0-1.4,0
	c-0.3,0-0.6-0.1-0.8-0.3c-0.2-0.2-0.3-0.4-0.4-0.7c-0.1-0.3-0.1-0.7-0.1-1.4c0-2,0.4-3.6,1.1-4.8c0.3-0.5,0.7-0.8,1.1-1
	c0.4-0.2,1.1-0.2,2-0.2h5.2V127c0-2.9,0.4-5.5,1.1-8c0.7-2.5,1.9-4.6,3.4-6.4c1.5-1.8,3.5-3.2,5.8-4.2c2.4-1,5.1-1.5,8.4-1.5
	c2.2,0,4.2,0.1,5.7,0.4c1.6,0.3,2.9,0.6,3.9,1c1.1,0.4,1.9,0.8,2.5,1.1c0.6,0.3,1.1,0.6,1.4,0.9c0.3,0.3,0.5,0.5,0.6,0.8
	c0.1,0.3,0.1,0.5,0.1,0.7C570.2,112.4,570.1,112.8,570,113.3L570,113.3z M585.7,187c-0.1,0.3-0.3,0.6-0.6,0.9
	c-0.3,0.2-0.8,0.5-1.5,0.6s-1.7,0.3-3.1,0.3c-1.2,0-2.2-0.1-2.9-0.2c-0.7-0.2-1.1-0.4-1.4-0.6c-0.3-0.2-0.5-0.5-0.6-0.9
	c-0.1-0.4-0.1-0.9-0.1-1.5v-73.7c0-1.5,0.3-2.6,0.8-3.1c0.2-0.2,0.7-0.5,1.3-0.7s1.6-0.5,2.8-0.7c1.2-0.2,2.1-0.4,2.8-0.4
	c0.4,0,0.7,0,1,0c0.3,0,0.6,0.1,0.8,0.2c0.3,0.2,0.5,0.5,0.6,0.9c0.1,0.4,0.1,0.9,0.1,1.5v75.8C585.8,186.1,585.8,186.6,585.7,187
	L585.7,187z M612.5,212.5h-6.1c-2.7,0-1.3-2.9-1.3-2.9l11-24.8l-21.7-44.7c-0.2-0.5-0.5-1-0.7-1.5c-0.1-0.3-0.2-0.7-0.2-1.2
	c0-0.2,0.1-0.5,0.2-0.8c0.2-0.3,0.4-0.5,0.9-0.8s1-0.4,1.7-0.6c0.7-0.1,1.6-0.2,2.7-0.2c1.6,0,2.9,0.1,3.7,0.4
	c0.8,0.3,1.5,0.9,1.9,1.7l16.6,35.5l14.3-35c0.4-1.1,1-1.8,1.9-2.2c0.8-0.3,2.2-0.5,4-0.5c1.9,0,3.2,0.2,3.8,0.6
	c0.6,0.4,0.9,0.8,0.9,1.4c0,0.5-0.1,0.9-0.2,1.4c-0.2,0.4-0.4,1-0.7,1.6l-23,55.1c-0.7,1.7-6.5,14.3-7,15.4
	C614.1,212.4,612.5,212.5,612.5,212.5L612.5,212.5z"/>
</svg>
