<?xml version="1.0" encoding="utf-8"?>
<!-- Generator: Adobe Illustrator 26.1.0, SVG Export Plug-In . SVG Version: 6.00 Build 0)  -->
<svg version="1.1" id="Calque_1" xmlns="http://www.w3.org/2000/svg" xmlns:xlink="http://www.w3.org/1999/xlink" x="0px" y="0px"
	 width="299px" height="90px" viewBox="0 0 299 90" enable-background="new 0 0 299 90" xml:space="preserve">
<path fill="#9CA3AF" d="M3,18.6L36,87l33.3-68.4H55.5l-19.3,42l-19.4-42H3z"/>
<path fill="#9CA3AF" d="M130.1,85.8V3H119v60.6C119,84.1,130.1,85.8,130.1,85.8z"/>
<path fill="#9CA3AF" d="M147.4,85.8V3h-11.1v60.6C136.4,84.1,147.4,85.8,147.4,85.8z"/>
<path fill="#9CA3AF" d="M108.4,47.9c-1.2-2.3-2.8-4.4-4.6-6.1c-4.9-4.8-11.5-7.5-18.4-7.3c-6.8-0.2-13.3,2.5-18.1,7.4
	c-4.9,4.8-7.5,11.5-7.3,18.4c-0.1,6.7,2.6,13.1,7.5,17.7c4.8,4.8,11.3,7.4,18.1,7.3c7,0,11.2-2.3,14.5-6.5v5.5h11.2V59.9
	C111.3,55.7,110.4,51.6,108.4,47.9z M96.1,70.9c-2.7,2.9-6.5,4.4-10.5,4.2c-3.9,0.2-7.6-1.4-10.3-4.2c-2.7-2.8-3.9-6.4-3.9-10.9
	s1.3-8.6,3.9-11.5c2.7-2.8,6.5-4.3,10.4-4.1c3.9-0.2,7.7,1.3,10.5,4.1c2.6,2.8,3.9,6.5,3.9,11.2S98.7,68.1,96.1,70.9z"/>
<path fill="#9CA3AF" d="M192.9,59.7V60c0,4.6-1.3,8.4-3.9,11.2c-5.8,5.7-15,5.7-20.8,0c-2.6-2.9-3.9-6.6-3.9-11.5h-11.4
	c-0.2,6.8,2.5,13.4,7.3,18.2c4.7,4.9,11.3,7.6,18.1,7.4c6.8,0.2,13.5-2.4,18.4-7.2c1.9-1.8,3.5-3.9,4.6-6.2
	c1.9-3.7,2.9-7.8,2.9-11.9V10.1h-11.2V41L192.9,59.7z"/>
<path fill="#9CA3AF" d="M296,16.9h-17.6V3.8h-11.1v13.1h-7v11.4h7v36c0,20.4,11.1,22.2,11.1,22.2V28.3H296V16.9z"/>
<path fill="#9CA3AF" d="M247.2,55c-0.6-2.4-1.7-4.7-3.4-6.5c-2.6-2.8-6-4.1-10.4-4.1c-3.9-0.1-7.7,1.4-10.4,4.2
	c-1.6,1.8-2.7,4-3.3,6.4H247.2z M219.3,60.8c0,3.7,1.4,7.3,3.9,10c2.6,2.9,6.4,4.4,10.3,4.2c4.3,0,7.8-1.4,10.4-4.2
	c1.2-1.2,2.1-2.6,2.7-4.1h11.6c-1.1,4.2-3.4,8.1-6.5,11.1c-4.8,4.8-11.4,7.4-18.2,7.3c-6.8,0.2-13.3-2.4-18.1-7.2
	c-4.8-4.6-7.5-11-7.4-17.7c0-7.3,2.4-13.4,7.2-18.3c4.7-4.9,11.3-7.6,18.1-7.4c6.8-0.1,13.4,2.5,18.4,7.2c4.9,4.7,7.6,11.3,7.4,18.1
	v1.1h-11.4 M219.3,60v0.9"/>
</svg>
