<?xml version="1.0" encoding="utf-8"?>
<!-- Generator: Adobe Illustrator 26.1.0, SVG Export Plug-In . SVG Version: 6.00 Build 0)  -->
<svg version="1.1" id="Capa_1" xmlns="http://www.w3.org/2000/svg" xmlns:xlink="http://www.w3.org/1999/xlink" x="0px" y="0px"
	 width="2092px" height="691px" viewBox="0 0 2092 691" enable-background="new 0 0 2092 691" xml:space="preserve">
<path fill="#9CA3AF" d="M53.6,333.5h57.5l53.7,218.3h0.9L219,333.5h57.2l-77.9,305.4h-66.5L53.6,333.5z M303.6,431.6
	c0-75.3,39.8-102.4,96.4-102.4c56.7,0,96.5,27.1,96.5,102.4v109.2c0,75.3-39.8,102.3-96.5,102.3c-56.6,0-96.4-27-96.4-102.3V431.6z
	 M362,548.3c0,33.9,14.7,43.1,38,43.1c23.3,0,38.1-9.2,38.1-43.1V423.9c0-33.8-14.8-43.1-38.1-43.1c-23.2,0-38,9.3-38,43.1
	L362,548.3L362,548.3z M543.9,638.9V333.5h58.4v253.8h93.9v51.6H543.9z M726.7,431.6c0-75.3,39.7-102.4,96.4-102.4
	c56.7,0,96.4,27.1,96.4,102.4v109.2c0,75.3-39.7,102.3-96.4,102.3c-56.7,0-96.4-27-96.4-102.3V431.6z M785,548.3
	c0,33.9,14.8,43.1,38.1,43.1c23.3,0,38.1-9.2,38.1-43.1V423.9c0-33.8-14.8-43.1-38.1-43.1c-23.3,0-38.1,9.3-38.1,43.1V548.3z
	 M1143.7,333.5V385h-68.1v253.9h-58.4V385h-68.1v-51.6H1143.7z M1178.4,638.9V333.5h159.9V385h-101.5v70.3h77.4v51.6h-77.4v80.4
	h105.7v51.6H1178.4z M1592.6,638.9H1535l-53.8-218.3h-0.8l-53.3,218.3H1370l77.9-305.4h66.4L1592.6,638.9z"/>
<path fill="#9CA3AF" d="M1895.8,404.4l-71.3,71.3l-71.3-71.3l71.3-71.4L1895.8,404.4z M1895.8,119.2l-71.3,71.3l-71.3-71.3
	l71.3-71.3L1895.8,119.2z M2038.4,261.8l-71.3,71.3l-71.3-71.3l71.3-71.3L2038.4,261.8z M1753.2,261.8l-71.3,71.3l-71.3-71.3
	l71.3-71.3L1753.2,261.8z M1697.7,348.9v-31.7l-15.8,15.8L1697.7,348.9z M1713.6,364.8l15.9,15.8v-95l-15.9,15.9V364.8z
	 M1745.3,269.8v126.8l7.9,7.9l7.9-7.9V269.8l-7.9-8L1745.3,269.8z M1808.6,317.3v31.7l15.9-15.9L1808.6,317.3z M1776.9,380.6
	l15.9-15.8v-63.3l-15.9-15.9V380.6z M1840.3,206.3v-31.6l-15.9,15.9L1840.3,206.3z M1856.1,222.2L1872,238V143l-15.9,15.9V222.2z
	 M1887.8,127.2v126.7l7.9,7.9l7.9-7.9V127.2l-7.9-7.9L1887.8,127.2z M1951.2,174.7v31.6l15.9-15.8L1951.2,174.7z M1919.5,238
	l15.9-15.8v-63.3l-15.9-15.9V238z M1840.3,348.9v-31.7l-15.9,15.8L1840.3,348.9z M1856.1,364.8l15.9,15.8v-95l-15.9,15.9V364.8z
	 M1887.8,269.8v126.8l7.9,7.9l7.9-7.9V269.8l-7.9-8L1887.8,269.8z M1951.2,317.3v31.7l15.9-15.9L1951.2,317.3z M1919.5,380.6
	l15.9-15.8v-63.3l-15.9-15.9V380.6z M1697.7,206.3v-31.6l-15.8,15.9L1697.7,206.3z M1713.6,222.2l15.9,15.8V143l-15.9,15.9V222.2z
	 M1745.3,127.2v126.7l7.9,7.9l7.9-7.9V127.2l-7.9-7.9L1745.3,127.2z M1808.6,174.7v31.6l15.9-15.8L1808.6,174.7z M1776.9,238
	l15.9-15.8v-63.3l-15.9-15.9V238z"/>
</svg>
