<?xml version="1.0" encoding="utf-8"?>
<!-- Generator: Adobe Illustrator 26.1.0, SVG Export Plug-In . SVG Version: 6.00 Build 0)  -->
<svg version="1.1" id="Layer_1" xmlns="http://www.w3.org/2000/svg" xmlns:xlink="http://www.w3.org/1999/xlink" x="0px" y="0px"
	 width="352px" height="68px" viewBox="0 0 352 68" enable-background="new 0 0 352 68" xml:space="preserve">
<path fill="#9CA3AF" d="M73.5,3C37.2,6.9,3,14,3,22.2c0,1.3,2.2,3.5,5.9,6c5.2-5,22.4-9.4,43.5-12.8C58.1,11.1,65.4,7,73.5,3z"/>
<path fill="#9CA3AF" d="M52.4,15.4c-21.1,3.4-38.3,7.8-43.5,12.8c-1.1,1-1.6,2-1.6,3.1c0,1.3,2,3.3,5.4,5.7c1.2-1.1,3-2.2,5.4-3.3
	c5.5-2.5,13.9-4.8,24-6.9c4.7-1,9.8-1.9,15.2-2.7c5.6-4.1,12.7-8.1,20.6-12C69,13,60.4,14.2,52.4,15.4z"/>
<path fill="#9CA3AF" d="M49.3,54.8c-0.4-1.1-0.6-2.2-0.7-3.3C47.9,40.2,62.6,30.4,81.5,21c-8.3,0.9-16.6,1.9-24.3,3.2
	c-5.3,0.8-10.4,1.7-15.2,2.7c-10.1,2-18.5,4.4-24,6.9c-2.3,1.1-4.2,2.2-5.4,3.3c-1.1,1-1.7,2.1-1.7,3.2c0,4.4,22.9,17,45.8,24.8
	C52.8,61.5,50.4,58.1,49.3,54.8z"/>
<path fill="#9CA3AF" d="M74.4,28.3c0.5,0,1,0,1.5,0c0.5,0,1,0,1.6,0c0.7,0,1.3,0,2,0s1.3,0,2,0c-0.3,0.8-0.5,1.7-0.7,2.6
	c-0.2,0.9-0.4,1.8-0.5,2.8c-0.2,1-0.3,2.1-0.4,3.2c-0.1,1.2-0.1,2.5-0.1,3.7c0,1.2,0,2.4,0.1,3.8c0.1,1.2,0.2,2.4,0.3,3.5
	c0.8-1.4,1.7-2.8,2.5-4.3c0.7-1.1,1.3-2.2,1.9-3.4c0.5-0.9,0.9-1.9,1.4-2.8c0.4-0.9,0.7-1.8,1-2.7c0.3-0.9,0.5-1.9,0.7-2.9
	c0.2-1,0.4-2.2,0.6-3.4c0.5,0,0.9,0,1.4,0c1,0,1.9,0,2.9,0c0.5,0,1,0,1.5,0c-0.2,0.6-0.4,1.2-0.5,1.8c-0.1,0.5-0.3,1-0.4,1.4
	s-0.2,0.8-0.3,1.3s-0.1,0.9-0.2,1.4c0,0.5-0.1,1.1-0.1,1.8c0,0.7,0,1.5,0,2.5c0,1.5,0.1,3.1,0.3,4.7c0.2,1.6,0.5,3.1,0.9,4.5
	c1.2-2.2,2.4-4.3,3.6-6.5c0.9-1.6,1.7-3.2,2.5-4.8c0.7-1.4,1.2-2.8,1.6-4c0.4-1.2,0.7-2.6,0.8-4c0.4,0,0.8,0,1.2,0
	c0.4,0,0.7,0,1.1,0c0.3,0,0.6,0,1,0s0.6,0,1,0c-0.3,0.7-0.7,1.5-1.1,2.5c-0.4,1-0.9,2-1.4,3.1c-0.5,1.1-1,2.3-1.6,3.5
	c-0.6,1.2-1.1,2.4-1.7,3.6c-0.7,1.3-1.4,2.5-2.1,3.8c-0.6,1-1.2,2.1-1.9,3.1c-0.6,0.9-1.2,1.8-1.8,2.7c-0.6,0.8-1.2,1.7-1.9,2.7
	c-0.3,0-0.6,0-0.9,0c-0.3,0-0.6,0-0.9,0c-0.4,0-0.7,0-1.1,0c-0.3,0-0.7,0-1,0c-0.4-1-0.7-2.1-1-3.2c-0.2-1-0.4-2.1-0.6-3.1
	c-0.1-1-0.2-2.1-0.3-3.1c0-1-0.1-2.1-0.1-3.2l-1.6,2.9c-0.5,1-1.1,2-1.7,3c-0.6,1.1-1.3,2.1-2,3.2c-0.8,1.2-1.6,2.4-2.4,3.6
	c-0.4,0-0.7,0-1.1,0c-0.7,0-1.5,0-2.2,0c-0.4,0-0.7,0-1.1,0l-0.5-2.2c-0.1-0.6-0.2-1.1-0.3-1.7c-0.1-0.5-0.2-1.1-0.2-1.6
	c-0.1-0.6-0.1-1.3-0.2-1.9c0-0.9-0.1-1.8-0.1-2.7c0-1,0-2.4,0-3.9c0-1.4,0.1-2.8,0.3-4.1c0.2-1.4,0.3-2.7,0.3-4.1L74.4,28.3
	L74.4,28.3z M106.9,53.1c-1.5,0-2.9,0-4.4,0c0.3-0.7,0.7-1.6,1.1-2.6c0.4-1,0.8-2.1,1-3.2l3.5-14c0.1-0.5,0.2-1,0.2-1.5
	c0-0.5,0.1-1,0.1-1.5c0-0.5,0-0.9,0-1.2c0-0.4,0-0.6,0-0.7c1.6,0,3.2,0,4.8,0s3.2,0,4.8,0c1.4,0,2.8,0,4.2,0c1.4,0,2.8,0,4.3,0
	c0,0.4-0.1,0.8-0.1,1.1c0,0.3,0,0.6-0.1,0.9c0,0.3,0,0.6,0,0.9v1.2c-1.5-0.4-2.9-0.7-4.4-1.1c-1.4-0.4-2.9-0.5-4.4-0.5
	c-0.3,0-0.7,0-1,0.1c-0.3,0.1-0.7,0.2-1,0.3c-0.3,0.2-0.6,0.5-0.8,0.8c-0.2,0.3-0.4,0.8-0.5,1.4l-1.2,5h5.2c1.4,0,2.8-0.1,4.2-0.4
	l-0.3,1.1l-0.2,0.9c-0.1,0.3-0.1,0.5-0.2,0.8c-0.1,0.3-0.2,0.6-0.3,1l-1-0.4c-0.3-0.1-0.6-0.2-0.9-0.2c-0.3,0-0.6-0.1-0.9-0.1
	c-0.3,0-0.7,0-1.3,0h-4.9l-1.7,6.9c-0.1,0.6-0.2,1-0.1,1.4c0.1,0.3,0.3,0.6,0.6,0.8c0.3,0.2,0.6,0.3,1,0.4c0.4,0.1,0.9,0.1,1.4,0.1
	c1.5,0,3-0.2,4.5-0.5l4.5-1c-0.3,0.7-0.7,1.3-1,2c-0.3,0.7-0.7,1.3-1,2c-1.5,0-3,0-4.5,0c-1.5,0-3,0-4.5,0
	C109.9,53.1,108.4,53.1,106.9,53.1z M129.5,53.4c-0.8-0.2-1.5-0.4-2.2-0.7c-0.6-0.3-1.2-0.7-1.8-1.1c-0.5-0.4-1-0.9-1.4-1.4l0.9-4
	c0.3,0.5,0.7,1.1,1.2,1.7c0.5,0.6,1,1.2,1.6,1.7c0.6,0.5,1.3,1,2.1,1.3c0.8,0.4,1.7,0.5,2.8,0.5c0.8,0,1.5-0.1,2.2-0.3
	c0.7-0.2,1.3-0.5,1.9-0.9c0.5-0.4,1-0.9,1.4-1.5c0.3-0.6,0.5-1.2,0.5-1.9c0-0.8-0.3-1.5-0.8-1.9c-0.5-0.4-1.2-0.8-2.1-1
	c-0.9-0.3-1.8-0.5-2.7-0.8c-0.9-0.2-1.8-0.6-2.7-1c-0.8-0.4-1.5-1-2.1-1.8c-0.5-0.7-0.8-1.8-0.8-3.1c0-1.2,0.3-2.4,0.9-3.6
	c0.6-1.1,1.4-2.1,2.5-3c1.1-0.9,2.3-1.6,3.8-2.1c1.5-0.5,3-0.8,4.8-0.8c0.9,0,1.6,0.1,2.3,0.2c0.6,0.1,1.2,0.3,1.8,0.5
	c0.5,0.2,1,0.4,1.4,0.7l1.2,0.7l-0.5,4.7c-0.1-0.3-0.4-0.7-0.7-1.2c-0.4-0.6-0.9-1.1-1.4-1.5c-0.6-0.5-1.3-1-2.1-1.3
	c-0.8-0.4-1.7-0.5-2.7-0.5c-0.7,0-1.4,0.1-2,0.4c-0.6,0.2-1.1,0.5-1.6,0.9c-0.4,0.4-0.8,0.9-1.1,1.4c-0.3,0.5-0.4,1.1-0.4,1.7
	c0,0.8,0.3,1.4,0.8,1.9c0.5,0.4,1.2,0.8,2,1.1c0.8,0.3,1.7,0.6,2.6,0.8c0.9,0.2,1.8,0.6,2.6,1.1c0.8,0.5,1.5,1.1,2,1.8
	c0.5,0.8,0.8,1.8,0.8,3.1c0,1.1-0.3,2.2-0.9,3.4c-0.6,1.1-1.4,2.1-2.4,3c-1,0.9-2.3,1.6-3.8,2.2c-1.5,0.6-3.1,0.8-4.9,0.8
	C131.3,53.6,130.3,53.5,129.5,53.4L129.5,53.4z M151.7,31.6c-1.3,0.3-2.6,0.7-3.9,1.1l0.9-2.2c0.3-0.7,0.6-1.4,0.9-2.2
	c1.7,0,3.4,0,5.1,0c1.7,0,3.4,0,5.1,0c1.9,0,3.8,0,5.7,0s3.8,0,5.7,0c0,0.1,0,0.4,0,0.7c0,0.3,0,0.7-0.1,1.1c0,0.4,0,0.9-0.1,1.3
	c0,0.5,0,0.9,0,1.3c-0.5-0.2-1-0.4-1.5-0.6c-0.6-0.2-1.2-0.4-1.8-0.6c-0.6-0.2-1.3-0.3-1.9-0.4c-0.6-0.1-1.1-0.2-1.7-0.2
	c-0.5,0-0.9,0.2-1.1,0.6c-0.2,0.4-0.3,0.9-0.5,1.5l-3.9,15.8c-0.1,0.5-0.2,1-0.3,1.6c-0.1,0.4-0.1,0.9-0.1,1.3c0,0.4,0,0.7,0,1
	c0,0.3,0,0.4,0,0.5c-0.7,0-1.4,0-2.1,0c-0.7,0-1.4,0-2.1,0c-0.6,0-1.2,0-1.7,0c-0.6,0-1.2,0-1.7,0c0.4-0.6,0.8-1.3,1.1-1.9
	c0.3-0.7,0.6-1.4,0.8-2.3l4.1-16.3c0.1-0.4,0.1-0.7,0.2-1c0-0.2,0-0.4-0.1-0.5c0-0.1-0.1-0.2-0.2-0.2c-0.2,0-0.3,0-0.5,0
	C154.4,31,153,31.2,151.7,31.6L151.7,31.6z M175.6,53.1c-0.4,0-0.8,0-1.2,0c0.6-0.7,1.2-1.6,1.8-2.7c0.7-1.2,1.4-2.3,2-3.5
	c0.7-1.3,1.4-2.5,2.2-3.9c0.7-1.3,1.5-2.6,2.3-3.8c1.4-2.3,2.8-4.4,4.2-6.2c1.2-1.6,2.4-3.1,3.6-4.6h3.8c0.4,0.9,0.8,1.7,1,2.6
	c0.3,0.8,0.5,1.7,0.7,2.6c0.2,0.9,0.4,1.8,0.5,2.7c0.2,0.9,0.3,1.9,0.5,3c0.2,1.3,0.4,2.5,0.5,3.4c0.1,1,0.2,1.9,0.3,2.9
	c0.1,1,0.2,2.1,0.3,3.2c0.1,1.2,0.3,2.6,0.5,4.4c-0.5,0-1.1,0-1.6,0c-0.5,0-1.1,0-1.6,0c-0.6,0-1.2,0-1.8,0c-0.6,0-1.2,0-1.9,0
	c0.1-0.5,0.3-1,0.4-1.5c0.1-0.5,0.2-1,0.2-1.6c0-0.4,0-0.8,0-1.3c0-0.5-0.1-1-0.1-1.4c0-0.4-0.1-0.9-0.1-1.3c0-0.3-0.1-0.7-0.1-1
	h-9.4l-1.8,3.5c-0.3,0.6-0.6,1.1-0.8,1.5c-0.2,0.4-0.3,0.7-0.5,1c-0.1,0.3-0.2,0.6-0.3,0.9c-0.1,0.4-0.2,0.8-0.3,1.2
	c-0.3,0-0.7,0-1,0c-0.3,0-0.7,0-1,0C176.4,53.1,176,53.1,175.6,53.1z M191.4,39.6c-0.1-0.7-0.2-1.4-0.3-2.1
	c-0.1-0.7-0.3-1.3-0.4-1.9s-0.4-1.4-0.6-2.2c-0.6,0.9-1.2,1.6-1.6,2.3c-0.5,0.7-0.9,1.3-1.3,1.9c-0.4,0.7-0.9,1.3-1.3,2
	c-0.4,0.7-0.9,1.5-1.5,2.5h7.4C191.6,41.2,191.5,40.3,191.4,39.6L191.4,39.6z M202.3,31.6c-1.3,0.3-2.6,0.7-3.9,1.1l0.9-2.2
	c0.3-0.7,0.6-1.4,0.9-2.2c1.7,0,3.4,0,5.1,0c1.7,0,3.4,0,5.1,0c1.9,0,3.8,0,5.7,0c1.9,0,3.8,0,5.7,0c0,0.1,0,0.4,0,0.7
	c0,0.3,0,0.7-0.1,1.1c0,0.4,0,0.9-0.1,1.3c0,0.5,0,0.9,0,1.3c-0.4-0.2-0.9-0.4-1.5-0.6c-0.6-0.2-1.2-0.4-1.8-0.6
	c-0.6-0.2-1.3-0.3-1.9-0.4c-0.6-0.1-1.1-0.2-1.7-0.2c-0.5,0-0.9,0.2-1.1,0.6c-0.2,0.4-0.3,0.9-0.5,1.5l-3.9,15.8
	c-0.1,0.5-0.2,1-0.3,1.6c-0.1,0.4-0.1,0.9-0.1,1.3c0,0.4,0,0.7,0,1c0,0.3,0,0.4,0,0.5c-0.7,0-1.4,0-2.1,0c-0.7,0-1.4,0-2.1,0
	c-0.6,0-1.2,0-1.7,0c-0.6,0-1.2,0-1.7,0c0.4-0.6,0.8-1.3,1.1-1.9c0.3-0.7,0.6-1.4,0.8-2.3l4.1-16.3c0.1-0.4,0.1-0.7,0.2-1
	c0-0.2,0-0.4-0.1-0.5c0-0.1-0.1-0.2-0.2-0.2c-0.2,0-0.3,0-0.5,0C205,31,203.6,31.2,202.3,31.6L202.3,31.6z M222.4,53.1
	c-1.3,0-2.6,0-4,0c0.3-0.5,0.5-1,0.7-1.4c0.2-0.4,0.4-0.8,0.5-1.2c0.2-0.4,0.3-0.8,0.4-1.2c0.1-0.4,0.2-0.9,0.4-1.4l3.8-15.2
	c0.2-0.9,0.3-1.8,0.3-2.7c0-0.4,0-0.8,0-1.1v-0.6c0.5,0,1.1,0,1.6,0c0.5,0,1.1,0,1.6,0c0.7,0,1.4,0,2.1,0s1.4,0,2.2,0
	c-0.2,0.2-0.3,0.5-0.4,0.8c-0.2,0.3-0.3,0.7-0.5,1.1c-0.2,0.4-0.3,0.8-0.5,1.3c-0.2,0.4-0.3,0.9-0.4,1.3l-3.7,15.2
	c0,0.3-0.1,0.5-0.2,0.8c-0.1,0.3-0.1,0.5-0.1,0.6c0,0.4,0.1,0.6,0.2,0.8c0.1,0.2,0.3,0.4,0.5,0.5c0.2,0.1,0.4,0.2,0.7,0.2
	c0.3,0,0.6,0,0.9,0c0.5,0,1.1-0.1,1.9-0.2c1.5-0.3,3.1-0.6,4.6-1c0.7-0.2,1.2-0.3,1.6-0.4l-2,3.9c-1.4,0-2.7,0-4.1,0
	c-1.4,0-2.7,0-4.1,0C225.1,53.1,223.7,53.1,222.4,53.1L222.4,53.1z M237.2,53.1c-0.4,0-0.8,0-1.2,0c0.6-0.7,1.2-1.6,1.8-2.7
	c0.7-1.1,1.3-2.3,2-3.5c0.7-1.3,1.4-2.5,2.2-3.9c0.7-1.3,1.5-2.6,2.3-3.8c1.4-2.3,2.8-4.4,4.2-6.2c1.2-1.6,2.4-3.1,3.6-4.6h3.8
	c0.4,0.8,0.8,1.7,1,2.6c0.3,0.8,0.5,1.7,0.7,2.6c0.2,0.9,0.4,1.8,0.5,2.7c0.2,0.9,0.3,1.9,0.5,3c0.2,1.1,0.3,2.3,0.5,3.4
	c0.1,1,0.2,1.9,0.3,2.9c0.1,1,0.2,2.1,0.3,3.2c0.1,1.2,0.3,2.6,0.5,4.4c-0.5,0-1.1,0-1.6,0c-0.5,0-1.1,0-1.6,0c-0.6,0-1.2,0-1.8,0
	c-0.6,0-1.2,0-1.9,0c0.1-0.5,0.3-1,0.4-1.5c0.1-0.5,0.2-1,0.2-1.6c0-0.4,0-0.8,0-1.3c-0.1-0.9-0.2-1.8-0.3-2.8c0-0.3-0.1-0.7-0.1-1
	h-9.4l-1.8,3.5c-0.3,0.6-0.6,1.1-0.8,1.5c-0.2,0.4-0.3,0.7-0.5,1c-0.1,0.3-0.2,0.6-0.3,0.9c-0.1,0.3-0.2,0.7-0.3,1.2
	c-0.3,0-0.7,0-1,0c-0.3,0-0.7,0-1,0C238,53.1,237.6,53.1,237.2,53.1L237.2,53.1z M253,39.6c-0.1-0.7-0.2-1.4-0.3-2.1
	c-0.1-0.7-0.3-1.3-0.4-1.9c-0.2-0.7-0.4-1.5-0.6-2.2c-0.6,0.9-1.2,1.6-1.6,2.3c-0.5,0.7-0.9,1.3-1.3,1.9c-0.4,0.7-0.9,1.3-1.3,2
	c-0.4,0.7-0.9,1.5-1.5,2.5h7.4C253.2,41.2,253.1,40.3,253,39.6z M263.2,53.1c-0.3,0-0.7,0-1.1,0c0.5-1,0.9-2,1.3-2.8
	c0.4-0.9,0.7-1.9,1-3.1l3.6-14.4c0.2-0.8,0.3-1.6,0.4-2.3c0.1-0.7,0.1-1.5,0.1-2.3c0.5,0,0.9,0,1.4,0h2.7c0.4,0,0.9,0,1.4,0
	c1,1.3,1.9,2.6,2.8,4c0.8,1.2,1.5,2.4,2.1,3.6c0.6,1.2,1.3,2.5,1.9,3.8c0.7,1.5,1.4,3.1,2.1,4.7l2.5-10.3c0.3-1.1,0.4-2,0.6-2.9
	c0.1-0.9,0.2-1.9,0.2-2.8c0.4,0,0.8,0,1.2,0h2.4c0.4,0,0.8,0,1.2,0c-0.3,0.7-0.7,1.6-1.2,2.6c-0.5,1.1-0.9,2.3-1.2,3.4l-4.7,18.8
	c-0.3,0-0.6,0-0.9,0c-0.6,0-1.2,0-1.8,0c-0.3,0-0.6,0-0.9,0c-0.7-2-1.3-3.8-1.9-5.5c-0.6-1.6-1.3-3.2-2-4.8
	c-0.7-1.6-1.5-3.1-2.4-4.6c-0.9-1.6-1.9-3.2-3-4.8l-3.5,14c-0.2,0.9-0.4,1.9-0.6,2.9c-0.1,0.9-0.2,1.9-0.2,2.8c-0.4,0-0.8,0-1.2,0
	c-0.4,0-0.8,0-1.2,0C263.9,53.1,263.6,53.1,263.2,53.1L263.2,53.1z M295.2,31.6c-1.3,0.3-2.6,0.7-3.9,1.1l0.9-2.2
	c0.3-0.7,0.6-1.4,0.9-2.2c1.7,0,3.4,0,5.1,0s3.4,0,5.1,0c1.9,0,3.8,0,5.7,0c1.9,0,3.8,0,5.7,0c0,0.1,0,0.4,0,0.7
	c0,0.3,0,0.7-0.1,1.1c0,0.4,0,0.9-0.1,1.3c0,0.5,0,0.9,0,1.3c-0.5-0.2-1-0.4-1.5-0.6c-0.6-0.2-1.2-0.4-1.8-0.6
	c-0.6-0.2-1.3-0.3-1.9-0.4c-0.6-0.1-1.1-0.2-1.7-0.2c-0.5,0-0.9,0.2-1.1,0.6c-0.2,0.4-0.3,0.9-0.5,1.5l-3.9,15.8
	c-0.1,0.5-0.2,1-0.3,1.6c-0.1,0.4-0.1,0.9-0.1,1.3c0,0.4,0,0.7,0,1c0,0.3,0,0.4,0,0.5c-0.7,0-1.4,0-2.1,0c-0.7,0-1.4,0-2.1,0
	c-0.6,0-1.2,0-1.7,0c-0.6,0-1.2,0-1.7,0c0.4-0.6,0.8-1.3,1.1-1.9c0.3-0.7,0.6-1.4,0.7-2.3l4.1-16.3c0.1-0.3,0.1-0.6,0.2-1
	c0-0.2,0-0.4-0.1-0.5c0-0.1-0.1-0.2-0.2-0.2c-0.2,0-0.3,0-0.5,0C297.8,31,296.4,31.2,295.2,31.6L295.2,31.6z M312.7,53.1
	c-0.6,0-1.2,0-1.8,0c0.4-0.7,0.7-1.5,1.1-2.4c0.4-1,0.7-2,1-3.1l3.4-13.8c0.2-0.9,0.4-1.7,0.5-2.4c0.1-0.7,0.1-1.2,0.2-1.7
	c0-0.3,0-0.7,0-1c0-0.2,0-0.3,0-0.5c0.6,0,1.2,0,1.8,0c0.6,0,1.2,0,1.8,0c0.7,0,1.4,0,2,0c0.7,0,1.4,0,2,0c-0.1,0.1-0.2,0.4-0.4,0.8
	c-0.2,0.4-0.4,0.9-0.6,1.4c-0.2,0.6-0.4,1.2-0.6,1.7c-0.2,0.6-0.4,1.2-0.5,1.8L319,48c-0.1,0.7-0.3,1.3-0.4,1.8
	c-0.1,0.6-0.2,1.2-0.2,1.7c0,0.3,0,0.6,0,1c0,0.4,0,0.6,0,0.7c-0.7,0-1.3,0-2,0c-0.7,0-1.3,0-2,0C313.9,53.1,313.3,53.1,312.7,53.1
	L312.7,53.1z M339.3,50.6c0.9-0.3,1.7-0.7,2.5-1.2c0.7-0.4,1.4-0.8,2.1-1.3c0.6-0.4,1.1-0.8,1.4-1l-1.2,3.6
	c-0.4,0.2-0.9,0.5-1.5,0.8c-0.6,0.3-1.3,0.6-2.2,1c-0.8,0.3-1.8,0.6-2.9,0.8c-1.1,0.2-2.2,0.3-3.5,0.3c-1.6,0-3-0.2-4.3-0.6
	c-1.3-0.4-2.3-1-3.2-1.8c-0.9-0.8-1.6-1.7-2.1-2.9c-0.5-1.2-0.7-2.5-0.7-4c0-1.4,0.2-2.7,0.6-4.1c0.4-1.4,1-2.7,1.7-3.9
	c0.8-1.2,1.7-2.4,2.7-3.4c1-1.1,2.2-2,3.4-2.7c1.3-0.8,2.6-1.4,4-1.8c1.4-0.4,2.9-0.7,4.5-0.7c1.2,0,2.2,0.1,3.1,0.3
	c0.9,0.2,1.7,0.4,2.4,0.7c0.7,0.3,1.3,0.6,1.7,0.9c0.5,0.3,0.8,0.5,1.1,0.7l-0.9,5.6c-0.1-0.3-0.3-0.8-0.7-1.5
	c-0.4-0.7-0.9-1.3-1.5-2c-0.6-0.7-1.4-1.2-2.3-1.7c-0.9-0.5-2-0.7-3.2-0.7c-1.4,0-2.8,0.4-4,1.3c-1.2,0.9-2.3,2-3.3,3.4
	c-0.9,1.4-1.7,3-2.2,4.6c-0.5,1.7-0.8,3.3-0.8,4.9c0,2.2,0.5,3.8,1.6,5c1.1,1.1,2.7,1.7,4.9,1.7C337.5,51,338.4,50.9,339.3,50.6
	L339.3,50.6z"/>
</svg>
