<?xml version="1.0" encoding="utf-8"?>
<!-- Generator: Adobe Illustrator 26.1.0, SVG Export Plug-In . SVG Version: 6.00 Build 0)  -->
<svg version="1.1" id="Layer_1" xmlns="http://www.w3.org/2000/svg" xmlns:xlink="http://www.w3.org/1999/xlink" x="0px" y="0px"
	 width="130px" height="60px" viewBox="0 0 130 60" enable-background="new 0 0 130 60" xml:space="preserve">
<path fill="#9CA3AF" d="M95.5,21.3h12.6L93.2,40.7H80.7L95.5,21.3z M94.6,19.4L78.8,40.1c-0.4,0.5-0.4,1.1-0.2,1.7
	c0.3,0.5,0.8,0.9,1.4,0.9h14.1l15.9-20.8c0.3-0.5,0.4-1.1,0.2-1.6c-0.3-0.5-0.8-0.8-1.4-0.8H94.6z M49.4,9.3
	c0.1-0.1,0.2-0.2,0.4-0.2h8.2l1.2-6.8c0-0.2,0.2-0.4,0.4-0.4l7.7,0c0.1,0,0.3,0,0.3,0.1c0.1,0.1,0.1,0.2,0.1,0.4l-0.8,4.4l36.2,0
	c0.2,0,0.3,0.1,0.4,0.2c0,0.1,0.1,0.3,0,0.4l-3.3,4.3l26.9,0c0.2,0,0.3,0.1,0.3,0.2c0,0.1,0.1,0.2,0,0.3l-22.3,29.2
	c-0.3,0.3-0.2,1.1-0.1,1.5c0.2,0.3,0.8,0.8,1.2,0.8l15.7,0c0.2,0,0.3,0.1,0.3,0.2c0.1,0.1,0.1,0.2,0.1,0.4l-1.2,6.8
	c0,0.2-0.2,0.4-0.4,0.4H61.2l-1,0c0.1,0.3,0.1,0.7,0.1,1c0,3.1-2.5,5.6-5.6,5.6c-3.1,0-5.6-2.5-5.6-5.6c0-3.1,2.5-5.6,5.6-5.6
	c2.1,0,3.9,1.2,4.9,2.9L84,17.9c0.4-0.8,0.2-1.1,0-1.6c-0.2-0.4-0.7-0.7-1.4-0.7h-17l-4.4,24.9c0,0.2-0.2,0.3-0.4,0.3H53
	c-0.2,0-0.3-0.1-0.3-0.2c0-0.1-0.1-0.2-0.1-0.4l4.7-27L38.1,51c-0.2,0.3-0.5,0.5-0.9,0.5l-6.6,0c-0.2,0-0.4-0.2-0.4-0.4l-1.8-27.4
	L14.2,51c-0.2,0.3-0.5,0.5-0.9,0.5l-6.6,0c-0.2,0-0.4-0.2-0.4-0.4L1.9,9.5c0-0.1,0-0.3,0.1-0.3c0.1-0.1,0.2-0.1,0.3-0.1h8.9
	c0.2,0,0.4,0.2,0.4,0.5l1.3,27.1L26.3,9.3c0.1-0.1,0.2-0.2,0.4-0.2l8.1,0c0.2,0,0.4,0.2,0.4,0.4l1.3,27.3L49.4,9.3z M59.3,0
	c-0.9,0-1.7,0.7-1.9,1.6l-1,5.6h-6.9c-0.7,0-1.3,0.4-1.7,1L38.1,29l-1-20.1c-0.1-1-0.9-1.7-1.9-1.7h-8.9c-0.7,0-1.4,0.4-1.7,1
	l-10,20.9l-1-20c0-1-0.9-1.9-1.9-1.9H1.9c-0.5,0-1,0.2-1.4,0.6C0.1,8.1,0,8.7,0,9.2l4.4,42.5c0.1,1,0.9,1.7,1.9,1.7l7.3,0
	c0.9,0,1.7-0.5,2.1-1.3L27,30.6l1.4,21c0.1,1,0.9,1.7,1.9,1.7l7.3,0c0.9,0,1.7-0.5,2.1-1.3l13.6-26.7l-2.6,15
	c-0.1,0.6,0.1,1.1,0.4,1.6c0.4,0.4,0.9,0.7,1.5,0.7h8.6c0.9,0,1.7-0.6,1.9-1.5l4.1-23.7H82L59.6,46.8c-1.3-1.1-3-1.7-4.8-1.7
	c-4.1,0-7.5,3.4-7.5,7.5c0,4.1,3.4,7.5,7.5,7.5c3.8,0,7-2.9,7.4-6.6l59.1,0c0.9,0,1.7-0.7,1.9-1.6l1.4-7.7c0.1-0.6-0.1-1.1-0.4-1.5
	c-0.4-0.4-0.9-0.7-1.4-0.7l-15.3,0l22.3-29.2c0.4-0.6,0.4-1.3,0.1-1.8c-0.3-0.6-0.9-1-1.6-1h-23.9l1.5-2c0.4-0.6,0.4-1.3,0.1-1.9
	c-0.3-0.6-1-1-1.7-1H69.3l0.5-2.7c0.1-0.5-0.1-1.1-0.4-1.6C69,0.2,68.5,0,67.9,0H59.3z"/>
</svg>
