<svg xmlns="http://www.w3.org/2000/svg" width="512" height="512">
    <style>
        .a { fill: #000A33 }
        @media (prefers-color-scheme: dark) {
            .a { fill: #fff }
        }
    </style>
    <path class="a" d="M495.3 194.3c5.7-7 11.3-14.2 16.7-21.5l-208.5-.1H238c-.4.3-16.2 14.1-37.9 33-30.8 26.9-73.5 64-100.5 87.6-5.7 5-25.3 19.8-45.2 24.3-21.7 5-51.2 11.7-51.2 11.7L0 339h84.5c6.9 0 14.9-3.3 21.2-8.8 21.3-18.5 71.5-62.2 102.2-88.9 15.1-13.2 25.5-22.2 25.5-22.2l-39.6 119.7h24.3c7.2-6.8 13.9-13.9 20.2-21.5.2-.3.4-.5.6-.8h60c8.2-6.7 16-13.8 23.6-21.2h-68.1c2-3 3.9-6.1 5.7-9.2h71.5c6.5-6.8 12.7-13.8 18.7-21.1h-79c1.4-3 2.7-6.1 4-9.2H437c7.8-7.1 15.4-14.4 22.7-21.8H283.1c.9-3 1.8-6.1 2.6-9.2h182.9c6.5-7 12.9-14.1 19.1-21.4H290.1c.5-3 .9-6.1 1.3-9.2h203.9z"/>
</svg>
