<?xml version="1.0" encoding="utf-8"?>
<!-- Generator: Adobe Illustrator 26.3.1, SVG Export Plug-In . SVG Version: 6.00 Build 0)  -->
<svg version="1.1" id="Layer_1" xmlns="http://www.w3.org/2000/svg" xmlns:xlink="http://www.w3.org/1999/xlink" x="0px" y="0px"
	 width="390px" height="390px" viewBox="0 0 390 390" enable-background="new 0 0 390 390" xml:space="preserve">
<rect fill="#D3DAD9" width="390" height="390"/>
<g>
	<defs>
		<rect id="SVGID_1_" width="390" height="390"/>
	</defs>
	<clipPath id="SVGID_00000135686764648405005100000000367550748958719924_">
		<use xlink:href="#SVGID_1_"  overflow="visible"/>
	</clipPath>
	<g clip-path="url(#SVGID_00000135686764648405005100000000367550748958719924_)">
		<g>
			<path fill="#191B33" d="M252.6,973.1c15.1,0,30.2,0,45.3,0c4.4,0,4.4,0,4.5,4.6c0.1,21.8-10.8,36.7-29.8,46
				c-17,8.3-38.4,4.5-53.5-9.1c-11.9-10.7-15.8-24.5-15.7-39.9c0-2.3,1.6-1.6,2.7-1.6c12.2,0,24.4,0,36.6,0
				C245.9,973.1,249.3,973.1,252.6,973.1z"/>
			<path fill="#191B33" d="M135.9,973.1c15.2,0,30.4,0,45.7-0.1c2.3,0,3,0.4,3.2,2.9c1.8,25.6-17.4,48.8-43.2,51.8
				c-24.5,2.9-48.5-13.9-53.9-37.5c-1.1-4.9-1.1-9.8-1.1-14.8c0-2,0.8-2.4,2.7-2.4C104.8,973.2,120.3,973.1,135.9,973.1z"/>
			<path fill="#191B33" d="M393.8,556.3c-1-19.1-2-38.1-3.1-57.2c-1.6-27.7-3.6-55.3-9.1-82.6c-6-29.7-15.9-57.9-32.4-83.6
				c-17.7-27.5-41.5-45.8-75-49.7c-2-0.2-3.1,0.1-4.2,1.9c-12.1,18.7-24.2,37.3-36.3,55.9c-4.8,7.3-9.6,14.7-14.5,22.2
				c-0.3-0.6-0.6-0.9-0.7-1.2c-4.6-18.4-9.2-36.8-13.9-55.2c-0.4-1.6-0.1-2.8,0.7-4.2c3.7-6.3,7.3-12.6,11.1-19.2
				c-14.9,0-29.5,0-44.5,0c2.2,3.8,3.8,7.5,6.2,10.6c5.5,7,5.9,14,3.4,22.4c-4.6,15.3-8,31-12.1,46.9c-0.7-1-1.2-1.7-1.7-2.4
				c-16.7-25.6-33.7-52.1-50.3-77.7c0,0-0.5-1.5-1.7-1.5c-33.4,3.9-57.3,22.1-75,49.7c-16.5,25.6-26.4,53.9-32.4,83.6
				C2.9,442.4,1,470-0.6,497.7c-1.1,19.1-2.1,38.1-3.1,57.2c-0.4,8.3-0.3,16.6,0.7,24.9c1.5,23.5,1.5,50.1,1.5,50.1
				c-0.7,18.5,12.5,33.1,30.9,34.2c16.6,1.1,31.7-12.7,33.2-30.4c0.1-1.3-0.1-2.6-0.2-3.9c0,0-3.2-31.2-2.6-50.1
				c0.2-9.8,0.5-19.6,0.7-29.4c0.7-31,1.7-61.9,6.4-92.6c3.6-23.4,9.4-46.2,18.4-68.2c0.3-0.7,0.6-1.3,1.3-2
				c-0.1,52.5-0.2,105-0.2,157.5c0,137.4,0,274.8-0.1,412.2c0,2.9,0.7,3.5,3.6,3.5c30.4-0.1,60.7-0.1,91.1,0c3.2,0,4.3-0.6,4.3-4.1
				c-0.1-110.9-0.1-221.9-0.1-332.8c0-0.8,0.1-1.5,0-2.3c-0.3-2.2,0.4-3.1,2.8-2.9c3.8,0.2,7.6,0.3,11.3,0c3.3-0.2,4.3,0.6,4.3,4.1
				c-0.1,79.3-0.1,158.6-0.1,237.8c0,32.3,0,64.6,0,96.9c0,2.3,0.3,3.3,3,3.3c31.2-0.1,62.4-0.1,93.6,0c2.3,0,3.2-0.6,2.9-2.9
				c-0.1-0.7,0-1.5,0-2.3c0-187.7,0-375.4,0-563.2c0-1.3,0-2.6,0-3.9c1.1,0.8,1.6,1.6,1.9,2.4c9,21.9,14.8,44.8,18.4,68.2
				c4.7,30.7,5.7,61.6,6.4,92.6c0.2,9.8,0.5,19.6,0.7,29.4c0.6,18.9-2.6,50.1-2.6,50.1c-0.1,1.3-0.3,2.6-0.2,3.9
				c1.5,17.7,16.6,31.5,33.2,30.4c18.4-1.2,31.5-15.7,30.9-34.2c0,0,0-26.6,1.5-50.1C394,573,394.2,564.6,393.8,556.3z"/>
			<path fill="#191B33" d="M219.1,29.4c33.4,5.8,59.1,22.8,76.6,52c6,10,9.2,21.1,10.8,32.6c1.3,9.7-4.2,16.2-14,17.3
				c-1.9,0.2-3.9,0.4-5.8,0.7c-5.5,0.8-7.9,3.7-7.1,9.2c0.7,5,2,9.9,2.9,14.9c5.6,33.3-4.9,60.9-30.1,82.9
				c-42.8,37.5-110.5,24.8-137.4-25.7c-10-18.8-13.1-38.6-8.9-59.5c0.3-1.7,0.7-3.4,1.4-5c2.2-4.7,1-8.8-1.6-12.8
				c-1.4-2.2-3.1-3.6-5.8-4.1c-3-0.6-6-1.6-8.9-2.9c-7.8-3.5-10.8-8.9-9.4-17.4c3.6-22.3,14.4-40.6,31.4-55.3
				c18.9-16.4,41.4-24.9,65.8-27.3C189,27.8,209.2,27.7,219.1,29.4z"/>
		</g>
		<g>
			<path fill="#F7C11B" d="M166.3,539.1c-5.3,0-9.2-3.7-9.1-8.8c0-4.8,4-8.6,9-8.6c5.1-0.1,9.3,3.8,9.3,8.7
				C175.6,535.4,171.6,539.1,166.3,539.1z"/>
			<path fill="#F7C11B" d="M232.8,442c-5.3,0-9.3-3.7-9.2-8.7c0.1-4.9,4.1-8.6,9.4-8.6c5,0,9,3.8,9.1,8.6
				C242.1,438.3,238.2,442,232.8,442z"/>
			<path fill="#F7C11B" d="M216.1,539.1c-5.3,0-9-3.8-8.9-8.9c0.1-4.8,4.1-8.5,9.2-8.5c5.1,0,9.2,4,9.2,8.9
				C225.4,535.5,221.4,539.1,216.1,539.1z"/>
			<path fill="#F7C11B" d="M216.3,490.6c-5.3,0-9.2-3.7-9.1-8.8c0-4.8,4-8.6,9-8.8c5-0.1,9.3,3.9,9.4,8.8
				C225.5,486.8,221.6,490.6,216.3,490.6z"/>
			<path fill="#F7C11B" d="M166.2,490.6c-5.3-0.1-9.1-3.8-9-9c0.1-4.7,4.2-8.6,9.2-8.6c5,0,9.2,4.1,9.2,8.9
				C175.5,487,171.5,490.6,166.2,490.6z"/>
			<path fill="#F7C11B" d="M149.5,442c-5-0.1-9-3.9-9-8.6c0-5,4.2-8.7,9.7-8.6c5.2,0.1,8.7,3.8,8.6,8.8
				C158.8,438.7,155,442.1,149.5,442z"/>
		</g>
		<g>
			<path fill="#F7C11B" d="M393.1,581.2c-6.2,0-12.5-0.1-18.7,0c-1.5,0-2.1-0.2-2.2-2c-0.6-5.7-5.1-9.5-10.7-9.5
				c-5.4,0-9.9,3.8-10.5,9.3c-0.2,1.9-0.8,2.2-2.5,2.2c-6-0.1-12.1,0-18.1,0c0.1,2.7,0.1,5.7,0,8.8c20.7,0,41.5,0.1,62.2,0.1
				C392.7,587.2,392.9,584.2,393.1,581.2z"/>
			<path fill="#F7C11B" d="M327.7,631.3c21.3,0,42.6,0,63.9,0c0,0,0-3.4,0.1-8.7c-21,0-42.1,0-63.1,0
				C328,627.9,327.7,631.3,327.7,631.3z"/>
			<path fill="#F7C11B" d="M329.5,608.8c-0.2,3.1-0.4,6-0.6,8.6c20.9,0,41.9,0,62.8,0c0-2.6,0.1-5.5,0.2-8.5c-17.5,0-35,0-52.5,0
				C336.1,608.9,332.8,608.3,329.5,608.8z"/>
			<path fill="#F7C11B" d="M329.9,603.2c20.7,0,41.5,0,62.2,0c0.1-2.8,0.2-5.6,0.3-8.5c-20.7,0-41.4,0-62.1,0
				C330.1,597.5,330,600.4,329.9,603.2z"/>
		</g>
		<path fill="#F7C11B" d="M192.3,100.7c23.9,0,44.1,2.6,63.9,8.6c7.7,2.4,14.8,5.9,21.3,10.6c3.2,2.3,5.3,5.3,4.5,9.6
			c-0.4,2.3-1.2,3-3.6,1.9c-15.7-6.6-32-11.5-48.8-14.5c-33.6-6-66.5-3.3-98.9,6.9c-7,2.2-13.9,4.7-20.6,7.6
			c-2.7,1.2-3.1,0.2-3.3-2.1c-0.3-5.3,2.3-9.7,7.9-12.1c10.2-4.4,20.4-8.6,31.2-11.2C162.2,102,178.8,100.7,192.3,100.7z"/>
		<g id="Pilot_Wings">
			<path fill="#F7C11B" d="M146.1,368.4l8.9-6.8h-24.4v2.5c1.4,1.3,2.3,3.1,2.3,5.1c0,2.9-1.7,5.3-4.2,6.4v1.3h2.4l0.7-1.1h2.7
				l6.8-6.6h-4.8l0.8-0.9H146.1z"/>
			<path fill="#F7C11B" d="M118.8,369.3c0-2,0.9-3.8,2.3-5.1v-2.5H96.6l8.9,6.8h8.9l0.8,0.9h-4.8l6.8,6.6h2.7l0.7,1.1h2.4v-1.3
				C120.5,374.6,118.8,372.2,118.8,369.3z"/>
			<circle fill="#F7C11B" cx="125.8" cy="369.3" r="6.1"/>
			<polygon fill="#F7C11B" points="125.6,354.2 126.8,356.6 129.4,357 127.5,358.9 128,361.5 125.6,360.3 123.2,361.5 123.7,358.9 
				121.8,357 124.4,356.6 			"/>
		</g>
		<g id="Logo_group">
			<path id="Eagle" fill="#FDC42A" d="M173.4,79.4c-2.5,4.6-4.6,9.4-7.1,13.9c-0.7-2.1-1.2-4.3-1.8-6.5c-0.4,0.4-0.7,1.1-1,1.5
				c-0.7-2.1-0.7-3.8-1.1-6.1c-0.3,0.2-0.6,0.5-1,0.7c-0.4-1.9,0.4-3.6,0.5-5.2c-2.2,0.6-0.1-1.9,0.5-2.7c0.3-0.4,0.2-0.8-0.4-0.6
				c0.1-1.2,1.5-2.2,2.1-3.2c-0.3-0.3-0.5,0.3-0.7,0c0.4-1.1,1.4-2.1,2-3c-0.1-0.2-0.4,0-0.5-0.2c0.6-0.9,1.5-1.8,2.4-2.6
				c-0.2-0.2-0.5,0-0.5-0.3c0.8-0.9,1.7-1.8,2.4-2.6c-0.2-0.1-0.4-0.3-0.6-0.2c0.4-0.8,1.2-1.6,1.9-2.3c-1.3-0.7,1.8-1.5,0.1-2.2
				c-3.3,2.3-6.3,5.3-9.5,7.9c-0.1-0.6-0.2-1.5-0.1-2.2c-0.3-0.5-0.5,0.2-0.8,0.2c-0.1-0.5,0-1,0.1-1.4c0.1-0.4,0-1.4-0.6-0.8
				c0.1-0.8,0.7-1.6,0.8-2.3c-0.2,0-0.3,0-0.5,0.1c0.2-0.8,1-1.4,1.2-2.3c-0.1-0.2-0.5,0-0.5-0.2c0.4-1.1,3.8-2.9,0.5-2.7
				c2.7-0.7,5.3-1.3,8.2-1.8c4.8-1.3,9.6-2.5,14.2-4c4.6-1,9.3-0.4,13.9-0.6c0.3,0,1.2,0.1,1.4,0.6c0.7,1.9,3.2,0.4,4.5,1.8
				c0.7,0.6,1,1.6,0.9,2.5c-2-0.9-4.4-0.2-6.6,0.2c9.5,4.1,19.5,7.3,29,11.4c-1.8,0.8-3.8,1.3-6,1.5c0.6,0.4,1.4,0.9,1.6,1.2
				c-2,0.8-4.6,0.5-6.6,0.7c0.5,0.8,1.4,1,1.7,1.9c-1.9,0.1-3.8-0.7-5.5-1c0,0.3,0.3,0.5,0.4,0.8c-1.2,0.1-2.2-0.5-3.3-0.7l-0.9-0.3
				c-1.3-0.8-1-0.6-1.3-0.8c0.4,1-0.7,0.7-1.2,0.4c-0.9-0.6-1.9-1.2-2.8-1.9c0.2,0.7-0.7,0.6-1.1,0.3c-0.8-0.5-1.6-1.4-2.5-1.8
				c0,1.7-1.5-0.1-2.2-0.3c-0.4-0.1-1.3-1.4-1.1-0.2c-0.9-0.7-1.5-1.4-2.3-2.1c-0.4,1.3-1.9-0.7-2.6-0.8c0.2,1.3-0.8,0.1-1.1,0
				c-0.6-0.4-1-0.9-1.6-1.2c0,0.2-0.1,0.3,0,0.4c-0.9,0.1-1.8-0.9-2.8-1c-0.5,3.6,3.3,3,5.2,4.2c0.6,0.4,1.6,1,1.4,1.7
				c-0.6-0.1-1.1-0.6-1.7-0.7c-1.4-0.2-3.2-0.4-4.6,0.3c-0.3-0.4,0-0.8,0.3-1.2c0.2,0-0.3-0.4-0.6-0.4c-0.5-0.1-1,0-1.6,0.1
				c-0.4-0.9-0.8-1.7-1.2-2.6c0,0.1-0.2,0.1-0.1,0.3c0.7,2,0.3,4.9,2.4,5.8c1.6,0.3,3.4,1,4.3,2.6c0,0-0.1,0.1-0.2,0.2
				c-1.9-1.3-4.6-1.1-6.6-0.3c0.1-0.7,0.7-1,1.3-1.4c0.2,0,0.3-0.1,0.5-0.1c-1-0.4-1.9-1.1-3.1-0.7c-0.5-0.6-0.1-1.6-0.6-2.2
				c-2.2,4.4-4.4,8.8-6.5,13.1L173.4,79.4z M186.8,50.3c0.3,0.8,1.3,0.9,1.9,0.9c2.9-0.2,5.5-1.1,8.1-2c0.5,0,0.9,0.5,1.5,0.4
				c-0.1-0.6-0.8-0.8-1.3-0.8c-3.7-0.1-7.2,0.3-10.8,0.1C186.2,49.4,186.6,49.8,186.8,50.3z M180,50.4c1-0.2,2.7-0.4,4-0.8
				c0.2-0.1,0.1-0.3,0.3-0.5C182.9,49.8,181.1,49.5,180,50.4z M175.6,68.6c-0.2,1.1-0.5,2.6,0.3,3.4c3.6-6.9,6.8-13.9,10.4-20.8
				c-0.3-0.7-0.4-1.6-1-1.9C182.1,55.7,178.8,62.1,175.6,68.6z M178.2,52.4c0,0.1,0,0.1,0,0.2c1.5-0.4,3.4-0.3,4.6-0.7
				c0.2-0.4,0.7-1,0.3-1.2C181.4,51.2,179.2,51,178.2,52.4z M170.6,52.7c-0.3,1.2-0.3,2.8,0.2,4c1,0.9,1.7-0.9,2.6-1.3
				c-0.8,0.1-0.3-0.7,0-0.8c0.2-0.5,2.3-1.4,0.4-1.3c0.4-0.5,1.1-1.1,1.1-1.5C173.5,52.2,172,52.3,170.6,52.7z M195.7,50.4
				c0.4,0.1,1.4,0.1,1.5-0.2C196.6,50.9,196.2,49.4,195.7,50.4z M164.4,54c-0.1,0.4-0.6,0.7-0.5,1.1c2-0.4,3.8-1,5.6-1.8
				c0-0.1,0-0.3-0.1-0.3C167.7,53.5,166,53.6,164.4,54z M187,52.2c-0.5,0.7-0.8,1.4-1,2.2c5.5-1.1,11.4-3.1,17.3-2.8
				c-1.6-2-4.8-1.1-6.9-0.6c-0.5,0.1-0.8-0.1-1.2-0.3C192.5,51.2,190,52.4,187,52.2z M177,54.7c0,0,0,0.1,0,0.2
				c1.7-0.4,4.7,0.7,5.2-1.6C180.7,53.2,177.8,52.9,177,54.7z M163.3,56c-0.1,0.2-0.3,0.5-0.2,0.7c2.1-0.6,4.2-1.1,6.3-2
				c0.2-0.1,0-0.3,0-0.5C167.3,54.8,165.3,55.4,163.3,56z M162.6,58.2c0,0.2,0.1,0.5,0,0.6c2.3-0.8,4.8-1.7,7-3
				c0-0.1-0.1-0.1-0.1-0.2C167.1,56.5,164.7,56.9,162.6,58.2z M192.8,53.8c3.3,1.4,6.7,3.2,10.4,3.5c0.5,0,0.9-0.1,1.2-0.4
				c0-0.1,0-0.1,0-0.2c-2.9-1.2-5.9-2.2-8.9-3.3C194.6,53.5,193.8,53.7,192.8,53.8z M190.7,54.6c0.4,1.8-0.6,4.7,1.6,5.3
				c0.2,0,0.3,0,0.5,0c0.2-1.5-0.2-3.2-0.3-4.9C191.9,54.8,190.9,54,190.7,54.6z M187.9,54.9c-0.1,1.1,0.1,2.4,0.3,3.3
				c0.6,0.3,1.2,0.7,1.9,0.5c0-1.3-0.2-2.8-0.3-4.1C189.1,54.5,188.5,54.8,187.9,54.9z M175.9,56.7c0,0.1,0,0.2,0,0.3
				c1.5-0.1,3,0,4.4-0.2c0.2-0.4,0.6-0.7,0.5-1.2C179.3,56,177,55.4,175.9,56.7z M162.6,60.1c-0.3,0.2-0.1,0.7-0.1,1.1
				c2.4-1.1,4.7-2.8,7.1-4.2c0.3-0.1-0.1,0-0.2-0.2C167.1,57.7,164.9,58.9,162.6,60.1z M185.8,57.5c0.3,0.3,0.8,0.3,1.3,0.4
				c0.3-0.8,0.1-2-0.1-2.8C184.9,54.9,186.1,56.4,185.8,57.5z M162.5,63.3c2.5-1.7,5-3.6,7.2-5.8c-2.4,1.6-4.8,3.2-7.3,4.7
				C162.3,62.6,162.4,63,162.5,63.3z M195.1,61.1c0.1,0,0.3,0,0.4,0c-0.1-1.7-0.1-3.3-0.6-5.1c-0.5,0-1-0.6-1.5-0.6
				C193.8,57.3,192.5,60.3,195.1,61.1z M174.6,58.9c0,0.1,0,0.3,0,0.4c1.4,0.4,3,0.1,4.4,0.1c0.2-0.5,0.6-0.9,0.7-1.5
				C178.3,58.2,175.7,57.4,174.6,58.9z M196.4,61.3c0.6,0.3,1.1,0.8,1.8,0.7c-0.2-1.7-0.3-3.5-0.6-5c-0.5-0.3-1-0.6-1.6-0.5
				C196.1,58.1,196.3,59.8,196.4,61.3z M198.6,57.5c0.9,2.1-0.8,6.1,2.7,6c-0.1-1.7-0.5-3.6-0.7-5.3
				C199.9,57.9,199.3,57.6,198.6,57.5z M205.7,57.5c4.4,2.3,8.7,4.7,13.1,6.9c1.3,0,2.4-0.4,3.5-0.9c-5.4-2.1-11.1-4.5-16.6-6.2
				C205.7,57.4,205.7,57.5,205.7,57.5z M173.2,61.6c1.6-0.2,3.1,0.1,4.7-0.1c0-0.4,1.1-1.2,0-1.2c-1.8,0.2-3.7-0.8-4.7,1.1
				C173.2,61.5,173.2,61.5,173.2,61.6z M202.5,63.9c0.6,0.5,3.9,2.8,2.2-0.1c-0.6-1.8-1.2-3.5-1.8-5.3c-0.4,0-0.8-0.1-1.3-0.2
				C201.7,60.2,202.3,62,202.5,63.9z M213.5,65.8c1.2,0.4,2.7,0,3.7-0.6c0.2,0.1,0.1-0.2,0-0.2c-4-2.3-7.9-4.7-11.8-6.7
				C208,60.8,210.8,63.3,213.5,65.8z M210.2,66.2c0.8,0.3,1.6,0.4,2.6,0.4c-2.4-2.7-5.4-5.3-8-7.9C206.4,61.2,208.4,63.7,210.2,66.2
				z M206.3,65.4c0.9,0.4,1.7,1,2.8,0.9c-1.7-2.5-3.4-5.1-5.2-7.5C204.6,61.1,205.5,63.2,206.3,65.4z M171.9,63.5c0,0.1,0,0.3,0,0.4
				c1.6,0.1,3.1,0.2,4.8,0.1c0.2-0.4,0.4-0.7,0.6-1.1C175.6,62.9,173.1,61.6,171.9,63.5z M170.1,66.4c0,0.2,0,0.4,0.1,0.6
				c2.2-0.3,3.2,0,5.2-0.5c0.4-0.3,0.9-1.3,0.4-1.4C173.8,65.4,171.2,64.3,170.1,66.4z M167.9,70.3c0,0.2,0.3,0,0.4,0.2
				c2-0.5,4.2-1,6.2-1.6c0-0.4,0.6-1,0.2-1.2C172.3,68.2,168.5,67.2,167.9,70.3z M167.5,71.6c-0.8,0.6-1.5,1.5-1.6,2.5
				c2.8-1.1,5.6-2.3,8.3-3.4c-0.1-0.3,0.2-0.5,0.1-0.7C172,70.5,169.7,71,167.5,71.6z M165.6,75.5c-0.7,1-1.3,2-1.1,3.2
				c3.2-2.2,6.8-4.6,9.7-7.2C171.4,72.8,168.5,74.2,165.6,75.5z M165.1,79.8c-0.4,0.7-0.2,1.5,0.1,2.2c0,0,0.1,0.1,0.1,0.1
				c3.4-2.9,6.3-6.5,9.5-9.6c0-0.1,0-0.3-0.1-0.3C171.4,74.6,168.3,77.4,165.1,79.8z M166.4,83c-0.4,1.2,0.2,2.3,1,3.2
				c0.4,0.2,0.9,1,1.3,0.4c2.4-4.4,4.5-8.9,6.5-13.3C172.1,76.3,169.3,79.8,166.4,83"/>
			<g id="Short_title">
				<g id="g101" transform="translate(314.685,195.0231)">
					<path id="path103" fill="#FDC42A" d="M-136.1-124.2c0-0.3,0.1-0.4,0.4-0.4h7.4c0.4,0,0.4,0.2,0.4,0.4l-0.1,1.4
						c0,0.3-0.1,0.4-0.4,0.4h-4.9l-0.2,3.1h3.7c0.4,0,0.4,0.2,0.4,0.4l-0.1,1.4c0,0.3-0.1,0.4-0.4,0.4h-3.7l-0.2,4h4.9
						c0.4,0,0.4,0.1,0.4,0.4l-0.1,1.4c0,0.3-0.1,0.4-0.4,0.4h-7.4c-0.4,0-0.4-0.2-0.4-0.4"/>
				</g>
				<g id="g105" transform="translate(338.0499,194.9129)">
					<path id="path107" fill="#FDC42A" d="M-150.3-124c0-0.3,0.1-0.4,0.4-0.4h2.9c0.2,0,0.4,0.2,0.5,0.4l3.6,7.8
						c0.3,0.7,0.7,1.6,0.9,2.4h0l0.5-10.1c0-0.3,0.1-0.5,0.5-0.5h1.6c0.4,0,0.4,0.2,0.4,0.4l-0.7,12.9c0,0.3-0.1,0.4-0.5,0.4h-2.9
						c-0.2,0-0.4-0.2-0.5-0.4l-3.5-8c-0.5-1.1-0.8-1.8-0.9-2.4h0l-0.5,10.4c0,0.3-0.1,0.4-0.4,0.4h-1.8c-0.4,0-0.4-0.2-0.4-0.4"/>
				</g>
				<g id="g109" transform="translate(382.7956,185.3551)">
					<path id="path111" fill="#FDC42A" d="M-177.5-110.7c0.3-0.9,0.5-1.5,0.7-2.2h0c0.1,1,0.3,2.3,0.6,4.1l0.3,1.8h-3L-177.5-110.7z
						 M-183.4-102.1c-0.1,0.2-0.2,0.4-0.2,0.6c0,0.2,0.2,0.3,0.3,0.3h2.1c0.2,0,0.3-0.1,0.4-0.3l1.3-3.5h4l0.7,3.4
						c0,0.1,0,0.3,0.3,0.3h2.5c0.3,0,0.4-0.1,0.4-0.3c0-0.1-0.1-0.4-0.1-0.6l-3-12.2c-0.1-0.6-0.3-0.7-0.9-0.7h-2.1
						c-0.5,0-0.6,0.1-0.8,0.7"/>
				</g>
				<g id="g113" transform="translate(417.9776,196.5776)">
					<path id="path115" fill="#FDC42A" d="M-198.8-126.3c-4,0-7.5,2.6-7.5,7.4c0,4.5,2.3,6.8,6.5,6.8c1.8,0,3.6-0.3,3.6-1l0.1-1.8
						c0-0.1-0.1-0.3-0.3-0.3c-0.3,0-1.3,0.7-3.1,0.7c-2.3,0-3.7-1.4-3.7-4.3c0-2.9,1.6-5.1,4.4-5.1c0.3,0,0.5,0,0.7,0v-2.3
						C-198.4-126.3-198.6-126.3-198.8-126.3"/>
				</g>
			</g>
		</g>
		<g>
			<path fill="#F7C11B" d="M-3.1,579.7c6.2,0,12.5-0.1,18.7,0c1.5,0,2.1-0.2,2.2-2c0.6-5.7,5.1-9.5,10.7-9.5c5.4,0,9.9,3.8,10.5,9.3
				c0.2,1.9,0.8,2.2,2.5,2.2c6-0.1,12.1,0,18.1,0c-0.1,2.7-0.1,5.7,0,8.8c-20.7,0-41.5,0.1-62.2,0.1C-2.7,585.6-2.9,582.6-3.1,579.7
				z"/>
			<path fill="#F7C11B" d="M62.3,629.8c-21.3,0-42.6,0-63.9,0c0,0,0-3.4-0.1-8.7c21,0,42.1,0,63.1,0C62,626.3,62.3,629.8,62.3,629.8
				z"/>
			<path fill="#F7C11B" d="M60.5,607.3c0.2,3.1,0.4,6,0.6,8.6c-20.9,0-41.9,0-62.8,0c0-2.6-0.1-5.5-0.2-8.5c17.5,0,35,0,52.5,0
				C53.9,607.4,57.2,606.8,60.5,607.3z"/>
			<path fill="#F7C11B" d="M60.1,601.6c-20.7,0-41.5,0-62.2,0c-0.1-2.8-0.2-5.6-0.3-8.5c20.7,0,41.4,0,62.1,0
				C59.9,596,60,598.8,60.1,601.6z"/>
		</g>
	</g>
</g>
</svg>
